  0
SECTION
  2
HEADER
  9
$ACADVER
  1
AC1024
  9
$ACADMAINTVER
 70
6
  9
$DWGCODEPAGE
  3
ANSI_1252
  9
$LASTSAVEDBY
  1
ezdxf
  9
$INSBASE
 10
0.0
 20
0.0
 30
0.0
  9
$EXTMIN
 10
1e+20
 20
1e+20
 30
1e+20
  9
$EXTMAX
 10
-1e+20
 20
-1e+20
 30
-1e+20
  9
$LIMMIN
 10
0.0
 20
0.0
  9
$LIMMAX
 10
420.0
 20
297.0
  9
$ORTHOMODE
 70
0
  9
$REGENMODE
 70
1
  9
$FILLMODE
 70
1
  9
$QTEXTMODE
 70
0
  9
$MIRRTEXT
 70
1
  9
$LTSCALE
 40
1.0
  9
$ATTMODE
 70
1
  9
$TEXTSIZE
 40
2.5
  9
$TRACEWID
 40
1.0
  9
$TEXTSTYLE
  7
Standard
  9
$CLAYER
  8
0
  9
$CELTYPE
  6
ByLayer
  9
$CECOLOR
 62
256
  9
$CELTSCALE
 40
1.0
  9
$DISPSILH
 70
0
  9
$DIMSCALE
 40
1.0
  9
$DIMASZ
 40
2.5
  9
$DIMEXO
 40
0.625
  9
$DIMDLI
 40
3.75
  9
$DIMRND
 40
0.0
  9
$DIMDLE
 40
0.0
  9
$DIMEXE
 40
1.25
  9
$DIMTP
 40
0.0
  9
$DIMTM
 40
0.0
  9
$DIMTXT
 40
2.5
  9
$DIMCEN
 40
2.5
  9
$DIMTSZ
 40
0.0
  9
$DIMTOL
 70
0
  9
$DIMLIM
 70
0
  9
$DIMTIH
 70
0
  9
$DIMTOH
 70
0
  9
$DIMSE1
 70
0
  9
$DIMSE2
 70
0
  9
$DIMTAD
 70
1
  9
$DIMZIN
 70
8
  9
$DIMBLK
  1

  9
$DIMASO
 70
1
  9
$DIMSHO
 70
1
  9
$DIMPOST
  1

  9
$DIMAPOST
  1

  9
$DIMALT
 70
0
  9
$DIMALTD
 70
3
  9
$DIMALTF
 40
0.03937007874
  9
$DIMLFAC
 40
1.0
  9
$DIMTOFL
 70
1
  9
$DIMTVP
 40
0.0
  9
$DIMTIX
 70
0
  9
$DIMSOXD
 70
0
  9
$DIMSAH
 70
0
  9
$DIMBLK1
  1

  9
$DIMBLK2
  1

  9
$DIMSTYLE
  2
ISO-25
  9
$DIMCLRD
 70
0
  9
$DIMCLRE
 70
0
  9
$DIMCLRT
 70
0
  9
$DIMTFAC
 40
1.0
  9
$DIMGAP
 40
0.625
  9
$DIMJUST
 70
0
  9
$DIMSD1
 70
0
  9
$DIMSD2
 70
0
  9
$DIMTOLJ
 70
0
  9
$DIMTZIN
 70
8
  9
$DIMALTZ
 70
0
  9
$DIMALTTZ
 70
0
  9
$DIMUPT
 70
0
  9
$DIMDEC
 70
2
  9
$DIMTDEC
 70
2
  9
$DIMALTU
 70
2
  9
$DIMALTTD
 70
3
  9
$DIMTXSTY
  7
Standard
  9
$DIMAUNIT
 70
0
  9
$DIMADEC
 70
0
  9
$DIMALTRND
 40
0.0
  9
$DIMAZIN
 70
0
  9
$DIMDSEP
 70
44
  9
$DIMATFIT
 70
3
  9
$DIMFRAC
 70
0
  9
$DIMLDRBLK
  1

  9
$DIMLUNIT
 70
2
  9
$DIMLWD
 70
-2
  9
$DIMLWE
 70
-2
  9
$DIMTMOVE
 70
0
  9
$DIMFXL
 40
1.0
  9
$DIMFXLON
 70
0
  9
$DIMJOGANG
 40
0.785398163397
  9
$DIMTFILL
 70
0
  9
$DIMTFILLCLR
 70
0
  9
$DIMARCSYM
 70
0
  9
$DIMLTYPE
  6

  9
$DIMLTEX1
  6

  9
$DIMLTEX2
  6

  9
$DIMTXTDIRECTION
 70
0
  9
$LUNITS
 70
2
  9
$LUPREC
 70
4
  9
$SKETCHINC
 40
1.0
  9
$FILLETRAD
 40
10.0
  9
$AUNITS
 70
0
  9
$AUPREC
 70
2
  9
$MENU
  1
.
  9
$ELEVATION
 40
0.0
  9
$PELEVATION
 40
0.0
  9
$THICKNESS
 40
0.0
  9
$LIMCHECK
 70
0
  9
$CHAMFERA
 40
0.0
  9
$CHAMFERB
 40
0.0
  9
$CHAMFERC
 40
0.0
  9
$CHAMFERD
 40
0.0
  9
$SKPOLY
 70
0
  9
$TDCREATE
 40
2461324.4011805556
  9
$TDUCREATE
 40
2458532.153996898
  9
$TDUPDATE
 40
2461324.4011805556
  9
$TDUUPDATE
 40
2458532.1544311
  9
$TDINDWG
 40
0.0
  9
$TDUSRTIMER
 40
0.0
  9
$USRTIMER
 70
1
  9
$ANGBASE
 50
0.0
  9
$ANGDIR
 70
0
  9
$PDMODE
 70
0
  9
$PDSIZE
 40
0.0
  9
$PLINEWID
 40
0.0
  9
$SPLFRAME
 70
0
  9
$SPLINETYPE
 70
6
  9
$SPLINESEGS
 70
8
  9
$HANDSEED
  5
F1
  9
$SURFTAB1
 70
6
  9
$SURFTAB2
 70
6
  9
$SURFTYPE
 70
6
  9
$SURFU
 70
6
  9
$SURFV
 70
6
  9
$UCSBASE
  2

  9
$UCSNAME
  2

  9
$UCSORG
 10
0.0
 20
0.0
 30
0.0
  9
$UCSXDIR
 10
1.0
 20
0.0
 30
0.0
  9
$UCSYDIR
 10
0.0
 20
1.0
 30
0.0
  9
$UCSORTHOREF
  2

  9
$UCSORTHOVIEW
 70
0
  9
$UCSORGTOP
 10
0.0
 20
0.0
 30
0.0
  9
$UCSORGBOTTOM
 10
0.0
 20
0.0
 30
0.0
  9
$UCSORGLEFT
 10
0.0
 20
0.0
 30
0.0
  9
$UCSORGRIGHT
 10
0.0
 20
0.0
 30
0.0
  9
$UCSORGFRONT
 10
0.0
 20
0.0
 30
0.0
  9
$UCSORGBACK
 10
0.0
 20
0.0
 30
0.0
  9
$PUCSBASE
  2

  9
$PUCSNAME
  2

  9
$PUCSORG
 10
0.0
 20
0.0
 30
0.0
  9
$PUCSXDIR
 10
1.0
 20
0.0
 30
0.0
  9
$PUCSYDIR
 10
0.0
 20
1.0
 30
0.0
  9
$PUCSORTHOREF
  2

  9
$PUCSORTHOVIEW
 70
0
  9
$PUCSORGTOP
 10
0.0
 20
0.0
 30
0.0
  9
$PUCSORGBOTTOM
 10
0.0
 20
0.0
 30
0.0
  9
$PUCSORGLEFT
 10
0.0
 20
0.0
 30
0.0
  9
$PUCSORGRIGHT
 10
0.0
 20
0.0
 30
0.0
  9
$PUCSORGFRONT
 10
0.0
 20
0.0
 30
0.0
  9
$PUCSORGBACK
 10
0.0
 20
0.0
 30
0.0
  9
$USERI1
 70
0
  9
$USERI2
 70
0
  9
$USERI3
 70
0
  9
$USERI4
 70
0
  9
$USERI5
 70
0
  9
$USERR1
 40
0.0
  9
$USERR2
 40
0.0
  9
$USERR3
 40
0.0
  9
$USERR4
 40
0.0
  9
$USERR5
 40
0.0
  9
$WORLDVIEW
 70
1
  9
$SHADEDGE
 70
3
  9
$SHADEDIF
 70
70
  9
$TILEMODE
 70
1
  9
$MAXACTVP
 70
64
  9
$PINSBASE
 10
0.0
 20
0.0
 30
0.0
  9
$PLIMCHECK
 70
0
  9
$PEXTMIN
 10
1e+20
 20
1e+20
 30
1e+20
  9
$PEXTMAX
 10
-1e+20
 20
-1e+20
 30
-1e+20
  9
$PLIMMIN
 10
0.0
 20
0.0
  9
$PLIMMAX
 10
420.0
 20
297.0
  9
$UNITMODE
 70
0
  9
$VISRETAIN
 70
1
  9
$PLINEGEN
 70
0
  9
$PSLTSCALE
 70
1
  9
$TREEDEPTH
 70
3020
  9
$CMLSTYLE
  2
Standard
  9
$CMLJUST
 70
0
  9
$CMLSCALE
 40
20.0
  9
$PROXYGRAPHICS
 70
1
  9
$MEASUREMENT
 70
1
  9
$CELWEIGHT
370
-1
  9
$ENDCAPS
280
0
  9
$JOINSTYLE
280
0
  9
$LWDISPLAY
290
0
  9
$INSUNITS
 70
5
  9
$HYPERLINKBASE
  1

  9
$STYLESHEET
  1

  9
$XEDIT
290
1
  9
$CEPSNTYPE
380
0
  9
$PSTYLEMODE
290
1
  9
$FINGERPRINTGUID
  2
{78F1051D-3CD6-4F1B-B83E-3B61E1CF3FC3}
  9
$VERSIONGUID
  2
{5F9D14DD-F2A5-484B-BD02-37F021CF0AA6}
  9
$EXTNAMES
290
1
  9
$PSVPSCALE
 40
0.0
  9
$OLESTARTUP
290
0
  9
$SORTENTS
280
127
  9
$INDEXCTL
280
0
  9
$HIDETEXT
280
1
  9
$XCLIPFRAME
280
1
  9
$HALOGAP
280
0
  9
$OBSCOLOR
 70
257
  9
$OBSLTYPE
280
0
  9
$INTERSECTIONDISPLAY
280
0
  9
$INTERSECTIONCOLOR
 70
257
  9
$DIMASSOC
280
2
  9
$PROJECTNAME
  1

  9
$CAMERADISPLAY
290
0
  9
$LENSLENGTH
 40
50.0
  9
$CAMERAHEIGHT
 40
0.0
  9
$STEPSPERSEC
 40
24.0
  9
$STEPSIZE
 40
100.0
  9
$3DDWFPREC
 40
2.0
  9
$PSOLWIDTH
 40
0.005
  9
$PSOLHEIGHT
 40
0.08
  9
$LOFTANG1
 40
1.570796326795
  9
$LOFTANG2
 40
1.570796326795
  9
$LOFTMAG1
 40
0.0
  9
$LOFTMAG2
 40
0.0
  9
$LOFTPARAM
 70
7
  9
$LOFTNORMALS
280
1
  9
$LATITUDE
 40
37.795
  9
$LONGITUDE
 40
-122.394
  9
$NORTHDIRECTION
 40
0.0
  9
$TIMEZONE
 70
-8000
  9
$LIGHTGLYPHDISPLAY
280
1
  9
$TILEMODELIGHTSYNCH
280
1
  9
$CMATERIAL
347
20
  9
$SOLIDHIST
280
0
  9
$SHOWHIST
280
1
  9
$DWFFRAME
280
2
  9
$DGNFRAME
280
2
  9
$REALWORLDSCALE
290
1
  9
$INTERFERECOLOR
 62
256
  9
$CSHADOW
280
0
  9
$SHADOWPLANELOCATION
 40
0.0
  0
ENDSEC
  0
SECTION
  2
CLASSES
  0
CLASS
  1
ACDBDICTIONARYWDFLT
  2
AcDbDictionaryWithDefault
  3
ObjectDBX Classes
 90
0
 91
0
280
0
281
0
  0
CLASS
  1
SUN
  2
AcDbSun
  3
SCENEOE
 90
1153
 91
0
280
0
281
0
  0
CLASS
  1
VISUALSTYLE
  2
AcDbVisualStyle
  3
ObjectDBX Classes
 90
4095
 91
0
280
0
281
0
  0
CLASS
  1
MATERIAL
  2
AcDbMaterial
  3
ObjectDBX Classes
 90
1153
 91
0
280
0
281
0
  0
CLASS
  1
SCALE
  2
AcDbScale
  3
ObjectDBX Classes
 90
1153
 91
0
280
0
281
0
  0
CLASS
  1
TABLESTYLE
  2
AcDbTableStyle
  3
ObjectDBX Classes
 90
4095
 91
0
280
0
281
0
  0
CLASS
  1
MLEADERSTYLE
  2
AcDbMLeaderStyle
  3
ACDB_MLEADERSTYLE_CLASS
 90
4095
 91
0
280
0
281
0
  0
CLASS
  1
DICTIONARYVAR
  2
AcDbDictionaryVar
  3
ObjectDBX Classes
 90
0
 91
0
280
0
281
0
  0
CLASS
  1
CELLSTYLEMAP
  2
AcDbCellStyleMap
  3
ObjectDBX Classes
 90
1152
 91
0
280
0
281
0
  0
CLASS
  1
MENTALRAYRENDERSETTINGS
  2
AcDbMentalRayRenderSettings
  3
SCENEOE
 90
1024
 91
0
280
0
281
0
  0
CLASS
  1
ACDBDETAILVIEWSTYLE
  2
AcDbDetailViewStyle
  3
ObjectDBX Classes
 90
1025
 91
0
280
0
281
0
  0
CLASS
  1
ACDBSECTIONVIEWSTYLE
  2
AcDbSectionViewStyle
  3
ObjectDBX Classes
 90
1025
 91
0
280
0
281
0
  0
CLASS
  1
RASTERVARIABLES
  2
AcDbRasterVariables
  3
ISM
 90
0
 91
0
280
0
281
0
  0
CLASS
  1
ACDBPLACEHOLDER
  2
AcDbPlaceHolder
  3
ObjectDBX Classes
 90
0
 91
0
280
0
281
0
  0
CLASS
  1
LAYOUT
  2
AcDbLayout
  3
ObjectDBX Classes
 90
0
 91
0
280
0
281
0
  0
ENDSEC
  0
SECTION
  2
TABLES
  0
TABLE
  2
VPORT
  5
8
330
0
100
AcDbSymbolTable
 70
1
  0
VPORT
  5
23
330
8
100
AcDbSymbolTableRecord
100
AcDbViewportTableRecord
  2
*Active
 70
0
 10
0.0
 20
0.0
 11
1.0
 21
1.0
 12
0.0
 22
0.0
 13
0.0
 23
0.0
 14
0.5
 24
0.5
 15
0.5
 25
0.5
 16
0.0
 26
0.0
 36
1.0
 17
0.0
 27
0.0
 37
0.0
 40
1000.0
 41
1.34
 42
50.0
 43
0.0
 44
0.0
 50
0.0
 51
0.0
 71
0
 72
1000
 73
1
 74
3
 75
0
 76
0
 77
0
 78
0
281
0
 65
0
146
0.0
  0
ENDTAB
  0
TABLE
  2
LTYPE
  5
2
330
0
100
AcDbSymbolTable
 70
4
  0
LTYPE
  5
24
330
2
100
AcDbSymbolTableRecord
100
AcDbLinetypeTableRecord
  2
ByBlock
 70
0
  3

 72
65
 73
0
 40
0.0
  0
LTYPE
  5
25
330
2
100
AcDbSymbolTableRecord
100
AcDbLinetypeTableRecord
  2
ByLayer
 70
0
  3

 72
65
 73
0
 40
0.0
  0
LTYPE
  5
26
330
2
100
AcDbSymbolTableRecord
100
AcDbLinetypeTableRecord
  2
Continuous
 70
0
  3

 72
65
 73
0
 40
0.0
  0
LTYPE
  5
2F
330
2
100
AcDbSymbolTableRecord
100
AcDbLinetypeTableRecord
  2
DASHED
 70
0
  3
Dashed
 72
65
 73
2
 40
0.6
 49
0.5
 74
0
 49
-0.1
 74
0
  0
ENDTAB
  0
TABLE
  2
LAYER
  5
1
330
0
100
AcDbSymbolTable
 70
10
  0
LAYER
  5
27
330
1
100
AcDbSymbolTableRecord
100
AcDbLayerTableRecord
  2
0
 70
0
 62
7
  6
Continuous
370
-3
390
13
347
21
  0
LAYER
  5
28
330
1
100
AcDbSymbolTableRecord
100
AcDbLayerTableRecord
  2
Defpoints
 70
0
 62
7
  6
Continuous
290
0
370
-3
390
13
347
21
  0
LAYER
  5
30
330
1
100
AcDbSymbolTableRecord
100
AcDbLayerTableRecord
  2
CUT_LINE
 70
0
 62
7
  6
Continuous
370
-3
390
13
347
21
  0
LAYER
  5
31
330
1
100
AcDbSymbolTableRecord
100
AcDbLayerTableRecord
  2
STITCH_LINE
 70
0
 62
3
  6
Continuous
370
-3
390
13
347
21
  0
LAYER
  5
32
330
1
100
AcDbSymbolTableRecord
100
AcDbLayerTableRecord
  2
NOTCH
 70
0
 62
1
  6
Continuous
370
-3
390
13
347
21
  0
LAYER
  5
33
330
1
100
AcDbSymbolTableRecord
100
AcDbLayerTableRecord
  2
GRAINLINE
 70
0
 62
5
  6
Continuous
370
-3
390
13
347
21
  0
LAYER
  5
34
330
1
100
AcDbSymbolTableRecord
100
AcDbLayerTableRecord
  2
LABEL
 70
0
 62
8
  6
Continuous
370
-3
390
13
347
21
  0
LAYER
  5
35
330
1
100
AcDbSymbolTableRecord
100
AcDbLayerTableRecord
  2
LABEL_ID
 70
0
 62
8
  6
Continuous
370
-3
390
13
347
21
  0
LAYER
  5
36
330
1
100
AcDbSymbolTableRecord
100
AcDbLayerTableRecord
  2
WARNING
 70
0
 62
1
  6
Continuous
370
-3
390
13
347
21
  0
LAYER
  5
37
330
1
100
AcDbSymbolTableRecord
100
AcDbLayerTableRecord
  2
REFERENCE_LINE
 70
0
 62
6
  6
Continuous
370
-3
390
13
347
21
  0
ENDTAB
  0
TABLE
  2
STYLE
  5
5
330
0
100
AcDbSymbolTable
 70
1
  0
STYLE
  5
29
330
5
100
AcDbSymbolTableRecord
100
AcDbTextStyleTableRecord
  2
Standard
 70
0
 40
0.0
 41
1.0
 50
0.0
 71
0
 42
2.5
  3
txt
  4

  0
ENDTAB
  0
TABLE
  2
VIEW
  5
7
330
0
100
AcDbSymbolTable
 70
0
  0
ENDTAB
  0
TABLE
  2
UCS
  5
6
330
0
100
AcDbSymbolTable
 70
0
  0
ENDTAB
  0
TABLE
  2
APPID
  5
3
330
0
100
AcDbSymbolTable
 70
3
  0
APPID
  5
2A
330
3
100
AcDbSymbolTableRecord
100
AcDbRegAppTableRecord
  2
ACAD
 70
0
  0
APPID
  5
EE
330
3
100
AcDbSymbolTableRecord
100
AcDbRegAppTableRecord
  2
HATCHBACKGROUNDCOLOR
 70
0
  0
APPID
  5
EF
330
3
100
AcDbSymbolTableRecord
100
AcDbRegAppTableRecord
  2
EZDXF
 70
0
  0
ENDTAB
  0
TABLE
  2
DIMSTYLE
  5
4
330
0
100
AcDbSymbolTable
 70
1
100
AcDbDimStyleTable
  0
DIMSTYLE
105
2B
330
4
100
AcDbSymbolTableRecord
100
AcDbDimStyleTableRecord
  2
Standard
 70
0
 40
1.0
 41
2.5
 42
0.625
 43
3.75
 44
1.25
 45
0.0
 46
0.0
 47
0.0
 48
0.0
 49
2.5
140
2.5
141
2.5
142
0.0
143
0.03937007874
144
1.0
145
0.0
146
1.0
147
0.625
148
0.0
 69
0
 70
0
 71
0
 72
0
 73
0
 74
0
 75
0
 76
0
 77
1
 78
8
 79
3
170
0
171
3
172
1
173
0
174
0
175
0
176
0
177
0
178
0
179
2
271
2
272
2
273
2
274
3
275
0
276
0
277
2
278
44
279
0
280
0
281
0
282
0
283
0
284
8
285
0
286
0
288
0
289
3
290
0
371
-2
372
-2
  0
ENDTAB
  0
TABLE
  2
BLOCK_RECORD
  5
9
330
0
100
AcDbSymbolTable
 70
2
  0
BLOCK_RECORD
  5
17
330
9
100
AcDbSymbolTableRecord
100
AcDbBlockTableRecord
  2
*Model_Space
340
1A
 70
0
280
1
281
0
  0
BLOCK_RECORD
  5
1B
330
9
100
AcDbSymbolTableRecord
100
AcDbBlockTableRecord
  2
*Paper_Space
340
1E
 70
0
280
1
281
0
  0
ENDTAB
  0
ENDSEC
  0
SECTION
  2
BLOCKS
  0
BLOCK
  5
18
330
17
100
AcDbEntity
  8
0
100
AcDbBlockBegin
  2
*Model_Space
 70
0
 10
0.0
 20
0.0
 30
0.0
  3
*Model_Space
  1

  0
ENDBLK
  5
19
330
17
100
AcDbEntity
  8
0
100
AcDbBlockEnd
  0
BLOCK
  5
1C
330
1B
100
AcDbEntity
  8
0
100
AcDbBlockBegin
  2
*Paper_Space
 70
0
 10
0.0
 20
0.0
 30
0.0
  3
*Paper_Space
  1

  0
ENDBLK
  5
1D
330
1B
100
AcDbEntity
  8
0
100
AcDbBlockEnd
  0
ENDSEC
  0
SECTION
  2
ENTITIES
  0
LWPOLYLINE
  5
38
330
17
100
AcDbEntity
  8
CUT_LINE
100
AcDbPolyline
 90
40
 70
1
 10
114.0325666917156
 20
115.01806023022957
 10
112.93346967518005
 20
136.0701978574456
 10
112.53017237110924
 20
143.79496666515837
 10
106.2712792735248
 20
148.13553531819156
 10
114.30781007036302
 20
144.27744395750145
 10
114.90803638120377
 20
144.93754440426778
 10
112.40182925011838
 20
149.0947519657334
 10
106.24902300775045
 20
151.55745973360393
 10
113.8037420565567
 20
150.02167200830405
 10
112.93960106185912
 20
156.09029651440477
 10
112.43966207198815
 20
156.9006685001603
 10
112.04830032704734
 20
157.54929444881662
 10
111.65741862635008
 20
158.21498057494688
 10
111.27182101691993
 20
158.8966711852658
 10
110.89154626000489
 20
159.59806350725432
 10
110.52023452180455
 20
160.31449003709395
 10
110.1627704199187
 20
161.0456921579042
 10
109.81964902529785
 20
161.79347362801894
 10
109.4882172155915
 20
162.5718686608677
 10
109.17904503113427
 20
163.2893444286081
 10
108.90014890331764
 20
164.00186672775607
 10
108.64836327355312
 20
164.72518973021016
 10
108.42548840959097
 20
165.44878648020114
 10
108.23605752571797
 20
166.18267035131527
 10
108.08009474506093
 20
166.92818855192485
 10
107.96205640777114
 20
167.6856443342233
 10
107.88260553066638
 20
168.45551971495996
 10
107.84624199426506
 20
169.23687173159723
 10
107.8546312373949
 20
170.03148312847838
 10
107.91050384800945
 20
170.8379794187549
 10
108.01766460270665
 20
171.65789014405578
 10
108.1783019667951
 20
172.49265358778035
 10
108.39542405163026
 20
173.34231548366756
 10
108.96484207459483
 20
175.11834090183268
 10
95.60444871900322
 20
180.51629020496546
 10
88.61011784338187
 20
166.48479353147488
 10
84.24900772257207
 20
166.48479353147488
 10
84.03226026811592
 20
155.76300500816876
 10
83.63351283355462
 20
136.03827200816878
 10
83.20857651018899
 20
115.01806023022957
  0
LWPOLYLINE
  5
39
330
17
100
AcDbEntity
  8
STITCH_LINE
  6
DASHED
100
AcDbPolyline
 90
40
 70
1
 10
112.97899643087517
 20
116.01806023022957
 10
111.93482975046213
 20
136.01806053147487
 10
111.55711372115442
 20
143.25284482563657
 10
95.37237961935234
 20
154.47702590760332
 10
113.12819371162607
 20
145.95300544614096
 10
111.71867827664148
 20
148.29105969219313
 10
95.59972630096554
 20
154.7427935314749
 10
112.61390487241445
 20
151.28400619110116
 10
111.97899643087517
 20
155.7427935314749
 10
111.58599643087517
 20
156.37982364285733
 10
111.18899643087516
 20
157.03779419042706
 10
110.79099643087517
 20
157.71560304596375
 10
110.39699643087516
 20
158.41214808124698
 10
110.00799643087518
 20
159.1296335527175
 10
109.62699643087518
 20
159.8647530757142
 10
109.25899643087517
 20
160.61750665023703
 10
108.90499643087517
 20
161.38899640450643
 10
108.56899643087517
 20
162.17812021030198
 10
108.25399643087516
 20
162.90912021030198
 10
107.96199643087516
 20
163.65512021030196
 10
107.69799643087518
 20
164.4135323278897
 10
107.46299643087517
 20
165.17649515476444
 10
107.26199643087517
 20
165.95519953009133
 10
107.09599643087518
 20
166.7486966758837
 10
106.96999643087517
 20
167.55724270220804
 10
106.88499643087516
 20
168.3808888310776
 10
106.84599643087518
 20
169.21889117255895
 10
106.85499643087516
 20
170.07135217067864
 10
106.91499643087516
 20
170.93742549147657
 10
107.02999643087517
 20
171.81731602300596
 10
107.20199643087517
 20
172.7111262092934
 10
107.43399643087517
 20
173.61900971637877
 10
107.72899643087517
 20
174.53912021030197
 10
96.08699643087517
 20
179.2427935314749
 10
89.22899643087517
 20
165.48479353147488
 10
85.22899643087517
 20
165.48479353147488
 10
85.03205599535717
 20
155.7427935314749
 10
84.63330856079585
 20
136.01806053147487
 10
84.22899643087517
 20
116.01806023022957
 10
88.22899643087517
 20
116.01806023022957
  0
LWPOLYLINE
  5
3A
330
17
100
AcDbEntity
  8
STITCH_LINE
  6
DASHED
100
AcDbPolyline
 90
4
 70
1
 10
99.44662143176669
 20
148.01806023022957
 10
101.3058255522624
 20
136.01806023022957
 10
99.44662143176669
 20
124.01806023022957
 10
97.58741731127097
 20
136.01806023022957
  0
LWPOLYLINE
  5
3B
330
17
100
AcDbEntity
  8
REFERENCE_LINE
  6
DASHED
100
AcDbPolyline
 90
2
 70
0
 10
85.43205599535717
 20
155.7427935314749
 10
111.57899643087518
 20
155.7427935314749
  0
LWPOLYLINE
  5
3C
330
17
100
AcDbEntity
  8
REFERENCE_LINE
  6
DASHED
100
AcDbPolyline
 90
2
 70
0
 10
85.033308554706
 20
136.01806023022957
 10
111.53482976618965
 20
136.01806023022957
  0
LWPOLYLINE
  5
3D
330
17
100
AcDbEntity
  8
REFERENCE_LINE
  6
DASHED
100
AcDbPolyline
 90
2
 70
0
 10
84.62901664648136
 20
116.01906023022957
 10
112.57894422254194
 20
116.01906023022957
  0
LWPOLYLINE
  5
3E
330
17
100
AcDbEntity
  8
REFERENCE_LINE
  6
DASHED
100
AcDbPolyline
 90
2
 70
0
 10
89.22899643087517
 20
165.08479353147487
 10
89.22899643087517
 20
116.41806023022957
  0
LWPOLYLINE
  5
3F
330
17
100
AcDbEntity
  8
REFERENCE_LINE
  6
DASHED
100
AcDbPolyline
 90
2
 70
0
 10
88.69109507125063
 20
155.7427935314749
 10
90.69109507125063
 20
155.7427935314749
  0
LWPOLYLINE
  5
40
330
17
100
AcDbEntity
  8
REFERENCE_LINE
  6
DASHED
100
AcDbPolyline
 90
2
 70
0
 10
89.69109507125063
 20
156.7427935314749
 10
89.69109507125063
 20
154.7427935314749
  0
LWPOLYLINE
  5
41
330
17
100
AcDbEntity
  8
REFERENCE_LINE
  6
DASHED
100
AcDbPolyline
 90
2
 70
0
 10
106.66609507125062
 20
155.7427935314749
 10
108.66609507125062
 20
155.7427935314749
  0
LWPOLYLINE
  5
42
330
17
100
AcDbEntity
  8
REFERENCE_LINE
  6
DASHED
100
AcDbPolyline
 90
2
 70
0
 10
107.66609507125062
 20
156.7427935314749
 10
107.66609507125062
 20
154.7427935314749
  0
LINE
  5
43
330
17
100
AcDbEntity
  8
NOTCH
100
AcDbLine
 10
112.08042142449492
 20
133.2293931863699
 30
0.0
 11
113.07906134921285
 21
133.2815305123406
 31
0.0
  0
LINE
  5
44
330
17
100
AcDbEntity
  8
NOTCH
100
AcDbLine
 10
107.92369871714847
 20
163.76514085487105
 30
0.0
 11
108.86811647789196
 21
164.09388862017482
 31
0.0
  0
LINE
  5
45
330
17
100
AcDbEntity
  8
GRAINLINE
100
AcDbLine
 10
94.77720343834925
 20
171.76741600008478
 30
0.0
 11
94.77720343834925
 21
120.86583029717349
 31
0.0
  0
LINE
  5
46
330
17
100
AcDbEntity
  8
GRAINLINE
100
AcDbLine
 10
93.27720343834925
 20
170.26741600008478
 30
0.0
 11
94.77720343834925
 21
171.76741600008478
 31
0.0
  0
LINE
  5
47
330
17
100
AcDbEntity
  8
GRAINLINE
100
AcDbLine
 10
96.27720343834925
 20
170.26741600008478
 30
0.0
 11
94.77720343834925
 21
171.76741600008478
 31
0.0
  0
LINE
  5
48
330
17
100
AcDbEntity
  8
GRAINLINE
100
AcDbLine
 10
93.27720343834925
 20
122.36583029717349
 30
0.0
 11
94.77720343834925
 21
120.86583029717349
 31
0.0
  0
LINE
  5
49
330
17
100
AcDbEntity
  8
GRAINLINE
100
AcDbLine
 10
96.27720343834925
 20
122.36583029717349
 30
0.0
 11
94.77720343834925
 21
120.86583029717349
 31
0.0
  0
TEXT
  5
4A
330
17
100
AcDbEntity
  8
LABEL
100
AcDbText
 10
99.05830644569639
 20
147.76717521759753
 30
0.0
 40
0.9
  1
前身頃・ファスナーパネル（Vネック） 左 [ダーツ2本]
 72
1
 11
99.05830644569639
 21
147.76717521759753
 31
0.0
100
AcDbText
 73
2
  0
TEXT
  5
4B
330
17
100
AcDbEntity
  8
LABEL_ID
100
AcDbText
 10
99.05830644569639
 20
146.56717521759754
 30
0.0
 40
0.55
  1
front_bodice_zip_panel(v_neck) 左 [ダーツ2本]
 72
1
 11
99.05830644569639
 21
146.56717521759754
 31
0.0
100
AcDbText
 73
2
  0
LWPOLYLINE
  5
4C
330
17
100
AcDbEntity
  8
CUT_LINE
100
AcDbPolyline
 90
40
 70
1
 10
146.03202656273038
 20
115.01806023022957
 10
144.93292954619486
 20
136.0701978574456
 10
144.52963224212402
 20
143.79496666515837
 10
138.2707391445396
 20
148.13553531819156
 10
146.3072699413778
 20
144.27744395750145
 10
146.90749625221858
 20
144.93754440426778
 10
144.40128912113317
 20
149.0947519657334
 10
138.24848287876526
 20
151.55745973360393
 10
145.80320192757148
 20
150.02167200830405
 10
144.93906093287393
 20
156.09029651440477
 10
144.43912194300296
 20
156.9006685001603
 10
144.04776019806215
 20
157.54929444881662
 10
143.6568784973649
 20
158.21498057494688
 10
143.27128088793472
 20
158.8966711852658
 10
142.89100613101968
 20
159.59806350725432
 10
142.51969439281936
 20
160.31449003709395
 10
142.1622302909335
 20
161.0456921579042
 10
141.81910889631263
 20
161.79347362801894
 10
141.48767708660628
 20
162.5718686608677
 10
141.17850490214906
 20
163.2893444286081
 10
140.89960877433242
 20
164.00186672775607
 10
140.6478231445679
 20
164.72518973021016
 10
140.42494828060575
 20
165.44878648020114
 10
140.23551739673277
 20
166.18267035131527
 10
140.07955461607574
 20
166.92818855192485
 10
139.96151627878592
 20
167.6856443342233
 10
139.8820654016812
 20
168.45551971495996
 10
139.84570186527986
 20
169.23687173159723
 10
139.8540911084097
 20
170.03148312847838
 10
139.90996371902423
 20
170.8379794187549
 10
140.01712447372142
 20
171.65789014405578
 10
140.1777618378099
 20
172.49265358778035
 10
140.39488392264505
 20
173.34231548366756
 10
140.96430194560963
 20
175.11834090183268
 10
127.60390859001801
 20
180.51629020496546
 10
120.60957771439666
 20
166.48479353147488
 10
116.24846759358687
 20
166.48479353147488
 10
116.03172013913073
 20
155.76300500816876
 10
115.63297270456941
 20
136.03827200816878
 10
115.20803638120378
 20
115.01806023022957
  0
LWPOLYLINE
  5
4D
330
17
100
AcDbEntity
  8
STITCH_LINE
  6
DASHED
100
AcDbPolyline
 90
40
 70
1
 10
144.97845630188996
 20
116.01806023022957
 10
143.93428962147692
 20
136.01806053147487
 10
143.55657359216923
 20
143.25284482563657
 10
127.37183949036714
 20
154.47702590760332
 10
145.12765358264085
 20
145.95300544614096
 10
143.71813814765628
 20
148.29105969219313
 10
127.59918617198034
 20
154.7427935314749
 10
144.61336474342926
 20
151.28400619110116
 10
143.97845630188996
 20
155.7427935314749
 10
143.58545630188996
 20
156.37982364285733
 10
143.18845630188997
 20
157.03779419042706
 10
142.79045630188995
 20
157.71560304596375
 10
142.39645630188997
 20
158.41214808124698
 10
142.00745630188996
 20
159.1296335527175
 10
141.62645630188996
 20
159.8647530757142
 10
141.25845630188996
 20
160.61750665023703
 10
140.90445630188998
 20
161.38899640450643
 10
140.56845630188997
 20
162.17812021030198
 10
140.25345630188997
 20
162.90912021030198
 10
139.96145630188997
 20
163.65512021030196
 10
139.69745630188996
 20
164.4135323278897
 10
139.46245630188997
 20
165.17649515476444
 10
139.26145630188995
 20
165.95519953009133
 10
139.09545630188995
 20
166.7486966758837
 10
138.96945630188998
 20
167.55724270220804
 10
138.88445630188997
 20
168.3808888310776
 10
138.84545630188995
 20
169.21889117255895
 10
138.85445630188997
 20
170.07135217067864
 10
138.91445630188997
 20
170.93742549147657
 10
139.02945630188998
 20
171.81731602300596
 10
139.20145630188995
 20
172.7111262092934
 10
139.43345630188998
 20
173.61900971637877
 10
139.72845630188996
 20
174.53912021030197
 10
128.08645630188997
 20
179.2427935314749
 10
121.22845630188996
 20
165.48479353147488
 10
117.22845630188996
 20
165.48479353147488
 10
117.03151586637196
 20
155.7427935314749
 10
116.63276843181066
 20
136.01806053147487
 10
116.22845630188996
 20
116.01806023022957
 10
120.22845630188996
 20
116.01806023022957
  0
LWPOLYLINE
  5
4E
330
17
100
AcDbEntity
  8
STITCH_LINE
  6
DASHED
100
AcDbPolyline
 90
4
 70
1
 10
131.44608130278147
 20
148.01806023022957
 10
133.3052854232772
 20
136.01806023022957
 10
131.44608130278147
 20
124.01806023022957
 10
129.58687718228575
 20
136.01806023022957
  0
LWPOLYLINE
  5
4F
330
17
100
AcDbEntity
  8
REFERENCE_LINE
  6
DASHED
100
AcDbPolyline
 90
2
 70
0
 10
117.43151586637197
 20
155.7427935314749
 10
143.57845630188996
 20
155.7427935314749
  0
LWPOLYLINE
  5
50
330
17
100
AcDbEntity
  8
REFERENCE_LINE
  6
DASHED
100
AcDbPolyline
 90
2
 70
0
 10
117.0327684257208
 20
136.01806023022957
 10
143.53428963720444
 20
136.01806023022957
  0
LWPOLYLINE
  5
51
330
17
100
AcDbEntity
  8
REFERENCE_LINE
  6
DASHED
100
AcDbPolyline
 90
2
 70
0
 10
116.62847651749615
 20
116.01906023022957
 10
144.57840409355674
 20
116.01906023022957
  0
LWPOLYLINE
  5
52
330
17
100
AcDbEntity
  8
REFERENCE_LINE
  6
DASHED
100
AcDbPolyline
 90
2
 70
0
 10
121.22845630188996
 20
165.08479353147487
 10
121.22845630188996
 20
116.41806023022957
  0
LWPOLYLINE
  5
53
330
17
100
AcDbEntity
  8
REFERENCE_LINE
  6
DASHED
100
AcDbPolyline
 90
2
 70
0
 10
120.69055494226541
 20
155.7427935314749
 10
122.69055494226541
 20
155.7427935314749
  0
LWPOLYLINE
  5
54
330
17
100
AcDbEntity
  8
REFERENCE_LINE
  6
DASHED
100
AcDbPolyline
 90
2
 70
0
 10
121.69055494226541
 20
156.7427935314749
 10
121.69055494226541
 20
154.7427935314749
  0
LWPOLYLINE
  5
55
330
17
100
AcDbEntity
  8
REFERENCE_LINE
  6
DASHED
100
AcDbPolyline
 90
2
 70
0
 10
138.6655549422654
 20
155.7427935314749
 10
140.6655549422654
 20
155.7427935314749
  0
LWPOLYLINE
  5
56
330
17
100
AcDbEntity
  8
REFERENCE_LINE
  6
DASHED
100
AcDbPolyline
 90
2
 70
0
 10
139.6655549422654
 20
156.7427935314749
 10
139.6655549422654
 20
154.7427935314749
  0
LINE
  5
57
330
17
100
AcDbEntity
  8
NOTCH
100
AcDbLine
 10
144.07988129550972
 20
133.2293931863699
 30
0.0
 11
145.07852122022763
 21
133.2815305123406
 31
0.0
  0
LINE
  5
58
330
17
100
AcDbEntity
  8
NOTCH
100
AcDbLine
 10
139.92315858816326
 20
163.76514085487105
 30
0.0
 11
140.86757634890677
 21
164.09388862017482
 31
0.0
  0
LINE
  5
59
330
17
100
AcDbEntity
  8
GRAINLINE
100
AcDbLine
 10
126.77666330936404
 20
171.76741600008478
 30
0.0
 11
126.77666330936404
 21
120.86583029717349
 31
0.0
  0
LINE
  5
5A
330
17
100
AcDbEntity
  8
GRAINLINE
100
AcDbLine
 10
125.27666330936404
 20
170.26741600008478
 30
0.0
 11
126.77666330936404
 21
171.76741600008478
 31
0.0
  0
LINE
  5
5B
330
17
100
AcDbEntity
  8
GRAINLINE
100
AcDbLine
 10
128.27666330936404
 20
170.26741600008478
 30
0.0
 11
126.77666330936404
 21
171.76741600008478
 31
0.0
  0
LINE
  5
5C
330
17
100
AcDbEntity
  8
GRAINLINE
100
AcDbLine
 10
125.27666330936404
 20
122.36583029717349
 30
0.0
 11
126.77666330936404
 21
120.86583029717349
 31
0.0
  0
LINE
  5
5D
330
17
100
AcDbEntity
  8
GRAINLINE
100
AcDbLine
 10
128.27666330936404
 20
122.36583029717349
 30
0.0
 11
126.77666330936404
 21
120.86583029717349
 31
0.0
  0
TEXT
  5
5E
330
17
100
AcDbEntity
  8
LABEL
100
AcDbText
 10
131.0577663167112
 20
147.76717521759753
 30
0.0
 40
0.9
  1
前身頃・ファスナーパネル（Vネック） 右 [ダーツ2本]
 72
1
 11
131.0577663167112
 21
147.76717521759753
 31
0.0
100
AcDbText
 73
2
  0
TEXT
  5
5F
330
17
100
AcDbEntity
  8
LABEL_ID
100
AcDbText
 10
131.0577663167112
 20
146.56717521759754
 30
0.0
 40
0.55
  1
front_bodice_zip_panel(v_neck) 右 [ダーツ2本]
 72
1
 11
131.0577663167112
 21
146.56717521759754
 31
0.0
100
AcDbText
 73
2
  0
LWPOLYLINE
  5
60
330
17
100
AcDbEntity
  8
CUT_LINE
100
AcDbPolyline
 90
57
 70
1
 10
88.3034259161567
 20
110.4724948608314
 10
88.75522387808823
 20
108.84748208492584
 10
88.91181097141241
 20
108.17278460061505
 10
89.03690981949619
 20
107.50452356495435
 10
89.13184089074576
 20
106.84247691039724
 10
89.19788608273595
 20
106.18642844120447
 10
89.23629105885055
 20
105.5361761327986
 10
89.2482692728624
 20
104.89153924806661
 10
89.23500725382712
 20
104.25236386065666
 10
89.19767064805097
 20
103.61852656390676
 10
89.13741050966294
 20
102.98993633452253
 10
89.05536938613314
 20
102.36653468445448
 10
88.95268684096813
 20
101.74829435428734
 10
88.83050417095042
 20
101.13521686986456
 10
88.68996818997381
 20
100.52732930379256
 10
88.53223405134196
 20
99.92468056455664
 10
88.35846715726674
 20
99.32733749089508
 10
88.16984425590132
 20
98.7353809703518
 10
87.96920265702208
 20
98.15368243426269
 10
87.52633825105192
 20
96.99202003063792
 10
87.04545313424886
 20
95.85901919260152
 10
86.53430738094035
 20
94.74992888655197
 10
86.00288477064528
 20
93.66545620260908
 10
85.46154316756422
 20
92.60675269132216
 10
84.26906699339982
 20
90.338638341751
 10
84.53135797319409
 20
75.62269131894578
 10
83.20857651018899
 20
54.60016612449624
 10
132.83837599287878
 20
54.60016612449624
 10
131.51559452987368
 20
75.62269131894578
 10
131.77788550966795
 20
90.338638341751
 10
130.58540933550364
 20
92.60675269132199
 10
130.04406773242243
 20
93.66545620260916
 10
129.51264512212737
 20
94.74992888655208
 10
129.00149936881897
 20
95.85901919260141
 10
128.52061425201583
 20
96.99202003063795
 10
128.07774984604566
 20
98.15368243426275
 10
127.87710824716642
 20
98.73538097035186
 10
127.6884853458011
 20
99.32733749089488
 10
127.51471845172577
 20
99.92468056455681
 10
127.35698431309399
 20
100.52732930379244
 10
127.21644833211732
 20
101.1352168698647
 10
127.09426566209967
 20
101.74829435428722
 10
126.99158311693462
 20
102.36653468445456
 10
126.90954199340483
 20
102.9899363345225
 10
126.84928185501681
 20
103.61852656390664
 10
126.81194524924064
 20
104.25236386065683
 10
126.79868323020537
 20
104.89153924806661
 10
126.8106614442172
 20
105.53617613279846
 10
126.84906642033184
 20
106.18642844120453
 10
126.915111612322
 20
106.84247691039718
 10
127.01004268357158
 20
107.50452356495441
 10
127.13514153165534
 20
108.17278460061499
 10
127.29172862497954
 20
108.84748208492584
 10
127.74352658691107
 20
110.4724948608314
 10
114.67701994351293
 20
114.71806023022958
 10
108.02347625153388
 20
109.38203073097546
 10
101.36993255955484
 20
114.71806023022958
  0
LWPOLYLINE
  5
61
330
17
100
AcDbEntity
  8
STITCH_LINE
  6
DASHED
100
AcDbPolyline
 90
58
 70
1
 10
89.52347625153388
 20
109.81745102095275
 10
89.72445732667416
 20
109.0945685771677
 10
89.89078074398702
 20
108.37791952991421
 10
90.02375876231883
 20
107.6675690381893
 10
90.12470364051596
 20
106.96358226098991
 10
90.19492763742474
 20
106.26602435731303
 10
90.23574301189153
 20
105.57496048615562
 10
90.24846202276267
 20
104.89045580651467
 10
90.23439692888451
 20
104.21257547738716
 10
90.1948599891034
 20
103.5413846577701
 10
90.13116346226573
 20
102.87694850666037
 10
90.0446196072178
 20
102.21933218305503
 10
89.93654068280598
 20
101.56860084595104
 10
89.80823894787663
 20
100.92481965434536
 10
89.6610266612761
 20
100.28805376723497
 10
89.49621608185073
 20
99.65836834361687
 10
89.31511946844688
 20
99.03582854248799
 10
89.1190490799109
 20
98.42049952284535
 10
88.90931717508911
 20
97.8124464436859
 10
88.45411785197363
 20
96.61842874280453
 10
87.96001956987125
 20
95.45429671181964
 10
87.43752039955275
 20
94.32057162270706
 10
86.89711841178895
 20
93.21777474744266
 10
86.34931167735067
 20
92.14642735800217
 10
85.27347625153388
 20
90.10016612449624
 10
85.53191828051939
 20
75.60016612449624
 10
84.27347625153388
 20
55.60016612449624
 10
131.77347625153388
 20
55.60016612449624
 10
130.51503422254837
 20
75.60016612449624
 10
130.77347625153388
 20
90.10016612449624
 10
129.6976408257171
 20
92.14642735800217
 10
129.14983409127882
 20
93.21777474744266
 10
128.60943210351502
 20
94.32057162270706
 10
128.08693293319652
 20
95.45429671181964
 10
127.59283465109414
 20
96.61842874280453
 10
127.13763532797866
 20
97.8124464436859
 10
126.92790342315689
 20
98.42049952284535
 10
126.7318330346209
 20
99.03582854248799
 10
126.55073642121704
 20
99.65836834361687
 10
126.38592584179167
 20
100.28805376723497
 10
126.23871355519114
 20
100.92481965434536
 10
126.11041182026179
 20
101.56860084595104
 10
126.00233289584997
 20
102.21933218305503
 10
125.91578904080205
 20
102.87694850666037
 10
125.85209251396437
 20
103.5413846577701
 10
125.81255557418326
 20
104.21257547738716
 10
125.7984904803051
 20
104.89045580651467
 10
125.81120949117624
 20
105.57496048615562
 10
125.85202486564303
 20
106.26602435731303
 10
125.92224886255181
 20
106.96358226098991
 10
126.02319374074892
 20
107.6675690381893
 10
126.15617175908075
 20
108.37791952991421
 10
126.32249517639362
 20
109.0945685771677
 10
126.52347625153388
 20
109.81745102095275
 10
114.88147625153388
 20
113.60016612449624
 10
108.02347625153388
 20
108.10016612449624
 10
101.16547625153387
 20
113.60016612449624
 10
89.52347625153388
 20
109.81745102095275
  0
LWPOLYLINE
  5
62
330
17
100
AcDbEntity
  8
STITCH_LINE
  6
DASHED
100
AcDbPolyline
 90
4
 70
1
 10
96.40227516457736
 20
87.60016612449624
 10
98.2533621210991
 20
75.60016612449624
 10
96.40227516457736
 20
63.60016612449624
 10
94.55118820805562
 20
75.60016612449624
  0
LWPOLYLINE
  5
63
330
17
100
AcDbEntity
  8
STITCH_LINE
  6
DASHED
100
AcDbPolyline
 90
4
 70
1
 10
99.40227516457736
 20
87.60016612449624
 10
101.2533621210991
 20
75.60016612449624
 10
99.40227516457736
 20
63.60016612449624
 10
97.55118820805562
 20
75.60016612449624
  0
LWPOLYLINE
  5
64
330
17
100
AcDbEntity
  8
STITCH_LINE
  6
DASHED
100
AcDbPolyline
 90
4
 70
1
 10
116.64467733849041
 20
87.60016612449624
 10
118.49576429501215
 20
75.60016612449624
 10
116.64467733849041
 20
63.60016612449624
 10
114.79359038196867
 20
75.60016612449624
  0
LWPOLYLINE
  5
65
330
17
100
AcDbEntity
  8
STITCH_LINE
  6
DASHED
100
AcDbPolyline
 90
4
 70
1
 10
119.64467733849041
 20
87.60016612449624
 10
121.49576429501215
 20
75.60016612449624
 10
119.64467733849041
 20
63.60016612449624
 10
117.79359038196867
 20
75.60016612449624
  0
LWPOLYLINE
  5
66
330
17
100
AcDbEntity
  8
REFERENCE_LINE
  6
DASHED
100
AcDbPolyline
 90
2
 70
0
 10
85.67347625153388
 20
90.10016612449624
 10
130.37347625153387
 20
90.10016612449624
  0
LWPOLYLINE
  5
67
330
17
100
AcDbEntity
  8
REFERENCE_LINE
  6
DASHED
100
AcDbPolyline
 90
2
 70
0
 10
85.93191828051938
 20
75.60016612449624
 10
130.1150342225484
 20
75.60016612449624
  0
LWPOLYLINE
  5
68
330
17
100
AcDbEntity
  8
REFERENCE_LINE
  6
DASHED
100
AcDbPolyline
 90
2
 70
0
 10
84.67353917363533
 20
55.601166124496245
 10
131.37341332943242
 20
55.601166124496245
  0
LWPOLYLINE
  5
69
330
17
100
AcDbEntity
  8
REFERENCE_LINE
  6
DASHED
100
AcDbPolyline
 90
2
 70
0
 10
108.02347625153388
 20
113.20016612449623
 10
108.02347625153388
 20
56.000166124496246
  0
LINE
  5
6A
330
17
100
AcDbEntity
  8
NOTCH
100
AcDbLine
 10
85.35805442382839
 20
72.83700576134223
 30
0.0
 11
84.36002816038386
 21
72.89980367113972
 31
0.0
  0
LINE
  5
6B
330
17
100
AcDbEntity
  8
NOTCH
100
AcDbLine
 10
130.68889807923938
 20
72.83700576134223
 30
0.0
 11
131.6869243426839
 21
72.89980367113972
 31
0.0
  0
LINE
  5
6C
330
17
100
AcDbEntity
  8
NOTCH
100
AcDbLine
 10
89.17056582237439
 20
98.58217486235961
 30
0.0
 11
88.21776713234851
 21
98.88577765596497
 31
0.0
  0
LINE
  5
6D
330
17
100
AcDbEntity
  8
NOTCH
100
AcDbLine
 10
126.87638668069339
 20
98.58217486235961
 30
0.0
 11
127.82918537071926
 21
98.88577765596497
 31
0.0
  0
LINE
  5
6E
330
17
100
AcDbEntity
  8
NOTCH
100
AcDbLine
 10
89.4055839133287
 20
99.34681015869512
 30
0.0
 11
88.44538618669294
 21
99.62613134615412
 31
0.0
  0
LINE
  5
6F
330
17
100
AcDbEntity
  8
NOTCH
100
AcDbLine
 10
126.64136858973907
 20
99.34681015869512
 30
0.0
 11
127.60156631637483
 21
99.62613134615415
 31
0.0
  0
LINE
  5
70
330
17
100
AcDbEntity
  8
GRAINLINE
100
AcDbLine
 10
100.54222625153389
 20
108.77386041987324
 30
0.0
 11
100.54222625153389
 21
60.22396562844207
 31
0.0
  0
LINE
  5
71
330
17
100
AcDbEntity
  8
GRAINLINE
100
AcDbLine
 10
99.04222625153389
 20
107.27386041987324
 30
0.0
 11
100.54222625153389
 21
108.77386041987324
 31
0.0
  0
LINE
  5
72
330
17
100
AcDbEntity
  8
GRAINLINE
100
AcDbLine
 10
102.04222625153389
 20
107.27386041987324
 30
0.0
 11
100.54222625153389
 21
108.77386041987324
 31
0.0
  0
LINE
  5
73
330
17
100
AcDbEntity
  8
GRAINLINE
100
AcDbLine
 10
99.04222625153389
 20
61.72396562844207
 30
0.0
 11
100.54222625153389
 21
60.22396562844207
 31
0.0
  0
LINE
  5
74
330
17
100
AcDbEntity
  8
GRAINLINE
100
AcDbLine
 10
102.04222625153389
 20
61.72396562844207
 30
0.0
 11
100.54222625153389
 21
60.22396562844207
 31
0.0
  0
TEXT
  5
75
330
17
100
AcDbEntity
  8
LABEL
100
AcDbText
 10
108.02347625153388
 20
84.65911317736291
 30
0.0
 40
0.9
  1
後身頃（Vネック・前開き） [ダーツ4本]
 72
1
 11
108.02347625153388
 21
84.65911317736291
 31
0.0
100
AcDbText
 73
2
  0
TEXT
  5
76
330
17
100
AcDbEntity
  8
LABEL_ID
100
AcDbText
 10
108.02347625153388
 20
83.45911317736291
 30
0.0
 40
0.55
  1
back_bodice(v_neck_zip) [ダーツ4本]
 72
1
 11
108.02347625153388
 21
83.45911317736291
 31
0.0
100
AcDbText
 73
2
  0
LWPOLYLINE
  5
77
330
17
100
AcDbEntity
  8
CUT_LINE
100
AcDbPolyline
 90
67
 70
1
 10
71.47023767764155
 20
41.802166042345306
 10
75.78501064692779
 20
0.30000000000001137
 10
102.71286030587152
 20
0.30000000000001137
 10
107.02763327515775
 20
41.802166042345306
 10
106.37746519812956
 20
42.90484983315952
 10
105.87760533361501
 20
43.70169755010443
 10
105.36819647647914
 20
44.465313712953844
 10
104.84983342945984
 20
45.19617906677718
 10
104.32311503238003
 20
45.89477107000076
 10
103.78864456541481
 20
46.56156427210249
 10
103.2470301012932
 20
47.19703076912813
 10
102.69888479103177
 20
47.801640731798244
 10
102.1448270683544
 20
48.37586299761284
 10
101.5854807592736
 20
48.920165714979106
 10
101.02147508541609
 20
49.43501702418047
 10
100.45344455251873
 20
49.92088575718856
 10
99.88202871901639
 20
50.378242136084936
 10
99.30787184360453
 20
50.80755844840098
 10
98.73162241490259
 20
51.209309677113964
 10
98.15393257059331
 20
51.58397406344224
 10
97.57545741742645
 20
51.93203358194219
 10
96.99685426698534
 20
52.253974309651795
 10
96.41878180490671
 20
52.55028667398463
 10
95.84189921314879
 20
52.82146556753946
 10
95.26686526582728
 20
53.06801032168505
 10
94.69433741906684
 20
53.29042453442486
 10
94.12497091431672
 20
53.4892157513554
 10
93.5594179127934
 20
53.66489500124689
 10
92.9983266763485
 20
53.81797618967519
 10
92.44234080736993
 20
53.94897535505578
 10
91.89209855759512
 20
54.05840979126492
 10
91.3482322132507
 20
54.146797039730586
 10
90.81136756205655
 20
54.21465375143339
 10
90.28212344666451
 20
54.26249441572213
 10
89.76111140940618
 20
54.29082994829537
 10
89.24893547639965
 20
54.30016612449623
 10
88.73675954339312
 20
54.29082994829537
 10
88.21574750613479
 20
54.26249441572213
 10
87.68650339074276
 20
54.21465375143339
 10
87.14963873954859
 20
54.146797039730586
 10
86.60577239520421
 20
54.05840979126492
 10
86.05553014542936
 20
53.94897535505578
 10
85.4995442764508
 20
53.81797618967519
 10
84.93845304000588
 20
53.66489500124689
 10
84.37290003848257
 20
53.4892157513554
 10
83.80353353373245
 20
53.29042453442486
 10
83.23100568697203
 20
53.06801032168505
 10
82.65597173965052
 20
52.82146556753946
 10
82.0790891478926
 20
52.55028667398463
 10
81.50101668581395
 20
52.253974309651795
 10
80.92241353537285
 20
51.93203358194219
 10
80.34393838220599
 20
51.58397406344224
 10
79.76624853789673
 20
51.209309677113964
 10
79.1899991091948
 20
50.80755844840098
 10
78.61584223378293
 20
50.378242136084964
 10
78.04442640028054
 20
49.92088575718853
 10
77.47639586738326
 20
49.435017024180496
 10
76.91239019352568
 20
48.92016571497908
 10
76.35304388444494
 20
48.37586299761287
 10
75.79898616176749
 20
47.801640731798216
 10
75.25084085150608
 20
47.197030769128105
 10
74.70922638738448
 20
46.56156427210249
 10
74.17475592041926
 20
45.89477107000076
 10
73.64803752333945
 20
45.19617906677718
 10
73.12967447632013
 20
44.465313712953815
 10
72.62026561918428
 20
43.7016975501044
 10
72.12040575466983
 20
42.90484983315963
  0
LWPOLYLINE
  5
78
330
17
100
AcDbEntity
  8
STITCH_LINE
  6
DASHED
100
AcDbPolyline
 90
67
 70
1
 10
72.49893547639965
 20
41.57797558281948
 10
72.97483421907543
 20
42.38509892239662
 10
73.4599340115559
 20
43.15841698525796
 10
73.95362145052074
 20
43.898466363097384
 10
74.45528313264965
 20
44.6057836476088
 10
74.96430565462231
 20
45.280905430486115
 10
75.4800756131184
 20
45.92436830342322
 10
76.00197960481762
 20
46.536708858114054
 10
76.52940422639965
 20
47.11846368625248
 10
77.06173607454419
 20
47.67016937953241
 10
77.5983617459309
 20
48.19236252964774
 10
78.1386678372395
 20
48.68557972829237
 10
78.68204094514965
 20
49.15035756716023
 10
79.22786766634106
 20
49.58723263794519
 10
79.7755345974934
 20
49.99674153234119
 10
80.32442833528637
 20
50.379420842042066
 10
80.87393547639965
 20
50.73580715874178
 10
81.42344261751293
 20
51.0664370741342
 10
81.9723363553059
 20
51.37184717991326
 10
82.52000328645825
 20
51.65257406777283
 10
83.06583000764965
 20
51.90915432940682
 10
83.60920311555981
 20
52.142124556509145
 10
84.1495092068684
 20
52.35202134077369
 10
84.68613487825512
 20
52.53938127389438
 10
85.21846672639965
 20
52.704740947565085
 10
85.74589134798168
 20
52.84863695347971
 10
86.2677953396809
 20
52.97160588333219
 10
86.783565298177
 20
53.074184328816386
 10
87.29258782014965
 20
53.15690888162624
 10
87.79424950227856
 20
53.22031613345561
 10
88.2879369412434
 20
53.26494267599844
 10
88.77303673372387
 20
53.2913251009486
 10
89.24893547639965
 20
53.30000000000001
 10
89.72483421907543
 20
53.2913251009486
 10
90.2099340115559
 20
53.26494267599844
 10
90.70362145052074
 20
53.22031613345561
 10
91.20528313264965
 20
53.15690888162624
 10
91.71430565462231
 20
53.074184328816386
 10
92.2300756131184
 20
52.97160588333219
 10
92.75197960481762
 20
52.84863695347971
 10
93.27940422639965
 20
52.704740947565085
 10
93.81173607454419
 20
52.53938127389438
 10
94.3483617459309
 20
52.35202134077369
 10
94.8886678372395
 20
52.142124556509145
 10
95.43204094514965
 20
51.90915432940682
 10
95.97786766634106
 20
51.65257406777283
 10
96.5255345974934
 20
51.37184717991326
 10
97.07442833528637
 20
51.0664370741342
 10
97.62393547639965
 20
50.73580715874178
 10
98.17344261751293
 20
50.379420842042066
 10
98.7223363553059
 20
49.99674153234119
 10
99.27000328645825
 20
49.58723263794519
 10
99.81583000764965
 20
49.15035756716023
 10
100.35920311555981
 20
48.68557972829237
 10
100.8995092068684
 20
48.19236252964774
 10
101.43613487825512
 20
47.67016937953241
 10
101.96846672639965
 20
47.11846368625248
 10
102.49589134798168
 20
46.536708858114054
 10
103.0177953396809
 20
45.92436830342322
 10
103.533565298177
 20
45.280905430486115
 10
104.04258782014965
 20
44.6057836476088
 10
104.54424950227855
 20
43.898466363097384
 10
105.0379369412434
 20
43.15841698525796
 10
105.52303673372387
 20
42.38509892239662
 10
105.99893547639965
 20
41.57797558281948
 10
101.81143547639965
 20
1.3000000000000114
 10
76.68643547639965
 20
1.3000000000000114
  0
LINE
  5
79
330
17
100
AcDbEntity
  8
NOTCH
100
AcDbLine
 10
78.05872939541686
 20
48.612608101701454
 30
0.0
 11
77.38453887156072
 21
49.35116557241216
 31
0.0
  0
LINE
  5
7A
330
17
100
AcDbEntity
  8
NOTCH
100
AcDbLine
 10
100.18189988662827
 20
48.8372372364897
 30
0.0
 11
100.83190845121393
 21
49.597164118475916
 31
0.0
  0
LINE
  5
7B
330
17
100
AcDbEntity
  8
NOTCH
100
AcDbLine
 10
99.56734038966371
 20
49.34924654645019
 30
0.0
 11
100.19222179477666
 21
50.12996623336991
 31
0.0
  0
LINE
  5
7C
330
17
100
AcDbEntity
  8
GRAINLINE
100
AcDbLine
 10
89.24893547639965
 20
49.140000000000015
 30
0.0
 11
89.24893547639965
 21
5.460000000000036
 31
0.0
  0
LINE
  5
7D
330
17
100
AcDbEntity
  8
GRAINLINE
100
AcDbLine
 10
87.74893547639965
 20
47.640000000000015
 30
0.0
 11
89.24893547639965
 21
49.140000000000015
 31
0.0
  0
LINE
  5
7E
330
17
100
AcDbEntity
  8
GRAINLINE
100
AcDbLine
 10
90.74893547639965
 20
47.640000000000015
 30
0.0
 11
89.24893547639965
 21
49.140000000000015
 31
0.0
  0
LINE
  5
7F
330
17
100
AcDbEntity
  8
GRAINLINE
100
AcDbLine
 10
87.74893547639965
 20
6.960000000000036
 30
0.0
 11
89.24893547639965
 21
5.460000000000036
 31
0.0
  0
LINE
  5
80
330
17
100
AcDbEntity
  8
GRAINLINE
100
AcDbLine
 10
90.74893547639965
 20
6.960000000000036
 30
0.0
 11
89.24893547639965
 21
5.460000000000036
 31
0.0
  0
TEXT
  5
81
330
17
100
AcDbEntity
  8
LABEL
100
AcDbText
 10
89.24893547639965
 20
27.30008306224812
 30
0.0
 40
0.9
  1
袖（ストレート） 左
 72
1
 11
89.24893547639965
 21
27.30008306224812
 31
0.0
100
AcDbText
 73
2
  0
TEXT
  5
82
330
17
100
AcDbEntity
  8
LABEL_ID
100
AcDbText
 10
89.24893547639965
 20
26.10008306224812
 30
0.0
 40
0.55
  1
sleeve(straight) 左
 72
1
 11
89.24893547639965
 21
26.10008306224812
 31
0.0
100
AcDbText
 73
2
  0
LWPOLYLINE
  5
83
330
17
100
AcDbEntity
  8
CUT_LINE
100
AcDbPolyline
 90
67
 70
1
 10
107.32763327515775
 20
41.802166042345306
 10
111.642406244444
 20
0.30000000000001137
 10
138.5702559033877
 20
0.30000000000001137
 10
142.88502887267396
 20
41.802166042345306
 10
142.23486079564577
 20
42.90484983315952
 10
141.7350009311312
 20
43.70169755010443
 10
141.22559207399536
 20
44.465313712953844
 10
140.70722902697605
 20
45.19617906677718
 10
140.18051062989625
 20
45.89477107000076
 10
139.646040162931
 20
46.56156427210249
 10
139.1044256988094
 20
47.19703076912813
 10
138.55628038854798
 20
47.801640731798244
 10
138.0022226658706
 20
48.37586299761284
 10
137.4428763567898
 20
48.920165714979106
 10
136.87887068293227
 20
49.43501702418047
 10
136.31084015003495
 20
49.92088575718856
 10
135.7394243165326
 20
50.378242136084936
 10
135.16526744112073
 20
50.80755844840098
 10
134.5890180124188
 20
51.209309677113964
 10
134.01132816810951
 20
51.58397406344224
 10
133.43285301494265
 20
51.93203358194219
 10
132.85424986450155
 20
52.253974309651795
 10
132.27617740242292
 20
52.55028667398463
 10
131.69929481066498
 20
52.82146556753946
 10
131.12426086334347
 20
53.06801032168505
 10
130.55173301658306
 20
53.29042453442486
 10
129.98236651183294
 20
53.4892157513554
 10
129.41681351030962
 20
53.66489500124689
 10
128.8557222738647
 20
53.81797618967519
 10
128.29973640488615
 20
53.94897535505578
 10
127.74949415511132
 20
54.05840979126492
 10
127.2056278107669
 20
54.146797039730586
 10
126.66876315957275
 20
54.21465375143339
 10
126.13951904418072
 20
54.26249441572213
 10
125.61850700692239
 20
54.29082994829537
 10
125.10633107391585
 20
54.30016612449623
 10
124.59415514090932
 20
54.29082994829537
 10
124.073143103651
 20
54.26249441572213
 10
123.54389898825895
 20
54.21465375143339
 10
123.0070343370648
 20
54.146797039730586
 10
122.4631679927204
 20
54.05840979126492
 10
121.91292574294556
 20
53.94897535505578
 10
121.35693987396701
 20
53.81797618967519
 10
120.79584863752208
 20
53.66489500124689
 10
120.23029563599877
 20
53.4892157513554
 10
119.66092913124865
 20
53.29042453442486
 10
119.08840128448823
 20
53.06801032168505
 10
118.51336733716673
 20
52.82146556753946
 10
117.9364847454088
 20
52.55028667398463
 10
117.35841228333015
 20
52.253974309651795
 10
116.77980913288906
 20
51.93203358194219
 10
116.2013339797222
 20
51.58397406344224
 10
115.62364413541293
 20
51.209309677113964
 10
115.047394706711
 20
50.80755844840098
 10
114.47323783129913
 20
50.378242136084964
 10
113.90182199779674
 20
49.92088575718853
 10
113.33379146489946
 20
49.435017024180496
 10
112.76978579104188
 20
48.92016571497908
 10
112.21043948196115
 20
48.37586299761287
 10
111.65638175928369
 20
47.801640731798216
 10
111.10823644902229
 20
47.197030769128105
 10
110.56662198490068
 20
46.56156427210249
 10
110.03215151793546
 20
45.89477107000076
 10
109.50543312085566
 20
45.19617906677718
 10
108.98707007383634
 20
44.465313712953815
 10
108.47766121670048
 20
43.7016975501044
 10
107.97780135218603
 20
42.90484983315963
  0
LWPOLYLINE
  5
84
330
17
100
AcDbEntity
  8
STITCH_LINE
  6
DASHED
100
AcDbPolyline
 90
67
 70
1
 10
108.35633107391585
 20
41.57797558281948
 10
108.83222981659164
 20
42.38509892239662
 10
109.3173296090721
 20
43.15841698525796
 10
109.81101704803694
 20
43.898466363097384
 10
110.31267873016586
 20
44.6057836476088
 10
110.82170125213851
 20
45.280905430486115
 10
111.3374712106346
 20
45.92436830342322
 10
111.85937520233382
 20
46.536708858114054
 10
112.38679982391585
 20
47.11846368625248
 10
112.91913167206039
 20
47.67016937953241
 10
113.4557573434471
 20
48.19236252964774
 10
113.9960634347557
 20
48.68557972829237
 10
114.53943654266585
 20
49.15035756716023
 10
115.08526326385726
 20
49.58723263794519
 10
115.6329301950096
 20
49.99674153234119
 10
116.18182393280257
 20
50.379420842042066
 10
116.73133107391585
 20
50.73580715874178
 10
117.28083821502914
 20
51.0664370741342
 10
117.8297319528221
 20
51.37184717991326
 10
118.37739888397445
 20
51.65257406777283
 10
118.92322560516585
 20
51.90915432940682
 10
119.46659871307601
 20
52.142124556509145
 10
120.0069048043846
 20
52.35202134077369
 10
120.54353047577132
 20
52.53938127389438
 10
121.07586232391586
 20
52.704740947565085
 10
121.60328694549789
 20
52.84863695347971
 10
122.1251909371971
 20
52.97160588333219
 10
122.6409608956932
 20
53.074184328816386
 10
123.14998341766585
 20
53.15690888162624
 10
123.65164509979476
 20
53.22031613345561
 10
124.1453325387596
 20
53.26494267599844
 10
124.63043233124007
 20
53.2913251009486
 10
125.10633107391585
 20
53.30000000000001
 10
125.58222981659164
 20
53.2913251009486
 10
126.0673296090721
 20
53.26494267599844
 10
126.56101704803694
 20
53.22031613345561
 10
127.06267873016586
 20
53.15690888162624
 10
127.57170125213851
 20
53.074184328816386
 10
128.0874712106346
 20
52.97160588333219
 10
128.6093752023338
 20
52.84863695347971
 10
129.13679982391585
 20
52.704740947565085
 10
129.6691316720604
 20
52.53938127389438
 10
130.2057573434471
 20
52.35202134077369
 10
130.74606343475568
 20
52.142124556509145
 10
131.28943654266584
 20
51.90915432940682
 10
131.83526326385726
 20
51.65257406777283
 10
132.3829301950096
 20
51.37184717991326
 10
132.93182393280256
 20
51.0664370741342
 10
133.48133107391584
 20
50.73580715874178
 10
134.03083821502912
 20
50.379420842042066
 10
134.5797319528221
 20
49.99674153234119
 10
135.12739888397445
 20
49.58723263794519
 10
135.67322560516584
 20
49.15035756716023
 10
136.216598713076
 20
48.68557972829237
 10
136.7569048043846
 20
48.19236252964774
 10
137.29353047577132
 20
47.67016937953241
 10
137.82586232391586
 20
47.11846368625248
 10
138.35328694549787
 20
46.536708858114054
 10
138.8751909371971
 20
45.92436830342322
 10
139.39096089569318
 20
45.280905430486115
 10
139.89998341766585
 20
44.6057836476088
 10
140.40164509979476
 20
43.898466363097384
 10
140.8953325387596
 20
43.15841698525796
 10
141.38043233124006
 20
42.38509892239662
 10
141.85633107391584
 20
41.57797558281948
 10
137.66883107391584
 20
1.3000000000000114
 10
112.54383107391585
 20
1.3000000000000114
  0
LINE
  5
85
330
17
100
AcDbEntity
  8
NOTCH
100
AcDbLine
 10
113.91612499293306
 20
48.612608101701454
 30
0.0
 11
113.24193446907692
 21
49.35116557241216
 31
0.0
  0
LINE
  5
86
330
17
100
AcDbEntity
  8
NOTCH
100
AcDbLine
 10
136.03929548414447
 20
48.8372372364897
 30
0.0
 11
136.68930404873015
 21
49.597164118475916
 31
0.0
  0
LINE
  5
87
330
17
100
AcDbEntity
  8
NOTCH
100
AcDbLine
 10
135.4247359871799
 20
49.34924654645019
 30
0.0
 11
136.04961739229287
 21
50.12996623336991
 31
0.0
  0
LINE
  5
88
330
17
100
AcDbEntity
  8
GRAINLINE
100
AcDbLine
 10
125.10633107391585
 20
49.140000000000015
 30
0.0
 11
125.10633107391585
 21
5.460000000000036
 31
0.0
  0
LINE
  5
89
330
17
100
AcDbEntity
  8
GRAINLINE
100
AcDbLine
 10
123.60633107391585
 20
47.640000000000015
 30
0.0
 11
125.10633107391585
 21
49.140000000000015
 31
0.0
  0
LINE
  5
8A
330
17
100
AcDbEntity
  8
GRAINLINE
100
AcDbLine
 10
126.60633107391585
 20
47.640000000000015
 30
0.0
 11
125.10633107391585
 21
49.140000000000015
 31
0.0
  0
LINE
  5
8B
330
17
100
AcDbEntity
  8
GRAINLINE
100
AcDbLine
 10
123.60633107391585
 20
6.960000000000036
 30
0.0
 11
125.10633107391585
 21
5.460000000000036
 31
0.0
  0
LINE
  5
8C
330
17
100
AcDbEntity
  8
GRAINLINE
100
AcDbLine
 10
126.60633107391585
 20
6.960000000000036
 30
0.0
 11
125.10633107391585
 21
5.460000000000036
 31
0.0
  0
TEXT
  5
8D
330
17
100
AcDbEntity
  8
LABEL
100
AcDbText
 10
125.10633107391585
 20
27.30008306224812
 30
0.0
 40
0.9
  1
袖（ストレート） 右
 72
1
 11
125.10633107391585
 21
27.30008306224812
 31
0.0
100
AcDbText
 73
2
  0
TEXT
  5
8E
330
17
100
AcDbEntity
  8
LABEL_ID
100
AcDbText
 10
125.10633107391585
 20
26.10008306224812
 30
0.0
 40
0.55
  1
sleeve(straight) 右
 72
1
 11
125.10633107391585
 21
26.10008306224812
 31
0.0
100
AcDbText
 73
2
  0
LWPOLYLINE
  5
8F
330
17
100
AcDbEntity
  8
CUT_LINE
100
AcDbPolyline
 90
8
 70
1
 10
0.0
 20
44.61629020496548
 10
0.0
 20
36.61629020496548
 10
18.9875
 20
36.61629020496548
 10
18.9875
 20
33.61629020496548
 10
34.55
 20
33.61629020496548
 10
34.55
 20
38.61629020496548
 10
29.125
 20
38.61629020496548
 10
29.125
 20
44.61629020496548
  0
LWPOLYLINE
  5
90
330
17
100
AcDbEntity
  8
STITCH_LINE
  6
DASHED
100
AcDbPolyline
 90
8
 70
1
 10
1.0
 20
43.61629020496548
 10
28.125
 20
43.61629020496548
 10
28.125
 20
37.61629020496548
 10
33.55
 20
37.61629020496548
 10
33.55
 20
34.61629020496548
 10
19.9875
 20
34.61629020496548
 10
19.9875
 20
37.61629020496548
 10
1.0
 20
37.61629020496548
  0
LINE
  5
91
330
17
100
AcDbEntity
  8
NOTCH
100
AcDbLine
 10
14.5625
 20
43.61629020496548
 30
0.0
 11
14.5625
 21
44.61629020496548
 31
0.0
  0
LINE
  5
92
330
17
100
AcDbEntity
  8
GRAINLINE
100
AcDbLine
 10
20.2045
 20
42.89629020496548
 30
0.0
 11
20.2045
 21
35.33629020496548
 31
0.0
  0
LINE
  5
93
330
17
100
AcDbEntity
  8
GRAINLINE
100
AcDbLine
 10
20.03575
 20
42.72754020496549
 30
0.0
 11
20.2045
 21
42.89629020496548
 31
0.0
  0
LINE
  5
94
330
17
100
AcDbEntity
  8
GRAINLINE
100
AcDbLine
 10
20.37325
 20
42.72754020496549
 30
0.0
 11
20.2045
 21
42.89629020496548
 31
0.0
  0
LINE
  5
95
330
17
100
AcDbEntity
  8
GRAINLINE
100
AcDbLine
 10
20.03575
 20
35.50504020496547
 30
0.0
 11
20.2045
 21
35.33629020496548
 31
0.0
  0
LINE
  5
96
330
17
100
AcDbEntity
  8
GRAINLINE
100
AcDbLine
 10
20.37325
 20
35.50504020496547
 30
0.0
 11
20.2045
 21
35.33629020496548
 31
0.0
  0
TEXT
  5
97
330
17
100
AcDbEntity
  8
LABEL
100
AcDbText
 10
17.275
 20
39.11629020496548
 30
0.0
 40
0.9
  1
カフス（ボタンタブ付き） 左
 72
1
 11
17.275
 21
39.11629020496548
 31
0.0
100
AcDbText
 73
2
  0
TEXT
  5
98
330
17
100
AcDbEntity
  8
LABEL_ID
100
AcDbText
 10
17.275
 20
37.91629020496548
 30
0.0
 40
0.55
  1
cuffs(button_tab) 左
 72
1
 11
17.275
 21
37.91629020496548
 31
0.0
100
AcDbText
 73
2
  0
LWPOLYLINE
  5
99
330
17
100
AcDbEntity
  8
CUT_LINE
100
AcDbPolyline
 90
8
 70
1
 10
34.849999999999994
 20
44.61629020496548
 10
34.849999999999994
 20
36.61629020496548
 10
53.83749999999999
 20
36.61629020496548
 10
53.83749999999999
 20
33.61629020496548
 10
69.39999999999999
 20
33.61629020496548
 10
69.39999999999999
 20
38.61629020496548
 10
63.974999999999994
 20
38.61629020496548
 10
63.974999999999994
 20
44.61629020496548
  0
LWPOLYLINE
  5
9A
330
17
100
AcDbEntity
  8
STITCH_LINE
  6
DASHED
100
AcDbPolyline
 90
8
 70
1
 10
35.849999999999994
 20
43.61629020496548
 10
62.974999999999994
 20
43.61629020496548
 10
62.974999999999994
 20
37.61629020496548
 10
68.39999999999999
 20
37.61629020496548
 10
68.39999999999999
 20
34.61629020496548
 10
54.83749999999999
 20
34.61629020496548
 10
54.83749999999999
 20
37.61629020496548
 10
35.849999999999994
 20
37.61629020496548
  0
LINE
  5
9B
330
17
100
AcDbEntity
  8
NOTCH
100
AcDbLine
 10
49.412499999999994
 20
43.61629020496548
 30
0.0
 11
49.412499999999994
 21
44.61629020496548
 31
0.0
  0
LINE
  5
9C
330
17
100
AcDbEntity
  8
GRAINLINE
100
AcDbLine
 10
55.05449999999999
 20
42.89629020496548
 30
0.0
 11
55.05449999999999
 21
35.33629020496548
 31
0.0
  0
LINE
  5
9D
330
17
100
AcDbEntity
  8
GRAINLINE
100
AcDbLine
 10
54.885749999999994
 20
42.72754020496549
 30
0.0
 11
55.05449999999999
 21
42.89629020496548
 31
0.0
  0
LINE
  5
9E
330
17
100
AcDbEntity
  8
GRAINLINE
100
AcDbLine
 10
55.22324999999999
 20
42.72754020496549
 30
0.0
 11
55.05449999999999
 21
42.89629020496548
 31
0.0
  0
LINE
  5
9F
330
17
100
AcDbEntity
  8
GRAINLINE
100
AcDbLine
 10
54.885749999999994
 20
35.50504020496547
 30
0.0
 11
55.05449999999999
 21
35.33629020496548
 31
0.0
  0
LINE
  5
A0
330
17
100
AcDbEntity
  8
GRAINLINE
100
AcDbLine
 10
55.22324999999999
 20
35.50504020496547
 30
0.0
 11
55.05449999999999
 21
35.33629020496548
 31
0.0
  0
TEXT
  5
A1
330
17
100
AcDbEntity
  8
LABEL
100
AcDbText
 10
52.12499999999999
 20
39.11629020496548
 30
0.0
 40
0.9
  1
カフス（ボタンタブ付き） 右
 72
1
 11
52.12499999999999
 21
39.11629020496548
 31
0.0
100
AcDbText
 73
2
  0
TEXT
  5
A2
330
17
100
AcDbEntity
  8
LABEL_ID
100
AcDbText
 10
52.12499999999999
 20
37.91629020496548
 30
0.0
 40
0.55
  1
cuffs(button_tab) 右
 72
1
 11
52.12499999999999
 21
37.91629020496548
 31
0.0
100
AcDbText
 73
2
  0
LWPOLYLINE
  5
A3
330
17
100
AcDbEntity
  8
CUT_LINE
100
AcDbPolyline
 90
4
 70
1
 10
23.766666666666666
 20
180.51629020496546
 10
0.0
 20
118.51629020496546
 10
82.908576510189
 20
118.51629020496546
 10
59.14190984352231
 20
180.51629020496546
  0
LWPOLYLINE
  5
A4
330
17
100
AcDbEntity
  8
STITCH_LINE
  6
DASHED
100
AcDbPolyline
 90
4
 70
1
 10
24.45428825509449
 20
179.51629020496546
 10
58.45428825509449
 20
179.51629020496546
 10
81.4542882550945
 20
119.51629020496546
 10
1.4542882550944913
 20
119.51629020496546
  0
LINE
  5
A5
330
17
100
AcDbEntity
  8
NOTCH
100
AcDbLine
 10
24.45428825509449
 20
179.51629020496546
 30
0.0
 11
24.45428825509449
 21
180.51629020496546
 31
0.0
  0
LINE
  5
A6
330
17
100
AcDbEntity
  8
GRAINLINE
100
AcDbLine
 10
41.45428825509449
 20
174.71629020496547
 30
0.0
 11
41.45428825509449
 21
124.31629020496547
 31
0.0
  0
LINE
  5
A7
330
17
100
AcDbEntity
  8
GRAINLINE
100
AcDbLine
 10
39.95428825509449
 20
173.21629020496547
 30
0.0
 11
41.45428825509449
 21
174.71629020496547
 31
0.0
  0
LINE
  5
A8
330
17
100
AcDbEntity
  8
GRAINLINE
100
AcDbLine
 10
42.95428825509449
 20
173.21629020496547
 30
0.0
 11
41.45428825509449
 21
174.71629020496547
 31
0.0
  0
LINE
  5
A9
330
17
100
AcDbEntity
  8
GRAINLINE
100
AcDbLine
 10
39.95428825509449
 20
125.81629020496547
 30
0.0
 11
41.45428825509449
 21
124.31629020496547
 31
0.0
  0
LINE
  5
AA
330
17
100
AcDbEntity
  8
GRAINLINE
100
AcDbLine
 10
42.95428825509449
 20
125.81629020496547
 30
0.0
 11
41.45428825509449
 21
124.31629020496547
 31
0.0
  0
TEXT
  5
AB
330
17
100
AcDbEntity
  8
LABEL
100
AcDbText
 10
41.4542882550945
 20
149.51629020496546
 30
0.0
 40
0.9
  1
スカート（フレア） 前
 72
1
 11
41.4542882550945
 21
149.51629020496546
 31
0.0
100
AcDbText
 73
2
  0
TEXT
  5
AC
330
17
100
AcDbEntity
  8
LABEL_ID
100
AcDbText
 10
41.4542882550945
 20
148.31629020496547
 30
0.0
 40
0.55
  1
skirt(flare) 前
 72
1
 11
41.4542882550945
 21
148.31629020496547
 31
0.0
100
AcDbText
 73
2
  0
LWPOLYLINE
  5
AD
330
17
100
AcDbEntity
  8
CUT_LINE
100
AcDbPolyline
 90
4
 70
1
 10
23.766666666666666
 20
118.21629020496547
 10
0.0
 20
56.216290204965475
 10
82.908576510189
 20
56.216290204965475
 10
59.14190984352231
 20
118.21629020496547
  0
LWPOLYLINE
  5
AE
330
17
100
AcDbEntity
  8
STITCH_LINE
  6
DASHED
100
AcDbPolyline
 90
4
 70
1
 10
24.45428825509449
 20
117.21629020496547
 10
58.45428825509449
 20
117.21629020496547
 10
81.4542882550945
 20
57.216290204965475
 10
1.4542882550944913
 20
57.216290204965475
  0
LINE
  5
AF
330
17
100
AcDbEntity
  8
NOTCH
100
AcDbLine
 10
24.45428825509449
 20
117.21629020496547
 30
0.0
 11
24.45428825509449
 21
118.21629020496547
 31
0.0
  0
LINE
  5
B0
330
17
100
AcDbEntity
  8
GRAINLINE
100
AcDbLine
 10
41.45428825509449
 20
112.41629020496546
 30
0.0
 11
41.45428825509449
 21
62.01629020496546
 31
0.0
  0
LINE
  5
B1
330
17
100
AcDbEntity
  8
GRAINLINE
100
AcDbLine
 10
39.95428825509449
 20
110.91629020496546
 30
0.0
 11
41.45428825509449
 21
112.41629020496546
 31
0.0
  0
LINE
  5
B2
330
17
100
AcDbEntity
  8
GRAINLINE
100
AcDbLine
 10
42.95428825509449
 20
110.91629020496546
 30
0.0
 11
41.45428825509449
 21
112.41629020496546
 31
0.0
  0
LINE
  5
B3
330
17
100
AcDbEntity
  8
GRAINLINE
100
AcDbLine
 10
39.95428825509449
 20
63.51629020496546
 30
0.0
 11
41.45428825509449
 21
62.01629020496546
 31
0.0
  0
LINE
  5
B4
330
17
100
AcDbEntity
  8
GRAINLINE
100
AcDbLine
 10
42.95428825509449
 20
63.51629020496546
 30
0.0
 11
41.45428825509449
 21
62.01629020496546
 31
0.0
  0
TEXT
  5
B5
330
17
100
AcDbEntity
  8
LABEL
100
AcDbText
 10
41.4542882550945
 20
87.21629020496547
 30
0.0
 40
0.9
  1
スカート（フレア） 後
 72
1
 11
41.4542882550945
 21
87.21629020496547
 31
0.0
100
AcDbText
 73
2
  0
TEXT
  5
B6
330
17
100
AcDbEntity
  8
LABEL_ID
100
AcDbText
 10
41.4542882550945
 20
86.01629020496547
 30
0.0
 40
0.55
  1
skirt(flare) 後
 72
1
 11
41.4542882550945
 21
86.01629020496547
 31
0.0
100
AcDbText
 73
2
  0
LWPOLYLINE
  5
B7
330
17
100
AcDbEntity
  8
CUT_LINE
100
AcDbPolyline
 90
54
 70
1
 10
76.1576260846095
 20
278.81629020496547
 10
76.1576260846095
 20
259.831184321939
 10
76.14834156158317
 20
259.519569225413
 10
76.12349016064947
 20
259.2594840862343
 10
76.08517828113636
 20
259.0341637478904
 10
76.03584429477775
 20
258.84008501078125
 10
75.97746635727894
 20
258.6727735547128
 10
75.91113508415262
 20
258.5269510425882
 10
75.83674797815036
 20
258.39698735011683
 10
75.75301643608904
 20
258.2775514460685
 10
75.65784396205076
 20
258.16420696868096
 10
75.55948266982492
 20
258.06441562800114
 10
75.27794100440795
 20
257.8309748683842
 10
74.94342645670397
 20
257.60449125497223
 10
74.54390791995051
 20
257.3640095891078
 10
74.0889135379246
 20
257.0983778131163
 10
73.59076308395147
 20
256.7928943078242
 10
73.06343929739701
 20
256.4305942109535
 10
72.53269941467256
 20
256.00233770937615
 10
72.25414882484358
 20
255.74357034305893
 10
71.98636433175183
 20
255.46778191914186
 10
71.72349004787229
 20
255.16605242850173
 10
71.46743977889388
 20
254.836959032035
 10
71.21994243764186
 20
254.4791875334176
 10
70.98251161410627
 20
254.09147044657277
 10
70.75644082573294
 20
253.67252265090812
 10
70.42702602205297
 20
252.97622160221914
 10
80.15337170475323
 20
180.81629020496547
 10
97.97911894282443
 20
180.81629020496547
 10
101.90841359066454
 20
259.8072650842255
 10
101.89019283229968
 20
260.3824577333992
 10
101.83796193896625
 20
260.94131906942533
 10
101.75395298761039
 20
261.49243122686596
 10
101.6407479124544
 20
262.0360397560803
 10
101.50093089314845
 20
262.5726404831697
 10
101.33703059797004
 20
263.1029446318408
 10
101.15148382518959
 20
263.62783079538656
 10
100.94423087495359
 20
264.15436132855274
 10
100.48874798858103
 20
265.1784550635429
 10
99.97782187778023
 20
266.20597165444383
 10
99.43041196791306
 20
267.2375858419903
 10
98.86112152960433
 20
268.28154231022563
 10
98.28403503630217
 20
269.34560689541826
 10
97.71287693959255
 20
270.4371390734282
 10
97.16108384286825
 20
271.5632255679083
 10
96.63919585703576
 20
272.73677868312114
 10
96.3978055049397
 20
273.333443560168
 10
96.16742541693347
 20
273.9480103485946
 10
95.95161724881893
 20
274.57653617447664
 10
95.75197173160348
 20
275.21996680666024
 10
95.57008154127013
 20
275.8792761386383
 10
95.40754732515848
 20
276.5554677066504
 10
95.26598419859896
 20
277.24957439871304
 10
95.00462550548067
 20
278.81629020496547
  0
LWPOLYLINE
  5
B8
330
17
100
AcDbEntity
  8
STITCH_LINE
  6
DASHED
100
AcDbPolyline
 90
55
 70
1
 10
77.1576260846095
 20
277.81629020496547
 10
94.1576260846095
 20
277.81629020496547
 10
94.28256810121107
 20
277.0673247508639
 10
94.431185654922
 20
276.33862907215297
 10
94.60166600160169
 20
275.6293791942233
 10
94.7921963971095
 20
274.9387511424655
 10
95.00096409730482
 20
274.26592094227016
 10
95.226156358047
 20
273.610064619028
 10
95.46596043519544
 20
272.97035819812953
 10
95.7185635846095
 20
272.3459777049655
 10
96.254916123672
 20
271.13989860340297
 10
96.8207120221095
 20
269.98523551746547
 10
97.401449326797
 20
268.875396650278
 10
97.9826260846095
 20
267.8037902049655
 10
98.549740342422
 20
266.763824384653
 10
99.0882901471095
 20
265.74890739246547
 10
99.583773545547
 20
264.75244743152797
 10
100.0216885846095
 20
263.7678527049655
 10
100.21452610902357
 20
263.2779448680514
 10
100.387533311172
 20
262.788531415903
 10
100.53889744691419
 20
262.2987883739108
 10
100.6668057721095
 20
261.8078917674655
 10
100.76944554261732
 20
261.3150176219577
 10
100.845004014297
 20
260.81934196277797
 10
100.89166844300794
 20
260.32004081531704
 10
100.9076260846095
 20
259.81629020496547
 10
97.02762608460951
 20
181.81629020496547
 10
81.02762608460951
 20
181.81629020496547
 10
71.4576260846095
 20
252.81629020496547
 10
71.64906193666029
 20
253.2209380321139
 10
71.84958165101575
 20
253.59253532215297
 10
72.0581909649806
 20
253.93318778797328
 10
72.2738956158595
 20
254.24500114246547
 10
72.49570134095715
 20
254.53008109852016
 10
72.72261387757825
 20
254.79053336902797
 10
72.95363896302747
 20
255.02846366687953
 10
73.18778233460951
 20
255.24597770496547
 10
73.66144688539076
 20
255.62817985340297
 10
74.1356534283595
 20
255.95398551746547
 10
74.60244786195325
 20
256.24024040027797
 10
75.0538760846095
 20
256.50379020496547
 10
75.48198399476576
 20
256.76148063465297
 10
75.8788174908595
 20
257.03015739246547
 10
76.23642247132825
 20
257.32666618152797
 10
76.39802861146498
 20
257.49062187000453
 10
76.5468448346095
 20
257.66785270496547
 10
76.68187687806653
 20
257.8604643993014
 10
76.80213047914076
 20
258.07056266590297
 10
76.90661137513685
 20
258.3002532176608
 10
76.9943253033595
 20
258.55164176746547
 10
77.06427800111341
 20
258.82683402820766
 10
77.11547520570326
 20
259.12793571277797
 10
77.14692265443372
 20
259.45705253406703
 10
77.1576260846095
 20
259.81629020496547
 10
77.1576260846095
 20
277.81629020496547
  0
LINE
  5
B9
330
17
100
AcDbEntity
  8
NOTCH
100
AcDbLine
 10
73.82587487802473
 20
235.24621033741258
 30
0.0
 11
72.83483694529507
 21
235.1126295907052
 31
0.0
  0
LINE
  5
BA
330
17
100
AcDbEntity
  8
NOTCH
100
AcDbLine
 10
99.1146781403449
 20
223.77249132541954
 30
0.0
 11
100.113443219302
 21
223.72280916508166
 31
0.0
  0
LINE
  5
BB
330
17
100
AcDbEntity
  8
GRAINLINE
100
AcDbLine
 10
86.18262608460951
 20
270.13629020496546
 30
0.0
 11
86.18262608460951
 21
189.49629020496548
 31
0.0
  0
LINE
  5
BC
330
17
100
AcDbEntity
  8
GRAINLINE
100
AcDbLine
 10
84.68262608460951
 20
268.63629020496546
 30
0.0
 11
86.18262608460951
 21
270.13629020496546
 31
0.0
  0
LINE
  5
BD
330
17
100
AcDbEntity
  8
GRAINLINE
100
AcDbLine
 10
87.68262608460951
 20
268.63629020496546
 30
0.0
 11
86.18262608460951
 21
270.13629020496546
 31
0.0
  0
LINE
  5
BE
330
17
100
AcDbEntity
  8
GRAINLINE
100
AcDbLine
 10
84.68262608460951
 20
190.99629020496548
 30
0.0
 11
86.18262608460951
 21
189.49629020496548
 31
0.0
  0
LINE
  5
BF
330
17
100
AcDbEntity
  8
GRAINLINE
100
AcDbLine
 10
87.68262608460951
 20
190.99629020496548
 30
0.0
 11
86.18262608460951
 21
189.49629020496548
 31
0.0
  0
TEXT
  5
C0
330
17
100
AcDbEntity
  8
LABEL
100
AcDbText
 10
86.16771980635875
 20
229.81629020496547
 30
0.0
 40
0.9
  1
パンツ・前（テーパード） 左
 72
1
 11
86.16771980635875
 21
229.81629020496547
 31
0.0
100
AcDbText
 73
2
  0
TEXT
  5
C1
330
17
100
AcDbEntity
  8
LABEL_ID
100
AcDbText
 10
86.16771980635875
 20
228.61629020496548
 30
0.0
 40
0.55
  1
front_pants(tapered) 左
 72
1
 11
86.16771980635875
 21
228.61629020496548
 31
0.0
100
AcDbText
 73
2
  0
LWPOLYLINE
  5
C2
330
17
100
AcDbEntity
  8
CUT_LINE
100
AcDbPolyline
 90
54
 70
1
 10
107.93901365322107
 20
278.81629020496547
 10
107.93901365322107
 20
259.831184321939
 10
107.92972913019473
 20
259.519569225413
 10
107.90487772926103
 20
259.2594840862343
 10
107.86656584974793
 20
259.0341637478904
 10
107.81723186338931
 20
258.84008501078125
 10
107.7588539258905
 20
258.6727735547128
 10
107.69252265276418
 20
258.5269510425882
 10
107.61813554676192
 20
258.39698735011683
 10
107.5344040047006
 20
258.2775514460685
 10
107.43923153066233
 20
258.16420696868096
 10
107.34087023843648
 20
258.06441562800114
 10
107.05932857301951
 20
257.8309748683842
 10
106.72481402531554
 20
257.60449125497223
 10
106.32529548856208
 20
257.3640095891078
 10
105.87030110653616
 20
257.0983778131163
 10
105.37215065256304
 20
256.7928943078242
 10
104.84482686600857
 20
256.4305942109535
 10
104.31408698328413
 20
256.00233770937615
 10
104.03553639345515
 20
255.74357034305893
 10
103.7677519003634
 20
255.46778191914186
 10
103.50487761648385
 20
255.16605242850173
 10
103.24882734750544
 20
254.836959032035
 10
103.00133000625343
 20
254.4791875334176
 10
102.76389918271784
 20
254.09147044657277
 10
102.5378283943445
 20
253.67252265090812
 10
102.20841359066453
 20
252.97622160221914
 10
111.93475927336479
 20
180.81629020496547
 10
129.76050651143598
 20
180.81629020496547
 10
133.6898011592761
 20
259.8072650842255
 10
133.67158040091124
 20
260.3824577333992
 10
133.6193495075778
 20
260.94131906942533
 10
133.53534055622197
 20
261.49243122686596
 10
133.42213548106596
 20
262.0360397560803
 10
133.28231846176
 20
262.5726404831697
 10
133.1184181665816
 20
263.1029446318408
 10
132.93287139380115
 20
263.62783079538656
 10
132.72561844356517
 20
264.15436132855274
 10
132.2701355571926
 20
265.1784550635429
 10
131.7592094463918
 20
266.20597165444383
 10
131.2117995365246
 20
267.2375858419903
 10
130.6425090982159
 20
268.28154231022563
 10
130.06542260491375
 20
269.34560689541826
 10
129.4942645082041
 20
270.4371390734282
 10
128.9424714114798
 20
271.5632255679083
 10
128.42058342564732
 20
272.73677868312114
 10
128.17919307355126
 20
273.333443560168
 10
127.94881298554503
 20
273.9480103485946
 10
127.7330048174305
 20
274.57653617447664
 10
127.53335930021504
 20
275.21996680666024
 10
127.35146910988169
 20
275.8792761386383
 10
127.18893489377004
 20
276.5554677066504
 10
127.04737176721052
 20
277.24957439871304
 10
126.78601307409224
 20
278.81629020496547
  0
LWPOLYLINE
  5
C3
330
17
100
AcDbEntity
  8
STITCH_LINE
  6
DASHED
100
AcDbPolyline
 90
55
 70
1
 10
108.93901365322107
 20
277.81629020496547
 10
125.93901365322107
 20
277.81629020496547
 10
126.06395566982263
 20
277.0673247508639
 10
126.21257322353357
 20
276.33862907215297
 10
126.38305357021325
 20
275.6293791942233
 10
126.57358396572107
 20
274.9387511424655
 10
126.78235166591638
 20
274.26592094227016
 10
127.00754392665857
 20
273.610064619028
 10
127.247348003807
 20
272.97035819812953
 10
127.49995115322106
 20
272.3459777049655
 10
128.03630369228355
 20
271.13989860340297
 10
128.60209959072105
 20
269.98523551746547
 10
129.18283689540857
 20
268.875396650278
 10
129.76401365322107
 20
267.8037902049655
 10
130.33112791103358
 20
266.763824384653
 10
130.86967771572105
 20
265.74890739246547
 10
131.36516111415858
 20
264.75244743152797
 10
131.80307615322107
 20
263.7678527049655
 10
131.99591367763512
 20
263.2779448680514
 10
132.16892087978357
 20
262.788531415903
 10
132.32028501552574
 20
262.2987883739108
 10
132.44819334072108
 20
261.8078917674655
 10
132.55083311122888
 20
261.3150176219577
 10
132.62639158290858
 20
260.81934196277797
 10
132.6730560116195
 20
260.32004081531704
 10
132.68901365322108
 20
259.81629020496547
 10
128.80901365322106
 20
181.81629020496547
 10
112.80901365322107
 20
181.81629020496547
 10
103.23901365322106
 20
252.81629020496547
 10
103.43044950527185
 20
253.2209380321139
 10
103.63096921962732
 20
253.59253532215297
 10
103.83957853359216
 20
253.93318778797328
 10
104.05528318447107
 20
254.24500114246547
 10
104.27708890956872
 20
254.53008109852016
 10
104.50400144618982
 20
254.79053336902797
 10
104.73502653163904
 20
255.02846366687953
 10
104.96916990322107
 20
255.24597770496547
 10
105.44283445400232
 20
255.62817985340297
 10
105.91704099697107
 20
255.95398551746547
 10
106.38383543056482
 20
256.24024040027797
 10
106.83526365322106
 20
256.50379020496547
 10
107.26337156337732
 20
256.76148063465297
 10
107.66020505947107
 20
257.03015739246547
 10
108.01781003993982
 20
257.32666618152797
 10
108.17941618007654
 20
257.49062187000453
 10
108.32823240322107
 20
257.66785270496547
 10
108.4632644466781
 20
257.8604643993014
 10
108.58351804775232
 20
258.07056266590297
 10
108.68799894374841
 20
258.3002532176608
 10
108.77571287197107
 20
258.55164176746547
 10
108.84566556972497
 20
258.82683402820766
 10
108.89686277431483
 20
259.12793571277797
 10
108.92831022304529
 20
259.45705253406703
 10
108.93901365322107
 20
259.81629020496547
 10
108.93901365322107
 20
277.81629020496547
  0
LINE
  5
C4
330
17
100
AcDbEntity
  8
NOTCH
100
AcDbLine
 10
105.6072624466363
 20
235.24621033741258
 30
0.0
 11
104.61622451390663
 21
235.1126295907052
 31
0.0
  0
LINE
  5
C5
330
17
100
AcDbEntity
  8
NOTCH
100
AcDbLine
 10
130.89606570895648
 20
223.77249132541954
 30
0.0
 11
131.89483078791358
 21
223.72280916508166
 31
0.0
  0
LINE
  5
C6
330
17
100
AcDbEntity
  8
GRAINLINE
100
AcDbLine
 10
117.96401365322107
 20
270.13629020496546
 30
0.0
 11
117.96401365322107
 21
189.49629020496548
 31
0.0
  0
LINE
  5
C7
330
17
100
AcDbEntity
  8
GRAINLINE
100
AcDbLine
 10
116.46401365322107
 20
268.63629020496546
 30
0.0
 11
117.96401365322107
 21
270.13629020496546
 31
0.0
  0
LINE
  5
C8
330
17
100
AcDbEntity
  8
GRAINLINE
100
AcDbLine
 10
119.46401365322107
 20
268.63629020496546
 30
0.0
 11
117.96401365322107
 21
270.13629020496546
 31
0.0
  0
LINE
  5
C9
330
17
100
AcDbEntity
  8
GRAINLINE
100
AcDbLine
 10
116.46401365322107
 20
190.99629020496548
 30
0.0
 11
117.96401365322107
 21
189.49629020496548
 31
0.0
  0
LINE
  5
CA
330
17
100
AcDbEntity
  8
GRAINLINE
100
AcDbLine
 10
119.46401365322107
 20
190.99629020496548
 30
0.0
 11
117.96401365322107
 21
189.49629020496548
 31
0.0
  0
TEXT
  5
CB
330
17
100
AcDbEntity
  8
LABEL
100
AcDbText
 10
117.94910737497031
 20
229.81629020496547
 30
0.0
 40
0.9
  1
パンツ・前（テーパード） 右
 72
1
 11
117.94910737497031
 21
229.81629020496547
 31
0.0
100
AcDbText
 73
2
  0
TEXT
  5
CC
330
17
100
AcDbEntity
  8
LABEL_ID
100
AcDbText
 10
117.94910737497031
 20
228.61629020496548
 30
0.0
 40
0.55
  1
front_pants(tapered) 右
 72
1
 11
117.94910737497031
 21
228.61629020496548
 31
0.0
100
AcDbText
 73
2
  0
LWPOLYLINE
  5
CD
330
17
100
AcDbEntity
  8
CUT_LINE
100
AcDbPolyline
 90
71
 70
1
 10
9.402553619913704
 20
278.81629020496547
 10
8.913209982612699
 20
277.05388851124854
 10
8.661117854494263
 20
276.0035551433128
 10
8.447641572800821
 20
274.94693851893663
 10
8.272923353213194
 20
273.88179437296105
 10
8.137053063828574
 20
272.8059018470862
 10
8.0400635771604
 20
271.717043313163
 10
7.981931294860755
 20
270.61298410792523
 10
7.96258154438716
 20
269.49145443008456
 10
7.981897802752169
 20
268.35013519559584
 10
8.03973323824198
 20
267.1866488957031
 10
8.135922949487579
 20
265.99855566539617
 10
8.270295484424185
 20
264.78335404643263
 10
8.4426826255281
 20
263.53848544674213
 10
8.652926896669443
 20
262.26134109228764
 10
8.900886669646804
 20
260.949270298378
 10
9.157743597711079
 20
259.7352199743242
 10
9.14924328196376
 20
259.5564302326604
 10
9.115465805393594
 20
259.33489867831577
 10
9.064447493622193
 20
259.1468669670009
 10
8.998564834770173
 20
258.98444867517736
 10
8.917659256767006
 20
258.8391434833801
 10
8.819184729999371
 20
258.7034842993252
 10
8.69934607203636
 20
258.57228445314223
 10
8.554560551117042
 20
258.44287216478546
 10
8.382471993940703
 20
258.3144506737711
 10
8.18224524083447
 20
258.18716511842365
 10
7.954346365836268
 20
258.0613443195407
 10
7.706749423565705
 20
257.94030034106356
 10
7.116699283925603
 20
257.68999768108574
 10
6.457042501523041
 20
257.44122934904135
 10
5.733576376938875
 20
257.17662434091375
 10
4.962383330267796
 20
256.88036925529565
 10
4.167185870151931
 20
256.5381489287696
 10
3.7523890768549437
 20
256.33787863820226
 10
3.3410483284326586
 20
256.1206684200132
 10
2.9295825260311563
 20
255.88128243365315
 10
2.5202070410086588
 20
255.6172584666479
 10
2.115265606374291
 20
255.32621301284692
 10
1.7172240053484282
 20
255.0058919931431
 10
1.3286423806441734
 20
254.65421829503137
 10
0.9521255290776142
 20
254.26932675525146
 10
0.5902558320799877
 20
253.84957699049963
 10
0.0
 20
253.06874972080067
 10
13.208970767824518
 20
180.81629020496547
 10
30.99434223494889
 20
180.81629020496547
 10
34.91351301102649
 20
259.8073291026534
 10
34.89529428061575
 20
260.38245773339924
 10
34.84306338728233
 20
260.94131906942533
 10
34.75905443592648
 20
261.4924312268659
 10
34.64584936077047
 20
262.0360397560804
 10
34.506032341464554
 20
262.5726404831696
 10
34.34213204628608
 20
263.1029446318409
 10
34.15658527350569
 20
263.6278307953865
 10
33.94933232326964
 20
264.15436132855274
 10
33.4938494368971
 20
265.1784550635429
 10
32.982923326096355
 20
266.2059716544438
 10
32.435513416229135
 20
267.2375858419903
 10
31.8662229779204
 20
268.28154231022563
 10
31.28913648461825
 20
269.34560689541826
 10
30.717978387908623
 20
270.4371390734282
 10
30.166185291184327
 20
271.5632255679083
 10
29.64429730535183
 20
272.73677868312114
 10
29.40290695325577
 20
273.333443560168
 10
29.172526865249544
 20
273.9480103485946
 10
28.956718697135017
 20
274.57653617447664
 10
28.757073179919548
 20
275.21996680666024
 10
28.575182989586217
 20
275.87927613863826
 10
28.412648773474544
 20
276.55546770665046
 10
28.27108564691504
 20
277.249574398713
 10
28.009726953796747
 20
278.81629020496547
  0
LWPOLYLINE
  5
CE
330
17
100
AcDbEntity
  8
STITCH_LINE
  6
DASHED
100
AcDbPolyline
 90
72
 70
1
 10
10.162727532925576
 20
277.81629020496547
 10
27.162727532925576
 20
277.81629020496547
 10
27.28766954952714
 20
277.0673247508639
 10
27.436287103238076
 20
276.33862907215297
 10
27.606767449917765
 20
275.6293791942233
 10
27.79729784542558
 20
274.9387511424655
 10
28.00606554562089
 20
274.26592094227016
 10
28.23125780636308
 20
273.610064619028
 10
28.471061883511513
 20
272.97035819812953
 10
28.723665032925577
 20
272.3459777049655
 10
29.260017571988076
 20
271.13989860340297
 10
29.825813470425576
 20
269.98523551746547
 10
30.40655077511308
 20
268.875396650278
 10
30.98772753292558
 20
267.8037902049655
 10
31.554841790738077
 20
266.763824384653
 10
32.09339159542558
 20
265.74890739246547
 10
32.58887499386308
 20
264.75244743152797
 10
33.026790032925575
 20
263.7678527049655
 10
33.219627557339635
 20
263.2779448680514
 10
33.392634759488075
 20
262.788531415903
 10
33.54399889523026
 20
262.2987883739108
 10
33.67190722042558
 20
261.8078917674655
 10
33.774546990933395
 20
261.3150176219577
 10
33.85010546261308
 20
260.81934196277797
 10
33.89676989132402
 20
260.32004081531704
 10
33.91272753292558
 20
259.81629020496547
 10
30.042727532925575
 20
181.81629020496547
 10
14.042727532925575
 20
181.81629020496547
 10
1.0627275329255754
 20
252.81629020496547
 10
1.3686155944490128
 20
253.2209380321139
 10
1.6889726501130755
 20
253.59253532215297
 10
2.0222130065583883
 20
253.93318778797328
 10
2.3667509704255756
 20
254.24500114246547
 10
2.7210008483552635
 20
254.53008109852016
 10
3.083376946988076
 20
254.79053336902797
 10
3.4522935729646385
 20
255.02846366687953
 10
3.8261650329255756
 20
255.24597770496547
 10
4.203405633511513
 20
255.4451811961764
 10
4.582429681363076
 20
255.62817985340297
 10
5.339485345425576
 20
255.95398551746547
 10
6.084646478238075
 20
256.24024040027797
 10
6.805227532925575
 20
256.50379020496547
 10
7.488542962613075
 20
256.76148063465297
 10
8.121907220425573
 20
257.03015739246547
 10
8.415893426480263
 20
257.17387992664516
 10
8.692634759488074
 20
257.32666618152797
 10
8.950545526089638
 20
257.49062187000453
 10
9.188040032925574
 20
257.66785270496547
 10
9.403532586636512
 20
257.8604643993014
 10
9.595437493863074
 20
258.07056266590297
 10
9.762169061245888
 20
258.3002532176608
 10
9.902141595425576
 20
258.55164176746547
 10
10.013769403042762
 20
258.82683402820766
 10
10.095466790738076
 20
259.12793571277797
 10
10.145648065152137
 20
259.45705253406703
 10
10.162727532925576
 20
259.81629020496547
 10
9.881477532925576
 20
261.14563590809047
 10
9.637727532925574
 20
262.43543082996547
 10
9.431477532925577
 20
263.6883116893405
 10
9.262727532925574
 20
264.90691520496546
 10
9.131477532925576
 20
266.09387809559047
 10
9.037727532925576
 20
267.25183707996547
 10
8.981477532925576
 20
268.38342887684047
 10
8.962727532925577
 20
269.4912902049655
 10
8.981477532925576
 20
270.57805778309046
 10
9.037727532925576
 20
271.64636832996547
 10
9.131477532925576
 20
272.69885856434047
 10
9.262727532925574
 20
273.73816520496547
 10
9.431477532925577
 20
274.7669249705905
 10
9.637727532925574
 20
275.78777457996546
 10
9.881477532925576
 20
276.80335075184047
 10
10.162727532925576
 20
277.81629020496547
  0
LINE
  5
CF
330
17
100
AcDbEntity
  8
NOTCH
100
AcDbLine
 10
7.552727532925576
 20
217.31629020496547
 30
0.0
 11
6.56903099135217
 21
217.13645385130883
 31
0.0
  0
LINE
  5
D0
330
17
100
AcDbEntity
  8
NOTCH
100
AcDbLine
 10
32.12438922637413
 20
223.7722623209828
 30
0.0
 11
33.123160650989604
 21
223.72270789260764
 31
0.0
  0
LINE
  5
D1
330
17
100
AcDbEntity
  8
GRAINLINE
100
AcDbLine
 10
17.487727532925575
 20
270.13629020496546
 30
0.0
 11
17.487727532925575
 21
189.49629020496548
 31
0.0
  0
LINE
  5
D2
330
17
100
AcDbEntity
  8
GRAINLINE
100
AcDbLine
 10
15.987727532925575
 20
268.63629020496546
 30
0.0
 11
17.487727532925575
 21
270.13629020496546
 31
0.0
  0
LINE
  5
D3
330
17
100
AcDbEntity
  8
GRAINLINE
100
AcDbLine
 10
18.987727532925575
 20
268.63629020496546
 30
0.0
 11
17.487727532925575
 21
270.13629020496546
 31
0.0
  0
LINE
  5
D4
330
17
100
AcDbEntity
  8
GRAINLINE
100
AcDbLine
 10
15.987727532925575
 20
190.99629020496548
 30
0.0
 11
17.487727532925575
 21
189.49629020496548
 31
0.0
  0
LINE
  5
D5
330
17
100
AcDbEntity
  8
GRAINLINE
100
AcDbLine
 10
18.987727532925575
 20
190.99629020496548
 30
0.0
 11
17.487727532925575
 21
189.49629020496548
 31
0.0
  0
TEXT
  5
D6
330
17
100
AcDbEntity
  8
LABEL
100
AcDbText
 10
17.456756505513244
 20
229.81629020496547
 30
0.0
 40
0.9
  1
パンツ・後（テーパード） 左
 72
1
 11
17.456756505513244
 21
229.81629020496547
 31
0.0
100
AcDbText
 73
2
  0
TEXT
  5
D7
330
17
100
AcDbEntity
  8
LABEL_ID
100
AcDbText
 10
17.456756505513244
 20
228.61629020496548
 30
0.0
 40
0.55
  1
back_pants(tapered) 左
 72
1
 11
17.456756505513244
 21
228.61629020496548
 31
0.0
100
AcDbText
 73
2
  0
LWPOLYLINE
  5
D8
330
17
100
AcDbEntity
  8
CUT_LINE
100
AcDbPolyline
 90
71
 70
1
 10
44.61606663094019
 20
278.81629020496547
 10
44.126722993639184
 20
277.05388851124854
 10
43.87463086552075
 20
276.0035551433128
 10
43.661154583827305
 20
274.94693851893663
 10
43.48643636423968
 20
273.88179437296105
 10
43.35056607485506
 20
272.8059018470862
 10
43.25357658818689
 20
271.717043313163
 10
43.19544430588724
 20
270.61298410792523
 10
43.17609455541365
 20
269.49145443008456
 10
43.19541081377865
 20
268.35013519559584
 10
43.253246249268464
 20
267.1866488957031
 10
43.349435960514064
 20
265.99855566539617
 10
43.483808495450674
 20
264.78335404643263
 10
43.656195636554585
 20
263.53848544674213
 10
43.86643990769593
 20
262.26134109228764
 10
44.11439968067329
 20
260.949270298378
 10
44.37125660873757
 20
259.7352199743242
 10
44.36275629299024
 20
259.5564302326604
 10
44.328978816420076
 20
259.33489867831577
 10
44.277960504648675
 20
259.1468669670009
 10
44.21207784579666
 20
258.98444867517736
 10
44.13117226779349
 20
258.8391434833801
 10
44.032697741025856
 20
258.7034842993252
 10
43.91285908306284
 20
258.57228445314223
 10
43.76807356214353
 20
258.44287216478546
 10
43.59598500496719
 20
258.3144506737711
 10
43.395758251860954
 20
258.18716511842365
 10
43.16785937686275
 20
258.0613443195407
 10
42.92026243459219
 20
257.94030034106356
 10
42.33021229495209
 20
257.68999768108574
 10
41.67055551254953
 20
257.44122934904135
 10
40.94708938796536
 20
257.17662434091375
 10
40.17589634129428
 20
256.88036925529565
 10
39.38069888117842
 20
256.5381489287696
 10
38.96590208788143
 20
256.33787863820226
 10
38.55456133945914
 20
256.1206684200132
 10
38.14309553705764
 20
255.88128243365315
 10
37.733720052035146
 20
255.6172584666479
 10
37.32877861740078
 20
255.32621301284692
 10
36.93073701637491
 20
255.0058919931431
 10
36.54215539167066
 20
254.65421829503137
 10
36.1656385401041
 20
254.26932675525146
 10
35.803768843106475
 20
253.84957699049963
 10
35.213513011026485
 20
253.06874972080067
 10
48.422483778851
 20
180.81629020496547
 10
66.20785524597537
 20
180.81629020496547
 10
70.12702602205297
 20
259.8073291026534
 10
70.10880729164224
 20
260.38245773339924
 10
70.0565763983088
 20
260.94131906942533
 10
69.97256744695297
 20
261.4924312268659
 10
69.85936237179695
 20
262.0360397560804
 10
69.71954535249104
 20
262.5726404831696
 10
69.55564505731257
 20
263.1029446318409
 10
69.37009828453218
 20
263.6278307953865
 10
69.16284533429612
 20
264.15436132855274
 10
68.70736244792359
 20
265.1784550635429
 10
68.19643633712283
 20
266.2059716544438
 10
67.64902642725562
 20
267.2375858419903
 10
67.07973598894688
 20
268.28154231022563
 10
66.50264949564473
 20
269.34560689541826
 10
65.93149139893511
 20
270.4371390734282
 10
65.37969830221081
 20
271.5632255679083
 10
64.85781031637832
 20
272.73677868312114
 10
64.61641996428226
 20
273.333443560168
 10
64.38603987627603
 20
273.9480103485946
 10
64.17023170816151
 20
274.57653617447664
 10
63.97058619094604
 20
275.21996680666024
 10
63.7886960006127
 20
275.87927613863826
 10
63.62616178450103
 20
276.55546770665046
 10
63.484598657941525
 20
277.249574398713
 10
63.223239964823236
 20
278.81629020496547
  0
LWPOLYLINE
  5
D9
330
17
100
AcDbEntity
  8
STITCH_LINE
  6
DASHED
100
AcDbPolyline
 90
72
 70
1
 10
45.376240543952065
 20
277.81629020496547
 10
62.376240543952065
 20
277.81629020496547
 10
62.50118256055363
 20
277.0673247508639
 10
62.649800114264565
 20
276.33862907215297
 10
62.82028046094425
 20
275.6293791942233
 10
63.01081085645207
 20
274.9387511424655
 10
63.21957855664738
 20
274.26592094227016
 10
63.44477081738957
 20
273.610064619028
 10
63.684574894538
 20
272.97035819812953
 10
63.93717804395206
 20
272.3459777049655
 10
64.47353058301456
 20
271.13989860340297
 10
65.03932648145206
 20
269.98523551746547
 10
65.62006378613957
 20
268.875396650278
 10
66.20124054395207
 20
267.8037902049655
 10
66.76835480176456
 20
266.763824384653
 10
67.30690460645206
 20
265.74890739246547
 10
67.80238800488956
 20
264.75244743152797
 10
68.24030304395205
 20
263.7678527049655
 10
68.43314056836613
 20
263.2779448680514
 10
68.60614777051455
 20
262.788531415903
 10
68.75751190625675
 20
262.2987883739108
 10
68.88542023145206
 20
261.8078917674655
 10
68.98806000195988
 20
261.3150176219577
 10
69.06361847363956
 20
260.81934196277797
 10
69.1102829023505
 20
260.32004081531704
 10
69.12624054395206
 20
259.81629020496547
 10
65.25624054395206
 20
181.81629020496547
 10
49.25624054395206
 20
181.81629020496547
 10
36.27624054395206
 20
252.81629020496547
 10
36.582128605475496
 20
253.2209380321139
 10
36.90248566113956
 20
253.59253532215297
 10
37.235726017584874
 20
253.93318778797328
 10
37.58026398145206
 20
254.24500114246547
 10
37.93451385938175
 20
254.53008109852016
 10
38.29688995801456
 20
254.79053336902797
 10
38.66580658399113
 20
255.02846366687953
 10
39.03967804395206
 20
255.24597770496547
 10
39.416918644538
 20
255.4451811961764
 10
39.79594269238956
 20
255.62817985340297
 10
40.552998356452065
 20
255.95398551746547
 10
41.29815948926456
 20
256.24024040027797
 10
42.01874054395206
 20
256.50379020496547
 10
42.70205597363956
 20
256.76148063465297
 10
43.33542023145206
 20
257.03015739246547
 10
43.629406437506745
 20
257.17387992664516
 10
43.90614777051456
 20
257.32666618152797
 10
44.16405853711612
 20
257.49062187000453
 10
44.40155304395206
 20
257.66785270496547
 10
44.617045597662994
 20
257.8604643993014
 10
44.80895050488956
 20
258.07056266590297
 10
44.97568207227238
 20
258.3002532176608
 10
45.11565460645206
 20
258.55164176746547
 10
45.22728241406925
 20
258.82683402820766
 10
45.308979801764565
 20
259.12793571277797
 10
45.35916107617862
 20
259.45705253406703
 10
45.376240543952065
 20
259.81629020496547
 10
45.094990543952065
 20
261.14563590809047
 10
44.85124054395206
 20
262.43543082996547
 10
44.64499054395206
 20
263.6883116893405
 10
44.47624054395206
 20
264.90691520496546
 10
44.344990543952065
 20
266.09387809559047
 10
44.251240543952065
 20
267.25183707996547
 10
44.19499054395206
 20
268.38342887684047
 10
44.17624054395206
 20
269.4912902049655
 10
44.19499054395206
 20
270.57805778309046
 10
44.251240543952065
 20
271.64636832996547
 10
44.344990543952065
 20
272.69885856434047
 10
44.47624054395206
 20
273.73816520496547
 10
44.64499054395206
 20
274.7669249705905
 10
44.85124054395206
 20
275.78777457996546
 10
45.094990543952065
 20
276.80335075184047
 10
45.376240543952065
 20
277.81629020496547
  0
LINE
  5
DA
330
17
100
AcDbEntity
  8
NOTCH
100
AcDbLine
 10
42.76624054395206
 20
217.31629020496547
 30
0.0
 11
41.78254400237866
 21
217.13645385130883
 31
0.0
  0
LINE
  5
DB
330
17
100
AcDbEntity
  8
NOTCH
100
AcDbLine
 10
67.33790223740061
 20
223.7722623209828
 30
0.0
 11
68.3366736620161
 21
223.72270789260764
 31
0.0
  0
LINE
  5
DC
330
17
100
AcDbEntity
  8
GRAINLINE
100
AcDbLine
 10
52.70124054395206
 20
270.13629020496546
 30
0.0
 11
52.70124054395206
 21
189.49629020496548
 31
0.0
  0
LINE
  5
DD
330
17
100
AcDbEntity
  8
GRAINLINE
100
AcDbLine
 10
51.20124054395206
 20
268.63629020496546
 30
0.0
 11
52.70124054395206
 21
270.13629020496546
 31
0.0
  0
LINE
  5
DE
330
17
100
AcDbEntity
  8
GRAINLINE
100
AcDbLine
 10
54.20124054395206
 20
268.63629020496546
 30
0.0
 11
52.70124054395206
 21
270.13629020496546
 31
0.0
  0
LINE
  5
DF
330
17
100
AcDbEntity
  8
GRAINLINE
100
AcDbLine
 10
51.20124054395206
 20
190.99629020496548
 30
0.0
 11
52.70124054395206
 21
189.49629020496548
 31
0.0
  0
LINE
  5
E0
330
17
100
AcDbEntity
  8
GRAINLINE
100
AcDbLine
 10
54.20124054395206
 20
190.99629020496548
 30
0.0
 11
52.70124054395206
 21
189.49629020496548
 31
0.0
  0
TEXT
  5
E1
330
17
100
AcDbEntity
  8
LABEL
100
AcDbText
 10
52.67026951653973
 20
229.81629020496547
 30
0.0
 40
0.9
  1
パンツ・後（テーパード） 右
 72
1
 11
52.67026951653973
 21
229.81629020496547
 31
0.0
100
AcDbText
 73
2
  0
TEXT
  5
E2
330
17
100
AcDbEntity
  8
LABEL_ID
100
AcDbText
 10
52.67026951653973
 20
228.61629020496548
 30
0.0
 40
0.55
  1
back_pants(tapered) 右
 72
1
 11
52.67026951653973
 21
228.61629020496548
 31
0.0
100
AcDbText
 73
2
  0
LWPOLYLINE
  5
E3
330
17
100
AcDbEntity
  8
CUT_LINE
100
AcDbPolyline
 90
46
 70
1
 10
11.41478238070645
 20
55.91629020496549
 10
10.757164650974401
 20
55.907375944816266
 10
10.112722676901132
 20
55.88094732889948
 10
9.488290927313413
 20
55.83799159392953
 10
8.883902237028188
 20
55.77940534100662
 10
8.299588140830785
 20
55.706086474337354
 10
7.73537820066398
 20
55.6189338313641
 10
7.191299284756433
 20
55.51884667578284
 10
6.660314004559198
 20
55.40521298428786
 10
5.680091516014729
 20
55.15031501197265
 10
4.773509072966221
 20
54.856158916878314
 10
3.947644697961298
 20
54.53165441106307
 10
3.202295060637872
 20
54.18369164367485
 10
2.5370304592998196
 20
53.81885797335761
 10
1.951101732977385
 20
53.44320137877273
 10
1.4432973039714654
 20
53.061781654693306
 10
1.0117338434934056
 20
52.677748269552154
 10
0.6536408671025691
 20
52.290278888558134
 10
0.36574587416199544
 20
51.88960659235963
 10
0.16658724202980657
 20
51.48053481060256
 10
0.08946774083354458
 20
51.200264675189544
 10
0.0
 20
50.320398269640435
 10
11.192784384385094
 20
44.91629020496549
 10
59.97745329325649
 20
44.91629020496549
 10
71.17023767764155
 20
50.320398269640435
 10
71.08076993680803
 20
51.20026467518957
 10
71.00365043561175
 20
51.48053481060259
 10
70.80449180347956
 20
51.889606592359655
 10
70.51659681053901
 20
52.290278888558134
 10
70.1585038341482
 20
52.677748269552126
 10
69.72694037367008
 20
53.061781654693306
 10
69.21913594466423
 20
53.44320137877267
 10
68.63320721834168
 20
53.818857973357666
 10
67.96794261700377
 20
54.18369164367482
 10
67.22259297968026
 20
54.53165441106307
 10
66.39672860467535
 20
54.856158916878314
 10
65.49014616162684
 20
55.15031501197268
 10
64.50992367308238
 20
55.40521298428786
 10
63.97893839288512
 20
55.51884667578284
 10
63.43485947697761
 20
55.6189338313641
 10
62.87064953681078
 20
55.706086474337354
 10
62.28633544061341
 20
55.77940534100662
 10
61.68194675032816
 20
55.83799159392953
 10
61.05751500074045
 20
55.88094732889948
 10
60.41307302666718
 20
55.907375944816266
 10
59.755455296935125
 20
55.91629020496549
  0
LWPOLYLINE
  5
E4
330
17
100
AcDbEntity
  8
STITCH_LINE
  6
DASHED
100
AcDbPolyline
 90
46
 70
1
 10
11.421559760853434
 20
54.91629020496549
 10
10.78443466797734
 20
54.90765373035612
 10
10.167535768525887
 20
54.88235465809049
 10
9.570863062499068
 20
54.84130851551237
 10
8.99441654989689
 20
54.78543082996549
 10
8.438196230719349
 20
54.71563712879362
 10
7.902202104966446
 20
54.63284293934049
 10
7.386434172638181
 20
54.53796378894987
 10
6.890892433734553
 20
54.43191520496549
 10
5.960487536201213
 20
54.18997184559049
 10
5.110987412366423
 20
53.91433707996549
 10
4.342392062230184
 20
53.61233512684049
 10
3.654701485792497
 20
53.29129020496549
 10
3.047915683053361
 20
52.95852653309049
 10
2.522034654012777
 20
52.62136832996549
 10
2.0770583986707445
 20
52.28713981434049
 10
1.7129869170272627
 20
51.96316520496549
 10
1.4298202090823326
 20
51.65676872059049
 10
1.2275582748359541
 20
51.37527457996549
 10
1.106201114288127
 20
51.12600700184049
 10
1.0758618241511702
 20
51.01574699207487
 10
1.0657487274388513
 20
50.91629020496549
 10
11.421559760853434
 20
45.91629020496549
 10
59.74867791678815
 20
45.91629020496549
 10
70.10448895020272
 20
50.91629020496549
 10
70.0943758534904
 20
51.01574699207487
 10
70.06403656335344
 20
51.12600700184049
 10
69.94267940280562
 20
51.37527457996549
 10
69.74041746855924
 20
51.65676872059049
 10
69.45725076061431
 20
51.96316520496549
 10
69.09317927897082
 20
52.28713981434049
 10
68.6482030236288
 20
52.62136832996549
 10
68.1223219945882
 20
52.95852653309049
 10
67.51553619184908
 20
53.29129020496549
 10
66.82784561541139
 20
53.61233512684049
 10
66.05925026527515
 20
53.91433707996549
 10
65.20975014144037
 20
54.18997184559049
 10
64.27934524390702
 20
54.43191520496549
 10
63.7838035050034
 20
54.53796378894987
 10
63.26803557267514
 20
54.63284293934049
 10
62.73204144692223
 20
54.71563712879362
 10
62.17582112774469
 20
54.78543082996549
 10
61.599374615142516
 20
54.84130851551237
 10
61.00270190911569
 20
54.88235465809049
 10
60.38580300966424
 20
54.90765373035612
 10
59.74867791678815
 20
54.91629020496549
  0
LINE
  5
E5
330
17
100
AcDbEntity
  8
NOTCH
100
AcDbLine
 10
11.421559760853434
 20
54.91629020496549
 30
0.0
 11
11.408005623140067
 21
55.916198343421655
 31
0.0
  0
LINE
  5
E6
330
17
100
AcDbEntity
  8
NOTCH
100
AcDbLine
 10
59.74867791678816
 20
45.91629020496549
 30
0.0
 11
60.18347232483024
 21
45.01576045935167
 31
0.0
  0
LINE
  5
E7
330
17
100
AcDbEntity
  8
GRAINLINE
100
AcDbLine
 10
35.58511883882079
 20
54.19629020496549
 30
0.0
 11
35.58511883882079
 21
46.63629020496549
 31
0.0
  0
LINE
  5
E8
330
17
100
AcDbEntity
  8
GRAINLINE
100
AcDbLine
 10
35.18511883882079
 20
53.79629020496549
 30
0.0
 11
35.58511883882079
 21
54.19629020496549
 31
0.0
  0
LINE
  5
E9
330
17
100
AcDbEntity
  8
GRAINLINE
100
AcDbLine
 10
35.98511883882079
 20
53.79629020496549
 30
0.0
 11
35.58511883882079
 21
54.19629020496549
 31
0.0
  0
LINE
  5
EA
330
17
100
AcDbEntity
  8
GRAINLINE
100
AcDbLine
 10
35.18511883882079
 20
47.036290204965496
 30
0.0
 11
35.58511883882079
 21
46.63629020496549
 31
0.0
  0
LINE
  5
EB
330
17
100
AcDbEntity
  8
GRAINLINE
100
AcDbLine
 10
35.98511883882079
 20
47.036290204965496
 30
0.0
 11
35.58511883882079
 21
46.63629020496549
 31
0.0
  0
TEXT
  5
EC
330
17
100
AcDbEntity
  8
LABEL
100
AcDbText
 10
35.585118838820776
 20
50.41629020496549
 30
0.0
 40
0.9
  1
衿・コンバーチブルカラー（オープンカラー）
 72
1
 11
35.585118838820776
 21
50.41629020496549
 31
0.0
100
AcDbText
 73
2
  0
TEXT
  5
ED
330
17
100
AcDbEntity
  8
LABEL_ID
100
AcDbText
 10
35.585118838820776
 20
49.21629020496549
 30
0.0
 40
0.55
  1
collar(convertible_collar)
 72
1
 11
35.585118838820776
 21
49.21629020496549
 31
0.0
100
AcDbText
 73
2
  0
ENDSEC
  0
SECTION
  2
OBJECTS
  0
DICTIONARY
  5
A
330
0
100
AcDbDictionary
281
1
  3
ACAD_COLOR
350
B
  3
ACAD_GROUP
350
C
  3
ACAD_LAYOUT
350
D
  3
ACAD_MATERIAL
350
E
  3
ACAD_MLEADERSTYLE
350
F
  3
ACAD_MLINESTYLE
350
10
  3
ACAD_PLOTSETTINGS
350
11
  3
ACAD_PLOTSTYLENAME
350
12
  3
ACAD_SCALELIST
350
14
  3
ACAD_TABLESTYLE
350
15
  3
ACAD_VISUALSTYLE
350
16
  3
EZDXF_META
350
2D
  0
DICTIONARY
  5
B
330
A
100
AcDbDictionary
281
1
  0
DICTIONARY
  5
C
330
A
100
AcDbDictionary
281
1
  0
DICTIONARY
  5
D
330
A
100
AcDbDictionary
281
1
  3
Model
350
1A
  3
Layout1
350
1E
  0
DICTIONARY
  5
E
330
A
100
AcDbDictionary
281
1
  3
ByBlock
350
1F
  3
ByLayer
350
20
  3
Global
350
21
  0
DICTIONARY
  5
F
330
A
100
AcDbDictionary
281
1
  3
Standard
350
2C
  0
DICTIONARY
  5
10
330
A
100
AcDbDictionary
281
1
  3
Standard
350
22
  0
DICTIONARY
  5
11
330
A
100
AcDbDictionary
281
1
  0
ACDBDICTIONARYWDFLT
  5
12
330
A
100
AcDbDictionary
281
1
  3
Normal
350
13
100
AcDbDictionaryWithDefault
340
13
  0
ACDBPLACEHOLDER
  5
13
330
12
  0
DICTIONARY
  5
14
330
A
100
AcDbDictionary
281
1
  0
DICTIONARY
  5
15
330
A
100
AcDbDictionary
281
1
  0
DICTIONARY
  5
16
330
A
100
AcDbDictionary
281
1
  0
LAYOUT
  5
1A
330
D
100
AcDbPlotSettings
  1

  4
A3
  6

 40
7.5
 41
20.0
 42
7.5
 43
20.0
 44
420.0
 45
297.0
 46
0.0
 47
0.0
 48
0.0
 49
0.0
140
0.0
141
0.0
142
1.0
143
1.0
 70
1024
 72
1
 73
0
 74
5
  7

 75
16
 76
0
 77
2
 78
300
147
1.0
148
0.0
149
0.0
100
AcDbLayout
  1
Model
 70
1
 71
0
 10
0.0
 20
0.0
 11
420.0
 21
297.0
 12
0.0
 22
0.0
 32
0.0
 14
1e+20
 24
1e+20
 34
1e+20
 15
-1e+20
 25
-1e+20
 35
-1e+20
146
0.0
 13
0.0
 23
0.0
 33
0.0
 16
1.0
 26
0.0
 36
0.0
 17
0.0
 27
1.0
 37
0.0
 76
1
330
17
  0
LAYOUT
  5
1E
330
D
100
AcDbPlotSettings
  1

  4
A3
  6

 40
7.5
 41
20.0
 42
7.5
 43
20.0
 44
420.0
 45
297.0
 46
0.0
 47
0.0
 48
0.0
 49
0.0
140
0.0
141
0.0
142
1.0
143
1.0
 70
0
 72
1
 73
0
 74
5
  7

 75
16
 76
0
 77
2
 78
300
147
1.0
148
0.0
149
0.0
100
AcDbLayout
  1
Layout1
 70
1
 71
1
 10
0.0
 20
0.0
 11
420.0
 21
297.0
 12
0.0
 22
0.0
 32
0.0
 14
1e+20
 24
1e+20
 34
1e+20
 15
-1e+20
 25
-1e+20
 35
-1e+20
146
0.0
 13
0.0
 23
0.0
 33
0.0
 16
1.0
 26
0.0
 36
0.0
 17
0.0
 27
1.0
 37
0.0
 76
1
330
1B
  0
MATERIAL
  5
1F
102
{ACAD_REACTORS
330
E
102
}
330
E
100
AcDbMaterial
  1
ByBlock
  2

 70
0
 40
1.0
 71
1
 41
1.0
 91
-1023410177
 42
1.0
 72
1
  3

 73
1
 74
1
 75
1
 44
0.5
 73
0
 45
1.0
 46
1.0
 77
1
  4

 78
1
 79
1
170
1
 48
1.0
171
1
  6

172
1
173
1
174
1
140
1.0
141
1.0
175
1
  7

176
1
177
1
178
1
143
1.0
179
1
  8

270
1
271
1
272
1
145
1.0
146
1.0
273
1
  9

274
1
275
1
276
1
 42
1.0
 72
1
  3

 73
1
 74
1
 75
1
 94
63
  0
MATERIAL
  5
20
102
{ACAD_REACTORS
330
E
102
}
330
E
100
AcDbMaterial
  1
ByLayer
  2

 70
0
 40
1.0
 71
1
 41
1.0
 91
-1023410177
 42
1.0
 72
1
  3

 73
1
 74
1
 75
1
 44
0.5
 73
0
 45
1.0
 46
1.0
 77
1
  4

 78
1
 79
1
170
1
 48
1.0
171
1
  6

172
1
173
1
174
1
140
1.0
141
1.0
175
1
  7

176
1
177
1
178
1
143
1.0
179
1
  8

270
1
271
1
272
1
145
1.0
146
1.0
273
1
  9

274
1
275
1
276
1
 42
1.0
 72
1
  3

 73
1
 74
1
 75
1
 94
63
  0
MATERIAL
  5
21
102
{ACAD_REACTORS
330
E
102
}
330
E
100
AcDbMaterial
  1
Global
  2

 70
0
 40
1.0
 71
1
 41
1.0
 91
-1023410177
 42
1.0
 72
1
  3

 73
1
 74
1
 75
1
 44
0.5
 73
0
 45
1.0
 46
1.0
 77
1
  4

 78
1
 79
1
170
1
 48
1.0
171
1
  6

172
1
173
1
174
1
140
1.0
141
1.0
175
1
  7

176
1
177
1
178
1
143
1.0
179
1
  8

270
1
271
1
272
1
145
1.0
146
1.0
273
1
  9

274
1
275
1
276
1
 42
1.0
 72
1
  3

 73
1
 74
1
 75
1
 94
63
  0
MLINESTYLE
  5
22
102
{ACAD_REACTORS
330
10
102
}
330
10
100
AcDbMlineStyle
  2
Standard
 70
0
  3

 62
256
 51
90.0
 52
90.0
 71
2
 49
0.5
 62
256
  6
BYLAYER
 49
-0.5
 62
256
  6
BYLAYER
  0
MLEADERSTYLE
  5
2C
102
{ACAD_REACTORS
330
F
102
}
330
F
100
AcDbMLeaderStyle
179
2
170
2
171
1
172
0
 90
2
 40
0.0
 41
0.0
173
1
 91
-1056964608
 92
-2
290
1
 42
2.0
291
1
 43
8.0
  3
Standard
 44
4.0
300

342
29
174
1
175
1
176
0
178
1
 93
-1056964608
 45
4.0
292
0
297
0
 46
4.0
 94
-1056964608
 47
1.0
 49
1.0
140
1.0
294
1
141
0.0
177
0
142
1.0
295
0
296
0
143
3.75
271
0
272
9
273
9
  0
DICTIONARY
  5
2D
330
A
100
AcDbDictionary
280
1
281
1
  3
CREATED_BY_EZDXF
350
2E
  3
WRITTEN_BY_EZDXF
350
F0
  0
DICTIONARYVAR
  5
2E
330
2D
100
DictionaryVariables
280
0
  1
1.4.4 @ 2026-10-10T00:37:42.209321+00:00
  0
DICTIONARYVAR
  5
F0
330
2D
100
DictionaryVariables
280
0
  1
1.4.4 @ 2026-10-10T00:37:42.216155+00:00
  0
ENDSEC
  0
EOF
