  0
SECTION
  2
HEADER
  9
$ACADVER
  1
AC1024
  9
$ACADMAINTVER
 70
6
  9
$DWGCODEPAGE
  3
ANSI_1252
  9
$LASTSAVEDBY
  1
ezdxf
  9
$INSBASE
 10
0.0
 20
0.0
 30
0.0
  9
$EXTMIN
 10
1e+20
 20
1e+20
 30
1e+20
  9
$EXTMAX
 10
-1e+20
 20
-1e+20
 30
-1e+20
  9
$LIMMIN
 10
0.0
 20
0.0
  9
$LIMMAX
 10
420.0
 20
297.0
  9
$ORTHOMODE
 70
0
  9
$REGENMODE
 70
1
  9
$FILLMODE
 70
1
  9
$QTEXTMODE
 70
0
  9
$MIRRTEXT
 70
1
  9
$LTSCALE
 40
1.0
  9
$ATTMODE
 70
1
  9
$TEXTSIZE
 40
2.5
  9
$TRACEWID
 40
1.0
  9
$TEXTSTYLE
  7
Standard
  9
$CLAYER
  8
0
  9
$CELTYPE
  6
ByLayer
  9
$CECOLOR
 62
256
  9
$CELTSCALE
 40
1.0
  9
$DISPSILH
 70
0
  9
$DIMSCALE
 40
1.0
  9
$DIMASZ
 40
2.5
  9
$DIMEXO
 40
0.625
  9
$DIMDLI
 40
3.75
  9
$DIMRND
 40
0.0
  9
$DIMDLE
 40
0.0
  9
$DIMEXE
 40
1.25
  9
$DIMTP
 40
0.0
  9
$DIMTM
 40
0.0
  9
$DIMTXT
 40
2.5
  9
$DIMCEN
 40
2.5
  9
$DIMTSZ
 40
0.0
  9
$DIMTOL
 70
0
  9
$DIMLIM
 70
0
  9
$DIMTIH
 70
0
  9
$DIMTOH
 70
0
  9
$DIMSE1
 70
0
  9
$DIMSE2
 70
0
  9
$DIMTAD
 70
1
  9
$DIMZIN
 70
8
  9
$DIMBLK
  1

  9
$DIMASO
 70
1
  9
$DIMSHO
 70
1
  9
$DIMPOST
  1

  9
$DIMAPOST
  1

  9
$DIMALT
 70
0
  9
$DIMALTD
 70
3
  9
$DIMALTF
 40
0.03937007874
  9
$DIMLFAC
 40
1.0
  9
$DIMTOFL
 70
1
  9
$DIMTVP
 40
0.0
  9
$DIMTIX
 70
0
  9
$DIMSOXD
 70
0
  9
$DIMSAH
 70
0
  9
$DIMBLK1
  1

  9
$DIMBLK2
  1

  9
$DIMSTYLE
  2
ISO-25
  9
$DIMCLRD
 70
0
  9
$DIMCLRE
 70
0
  9
$DIMCLRT
 70
0
  9
$DIMTFAC
 40
1.0
  9
$DIMGAP
 40
0.625
  9
$DIMJUST
 70
0
  9
$DIMSD1
 70
0
  9
$DIMSD2
 70
0
  9
$DIMTOLJ
 70
0
  9
$DIMTZIN
 70
8
  9
$DIMALTZ
 70
0
  9
$DIMALTTZ
 70
0
  9
$DIMUPT
 70
0
  9
$DIMDEC
 70
2
  9
$DIMTDEC
 70
2
  9
$DIMALTU
 70
2
  9
$DIMALTTD
 70
3
  9
$DIMTXSTY
  7
Standard
  9
$DIMAUNIT
 70
0
  9
$DIMADEC
 70
0
  9
$DIMALTRND
 40
0.0
  9
$DIMAZIN
 70
0
  9
$DIMDSEP
 70
44
  9
$DIMATFIT
 70
3
  9
$DIMFRAC
 70
0
  9
$DIMLDRBLK
  1

  9
$DIMLUNIT
 70
2
  9
$DIMLWD
 70
-2
  9
$DIMLWE
 70
-2
  9
$DIMTMOVE
 70
0
  9
$DIMFXL
 40
1.0
  9
$DIMFXLON
 70
0
  9
$DIMJOGANG
 40
0.785398163397
  9
$DIMTFILL
 70
0
  9
$DIMTFILLCLR
 70
0
  9
$DIMARCSYM
 70
0
  9
$DIMLTYPE
  6

  9
$DIMLTEX1
  6

  9
$DIMLTEX2
  6

  9
$DIMTXTDIRECTION
 70
0
  9
$LUNITS
 70
2
  9
$LUPREC
 70
4
  9
$SKETCHINC
 40
1.0
  9
$FILLETRAD
 40
10.0
  9
$AUNITS
 70
0
  9
$AUPREC
 70
2
  9
$MENU
  1
.
  9
$ELEVATION
 40
0.0
  9
$PELEVATION
 40
0.0
  9
$THICKNESS
 40
0.0
  9
$LIMCHECK
 70
0
  9
$CHAMFERA
 40
0.0
  9
$CHAMFERB
 40
0.0
  9
$CHAMFERC
 40
0.0
  9
$CHAMFERD
 40
0.0
  9
$SKPOLY
 70
0
  9
$TDCREATE
 40
2461324.4011921296
  9
$TDUCREATE
 40
2458532.153996898
  9
$TDUPDATE
 40
2461324.4011921296
  9
$TDUUPDATE
 40
2458532.1544311
  9
$TDINDWG
 40
0.0
  9
$TDUSRTIMER
 40
0.0
  9
$USRTIMER
 70
1
  9
$ANGBASE
 50
0.0
  9
$ANGDIR
 70
0
  9
$PDMODE
 70
0
  9
$PDSIZE
 40
0.0
  9
$PLINEWID
 40
0.0
  9
$SPLFRAME
 70
0
  9
$SPLINETYPE
 70
6
  9
$SPLINESEGS
 70
8
  9
$HANDSEED
  5
DA
  9
$SURFTAB1
 70
6
  9
$SURFTAB2
 70
6
  9
$SURFTYPE
 70
6
  9
$SURFU
 70
6
  9
$SURFV
 70
6
  9
$UCSBASE
  2

  9
$UCSNAME
  2

  9
$UCSORG
 10
0.0
 20
0.0
 30
0.0
  9
$UCSXDIR
 10
1.0
 20
0.0
 30
0.0
  9
$UCSYDIR
 10
0.0
 20
1.0
 30
0.0
  9
$UCSORTHOREF
  2

  9
$UCSORTHOVIEW
 70
0
  9
$UCSORGTOP
 10
0.0
 20
0.0
 30
0.0
  9
$UCSORGBOTTOM
 10
0.0
 20
0.0
 30
0.0
  9
$UCSORGLEFT
 10
0.0
 20
0.0
 30
0.0
  9
$UCSORGRIGHT
 10
0.0
 20
0.0
 30
0.0
  9
$UCSORGFRONT
 10
0.0
 20
0.0
 30
0.0
  9
$UCSORGBACK
 10
0.0
 20
0.0
 30
0.0
  9
$PUCSBASE
  2

  9
$PUCSNAME
  2

  9
$PUCSORG
 10
0.0
 20
0.0
 30
0.0
  9
$PUCSXDIR
 10
1.0
 20
0.0
 30
0.0
  9
$PUCSYDIR
 10
0.0
 20
1.0
 30
0.0
  9
$PUCSORTHOREF
  2

  9
$PUCSORTHOVIEW
 70
0
  9
$PUCSORGTOP
 10
0.0
 20
0.0
 30
0.0
  9
$PUCSORGBOTTOM
 10
0.0
 20
0.0
 30
0.0
  9
$PUCSORGLEFT
 10
0.0
 20
0.0
 30
0.0
  9
$PUCSORGRIGHT
 10
0.0
 20
0.0
 30
0.0
  9
$PUCSORGFRONT
 10
0.0
 20
0.0
 30
0.0
  9
$PUCSORGBACK
 10
0.0
 20
0.0
 30
0.0
  9
$USERI1
 70
0
  9
$USERI2
 70
0
  9
$USERI3
 70
0
  9
$USERI4
 70
0
  9
$USERI5
 70
0
  9
$USERR1
 40
0.0
  9
$USERR2
 40
0.0
  9
$USERR3
 40
0.0
  9
$USERR4
 40
0.0
  9
$USERR5
 40
0.0
  9
$WORLDVIEW
 70
1
  9
$SHADEDGE
 70
3
  9
$SHADEDIF
 70
70
  9
$TILEMODE
 70
1
  9
$MAXACTVP
 70
64
  9
$PINSBASE
 10
0.0
 20
0.0
 30
0.0
  9
$PLIMCHECK
 70
0
  9
$PEXTMIN
 10
1e+20
 20
1e+20
 30
1e+20
  9
$PEXTMAX
 10
-1e+20
 20
-1e+20
 30
-1e+20
  9
$PLIMMIN
 10
0.0
 20
0.0
  9
$PLIMMAX
 10
420.0
 20
297.0
  9
$UNITMODE
 70
0
  9
$VISRETAIN
 70
1
  9
$PLINEGEN
 70
0
  9
$PSLTSCALE
 70
1
  9
$TREEDEPTH
 70
3020
  9
$CMLSTYLE
  2
Standard
  9
$CMLJUST
 70
0
  9
$CMLSCALE
 40
20.0
  9
$PROXYGRAPHICS
 70
1
  9
$MEASUREMENT
 70
1
  9
$CELWEIGHT
370
-1
  9
$ENDCAPS
280
0
  9
$JOINSTYLE
280
0
  9
$LWDISPLAY
290
0
  9
$INSUNITS
 70
5
  9
$HYPERLINKBASE
  1

  9
$STYLESHEET
  1

  9
$XEDIT
290
1
  9
$CEPSNTYPE
380
0
  9
$PSTYLEMODE
290
1
  9
$FINGERPRINTGUID
  2
{435D956D-BF9A-401C-878F-B37568E7E87B}
  9
$VERSIONGUID
  2
{156C900F-B553-4B0F-995B-47D6CD11095E}
  9
$EXTNAMES
290
1
  9
$PSVPSCALE
 40
0.0
  9
$OLESTARTUP
290
0
  9
$SORTENTS
280
127
  9
$INDEXCTL
280
0
  9
$HIDETEXT
280
1
  9
$XCLIPFRAME
280
1
  9
$HALOGAP
280
0
  9
$OBSCOLOR
 70
257
  9
$OBSLTYPE
280
0
  9
$INTERSECTIONDISPLAY
280
0
  9
$INTERSECTIONCOLOR
 70
257
  9
$DIMASSOC
280
2
  9
$PROJECTNAME
  1

  9
$CAMERADISPLAY
290
0
  9
$LENSLENGTH
 40
50.0
  9
$CAMERAHEIGHT
 40
0.0
  9
$STEPSPERSEC
 40
24.0
  9
$STEPSIZE
 40
100.0
  9
$3DDWFPREC
 40
2.0
  9
$PSOLWIDTH
 40
0.005
  9
$PSOLHEIGHT
 40
0.08
  9
$LOFTANG1
 40
1.570796326795
  9
$LOFTANG2
 40
1.570796326795
  9
$LOFTMAG1
 40
0.0
  9
$LOFTMAG2
 40
0.0
  9
$LOFTPARAM
 70
7
  9
$LOFTNORMALS
280
1
  9
$LATITUDE
 40
37.795
  9
$LONGITUDE
 40
-122.394
  9
$NORTHDIRECTION
 40
0.0
  9
$TIMEZONE
 70
-8000
  9
$LIGHTGLYPHDISPLAY
280
1
  9
$TILEMODELIGHTSYNCH
280
1
  9
$CMATERIAL
347
20
  9
$SOLIDHIST
280
0
  9
$SHOWHIST
280
1
  9
$DWFFRAME
280
2
  9
$DGNFRAME
280
2
  9
$REALWORLDSCALE
290
1
  9
$INTERFERECOLOR
 62
256
  9
$CSHADOW
280
0
  9
$SHADOWPLANELOCATION
 40
0.0
  0
ENDSEC
  0
SECTION
  2
CLASSES
  0
CLASS
  1
ACDBDICTIONARYWDFLT
  2
AcDbDictionaryWithDefault
  3
ObjectDBX Classes
 90
0
 91
0
280
0
281
0
  0
CLASS
  1
SUN
  2
AcDbSun
  3
SCENEOE
 90
1153
 91
0
280
0
281
0
  0
CLASS
  1
VISUALSTYLE
  2
AcDbVisualStyle
  3
ObjectDBX Classes
 90
4095
 91
0
280
0
281
0
  0
CLASS
  1
MATERIAL
  2
AcDbMaterial
  3
ObjectDBX Classes
 90
1153
 91
0
280
0
281
0
  0
CLASS
  1
SCALE
  2
AcDbScale
  3
ObjectDBX Classes
 90
1153
 91
0
280
0
281
0
  0
CLASS
  1
TABLESTYLE
  2
AcDbTableStyle
  3
ObjectDBX Classes
 90
4095
 91
0
280
0
281
0
  0
CLASS
  1
MLEADERSTYLE
  2
AcDbMLeaderStyle
  3
ACDB_MLEADERSTYLE_CLASS
 90
4095
 91
0
280
0
281
0
  0
CLASS
  1
DICTIONARYVAR
  2
AcDbDictionaryVar
  3
ObjectDBX Classes
 90
0
 91
0
280
0
281
0
  0
CLASS
  1
CELLSTYLEMAP
  2
AcDbCellStyleMap
  3
ObjectDBX Classes
 90
1152
 91
0
280
0
281
0
  0
CLASS
  1
MENTALRAYRENDERSETTINGS
  2
AcDbMentalRayRenderSettings
  3
SCENEOE
 90
1024
 91
0
280
0
281
0
  0
CLASS
  1
ACDBDETAILVIEWSTYLE
  2
AcDbDetailViewStyle
  3
ObjectDBX Classes
 90
1025
 91
0
280
0
281
0
  0
CLASS
  1
ACDBSECTIONVIEWSTYLE
  2
AcDbSectionViewStyle
  3
ObjectDBX Classes
 90
1025
 91
0
280
0
281
0
  0
CLASS
  1
RASTERVARIABLES
  2
AcDbRasterVariables
  3
ISM
 90
0
 91
0
280
0
281
0
  0
CLASS
  1
ACDBPLACEHOLDER
  2
AcDbPlaceHolder
  3
ObjectDBX Classes
 90
0
 91
0
280
0
281
0
  0
CLASS
  1
LAYOUT
  2
AcDbLayout
  3
ObjectDBX Classes
 90
0
 91
0
280
0
281
0
  0
ENDSEC
  0
SECTION
  2
TABLES
  0
TABLE
  2
VPORT
  5
8
330
0
100
AcDbSymbolTable
 70
1
  0
VPORT
  5
23
330
8
100
AcDbSymbolTableRecord
100
AcDbViewportTableRecord
  2
*Active
 70
0
 10
0.0
 20
0.0
 11
1.0
 21
1.0
 12
0.0
 22
0.0
 13
0.0
 23
0.0
 14
0.5
 24
0.5
 15
0.5
 25
0.5
 16
0.0
 26
0.0
 36
1.0
 17
0.0
 27
0.0
 37
0.0
 40
1000.0
 41
1.34
 42
50.0
 43
0.0
 44
0.0
 50
0.0
 51
0.0
 71
0
 72
1000
 73
1
 74
3
 75
0
 76
0
 77
0
 78
0
281
0
 65
0
146
0.0
  0
ENDTAB
  0
TABLE
  2
LTYPE
  5
2
330
0
100
AcDbSymbolTable
 70
4
  0
LTYPE
  5
24
330
2
100
AcDbSymbolTableRecord
100
AcDbLinetypeTableRecord
  2
ByBlock
 70
0
  3

 72
65
 73
0
 40
0.0
  0
LTYPE
  5
25
330
2
100
AcDbSymbolTableRecord
100
AcDbLinetypeTableRecord
  2
ByLayer
 70
0
  3

 72
65
 73
0
 40
0.0
  0
LTYPE
  5
26
330
2
100
AcDbSymbolTableRecord
100
AcDbLinetypeTableRecord
  2
Continuous
 70
0
  3

 72
65
 73
0
 40
0.0
  0
LTYPE
  5
2F
330
2
100
AcDbSymbolTableRecord
100
AcDbLinetypeTableRecord
  2
DASHED
 70
0
  3
Dashed
 72
65
 73
2
 40
0.6
 49
0.5
 74
0
 49
-0.1
 74
0
  0
ENDTAB
  0
TABLE
  2
LAYER
  5
1
330
0
100
AcDbSymbolTable
 70
10
  0
LAYER
  5
27
330
1
100
AcDbSymbolTableRecord
100
AcDbLayerTableRecord
  2
0
 70
0
 62
7
  6
Continuous
370
-3
390
13
347
21
  0
LAYER
  5
28
330
1
100
AcDbSymbolTableRecord
100
AcDbLayerTableRecord
  2
Defpoints
 70
0
 62
7
  6
Continuous
290
0
370
-3
390
13
347
21
  0
LAYER
  5
30
330
1
100
AcDbSymbolTableRecord
100
AcDbLayerTableRecord
  2
CUT_LINE
 70
0
 62
7
  6
Continuous
370
-3
390
13
347
21
  0
LAYER
  5
31
330
1
100
AcDbSymbolTableRecord
100
AcDbLayerTableRecord
  2
STITCH_LINE
 70
0
 62
3
  6
Continuous
370
-3
390
13
347
21
  0
LAYER
  5
32
330
1
100
AcDbSymbolTableRecord
100
AcDbLayerTableRecord
  2
NOTCH
 70
0
 62
1
  6
Continuous
370
-3
390
13
347
21
  0
LAYER
  5
33
330
1
100
AcDbSymbolTableRecord
100
AcDbLayerTableRecord
  2
GRAINLINE
 70
0
 62
5
  6
Continuous
370
-3
390
13
347
21
  0
LAYER
  5
34
330
1
100
AcDbSymbolTableRecord
100
AcDbLayerTableRecord
  2
LABEL
 70
0
 62
8
  6
Continuous
370
-3
390
13
347
21
  0
LAYER
  5
35
330
1
100
AcDbSymbolTableRecord
100
AcDbLayerTableRecord
  2
LABEL_ID
 70
0
 62
8
  6
Continuous
370
-3
390
13
347
21
  0
LAYER
  5
36
330
1
100
AcDbSymbolTableRecord
100
AcDbLayerTableRecord
  2
WARNING
 70
0
 62
1
  6
Continuous
370
-3
390
13
347
21
  0
LAYER
  5
37
330
1
100
AcDbSymbolTableRecord
100
AcDbLayerTableRecord
  2
REFERENCE_LINE
 70
0
 62
6
  6
Continuous
370
-3
390
13
347
21
  0
ENDTAB
  0
TABLE
  2
STYLE
  5
5
330
0
100
AcDbSymbolTable
 70
1
  0
STYLE
  5
29
330
5
100
AcDbSymbolTableRecord
100
AcDbTextStyleTableRecord
  2
Standard
 70
0
 40
0.0
 41
1.0
 50
0.0
 71
0
 42
2.5
  3
txt
  4

  0
ENDTAB
  0
TABLE
  2
VIEW
  5
7
330
0
100
AcDbSymbolTable
 70
0
  0
ENDTAB
  0
TABLE
  2
UCS
  5
6
330
0
100
AcDbSymbolTable
 70
0
  0
ENDTAB
  0
TABLE
  2
APPID
  5
3
330
0
100
AcDbSymbolTable
 70
3
  0
APPID
  5
2A
330
3
100
AcDbSymbolTableRecord
100
AcDbRegAppTableRecord
  2
ACAD
 70
0
  0
APPID
  5
D7
330
3
100
AcDbSymbolTableRecord
100
AcDbRegAppTableRecord
  2
HATCHBACKGROUNDCOLOR
 70
0
  0
APPID
  5
D8
330
3
100
AcDbSymbolTableRecord
100
AcDbRegAppTableRecord
  2
EZDXF
 70
0
  0
ENDTAB
  0
TABLE
  2
DIMSTYLE
  5
4
330
0
100
AcDbSymbolTable
 70
1
100
AcDbDimStyleTable
  0
DIMSTYLE
105
2B
330
4
100
AcDbSymbolTableRecord
100
AcDbDimStyleTableRecord
  2
Standard
 70
0
 40
1.0
 41
2.5
 42
0.625
 43
3.75
 44
1.25
 45
0.0
 46
0.0
 47
0.0
 48
0.0
 49
2.5
140
2.5
141
2.5
142
0.0
143
0.03937007874
144
1.0
145
0.0
146
1.0
147
0.625
148
0.0
 69
0
 70
0
 71
0
 72
0
 73
0
 74
0
 75
0
 76
0
 77
1
 78
8
 79
3
170
0
171
3
172
1
173
0
174
0
175
0
176
0
177
0
178
0
179
2
271
2
272
2
273
2
274
3
275
0
276
0
277
2
278
44
279
0
280
0
281
0
282
0
283
0
284
8
285
0
286
0
288
0
289
3
290
0
371
-2
372
-2
  0
ENDTAB
  0
TABLE
  2
BLOCK_RECORD
  5
9
330
0
100
AcDbSymbolTable
 70
2
  0
BLOCK_RECORD
  5
17
330
9
100
AcDbSymbolTableRecord
100
AcDbBlockTableRecord
  2
*Model_Space
340
1A
 70
0
280
1
281
0
  0
BLOCK_RECORD
  5
1B
330
9
100
AcDbSymbolTableRecord
100
AcDbBlockTableRecord
  2
*Paper_Space
340
1E
 70
0
280
1
281
0
  0
ENDTAB
  0
ENDSEC
  0
SECTION
  2
BLOCKS
  0
BLOCK
  5
18
330
17
100
AcDbEntity
  8
0
100
AcDbBlockBegin
  2
*Model_Space
 70
0
 10
0.0
 20
0.0
 30
0.0
  3
*Model_Space
  1

  0
ENDBLK
  5
19
330
17
100
AcDbEntity
  8
0
100
AcDbBlockEnd
  0
BLOCK
  5
1C
330
1B
100
AcDbEntity
  8
0
100
AcDbBlockBegin
  2
*Paper_Space
 70
0
 10
0.0
 20
0.0
 30
0.0
  3
*Paper_Space
  1

  0
ENDBLK
  5
1D
330
1B
100
AcDbEntity
  8
0
100
AcDbBlockEnd
  0
ENDSEC
  0
SECTION
  2
ENTITIES
  0
LWPOLYLINE
  5
38
330
17
100
AcDbEntity
  8
CUT_LINE
100
AcDbPolyline
 90
51
 70
1
 10
113.85766405364292
 20
63.8342879302848
 10
112.75856703710738
 20
84.88642555750084
 10
112.35526973303656
 20
92.6111943652136
 10
106.09637663545212
 20
96.95176301824681
 10
114.13290743229034
 20
93.09367165755668
 10
114.7331337431311
 20
93.75377210432302
 10
112.2269266120457
 20
97.91097966578863
 10
106.07412036967779
 20
100.37368743365916
 10
113.62883941848402
 20
98.83789970835929
 10
112.76469842378646
 20
104.90652421445999
 10
112.26475943391549
 20
105.71689620021553
 10
111.87339768897468
 20
106.36552214887185
 10
111.48251598827741
 20
107.0312082750021
 10
111.09691837884725
 20
107.71289888532104
 10
110.7166436219322
 20
108.41429120730955
 10
110.34533188373187
 20
109.13071773714918
 10
109.98786778184602
 20
109.86191985795944
 10
109.64474638722517
 20
110.60970132807418
 10
109.31331457751882
 20
111.38809636092293
 10
109.00414239306158
 20
112.10557212866334
 10
108.72524626524496
 20
112.81809442781129
 10
108.47346063548044
 20
113.5414174302654
 10
108.25058577151829
 20
114.26501418025634
 10
108.0611548876453
 20
114.9988980513705
 10
107.90519210698827
 20
115.74441625198008
 10
107.78715376969846
 20
116.50187203427853
 10
107.70770289259372
 20
117.2717474150152
 10
107.67133935619239
 20
118.05309943165247
 10
107.67972859932222
 20
118.84771082853361
 10
107.73560120993677
 20
119.65420711881013
 10
107.84276196463397
 20
120.47411784411102
 10
108.00339932872242
 20
121.30888128783559
 10
108.22052141355758
 20
122.1585431837228
 10
108.78993943652216
 20
123.93456860188792
 10
95.20860694728188
 20
129.42178310932806
 10
94.65365345408527
 20
127.09097843790236
 10
94.31139668001472
 20
126.03909688498443
 10
93.91298045416436
 20
125.09688391669167
 10
93.46769133153305
 20
124.26616123577459
 10
92.98078135966644
 20
123.54428369950263
 10
92.46242316941499
 20
122.92840388362761
 10
91.9205020106016
 20
122.41836044003853
 10
91.36101728717789
 20
122.00846604296828
 10
90.79123290210765
 20
121.69624407614927
 10
90.21444250961814
 20
121.47709631403109
 10
89.63470173136857
 20
121.34683555664353
 10
89.01705675576545
 20
121.30102123153011
 10
84.07196011124529
 20
121.30102123153011
 10
83.77044651725026
 20
104.57704712670807
 10
83.41483276778222
 20
84.85231412670805
 10
83.03590246225525
 20
63.8342879302848
  0
LWPOLYLINE
  5
39
330
17
100
AcDbEntity
  8
STITCH_LINE
  6
DASHED
100
AcDbPolyline
 90
51
 70
1
 10
112.80409379280249
 20
64.8342879302848
 10
111.75992711238945
 20
84.83428823153011
 10
111.38221108308174
 20
92.06907252569181
 10
95.19747698127966
 20
103.29325360765854
 10
112.95329107355339
 20
94.7692331461962
 10
111.5437756385688
 20
97.10728739224835
 10
95.42482366289286
 20
103.55902123153011
 10
112.43900223434177
 20
100.10023389115638
 10
111.80409379280249
 20
104.55902123153011
 10
111.41109379280249
 20
105.19605134291254
 10
111.0140937928025
 20
105.8540218904823
 10
110.61609379280249
 20
106.53183074601898
 10
110.2220937928025
 20
107.2283757813022
 10
109.8330937928025
 20
107.94586125277273
 10
109.4520937928025
 20
108.68098077576943
 10
109.08409379280249
 20
109.43373435029227
 10
108.73009379280249
 20
110.20522410456167
 10
108.3940937928025
 20
110.9943479103572
 10
108.0790937928025
 20
111.72534791035721
 10
107.7870937928025
 20
112.47134791035721
 10
107.5230937928025
 20
113.22976002794495
 10
107.2880937928025
 20
113.99272285481968
 10
107.08709379280249
 20
114.77142723014657
 10
106.9210937928025
 20
115.56492437593894
 10
106.79509379280249
 20
116.37347040226327
 10
106.7100937928025
 20
117.19711653113285
 10
106.6710937928025
 20
118.03511887261419
 10
106.6800937928025
 20
118.88757987073387
 10
106.7400937928025
 20
119.75365319153181
 10
106.85509379280249
 20
120.6335437230612
 10
107.02709379280249
 20
121.52735390934863
 10
107.25909379280249
 20
122.435237416434
 10
107.55409379280249
 20
123.35534791035721
 10
95.9120937928025
 20
128.0590212315301
 10
95.61709379280249
 20
126.8200212315301
 10
95.2490937928025
 20
125.6890212315301
 10
94.81609379280249
 20
124.6650212315301
 10
94.32509379280249
 20
123.74902123153011
 10
93.78009379280249
 20
122.9410212315301
 10
93.19009379280249
 20
122.24002123153011
 10
92.5610937928025
 20
121.64802123153011
 10
91.89909379280249
 20
121.16302123153011
 10
91.2110937928025
 20
120.7860212315301
 10
90.5030937928025
 20
120.51702123153011
 10
89.7820937928025
 20
120.3550212315301
 10
89.05409379280249
 20
120.30102123153011
 10
85.05409379280249
 20
120.30102123153011
 10
84.77028403760195
 20
104.55902123153011
 10
84.4146702881339
 20
84.83428823153011
 10
84.05409379280249
 20
64.8342879302848
 10
88.05409379280249
 20
64.8342879302848
  0
LWPOLYLINE
  5
3A
330
17
100
AcDbEntity
  8
STITCH_LINE
  6
DASHED
100
AcDbPolyline
 90
4
 70
1
 10
99.271718793694
 20
96.8342879302848
 10
101.13092291418974
 20
84.8342879302848
 10
99.271718793694
 20
72.8342879302848
 10
97.41251467319829
 20
84.8342879302848
  0
LWPOLYLINE
  5
3B
330
17
100
AcDbEntity
  8
REFERENCE_LINE
  6
DASHED
100
AcDbPolyline
 90
2
 70
0
 10
85.17028403760196
 20
104.55902123153011
 10
111.4040937928025
 20
104.55902123153011
  0
LWPOLYLINE
  5
3C
330
17
100
AcDbEntity
  8
REFERENCE_LINE
  6
DASHED
100
AcDbPolyline
 90
2
 70
0
 10
84.8146702827028
 20
84.8342879302848
 10
111.35992712811696
 20
84.8342879302848
  0
LWPOLYLINE
  5
3D
330
17
100
AcDbEntity
  8
REFERENCE_LINE
  6
DASHED
100
AcDbPolyline
 90
2
 70
0
 10
84.45411182162698
 20
64.8352879302848
 10
112.40404158446925
 20
64.8352879302848
  0
LWPOLYLINE
  5
3E
330
17
100
AcDbEntity
  8
REFERENCE_LINE
  6
DASHED
100
AcDbPolyline
 90
2
 70
0
 10
89.05409379280249
 20
119.90102123153011
 10
89.05409379280249
 20
65.23428793028481
  0
LWPOLYLINE
  5
3F
330
17
100
AcDbEntity
  8
REFERENCE_LINE
  6
DASHED
100
AcDbPolyline
 90
2
 70
0
 10
88.51619243317795
 20
104.55902123153011
 10
90.51619243317795
 20
104.55902123153011
  0
LWPOLYLINE
  5
40
330
17
100
AcDbEntity
  8
REFERENCE_LINE
  6
DASHED
100
AcDbPolyline
 90
2
 70
0
 10
89.51619243317795
 20
105.55902123153011
 10
89.51619243317795
 20
103.55902123153011
  0
LWPOLYLINE
  5
41
330
17
100
AcDbEntity
  8
REFERENCE_LINE
  6
DASHED
100
AcDbPolyline
 90
2
 70
0
 10
106.49119243317794
 20
104.55902123153011
 10
108.49119243317794
 20
104.55902123153011
  0
LWPOLYLINE
  5
42
330
17
100
AcDbEntity
  8
REFERENCE_LINE
  6
DASHED
100
AcDbPolyline
 90
2
 70
0
 10
107.49119243317794
 20
105.55902123153011
 10
107.49119243317794
 20
103.55902123153011
  0
LINE
  5
43
330
17
100
AcDbEntity
  8
NOTCH
100
AcDbLine
 10
111.90551878642223
 20
82.04562088642513
 30
0.0
 11
112.90415871114017
 21
82.09775821239583
 31
0.0
  0
LINE
  5
44
330
17
100
AcDbEntity
  8
NOTCH
100
AcDbLine
 10
107.74879607907579
 20
112.58136855492629
 30
0.0
 11
108.6932138398193
 21
112.91011632023007
 31
0.0
  0
LINE
  5
45
330
17
100
AcDbEntity
  8
GRAINLINE
100
AcDbLine
 10
94.60230080027657
 20
119.51162238278395
 30
0.0
 11
94.60230080027657
 21
69.58883875224126
 31
0.0
  0
LINE
  5
46
330
17
100
AcDbEntity
  8
GRAINLINE
100
AcDbLine
 10
93.10230080027657
 20
118.01162238278395
 30
0.0
 11
94.60230080027657
 21
119.51162238278395
 31
0.0
  0
LINE
  5
47
330
17
100
AcDbEntity
  8
GRAINLINE
100
AcDbLine
 10
96.10230080027657
 20
118.01162238278395
 30
0.0
 11
94.60230080027657
 21
119.51162238278395
 31
0.0
  0
LINE
  5
48
330
17
100
AcDbEntity
  8
GRAINLINE
100
AcDbLine
 10
93.10230080027657
 20
71.08883875224126
 30
0.0
 11
94.60230080027657
 21
69.58883875224126
 31
0.0
  0
LINE
  5
49
330
17
100
AcDbEntity
  8
GRAINLINE
100
AcDbLine
 10
96.10230080027657
 20
71.08883875224126
 30
0.0
 11
94.60230080027657
 21
69.58883875224126
 31
0.0
  0
TEXT
  5
4A
330
17
100
AcDbEntity
  8
LABEL
100
AcDbText
 10
98.88451810269318
 20
96.62803551980643
 30
0.0
 40
0.9
  1
前身頃・ファスナーパネル（ラウンドネック） 左 [ダーツ2本]
 72
1
 11
98.88451810269318
 21
96.62803551980643
 31
0.0
100
AcDbText
 73
2
  0
TEXT
  5
4B
330
17
100
AcDbEntity
  8
LABEL_ID
100
AcDbText
 10
98.88451810269318
 20
95.42803551980643
 30
0.0
 40
0.55
  1
front_bodice_zip_panel(round_neck) 左 [ダーツ2本]
 72
1
 11
98.88451810269318
 21
95.42803551980643
 31
0.0
100
AcDbText
 73
2
  0
LWPOLYLINE
  5
4C
330
17
100
AcDbEntity
  8
CUT_LINE
100
AcDbPolyline
 90
51
 70
1
 10
145.16971363596144
 20
63.8342879302848
 10
144.0706166194259
 20
84.88642555750084
 10
143.66731931535506
 20
92.6111943652136
 10
137.40842621777063
 20
96.95176301824681
 10
145.44495701460883
 20
93.09367165755668
 10
146.0451833254496
 20
93.75377210432302
 10
143.5389761943642
 20
97.91097966578863
 10
137.3861699519963
 20
100.37368743365916
 10
144.94088900080254
 20
98.83789970835929
 10
144.07674800610496
 20
104.90652421445999
 10
143.576809016234
 20
105.71689620021553
 10
143.18544727129319
 20
106.36552214887185
 10
142.79456557059592
 20
107.0312082750021
 10
142.40896796116576
 20
107.71289888532104
 10
142.02869320425071
 20
108.41429120730955
 10
141.6573814660504
 20
109.13071773714918
 10
141.29991736416454
 20
109.86191985795944
 10
140.95679596954366
 20
110.60970132807418
 10
140.62536415983732
 20
111.38809636092293
 10
140.3161919753801
 20
112.10557212866334
 10
140.03729584756348
 20
112.81809442781129
 10
139.78551021779893
 20
113.5414174302654
 10
139.5626353538368
 20
114.26501418025634
 10
139.3732044699638
 20
114.9988980513705
 10
139.21724168930677
 20
115.74441625198008
 10
139.09920335201696
 20
116.50187203427853
 10
139.01975247491222
 20
117.2717474150152
 10
138.9833889385109
 20
118.05309943165247
 10
138.99177818164074
 20
118.84771082853361
 10
139.04765079225527
 20
119.65420711881013
 10
139.1548115469525
 20
120.47411784411102
 10
139.31544891104093
 20
121.30888128783559
 10
139.53257099587609
 20
122.1585431837228
 10
140.10198901884067
 20
123.93456860188792
 10
126.52065652960039
 20
129.42178310932806
 10
125.96570303640378
 20
127.09097843790236
 10
125.62344626233323
 20
126.03909688498443
 10
125.22503003648286
 20
125.09688391669167
 10
124.77974091385155
 20
124.26616123577459
 10
124.29283094198495
 20
123.54428369950263
 10
123.7744727517335
 20
122.92840388362761
 10
123.2325515929201
 20
122.41836044003853
 10
122.6730668694964
 20
122.00846604296828
 10
122.10328248442616
 20
121.69624407614927
 10
121.52649209193665
 20
121.47709631403109
 10
120.94675131368707
 20
121.34683555664353
 10
120.32910633808396
 20
121.30102123153011
 10
115.3840096935638
 20
121.30102123153011
 10
115.08249609956877
 20
104.57704712670807
 10
114.72688235010072
 20
84.85231412670805
 10
114.34795204457376
 20
63.8342879302848
  0
LWPOLYLINE
  5
4D
330
17
100
AcDbEntity
  8
STITCH_LINE
  6
DASHED
100
AcDbPolyline
 90
51
 70
1
 10
144.116143375121
 20
64.8342879302848
 10
143.07197669470796
 20
84.83428823153011
 10
142.69426066540026
 20
92.06907252569181
 10
126.50952656359817
 20
103.29325360765854
 10
144.2653406558719
 20
94.7692331461962
 10
142.8558252208873
 20
97.10728739224835
 10
126.73687324521137
 20
103.55902123153011
 10
143.7510518166603
 20
100.10023389115638
 10
143.116143375121
 20
104.55902123153011
 10
142.723143375121
 20
105.19605134291254
 10
142.326143375121
 20
105.8540218904823
 10
141.928143375121
 20
106.53183074601898
 10
141.534143375121
 20
107.2283757813022
 10
141.145143375121
 20
107.94586125277273
 10
140.764143375121
 20
108.68098077576943
 10
140.396143375121
 20
109.43373435029227
 10
140.04214337512101
 20
110.20522410456167
 10
139.706143375121
 20
110.9943479103572
 10
139.391143375121
 20
111.72534791035721
 10
139.099143375121
 20
112.47134791035721
 10
138.835143375121
 20
113.22976002794495
 10
138.600143375121
 20
113.99272285481968
 10
138.399143375121
 20
114.77142723014657
 10
138.233143375121
 20
115.56492437593894
 10
138.107143375121
 20
116.37347040226327
 10
138.022143375121
 20
117.19711653113285
 10
137.983143375121
 20
118.03511887261419
 10
137.992143375121
 20
118.88757987073387
 10
138.052143375121
 20
119.75365319153181
 10
138.16714337512101
 20
120.6335437230612
 10
138.339143375121
 20
121.52735390934863
 10
138.571143375121
 20
122.435237416434
 10
138.866143375121
 20
123.35534791035721
 10
127.224143375121
 20
128.0590212315301
 10
126.929143375121
 20
126.8200212315301
 10
126.561143375121
 20
125.6890212315301
 10
126.128143375121
 20
124.6650212315301
 10
125.637143375121
 20
123.74902123153011
 10
125.092143375121
 20
122.9410212315301
 10
124.502143375121
 20
122.24002123153011
 10
123.873143375121
 20
121.64802123153011
 10
123.211143375121
 20
121.16302123153011
 10
122.52314337512101
 20
120.7860212315301
 10
121.81514337512101
 20
120.51702123153011
 10
121.094143375121
 20
120.3550212315301
 10
120.366143375121
 20
120.30102123153011
 10
116.366143375121
 20
120.30102123153011
 10
116.08233361992046
 20
104.55902123153011
 10
115.72671987045241
 20
84.83428823153011
 10
115.366143375121
 20
64.8342879302848
 10
119.366143375121
 20
64.8342879302848
  0
LWPOLYLINE
  5
4E
330
17
100
AcDbEntity
  8
STITCH_LINE
  6
DASHED
100
AcDbPolyline
 90
4
 70
1
 10
130.58376837601253
 20
96.8342879302848
 10
132.44297249650825
 20
84.8342879302848
 10
130.58376837601253
 20
72.8342879302848
 10
128.72456425551678
 20
84.8342879302848
  0
LWPOLYLINE
  5
4F
330
17
100
AcDbEntity
  8
REFERENCE_LINE
  6
DASHED
100
AcDbPolyline
 90
2
 70
0
 10
116.48233361992047
 20
104.55902123153011
 10
142.716143375121
 20
104.55902123153011
  0
LWPOLYLINE
  5
50
330
17
100
AcDbEntity
  8
REFERENCE_LINE
  6
DASHED
100
AcDbPolyline
 90
2
 70
0
 10
116.12671986502131
 20
84.8342879302848
 10
142.67197671043547
 20
84.8342879302848
  0
LWPOLYLINE
  5
51
330
17
100
AcDbEntity
  8
REFERENCE_LINE
  6
DASHED
100
AcDbPolyline
 90
2
 70
0
 10
115.76616140394549
 20
64.8352879302848
 10
143.71609116678778
 20
64.8352879302848
  0
LWPOLYLINE
  5
52
330
17
100
AcDbEntity
  8
REFERENCE_LINE
  6
DASHED
100
AcDbPolyline
 90
2
 70
0
 10
120.366143375121
 20
119.90102123153011
 10
120.366143375121
 20
65.23428793028481
  0
LWPOLYLINE
  5
53
330
17
100
AcDbEntity
  8
REFERENCE_LINE
  6
DASHED
100
AcDbPolyline
 90
2
 70
0
 10
119.82824201549646
 20
104.55902123153011
 10
121.82824201549646
 20
104.55902123153011
  0
LWPOLYLINE
  5
54
330
17
100
AcDbEntity
  8
REFERENCE_LINE
  6
DASHED
100
AcDbPolyline
 90
2
 70
0
 10
120.82824201549646
 20
105.55902123153011
 10
120.82824201549646
 20
103.55902123153011
  0
LWPOLYLINE
  5
55
330
17
100
AcDbEntity
  8
REFERENCE_LINE
  6
DASHED
100
AcDbPolyline
 90
2
 70
0
 10
137.80324201549644
 20
104.55902123153011
 10
139.80324201549644
 20
104.55902123153011
  0
LWPOLYLINE
  5
56
330
17
100
AcDbEntity
  8
REFERENCE_LINE
  6
DASHED
100
AcDbPolyline
 90
2
 70
0
 10
138.80324201549644
 20
105.55902123153011
 10
138.80324201549644
 20
103.55902123153011
  0
LINE
  5
57
330
17
100
AcDbEntity
  8
NOTCH
100
AcDbLine
 10
143.21756836874076
 20
82.04562088642513
 30
0.0
 11
144.21620829345866
 21
82.09775821239583
 31
0.0
  0
LINE
  5
58
330
17
100
AcDbEntity
  8
NOTCH
100
AcDbLine
 10
139.0608456613943
 20
112.58136855492629
 30
0.0
 11
140.0052634221378
 21
112.91011632023007
 31
0.0
  0
LINE
  5
59
330
17
100
AcDbEntity
  8
GRAINLINE
100
AcDbLine
 10
125.91435038259507
 20
119.51162238278395
 30
0.0
 11
125.91435038259507
 21
69.58883875224126
 31
0.0
  0
LINE
  5
5A
330
17
100
AcDbEntity
  8
GRAINLINE
100
AcDbLine
 10
124.41435038259507
 20
118.01162238278395
 30
0.0
 11
125.91435038259507
 21
119.51162238278395
 31
0.0
  0
LINE
  5
5B
330
17
100
AcDbEntity
  8
GRAINLINE
100
AcDbLine
 10
127.41435038259507
 20
118.01162238278395
 30
0.0
 11
125.91435038259507
 21
119.51162238278395
 31
0.0
  0
LINE
  5
5C
330
17
100
AcDbEntity
  8
GRAINLINE
100
AcDbLine
 10
124.41435038259507
 20
71.08883875224126
 30
0.0
 11
125.91435038259507
 21
69.58883875224126
 31
0.0
  0
LINE
  5
5D
330
17
100
AcDbEntity
  8
GRAINLINE
100
AcDbLine
 10
127.41435038259507
 20
71.08883875224126
 30
0.0
 11
125.91435038259507
 21
69.58883875224126
 31
0.0
  0
TEXT
  5
5E
330
17
100
AcDbEntity
  8
LABEL
100
AcDbText
 10
130.1965676850117
 20
96.62803551980643
 30
0.0
 40
0.9
  1
前身頃・ファスナーパネル（ラウンドネック） 右 [ダーツ2本]
 72
1
 11
130.1965676850117
 21
96.62803551980643
 31
0.0
100
AcDbText
 73
2
  0
TEXT
  5
5F
330
17
100
AcDbEntity
  8
LABEL_ID
100
AcDbText
 10
130.1965676850117
 20
95.42803551980643
 30
0.0
 40
0.55
  1
front_bodice_zip_panel(round_neck) 右 [ダーツ2本]
 72
1
 11
130.1965676850117
 21
95.42803551980643
 31
0.0
100
AcDbText
 73
2
  0
LWPOLYLINE
  5
60
330
17
100
AcDbEntity
  8
CUT_LINE
100
AcDbPolyline
 90
87
 70
1
 10
87.47052756729985
 20
185.59411184566324
 10
87.92232552923137
 20
183.96909906975768
 10
88.07891262255555
 20
183.29440158544688
 10
88.20401147063933
 20
182.62614054978616
 10
88.29894254188892
 20
181.96409389522907
 10
88.36498773387909
 20
181.3080454260363
 10
88.4033927099937
 20
180.65779311763043
 10
88.41537092400554
 20
180.01315623289844
 10
88.40210890497026
 20
179.3739808454885
 10
88.36477229919412
 20
178.7401435487386
 10
88.30451216080608
 20
178.11155331935433
 10
88.22247103727628
 20
177.4881516692863
 10
88.11978849211127
 20
176.86991133911917
 10
87.99760582209356
 20
176.25683385469637
 10
87.85706984111695
 20
175.6489462886244
 10
87.6993357024851
 20
175.04629754938847
 10
87.52556880840989
 20
174.4489544757269
 10
87.33694590704447
 20
173.8569979551836
 10
87.13630430816522
 20
173.27529941909452
 10
86.69343990219507
 20
172.11363701546975
 10
86.212554785392
 20
170.98063617743335
 10
85.70140903208349
 20
169.87154587138377
 10
85.16998642178842
 20
168.7870731874409
 10
84.62864481870736
 20
167.728369676154
 10
83.43616864454296
 20
165.46025532658282
 10
83.69845962433723
 20
150.7443083037776
 10
82.37567816133213
 20
129.72178310932807
 10
132.00547764402194
 20
129.72178310932807
 10
130.6826961810168
 20
150.74430830377761
 10
130.94498716081108
 20
165.46025532658282
 10
129.7525109866468
 20
167.72836967615382
 10
129.2111693835656
 20
168.787073187441
 10
128.6797467732705
 20
169.87154587138392
 10
128.16860101996213
 20
170.98063617743324
 10
127.68771590315899
 20
172.11363701546975
 10
127.24485149718882
 20
173.27529941909455
 10
127.04420989830956
 20
173.85699795518366
 10
126.85558699694423
 20
174.44895447572668
 10
126.68182010286891
 20
175.0462975493886
 10
126.52408596423712
 20
175.64894628862427
 10
126.38354998326047
 20
176.25683385469654
 10
126.2613673132428
 20
176.86991133911906
 10
126.15868476807776
 20
177.4881516692864
 10
126.07664364454797
 20
178.11155331935433
 10
126.01638350615995
 20
178.74014354873844
 10
125.97904690038379
 20
179.37398084548863
 10
125.96578488134851
 20
180.01315623289844
 10
125.97776309536034
 20
180.6577931176303
 10
126.01616807147498
 20
181.30804542603636
 10
126.08221326346514
 20
181.964093895229
 10
126.17714433471474
 20
182.62614054978621
 10
126.30224318279849
 20
183.29440158544682
 10
126.45883027612268
 20
183.96909906975768
 10
126.91062823805422
 20
185.59411184566324
 10
113.65795587390691
 20
189.9001661244962
 10
113.05243998468447
 20
189.04560842286668
 10
112.87180609061808
 20
188.84574815941235
 10
112.65167991689322
 20
188.64876233655303
 10
112.3922901277852
 20
188.45719109483616
 10
112.0951446570994
 20
188.2736984943632
 10
111.76262422182626
 20
188.100676053446
 10
111.39763160122638
 20
187.9401029386858
 10
111.00334490199486
 20
187.7935435564919
 10
110.58306389500095
 20
187.66220189352117
 10
110.14012288196102
 20
187.5469896571214
 10
109.67784598610535
 20
187.4485893785405
 10
109.19952764063356
 20
187.36750622293687
 10
108.70842728045577
 20
187.30410786440407
 10
108.20777167693697
 20
187.25865383243308
 10
107.70076118858918
 20
187.23131616491074
 10
107.19057790267703
 20
187.22219298248632
 10
106.68039461676486
 20
187.23131616491074
 10
106.1733841284171
 20
187.25865383243308
 10
105.67272852489829
 20
187.30410786440407
 10
105.18162816472048
 20
187.36750622293687
 10
104.70330981924869
 20
187.4485893785405
 10
104.24103292339302
 20
187.5469896571214
 10
103.79809191035311
 20
187.66220189352117
 10
103.37781090335918
 20
187.7935435564919
 10
102.98352420412766
 20
187.9401029386858
 10
102.61853158352778
 20
188.100676053446
 10
102.28601114825466
 20
188.2736984943632
 10
101.98886567756884
 20
188.45719109483616
 10
101.72947588846084
 20
188.64876233655303
 10
101.50934971473598
 20
188.84574815941235
 10
101.32871582066957
 20
189.04560842286668
 10
100.72319993144714
 20
189.9001661244962
  0
LWPOLYLINE
  5
61
330
17
100
AcDbEntity
  8
STITCH_LINE
  6
DASHED
100
AcDbPolyline
 90
88
 70
1
 10
88.69057790267702
 20
184.93906800578458
 10
88.8915589778173
 20
184.2161855619995
 10
89.05788239513016
 20
183.49953651474604
 10
89.19086041346198
 20
182.7891860230211
 10
89.2918052916591
 20
182.0851992458217
 10
89.36202928856788
 20
181.38764134214483
 10
89.40284466303467
 20
180.69657747098742
 10
89.41556367390581
 20
180.0120727913465
 10
89.40149858002765
 20
179.334192462219
 10
89.36196164024656
 20
178.6630016426019
 10
89.29826511340887
 20
177.9985654914922
 10
89.21172125836094
 20
177.34094916788686
 10
89.10364233394913
 20
176.69021783078287
 10
88.97534059901977
 20
176.0464366391772
 10
88.82812831241924
 20
175.4096707520668
 10
88.66331773299387
 20
174.77998532844867
 10
88.48222111959002
 20
174.15744552731982
 10
88.28615073105402
 20
173.54211650767718
 10
88.07641882623226
 20
172.93406342851773
 10
87.62121950311678
 20
171.74004572763633
 10
87.12712122101439
 20
170.57591369665144
 10
86.6046220506959
 20
169.4421886075389
 10
86.0642200629321
 20
168.33939173227446
 10
85.51641332849381
 20
167.26804434283397
 10
84.44057790267702
 20
165.22178310932807
 10
84.69901993166253
 20
150.72178310932807
 10
83.44057790267702
 20
130.72178310932807
 10
130.94057790267703
 20
130.72178310932807
 10
129.68213587369152
 20
150.72178310932807
 10
129.94057790267703
 20
165.22178310932807
 10
128.86474247686024
 20
167.26804434283397
 10
128.31693574242195
 20
168.33939173227446
 10
127.77653375465817
 20
169.4421886075389
 10
127.25403458433968
 20
170.57591369665144
 10
126.75993630223728
 20
171.74004572763633
 10
126.3047369791218
 20
172.93406342851773
 10
126.09500507430002
 20
173.54211650767718
 10
125.89893468576403
 20
174.15744552731982
 10
125.71783807236018
 20
174.77998532844867
 10
125.5530274929348
 20
175.4096707520668
 10
125.40581520633427
 20
176.0464366391772
 10
125.27751347140492
 20
176.69021783078287
 10
125.1694345469931
 20
177.34094916788686
 10
125.08289069194518
 20
177.9985654914922
 10
125.0191941651075
 20
178.6630016426019
 10
124.9796572253264
 20
179.334192462219
 10
124.96559213144825
 20
180.0120727913465
 10
124.97831114231938
 20
180.69657747098742
 10
125.01912651678617
 20
181.38764134214483
 10
125.08935051369494
 20
182.0851992458217
 10
125.19029539189208
 20
182.7891860230211
 10
125.32327341022389
 20
183.49953651474604
 10
125.48959682753676
 20
184.2161855619995
 10
125.69057790267703
 20
184.93906800578458
 10
114.04857790267702
 20
188.72178310932807
 10
113.83409017074344
 20
188.41907900776556
 10
113.57815651595828
 20
188.13590420307807
 10
113.283539999845
 20
187.87225869526557
 10
112.95300368392702
 20
187.62814248432807
 10
112.5893106297278
 20
187.40355557026555
 10
112.19522389877076
 20
187.19849795307806
 10
111.77350655257936
 20
187.01296963276556
 10
111.32692165267702
 20
186.84697060932805
 10
110.85823226058719
 20
186.70050088276557
 10
110.37020143783327
 20
186.57356045307807
 10
109.86559224593874
 20
186.46614932026557
 10
109.34716774642703
 20
186.37826748432806
 10
108.81769100082155
 20
186.30991494526558
 10
108.27992507064577
 20
186.26109170307805
 10
107.73663301742312
 20
186.23179775776558
 10
107.19057790267703
 20
186.22203310932807
 10
106.64452278793092
 20
186.23179775776558
 10
106.10123073470828
 20
186.26109170307805
 10
105.56346480453249
 20
186.30991494526558
 10
105.03398805892704
 20
186.37826748432806
 10
104.51556355941531
 20
186.46614932026557
 10
104.01095436752078
 20
186.57356045307807
 10
103.52292354476687
 20
186.70050088276557
 10
103.05423415267703
 20
186.84697060932805
 10
102.60764925277468
 20
187.01296963276556
 10
102.18593190658328
 20
187.19849795307806
 10
101.79184517562625
 20
187.40355557026555
 10
101.42815212142702
 20
187.62814248432807
 10
101.09761580550907
 20
187.87225869526557
 10
100.80299928939579
 20
188.13590420307807
 10
100.54706563461062
 20
188.41907900776556
 10
100.33257790267703
 20
188.72178310932807
 10
88.69057790267702
 20
184.93906800578458
  0
LWPOLYLINE
  5
62
330
17
100
AcDbEntity
  8
STITCH_LINE
  6
DASHED
100
AcDbPolyline
 90
4
 70
1
 10
95.5693768157205
 20
162.72178310932807
 10
97.42046377224224
 20
150.72178310932807
 10
95.5693768157205
 20
138.72178310932807
 10
93.71828985919876
 20
150.72178310932807
  0
LWPOLYLINE
  5
63
330
17
100
AcDbEntity
  8
STITCH_LINE
  6
DASHED
100
AcDbPolyline
 90
4
 70
1
 10
98.5693768157205
 20
162.72178310932807
 10
100.42046377224224
 20
150.72178310932807
 10
98.5693768157205
 20
138.72178310932807
 10
96.71828985919876
 20
150.72178310932807
  0
LWPOLYLINE
  5
64
330
17
100
AcDbEntity
  8
STITCH_LINE
  6
DASHED
100
AcDbPolyline
 90
4
 70
1
 10
115.81177898963355
 20
162.72178310932807
 10
117.66286594615529
 20
150.72178310932807
 10
115.81177898963355
 20
138.72178310932807
 10
113.96069203311181
 20
150.72178310932807
  0
LWPOLYLINE
  5
65
330
17
100
AcDbEntity
  8
STITCH_LINE
  6
DASHED
100
AcDbPolyline
 90
4
 70
1
 10
118.81177898963355
 20
162.72178310932807
 10
120.66286594615529
 20
150.72178310932807
 10
118.81177898963355
 20
138.72178310932807
 10
116.96069203311181
 20
150.72178310932807
  0
LWPOLYLINE
  5
66
330
17
100
AcDbEntity
  8
REFERENCE_LINE
  6
DASHED
100
AcDbPolyline
 90
2
 70
0
 10
84.84057790267703
 20
165.22178310932807
 10
129.54057790267703
 20
165.22178310932807
  0
LWPOLYLINE
  5
67
330
17
100
AcDbEntity
  8
REFERENCE_LINE
  6
DASHED
100
AcDbPolyline
 90
2
 70
0
 10
85.09901993166253
 20
150.72178310932807
 10
129.28213587369152
 20
150.72178310932807
  0
LWPOLYLINE
  5
68
330
17
100
AcDbEntity
  8
REFERENCE_LINE
  6
DASHED
100
AcDbPolyline
 90
2
 70
0
 10
83.84064082477848
 20
130.72278310932808
 10
130.54051498057558
 20
130.72278310932808
  0
LWPOLYLINE
  5
69
330
17
100
AcDbEntity
  8
REFERENCE_LINE
  6
DASHED
100
AcDbPolyline
 90
2
 70
0
 10
107.19057790267703
 20
188.32178310932807
 10
107.19057790267703
 20
131.12178310932808
  0
LINE
  5
6A
330
17
100
AcDbEntity
  8
NOTCH
100
AcDbLine
 10
84.52515607497153
 20
147.95862274617406
 30
0.0
 11
83.527129811527
 21
148.02142065597155
 31
0.0
  0
LINE
  5
6B
330
17
100
AcDbEntity
  8
NOTCH
100
AcDbLine
 10
129.8559997303825
 20
147.95862274617406
 30
0.0
 11
130.85402599382707
 21
148.02142065597155
 31
0.0
  0
LINE
  5
6C
330
17
100
AcDbEntity
  8
NOTCH
100
AcDbLine
 10
88.33766747351753
 20
173.70379184719144
 30
0.0
 11
87.38486878349165
 21
174.00739464079678
 31
0.0
  0
LINE
  5
6D
330
17
100
AcDbEntity
  8
NOTCH
100
AcDbLine
 10
126.04348833183653
 20
173.70379184719144
 30
0.0
 11
126.9962870218624
 21
174.00739464079678
 31
0.0
  0
LINE
  5
6E
330
17
100
AcDbEntity
  8
NOTCH
100
AcDbLine
 10
88.57268556447184
 20
174.46842714352692
 30
0.0
 11
87.61248783783608
 21
174.74774833098596
 31
0.0
  0
LINE
  5
6F
330
17
100
AcDbEntity
  8
NOTCH
100
AcDbLine
 10
125.8084702408822
 20
174.46842714352692
 30
0.0
 11
126.76866796751797
 21
174.74774833098596
 31
0.0
  0
LINE
  5
70
330
17
100
AcDbEntity
  8
GRAINLINE
100
AcDbLine
 10
99.70932790267702
 20
183.89547740470508
 30
0.0
 11
99.70932790267702
 21
135.3455826132739
 31
0.0
  0
LINE
  5
71
330
17
100
AcDbEntity
  8
GRAINLINE
100
AcDbLine
 10
98.20932790267703
 20
182.39547740470508
 30
0.0
 11
99.70932790267702
 21
183.89547740470508
 31
0.0
  0
LINE
  5
72
330
17
100
AcDbEntity
  8
GRAINLINE
100
AcDbLine
 10
101.20932790267702
 20
182.39547740470508
 30
0.0
 11
99.70932790267702
 21
183.89547740470508
 31
0.0
  0
LINE
  5
73
330
17
100
AcDbEntity
  8
GRAINLINE
100
AcDbLine
 10
98.20932790267703
 20
136.8455826132739
 30
0.0
 11
99.70932790267702
 21
135.3455826132739
 31
0.0
  0
LINE
  5
74
330
17
100
AcDbEntity
  8
GRAINLINE
100
AcDbLine
 10
101.20932790267702
 20
136.8455826132739
 30
0.0
 11
99.70932790267702
 21
135.3455826132739
 31
0.0
  0
TEXT
  5
75
330
17
100
AcDbEntity
  8
LABEL
100
AcDbText
 10
107.19057790267703
 20
159.81097461691212
 30
0.0
 40
0.9
  1
後身頃（ラウンドネック・前開き） [ダーツ4本]
 72
1
 11
107.19057790267703
 21
159.81097461691212
 31
0.0
100
AcDbText
 73
2
  0
TEXT
  5
76
330
17
100
AcDbEntity
  8
LABEL_ID
100
AcDbText
 10
107.19057790267703
 20
158.61097461691213
 30
0.0
 40
0.55
  1
back_bodice(round_neck_zip) [ダーツ4本]
 72
1
 11
107.19057790267703
 21
158.61097461691213
 31
0.0
100
AcDbText
 73
2
  0
LWPOLYLINE
  5
77
330
17
100
AcDbEntity
  8
CUT_LINE
100
AcDbPolyline
 90
67
 70
1
 10
0.0
 20
52.80216604234528
 10
4.3147729692862455
 20
11.299999999999983
 10
31.24262262822996
 20
11.299999999999983
 10
35.557395597516205
 20
52.80216604234528
 10
34.90722752048801
 20
53.90484983315949
 10
34.40736765597345
 20
54.70169755010443
 10
33.8979587988376
 20
55.46531371295379
 10
33.379595751818286
 20
56.19617906677718
 10
32.85287735473849
 20
56.89477107000073
 10
32.318406887773264
 20
57.56156427210246
 10
31.776792423651653
 20
58.197030769128105
 10
31.228647113390227
 20
58.801640731798216
 10
30.674589390712853
 20
59.37586299761281
 10
30.115243081632048
 20
59.92016571497908
 10
29.551237407774533
 20
60.43501702418044
 10
28.983206874877183
 20
60.92088575718853
 10
28.411791041374844
 20
61.37824213608491
 10
27.837634165962978
 20
61.807558448400954
 10
27.261384737261036
 20
62.209309677113936
 10
26.683694892951767
 20
62.58397406344221
 10
26.105219739784904
 20
62.93203358194218
 10
25.526616589343796
 20
63.25397430965178
 10
24.94854412726517
 20
63.5502866739846
 10
24.371661535507236
 20
63.821465567539434
 10
23.79662758818573
 20
64.06801032168502
 10
23.224099741425295
 20
64.29042453442483
 10
22.654733236675177
 20
64.48921575135536
 10
22.089180235151865
 20
64.66489500124686
 10
21.528088998706945
 20
64.81797618967516
 10
20.97210312972839
 20
64.94897535505575
 10
20.421860879953567
 20
65.05840979126489
 10
19.87799453560915
 20
65.14679703973056
 10
19.341129884415
 20
65.21465375143336
 10
18.81188576902296
 20
65.26249441572209
 10
18.290873731764638
 20
65.29082994829533
 10
17.778697798758103
 20
65.3001661244962
 10
17.266521865751567
 20
65.29082994829533
 10
16.745509828493248
 20
65.26249441572209
 10
16.2162657131012
 20
65.21465375143336
 10
15.679401061907043
 20
65.14679703973056
 10
15.135534717562656
 20
65.05840979126489
 10
14.585292467787811
 20
64.94897535505575
 10
14.029306598809262
 20
64.81797618967516
 10
13.468215362364333
 20
64.66489500124686
 10
12.902662360841024
 20
64.48921575135536
 10
12.333295856090901
 20
64.29042453442482
 10
11.760768009330477
 20
64.06801032168502
 10
11.185734062008976
 20
63.821465567539434
 10
10.608851470251057
 20
63.550286673984616
 10
10.030779008172399
 20
63.25397430965177
 10
9.4521758577313
 20
62.93203358194218
 10
8.873700704564442
 20
62.58397406344221
 10
8.296010860255176
 20
62.20930967711395
 10
7.719761431553249
 20
61.807558448400954
 10
7.145604556141375
 20
61.378242136084936
 10
6.574188722638988
 20
60.9208857571885
 10
6.006158189741711
 20
60.43501702418047
 10
5.44215251588413
 20
59.92016571497908
 10
4.88280620680339
 20
59.37586299761284
 10
4.32874848412594
 20
58.80164073179819
 10
3.780603173864538
 20
58.197030769128105
 10
3.238988709742922
 20
57.56156427210246
 10
2.7045182427777092
 20
56.89477107000073
 10
2.1777998456979013
 20
56.19617906677715
 10
1.6594367986785834
 20
55.46531371295379
 10
1.1500279415427341
 20
54.70169755010437
 10
0.6501680770282792
 20
53.9048498331596
  0
LWPOLYLINE
  5
78
330
17
100
AcDbEntity
  8
STITCH_LINE
  6
DASHED
100
AcDbPolyline
 90
67
 70
1
 10
1.0286977987581023
 20
52.57797558281948
 10
1.5045965414338833
 20
53.385098922396594
 10
1.989696333914352
 20
54.15841698525793
 10
2.483383772879196
 20
54.898466363097356
 10
2.985045455008102
 20
55.605783647608774
 10
3.494067976980758
 20
56.28090543048609
 10
4.009837935476852
 20
56.92436830342319
 10
4.531741927176071
 20
57.536708858114025
 10
5.059166548758102
 20
58.118463686252454
 10
5.591498396902633
 20
58.67016937953238
 10
6.1281240682893525
 20
59.19236252964771
 10
6.668430159597946
 20
59.68557972829234
 10
7.2118032675081025
 20
60.1503575671602
 10
7.7576299886995095
 20
60.587232637945164
 10
8.305296919851852
 20
60.99674153234116
 10
8.85419065764482
 20
61.37942084204204
 10
9.403697798758103
 20
61.73580715874175
 10
9.953204939871384
 20
62.066437074134186
 10
10.502098677664353
 20
62.37184717991323
 10
11.049765608816697
 20
62.652574067772804
 10
11.595592330008103
 20
62.90915432940679
 10
12.138965437918259
 20
63.14212455650912
 10
12.679271529226853
 20
63.35202134077366
 10
13.21589720061357
 20
63.539381273894335
 10
13.748229048758102
 20
63.70474094756504
 10
14.275653670340134
 20
63.848636953479684
 10
14.797557662039353
 20
63.97160588333216
 10
15.313327620535446
 20
64.07418432881636
 10
15.822350142508101
 20
64.15690888162621
 10
16.324011824637008
 20
64.2203161334556
 10
16.817699263601853
 20
64.26494267599841
 10
17.30279905608232
 20
64.29132510094858
 10
17.778697798758103
 20
64.3
 10
18.254596541433884
 20
64.29132510094858
 10
18.739696333914353
 20
64.26494267599841
 10
19.233383772879193
 20
64.2203161334556
 10
19.735045455008105
 20
64.15690888162621
 10
20.244067976980762
 20
64.07418432881636
 10
20.759837935476853
 20
63.97160588333216
 10
21.28174192717607
 20
63.848636953479684
 10
21.809166548758103
 20
63.70474094756504
 10
22.341498396902637
 20
63.539381273894335
 10
22.878124068289353
 20
63.35202134077366
 10
23.418430159597946
 20
63.14212455650912
 10
23.961803267508103
 20
62.90915432940679
 10
24.507629988699506
 20
62.652574067772804
 10
25.055296919851852
 20
62.37184717991323
 10
25.60419065764482
 20
62.066437074134186
 10
26.153697798758103
 20
61.73580715874175
 10
26.703204939871384
 20
61.37942084204204
 10
27.252098677664353
 20
60.99674153234116
 10
27.7997656088167
 20
60.587232637945164
 10
28.345592330008103
 20
60.1503575671602
 10
28.88896543791826
 20
59.68557972829234
 10
29.429271529226853
 20
59.19236252964771
 10
29.96589720061357
 20
58.67016937953238
 10
30.498229048758102
 20
58.118463686252454
 10
31.025653670340134
 20
57.536708858114025
 10
31.547557662039353
 20
56.92436830342319
 10
32.063327620535446
 20
56.28090543048609
 10
32.5723501425081
 20
55.605783647608774
 10
33.074011824637005
 20
54.898466363097356
 10
33.56769926360185
 20
54.15841698525793
 10
34.05279905608232
 20
53.385098922396594
 10
34.5286977987581
 20
52.57797558281948
 10
30.341197798758103
 20
12.299999999999983
 10
5.2161977987581025
 20
12.299999999999983
  0
LINE
  5
79
330
17
100
AcDbEntity
  8
NOTCH
100
AcDbLine
 10
6.58849171777531
 20
59.612608101701426
 30
0.0
 11
5.9143011939191705
 21
60.35116557241213
 31
0.0
  0
LINE
  5
7A
330
17
100
AcDbEntity
  8
NOTCH
100
AcDbLine
 10
28.71166220898672
 20
59.83723723648967
 30
0.0
 11
29.36167077357239
 21
60.59716411847589
 31
0.0
  0
LINE
  5
7B
330
17
100
AcDbEntity
  8
NOTCH
100
AcDbLine
 10
28.09710271202216
 20
60.34924654645016
 30
0.0
 11
28.72198411713511
 21
61.129966233369885
 31
0.0
  0
LINE
  5
7C
330
17
100
AcDbEntity
  8
GRAINLINE
100
AcDbLine
 10
17.778697798758103
 20
60.139999999999986
 30
0.0
 11
17.778697798758103
 21
16.45999999999998
 31
0.0
  0
LINE
  5
7D
330
17
100
AcDbEntity
  8
GRAINLINE
100
AcDbLine
 10
16.278697798758103
 20
58.639999999999986
 30
0.0
 11
17.778697798758103
 21
60.139999999999986
 31
0.0
  0
LINE
  5
7E
330
17
100
AcDbEntity
  8
GRAINLINE
100
AcDbLine
 10
19.278697798758103
 20
58.639999999999986
 30
0.0
 11
17.778697798758103
 21
60.139999999999986
 31
0.0
  0
LINE
  5
7F
330
17
100
AcDbEntity
  8
GRAINLINE
100
AcDbLine
 10
16.278697798758103
 20
17.95999999999998
 30
0.0
 11
17.778697798758103
 21
16.45999999999998
 31
0.0
  0
LINE
  5
80
330
17
100
AcDbEntity
  8
GRAINLINE
100
AcDbLine
 10
19.278697798758103
 20
17.95999999999998
 30
0.0
 11
17.778697798758103
 21
16.45999999999998
 31
0.0
  0
TEXT
  5
81
330
17
100
AcDbEntity
  8
LABEL
100
AcDbText
 10
17.778697798758103
 20
38.30008306224809
 30
0.0
 40
0.9
  1
袖（ストレート） 左
 72
1
 11
17.778697798758103
 21
38.30008306224809
 31
0.0
100
AcDbText
 73
2
  0
TEXT
  5
82
330
17
100
AcDbEntity
  8
LABEL_ID
100
AcDbText
 10
17.778697798758103
 20
37.10008306224809
 30
0.0
 40
0.55
  1
sleeve(straight) 左
 72
1
 11
17.778697798758103
 21
37.10008306224809
 31
0.0
100
AcDbText
 73
2
  0
LWPOLYLINE
  5
83
330
17
100
AcDbEntity
  8
CUT_LINE
100
AcDbPolyline
 90
67
 70
1
 10
35.71732764596341
 20
52.80216604234528
 10
40.032100615249654
 20
11.299999999999983
 10
66.95995027419337
 20
11.299999999999983
 10
71.27472324347961
 20
52.80216604234528
 10
70.62455516645142
 20
53.90484983315949
 10
70.12469530193687
 20
54.70169755010443
 10
69.615286444801
 20
55.46531371295379
 10
69.0969233977817
 20
56.19617906677718
 10
68.57020500070189
 20
56.89477107000073
 10
68.03573453373667
 20
57.56156427210246
 10
67.49412006961506
 20
58.197030769128105
 10
66.94597475935363
 20
58.801640731798216
 10
66.39191703667626
 20
59.37586299761281
 10
65.83257072759545
 20
59.92016571497908
 10
65.26856505373794
 20
60.43501702418044
 10
64.70053452084059
 20
60.92088575718853
 10
64.12911868733825
 20
61.37824213608491
 10
63.55496181192639
 20
61.807558448400954
 10
62.97871238322445
 20
62.209309677113936
 10
62.40102253891517
 20
62.58397406344221
 10
61.82254738574831
 20
62.93203358194218
 10
61.243944235307204
 20
63.25397430965178
 10
60.665871773228574
 20
63.5502866739846
 10
60.088989181470644
 20
63.821465567539434
 10
59.51395523414914
 20
64.06801032168502
 10
58.9414273873887
 20
64.29042453442483
 10
58.372060882638586
 20
64.48921575135536
 10
57.80650788111527
 20
64.66489500124686
 10
57.24541664467036
 20
64.81797618967516
 10
56.6894307756918
 20
64.94897535505575
 10
56.13918852591698
 20
65.05840979126489
 10
55.595322181572556
 20
65.14679703973056
 10
55.058457530378405
 20
65.21465375143336
 10
54.52921341498637
 20
65.26249441572209
 10
54.00820137772804
 20
65.29082994829533
 10
53.49602544472151
 20
65.3001661244962
 10
52.98384951171498
 20
65.29082994829533
 10
52.462837474456656
 20
65.26249441572209
 10
51.93359335906461
 20
65.21465375143336
 10
51.39672870787045
 20
65.14679703973056
 10
50.852862363526064
 20
65.05840979126489
 10
50.30262011375122
 20
64.94897535505575
 10
49.74663424477267
 20
64.81797618967516
 10
49.18554300832774
 20
64.66489500124686
 10
48.61999000680443
 20
64.48921575135536
 10
48.05062350205431
 20
64.29042453442482
 10
47.478095655293885
 20
64.06801032168502
 10
46.903061707972384
 20
63.821465567539434
 10
46.32617911621446
 20
63.550286673984616
 10
45.74810665413581
 20
63.25397430965177
 10
45.169503503694706
 20
62.93203358194218
 10
44.59102835052785
 20
62.58397406344221
 10
44.01333850621859
 20
62.20930967711395
 10
43.43708907751666
 20
61.807558448400954
 10
42.86293220210479
 20
61.378242136084936
 10
42.291516368602394
 20
60.9208857571885
 10
41.72348583570512
 20
60.43501702418047
 10
41.15948016184754
 20
59.92016571497908
 10
40.600133852766795
 20
59.37586299761284
 10
40.04607613008935
 20
58.80164073179819
 10
39.49793081982794
 20
58.197030769128105
 10
38.95631635570633
 20
57.56156427210246
 10
38.42184588874112
 20
56.89477107000073
 10
37.89512749166131
 20
56.19617906677715
 10
37.37676444464199
 20
55.46531371295379
 10
36.86735558750614
 20
54.70169755010437
 10
36.367495722991684
 20
53.9048498331596
  0
LWPOLYLINE
  5
84
330
17
100
AcDbEntity
  8
STITCH_LINE
  6
DASHED
100
AcDbPolyline
 90
67
 70
1
 10
36.74602544472151
 20
52.57797558281948
 10
37.22192418739729
 20
53.385098922396594
 10
37.70702397987776
 20
54.15841698525793
 10
38.2007114188426
 20
54.898466363097356
 10
38.70237310097151
 20
55.605783647608774
 10
39.21139562294417
 20
56.28090543048609
 10
39.72716558144026
 20
56.92436830342319
 10
40.24906957313948
 20
57.536708858114025
 10
40.77649419472151
 20
58.118463686252454
 10
41.308826042866045
 20
58.67016937953238
 10
41.84545171425276
 20
59.19236252964771
 10
42.385757805561354
 20
59.68557972829234
 10
42.92913091347151
 20
60.1503575671602
 10
43.474957634662914
 20
60.587232637945164
 10
44.02262456581526
 20
60.99674153234116
 10
44.57151830360823
 20
61.37942084204204
 10
45.12102544472151
 20
61.73580715874175
 10
45.67053258583479
 20
62.066437074134186
 10
46.21942632362776
 20
62.37184717991323
 10
46.76709325478011
 20
62.652574067772804
 10
47.31291997597151
 20
62.90915432940679
 10
47.85629308388167
 20
63.14212455650912
 10
48.39659917519026
 20
63.35202134077366
 10
48.93322484657698
 20
63.539381273894335
 10
49.46555669472151
 20
63.70474094756504
 10
49.99298131630354
 20
63.848636953479684
 10
50.51488530800276
 20
63.97160588333216
 10
51.030655266498854
 20
64.07418432881636
 10
51.53967778847151
 20
64.15690888162621
 10
52.04133947060042
 20
64.2203161334556
 10
52.53502690956526
 20
64.26494267599841
 10
53.02012670204573
 20
64.29132510094858
 10
53.49602544472151
 20
64.3
 10
53.97192418739729
 20
64.29132510094858
 10
54.45702397987776
 20
64.26494267599841
 10
54.9507114188426
 20
64.2203161334556
 10
55.45237310097151
 20
64.15690888162621
 10
55.96139562294417
 20
64.07418432881636
 10
56.47716558144026
 20
63.97160588333216
 10
56.99906957313948
 20
63.848636953479684
 10
57.52649419472151
 20
63.70474094756504
 10
58.058826042866045
 20
63.539381273894335
 10
58.59545171425276
 20
63.35202134077366
 10
59.135757805561354
 20
63.14212455650912
 10
59.67913091347151
 20
62.90915432940679
 10
60.224957634662914
 20
62.652574067772804
 10
60.77262456581526
 20
62.37184717991323
 10
61.32151830360823
 20
62.066437074134186
 10
61.87102544472151
 20
61.73580715874175
 10
62.42053258583479
 20
61.37942084204204
 10
62.96942632362776
 20
60.99674153234116
 10
63.51709325478011
 20
60.587232637945164
 10
64.06291997597151
 20
60.1503575671602
 10
64.60629308388167
 20
59.68557972829234
 10
65.14659917519026
 20
59.19236252964771
 10
65.68322484657698
 20
58.67016937953238
 10
66.21555669472151
 20
58.118463686252454
 10
66.74298131630354
 20
57.536708858114025
 10
67.26488530800276
 20
56.92436830342319
 10
67.78065526649885
 20
56.28090543048609
 10
68.28967778847151
 20
55.605783647608774
 10
68.7913394706004
 20
54.898466363097356
 10
69.28502690956526
 20
54.15841698525793
 10
69.77012670204573
 20
53.385098922396594
 10
70.24602544472151
 20
52.57797558281948
 10
66.05852544472151
 20
12.299999999999983
 10
40.93352544472151
 20
12.299999999999983
  0
LINE
  5
85
330
17
100
AcDbEntity
  8
NOTCH
100
AcDbLine
 10
42.30581936373872
 20
59.612608101701426
 30
0.0
 11
41.63162883988258
 21
60.35116557241213
 31
0.0
  0
LINE
  5
86
330
17
100
AcDbEntity
  8
NOTCH
100
AcDbLine
 10
64.42898985495013
 20
59.83723723648967
 30
0.0
 11
65.0789984195358
 21
60.59716411847589
 31
0.0
  0
LINE
  5
87
330
17
100
AcDbEntity
  8
NOTCH
100
AcDbLine
 10
63.81443035798557
 20
60.34924654645016
 30
0.0
 11
64.43931176309852
 21
61.129966233369885
 31
0.0
  0
LINE
  5
88
330
17
100
AcDbEntity
  8
GRAINLINE
100
AcDbLine
 10
53.49602544472151
 20
60.139999999999986
 30
0.0
 11
53.49602544472151
 21
16.45999999999998
 31
0.0
  0
LINE
  5
89
330
17
100
AcDbEntity
  8
GRAINLINE
100
AcDbLine
 10
51.99602544472151
 20
58.639999999999986
 30
0.0
 11
53.49602544472151
 21
60.139999999999986
 31
0.0
  0
LINE
  5
8A
330
17
100
AcDbEntity
  8
GRAINLINE
100
AcDbLine
 10
54.99602544472151
 20
58.639999999999986
 30
0.0
 11
53.49602544472151
 21
60.139999999999986
 31
0.0
  0
LINE
  5
8B
330
17
100
AcDbEntity
  8
GRAINLINE
100
AcDbLine
 10
51.99602544472151
 20
17.95999999999998
 30
0.0
 11
53.49602544472151
 21
16.45999999999998
 31
0.0
  0
LINE
  5
8C
330
17
100
AcDbEntity
  8
GRAINLINE
100
AcDbLine
 10
54.99602544472151
 20
17.95999999999998
 30
0.0
 11
53.49602544472151
 21
16.45999999999998
 31
0.0
  0
TEXT
  5
8D
330
17
100
AcDbEntity
  8
LABEL
100
AcDbText
 10
53.49602544472151
 20
38.30008306224809
 30
0.0
 40
0.9
  1
袖（ストレート） 右
 72
1
 11
53.49602544472151
 21
38.30008306224809
 31
0.0
100
AcDbText
 73
2
  0
TEXT
  5
8E
330
17
100
AcDbEntity
  8
LABEL_ID
100
AcDbText
 10
53.49602544472151
 20
37.10008306224809
 30
0.0
 40
0.55
  1
sleeve(straight) 右
 72
1
 11
53.49602544472151
 21
37.10008306224809
 31
0.0
100
AcDbText
 73
2
  0
LWPOLYLINE
  5
8F
330
17
100
AcDbEntity
  8
CUT_LINE
100
AcDbPolyline
 90
4
 70
1
 10
0.0
 20
11.0
 10
0.0
 20
0.0
 10
29.125
 20
0.0
 10
29.125
 20
11.0
  0
LWPOLYLINE
  5
90
330
17
100
AcDbEntity
  8
STITCH_LINE
  6
DASHED
100
AcDbPolyline
 90
4
 70
1
 10
1.0
 20
10.0
 10
28.125
 20
10.0
 10
28.125
 20
1.0
 10
1.0
 20
1.0
  0
LINE
  5
91
330
17
100
AcDbEntity
  8
NOTCH
100
AcDbLine
 10
14.5625
 20
10.0
 30
0.0
 11
14.5625
 21
11.0
 31
0.0
  0
LINE
  5
92
330
17
100
AcDbEntity
  8
GRAINLINE
100
AcDbLine
 10
14.5625
 20
9.280000000000001
 30
0.0
 11
14.5625
 21
1.7199999999999989
 31
0.0
  0
LINE
  5
93
330
17
100
AcDbEntity
  8
GRAINLINE
100
AcDbLine
 10
14.1625
 20
8.879999999999995
 30
0.0
 11
14.5625
 21
9.280000000000001
 31
0.0
  0
LINE
  5
94
330
17
100
AcDbEntity
  8
GRAINLINE
100
AcDbLine
 10
14.9625
 20
8.879999999999995
 30
0.0
 11
14.5625
 21
9.280000000000001
 31
0.0
  0
LINE
  5
95
330
17
100
AcDbEntity
  8
GRAINLINE
100
AcDbLine
 10
14.1625
 20
2.1200000000000045
 30
0.0
 11
14.5625
 21
1.7199999999999989
 31
0.0
  0
LINE
  5
96
330
17
100
AcDbEntity
  8
GRAINLINE
100
AcDbLine
 10
14.9625
 20
2.1200000000000045
 30
0.0
 11
14.5625
 21
1.7199999999999989
 31
0.0
  0
TEXT
  5
97
330
17
100
AcDbEntity
  8
LABEL
100
AcDbText
 10
14.5625
 20
5.5
 30
0.0
 40
0.9
  1
カフス（ワイド） 左
 72
1
 11
14.5625
 21
5.5
 31
0.0
100
AcDbText
 73
2
  0
TEXT
  5
98
330
17
100
AcDbEntity
  8
LABEL_ID
100
AcDbText
 10
14.5625
 20
4.3
 30
0.0
 40
0.55
  1
cuffs(wide) 左
 72
1
 11
14.5625
 21
4.3
 31
0.0
100
AcDbText
 73
2
  0
LWPOLYLINE
  5
99
330
17
100
AcDbEntity
  8
CUT_LINE
100
AcDbPolyline
 90
4
 70
1
 10
29.425
 20
11.0
 10
29.425
 20
0.0
 10
58.55
 20
0.0
 10
58.55
 20
11.0
  0
LWPOLYLINE
  5
9A
330
17
100
AcDbEntity
  8
STITCH_LINE
  6
DASHED
100
AcDbPolyline
 90
4
 70
1
 10
30.425
 20
10.0
 10
57.55
 20
10.0
 10
57.55
 20
1.0
 10
30.425
 20
1.0
  0
LINE
  5
9B
330
17
100
AcDbEntity
  8
NOTCH
100
AcDbLine
 10
43.9875
 20
10.0
 30
0.0
 11
43.9875
 21
11.0
 31
0.0
  0
LINE
  5
9C
330
17
100
AcDbEntity
  8
GRAINLINE
100
AcDbLine
 10
43.9875
 20
9.280000000000001
 30
0.0
 11
43.9875
 21
1.7199999999999989
 31
0.0
  0
LINE
  5
9D
330
17
100
AcDbEntity
  8
GRAINLINE
100
AcDbLine
 10
43.5875
 20
8.879999999999995
 30
0.0
 11
43.9875
 21
9.280000000000001
 31
0.0
  0
LINE
  5
9E
330
17
100
AcDbEntity
  8
GRAINLINE
100
AcDbLine
 10
44.3875
 20
8.879999999999995
 30
0.0
 11
43.9875
 21
9.280000000000001
 31
0.0
  0
LINE
  5
9F
330
17
100
AcDbEntity
  8
GRAINLINE
100
AcDbLine
 10
43.5875
 20
2.1200000000000045
 30
0.0
 11
43.9875
 21
1.7199999999999989
 31
0.0
  0
LINE
  5
A0
330
17
100
AcDbEntity
  8
GRAINLINE
100
AcDbLine
 10
44.3875
 20
2.1200000000000045
 30
0.0
 11
43.9875
 21
1.7199999999999989
 31
0.0
  0
TEXT
  5
A1
330
17
100
AcDbEntity
  8
LABEL
100
AcDbText
 10
43.9875
 20
5.5
 30
0.0
 40
0.9
  1
カフス（ワイド） 右
 72
1
 11
43.9875
 21
5.5
 31
0.0
100
AcDbText
 73
2
  0
TEXT
  5
A2
330
17
100
AcDbEntity
  8
LABEL_ID
100
AcDbText
 10
43.9875
 20
4.3
 30
0.0
 40
0.55
  1
cuffs(wide) 右
 72
1
 11
43.9875
 21
4.3
 31
0.0
100
AcDbText
 73
2
  0
LWPOLYLINE
  5
A3
330
17
100
AcDbEntity
  8
CUT_LINE
100
AcDbPolyline
 90
4
 70
1
 10
23.766666666666666
 20
189.9001661244962
 10
0.0
 20
127.9001661244962
 10
82.908576510189
 20
127.9001661244962
 10
59.14190984352231
 20
189.9001661244962
  0
LWPOLYLINE
  5
A4
330
17
100
AcDbEntity
  8
STITCH_LINE
  6
DASHED
100
AcDbPolyline
 90
4
 70
1
 10
24.45428825509449
 20
188.9001661244962
 10
58.45428825509449
 20
188.9001661244962
 10
81.4542882550945
 20
128.9001661244962
 10
1.4542882550944913
 20
128.9001661244962
  0
LINE
  5
A5
330
17
100
AcDbEntity
  8
NOTCH
100
AcDbLine
 10
24.45428825509449
 20
188.9001661244962
 30
0.0
 11
24.45428825509449
 21
189.9001661244962
 31
0.0
  0
LINE
  5
A6
330
17
100
AcDbEntity
  8
GRAINLINE
100
AcDbLine
 10
41.45428825509449
 20
184.10016612449618
 30
0.0
 11
41.45428825509449
 21
133.7001661244962
 31
0.0
  0
LINE
  5
A7
330
17
100
AcDbEntity
  8
GRAINLINE
100
AcDbLine
 10
39.95428825509449
 20
182.60016612449618
 30
0.0
 11
41.45428825509449
 21
184.10016612449618
 31
0.0
  0
LINE
  5
A8
330
17
100
AcDbEntity
  8
GRAINLINE
100
AcDbLine
 10
42.95428825509449
 20
182.60016612449618
 30
0.0
 11
41.45428825509449
 21
184.10016612449618
 31
0.0
  0
LINE
  5
A9
330
17
100
AcDbEntity
  8
GRAINLINE
100
AcDbLine
 10
39.95428825509449
 20
135.2001661244962
 30
0.0
 11
41.45428825509449
 21
133.7001661244962
 31
0.0
  0
LINE
  5
AA
330
17
100
AcDbEntity
  8
GRAINLINE
100
AcDbLine
 10
42.95428825509449
 20
135.2001661244962
 30
0.0
 11
41.45428825509449
 21
133.7001661244962
 31
0.0
  0
TEXT
  5
AB
330
17
100
AcDbEntity
  8
LABEL
100
AcDbText
 10
41.4542882550945
 20
158.9001661244962
 30
0.0
 40
0.9
  1
スカート（フレア） 前
 72
1
 11
41.4542882550945
 21
158.9001661244962
 31
0.0
100
AcDbText
 73
2
  0
TEXT
  5
AC
330
17
100
AcDbEntity
  8
LABEL_ID
100
AcDbText
 10
41.4542882550945
 20
157.7001661244962
 30
0.0
 40
0.55
  1
skirt(flare) 前
 72
1
 11
41.4542882550945
 21
157.7001661244962
 31
0.0
100
AcDbText
 73
2
  0
LWPOLYLINE
  5
AD
330
17
100
AcDbEntity
  8
CUT_LINE
100
AcDbPolyline
 90
4
 70
1
 10
23.766666666666666
 20
127.6001661244962
 10
0.0
 20
65.6001661244962
 10
82.908576510189
 20
65.6001661244962
 10
59.14190984352231
 20
127.6001661244962
  0
LWPOLYLINE
  5
AE
330
17
100
AcDbEntity
  8
STITCH_LINE
  6
DASHED
100
AcDbPolyline
 90
4
 70
1
 10
24.45428825509449
 20
126.6001661244962
 10
58.45428825509449
 20
126.6001661244962
 10
81.4542882550945
 20
66.6001661244962
 10
1.4542882550944913
 20
66.6001661244962
  0
LINE
  5
AF
330
17
100
AcDbEntity
  8
NOTCH
100
AcDbLine
 10
24.45428825509449
 20
126.6001661244962
 30
0.0
 11
24.45428825509449
 21
127.6001661244962
 31
0.0
  0
LINE
  5
B0
330
17
100
AcDbEntity
  8
GRAINLINE
100
AcDbLine
 10
41.45428825509449
 20
121.8001661244962
 30
0.0
 11
41.45428825509449
 21
71.4001661244962
 31
0.0
  0
LINE
  5
B1
330
17
100
AcDbEntity
  8
GRAINLINE
100
AcDbLine
 10
39.95428825509449
 20
120.3001661244962
 30
0.0
 11
41.45428825509449
 21
121.8001661244962
 31
0.0
  0
LINE
  5
B2
330
17
100
AcDbEntity
  8
GRAINLINE
100
AcDbLine
 10
42.95428825509449
 20
120.3001661244962
 30
0.0
 11
41.45428825509449
 21
121.8001661244962
 31
0.0
  0
LINE
  5
B3
330
17
100
AcDbEntity
  8
GRAINLINE
100
AcDbLine
 10
39.95428825509449
 20
72.9001661244962
 30
0.0
 11
41.45428825509449
 21
71.4001661244962
 31
0.0
  0
LINE
  5
B4
330
17
100
AcDbEntity
  8
GRAINLINE
100
AcDbLine
 10
42.95428825509449
 20
72.9001661244962
 30
0.0
 11
41.45428825509449
 21
71.4001661244962
 31
0.0
  0
TEXT
  5
B5
330
17
100
AcDbEntity
  8
LABEL
100
AcDbText
 10
41.4542882550945
 20
96.6001661244962
 30
0.0
 40
0.9
  1
スカート（フレア） 後
 72
1
 11
41.4542882550945
 21
96.6001661244962
 31
0.0
100
AcDbText
 73
2
  0
TEXT
  5
B6
330
17
100
AcDbEntity
  8
LABEL_ID
100
AcDbText
 10
41.4542882550945
 20
95.4001661244962
 30
0.0
 40
0.55
  1
skirt(flare) 後
 72
1
 11
41.4542882550945
 21
95.4001661244962
 31
0.0
100
AcDbText
 73
2
  0
LWPOLYLINE
  5
B7
330
17
100
AcDbEntity
  8
CUT_LINE
100
AcDbPolyline
 90
68
 70
1
 10
71.41997123091383
 20
63.744380286683935
 10
71.35161239387755
 20
60.976563259469515
 10
71.32960432826222
 20
59.17959530749846
 10
71.33019251770511
 20
57.40767940555682
 10
71.35298004441646
 20
55.6607549689748
 10
71.39757003201174
 20
53.93876157556045
 10
71.46356564102805
 20
52.24163896736886
 10
71.55057006439237
 20
50.56932705204764
 10
71.65818652288011
 20
48.92176590373532
 10
71.78601826060581
 20
47.298895763487934
 10
71.93366854059215
 20
45.70065703921452
 10
72.10074064046714
 20
44.126990305101856
 10
72.28683784834385
 20
42.57783630051455
 10
72.4915634589407
 20
41.05313592835782
 10
72.71452077000441
 20
39.55283025289586
 10
72.9553130791018
 20
38.07686049702164
 10
73.21354368084998
 20
36.625168038980746
 10
73.4888158646589
 20
35.197694408554014
 10
73.78073291306256
 20
33.79438128271377
 10
74.08889810071986
 20
32.4151704807698
 10
74.41291469416811
 20
31.06000395903237
 10
74.75238595241576
 20
29.728823805022557
 10
75.10691512846329
 20
28.421572231271256
 10
75.47610547184358
 20
27.138191568754024
 10
75.85956023227614
 20
25.87862426001658
 10
76.25688266452998
 20
24.642812852057716
 10
76.6676760345931
 20
23.430699989042836
 10
77.09154362724757
 20
22.24222840493161
 10
77.52808875515065
 20
21.07734091611377
 10
77.97691476952303
 20
19.935980414159047
 10
78.43762507254694
 20
18.818089858796895
 10
78.90982313157797
 20
17.723612271253188
 10
79.70705726012795
 20
15.956690186507672
 10
85.32987380860357
 20
16.90761964730777
 10
87.72615710599877
 20
17.289310077213685
 10
90.08777692973757
 20
17.640633754014175
 10
92.40234932657017
 20
17.952980652456148
 10
94.6584750577216
 20
18.2179601885598
 10
96.84818999792671
 20
18.427593527651226
 10
97.90837310020326
 20
18.508561366814263
 10
99.89615681236957
 20
18.63113356809086
 10
99.89615681236957
 20
57.83794564431409
 10
99.65248238225433
 20
58.28723989221814
 10
99.48816464121133
 20
58.54744307513596
 10
99.13857123004699
 20
59.001494632244714
 10
98.72237919362789
 20
59.43293250879864
 10
98.25514141854039
 20
59.83164160532539
 10
97.74065933976343
 20
60.20095685155971
 10
97.18155828833314
 20
60.54396614285304
 10
96.5797679947247
 20
60.863271028721385
 10
95.93686368504231
 20
61.16096416740615
 10
95.25427551433698
 20
61.438696298188916
 10
94.533404496358
 20
61.69776544509776
 10
93.77568045201524
 20
61.939199815514414
 10
92.98258689848359
 20
62.163825541807626
 10
92.1556683061613
 20
62.37231880888473
 10
91.29652861518639
 20
62.565244779447724
 10
90.40682588645822
 20
62.743086244484346
 10
89.48826564097803
 20
62.90626459429083
 10
88.54259415223933
 20
63.05515516402684
 10
87.57159226280604
 20
63.1900984954826
 10
86.57706993520222
 20
63.31140864178403
 10
85.55745069688462
 20
63.41974172800397
 10
83.47114271926434
 20
63.59644118925303
 10
81.3167495637787
 20
63.72329713644055
 10
79.11331392910267
 20
63.8019514104181
 10
76.87618762488886
 20
63.8342879302848
 10
74.6208147708718
 20
63.82213503534368
  0
LWPOLYLINE
  5
B8
330
17
100
AcDbEntity
  8
STITCH_LINE
  6
DASHED
100
AcDbPolyline
 90
69
 70
1
 10
72.39615681236957
 20
62.767798737299515
 10
72.35146119328178
 20
60.958094229199276
 10
72.32960636094595
 20
59.17363783990834
 10
72.33019035275328
 20
57.4143672808699
 10
72.35281120609505
 20
55.68022026352719
 10
72.3970669583625
 20
53.971134499323455
 10
72.46255564694688
 20
52.28704769970187
 10
72.54887530923942
 20
50.62789757610568
 10
72.65562398263138
 20
48.99362183997809
 10
72.78239970451402
 20
47.384158202762336
 10
72.92880051227856
 20
45.79944437590163
 10
73.09442444331626
 20
44.23941807083921
 10
73.27886953501836
 20
42.70401699901828
 10
73.48173382477613
 20
41.193178871882026
 10
73.70261534998079
 20
39.70684140087374
 10
73.94111214802359
 20
38.24494229743658
 10
74.19682225629579
 20
36.80741927301381
 10
74.46934371218863
 20
35.3942100390486
 10
74.75827455309336
 20
34.00525230698423
 10
75.06321281640122
 20
32.64048378826388
 10
75.38375653950347
 20
31.29984219433078
 10
75.71950375979134
 20
29.983265236628142
 10
76.0700525146561
 20
28.690690626599178
 10
76.43500084148897
 20
27.422056075687152
 10
76.81394677768121
 20
26.177299295335246
 10
77.20648836062406
 20
24.956357996986668
 10
77.61222362770879
 20
23.759169892084685
 10
78.03075061632661
 20
22.585672692072478
 10
78.4616673638688
 20
21.435804108393285
 10
78.90457190772659
 20
20.309501852490314
 10
79.35906228529123
 20
19.206703635806775
 10
79.82473653395397
 20
18.127347169785935
 10
80.30119269110605
 20
17.071370165870945
 10
85.16784345721798
 20
17.894417040870962
 10
87.57393012329945
 20
18.277668993995945
 10
89.94733032901149
 20
18.630745165870962
 10
92.27714858756434
 20
18.945149462745945
 10
94.55248941216817
 20
19.21238579087094
 10
96.76245731603318
 20
19.423958056495962
 10
97.83952158306681
 20
19.50621513657407
 10
98.89615681236957
 20
19.571370165870945
 10
98.89615681236957
 20
57.58422730872809
 10
98.78925367897723
 20
57.7813385234476
 10
98.6674600655434
 20
57.974203187198384
 10
98.3801961190102
 20
58.34730130077608
 10
98.03635441368792
 20
58.70373852742577
 10
97.63792439049456
 20
59.04373174511201
 10
97.18689549034808
 20
59.36749783179937
 10
96.68525715416644
 20
59.67525366545243
 10
96.13499882286762
 20
59.9672161240357
 10
95.53810993736957
 20
60.2436020855138
 10
94.89657993859026
 20
60.50462842785129
 10
94.21239826744768
 20
60.7505120290127
 10
93.48755436485979
 20
60.98146976696262
 10
92.72403767174457
 20
61.197718519665585
 10
91.92383762901996
 20
61.399475165086216
 10
91.08894367760394
 20
61.586956581189014
 10
90.22134525841449
 20
61.7603796459386
 10
89.32303181236956
 20
61.91996123729952
 10
88.39599278038715
 20
62.06591823323632
 10
87.44221760338519
 20
62.19846751171359
 10
86.46369572228167
 20
62.31782595069586
 10
85.46241657799456
 20
62.42421042814773
 10
83.39954426354144
 20
62.598925010318496
 10
81.26951618736956
 20
62.724346281942374
 10
79.08824787682269
 20
62.8022092667359
 10
76.87165485924456
 20
62.834248988415595
 10
74.63565266197894
 20
62.82220047069795
 10
72.39615681236957
 20
62.767798737299515
  0
LINE
  5
B9
330
17
100
AcDbEntity
  8
NOTCH
100
AcDbLine
 10
72.39615681236957
 20
62.767798737299515
 30
0.0
 11
71.39646166219798
 21
62.792488952434624
 31
0.0
  0
LINE
  5
BA
330
17
100
AcDbEntity
  8
NOTCH
100
AcDbLine
 10
98.89615681236957
 20
19.69593365162217
 30
0.0
 11
99.89615681236957
 21
19.69593365162217
 31
0.0
  0
LINE
  5
BB
330
17
100
AcDbEntity
  8
GRAINLINE
100
AcDbLine
 10
80.8309025054015
 20
59.09367923839804
 30
0.0
 11
80.8309025054015
 21
20.807278453894526
 31
0.0
  0
LINE
  5
BC
330
17
100
AcDbEntity
  8
GRAINLINE
100
AcDbLine
 10
79.45801614072516
 20
57.720792873721706
 30
0.0
 11
80.8309025054015
 21
59.09367923839804
 31
0.0
  0
LINE
  5
BD
330
17
100
AcDbEntity
  8
GRAINLINE
100
AcDbLine
 10
82.20378887007784
 20
57.720792873721706
 30
0.0
 11
80.8309025054015
 21
59.09367923839804
 31
0.0
  0
LINE
  5
BE
330
17
100
AcDbEntity
  8
GRAINLINE
100
AcDbLine
 10
79.45801614072516
 20
22.18016481857086
 30
0.0
 11
80.8309025054015
 21
20.807278453894526
 31
0.0
  0
LINE
  5
BF
330
17
100
AcDbEntity
  8
GRAINLINE
100
AcDbLine
 10
82.20378887007784
 20
22.18016481857086
 30
0.0
 11
80.8309025054015
 21
20.807278453894526
 31
0.0
  0
TEXT
  5
C0
330
17
100
AcDbEntity
  8
LABEL
100
AcDbText
 10
85.6128805703159
 20
39.89548905839624
 30
0.0
 40
0.9
  1
フード 左
 72
1
 11
85.6128805703159
 21
39.89548905839624
 31
0.0
100
AcDbText
 73
2
  0
TEXT
  5
C1
330
17
100
AcDbEntity
  8
LABEL_ID
100
AcDbText
 10
85.6128805703159
 20
38.695489058396234
 30
0.0
 40
0.55
  1
hood 左
 72
1
 11
85.6128805703159
 21
38.695489058396234
 31
0.0
100
AcDbText
 73
2
  0
LWPOLYLINE
  5
C2
330
17
100
AcDbEntity
  8
CUT_LINE
100
AcDbPolyline
 90
68
 70
1
 10
100.14375675144431
 20
63.44438028668392
 10
100.07539791440803
 20
60.6765632594695
 10
100.0533898487927
 20
58.87959530749845
 10
100.0539780382356
 20
57.10767940555681
 10
100.07676556494694
 20
55.36075496897479
 10
100.12135555254223
 20
53.63876157556044
 10
100.18735116155854
 20
51.941638967368846
 10
100.27435558492286
 20
50.26932705204763
 10
100.3819720434106
 20
48.62176590373531
 10
100.5098037811363
 20
46.99889576348792
 10
100.65745406112264
 20
45.40065703921451
 10
100.82452616099762
 20
43.826990305101845
 10
101.01062336887433
 20
42.27783630051454
 10
101.21534897947119
 20
40.75313592835781
 10
101.4383062905349
 20
39.25283025289585
 10
101.67909859963228
 20
37.77686049702163
 10
101.93732920138046
 20
36.325168038980735
 10
102.21260138518939
 20
34.897694408554
 10
102.50451843359305
 20
33.49438128271376
 10
102.81268362125036
 20
32.11517048076979
 10
103.13670021469859
 20
30.76000395903236
 10
103.47617147294625
 20
29.428823805022546
 10
103.83070064899377
 20
28.121572231271244
 10
104.19989099237407
 20
26.838191568754013
 10
104.58334575280662
 20
25.578624260016568
 10
104.98066818506047
 20
24.342812852057705
 10
105.39146155512358
 20
23.130699989042824
 10
105.81532914777804
 20
21.942228404931598
 10
106.25187427568113
 20
20.777340916113758
 10
106.70070029005353
 20
19.635980414159036
 10
107.16141059307742
 20
18.518089858796884
 10
107.63360865210845
 20
17.423612271253177
 10
108.43084278065844
 20
15.65669018650766
 10
114.05365932913405
 20
16.607619647307757
 10
116.44994262652925
 20
16.989310077213673
 10
118.81156245026806
 20
17.340633754014164
 10
121.12613484710067
 20
17.652980652456137
 10
123.3822605782521
 20
17.91796018855979
 10
125.5719755184572
 20
18.127593527651214
 10
126.63215862073375
 20
18.20856136681425
 10
128.61994233290005
 20
18.33113356809085
 10
128.61994233290005
 20
57.53794564431408
 10
128.37626790278483
 20
57.98723989221813
 10
128.2119501617418
 20
58.24744307513595
 10
127.86235675057748
 20
58.7014946322447
 10
127.44616471415837
 20
59.13293250879863
 10
126.97892693907087
 20
59.531641605325376
 10
126.4644448602939
 20
59.9009568515597
 10
125.90534380886362
 20
60.243966142853026
 10
125.30355351525517
 20
60.563271028721374
 10
124.6606492055728
 20
60.86096416740614
 10
123.97806103486747
 20
61.138696298188904
 10
123.25719001688849
 20
61.39776544509775
 10
122.49946597254572
 20
61.63919981551442
 10
121.70637241901407
 20
61.863825541807614
 10
120.87945382669179
 20
62.07231880888472
 10
120.02031413571687
 20
62.26524477944771
 10
119.1306114069887
 20
62.443086244484334
 10
118.21205116150851
 20
62.60626459429082
 10
117.26637967276982
 20
62.75515516402683
 10
116.2953777833365
 20
62.89009849548259
 10
115.3008554557327
 20
63.011408641784016
 10
114.2812362174151
 20
63.11974172800396
 10
112.19492823979482
 20
63.29644118925302
 10
110.04053508430918
 20
63.42329713644054
 10
107.83709944963314
 20
63.50195141041809
 10
105.59997314541934
 20
63.53428793028479
 10
103.34460029140229
 20
63.522135035343666
  0
LWPOLYLINE
  5
C3
330
17
100
AcDbEntity
  8
STITCH_LINE
  6
DASHED
100
AcDbPolyline
 90
69
 70
1
 10
101.11994233290005
 20
62.4677987372995
 10
101.07524671381226
 20
60.658094229199264
 10
101.05339188147643
 20
58.873637839908326
 10
101.05397587328376
 20
57.114367280869885
 10
101.07659672662554
 20
55.38022026352718
 10
101.12085247889299
 20
53.67113449932344
 10
101.18634116747737
 20
51.98704769970186
 10
101.2726608297699
 20
50.32789757610567
 10
101.37940950316187
 20
48.69362183997808
 10
101.5061852250445
 20
47.084158202762325
 10
101.65258603280904
 20
45.49944437590162
 10
101.81820996384674
 20
43.939418070839196
 10
102.00265505554884
 20
42.40401699901827
 10
102.20551934530661
 20
40.893178871882014
 10
102.42640087051127
 20
39.40684140087373
 10
102.66489766855408
 20
37.94494229743657
 10
102.92060777682627
 20
36.507419273013795
 10
103.19312923271912
 20
35.09421003904859
 10
103.48206007362384
 20
33.70525230698422
 10
103.7869983369317
 20
32.34048378826387
 10
104.10754206003395
 20
30.999842194330768
 10
104.44328928032184
 20
29.68326523662813
 10
104.79383803518658
 20
28.390690626599167
 10
105.15878636201944
 20
27.12205607568714
 10
105.5377322982117
 20
25.877299295335234
 10
105.93027388115455
 20
24.656357996986657
 10
106.33600914823927
 20
23.459169892084674
 10
106.7545361368571
 20
22.285672692072467
 10
107.18545288439928
 20
21.135804108393273
 10
107.62835742825708
 20
20.009501852490303
 10
108.08284780582171
 20
18.906703635806764
 10
108.54852205448445
 20
17.827347169785924
 10
109.02497821163654
 20
16.771370165870934
 10
113.89162897774847
 20
17.59441704087095
 10
116.29771564382993
 20
17.977668993995934
 10
118.67111584954199
 20
18.33074516587095
 10
121.00093410809482
 20
18.645149462745934
 10
123.27627493269866
 20
18.91238579087093
 10
125.48624283656366
 20
19.12395805649595
 10
126.5633071035973
 20
19.20621513657406
 10
127.61994233290005
 20
19.271370165870934
 10
127.61994233290005
 20
57.28422730872808
 10
127.51303919950772
 20
57.48133852344759
 10
127.39124558607388
 20
57.67420318719837
 10
127.10398163954068
 20
58.04730130077607
 10
126.7601399342184
 20
58.40373852742576
 10
126.36170991102505
 20
58.743731745112
 10
125.91068101087856
 20
59.06749783179936
 10
125.40904267469692
 20
59.37525366545242
 10
124.8587843433981
 20
59.66721612403569
 10
124.26189545790005
 20
59.94360208551379
 10
123.62036545912075
 20
60.204628427851276
 10
122.93618378797817
 20
60.450512029012685
 10
122.21133988539027
 20
60.68146976696261
 10
121.44782319227505
 20
60.897718519665574
 10
120.64762314955044
 20
61.099475165086204
 10
119.81272919813442
 20
61.286956581189
 10
118.94513077894497
 20
61.46037964593859
 10
118.04681733290005
 20
61.61996123729952
 10
117.11977830091763
 20
61.765918233236306
 10
116.16600312391567
 20
61.89846751171356
 10
115.18748124281215
 20
62.01782595069585
 10
114.18620209852506
 20
62.12421042814772
 10
112.12332978407193
 20
62.298925010318484
 10
109.99330170790005
 20
62.42434628194236
 10
107.81203339735318
 20
62.50220926673589
 10
105.59544037977506
 20
62.534248988415584
 10
103.35943818250942
 20
62.52220047069794
 10
101.11994233290005
 20
62.4677987372995
  0
LINE
  5
C4
330
17
100
AcDbEntity
  8
NOTCH
100
AcDbLine
 10
101.11994233290005
 20
62.4677987372995
 30
0.0
 11
100.12024718272846
 21
62.49248895243461
 31
0.0
  0
LINE
  5
C5
330
17
100
AcDbEntity
  8
NOTCH
100
AcDbLine
 10
127.61994233290005
 20
19.39593365162216
 30
0.0
 11
128.61994233290005
 21
19.39593365162216
 31
0.0
  0
LINE
  5
C6
330
17
100
AcDbEntity
  8
GRAINLINE
100
AcDbLine
 10
109.55468802593198
 20
58.79367923839803
 30
0.0
 11
109.55468802593198
 21
20.507278453894514
 31
0.0
  0
LINE
  5
C7
330
17
100
AcDbEntity
  8
GRAINLINE
100
AcDbLine
 10
108.18180166125565
 20
57.420792873721695
 30
0.0
 11
109.55468802593198
 21
58.79367923839803
 31
0.0
  0
LINE
  5
C8
330
17
100
AcDbEntity
  8
GRAINLINE
100
AcDbLine
 10
110.92757439060833
 20
57.420792873721695
 30
0.0
 11
109.55468802593198
 21
58.79367923839803
 31
0.0
  0
LINE
  5
C9
330
17
100
AcDbEntity
  8
GRAINLINE
100
AcDbLine
 10
108.18180166125565
 20
21.880164818570847
 30
0.0
 11
109.55468802593198
 21
20.507278453894514
 31
0.0
  0
LINE
  5
CA
330
17
100
AcDbEntity
  8
GRAINLINE
100
AcDbLine
 10
110.92757439060833
 20
21.880164818570847
 30
0.0
 11
109.55468802593198
 21
20.507278453894514
 31
0.0
  0
TEXT
  5
CB
330
17
100
AcDbEntity
  8
LABEL
100
AcDbText
 10
114.33666609084638
 20
39.595489058396225
 30
0.0
 40
0.9
  1
フード 右
 72
1
 11
114.33666609084638
 21
39.595489058396225
 31
0.0
100
AcDbText
 73
2
  0
TEXT
  5
CC
330
17
100
AcDbEntity
  8
LABEL_ID
100
AcDbText
 10
114.33666609084638
 20
38.39548905839622
 30
0.0
 40
0.55
  1
hood 右
 72
1
 11
114.33666609084638
 21
38.39548905839622
 31
0.0
100
AcDbText
 73
2
  0
LWPOLYLINE
  5
CD
330
17
100
AcDbEntity
  8
CUT_LINE
100
AcDbPolyline
 90
4
 70
1
 10
67.54776963633667
 20
15.356690186507677
 10
67.54776963633667
 20
1.3566901865076773
 10
140.54776963633668
 20
1.3566901865076773
 10
140.54776963633668
 20
15.356690186507677
  0
LWPOLYLINE
  5
CE
330
17
100
AcDbEntity
  8
STITCH_LINE
  6
DASHED
100
AcDbPolyline
 90
4
 70
1
 10
68.54776963633667
 20
14.356690186507677
 10
139.54776963633668
 20
14.356690186507677
 10
139.54776963633668
 20
2.3566901865076773
 10
68.54776963633667
 20
2.3566901865076773
  0
LINE
  5
CF
330
17
100
AcDbEntity
  8
NOTCH
100
AcDbLine
 10
102.54776963633667
 20
14.356690186507677
 30
0.0
 11
102.54776963633667
 21
15.356690186507677
 31
0.0
  0
LINE
  5
D0
330
17
100
AcDbEntity
  8
GRAINLINE
100
AcDbLine
 10
104.04776963633667
 20
13.39669018650767
 30
0.0
 11
104.04776963633667
 21
3.316690186507685
 31
0.0
  0
LINE
  5
D1
330
17
100
AcDbEntity
  8
GRAINLINE
100
AcDbLine
 10
103.64776963633668
 20
12.996690186507664
 30
0.0
 11
104.04776963633667
 21
13.39669018650767
 31
0.0
  0
LINE
  5
D2
330
17
100
AcDbEntity
  8
GRAINLINE
100
AcDbLine
 10
104.44776963633666
 20
12.996690186507664
 30
0.0
 11
104.04776963633667
 21
13.39669018650767
 31
0.0
  0
LINE
  5
D3
330
17
100
AcDbEntity
  8
GRAINLINE
100
AcDbLine
 10
103.64776963633668
 20
3.716690186507691
 30
0.0
 11
104.04776963633667
 21
3.316690186507685
 31
0.0
  0
LINE
  5
D4
330
17
100
AcDbEntity
  8
GRAINLINE
100
AcDbLine
 10
104.44776963633666
 20
3.716690186507691
 30
0.0
 11
104.04776963633667
 21
3.316690186507685
 31
0.0
  0
TEXT
  5
D5
330
17
100
AcDbEntity
  8
LABEL
100
AcDbText
 10
104.04776963633668
 20
8.356690186507677
 30
0.0
 40
0.9
  1
ウエストバンド（ワイド）
 72
1
 11
104.04776963633668
 21
8.356690186507677
 31
0.0
100
AcDbText
 73
2
  0
TEXT
  5
D6
330
17
100
AcDbEntity
  8
LABEL_ID
100
AcDbText
 10
104.04776963633668
 20
7.156690186507677
 30
0.0
 40
0.55
  1
waistband(wide)
 72
1
 11
104.04776963633668
 21
7.156690186507677
 31
0.0
100
AcDbText
 73
2
  0
ENDSEC
  0
SECTION
  2
OBJECTS
  0
DICTIONARY
  5
A
330
0
100
AcDbDictionary
281
1
  3
ACAD_COLOR
350
B
  3
ACAD_GROUP
350
C
  3
ACAD_LAYOUT
350
D
  3
ACAD_MATERIAL
350
E
  3
ACAD_MLEADERSTYLE
350
F
  3
ACAD_MLINESTYLE
350
10
  3
ACAD_PLOTSETTINGS
350
11
  3
ACAD_PLOTSTYLENAME
350
12
  3
ACAD_SCALELIST
350
14
  3
ACAD_TABLESTYLE
350
15
  3
ACAD_VISUALSTYLE
350
16
  3
EZDXF_META
350
2D
  0
DICTIONARY
  5
B
330
A
100
AcDbDictionary
281
1
  0
DICTIONARY
  5
C
330
A
100
AcDbDictionary
281
1
  0
DICTIONARY
  5
D
330
A
100
AcDbDictionary
281
1
  3
Model
350
1A
  3
Layout1
350
1E
  0
DICTIONARY
  5
E
330
A
100
AcDbDictionary
281
1
  3
ByBlock
350
1F
  3
ByLayer
350
20
  3
Global
350
21
  0
DICTIONARY
  5
F
330
A
100
AcDbDictionary
281
1
  3
Standard
350
2C
  0
DICTIONARY
  5
10
330
A
100
AcDbDictionary
281
1
  3
Standard
350
22
  0
DICTIONARY
  5
11
330
A
100
AcDbDictionary
281
1
  0
ACDBDICTIONARYWDFLT
  5
12
330
A
100
AcDbDictionary
281
1
  3
Normal
350
13
100
AcDbDictionaryWithDefault
340
13
  0
ACDBPLACEHOLDER
  5
13
330
12
  0
DICTIONARY
  5
14
330
A
100
AcDbDictionary
281
1
  0
DICTIONARY
  5
15
330
A
100
AcDbDictionary
281
1
  0
DICTIONARY
  5
16
330
A
100
AcDbDictionary
281
1
  0
LAYOUT
  5
1A
330
D
100
AcDbPlotSettings
  1

  4
A3
  6

 40
7.5
 41
20.0
 42
7.5
 43
20.0
 44
420.0
 45
297.0
 46
0.0
 47
0.0
 48
0.0
 49
0.0
140
0.0
141
0.0
142
1.0
143
1.0
 70
1024
 72
1
 73
0
 74
5
  7

 75
16
 76
0
 77
2
 78
300
147
1.0
148
0.0
149
0.0
100
AcDbLayout
  1
Model
 70
1
 71
0
 10
0.0
 20
0.0
 11
420.0
 21
297.0
 12
0.0
 22
0.0
 32
0.0
 14
1e+20
 24
1e+20
 34
1e+20
 15
-1e+20
 25
-1e+20
 35
-1e+20
146
0.0
 13
0.0
 23
0.0
 33
0.0
 16
1.0
 26
0.0
 36
0.0
 17
0.0
 27
1.0
 37
0.0
 76
1
330
17
  0
LAYOUT
  5
1E
330
D
100
AcDbPlotSettings
  1

  4
A3
  6

 40
7.5
 41
20.0
 42
7.5
 43
20.0
 44
420.0
 45
297.0
 46
0.0
 47
0.0
 48
0.0
 49
0.0
140
0.0
141
0.0
142
1.0
143
1.0
 70
0
 72
1
 73
0
 74
5
  7

 75
16
 76
0
 77
2
 78
300
147
1.0
148
0.0
149
0.0
100
AcDbLayout
  1
Layout1
 70
1
 71
1
 10
0.0
 20
0.0
 11
420.0
 21
297.0
 12
0.0
 22
0.0
 32
0.0
 14
1e+20
 24
1e+20
 34
1e+20
 15
-1e+20
 25
-1e+20
 35
-1e+20
146
0.0
 13
0.0
 23
0.0
 33
0.0
 16
1.0
 26
0.0
 36
0.0
 17
0.0
 27
1.0
 37
0.0
 76
1
330
1B
  0
MATERIAL
  5
1F
102
{ACAD_REACTORS
330
E
102
}
330
E
100
AcDbMaterial
  1
ByBlock
  2

 70
0
 40
1.0
 71
1
 41
1.0
 91
-1023410177
 42
1.0
 72
1
  3

 73
1
 74
1
 75
1
 44
0.5
 73
0
 45
1.0
 46
1.0
 77
1
  4

 78
1
 79
1
170
1
 48
1.0
171
1
  6

172
1
173
1
174
1
140
1.0
141
1.0
175
1
  7

176
1
177
1
178
1
143
1.0
179
1
  8

270
1
271
1
272
1
145
1.0
146
1.0
273
1
  9

274
1
275
1
276
1
 42
1.0
 72
1
  3

 73
1
 74
1
 75
1
 94
63
  0
MATERIAL
  5
20
102
{ACAD_REACTORS
330
E
102
}
330
E
100
AcDbMaterial
  1
ByLayer
  2

 70
0
 40
1.0
 71
1
 41
1.0
 91
-1023410177
 42
1.0
 72
1
  3

 73
1
 74
1
 75
1
 44
0.5
 73
0
 45
1.0
 46
1.0
 77
1
  4

 78
1
 79
1
170
1
 48
1.0
171
1
  6

172
1
173
1
174
1
140
1.0
141
1.0
175
1
  7

176
1
177
1
178
1
143
1.0
179
1
  8

270
1
271
1
272
1
145
1.0
146
1.0
273
1
  9

274
1
275
1
276
1
 42
1.0
 72
1
  3

 73
1
 74
1
 75
1
 94
63
  0
MATERIAL
  5
21
102
{ACAD_REACTORS
330
E
102
}
330
E
100
AcDbMaterial
  1
Global
  2

 70
0
 40
1.0
 71
1
 41
1.0
 91
-1023410177
 42
1.0
 72
1
  3

 73
1
 74
1
 75
1
 44
0.5
 73
0
 45
1.0
 46
1.0
 77
1
  4

 78
1
 79
1
170
1
 48
1.0
171
1
  6

172
1
173
1
174
1
140
1.0
141
1.0
175
1
  7

176
1
177
1
178
1
143
1.0
179
1
  8

270
1
271
1
272
1
145
1.0
146
1.0
273
1
  9

274
1
275
1
276
1
 42
1.0
 72
1
  3

 73
1
 74
1
 75
1
 94
63
  0
MLINESTYLE
  5
22
102
{ACAD_REACTORS
330
10
102
}
330
10
100
AcDbMlineStyle
  2
Standard
 70
0
  3

 62
256
 51
90.0
 52
90.0
 71
2
 49
0.5
 62
256
  6
BYLAYER
 49
-0.5
 62
256
  6
BYLAYER
  0
MLEADERSTYLE
  5
2C
102
{ACAD_REACTORS
330
F
102
}
330
F
100
AcDbMLeaderStyle
179
2
170
2
171
1
172
0
 90
2
 40
0.0
 41
0.0
173
1
 91
-1056964608
 92
-2
290
1
 42
2.0
291
1
 43
8.0
  3
Standard
 44
4.0
300

342
29
174
1
175
1
176
0
178
1
 93
-1056964608
 45
4.0
292
0
297
0
 46
4.0
 94
-1056964608
 47
1.0
 49
1.0
140
1.0
294
1
141
0.0
177
0
142
1.0
295
0
296
0
143
3.75
271
0
272
9
273
9
  0
DICTIONARY
  5
2D
330
A
100
AcDbDictionary
280
1
281
1
  3
CREATED_BY_EZDXF
350
2E
  3
WRITTEN_BY_EZDXF
350
D9
  0
DICTIONARYVAR
  5
2E
330
2D
100
DictionaryVariables
280
0
  1
1.4.4 @ 2026-10-10T00:37:43.755626+00:00
  0
DICTIONARYVAR
  5
D9
330
2D
100
DictionaryVariables
280
0
  1
1.4.4 @ 2026-10-10T00:37:43.761270+00:00
  0
ENDSEC
  0
EOF
