  0
SECTION
  2
HEADER
  9
$ACADVER
  1
AC1024
  9
$ACADMAINTVER
 70
6
  9
$DWGCODEPAGE
  3
ANSI_1252
  9
$LASTSAVEDBY
  1
ezdxf
  9
$INSBASE
 10
0.0
 20
0.0
 30
0.0
  9
$EXTMIN
 10
1e+20
 20
1e+20
 30
1e+20
  9
$EXTMAX
 10
-1e+20
 20
-1e+20
 30
-1e+20
  9
$LIMMIN
 10
0.0
 20
0.0
  9
$LIMMAX
 10
420.0
 20
297.0
  9
$ORTHOMODE
 70
0
  9
$REGENMODE
 70
1
  9
$FILLMODE
 70
1
  9
$QTEXTMODE
 70
0
  9
$MIRRTEXT
 70
1
  9
$LTSCALE
 40
1.0
  9
$ATTMODE
 70
1
  9
$TEXTSIZE
 40
2.5
  9
$TRACEWID
 40
1.0
  9
$TEXTSTYLE
  7
Standard
  9
$CLAYER
  8
0
  9
$CELTYPE
  6
ByLayer
  9
$CECOLOR
 62
256
  9
$CELTSCALE
 40
1.0
  9
$DISPSILH
 70
0
  9
$DIMSCALE
 40
1.0
  9
$DIMASZ
 40
2.5
  9
$DIMEXO
 40
0.625
  9
$DIMDLI
 40
3.75
  9
$DIMRND
 40
0.0
  9
$DIMDLE
 40
0.0
  9
$DIMEXE
 40
1.25
  9
$DIMTP
 40
0.0
  9
$DIMTM
 40
0.0
  9
$DIMTXT
 40
2.5
  9
$DIMCEN
 40
2.5
  9
$DIMTSZ
 40
0.0
  9
$DIMTOL
 70
0
  9
$DIMLIM
 70
0
  9
$DIMTIH
 70
0
  9
$DIMTOH
 70
0
  9
$DIMSE1
 70
0
  9
$DIMSE2
 70
0
  9
$DIMTAD
 70
1
  9
$DIMZIN
 70
8
  9
$DIMBLK
  1

  9
$DIMASO
 70
1
  9
$DIMSHO
 70
1
  9
$DIMPOST
  1

  9
$DIMAPOST
  1

  9
$DIMALT
 70
0
  9
$DIMALTD
 70
3
  9
$DIMALTF
 40
0.03937007874
  9
$DIMLFAC
 40
1.0
  9
$DIMTOFL
 70
1
  9
$DIMTVP
 40
0.0
  9
$DIMTIX
 70
0
  9
$DIMSOXD
 70
0
  9
$DIMSAH
 70
0
  9
$DIMBLK1
  1

  9
$DIMBLK2
  1

  9
$DIMSTYLE
  2
ISO-25
  9
$DIMCLRD
 70
0
  9
$DIMCLRE
 70
0
  9
$DIMCLRT
 70
0
  9
$DIMTFAC
 40
1.0
  9
$DIMGAP
 40
0.625
  9
$DIMJUST
 70
0
  9
$DIMSD1
 70
0
  9
$DIMSD2
 70
0
  9
$DIMTOLJ
 70
0
  9
$DIMTZIN
 70
8
  9
$DIMALTZ
 70
0
  9
$DIMALTTZ
 70
0
  9
$DIMUPT
 70
0
  9
$DIMDEC
 70
2
  9
$DIMTDEC
 70
2
  9
$DIMALTU
 70
2
  9
$DIMALTTD
 70
3
  9
$DIMTXSTY
  7
Standard
  9
$DIMAUNIT
 70
0
  9
$DIMADEC
 70
0
  9
$DIMALTRND
 40
0.0
  9
$DIMAZIN
 70
0
  9
$DIMDSEP
 70
44
  9
$DIMATFIT
 70
3
  9
$DIMFRAC
 70
0
  9
$DIMLDRBLK
  1

  9
$DIMLUNIT
 70
2
  9
$DIMLWD
 70
-2
  9
$DIMLWE
 70
-2
  9
$DIMTMOVE
 70
0
  9
$DIMFXL
 40
1.0
  9
$DIMFXLON
 70
0
  9
$DIMJOGANG
 40
0.785398163397
  9
$DIMTFILL
 70
0
  9
$DIMTFILLCLR
 70
0
  9
$DIMARCSYM
 70
0
  9
$DIMLTYPE
  6

  9
$DIMLTEX1
  6

  9
$DIMLTEX2
  6

  9
$DIMTXTDIRECTION
 70
0
  9
$LUNITS
 70
2
  9
$LUPREC
 70
4
  9
$SKETCHINC
 40
1.0
  9
$FILLETRAD
 40
10.0
  9
$AUNITS
 70
0
  9
$AUPREC
 70
2
  9
$MENU
  1
.
  9
$ELEVATION
 40
0.0
  9
$PELEVATION
 40
0.0
  9
$THICKNESS
 40
0.0
  9
$LIMCHECK
 70
0
  9
$CHAMFERA
 40
0.0
  9
$CHAMFERB
 40
0.0
  9
$CHAMFERC
 40
0.0
  9
$CHAMFERD
 40
0.0
  9
$SKPOLY
 70
0
  9
$TDCREATE
 40
2461324.411712963
  9
$TDUCREATE
 40
2458532.153996898
  9
$TDUPDATE
 40
2461324.411712963
  9
$TDUUPDATE
 40
2458532.1544311
  9
$TDINDWG
 40
0.0
  9
$TDUSRTIMER
 40
0.0
  9
$USRTIMER
 70
1
  9
$ANGBASE
 50
0.0
  9
$ANGDIR
 70
0
  9
$PDMODE
 70
0
  9
$PDSIZE
 40
0.0
  9
$PLINEWID
 40
0.0
  9
$SPLFRAME
 70
0
  9
$SPLINETYPE
 70
6
  9
$SPLINESEGS
 70
8
  9
$HANDSEED
  5
14B
  9
$SURFTAB1
 70
6
  9
$SURFTAB2
 70
6
  9
$SURFTYPE
 70
6
  9
$SURFU
 70
6
  9
$SURFV
 70
6
  9
$UCSBASE
  2

  9
$UCSNAME
  2

  9
$UCSORG
 10
0.0
 20
0.0
 30
0.0
  9
$UCSXDIR
 10
1.0
 20
0.0
 30
0.0
  9
$UCSYDIR
 10
0.0
 20
1.0
 30
0.0
  9
$UCSORTHOREF
  2

  9
$UCSORTHOVIEW
 70
0
  9
$UCSORGTOP
 10
0.0
 20
0.0
 30
0.0
  9
$UCSORGBOTTOM
 10
0.0
 20
0.0
 30
0.0
  9
$UCSORGLEFT
 10
0.0
 20
0.0
 30
0.0
  9
$UCSORGRIGHT
 10
0.0
 20
0.0
 30
0.0
  9
$UCSORGFRONT
 10
0.0
 20
0.0
 30
0.0
  9
$UCSORGBACK
 10
0.0
 20
0.0
 30
0.0
  9
$PUCSBASE
  2

  9
$PUCSNAME
  2

  9
$PUCSORG
 10
0.0
 20
0.0
 30
0.0
  9
$PUCSXDIR
 10
1.0
 20
0.0
 30
0.0
  9
$PUCSYDIR
 10
0.0
 20
1.0
 30
0.0
  9
$PUCSORTHOREF
  2

  9
$PUCSORTHOVIEW
 70
0
  9
$PUCSORGTOP
 10
0.0
 20
0.0
 30
0.0
  9
$PUCSORGBOTTOM
 10
0.0
 20
0.0
 30
0.0
  9
$PUCSORGLEFT
 10
0.0
 20
0.0
 30
0.0
  9
$PUCSORGRIGHT
 10
0.0
 20
0.0
 30
0.0
  9
$PUCSORGFRONT
 10
0.0
 20
0.0
 30
0.0
  9
$PUCSORGBACK
 10
0.0
 20
0.0
 30
0.0
  9
$USERI1
 70
0
  9
$USERI2
 70
0
  9
$USERI3
 70
0
  9
$USERI4
 70
0
  9
$USERI5
 70
0
  9
$USERR1
 40
0.0
  9
$USERR2
 40
0.0
  9
$USERR3
 40
0.0
  9
$USERR4
 40
0.0
  9
$USERR5
 40
0.0
  9
$WORLDVIEW
 70
1
  9
$SHADEDGE
 70
3
  9
$SHADEDIF
 70
70
  9
$TILEMODE
 70
1
  9
$MAXACTVP
 70
64
  9
$PINSBASE
 10
0.0
 20
0.0
 30
0.0
  9
$PLIMCHECK
 70
0
  9
$PEXTMIN
 10
1e+20
 20
1e+20
 30
1e+20
  9
$PEXTMAX
 10
-1e+20
 20
-1e+20
 30
-1e+20
  9
$PLIMMIN
 10
0.0
 20
0.0
  9
$PLIMMAX
 10
420.0
 20
297.0
  9
$UNITMODE
 70
0
  9
$VISRETAIN
 70
1
  9
$PLINEGEN
 70
0
  9
$PSLTSCALE
 70
1
  9
$TREEDEPTH
 70
3020
  9
$CMLSTYLE
  2
Standard
  9
$CMLJUST
 70
0
  9
$CMLSCALE
 40
20.0
  9
$PROXYGRAPHICS
 70
1
  9
$MEASUREMENT
 70
1
  9
$CELWEIGHT
370
-1
  9
$ENDCAPS
280
0
  9
$JOINSTYLE
280
0
  9
$LWDISPLAY
290
0
  9
$INSUNITS
 70
5
  9
$HYPERLINKBASE
  1

  9
$STYLESHEET
  1

  9
$XEDIT
290
1
  9
$CEPSNTYPE
380
0
  9
$PSTYLEMODE
290
1
  9
$FINGERPRINTGUID
  2
{4EB4E0B3-7E5F-4E0C-9B6F-3457BD9B80BA}
  9
$VERSIONGUID
  2
{0E65AB1C-4E24-4657-822E-AE41702208E6}
  9
$EXTNAMES
290
1
  9
$PSVPSCALE
 40
0.0
  9
$OLESTARTUP
290
0
  9
$SORTENTS
280
127
  9
$INDEXCTL
280
0
  9
$HIDETEXT
280
1
  9
$XCLIPFRAME
280
1
  9
$HALOGAP
280
0
  9
$OBSCOLOR
 70
257
  9
$OBSLTYPE
280
0
  9
$INTERSECTIONDISPLAY
280
0
  9
$INTERSECTIONCOLOR
 70
257
  9
$DIMASSOC
280
2
  9
$PROJECTNAME
  1

  9
$CAMERADISPLAY
290
0
  9
$LENSLENGTH
 40
50.0
  9
$CAMERAHEIGHT
 40
0.0
  9
$STEPSPERSEC
 40
24.0
  9
$STEPSIZE
 40
100.0
  9
$3DDWFPREC
 40
2.0
  9
$PSOLWIDTH
 40
0.005
  9
$PSOLHEIGHT
 40
0.08
  9
$LOFTANG1
 40
1.570796326795
  9
$LOFTANG2
 40
1.570796326795
  9
$LOFTMAG1
 40
0.0
  9
$LOFTMAG2
 40
0.0
  9
$LOFTPARAM
 70
7
  9
$LOFTNORMALS
280
1
  9
$LATITUDE
 40
37.795
  9
$LONGITUDE
 40
-122.394
  9
$NORTHDIRECTION
 40
0.0
  9
$TIMEZONE
 70
-8000
  9
$LIGHTGLYPHDISPLAY
280
1
  9
$TILEMODELIGHTSYNCH
280
1
  9
$CMATERIAL
347
20
  9
$SOLIDHIST
280
0
  9
$SHOWHIST
280
1
  9
$DWFFRAME
280
2
  9
$DGNFRAME
280
2
  9
$REALWORLDSCALE
290
1
  9
$INTERFERECOLOR
 62
256
  9
$CSHADOW
280
0
  9
$SHADOWPLANELOCATION
 40
0.0
  0
ENDSEC
  0
SECTION
  2
CLASSES
  0
CLASS
  1
ACDBDICTIONARYWDFLT
  2
AcDbDictionaryWithDefault
  3
ObjectDBX Classes
 90
0
 91
0
280
0
281
0
  0
CLASS
  1
SUN
  2
AcDbSun
  3
SCENEOE
 90
1153
 91
0
280
0
281
0
  0
CLASS
  1
VISUALSTYLE
  2
AcDbVisualStyle
  3
ObjectDBX Classes
 90
4095
 91
0
280
0
281
0
  0
CLASS
  1
MATERIAL
  2
AcDbMaterial
  3
ObjectDBX Classes
 90
1153
 91
0
280
0
281
0
  0
CLASS
  1
SCALE
  2
AcDbScale
  3
ObjectDBX Classes
 90
1153
 91
0
280
0
281
0
  0
CLASS
  1
TABLESTYLE
  2
AcDbTableStyle
  3
ObjectDBX Classes
 90
4095
 91
0
280
0
281
0
  0
CLASS
  1
MLEADERSTYLE
  2
AcDbMLeaderStyle
  3
ACDB_MLEADERSTYLE_CLASS
 90
4095
 91
0
280
0
281
0
  0
CLASS
  1
DICTIONARYVAR
  2
AcDbDictionaryVar
  3
ObjectDBX Classes
 90
0
 91
0
280
0
281
0
  0
CLASS
  1
CELLSTYLEMAP
  2
AcDbCellStyleMap
  3
ObjectDBX Classes
 90
1152
 91
0
280
0
281
0
  0
CLASS
  1
MENTALRAYRENDERSETTINGS
  2
AcDbMentalRayRenderSettings
  3
SCENEOE
 90
1024
 91
0
280
0
281
0
  0
CLASS
  1
ACDBDETAILVIEWSTYLE
  2
AcDbDetailViewStyle
  3
ObjectDBX Classes
 90
1025
 91
0
280
0
281
0
  0
CLASS
  1
ACDBSECTIONVIEWSTYLE
  2
AcDbSectionViewStyle
  3
ObjectDBX Classes
 90
1025
 91
0
280
0
281
0
  0
CLASS
  1
RASTERVARIABLES
  2
AcDbRasterVariables
  3
ISM
 90
0
 91
0
280
0
281
0
  0
CLASS
  1
ACDBPLACEHOLDER
  2
AcDbPlaceHolder
  3
ObjectDBX Classes
 90
0
 91
0
280
0
281
0
  0
CLASS
  1
LAYOUT
  2
AcDbLayout
  3
ObjectDBX Classes
 90
0
 91
0
280
0
281
0
  0
ENDSEC
  0
SECTION
  2
TABLES
  0
TABLE
  2
VPORT
  5
8
330
0
100
AcDbSymbolTable
 70
1
  0
VPORT
  5
23
330
8
100
AcDbSymbolTableRecord
100
AcDbViewportTableRecord
  2
*Active
 70
0
 10
0.0
 20
0.0
 11
1.0
 21
1.0
 12
0.0
 22
0.0
 13
0.0
 23
0.0
 14
0.5
 24
0.5
 15
0.5
 25
0.5
 16
0.0
 26
0.0
 36
1.0
 17
0.0
 27
0.0
 37
0.0
 40
1000.0
 41
1.34
 42
50.0
 43
0.0
 44
0.0
 50
0.0
 51
0.0
 71
0
 72
1000
 73
1
 74
3
 75
0
 76
0
 77
0
 78
0
281
0
 65
0
146
0.0
  0
ENDTAB
  0
TABLE
  2
LTYPE
  5
2
330
0
100
AcDbSymbolTable
 70
4
  0
LTYPE
  5
24
330
2
100
AcDbSymbolTableRecord
100
AcDbLinetypeTableRecord
  2
ByBlock
 70
0
  3

 72
65
 73
0
 40
0.0
  0
LTYPE
  5
25
330
2
100
AcDbSymbolTableRecord
100
AcDbLinetypeTableRecord
  2
ByLayer
 70
0
  3

 72
65
 73
0
 40
0.0
  0
LTYPE
  5
26
330
2
100
AcDbSymbolTableRecord
100
AcDbLinetypeTableRecord
  2
Continuous
 70
0
  3

 72
65
 73
0
 40
0.0
  0
LTYPE
  5
2F
330
2
100
AcDbSymbolTableRecord
100
AcDbLinetypeTableRecord
  2
DASHED
 70
0
  3
Dashed
 72
65
 73
2
 40
0.6
 49
0.5
 74
0
 49
-0.1
 74
0
  0
ENDTAB
  0
TABLE
  2
LAYER
  5
1
330
0
100
AcDbSymbolTable
 70
10
  0
LAYER
  5
27
330
1
100
AcDbSymbolTableRecord
100
AcDbLayerTableRecord
  2
0
 70
0
 62
7
  6
Continuous
370
-3
390
13
347
21
  0
LAYER
  5
28
330
1
100
AcDbSymbolTableRecord
100
AcDbLayerTableRecord
  2
Defpoints
 70
0
 62
7
  6
Continuous
290
0
370
-3
390
13
347
21
  0
LAYER
  5
30
330
1
100
AcDbSymbolTableRecord
100
AcDbLayerTableRecord
  2
CUT_LINE
 70
0
 62
7
  6
Continuous
370
-3
390
13
347
21
  0
LAYER
  5
31
330
1
100
AcDbSymbolTableRecord
100
AcDbLayerTableRecord
  2
STITCH_LINE
 70
0
 62
3
  6
Continuous
370
-3
390
13
347
21
  0
LAYER
  5
32
330
1
100
AcDbSymbolTableRecord
100
AcDbLayerTableRecord
  2
NOTCH
 70
0
 62
1
  6
Continuous
370
-3
390
13
347
21
  0
LAYER
  5
33
330
1
100
AcDbSymbolTableRecord
100
AcDbLayerTableRecord
  2
GRAINLINE
 70
0
 62
5
  6
Continuous
370
-3
390
13
347
21
  0
LAYER
  5
34
330
1
100
AcDbSymbolTableRecord
100
AcDbLayerTableRecord
  2
LABEL
 70
0
 62
8
  6
Continuous
370
-3
390
13
347
21
  0
LAYER
  5
35
330
1
100
AcDbSymbolTableRecord
100
AcDbLayerTableRecord
  2
LABEL_ID
 70
0
 62
8
  6
Continuous
370
-3
390
13
347
21
  0
LAYER
  5
36
330
1
100
AcDbSymbolTableRecord
100
AcDbLayerTableRecord
  2
WARNING
 70
0
 62
1
  6
Continuous
370
-3
390
13
347
21
  0
LAYER
  5
37
330
1
100
AcDbSymbolTableRecord
100
AcDbLayerTableRecord
  2
REFERENCE_LINE
 70
0
 62
6
  6
Continuous
370
-3
390
13
347
21
  0
ENDTAB
  0
TABLE
  2
STYLE
  5
5
330
0
100
AcDbSymbolTable
 70
1
  0
STYLE
  5
29
330
5
100
AcDbSymbolTableRecord
100
AcDbTextStyleTableRecord
  2
Standard
 70
0
 40
0.0
 41
1.0
 50
0.0
 71
0
 42
2.5
  3
txt
  4

  0
ENDTAB
  0
TABLE
  2
VIEW
  5
7
330
0
100
AcDbSymbolTable
 70
0
  0
ENDTAB
  0
TABLE
  2
UCS
  5
6
330
0
100
AcDbSymbolTable
 70
0
  0
ENDTAB
  0
TABLE
  2
APPID
  5
3
330
0
100
AcDbSymbolTable
 70
3
  0
APPID
  5
2A
330
3
100
AcDbSymbolTableRecord
100
AcDbRegAppTableRecord
  2
ACAD
 70
0
  0
APPID
  5
148
330
3
100
AcDbSymbolTableRecord
100
AcDbRegAppTableRecord
  2
HATCHBACKGROUNDCOLOR
 70
0
  0
APPID
  5
149
330
3
100
AcDbSymbolTableRecord
100
AcDbRegAppTableRecord
  2
EZDXF
 70
0
  0
ENDTAB
  0
TABLE
  2
DIMSTYLE
  5
4
330
0
100
AcDbSymbolTable
 70
1
100
AcDbDimStyleTable
  0
DIMSTYLE
105
2B
330
4
100
AcDbSymbolTableRecord
100
AcDbDimStyleTableRecord
  2
Standard
 70
0
 40
1.0
 41
2.5
 42
0.625
 43
3.75
 44
1.25
 45
0.0
 46
0.0
 47
0.0
 48
0.0
 49
2.5
140
2.5
141
2.5
142
0.0
143
0.03937007874
144
1.0
145
0.0
146
1.0
147
0.625
148
0.0
 69
0
 70
0
 71
0
 72
0
 73
0
 74
0
 75
0
 76
0
 77
1
 78
8
 79
3
170
0
171
3
172
1
173
0
174
0
175
0
176
0
177
0
178
0
179
2
271
2
272
2
273
2
274
3
275
0
276
0
277
2
278
44
279
0
280
0
281
0
282
0
283
0
284
8
285
0
286
0
288
0
289
3
290
0
371
-2
372
-2
  0
ENDTAB
  0
TABLE
  2
BLOCK_RECORD
  5
9
330
0
100
AcDbSymbolTable
 70
2
  0
BLOCK_RECORD
  5
17
330
9
100
AcDbSymbolTableRecord
100
AcDbBlockTableRecord
  2
*Model_Space
340
1A
 70
0
280
1
281
0
  0
BLOCK_RECORD
  5
1B
330
9
100
AcDbSymbolTableRecord
100
AcDbBlockTableRecord
  2
*Paper_Space
340
1E
 70
0
280
1
281
0
  0
ENDTAB
  0
ENDSEC
  0
SECTION
  2
BLOCKS
  0
BLOCK
  5
18
330
17
100
AcDbEntity
  8
0
100
AcDbBlockBegin
  2
*Model_Space
 70
0
 10
0.0
 20
0.0
 30
0.0
  3
*Model_Space
  1

  0
ENDBLK
  5
19
330
17
100
AcDbEntity
  8
0
100
AcDbBlockEnd
  0
BLOCK
  5
1C
330
1B
100
AcDbEntity
  8
0
100
AcDbBlockBegin
  2
*Paper_Space
 70
0
 10
0.0
 20
0.0
 30
0.0
  3
*Paper_Space
  1

  0
ENDBLK
  5
1D
330
1B
100
AcDbEntity
  8
0
100
AcDbBlockEnd
  0
ENDSEC
  0
SECTION
  2
ENTITIES
  0
LWPOLYLINE
  5
38
330
17
100
AcDbEntity
  8
CUT_LINE
100
AcDbPolyline
 90
40
 70
1
 10
129.1239901815266
 20
143.30193614976034
 10
128.02489316499106
 20
164.35407377697638
 10
127.62159586092025
 20
172.07884258468914
 10
121.3627027633358
 20
176.41941123772233
 10
129.39923356017403
 20
172.56131987703222
 10
129.99945987101478
 20
173.22142032379855
 10
127.49325273992939
 20
177.37862788526417
 10
121.34044649756146
 20
179.8413356531347
 10
128.8951655463677
 20
178.30554792783482
 10
128.03102455167013
 20
184.37417243393554
 10
127.53108556179916
 20
185.18454441969106
 10
127.13972381685835
 20
185.8331703683474
 10
126.74884211616109
 20
186.49885649447765
 10
126.36324450673094
 20
187.18054710479657
 10
125.9829697498159
 20
187.8819394267851
 10
125.61165801161556
 20
188.59836595662472
 10
125.25419390972971
 20
189.32956807743497
 10
124.91107251510886
 20
190.07734954754972
 10
124.57964070540251
 20
190.85574458039846
 10
124.27046852094527
 20
191.57322034813888
 10
123.99157239312865
 20
192.28574264728684
 10
123.73978676336412
 20
193.00906564974093
 10
123.51691189940198
 20
193.7326623997319
 10
123.32748101552897
 20
194.46654627084604
 10
123.17151823487194
 20
195.21206447145562
 10
123.05347989758215
 20
195.96952025375407
 10
122.97402902047739
 20
196.73939563449073
 10
122.93766548407606
 20
197.520747651128
 10
122.9460547272059
 20
198.31535904800916
 10
123.00192733782046
 20
199.12185533828568
 10
123.10908809251765
 20
199.94176606358656
 10
123.26972545660611
 20
200.77652950731112
 10
123.48684754144126
 20
201.62619140319833
 10
124.05626556440583
 20
203.40221682136345
 10
110.69587220881422
 20
208.80016612449623
 10
103.70154133319288
 20
194.76866945100565
 10
99.34043121238308
 20
194.76866945100565
 10
99.12368375792693
 20
184.04688092769953
 10
98.72493632336563
 20
164.32214792769955
 10
98.3
 20
143.30193614976034
  0
LWPOLYLINE
  5
39
330
17
100
AcDbEntity
  8
STITCH_LINE
  6
DASHED
100
AcDbPolyline
 90
40
 70
1
 10
128.07041992068616
 20
144.30193614976034
 10
127.02625324027314
 20
164.30193645100564
 10
126.64853721096543
 20
171.53672074516734
 10
110.46380310916335
 20
182.7609018271341
 10
128.21961720143707
 20
174.23688136567174
 10
126.81010176645249
 20
176.5749356117239
 10
110.69114979077655
 20
183.02666945100566
 10
127.70532836222546
 20
179.56788211063193
 10
127.07041992068618
 20
184.02666945100566
 10
126.67741992068618
 20
184.6636995623881
 10
126.28041992068617
 20
185.32167010995784
 10
125.88241992068617
 20
185.99947896549452
 10
125.48841992068617
 20
186.69602400077775
 10
125.09941992068619
 20
187.41350947224828
 10
124.71841992068619
 20
188.14862899524496
 10
124.35041992068618
 20
188.9013825697678
 10
123.99641992068618
 20
189.6728723240372
 10
123.66041992068618
 20
190.46199612983276
 10
123.34541992068617
 20
191.19299612983275
 10
123.05341992068617
 20
191.93899612983273
 10
122.78941992068619
 20
192.69740824742047
 10
122.55441992068617
 20
193.4603710742952
 10
122.35341992068618
 20
194.2390754496221
 10
122.18741992068618
 20
195.03257259541448
 10
122.06141992068618
 20
195.84111862173881
 10
121.97641992068617
 20
196.66476475060838
 10
121.93741992068618
 20
197.50276709208973
 10
121.94641992068617
 20
198.3552280902094
 10
122.00641992068617
 20
199.22130141100735
 10
122.12141992068618
 20
200.10119194253673
 10
122.29341992068618
 20
200.99500212882418
 10
122.52541992068618
 20
201.90288563590954
 10
122.82041992068618
 20
202.82299612983275
 10
111.17841992068618
 20
207.52666945100566
 10
104.32041992068618
 20
193.76866945100565
 10
100.32041992068618
 20
193.76866945100565
 10
100.12347948516818
 20
184.02666945100566
 10
99.72473205060686
 20
164.30193645100564
 10
99.32041992068618
 20
144.30193614976034
 10
103.32041992068618
 20
144.30193614976034
  0
LWPOLYLINE
  5
3A
330
17
100
AcDbEntity
  8
STITCH_LINE
  6
DASHED
100
AcDbPolyline
 90
4
 70
1
 10
114.5380449215777
 20
176.30193614976034
 10
116.39724904207341
 20
164.30193614976034
 10
114.5380449215777
 20
152.30193614976034
 10
112.67884080108198
 20
164.30193614976034
  0
LWPOLYLINE
  5
3B
330
17
100
AcDbEntity
  8
REFERENCE_LINE
  6
DASHED
100
AcDbPolyline
 90
2
 70
0
 10
100.52347948516818
 20
184.02666945100566
 10
126.67041992068619
 20
184.02666945100566
  0
LWPOLYLINE
  5
3C
330
17
100
AcDbEntity
  8
REFERENCE_LINE
  6
DASHED
100
AcDbPolyline
 90
2
 70
0
 10
100.124732044517
 20
164.30193614976034
 10
126.62625325600065
 20
164.30193614976034
  0
LWPOLYLINE
  5
3D
330
17
100
AcDbEntity
  8
REFERENCE_LINE
  6
DASHED
100
AcDbPolyline
 90
2
 70
0
 10
99.72044013629237
 20
144.30293614976034
 10
127.67036771235294
 20
144.30293614976034
  0
LWPOLYLINE
  5
3E
330
17
100
AcDbEntity
  8
REFERENCE_LINE
  6
DASHED
100
AcDbPolyline
 90
2
 70
0
 10
104.32041992068618
 20
193.36866945100564
 10
104.32041992068618
 20
144.70193614976034
  0
LWPOLYLINE
  5
3F
330
17
100
AcDbEntity
  8
REFERENCE_LINE
  6
DASHED
100
AcDbPolyline
 90
2
 70
0
 10
103.78251856106164
 20
184.02666945100566
 10
105.78251856106164
 20
184.02666945100566
  0
LWPOLYLINE
  5
40
330
17
100
AcDbEntity
  8
REFERENCE_LINE
  6
DASHED
100
AcDbPolyline
 90
2
 70
0
 10
104.78251856106164
 20
185.02666945100566
 10
104.78251856106164
 20
183.02666945100566
  0
LWPOLYLINE
  5
41
330
17
100
AcDbEntity
  8
REFERENCE_LINE
  6
DASHED
100
AcDbPolyline
 90
2
 70
0
 10
121.75751856106163
 20
184.02666945100566
 10
123.75751856106163
 20
184.02666945100566
  0
LWPOLYLINE
  5
42
330
17
100
AcDbEntity
  8
REFERENCE_LINE
  6
DASHED
100
AcDbPolyline
 90
2
 70
0
 10
122.75751856106163
 20
185.02666945100566
 10
122.75751856106163
 20
183.02666945100566
  0
LINE
  5
43
330
17
100
AcDbEntity
  8
NOTCH
100
AcDbLine
 10
127.17184491430592
 20
161.51326910590066
 30
0.0
 11
128.17048483902386
 21
161.56540643187137
 31
0.0
  0
LINE
  5
44
330
17
100
AcDbEntity
  8
NOTCH
100
AcDbLine
 10
123.01512220695948
 20
192.04901677440182
 30
0.0
 11
123.95953996770297
 21
192.3777645397056
 31
0.0
  0
LINE
  5
45
330
17
100
AcDbEntity
  8
GRAINLINE
100
AcDbLine
 10
109.86862692816025
 20
200.05129191961555
 30
0.0
 11
109.86862692816025
 21
149.14970621670426
 31
0.0
  0
LINE
  5
46
330
17
100
AcDbEntity
  8
GRAINLINE
100
AcDbLine
 10
108.36862692816025
 20
198.55129191961555
 30
0.0
 11
109.86862692816025
 21
200.05129191961555
 31
0.0
  0
LINE
  5
47
330
17
100
AcDbEntity
  8
GRAINLINE
100
AcDbLine
 10
111.36862692816025
 20
198.55129191961555
 30
0.0
 11
109.86862692816025
 21
200.05129191961555
 31
0.0
  0
LINE
  5
48
330
17
100
AcDbEntity
  8
GRAINLINE
100
AcDbLine
 10
108.36862692816025
 20
150.64970621670426
 30
0.0
 11
109.86862692816025
 21
149.14970621670426
 31
0.0
  0
LINE
  5
49
330
17
100
AcDbEntity
  8
GRAINLINE
100
AcDbLine
 10
111.36862692816025
 20
150.64970621670426
 30
0.0
 11
109.86862692816025
 21
149.14970621670426
 31
0.0
  0
TEXT
  5
4A
330
17
100
AcDbEntity
  8
LABEL
100
AcDbText
 10
114.1497299355074
 20
176.0510511371283
 30
0.0
 40
0.9
  1
前身頃・ファスナーパネル（Vネック） 左 [ダーツ2本]
 72
1
 11
114.1497299355074
 21
176.0510511371283
 31
0.0
100
AcDbText
 73
2
  0
TEXT
  5
4B
330
17
100
AcDbEntity
  8
LABEL_ID
100
AcDbText
 10
114.1497299355074
 20
174.8510511371283
 30
0.0
 40
0.55
  1
front_bodice_zip_panel(v_neck) 左 [ダーツ2本]
 72
1
 11
114.1497299355074
 21
174.8510511371283
 31
0.0
100
AcDbText
 73
2
  0
LWPOLYLINE
  5
4C
330
17
100
AcDbEntity
  8
CUT_LINE
100
AcDbPolyline
 90
40
 70
1
 10
114.0325666917156
 20
77.50370617502443
 10
112.93346967518005
 20
98.55584380224047
 10
112.53017237110924
 20
106.28061260995327
 10
106.2712792735248
 20
110.62118126298645
 10
114.30781007036302
 20
106.76308990229634
 10
114.90803638120377
 20
107.42319034906268
 10
112.40182925011838
 20
111.58039791052826
 10
106.24902300775045
 20
114.0431056783988
 10
113.8037420565567
 20
112.50731795309895
 10
112.93960106185912
 20
118.57594245919964
 10
112.43966207198815
 20
119.38631444495519
 10
112.04830032704734
 20
120.03494039361149
 10
111.65741862635008
 20
120.70062651974175
 10
111.27182101691993
 20
121.3823171300607
 10
110.89154626000489
 20
122.08370945204919
 10
110.52023452180455
 20
122.80013598188881
 10
110.1627704199187
 20
123.5313381026991
 10
109.81964902529785
 20
124.27911957281384
 10
109.4882172155915
 20
125.05751460566256
 10
109.17904503113427
 20
125.774990373403
 10
108.90014890331764
 20
126.48751267255093
 10
108.64836327355312
 20
127.21083567500503
 10
108.42548840959097
 20
127.934432424996
 10
108.23605752571797
 20
128.66831629611016
 10
108.08009474506093
 20
129.41383449671974
 10
107.96205640777114
 20
130.1712902790182
 10
107.88260553066638
 20
130.94116565975483
 10
107.84624199426506
 20
131.72251767639213
 10
107.8546312373949
 20
132.51712907327325
 10
107.91050384800945
 20
133.32362536354978
 10
108.01766460270665
 20
134.14353608885068
 10
108.1783019667951
 20
134.97829953257525
 10
108.39542405163026
 20
135.82796142846243
 10
108.96484207459483
 20
137.60398684662758
 10
95.60444871900322
 20
143.00193614976035
 10
88.61011784338187
 20
128.97043947626975
 10
84.24900772257207
 20
128.97043947626975
 10
84.03226026811592
 20
118.24865095296366
 10
83.63351283355462
 20
98.52391795296364
 10
83.20857651018899
 20
77.50370617502443
  0
LWPOLYLINE
  5
4D
330
17
100
AcDbEntity
  8
STITCH_LINE
  6
DASHED
100
AcDbPolyline
 90
40
 70
1
 10
112.97899643087517
 20
78.50370617502443
 10
111.93482975046213
 20
98.50370647626977
 10
111.55711372115442
 20
105.73849077043144
 10
95.37237961935234
 20
116.96267185239819
 10
113.12819371162607
 20
108.43865139093583
 10
111.71867827664148
 20
110.776705636988
 10
95.59972630096554
 20
117.22843947626976
 10
112.61390487241445
 20
113.76965213589602
 10
111.97899643087517
 20
118.22843947626976
 10
111.58599643087517
 20
118.8654695876522
 10
111.18899643087516
 20
119.52344013522196
 10
110.79099643087517
 20
120.20124899075861
 10
110.39699643087516
 20
120.89779402604185
 10
110.00799643087518
 20
121.61527949751238
 10
109.62699643087518
 20
122.35039902050906
 10
109.25899643087517
 20
123.10315259503193
 10
108.90499643087517
 20
123.87464234930133
 10
108.56899643087517
 20
124.66376615509685
 10
108.25399643087516
 20
125.39476615509687
 10
107.96199643087516
 20
126.14076615509686
 10
107.69799643087518
 20
126.8991782726846
 10
107.46299643087517
 20
127.66214109955934
 10
107.26199643087517
 20
128.44084547488623
 10
107.09599643087518
 20
129.23434262067858
 10
106.96999643087517
 20
130.0428886470029
 10
106.88499643087516
 20
130.86653477587248
 10
106.84599643087518
 20
131.70453711735382
 10
106.85499643087516
 20
132.55699811547353
 10
106.91499643087516
 20
133.42307143627147
 10
107.02999643087517
 20
134.30296196780085
 10
107.20199643087517
 20
135.19677215408828
 10
107.43399643087517
 20
136.10465566117364
 10
107.72899643087517
 20
137.02476615509687
 10
96.08699643087517
 20
141.72843947626976
 10
89.22899643087517
 20
127.97043947626975
 10
85.22899643087517
 20
127.97043947626975
 10
85.03205599535717
 20
118.22843947626976
 10
84.63330856079585
 20
98.50370647626977
 10
84.22899643087517
 20
78.50370617502443
 10
88.22899643087517
 20
78.50370617502443
  0
LWPOLYLINE
  5
4E
330
17
100
AcDbEntity
  8
STITCH_LINE
  6
DASHED
100
AcDbPolyline
 90
4
 70
1
 10
99.44662143176669
 20
110.50370617502443
 10
101.3058255522624
 20
98.50370617502443
 10
99.44662143176669
 20
86.50370617502443
 10
97.58741731127097
 20
98.50370617502443
  0
LWPOLYLINE
  5
4F
330
17
100
AcDbEntity
  8
REFERENCE_LINE
  6
DASHED
100
AcDbPolyline
 90
2
 70
0
 10
85.43205599535717
 20
118.22843947626976
 10
111.57899643087518
 20
118.22843947626976
  0
LWPOLYLINE
  5
50
330
17
100
AcDbEntity
  8
REFERENCE_LINE
  6
DASHED
100
AcDbPolyline
 90
2
 70
0
 10
85.033308554706
 20
98.50370617502443
 10
111.53482976618965
 20
98.50370617502443
  0
LWPOLYLINE
  5
51
330
17
100
AcDbEntity
  8
REFERENCE_LINE
  6
DASHED
100
AcDbPolyline
 90
2
 70
0
 10
84.62901664648136
 20
78.50470617502444
 10
112.57894422254194
 20
78.50470617502444
  0
LWPOLYLINE
  5
52
330
17
100
AcDbEntity
  8
REFERENCE_LINE
  6
DASHED
100
AcDbPolyline
 90
2
 70
0
 10
89.22899643087517
 20
127.57043947626977
 10
89.22899643087517
 20
78.90370617502444
  0
LWPOLYLINE
  5
53
330
17
100
AcDbEntity
  8
REFERENCE_LINE
  6
DASHED
100
AcDbPolyline
 90
2
 70
0
 10
88.69109507125063
 20
118.22843947626976
 10
90.69109507125063
 20
118.22843947626976
  0
LWPOLYLINE
  5
54
330
17
100
AcDbEntity
  8
REFERENCE_LINE
  6
DASHED
100
AcDbPolyline
 90
2
 70
0
 10
89.69109507125063
 20
119.22843947626976
 10
89.69109507125063
 20
117.22843947626976
  0
LWPOLYLINE
  5
55
330
17
100
AcDbEntity
  8
REFERENCE_LINE
  6
DASHED
100
AcDbPolyline
 90
2
 70
0
 10
106.66609507125062
 20
118.22843947626976
 10
108.66609507125062
 20
118.22843947626976
  0
LWPOLYLINE
  5
56
330
17
100
AcDbEntity
  8
REFERENCE_LINE
  6
DASHED
100
AcDbPolyline
 90
2
 70
0
 10
107.66609507125062
 20
119.22843947626976
 10
107.66609507125062
 20
117.22843947626976
  0
LINE
  5
57
330
17
100
AcDbEntity
  8
NOTCH
100
AcDbLine
 10
112.08042142449492
 20
95.71503913116476
 30
0.0
 11
113.07906134921285
 21
95.76717645713549
 31
0.0
  0
LINE
  5
58
330
17
100
AcDbEntity
  8
NOTCH
100
AcDbLine
 10
107.92369871714847
 20
126.25078679966595
 30
0.0
 11
108.86811647789196
 21
126.57953456496972
 31
0.0
  0
LINE
  5
59
330
17
100
AcDbEntity
  8
GRAINLINE
100
AcDbLine
 10
94.77720343834925
 20
134.25306194487968
 30
0.0
 11
94.77720343834925
 21
83.35147624196838
 31
0.0
  0
LINE
  5
5A
330
17
100
AcDbEntity
  8
GRAINLINE
100
AcDbLine
 10
93.27720343834925
 20
132.75306194487968
 30
0.0
 11
94.77720343834925
 21
134.25306194487968
 31
0.0
  0
LINE
  5
5B
330
17
100
AcDbEntity
  8
GRAINLINE
100
AcDbLine
 10
96.27720343834925
 20
132.75306194487968
 30
0.0
 11
94.77720343834925
 21
134.25306194487968
 31
0.0
  0
LINE
  5
5C
330
17
100
AcDbEntity
  8
GRAINLINE
100
AcDbLine
 10
93.27720343834925
 20
84.85147624196838
 30
0.0
 11
94.77720343834925
 21
83.35147624196838
 31
0.0
  0
LINE
  5
5D
330
17
100
AcDbEntity
  8
GRAINLINE
100
AcDbLine
 10
96.27720343834925
 20
84.85147624196838
 30
0.0
 11
94.77720343834925
 21
83.35147624196838
 31
0.0
  0
TEXT
  5
5E
330
17
100
AcDbEntity
  8
LABEL
100
AcDbText
 10
99.05830644569639
 20
110.2528211623924
 30
0.0
 40
0.9
  1
前身頃・ファスナーパネル（Vネック） 右 [ダーツ2本]
 72
1
 11
99.05830644569639
 21
110.2528211623924
 31
0.0
100
AcDbText
 73
2
  0
TEXT
  5
5F
330
17
100
AcDbEntity
  8
LABEL_ID
100
AcDbText
 10
99.05830644569639
 20
109.05282116239239
 30
0.0
 40
0.55
  1
front_bodice_zip_panel(v_neck) 右 [ダーツ2本]
 72
1
 11
99.05830644569639
 21
109.05282116239239
 31
0.0
100
AcDbText
 73
2
  0
LWPOLYLINE
  5
60
330
17
100
AcDbEntity
  8
CUT_LINE
100
AcDbPolyline
 90
57
 70
1
 10
88.3034259161567
 20
72.95814080562627
 10
88.75522387808823
 20
71.33312802972071
 10
88.91181097141241
 20
70.65843054540991
 10
89.03690981949619
 20
69.99016950974922
 10
89.13184089074576
 20
69.3281228551921
 10
89.19788608273595
 20
68.67207438599934
 10
89.23629105885055
 20
68.02182207759347
 10
89.2482692728624
 20
67.37718519286148
 10
89.23500725382712
 20
66.73800980545153
 10
89.19767064805097
 20
66.10417250870162
 10
89.13741050966294
 20
65.4755822793174
 10
89.05536938613314
 20
64.85218062924935
 10
88.95268684096813
 20
64.2339402990822
 10
88.83050417095042
 20
63.62086281465943
 10
88.68996818997381
 20
63.01297524858742
 10
88.53223405134196
 20
62.410326509351506
 10
88.35846715726674
 20
61.812983435689944
 10
88.16984425590132
 20
61.221026915146666
 10
87.96920265702208
 20
60.63932837905756
 10
87.52633825105192
 20
59.477665975432785
 10
87.04545313424886
 20
58.34466513739642
 10
86.53430738094035
 20
57.23557483134681
 10
86.00288477064528
 20
56.15110214740395
 10
85.46154316756422
 20
55.092398636117025
 10
84.26906699339982
 20
52.82428428654586
 10
84.53135797319409
 20
38.10833726374062
 10
83.20857651018899
 20
17.085812069291137
 10
132.83837599287878
 20
17.085812069291137
 10
131.51559452987368
 20
38.10833726374062
 10
131.77788550966795
 20
52.82428428654586
 10
130.58540933550364
 20
55.092398636116855
 10
130.04406773242243
 20
56.15110214740406
 10
129.51264512212737
 20
57.23557483134695
 10
129.00149936881897
 20
58.344665137396305
 10
128.52061425201583
 20
59.477665975432814
 10
128.07774984604566
 20
60.639328379057616
 10
127.87710824716642
 20
61.22102691514672
 10
127.6884853458011
 20
61.812983435689745
 10
127.51471845172577
 20
62.41032650935168
 10
127.35698431309399
 20
63.01297524858731
 10
127.21644833211732
 20
63.620862814659574
 10
127.09426566209967
 20
64.2339402990821
 10
126.99158311693462
 20
64.85218062924943
 10
126.90954199340483
 20
65.47558227931736
 10
126.84928185501681
 20
66.10417250870151
 10
126.81194524924064
 20
66.7380098054517
 10
126.79868323020537
 20
67.37718519286148
 10
126.8106614442172
 20
68.02182207759333
 10
126.84906642033184
 20
68.6720743859994
 10
126.915111612322
 20
69.32812285519205
 10
127.01004268357158
 20
69.99016950974928
 10
127.13514153165534
 20
70.65843054540986
 10
127.29172862497954
 20
71.33312802972071
 10
127.74352658691107
 20
72.95814080562627
 10
114.67701994351293
 20
77.20370617502445
 10
108.02347625153388
 20
71.86767667577033
 10
101.36993255955484
 20
77.20370617502445
  0
LWPOLYLINE
  5
61
330
17
100
AcDbEntity
  8
STITCH_LINE
  6
DASHED
100
AcDbPolyline
 90
58
 70
1
 10
89.52347625153388
 20
72.30309696574761
 10
89.72445732667416
 20
71.58021452196255
 10
89.89078074398702
 20
70.86356547470908
 10
90.02375876231883
 20
70.15321498298417
 10
90.12470364051596
 20
69.44922820578478
 10
90.19492763742474
 20
68.75167030210787
 10
90.23574301189153
 20
68.06060643095049
 10
90.24846202276267
 20
67.37610175130953
 10
90.23439692888451
 20
66.69822142218203
 10
90.1948599891034
 20
66.02703060256493
 10
90.13116346226573
 20
65.36259445145524
 10
90.0446196072178
 20
64.7049781278499
 10
89.93654068280598
 20
64.0542467907459
 10
89.80823894787663
 20
63.410465599140224
 10
89.6610266612761
 20
62.77369971202984
 10
89.49621608185073
 20
62.14401428841174
 10
89.31511946844688
 20
61.52147448728286
 10
89.1190490799109
 20
60.906145467640215
 10
88.90931717508911
 20
60.29809238848077
 10
88.45411785197363
 20
59.10407468759939
 10
87.96001956987125
 20
57.939942656614505
 10
87.43752039955275
 20
56.80621756750193
 10
86.89711841178895
 20
55.7034206922375
 10
86.34931167735067
 20
54.63207330279704
 10
85.27347625153388
 20
52.58581206929111
 10
85.53191828051939
 20
38.08581206929114
 10
84.27347625153388
 20
18.085812069291137
 10
131.77347625153388
 20
18.085812069291137
 10
130.51503422254837
 20
38.08581206929114
 10
130.77347625153388
 20
52.58581206929111
 10
129.6976408257171
 20
54.63207330279704
 10
129.14983409127882
 20
55.7034206922375
 10
128.60943210351502
 20
56.80621756750193
 10
128.08693293319652
 20
57.939942656614505
 10
127.59283465109414
 20
59.10407468759939
 10
127.13763532797866
 20
60.29809238848077
 10
126.92790342315689
 20
60.906145467640215
 10
126.7318330346209
 20
61.52147448728286
 10
126.55073642121704
 20
62.14401428841174
 10
126.38592584179167
 20
62.77369971202984
 10
126.23871355519114
 20
63.410465599140224
 10
126.11041182026179
 20
64.0542467907459
 10
126.00233289584997
 20
64.7049781278499
 10
125.91578904080205
 20
65.36259445145524
 10
125.85209251396437
 20
66.02703060256493
 10
125.81255557418326
 20
66.69822142218203
 10
125.7984904803051
 20
67.37610175130953
 10
125.81120949117624
 20
68.06060643095049
 10
125.85202486564303
 20
68.75167030210787
 10
125.92224886255181
 20
69.44922820578478
 10
126.02319374074892
 20
70.15321498298417
 10
126.15617175908075
 20
70.86356547470908
 10
126.32249517639362
 20
71.58021452196255
 10
126.52347625153388
 20
72.30309696574761
 10
114.88147625153388
 20
76.08581206929111
 10
108.02347625153388
 20
70.58581206929111
 10
101.16547625153387
 20
76.08581206929111
 10
89.52347625153388
 20
72.30309696574761
  0
LWPOLYLINE
  5
62
330
17
100
AcDbEntity
  8
STITCH_LINE
  6
DASHED
100
AcDbPolyline
 90
4
 70
1
 10
96.40227516457736
 20
50.08581206929114
 10
98.2533621210991
 20
38.08581206929114
 10
96.40227516457736
 20
26.085812069291137
 10
94.55118820805562
 20
38.08581206929114
  0
LWPOLYLINE
  5
63
330
17
100
AcDbEntity
  8
STITCH_LINE
  6
DASHED
100
AcDbPolyline
 90
4
 70
1
 10
99.40227516457736
 20
50.08581206929114
 10
101.2533621210991
 20
38.08581206929114
 10
99.40227516457736
 20
26.085812069291137
 10
97.55118820805562
 20
38.08581206929114
  0
LWPOLYLINE
  5
64
330
17
100
AcDbEntity
  8
STITCH_LINE
  6
DASHED
100
AcDbPolyline
 90
4
 70
1
 10
116.64467733849041
 20
50.08581206929114
 10
118.49576429501215
 20
38.08581206929114
 10
116.64467733849041
 20
26.085812069291137
 10
114.79359038196867
 20
38.08581206929114
  0
LWPOLYLINE
  5
65
330
17
100
AcDbEntity
  8
STITCH_LINE
  6
DASHED
100
AcDbPolyline
 90
4
 70
1
 10
119.64467733849041
 20
50.08581206929114
 10
121.49576429501215
 20
38.08581206929114
 10
119.64467733849041
 20
26.085812069291137
 10
117.79359038196867
 20
38.08581206929114
  0
LWPOLYLINE
  5
66
330
17
100
AcDbEntity
  8
REFERENCE_LINE
  6
DASHED
100
AcDbPolyline
 90
2
 70
0
 10
85.67347625153388
 20
52.58581206929111
 10
130.37347625153387
 20
52.58581206929111
  0
LWPOLYLINE
  5
67
330
17
100
AcDbEntity
  8
REFERENCE_LINE
  6
DASHED
100
AcDbPolyline
 90
2
 70
0
 10
85.93191828051938
 20
38.08581206929114
 10
130.1150342225484
 20
38.08581206929114
  0
LWPOLYLINE
  5
68
330
17
100
AcDbEntity
  8
REFERENCE_LINE
  6
DASHED
100
AcDbPolyline
 90
2
 70
0
 10
84.67353917363533
 20
18.086812069291113
 10
131.37341332943242
 20
18.086812069291113
  0
LWPOLYLINE
  5
69
330
17
100
AcDbEntity
  8
REFERENCE_LINE
  6
DASHED
100
AcDbPolyline
 90
2
 70
0
 10
108.02347625153388
 20
75.6858120692911
 10
108.02347625153388
 20
18.485812069291114
  0
LINE
  5
6A
330
17
100
AcDbEntity
  8
NOTCH
100
AcDbLine
 10
85.35805442382839
 20
35.322651706137094
 30
0.0
 11
84.36002816038386
 21
35.38544961593459
 31
0.0
  0
LINE
  5
6B
330
17
100
AcDbEntity
  8
NOTCH
100
AcDbLine
 10
130.68889807923938
 20
35.322651706137094
 30
0.0
 11
131.6869243426839
 21
35.38544961593459
 31
0.0
  0
LINE
  5
6C
330
17
100
AcDbEntity
  8
NOTCH
100
AcDbLine
 10
89.17056582237439
 20
61.067820807154476
 30
0.0
 11
88.21776713234851
 21
61.37142360075984
 31
0.0
  0
LINE
  5
6D
330
17
100
AcDbEntity
  8
NOTCH
100
AcDbLine
 10
126.87638668069339
 20
61.067820807154476
 30
0.0
 11
127.82918537071926
 21
61.37142360075984
 31
0.0
  0
LINE
  5
6E
330
17
100
AcDbEntity
  8
NOTCH
100
AcDbLine
 10
89.4055839133287
 20
61.83245610348999
 30
0.0
 11
88.44538618669294
 21
62.11177729094899
 31
0.0
  0
LINE
  5
6F
330
17
100
AcDbEntity
  8
NOTCH
100
AcDbLine
 10
126.64136858973907
 20
61.83245610348999
 30
0.0
 11
127.60156631637483
 21
62.11177729094902
 31
0.0
  0
LINE
  5
70
330
17
100
AcDbEntity
  8
GRAINLINE
100
AcDbLine
 10
100.54222625153389
 20
71.25950636466814
 30
0.0
 11
100.54222625153389
 21
22.70961157323694
 31
0.0
  0
LINE
  5
71
330
17
100
AcDbEntity
  8
GRAINLINE
100
AcDbLine
 10
99.04222625153389
 20
69.75950636466814
 30
0.0
 11
100.54222625153389
 21
71.25950636466814
 31
0.0
  0
LINE
  5
72
330
17
100
AcDbEntity
  8
GRAINLINE
100
AcDbLine
 10
102.04222625153389
 20
69.75950636466814
 30
0.0
 11
100.54222625153389
 21
71.25950636466814
 31
0.0
  0
LINE
  5
73
330
17
100
AcDbEntity
  8
GRAINLINE
100
AcDbLine
 10
99.04222625153389
 20
24.20961157323694
 30
0.0
 11
100.54222625153389
 21
22.70961157323694
 31
0.0
  0
LINE
  5
74
330
17
100
AcDbEntity
  8
GRAINLINE
100
AcDbLine
 10
102.04222625153389
 20
24.20961157323694
 30
0.0
 11
100.54222625153389
 21
22.70961157323694
 31
0.0
  0
TEXT
  5
75
330
17
100
AcDbEntity
  8
LABEL
100
AcDbText
 10
108.02347625153388
 20
47.14475912215778
 30
0.0
 40
0.9
  1
後身頃（Vネック・前開き） [ダーツ4本]
 72
1
 11
108.02347625153388
 21
47.14475912215778
 31
0.0
100
AcDbText
 73
2
  0
TEXT
  5
76
330
17
100
AcDbEntity
  8
LABEL_ID
100
AcDbText
 10
108.02347625153388
 20
45.94475912215778
 30
0.0
 40
0.55
  1
back_bodice(v_neck_zip) [ダーツ4本]
 72
1
 11
108.02347625153388
 21
45.94475912215778
 31
0.0
100
AcDbText
 73
2
  0
LWPOLYLINE
  5
77
330
17
100
AcDbEntity
  8
CUT_LINE
100
AcDbPolyline
 90
67
 70
1
 10
0.0
 20
53.10216604234532
 10
4.3147729692862455
 20
11.600000000000023
 10
31.24262262822996
 20
11.600000000000023
 10
35.557395597516205
 20
53.10216604234532
 10
34.90722752048801
 20
54.20484983315953
 10
34.40736765597345
 20
55.00169755010444
 10
33.8979587988376
 20
55.765313712953855
 10
33.379595751818286
 20
56.49617906677719
 10
32.85287735473849
 20
57.19477107000077
 10
32.318406887773264
 20
57.8615642721025
 10
31.776792423651653
 20
58.497030769128145
 10
31.228647113390227
 20
59.101640731798256
 10
30.674589390712853
 20
59.67586299761285
 10
30.115243081632048
 20
60.22016571497912
 10
29.551237407774533
 20
60.73501702418048
 10
28.983206874877183
 20
61.22088575718857
 10
28.411791041374844
 20
61.67824213608495
 10
27.837634165962978
 20
62.107558448400994
 10
27.261384737261036
 20
62.509309677113976
 10
26.683694892951767
 20
62.88397406344225
 10
26.105219739784904
 20
63.232033581942204
 10
25.526616589343796
 20
63.55397430965181
 10
24.94854412726517
 20
63.85028667398464
 10
24.371661535507236
 20
64.12146556753947
 10
23.79662758818573
 20
64.36801032168506
 10
23.224099741425295
 20
64.59042453442487
 10
22.654733236675177
 20
64.78921575135541
 10
22.089180235151865
 20
64.9648950012469
 10
21.528088998706945
 20
65.1179761896752
 10
20.97210312972839
 20
65.24897535505579
 10
20.421860879953567
 20
65.35840979126493
 10
19.87799453560915
 20
65.4467970397306
 10
19.341129884415
 20
65.5146537514334
 10
18.81188576902296
 20
65.56249441572214
 10
18.290873731764638
 20
65.59082994829538
 10
17.778697798758103
 20
65.60016612449624
 10
17.266521865751567
 20
65.59082994829538
 10
16.745509828493248
 20
65.56249441572214
 10
16.2162657131012
 20
65.5146537514334
 10
15.679401061907043
 20
65.4467970397306
 10
15.135534717562656
 20
65.35840979126493
 10
14.585292467787811
 20
65.24897535505579
 10
14.029306598809262
 20
65.1179761896752
 10
13.468215362364333
 20
64.9648950012469
 10
12.902662360841024
 20
64.78921575135541
 10
12.333295856090901
 20
64.59042453442487
 10
11.760768009330477
 20
64.36801032168506
 10
11.185734062008976
 20
64.12146556753947
 10
10.608851470251057
 20
63.85028667398464
 10
10.030779008172399
 20
63.55397430965181
 10
9.4521758577313
 20
63.232033581942204
 10
8.873700704564442
 20
62.88397406344225
 10
8.296010860255176
 20
62.509309677113976
 10
7.719761431553249
 20
62.107558448400994
 10
7.145604556141375
 20
61.678242136084975
 10
6.574188722638988
 20
61.22088575718854
 10
6.006158189741711
 20
60.73501702418051
 10
5.44215251588413
 20
60.22016571497909
 10
4.88280620680339
 20
59.67586299761288
 10
4.32874848412594
 20
59.10164073179823
 10
3.780603173864538
 20
58.497030769128116
 10
3.238988709742922
 20
57.8615642721025
 10
2.7045182427777092
 20
57.19477107000077
 10
2.1777998456979013
 20
56.49617906677719
 10
1.6594367986785834
 20
55.76531371295383
 10
1.1500279415427341
 20
55.00169755010441
 10
0.6501680770282792
 20
54.20484983315964
  0
LWPOLYLINE
  5
78
330
17
100
AcDbEntity
  8
STITCH_LINE
  6
DASHED
100
AcDbPolyline
 90
67
 70
1
 10
1.0286977987581023
 20
52.87797558281949
 10
1.5045965414338833
 20
53.685098922396634
 10
1.989696333914352
 20
54.45841698525797
 10
2.483383772879196
 20
55.198466363097396
 10
2.985045455008102
 20
55.905783647608814
 10
3.494067976980758
 20
56.580905430486126
 10
4.009837935476852
 20
57.22436830342323
 10
4.531741927176071
 20
57.836708858114065
 10
5.059166548758102
 20
58.418463686252494
 10
5.591498396902633
 20
58.97016937953242
 10
6.1281240682893525
 20
59.49236252964775
 10
6.668430159597946
 20
59.98557972829238
 10
7.2118032675081025
 20
60.45035756716024
 10
7.7576299886995095
 20
60.8872326379452
 10
8.305296919851852
 20
61.2967415323412
 10
8.85419065764482
 20
61.67942084204208
 10
9.403697798758103
 20
62.03580715874179
 10
9.953204939871384
 20
62.36643707413421
 10
10.502098677664353
 20
62.67184717991327
 10
11.049765608816697
 20
62.952574067772844
 10
11.595592330008103
 20
63.20915432940683
 10
12.138965437918259
 20
63.44212455650916
 10
12.679271529226853
 20
63.6520213407737
 10
13.21589720061357
 20
63.83938127389439
 10
13.748229048758102
 20
64.0047409475651
 10
14.275653670340134
 20
64.14863695347972
 10
14.797557662039353
 20
64.2716058833322
 10
15.313327620535446
 20
64.3741843288164
 10
15.822350142508101
 20
64.45690888162625
 10
16.324011824637008
 20
64.52031613345562
 10
16.817699263601853
 20
64.56494267599845
 10
17.30279905608232
 20
64.59132510094861
 10
17.778697798758103
 20
64.60000000000002
 10
18.254596541433884
 20
64.59132510094861
 10
18.739696333914353
 20
64.56494267599845
 10
19.233383772879193
 20
64.52031613345562
 10
19.735045455008105
 20
64.45690888162625
 10
20.244067976980762
 20
64.3741843288164
 10
20.759837935476853
 20
64.2716058833322
 10
21.28174192717607
 20
64.14863695347972
 10
21.809166548758103
 20
64.0047409475651
 10
22.341498396902637
 20
63.83938127389439
 10
22.878124068289353
 20
63.6520213407737
 10
23.418430159597946
 20
63.44212455650916
 10
23.961803267508103
 20
63.20915432940683
 10
24.507629988699506
 20
62.952574067772844
 10
25.055296919851852
 20
62.67184717991327
 10
25.60419065764482
 20
62.36643707413421
 10
26.153697798758103
 20
62.03580715874179
 10
26.703204939871384
 20
61.67942084204208
 10
27.252098677664353
 20
61.2967415323412
 10
27.7997656088167
 20
60.8872326379452
 10
28.345592330008103
 20
60.45035756716024
 10
28.88896543791826
 20
59.98557972829238
 10
29.429271529226853
 20
59.49236252964775
 10
29.96589720061357
 20
58.97016937953242
 10
30.498229048758102
 20
58.418463686252494
 10
31.025653670340134
 20
57.836708858114065
 10
31.547557662039353
 20
57.22436830342323
 10
32.063327620535446
 20
56.580905430486126
 10
32.5723501425081
 20
55.905783647608814
 10
33.074011824637005
 20
55.198466363097396
 10
33.56769926360185
 20
54.45841698525797
 10
34.05279905608232
 20
53.685098922396634
 10
34.5286977987581
 20
52.87797558281949
 10
30.341197798758103
 20
12.600000000000023
 10
5.2161977987581025
 20
12.600000000000023
  0
LINE
  5
79
330
17
100
AcDbEntity
  8
NOTCH
100
AcDbLine
 10
6.58849171777531
 20
59.912608101701466
 30
0.0
 11
5.9143011939191705
 21
60.65116557241217
 31
0.0
  0
LINE
  5
7A
330
17
100
AcDbEntity
  8
NOTCH
100
AcDbLine
 10
28.71166220898672
 20
60.13723723648971
 30
0.0
 11
29.36167077357239
 21
60.89716411847593
 31
0.0
  0
LINE
  5
7B
330
17
100
AcDbEntity
  8
NOTCH
100
AcDbLine
 10
28.09710271202216
 20
60.6492465464502
 30
0.0
 11
28.72198411713511
 21
61.429966233369925
 31
0.0
  0
LINE
  5
7C
330
17
100
AcDbEntity
  8
GRAINLINE
100
AcDbLine
 10
17.778697798758103
 20
60.440000000000026
 30
0.0
 11
17.778697798758103
 21
16.760000000000048
 31
0.0
  0
LINE
  5
7D
330
17
100
AcDbEntity
  8
GRAINLINE
100
AcDbLine
 10
16.278697798758103
 20
58.940000000000026
 30
0.0
 11
17.778697798758103
 21
60.440000000000026
 31
0.0
  0
LINE
  5
7E
330
17
100
AcDbEntity
  8
GRAINLINE
100
AcDbLine
 10
19.278697798758103
 20
58.940000000000026
 30
0.0
 11
17.778697798758103
 21
60.440000000000026
 31
0.0
  0
LINE
  5
7F
330
17
100
AcDbEntity
  8
GRAINLINE
100
AcDbLine
 10
16.278697798758103
 20
18.260000000000048
 30
0.0
 11
17.778697798758103
 21
16.760000000000048
 31
0.0
  0
LINE
  5
80
330
17
100
AcDbEntity
  8
GRAINLINE
100
AcDbLine
 10
19.278697798758103
 20
18.260000000000048
 30
0.0
 11
17.778697798758103
 21
16.760000000000048
 31
0.0
  0
TEXT
  5
81
330
17
100
AcDbEntity
  8
LABEL
100
AcDbText
 10
17.778697798758103
 20
38.60008306224813
 30
0.0
 40
0.9
  1
袖（ストレート） 左
 72
1
 11
17.778697798758103
 21
38.60008306224813
 31
0.0
100
AcDbText
 73
2
  0
TEXT
  5
82
330
17
100
AcDbEntity
  8
LABEL_ID
100
AcDbText
 10
17.778697798758103
 20
37.40008306224813
 30
0.0
 40
0.55
  1
sleeve(straight) 左
 72
1
 11
17.778697798758103
 21
37.40008306224813
 31
0.0
100
AcDbText
 73
2
  0
LWPOLYLINE
  5
83
330
17
100
AcDbEntity
  8
CUT_LINE
100
AcDbPolyline
 90
67
 70
1
 10
35.8573955975162
 20
53.10216604234532
 10
40.17216856680245
 20
11.600000000000023
 10
67.10001822574617
 20
11.600000000000023
 10
71.41479119503241
 20
53.10216604234532
 10
70.76462311800421
 20
54.20484983315953
 10
70.26476325348966
 20
55.00169755010444
 10
69.7553543963538
 20
55.765313712953855
 10
69.23699134933449
 20
56.49617906677719
 10
68.71027295225468
 20
57.19477107000077
 10
68.17580248528947
 20
57.8615642721025
 10
67.63418802116786
 20
58.497030769128145
 10
67.08604271090643
 20
59.101640731798256
 10
66.53198498822906
 20
59.67586299761285
 10
65.97263867914825
 20
60.22016571497912
 10
65.40863300529074
 20
60.73501702418048
 10
64.84060247239339
 20
61.22088575718857
 10
64.26918663889104
 20
61.67824213608495
 10
63.695029763479184
 20
62.107558448400994
 10
63.11878033477724
 20
62.509309677113976
 10
62.541090490467965
 20
62.88397406344225
 10
61.9626153373011
 20
63.232033581942204
 10
61.38401218686
 20
63.55397430965181
 10
60.80593972478137
 20
63.85028667398464
 10
60.22905713302344
 20
64.12146556753947
 10
59.65402318570193
 20
64.36801032168506
 10
59.081495338941494
 20
64.59042453442487
 10
58.51212883419138
 20
64.78921575135541
 10
57.94657583266807
 20
64.9648950012469
 10
57.38548459622315
 20
65.1179761896752
 10
56.82949872724459
 20
65.24897535505579
 10
56.27925647746977
 20
65.35840979126493
 10
55.73539013312535
 20
65.4467970397306
 10
55.1985254819312
 20
65.5146537514334
 10
54.66928136653917
 20
65.56249441572214
 10
54.148269329280836
 20
65.59082994829538
 10
53.636093396274305
 20
65.60016612449624
 10
53.12391746326777
 20
65.59082994829538
 10
52.60290542600945
 20
65.56249441572214
 10
52.0736613106174
 20
65.5146537514334
 10
51.536796659423246
 20
65.4467970397306
 10
50.99293031507886
 20
65.35840979126493
 10
50.44268806530401
 20
65.24897535505579
 10
49.886702196325466
 20
65.1179761896752
 10
49.325610959880535
 20
64.9648950012469
 10
48.76005795835722
 20
64.78921575135541
 10
48.1906914536071
 20
64.59042453442487
 10
47.61816360684668
 20
64.36801032168506
 10
47.04312965952518
 20
64.12146556753947
 10
46.466247067767256
 20
63.85028667398464
 10
45.888174605688604
 20
63.55397430965181
 10
45.3095714552475
 20
63.232033581942204
 10
44.731096302080644
 20
62.88397406344225
 10
44.15340645777138
 20
62.509309677113976
 10
43.577157029069454
 20
62.107558448400994
 10
43.00300015365758
 20
61.678242136084975
 10
42.43158432015519
 20
61.22088575718854
 10
41.86355378725791
 20
60.73501702418051
 10
41.299548113400334
 20
60.22016571497909
 10
40.74020180431959
 20
59.67586299761288
 10
40.18614408164214
 20
59.10164073179823
 10
39.63799877138074
 20
58.497030769128116
 10
39.09638430725912
 20
57.8615642721025
 10
38.56191384029391
 20
57.19477107000077
 10
38.03519544321411
 20
56.49617906677719
 10
37.516832396194786
 20
55.76531371295383
 10
37.007423539058934
 20
55.00169755010441
 10
36.50756367454448
 20
54.20484983315964
  0
LWPOLYLINE
  5
84
330
17
100
AcDbEntity
  8
STITCH_LINE
  6
DASHED
100
AcDbPolyline
 90
67
 70
1
 10
36.886093396274305
 20
52.87797558281949
 10
37.361992138950086
 20
53.685098922396634
 10
37.847091931430555
 20
54.45841698525797
 10
38.340779370395396
 20
55.198466363097396
 10
38.84244105252431
 20
55.905783647608814
 10
39.35146357449696
 20
56.580905430486126
 10
39.867233532993055
 20
57.22436830342323
 10
40.38913752469227
 20
57.836708858114065
 10
40.9165621462743
 20
58.418463686252494
 10
41.44889399441884
 20
58.97016937953242
 10
41.985519665805555
 20
59.49236252964775
 10
42.52582575711415
 20
59.98557972829238
 10
43.069198865024305
 20
60.45035756716024
 10
43.61502558621571
 20
60.8872326379452
 10
44.16269251736806
 20
61.2967415323412
 10
44.71158625516102
 20
61.67942084204208
 10
45.261093396274305
 20
62.03580715874179
 10
45.810600537387586
 20
62.36643707413421
 10
46.35949427518055
 20
62.67184717991327
 10
46.9071612063329
 20
62.952574067772844
 10
47.452987927524305
 20
63.20915432940683
 10
47.99636103543446
 20
63.44212455650916
 10
48.536667126743055
 20
63.6520213407737
 10
49.07329279812977
 20
63.83938127389439
 10
49.60562464627431
 20
64.0047409475651
 10
50.133049267856336
 20
64.14863695347972
 10
50.654953259555555
 20
64.2716058833322
 10
51.17072321805165
 20
64.3741843288164
 10
51.6797457400243
 20
64.45690888162625
 10
52.181407422153214
 20
64.52031613345562
 10
52.675094861118055
 20
64.56494267599845
 10
53.16019465359852
 20
64.59132510094861
 10
53.636093396274305
 20
64.60000000000002
 10
54.111992138950086
 20
64.59132510094861
 10
54.597091931430555
 20
64.56494267599845
 10
55.090779370395396
 20
64.52031613345562
 10
55.59244105252431
 20
64.45690888162625
 10
56.10146357449696
 20
64.3741843288164
 10
56.617233532993055
 20
64.2716058833322
 10
57.13913752469227
 20
64.14863695347972
 10
57.6665621462743
 20
64.0047409475651
 10
58.19889399441884
 20
63.83938127389439
 10
58.735519665805555
 20
63.6520213407737
 10
59.27582575711415
 20
63.44212455650916
 10
59.819198865024305
 20
63.20915432940683
 10
60.36502558621571
 20
62.952574067772844
 10
60.91269251736806
 20
62.67184717991327
 10
61.46158625516102
 20
62.36643707413421
 10
62.011093396274305
 20
62.03580715874179
 10
62.560600537387586
 20
61.67942084204208
 10
63.10949427518055
 20
61.2967415323412
 10
63.6571612063329
 20
60.8872326379452
 10
64.2029879275243
 20
60.45035756716024
 10
64.74636103543446
 20
59.98557972829238
 10
65.28666712674305
 20
59.49236252964775
 10
65.82329279812977
 20
58.97016937953242
 10
66.35562464627431
 20
58.418463686252494
 10
66.88304926785634
 20
57.836708858114065
 10
67.40495325955555
 20
57.22436830342323
 10
67.92072321805165
 20
56.580905430486126
 10
68.4297457400243
 20
55.905783647608814
 10
68.9314074221532
 20
55.198466363097396
 10
69.42509486111805
 20
54.45841698525797
 10
69.91019465359852
 20
53.685098922396634
 10
70.3860933962743
 20
52.87797558281949
 10
66.1985933962743
 20
12.600000000000023
 10
41.073593396274305
 20
12.600000000000023
  0
LINE
  5
85
330
17
100
AcDbEntity
  8
NOTCH
100
AcDbLine
 10
42.445887315291515
 20
59.912608101701466
 30
0.0
 11
41.771696791435375
 21
60.65116557241217
 31
0.0
  0
LINE
  5
86
330
17
100
AcDbEntity
  8
NOTCH
100
AcDbLine
 10
64.56905780650293
 20
60.13723723648971
 30
0.0
 11
65.21906637108859
 21
60.89716411847593
 31
0.0
  0
LINE
  5
87
330
17
100
AcDbEntity
  8
NOTCH
100
AcDbLine
 10
63.954498309538366
 20
60.6492465464502
 30
0.0
 11
64.57937971465131
 21
61.429966233369925
 31
0.0
  0
LINE
  5
88
330
17
100
AcDbEntity
  8
GRAINLINE
100
AcDbLine
 10
53.636093396274305
 20
60.440000000000026
 30
0.0
 11
53.636093396274305
 21
16.760000000000048
 31
0.0
  0
LINE
  5
89
330
17
100
AcDbEntity
  8
GRAINLINE
100
AcDbLine
 10
52.136093396274305
 20
58.940000000000026
 30
0.0
 11
53.636093396274305
 21
60.440000000000026
 31
0.0
  0
LINE
  5
8A
330
17
100
AcDbEntity
  8
GRAINLINE
100
AcDbLine
 10
55.136093396274305
 20
58.940000000000026
 30
0.0
 11
53.636093396274305
 21
60.440000000000026
 31
0.0
  0
LINE
  5
8B
330
17
100
AcDbEntity
  8
GRAINLINE
100
AcDbLine
 10
52.136093396274305
 20
18.260000000000048
 30
0.0
 11
53.636093396274305
 21
16.760000000000048
 31
0.0
  0
LINE
  5
8C
330
17
100
AcDbEntity
  8
GRAINLINE
100
AcDbLine
 10
55.136093396274305
 20
18.260000000000048
 30
0.0
 11
53.636093396274305
 21
16.760000000000048
 31
0.0
  0
TEXT
  5
8D
330
17
100
AcDbEntity
  8
LABEL
100
AcDbText
 10
53.636093396274305
 20
38.60008306224813
 30
0.0
 40
0.9
  1
袖（ストレート） 右
 72
1
 11
53.636093396274305
 21
38.60008306224813
 31
0.0
100
AcDbText
 73
2
  0
TEXT
  5
8E
330
17
100
AcDbEntity
  8
LABEL_ID
100
AcDbText
 10
53.636093396274305
 20
37.40008306224813
 30
0.0
 40
0.55
  1
sleeve(straight) 右
 72
1
 11
53.636093396274305
 21
37.40008306224813
 31
0.0
100
AcDbText
 73
2
  0
LWPOLYLINE
  5
8F
330
17
100
AcDbEntity
  8
CUT_LINE
100
AcDbPolyline
 90
8
 70
1
 10
71.7147911950324
 20
16.785812069291126
 10
71.7147911950324
 20
8.785812069291126
 10
90.7022911950324
 20
8.785812069291126
 10
90.7022911950324
 20
5.785812069291126
 10
106.2647911950324
 20
5.785812069291126
 10
106.2647911950324
 20
10.785812069291126
 10
100.8397911950324
 20
10.785812069291126
 10
100.8397911950324
 20
16.785812069291126
  0
LWPOLYLINE
  5
90
330
17
100
AcDbEntity
  8
STITCH_LINE
  6
DASHED
100
AcDbPolyline
 90
8
 70
1
 10
72.7147911950324
 20
15.785812069291126
 10
99.8397911950324
 20
15.785812069291126
 10
99.8397911950324
 20
9.785812069291126
 10
105.2647911950324
 20
9.785812069291126
 10
105.2647911950324
 20
6.785812069291126
 10
91.7022911950324
 20
6.785812069291126
 10
91.7022911950324
 20
9.785812069291126
 10
72.7147911950324
 20
9.785812069291126
  0
LINE
  5
91
330
17
100
AcDbEntity
  8
NOTCH
100
AcDbLine
 10
86.2772911950324
 20
15.785812069291126
 30
0.0
 11
86.2772911950324
 21
16.785812069291126
 31
0.0
  0
LINE
  5
92
330
17
100
AcDbEntity
  8
GRAINLINE
100
AcDbLine
 10
91.9192911950324
 20
15.065812069291098
 30
0.0
 11
91.9192911950324
 21
7.505812069291153
 31
0.0
  0
LINE
  5
93
330
17
100
AcDbEntity
  8
GRAINLINE
100
AcDbLine
 10
91.75054119503241
 20
14.89706206929111
 30
0.0
 11
91.9192911950324
 21
15.065812069291098
 31
0.0
  0
LINE
  5
94
330
17
100
AcDbEntity
  8
GRAINLINE
100
AcDbLine
 10
92.0880411950324
 20
14.89706206929111
 30
0.0
 11
91.9192911950324
 21
15.065812069291098
 31
0.0
  0
LINE
  5
95
330
17
100
AcDbEntity
  8
GRAINLINE
100
AcDbLine
 10
91.75054119503241
 20
7.674562069291142
 30
0.0
 11
91.9192911950324
 21
7.505812069291153
 31
0.0
  0
LINE
  5
96
330
17
100
AcDbEntity
  8
GRAINLINE
100
AcDbLine
 10
92.0880411950324
 20
7.674562069291142
 30
0.0
 11
91.9192911950324
 21
7.505812069291153
 31
0.0
  0
TEXT
  5
97
330
17
100
AcDbEntity
  8
LABEL
100
AcDbText
 10
88.98979119503241
 20
11.285812069291126
 30
0.0
 40
0.9
  1
カフス（ボタンタブ付き） 左
 72
1
 11
88.98979119503241
 21
11.285812069291126
 31
0.0
100
AcDbText
 73
2
  0
TEXT
  5
98
330
17
100
AcDbEntity
  8
LABEL_ID
100
AcDbText
 10
88.98979119503241
 20
10.085812069291126
 30
0.0
 40
0.55
  1
cuffs(button_tab) 左
 72
1
 11
88.98979119503241
 21
10.085812069291126
 31
0.0
100
AcDbText
 73
2
  0
LWPOLYLINE
  5
99
330
17
100
AcDbEntity
  8
CUT_LINE
100
AcDbPolyline
 90
8
 70
1
 10
0.0
 20
11.300000000000011
 10
0.0
 20
3.3000000000000114
 10
18.9875
 20
3.3000000000000114
 10
18.9875
 20
0.30000000000001137
 10
34.55
 20
0.30000000000001137
 10
34.55
 20
5.300000000000011
 10
29.125
 20
5.300000000000011
 10
29.125
 20
11.300000000000011
  0
LWPOLYLINE
  5
9A
330
17
100
AcDbEntity
  8
STITCH_LINE
  6
DASHED
100
AcDbPolyline
 90
8
 70
1
 10
1.0
 20
10.300000000000011
 10
28.125
 20
10.300000000000011
 10
28.125
 20
4.300000000000011
 10
33.55
 20
4.300000000000011
 10
33.55
 20
1.3000000000000114
 10
19.9875
 20
1.3000000000000114
 10
19.9875
 20
4.300000000000011
 10
1.0
 20
4.300000000000011
  0
LINE
  5
9B
330
17
100
AcDbEntity
  8
NOTCH
100
AcDbLine
 10
14.5625
 20
10.300000000000011
 30
0.0
 11
14.5625
 21
11.300000000000011
 31
0.0
  0
LINE
  5
9C
330
17
100
AcDbEntity
  8
GRAINLINE
100
AcDbLine
 10
20.2045
 20
9.579999999999984
 30
0.0
 11
20.2045
 21
2.0200000000000387
 31
0.0
  0
LINE
  5
9D
330
17
100
AcDbEntity
  8
GRAINLINE
100
AcDbLine
 10
20.03575
 20
9.411249999999995
 30
0.0
 11
20.2045
 21
9.579999999999984
 31
0.0
  0
LINE
  5
9E
330
17
100
AcDbEntity
  8
GRAINLINE
100
AcDbLine
 10
20.37325
 20
9.411249999999995
 30
0.0
 11
20.2045
 21
9.579999999999984
 31
0.0
  0
LINE
  5
9F
330
17
100
AcDbEntity
  8
GRAINLINE
100
AcDbLine
 10
20.03575
 20
2.1887500000000273
 30
0.0
 11
20.2045
 21
2.0200000000000387
 31
0.0
  0
LINE
  5
A0
330
17
100
AcDbEntity
  8
GRAINLINE
100
AcDbLine
 10
20.37325
 20
2.1887500000000273
 30
0.0
 11
20.2045
 21
2.0200000000000387
 31
0.0
  0
TEXT
  5
A1
330
17
100
AcDbEntity
  8
LABEL
100
AcDbText
 10
17.275
 20
5.800000000000011
 30
0.0
 40
0.9
  1
カフス（ボタンタブ付き） 右
 72
1
 11
17.275
 21
5.800000000000011
 31
0.0
100
AcDbText
 73
2
  0
TEXT
  5
A2
330
17
100
AcDbEntity
  8
LABEL_ID
100
AcDbText
 10
17.275
 20
4.600000000000011
 30
0.0
 40
0.55
  1
cuffs(button_tab) 右
 72
1
 11
17.275
 21
4.600000000000011
 31
0.0
100
AcDbText
 73
2
  0
LWPOLYLINE
  5
A3
330
17
100
AcDbEntity
  8
CUT_LINE
100
AcDbPolyline
 90
4
 70
1
 10
23.766666666666666
 20
201.50016612449625
 10
0.0
 20
139.50016612449625
 10
82.908576510189
 20
139.50016612449625
 10
59.14190984352231
 20
201.50016612449625
  0
LWPOLYLINE
  5
A4
330
17
100
AcDbEntity
  8
STITCH_LINE
  6
DASHED
100
AcDbPolyline
 90
4
 70
1
 10
24.45428825509449
 20
200.50016612449625
 10
58.45428825509449
 20
200.50016612449625
 10
81.4542882550945
 20
140.50016612449625
 10
1.4542882550944913
 20
140.50016612449625
  0
LINE
  5
A5
330
17
100
AcDbEntity
  8
NOTCH
100
AcDbLine
 10
24.45428825509449
 20
200.50016612449625
 30
0.0
 11
24.45428825509449
 21
201.50016612449625
 31
0.0
  0
LINE
  5
A6
330
17
100
AcDbEntity
  8
GRAINLINE
100
AcDbLine
 10
41.45428825509449
 20
195.70016612449626
 30
0.0
 11
41.45428825509449
 21
145.30016612449623
 31
0.0
  0
LINE
  5
A7
330
17
100
AcDbEntity
  8
GRAINLINE
100
AcDbLine
 10
39.95428825509449
 20
194.20016612449626
 30
0.0
 11
41.45428825509449
 21
195.70016612449626
 31
0.0
  0
LINE
  5
A8
330
17
100
AcDbEntity
  8
GRAINLINE
100
AcDbLine
 10
42.95428825509449
 20
194.20016612449626
 30
0.0
 11
41.45428825509449
 21
195.70016612449626
 31
0.0
  0
LINE
  5
A9
330
17
100
AcDbEntity
  8
GRAINLINE
100
AcDbLine
 10
39.95428825509449
 20
146.80016612449623
 30
0.0
 11
41.45428825509449
 21
145.30016612449623
 31
0.0
  0
LINE
  5
AA
330
17
100
AcDbEntity
  8
GRAINLINE
100
AcDbLine
 10
42.95428825509449
 20
146.80016612449623
 30
0.0
 11
41.45428825509449
 21
145.30016612449623
 31
0.0
  0
TEXT
  5
AB
330
17
100
AcDbEntity
  8
LABEL
100
AcDbText
 10
41.4542882550945
 20
170.50016612449625
 30
0.0
 40
0.9
  1
スカート（フレア） 前
 72
1
 11
41.4542882550945
 21
170.50016612449625
 31
0.0
100
AcDbText
 73
2
  0
TEXT
  5
AC
330
17
100
AcDbEntity
  8
LABEL_ID
100
AcDbText
 10
41.4542882550945
 20
169.30016612449626
 30
0.0
 40
0.55
  1
skirt(flare) 前
 72
1
 11
41.4542882550945
 21
169.30016612449626
 31
0.0
100
AcDbText
 73
2
  0
LWPOLYLINE
  5
AD
330
17
100
AcDbEntity
  8
CUT_LINE
100
AcDbPolyline
 90
4
 70
1
 10
23.766666666666666
 20
139.20016612449626
 10
0.0
 20
77.20016612449626
 10
82.908576510189
 20
77.20016612449626
 10
59.14190984352231
 20
139.20016612449626
  0
LWPOLYLINE
  5
AE
330
17
100
AcDbEntity
  8
STITCH_LINE
  6
DASHED
100
AcDbPolyline
 90
4
 70
1
 10
24.45428825509449
 20
138.20016612449626
 10
58.45428825509449
 20
138.20016612449626
 10
81.4542882550945
 20
78.20016612449626
 10
1.4542882550944913
 20
78.20016612449626
  0
LINE
  5
AF
330
17
100
AcDbEntity
  8
NOTCH
100
AcDbLine
 10
24.45428825509449
 20
138.20016612449626
 30
0.0
 11
24.45428825509449
 21
139.20016612449626
 31
0.0
  0
LINE
  5
B0
330
17
100
AcDbEntity
  8
GRAINLINE
100
AcDbLine
 10
41.45428825509449
 20
133.40016612449625
 30
0.0
 11
41.45428825509449
 21
83.00016612449627
 31
0.0
  0
LINE
  5
B1
330
17
100
AcDbEntity
  8
GRAINLINE
100
AcDbLine
 10
39.95428825509449
 20
131.90016612449625
 30
0.0
 11
41.45428825509449
 21
133.40016612449625
 31
0.0
  0
LINE
  5
B2
330
17
100
AcDbEntity
  8
GRAINLINE
100
AcDbLine
 10
42.95428825509449
 20
131.90016612449625
 30
0.0
 11
41.45428825509449
 21
133.40016612449625
 31
0.0
  0
LINE
  5
B3
330
17
100
AcDbEntity
  8
GRAINLINE
100
AcDbLine
 10
39.95428825509449
 20
84.50016612449627
 30
0.0
 11
41.45428825509449
 21
83.00016612449627
 31
0.0
  0
LINE
  5
B4
330
17
100
AcDbEntity
  8
GRAINLINE
100
AcDbLine
 10
42.95428825509449
 20
84.50016612449627
 30
0.0
 11
41.45428825509449
 21
83.00016612449627
 31
0.0
  0
TEXT
  5
B5
330
17
100
AcDbEntity
  8
LABEL
100
AcDbText
 10
41.4542882550945
 20
108.20016612449626
 30
0.0
 40
0.9
  1
スカート（フレア） 後
 72
1
 11
41.4542882550945
 21
108.20016612449626
 31
0.0
100
AcDbText
 73
2
  0
TEXT
  5
B6
330
17
100
AcDbEntity
  8
LABEL_ID
100
AcDbText
 10
41.4542882550945
 20
107.00016612449626
 30
0.0
 40
0.55
  1
skirt(flare) 後
 72
1
 11
41.4542882550945
 21
107.00016612449626
 31
0.0
100
AcDbText
 73
2
  0
LWPOLYLINE
  5
B7
330
17
100
AcDbEntity
  8
CUT_LINE
100
AcDbPolyline
 90
54
 70
1
 10
76.1576260846095
 20
307.10016612449624
 10
76.1576260846095
 20
288.1150602414698
 10
76.14834156158317
 20
287.8034451449438
 10
76.12349016064947
 20
287.54336000576507
 10
76.08517828113636
 20
287.31803966742115
 10
76.03584429477775
 20
287.123960930312
 10
75.97746635727894
 20
286.9566494742436
 10
75.91113508415262
 20
286.810826962119
 10
75.83674797815036
 20
286.6808632696476
 10
75.75301643608904
 20
286.56142736559923
 10
75.65784396205076
 20
286.44808288821173
 10
75.55948266982492
 20
286.3482915475319
 10
75.27794100440795
 20
286.114850787915
 10
74.94342645670397
 20
285.888367174503
 10
74.54390791995051
 20
285.6478855086386
 10
74.0889135379246
 20
285.3822537326471
 10
73.59076308395147
 20
285.076770227355
 10
73.06343929739701
 20
284.71447013048424
 10
72.53269941467256
 20
284.2862136289069
 10
72.25414882484358
 20
284.0274462625897
 10
71.98636433175183
 20
283.7516578386726
 10
71.72349004787229
 20
283.4499283480325
 10
71.46743977889388
 20
283.12083495156577
 10
71.21994243764186
 20
282.76306345294836
 10
70.98251161410627
 20
282.37534636610354
 10
70.75644082573294
 20
281.95639857043886
 10
70.42702602205297
 20
281.2600975217499
 10
80.15337170475323
 20
209.10016612449624
 10
97.97911894282443
 20
209.10016612449624
 10
101.90841359066454
 20
288.0911410037562
 10
101.89019283229968
 20
288.66633365292995
 10
101.83796193896625
 20
289.2251949889561
 10
101.75395298761039
 20
289.77630714639673
 10
101.6407479124544
 20
290.3199156756111
 10
101.50093089314845
 20
290.8565164027005
 10
101.33703059797004
 20
291.38682055137156
 10
101.15148382518959
 20
291.91170671491733
 10
100.94423087495359
 20
292.4382372480835
 10
100.48874798858103
 20
293.4623309830737
 10
99.97782187778023
 20
294.4898475739746
 10
99.43041196791306
 20
295.5214617615211
 10
98.86112152960433
 20
296.5654182297564
 10
98.28403503630217
 20
297.62948281494903
 10
97.71287693959255
 20
298.721014992959
 10
97.16108384286825
 20
299.8471014874391
 10
96.63919585703576
 20
301.0206546026519
 10
96.3978055049397
 20
301.6173194796988
 10
96.16742541693347
 20
302.2318862681254
 10
95.95161724881893
 20
302.8604120940074
 10
95.75197173160348
 20
303.503842726191
 10
95.57008154127013
 20
304.1631520581691
 10
95.40754732515848
 20
304.8393436261812
 10
95.26598419859896
 20
305.5334503182438
 10
95.00462550548067
 20
307.10016612449624
  0
LWPOLYLINE
  5
B8
330
17
100
AcDbEntity
  8
STITCH_LINE
  6
DASHED
100
AcDbPolyline
 90
55
 70
1
 10
77.1576260846095
 20
306.10016612449624
 10
94.1576260846095
 20
306.10016612449624
 10
94.28256810121107
 20
305.3512006703947
 10
94.431185654922
 20
304.62250499168374
 10
94.60166600160169
 20
303.9132551137541
 10
94.7921963971095
 20
303.22262706199626
 10
95.00096409730482
 20
302.5497968618009
 10
95.226156358047
 20
301.89394053855875
 10
95.46596043519544
 20
301.2542341176603
 10
95.7185635846095
 20
300.62985362449626
 10
96.254916123672
 20
299.42377452293374
 10
96.8207120221095
 20
298.26911143699624
 10
97.401449326797
 20
297.15927256980876
 10
97.9826260846095
 20
296.08766612449625
 10
98.549740342422
 20
295.04770030418376
 10
99.0882901471095
 20
294.03278331199624
 10
99.583773545547
 20
293.03632335105874
 10
100.0216885846095
 20
292.05172862449626
 10
100.21452610902357
 20
291.5618207875822
 10
100.387533311172
 20
291.07240733543375
 10
100.53889744691419
 20
290.58266429344155
 10
100.6668057721095
 20
290.09176768699626
 10
100.76944554261732
 20
289.59889354148845
 10
100.845004014297
 20
289.10321788230874
 10
100.89166844300794
 20
288.6039167348478
 10
100.9076260846095
 20
288.10016612449624
 10
97.02762608460951
 20
210.10016612449624
 10
81.02762608460951
 20
210.10016612449624
 10
71.4576260846095
 20
281.10016612449624
 10
71.64906193666029
 20
281.5048139516447
 10
71.84958165101575
 20
281.87641124168374
 10
72.0581909649806
 20
282.21706370750405
 10
72.2738956158595
 20
282.52887706199624
 10
72.49570134095715
 20
282.8139570180509
 10
72.72261387757825
 20
283.07440928855874
 10
72.95363896302747
 20
283.3123395864103
 10
73.18778233460951
 20
283.52985362449624
 10
73.66144688539076
 20
283.91205577293374
 10
74.1356534283595
 20
284.23786143699624
 10
74.60244786195325
 20
284.52411631980874
 10
75.0538760846095
 20
284.78766612449624
 10
75.48198399476576
 20
285.04535655418374
 10
75.8788174908595
 20
285.31403331199624
 10
76.23642247132825
 20
285.61054210105874
 10
76.39802861146498
 20
285.7744977895353
 10
76.5468448346095
 20
285.95172862449624
 10
76.68187687806653
 20
286.1443403188322
 10
76.80213047914076
 20
286.35443858543374
 10
76.90661137513685
 20
286.58412913719155
 10
76.9943253033595
 20
286.83551768699624
 10
77.06427800111341
 20
287.1107099477384
 10
77.11547520570326
 20
287.41181163230874
 10
77.14692265443372
 20
287.7409284535978
 10
77.1576260846095
 20
288.10016612449624
 10
77.1576260846095
 20
306.10016612449624
  0
LINE
  5
B9
330
17
100
AcDbEntity
  8
NOTCH
100
AcDbLine
 10
73.82587487802473
 20
263.5300862569433
 30
0.0
 11
72.83483694529507
 21
263.39650551023595
 31
0.0
  0
LINE
  5
BA
330
17
100
AcDbEntity
  8
NOTCH
100
AcDbLine
 10
99.1146781403449
 20
252.0563672449503
 30
0.0
 11
100.113443219302
 21
252.00668508461243
 31
0.0
  0
LINE
  5
BB
330
17
100
AcDbEntity
  8
GRAINLINE
100
AcDbLine
 10
86.18262608460951
 20
298.42016612449623
 30
0.0
 11
86.18262608460951
 21
217.78016612449625
 31
0.0
  0
LINE
  5
BC
330
17
100
AcDbEntity
  8
GRAINLINE
100
AcDbLine
 10
84.68262608460951
 20
296.92016612449623
 30
0.0
 11
86.18262608460951
 21
298.42016612449623
 31
0.0
  0
LINE
  5
BD
330
17
100
AcDbEntity
  8
GRAINLINE
100
AcDbLine
 10
87.68262608460951
 20
296.92016612449623
 30
0.0
 11
86.18262608460951
 21
298.42016612449623
 31
0.0
  0
LINE
  5
BE
330
17
100
AcDbEntity
  8
GRAINLINE
100
AcDbLine
 10
84.68262608460951
 20
219.28016612449625
 30
0.0
 11
86.18262608460951
 21
217.78016612449625
 31
0.0
  0
LINE
  5
BF
330
17
100
AcDbEntity
  8
GRAINLINE
100
AcDbLine
 10
87.68262608460951
 20
219.28016612449625
 30
0.0
 11
86.18262608460951
 21
217.78016612449625
 31
0.0
  0
TEXT
  5
C0
330
17
100
AcDbEntity
  8
LABEL
100
AcDbText
 10
86.16771980635875
 20
258.10016612449624
 30
0.0
 40
0.9
  1
パンツ・前（テーパード） 左
 72
1
 11
86.16771980635875
 21
258.10016612449624
 31
0.0
100
AcDbText
 73
2
  0
TEXT
  5
C1
330
17
100
AcDbEntity
  8
LABEL_ID
100
AcDbText
 10
86.16771980635875
 20
256.90016612449625
 30
0.0
 40
0.55
  1
front_pants(tapered) 左
 72
1
 11
86.16771980635875
 21
256.90016612449625
 31
0.0
100
AcDbText
 73
2
  0
LWPOLYLINE
  5
C2
330
17
100
AcDbEntity
  8
CUT_LINE
100
AcDbPolyline
 90
54
 70
1
 10
107.93901365322107
 20
307.10016612449624
 10
107.93901365322107
 20
288.1150602414698
 10
107.92972913019473
 20
287.8034451449438
 10
107.90487772926103
 20
287.54336000576507
 10
107.86656584974793
 20
287.31803966742115
 10
107.81723186338931
 20
287.123960930312
 10
107.7588539258905
 20
286.9566494742436
 10
107.69252265276418
 20
286.810826962119
 10
107.61813554676192
 20
286.6808632696476
 10
107.5344040047006
 20
286.56142736559923
 10
107.43923153066233
 20
286.44808288821173
 10
107.34087023843648
 20
286.3482915475319
 10
107.05932857301951
 20
286.114850787915
 10
106.72481402531554
 20
285.888367174503
 10
106.32529548856208
 20
285.6478855086386
 10
105.87030110653616
 20
285.3822537326471
 10
105.37215065256304
 20
285.076770227355
 10
104.84482686600857
 20
284.71447013048424
 10
104.31408698328413
 20
284.2862136289069
 10
104.03553639345515
 20
284.0274462625897
 10
103.7677519003634
 20
283.7516578386726
 10
103.50487761648385
 20
283.4499283480325
 10
103.24882734750544
 20
283.12083495156577
 10
103.00133000625343
 20
282.76306345294836
 10
102.76389918271784
 20
282.37534636610354
 10
102.5378283943445
 20
281.95639857043886
 10
102.20841359066453
 20
281.2600975217499
 10
111.93475927336479
 20
209.10016612449624
 10
129.76050651143598
 20
209.10016612449624
 10
133.6898011592761
 20
288.0911410037562
 10
133.67158040091124
 20
288.66633365292995
 10
133.6193495075778
 20
289.2251949889561
 10
133.53534055622197
 20
289.77630714639673
 10
133.42213548106596
 20
290.3199156756111
 10
133.28231846176
 20
290.8565164027005
 10
133.1184181665816
 20
291.38682055137156
 10
132.93287139380115
 20
291.91170671491733
 10
132.72561844356517
 20
292.4382372480835
 10
132.2701355571926
 20
293.4623309830737
 10
131.7592094463918
 20
294.4898475739746
 10
131.2117995365246
 20
295.5214617615211
 10
130.6425090982159
 20
296.5654182297564
 10
130.06542260491375
 20
297.62948281494903
 10
129.4942645082041
 20
298.721014992959
 10
128.9424714114798
 20
299.8471014874391
 10
128.42058342564732
 20
301.0206546026519
 10
128.17919307355126
 20
301.6173194796988
 10
127.94881298554503
 20
302.2318862681254
 10
127.7330048174305
 20
302.8604120940074
 10
127.53335930021504
 20
303.503842726191
 10
127.35146910988169
 20
304.1631520581691
 10
127.18893489377004
 20
304.8393436261812
 10
127.04737176721052
 20
305.5334503182438
 10
126.78601307409224
 20
307.10016612449624
  0
LWPOLYLINE
  5
C3
330
17
100
AcDbEntity
  8
STITCH_LINE
  6
DASHED
100
AcDbPolyline
 90
55
 70
1
 10
108.93901365322107
 20
306.10016612449624
 10
125.93901365322107
 20
306.10016612449624
 10
126.06395566982263
 20
305.3512006703947
 10
126.21257322353357
 20
304.62250499168374
 10
126.38305357021325
 20
303.9132551137541
 10
126.57358396572107
 20
303.22262706199626
 10
126.78235166591638
 20
302.5497968618009
 10
127.00754392665857
 20
301.89394053855875
 10
127.247348003807
 20
301.2542341176603
 10
127.49995115322106
 20
300.62985362449626
 10
128.03630369228355
 20
299.42377452293374
 10
128.60209959072105
 20
298.26911143699624
 10
129.18283689540857
 20
297.15927256980876
 10
129.76401365322107
 20
296.08766612449625
 10
130.33112791103358
 20
295.04770030418376
 10
130.86967771572105
 20
294.03278331199624
 10
131.36516111415858
 20
293.03632335105874
 10
131.80307615322107
 20
292.05172862449626
 10
131.99591367763512
 20
291.5618207875822
 10
132.16892087978357
 20
291.07240733543375
 10
132.32028501552574
 20
290.58266429344155
 10
132.44819334072108
 20
290.09176768699626
 10
132.55083311122888
 20
289.59889354148845
 10
132.62639158290858
 20
289.10321788230874
 10
132.6730560116195
 20
288.6039167348478
 10
132.68901365322108
 20
288.10016612449624
 10
128.80901365322106
 20
210.10016612449624
 10
112.80901365322107
 20
210.10016612449624
 10
103.23901365322106
 20
281.10016612449624
 10
103.43044950527185
 20
281.5048139516447
 10
103.63096921962732
 20
281.87641124168374
 10
103.83957853359216
 20
282.21706370750405
 10
104.05528318447107
 20
282.52887706199624
 10
104.27708890956872
 20
282.8139570180509
 10
104.50400144618982
 20
283.07440928855874
 10
104.73502653163904
 20
283.3123395864103
 10
104.96916990322107
 20
283.52985362449624
 10
105.44283445400232
 20
283.91205577293374
 10
105.91704099697107
 20
284.23786143699624
 10
106.38383543056482
 20
284.52411631980874
 10
106.83526365322106
 20
284.78766612449624
 10
107.26337156337732
 20
285.04535655418374
 10
107.66020505947107
 20
285.31403331199624
 10
108.01781003993982
 20
285.61054210105874
 10
108.17941618007654
 20
285.7744977895353
 10
108.32823240322107
 20
285.95172862449624
 10
108.4632644466781
 20
286.1443403188322
 10
108.58351804775232
 20
286.35443858543374
 10
108.68799894374841
 20
286.58412913719155
 10
108.77571287197107
 20
286.83551768699624
 10
108.84566556972497
 20
287.1107099477384
 10
108.89686277431483
 20
287.41181163230874
 10
108.92831022304529
 20
287.7409284535978
 10
108.93901365322107
 20
288.10016612449624
 10
108.93901365322107
 20
306.10016612449624
  0
LINE
  5
C4
330
17
100
AcDbEntity
  8
NOTCH
100
AcDbLine
 10
105.6072624466363
 20
263.5300862569433
 30
0.0
 11
104.61622451390663
 21
263.39650551023595
 31
0.0
  0
LINE
  5
C5
330
17
100
AcDbEntity
  8
NOTCH
100
AcDbLine
 10
130.89606570895648
 20
252.0563672449503
 30
0.0
 11
131.89483078791358
 21
252.00668508461243
 31
0.0
  0
LINE
  5
C6
330
17
100
AcDbEntity
  8
GRAINLINE
100
AcDbLine
 10
117.96401365322107
 20
298.42016612449623
 30
0.0
 11
117.96401365322107
 21
217.78016612449625
 31
0.0
  0
LINE
  5
C7
330
17
100
AcDbEntity
  8
GRAINLINE
100
AcDbLine
 10
116.46401365322107
 20
296.92016612449623
 30
0.0
 11
117.96401365322107
 21
298.42016612449623
 31
0.0
  0
LINE
  5
C8
330
17
100
AcDbEntity
  8
GRAINLINE
100
AcDbLine
 10
119.46401365322107
 20
296.92016612449623
 30
0.0
 11
117.96401365322107
 21
298.42016612449623
 31
0.0
  0
LINE
  5
C9
330
17
100
AcDbEntity
  8
GRAINLINE
100
AcDbLine
 10
116.46401365322107
 20
219.28016612449625
 30
0.0
 11
117.96401365322107
 21
217.78016612449625
 31
0.0
  0
LINE
  5
CA
330
17
100
AcDbEntity
  8
GRAINLINE
100
AcDbLine
 10
119.46401365322107
 20
219.28016612449625
 30
0.0
 11
117.96401365322107
 21
217.78016612449625
 31
0.0
  0
TEXT
  5
CB
330
17
100
AcDbEntity
  8
LABEL
100
AcDbText
 10
117.94910737497031
 20
258.10016612449624
 30
0.0
 40
0.9
  1
パンツ・前（テーパード） 右
 72
1
 11
117.94910737497031
 21
258.10016612449624
 31
0.0
100
AcDbText
 73
2
  0
TEXT
  5
CC
330
17
100
AcDbEntity
  8
LABEL_ID
100
AcDbText
 10
117.94910737497031
 20
256.90016612449625
 30
0.0
 40
0.55
  1
front_pants(tapered) 右
 72
1
 11
117.94910737497031
 21
256.90016612449625
 31
0.0
100
AcDbText
 73
2
  0
LWPOLYLINE
  5
CD
330
17
100
AcDbEntity
  8
CUT_LINE
100
AcDbPolyline
 90
71
 70
1
 10
9.402553619913704
 20
307.10016612449624
 10
8.913209982612699
 20
305.3377644307793
 10
8.661117854494263
 20
304.28743106284355
 10
8.447641572800821
 20
303.2308144384674
 10
8.272923353213194
 20
302.1656702924918
 10
8.137053063828574
 20
301.089777766617
 10
8.0400635771604
 20
300.0009192326938
 10
7.981931294860755
 20
298.896860027456
 10
7.96258154438716
 20
297.77533034961533
 10
7.981897802752169
 20
296.6340111151266
 10
8.03973323824198
 20
295.4705248152339
 10
8.135922949487579
 20
294.28243158492694
 10
8.270295484424185
 20
293.0672299659634
 10
8.4426826255281
 20
291.8223613662729
 10
8.652926896669443
 20
290.5452170118184
 10
8.900886669646804
 20
289.23314621790877
 10
9.157743597711079
 20
288.01909589385497
 10
9.14924328196376
 20
287.84030615219115
 10
9.115465805393594
 20
287.61877459784654
 10
9.064447493622193
 20
287.4307428865317
 10
8.998564834770173
 20
287.26832459470813
 10
8.917659256767006
 20
287.12301940291087
 10
8.819184729999371
 20
286.987360218856
 10
8.69934607203636
 20
286.856160372673
 10
8.554560551117042
 20
286.7267480843162
 10
8.382471993940703
 20
286.59832659330186
 10
8.18224524083447
 20
286.4710410379544
 10
7.954346365836268
 20
286.34522023907147
 10
7.706749423565705
 20
286.2241762605943
 10
7.116699283925603
 20
285.9738736006165
 10
6.457042501523041
 20
285.72510526857207
 10
5.733576376938875
 20
285.4605002604445
 10
4.962383330267796
 20
285.1642451748264
 10
4.167185870151931
 20
284.8220248483004
 10
3.7523890768549437
 20
284.621754557733
 10
3.3410483284326586
 20
284.404544339544
 10
2.9295825260311563
 20
284.1651583531839
 10
2.5202070410086588
 20
283.9011343861787
 10
2.115265606374291
 20
283.6100889323777
 10
1.7172240053484282
 20
283.2897679126739
 10
1.3286423806441734
 20
282.93809421456217
 10
0.9521255290776142
 20
282.5532026747822
 10
0.5902558320799877
 20
282.1334529100304
 10
0.0
 20
281.35262564033144
 10
13.208970767824518
 20
209.10016612449624
 10
30.99434223494889
 20
209.10016612449624
 10
34.91351301102649
 20
288.09120502218417
 10
34.89529428061575
 20
288.66633365293
 10
34.84306338728233
 20
289.2251949889561
 10
34.75905443592648
 20
289.7763071463967
 10
34.64584936077047
 20
290.3199156756112
 10
34.506032341464554
 20
290.8565164027004
 10
34.34213204628608
 20
291.38682055137167
 10
34.15658527350569
 20
291.9117067149173
 10
33.94933232326964
 20
292.4382372480835
 10
33.4938494368971
 20
293.4623309830737
 10
32.982923326096355
 20
294.48984757397454
 10
32.435513416229135
 20
295.5214617615211
 10
31.8662229779204
 20
296.5654182297564
 10
31.28913648461825
 20
297.62948281494903
 10
30.717978387908623
 20
298.721014992959
 10
30.166185291184327
 20
299.8471014874391
 10
29.64429730535183
 20
301.0206546026519
 10
29.40290695325577
 20
301.6173194796988
 10
29.172526865249544
 20
302.2318862681254
 10
28.956718697135017
 20
302.8604120940074
 10
28.757073179919548
 20
303.503842726191
 10
28.575182989586217
 20
304.16315205816903
 10
28.412648773474544
 20
304.83934362618123
 10
28.27108564691504
 20
305.53345031824375
 10
28.009726953796747
 20
307.10016612449624
  0
LWPOLYLINE
  5
CE
330
17
100
AcDbEntity
  8
STITCH_LINE
  6
DASHED
100
AcDbPolyline
 90
72
 70
1
 10
10.162727532925576
 20
306.10016612449624
 10
27.162727532925576
 20
306.10016612449624
 10
27.28766954952714
 20
305.3512006703947
 10
27.436287103238076
 20
304.62250499168374
 10
27.606767449917765
 20
303.9132551137541
 10
27.79729784542558
 20
303.22262706199626
 10
28.00606554562089
 20
302.5497968618009
 10
28.23125780636308
 20
301.89394053855875
 10
28.471061883511513
 20
301.2542341176603
 10
28.723665032925577
 20
300.62985362449626
 10
29.260017571988076
 20
299.42377452293374
 10
29.825813470425576
 20
298.26911143699624
 10
30.40655077511308
 20
297.15927256980876
 10
30.98772753292558
 20
296.08766612449625
 10
31.554841790738077
 20
295.04770030418376
 10
32.09339159542558
 20
294.03278331199624
 10
32.58887499386308
 20
293.03632335105874
 10
33.026790032925575
 20
292.05172862449626
 10
33.219627557339635
 20
291.5618207875822
 10
33.392634759488075
 20
291.07240733543375
 10
33.54399889523026
 20
290.58266429344155
 10
33.67190722042558
 20
290.09176768699626
 10
33.774546990933395
 20
289.59889354148845
 10
33.85010546261308
 20
289.10321788230874
 10
33.89676989132402
 20
288.6039167348478
 10
33.91272753292558
 20
288.10016612449624
 10
30.042727532925575
 20
210.10016612449624
 10
14.042727532925575
 20
210.10016612449624
 10
1.0627275329255754
 20
281.10016612449624
 10
1.3686155944490128
 20
281.5048139516447
 10
1.6889726501130755
 20
281.87641124168374
 10
2.0222130065583883
 20
282.21706370750405
 10
2.3667509704255756
 20
282.52887706199624
 10
2.7210008483552635
 20
282.8139570180509
 10
3.083376946988076
 20
283.07440928855874
 10
3.4522935729646385
 20
283.3123395864103
 10
3.8261650329255756
 20
283.52985362449624
 10
4.203405633511513
 20
283.7290571157072
 10
4.582429681363076
 20
283.91205577293374
 10
5.339485345425576
 20
284.23786143699624
 10
6.084646478238075
 20
284.52411631980874
 10
6.805227532925575
 20
284.78766612449624
 10
7.488542962613075
 20
285.04535655418374
 10
8.121907220425573
 20
285.31403331199624
 10
8.415893426480263
 20
285.4577558461759
 10
8.692634759488074
 20
285.61054210105874
 10
8.950545526089638
 20
285.7744977895353
 10
9.188040032925574
 20
285.95172862449624
 10
9.403532586636512
 20
286.1443403188322
 10
9.595437493863074
 20
286.35443858543374
 10
9.762169061245888
 20
286.58412913719155
 10
9.902141595425576
 20
286.83551768699624
 10
10.013769403042762
 20
287.1107099477384
 10
10.095466790738076
 20
287.41181163230874
 10
10.145648065152137
 20
287.7409284535978
 10
10.162727532925576
 20
288.10016612449624
 10
9.881477532925576
 20
289.42951182762124
 10
9.637727532925574
 20
290.71930674949624
 10
9.431477532925577
 20
291.97218760887125
 10
9.262727532925574
 20
293.19079112449623
 10
9.131477532925576
 20
294.37775401512124
 10
9.037727532925576
 20
295.53571299949624
 10
8.981477532925576
 20
296.66730479637124
 10
8.962727532925577
 20
297.77516612449625
 10
8.981477532925576
 20
298.86193370262123
 10
9.037727532925576
 20
299.93024424949624
 10
9.131477532925576
 20
300.98273448387124
 10
9.262727532925574
 20
302.02204112449624
 10
9.431477532925577
 20
303.05080089012125
 10
9.637727532925574
 20
304.07165049949623
 10
9.881477532925576
 20
305.08722667137124
 10
10.162727532925576
 20
306.10016612449624
  0
LINE
  5
CF
330
17
100
AcDbEntity
  8
NOTCH
100
AcDbLine
 10
7.552727532925576
 20
245.60016612449624
 30
0.0
 11
6.56903099135217
 21
245.4203297708396
 31
0.0
  0
LINE
  5
D0
330
17
100
AcDbEntity
  8
NOTCH
100
AcDbLine
 10
32.12438922637413
 20
252.05613824051358
 30
0.0
 11
33.123160650989604
 21
252.00658381213842
 31
0.0
  0
LINE
  5
D1
330
17
100
AcDbEntity
  8
GRAINLINE
100
AcDbLine
 10
17.487727532925575
 20
298.42016612449623
 30
0.0
 11
17.487727532925575
 21
217.78016612449625
 31
0.0
  0
LINE
  5
D2
330
17
100
AcDbEntity
  8
GRAINLINE
100
AcDbLine
 10
15.987727532925575
 20
296.92016612449623
 30
0.0
 11
17.487727532925575
 21
298.42016612449623
 31
0.0
  0
LINE
  5
D3
330
17
100
AcDbEntity
  8
GRAINLINE
100
AcDbLine
 10
18.987727532925575
 20
296.92016612449623
 30
0.0
 11
17.487727532925575
 21
298.42016612449623
 31
0.0
  0
LINE
  5
D4
330
17
100
AcDbEntity
  8
GRAINLINE
100
AcDbLine
 10
15.987727532925575
 20
219.28016612449625
 30
0.0
 11
17.487727532925575
 21
217.78016612449625
 31
0.0
  0
LINE
  5
D5
330
17
100
AcDbEntity
  8
GRAINLINE
100
AcDbLine
 10
18.987727532925575
 20
219.28016612449625
 30
0.0
 11
17.487727532925575
 21
217.78016612449625
 31
0.0
  0
TEXT
  5
D6
330
17
100
AcDbEntity
  8
LABEL
100
AcDbText
 10
17.456756505513244
 20
258.10016612449624
 30
0.0
 40
0.9
  1
パンツ・後（テーパード） 左
 72
1
 11
17.456756505513244
 21
258.10016612449624
 31
0.0
100
AcDbText
 73
2
  0
TEXT
  5
D7
330
17
100
AcDbEntity
  8
LABEL_ID
100
AcDbText
 10
17.456756505513244
 20
256.90016612449625
 30
0.0
 40
0.55
  1
back_pants(tapered) 左
 72
1
 11
17.456756505513244
 21
256.90016612449625
 31
0.0
100
AcDbText
 73
2
  0
LWPOLYLINE
  5
D8
330
17
100
AcDbEntity
  8
CUT_LINE
100
AcDbPolyline
 90
71
 70
1
 10
44.61606663094019
 20
307.10016612449624
 10
44.126722993639184
 20
305.3377644307793
 10
43.87463086552075
 20
304.28743106284355
 10
43.661154583827305
 20
303.2308144384674
 10
43.48643636423968
 20
302.1656702924918
 10
43.35056607485506
 20
301.089777766617
 10
43.25357658818689
 20
300.0009192326938
 10
43.19544430588724
 20
298.896860027456
 10
43.17609455541365
 20
297.77533034961533
 10
43.19541081377865
 20
296.6340111151266
 10
43.253246249268464
 20
295.4705248152339
 10
43.349435960514064
 20
294.28243158492694
 10
43.483808495450674
 20
293.0672299659634
 10
43.656195636554585
 20
291.8223613662729
 10
43.86643990769593
 20
290.5452170118184
 10
44.11439968067329
 20
289.23314621790877
 10
44.37125660873757
 20
288.01909589385497
 10
44.36275629299024
 20
287.84030615219115
 10
44.328978816420076
 20
287.61877459784654
 10
44.277960504648675
 20
287.4307428865317
 10
44.21207784579666
 20
287.26832459470813
 10
44.13117226779349
 20
287.12301940291087
 10
44.032697741025856
 20
286.987360218856
 10
43.91285908306284
 20
286.856160372673
 10
43.76807356214353
 20
286.7267480843162
 10
43.59598500496719
 20
286.59832659330186
 10
43.395758251860954
 20
286.4710410379544
 10
43.16785937686275
 20
286.34522023907147
 10
42.92026243459219
 20
286.2241762605943
 10
42.33021229495209
 20
285.9738736006165
 10
41.67055551254953
 20
285.72510526857207
 10
40.94708938796536
 20
285.4605002604445
 10
40.17589634129428
 20
285.1642451748264
 10
39.38069888117842
 20
284.8220248483004
 10
38.96590208788143
 20
284.621754557733
 10
38.55456133945914
 20
284.404544339544
 10
38.14309553705764
 20
284.1651583531839
 10
37.733720052035146
 20
283.9011343861787
 10
37.32877861740078
 20
283.6100889323777
 10
36.93073701637491
 20
283.2897679126739
 10
36.54215539167066
 20
282.93809421456217
 10
36.1656385401041
 20
282.5532026747822
 10
35.803768843106475
 20
282.1334529100304
 10
35.213513011026485
 20
281.35262564033144
 10
48.422483778851
 20
209.10016612449624
 10
66.20785524597537
 20
209.10016612449624
 10
70.12702602205297
 20
288.09120502218417
 10
70.10880729164224
 20
288.66633365293
 10
70.0565763983088
 20
289.2251949889561
 10
69.97256744695297
 20
289.7763071463967
 10
69.85936237179695
 20
290.3199156756112
 10
69.71954535249104
 20
290.8565164027004
 10
69.55564505731257
 20
291.38682055137167
 10
69.37009828453218
 20
291.9117067149173
 10
69.16284533429612
 20
292.4382372480835
 10
68.70736244792359
 20
293.4623309830737
 10
68.19643633712283
 20
294.48984757397454
 10
67.64902642725562
 20
295.5214617615211
 10
67.07973598894688
 20
296.5654182297564
 10
66.50264949564473
 20
297.62948281494903
 10
65.93149139893511
 20
298.721014992959
 10
65.37969830221081
 20
299.8471014874391
 10
64.85781031637832
 20
301.0206546026519
 10
64.61641996428226
 20
301.6173194796988
 10
64.38603987627603
 20
302.2318862681254
 10
64.17023170816151
 20
302.8604120940074
 10
63.97058619094604
 20
303.503842726191
 10
63.7886960006127
 20
304.16315205816903
 10
63.62616178450103
 20
304.83934362618123
 10
63.484598657941525
 20
305.53345031824375
 10
63.223239964823236
 20
307.10016612449624
  0
LWPOLYLINE
  5
D9
330
17
100
AcDbEntity
  8
STITCH_LINE
  6
DASHED
100
AcDbPolyline
 90
72
 70
1
 10
45.376240543952065
 20
306.10016612449624
 10
62.376240543952065
 20
306.10016612449624
 10
62.50118256055363
 20
305.3512006703947
 10
62.649800114264565
 20
304.62250499168374
 10
62.82028046094425
 20
303.9132551137541
 10
63.01081085645207
 20
303.22262706199626
 10
63.21957855664738
 20
302.5497968618009
 10
63.44477081738957
 20
301.89394053855875
 10
63.684574894538
 20
301.2542341176603
 10
63.93717804395206
 20
300.62985362449626
 10
64.47353058301456
 20
299.42377452293374
 10
65.03932648145206
 20
298.26911143699624
 10
65.62006378613957
 20
297.15927256980876
 10
66.20124054395207
 20
296.08766612449625
 10
66.76835480176456
 20
295.04770030418376
 10
67.30690460645206
 20
294.03278331199624
 10
67.80238800488956
 20
293.03632335105874
 10
68.24030304395205
 20
292.05172862449626
 10
68.43314056836613
 20
291.5618207875822
 10
68.60614777051455
 20
291.07240733543375
 10
68.75751190625675
 20
290.58266429344155
 10
68.88542023145206
 20
290.09176768699626
 10
68.98806000195988
 20
289.59889354148845
 10
69.06361847363956
 20
289.10321788230874
 10
69.1102829023505
 20
288.6039167348478
 10
69.12624054395206
 20
288.10016612449624
 10
65.25624054395206
 20
210.10016612449624
 10
49.25624054395206
 20
210.10016612449624
 10
36.27624054395206
 20
281.10016612449624
 10
36.582128605475496
 20
281.5048139516447
 10
36.90248566113956
 20
281.87641124168374
 10
37.235726017584874
 20
282.21706370750405
 10
37.58026398145206
 20
282.52887706199624
 10
37.93451385938175
 20
282.8139570180509
 10
38.29688995801456
 20
283.07440928855874
 10
38.66580658399113
 20
283.3123395864103
 10
39.03967804395206
 20
283.52985362449624
 10
39.416918644538
 20
283.7290571157072
 10
39.79594269238956
 20
283.91205577293374
 10
40.552998356452065
 20
284.23786143699624
 10
41.29815948926456
 20
284.52411631980874
 10
42.01874054395206
 20
284.78766612449624
 10
42.70205597363956
 20
285.04535655418374
 10
43.33542023145206
 20
285.31403331199624
 10
43.629406437506745
 20
285.4577558461759
 10
43.90614777051456
 20
285.61054210105874
 10
44.16405853711612
 20
285.7744977895353
 10
44.40155304395206
 20
285.95172862449624
 10
44.617045597662994
 20
286.1443403188322
 10
44.80895050488956
 20
286.35443858543374
 10
44.97568207227238
 20
286.58412913719155
 10
45.11565460645206
 20
286.83551768699624
 10
45.22728241406925
 20
287.1107099477384
 10
45.308979801764565
 20
287.41181163230874
 10
45.35916107617862
 20
287.7409284535978
 10
45.376240543952065
 20
288.10016612449624
 10
45.094990543952065
 20
289.42951182762124
 10
44.85124054395206
 20
290.71930674949624
 10
44.64499054395206
 20
291.97218760887125
 10
44.47624054395206
 20
293.19079112449623
 10
44.344990543952065
 20
294.37775401512124
 10
44.251240543952065
 20
295.53571299949624
 10
44.19499054395206
 20
296.66730479637124
 10
44.17624054395206
 20
297.77516612449625
 10
44.19499054395206
 20
298.86193370262123
 10
44.251240543952065
 20
299.93024424949624
 10
44.344990543952065
 20
300.98273448387124
 10
44.47624054395206
 20
302.02204112449624
 10
44.64499054395206
 20
303.05080089012125
 10
44.85124054395206
 20
304.07165049949623
 10
45.094990543952065
 20
305.08722667137124
 10
45.376240543952065
 20
306.10016612449624
  0
LINE
  5
DA
330
17
100
AcDbEntity
  8
NOTCH
100
AcDbLine
 10
42.76624054395206
 20
245.60016612449624
 30
0.0
 11
41.78254400237866
 21
245.4203297708396
 31
0.0
  0
LINE
  5
DB
330
17
100
AcDbEntity
  8
NOTCH
100
AcDbLine
 10
67.33790223740061
 20
252.05613824051358
 30
0.0
 11
68.3366736620161
 21
252.00658381213842
 31
0.0
  0
LINE
  5
DC
330
17
100
AcDbEntity
  8
GRAINLINE
100
AcDbLine
 10
52.70124054395206
 20
298.42016612449623
 30
0.0
 11
52.70124054395206
 21
217.78016612449625
 31
0.0
  0
LINE
  5
DD
330
17
100
AcDbEntity
  8
GRAINLINE
100
AcDbLine
 10
51.20124054395206
 20
296.92016612449623
 30
0.0
 11
52.70124054395206
 21
298.42016612449623
 31
0.0
  0
LINE
  5
DE
330
17
100
AcDbEntity
  8
GRAINLINE
100
AcDbLine
 10
54.20124054395206
 20
296.92016612449623
 30
0.0
 11
52.70124054395206
 21
298.42016612449623
 31
0.0
  0
LINE
  5
DF
330
17
100
AcDbEntity
  8
GRAINLINE
100
AcDbLine
 10
51.20124054395206
 20
219.28016612449625
 30
0.0
 11
52.70124054395206
 21
217.78016612449625
 31
0.0
  0
LINE
  5
E0
330
17
100
AcDbEntity
  8
GRAINLINE
100
AcDbLine
 10
54.20124054395206
 20
219.28016612449625
 30
0.0
 11
52.70124054395206
 21
217.78016612449625
 31
0.0
  0
TEXT
  5
E1
330
17
100
AcDbEntity
  8
LABEL
100
AcDbText
 10
52.67026951653973
 20
258.10016612449624
 30
0.0
 40
0.9
  1
パンツ・後（テーパード） 右
 72
1
 11
52.67026951653973
 21
258.10016612449624
 31
0.0
100
AcDbText
 73
2
  0
TEXT
  5
E2
330
17
100
AcDbEntity
  8
LABEL_ID
100
AcDbText
 10
52.67026951653973
 20
256.90016612449625
 30
0.0
 40
0.55
  1
back_pants(tapered) 右
 72
1
 11
52.67026951653973
 21
256.90016612449625
 31
0.0
100
AcDbText
 73
2
  0
LWPOLYLINE
  5
E3
330
17
100
AcDbEntity
  8
CUT_LINE
100
AcDbPolyline
 90
46
 70
1
 10
11.41478238070645
 20
76.90016612449625
 10
10.757164650974401
 20
76.89125186434703
 10
10.112722676901132
 20
76.86482324843024
 10
9.488290927313413
 20
76.82186751346029
 10
8.883902237028188
 20
76.76328126053738
 10
8.299588140830785
 20
76.68996239386811
 10
7.73537820066398
 20
76.60280975089486
 10
7.191299284756433
 20
76.5027225953136
 10
6.660314004559198
 20
76.38908890381862
 10
5.680091516014729
 20
76.13419093150341
 10
4.773509072966221
 20
75.84003483640907
 10
3.947644697961298
 20
75.51553033059383
 10
3.202295060637872
 20
75.16756756320561
 10
2.5370304592998196
 20
74.80273389288837
 10
1.951101732977385
 20
74.42707729830349
 10
1.4432973039714654
 20
74.04565757422407
 10
1.0117338434934056
 20
73.66162418908291
 10
0.6536408671025691
 20
73.2741548080889
 10
0.36574587416199544
 20
72.87348251189039
 10
0.16658724202980657
 20
72.46441073013332
 10
0.08946774083354458
 20
72.1841405947203
 10
0.0
 20
71.3042741891712
 10
11.192784384385094
 20
65.90016612449625
 10
59.97745329325649
 20
65.90016612449625
 10
71.17023767764155
 20
71.3042741891712
 10
71.08076993680803
 20
72.18414059472033
 10
71.00365043561175
 20
72.46441073013335
 10
70.80449180347956
 20
72.87348251189042
 10
70.51659681053901
 20
73.2741548080889
 10
70.1585038341482
 20
73.66162418908289
 10
69.72694037367008
 20
74.04565757422407
 10
69.21913594466423
 20
74.42707729830343
 10
68.63320721834168
 20
74.80273389288843
 10
67.96794261700377
 20
75.16756756320558
 10
67.22259297968026
 20
75.51553033059383
 10
66.39672860467535
 20
75.84003483640907
 10
65.49014616162684
 20
76.13419093150344
 10
64.50992367308238
 20
76.38908890381862
 10
63.97893839288512
 20
76.5027225953136
 10
63.43485947697761
 20
76.60280975089486
 10
62.87064953681078
 20
76.68996239386811
 10
62.28633544061341
 20
76.76328126053738
 10
61.68194675032816
 20
76.82186751346029
 10
61.05751500074045
 20
76.86482324843024
 10
60.41307302666718
 20
76.89125186434703
 10
59.755455296935125
 20
76.90016612449625
  0
LWPOLYLINE
  5
E4
330
17
100
AcDbEntity
  8
STITCH_LINE
  6
DASHED
100
AcDbPolyline
 90
46
 70
1
 10
11.421559760853434
 20
75.90016612449625
 10
10.78443466797734
 20
75.89152964988688
 10
10.167535768525887
 20
75.86623057762125
 10
9.570863062499068
 20
75.82518443504313
 10
8.99441654989689
 20
75.76930674949625
 10
8.438196230719349
 20
75.69951304832438
 10
7.902202104966446
 20
75.61671885887125
 10
7.386434172638181
 20
75.52183970848063
 10
6.890892433734553
 20
75.41579112449625
 10
5.960487536201213
 20
75.17384776512125
 10
5.110987412366423
 20
74.89821299949625
 10
4.342392062230184
 20
74.59621104637125
 10
3.654701485792497
 20
74.27516612449625
 10
3.047915683053361
 20
73.94240245262125
 10
2.522034654012777
 20
73.60524424949625
 10
2.0770583986707445
 20
73.27101573387125
 10
1.7129869170272627
 20
72.94704112449625
 10
1.4298202090823326
 20
72.64064464012125
 10
1.2275582748359541
 20
72.35915049949625
 10
1.106201114288127
 20
72.10988292137125
 10
1.0758618241511702
 20
71.99962291160563
 10
1.0657487274388513
 20
71.90016612449625
 10
11.421559760853434
 20
66.90016612449625
 10
59.74867791678815
 20
66.90016612449625
 10
70.10448895020272
 20
71.90016612449625
 10
70.0943758534904
 20
71.99962291160563
 10
70.06403656335344
 20
72.10988292137125
 10
69.94267940280562
 20
72.35915049949625
 10
69.74041746855924
 20
72.64064464012125
 10
69.45725076061431
 20
72.94704112449625
 10
69.09317927897082
 20
73.27101573387125
 10
68.6482030236288
 20
73.60524424949625
 10
68.1223219945882
 20
73.94240245262125
 10
67.51553619184908
 20
74.27516612449625
 10
66.82784561541139
 20
74.59621104637125
 10
66.05925026527515
 20
74.89821299949625
 10
65.20975014144037
 20
75.17384776512125
 10
64.27934524390702
 20
75.41579112449625
 10
63.7838035050034
 20
75.52183970848063
 10
63.26803557267514
 20
75.61671885887125
 10
62.73204144692223
 20
75.69951304832438
 10
62.17582112774469
 20
75.76930674949625
 10
61.599374615142516
 20
75.82518443504313
 10
61.00270190911569
 20
75.86623057762125
 10
60.38580300966424
 20
75.89152964988688
 10
59.74867791678815
 20
75.90016612449625
  0
LINE
  5
E5
330
17
100
AcDbEntity
  8
NOTCH
100
AcDbLine
 10
11.421559760853434
 20
75.90016612449625
 30
0.0
 11
11.408005623140067
 21
76.90007426295242
 31
0.0
  0
LINE
  5
E6
330
17
100
AcDbEntity
  8
NOTCH
100
AcDbLine
 10
59.74867791678816
 20
66.90016612449625
 30
0.0
 11
60.18347232483024
 21
65.99963637888243
 31
0.0
  0
LINE
  5
E7
330
17
100
AcDbEntity
  8
GRAINLINE
100
AcDbLine
 10
35.58511883882079
 20
75.18016612449625
 30
0.0
 11
35.58511883882079
 21
67.62016612449625
 31
0.0
  0
LINE
  5
E8
330
17
100
AcDbEntity
  8
GRAINLINE
100
AcDbLine
 10
35.18511883882079
 20
74.78016612449625
 30
0.0
 11
35.58511883882079
 21
75.18016612449625
 31
0.0
  0
LINE
  5
E9
330
17
100
AcDbEntity
  8
GRAINLINE
100
AcDbLine
 10
35.98511883882079
 20
74.78016612449625
 30
0.0
 11
35.58511883882079
 21
75.18016612449625
 31
0.0
  0
LINE
  5
EA
330
17
100
AcDbEntity
  8
GRAINLINE
100
AcDbLine
 10
35.18511883882079
 20
68.02016612449626
 30
0.0
 11
35.58511883882079
 21
67.62016612449625
 31
0.0
  0
LINE
  5
EB
330
17
100
AcDbEntity
  8
GRAINLINE
100
AcDbLine
 10
35.98511883882079
 20
68.02016612449626
 30
0.0
 11
35.58511883882079
 21
67.62016612449625
 31
0.0
  0
TEXT
  5
EC
330
17
100
AcDbEntity
  8
LABEL
100
AcDbText
 10
35.585118838820776
 20
71.40016612449625
 30
0.0
 40
0.9
  1
衿・コンバーチブルカラー（オープンカラー）
 72
1
 11
35.585118838820776
 21
71.40016612449625
 31
0.0
100
AcDbText
 73
2
  0
TEXT
  5
ED
330
17
100
AcDbEntity
  8
LABEL_ID
100
AcDbText
 10
35.585118838820776
 20
70.20016612449625
 30
0.0
 40
0.55
  1
collar(convertible_collar)
 72
1
 11
35.585118838820776
 21
70.20016612449625
 31
0.0
100
AcDbText
 73
2
  0
LWPOLYLINE
  5
EE
330
17
100
AcDbEntity
  8
CUT_LINE
100
AcDbPolyline
 90
6
 70
1
 10
115.20803638120378
 20
143.00193614976035
 10
115.20803638120378
 20
128.668602816427
 10
118.70803638120378
 20
124.00193614976035
 10
127.70803638120378
 20
124.00193614976035
 10
131.20803638120378
 20
128.668602816427
 10
131.20803638120378
 20
143.00193614976035
  0
LWPOLYLINE
  5
EF
330
17
100
AcDbEntity
  8
STITCH_LINE
  6
DASHED
100
AcDbPolyline
 90
6
 70
1
 10
116.20803638120378
 20
142.00193614976035
 10
130.20803638120378
 20
142.00193614976035
 10
130.20803638120378
 20
129.00193614976035
 10
127.20803638120378
 20
125.00193614976035
 10
119.20803638120378
 20
125.00193614976035
 10
116.20803638120378
 20
129.00193614976035
  0
LINE
  5
F0
330
17
100
AcDbEntity
  8
NOTCH
100
AcDbLine
 10
116.20803638120378
 20
142.00193614976035
 30
0.0
 11
116.20803638120378
 21
143.00193614976035
 31
0.0
  0
LINE
  5
F1
330
17
100
AcDbEntity
  8
GRAINLINE
100
AcDbLine
 10
123.20803638120378
 20
140.64193614976034
 30
0.0
 11
123.20803638120378
 21
126.36193614976037
 31
0.0
  0
LINE
  5
F2
330
17
100
AcDbEntity
  8
GRAINLINE
100
AcDbLine
 10
122.69803638120378
 20
140.13193614976035
 30
0.0
 11
123.20803638120378
 21
140.64193614976034
 31
0.0
  0
LINE
  5
F3
330
17
100
AcDbEntity
  8
GRAINLINE
100
AcDbLine
 10
123.71803638120379
 20
140.13193614976035
 30
0.0
 11
123.20803638120378
 21
140.64193614976034
 31
0.0
  0
LINE
  5
F4
330
17
100
AcDbEntity
  8
GRAINLINE
100
AcDbLine
 10
122.69803638120378
 20
126.87193614976036
 30
0.0
 11
123.20803638120378
 21
126.36193614976037
 31
0.0
  0
LINE
  5
F5
330
17
100
AcDbEntity
  8
GRAINLINE
100
AcDbLine
 10
123.71803638120379
 20
126.87193614976036
 30
0.0
 11
123.20803638120378
 21
126.36193614976037
 31
0.0
  0
TEXT
  5
F6
330
17
100
AcDbEntity
  8
LABEL
100
AcDbText
 10
123.20803638120378
 20
133.50193614976035
 30
0.0
 40
0.9
  1
COAT PATCH POCKET-1
 72
1
 11
123.20803638120378
 21
133.50193614976035
 31
0.0
100
AcDbText
 73
2
  0
TEXT
  5
F7
330
17
100
AcDbEntity
  8
LABEL_ID
100
AcDbText
 10
123.20803638120378
 20
132.30193614976037
 30
0.0
 40
0.55
  1
custom_panel(COAT PATCH POCKET-1)
 72
1
 11
123.20803638120378
 21
132.30193614976037
 31
0.0
100
AcDbText
 73
2
  0
LWPOLYLINE
  5
F8
330
17
100
AcDbEntity
  8
CUT_LINE
100
AcDbPolyline
 90
6
 70
1
 10
115.20803638120378
 20
123.70193614976034
 10
115.20803638120378
 20
109.368602816427
 10
118.70803638120378
 20
104.70193614976034
 10
127.70803638120378
 20
104.70193614976034
 10
131.20803638120378
 20
109.368602816427
 10
131.20803638120378
 20
123.70193614976034
  0
LWPOLYLINE
  5
F9
330
17
100
AcDbEntity
  8
STITCH_LINE
  6
DASHED
100
AcDbPolyline
 90
6
 70
1
 10
116.20803638120378
 20
122.70193614976034
 10
130.20803638120378
 20
122.70193614976034
 10
130.20803638120378
 20
109.70193614976034
 10
127.20803638120378
 20
105.70193614976034
 10
119.20803638120378
 20
105.70193614976034
 10
116.20803638120378
 20
109.70193614976034
  0
LINE
  5
FA
330
17
100
AcDbEntity
  8
NOTCH
100
AcDbLine
 10
116.20803638120378
 20
122.70193614976034
 30
0.0
 11
116.20803638120378
 21
123.70193614976034
 31
0.0
  0
LINE
  5
FB
330
17
100
AcDbEntity
  8
GRAINLINE
100
AcDbLine
 10
123.20803638120378
 20
121.34193614976033
 30
0.0
 11
123.20803638120378
 21
107.06193614976036
 31
0.0
  0
LINE
  5
FC
330
17
100
AcDbEntity
  8
GRAINLINE
100
AcDbLine
 10
122.69803638120378
 20
120.83193614976034
 30
0.0
 11
123.20803638120378
 21
121.34193614976033
 31
0.0
  0
LINE
  5
FD
330
17
100
AcDbEntity
  8
GRAINLINE
100
AcDbLine
 10
123.71803638120379
 20
120.83193614976034
 30
0.0
 11
123.20803638120378
 21
121.34193614976033
 31
0.0
  0
LINE
  5
FE
330
17
100
AcDbEntity
  8
GRAINLINE
100
AcDbLine
 10
122.69803638120378
 20
107.57193614976035
 30
0.0
 11
123.20803638120378
 21
107.06193614976036
 31
0.0
  0
LINE
  5
FF
330
17
100
AcDbEntity
  8
GRAINLINE
100
AcDbLine
 10
123.71803638120379
 20
107.57193614976035
 30
0.0
 11
123.20803638120378
 21
107.06193614976036
 31
0.0
  0
TEXT
  5
100
330
17
100
AcDbEntity
  8
LABEL
100
AcDbText
 10
123.20803638120378
 20
114.20193614976034
 30
0.0
 40
0.9
  1
COAT PATCH POCKET-2
 72
1
 11
123.20803638120378
 21
114.20193614976034
 31
0.0
100
AcDbText
 73
2
  0
TEXT
  5
101
330
17
100
AcDbEntity
  8
LABEL_ID
100
AcDbText
 10
123.20803638120378
 20
113.00193614976034
 30
0.0
 40
0.55
  1
custom_panel(COAT PATCH POCKET-2)
 72
1
 11
123.20803638120378
 21
113.00193614976034
 31
0.0
100
AcDbText
 73
2
  0
LWPOLYLINE
  5
102
330
17
100
AcDbEntity
  8
CUT_LINE
100
AcDbPolyline
 90
6
 70
1
 10
115.20803638120378
 20
104.40193614976033
 10
115.20803638120378
 20
99.86675239127234
 10
118.90526074347179
 20
97.40193614976033
 10
128.51081201893578
 20
97.40193614976033
 10
132.20803638120378
 20
99.86675239127234
 10
132.20803638120378
 20
104.40193614976033
  0
LWPOLYLINE
  5
103
330
17
100
AcDbEntity
  8
STITCH_LINE
  6
DASHED
100
AcDbPolyline
 90
6
 70
1
 10
116.20803638120378
 20
103.40193614976033
 10
131.20803638120378
 20
103.40193614976033
 10
131.20803638120378
 20
100.40193614976033
 10
128.20803638120378
 20
98.40193614976033
 10
119.20803638120378
 20
98.40193614976033
 10
116.20803638120378
 20
100.40193614976033
  0
LINE
  5
104
330
17
100
AcDbEntity
  8
NOTCH
100
AcDbLine
 10
116.20803638120378
 20
103.40193614976033
 30
0.0
 11
116.20803638120378
 21
104.40193614976033
 31
0.0
  0
LINE
  5
105
330
17
100
AcDbEntity
  8
GRAINLINE
100
AcDbLine
 10
123.70803638120378
 20
103.00193614976033
 30
0.0
 11
123.70803638120378
 21
98.80193614976034
 31
0.0
  0
LINE
  5
106
330
17
100
AcDbEntity
  8
GRAINLINE
100
AcDbLine
 10
123.30803638120378
 20
102.60193614976032
 30
0.0
 11
123.70803638120378
 21
103.00193614976033
 31
0.0
  0
LINE
  5
107
330
17
100
AcDbEntity
  8
GRAINLINE
100
AcDbLine
 10
124.10803638120379
 20
102.60193614976032
 30
0.0
 11
123.70803638120378
 21
103.00193614976033
 31
0.0
  0
LINE
  5
108
330
17
100
AcDbEntity
  8
GRAINLINE
100
AcDbLine
 10
123.30803638120378
 20
99.20193614976034
 30
0.0
 11
123.70803638120378
 21
98.80193614976034
 31
0.0
  0
LINE
  5
109
330
17
100
AcDbEntity
  8
GRAINLINE
100
AcDbLine
 10
124.10803638120379
 20
99.20193614976034
 30
0.0
 11
123.70803638120378
 21
98.80193614976034
 31
0.0
  0
TEXT
  5
10A
330
17
100
AcDbEntity
  8
LABEL
100
AcDbText
 10
123.70803638120378
 20
100.90193614976033
 30
0.0
 40
0.9
  1
COAT POCKET FLAP-1
 72
1
 11
123.70803638120378
 21
100.90193614976033
 31
0.0
100
AcDbText
 73
2
  0
TEXT
  5
10B
330
17
100
AcDbEntity
  8
LABEL_ID
100
AcDbText
 10
123.70803638120378
 20
99.70193614976033
 30
0.0
 40
0.55
  1
custom_panel(COAT POCKET FLAP-1)
 72
1
 11
123.70803638120378
 21
99.70193614976033
 31
0.0
100
AcDbText
 73
2
  0
LWPOLYLINE
  5
10C
330
17
100
AcDbEntity
  8
CUT_LINE
100
AcDbPolyline
 90
6
 70
1
 10
115.20803638120378
 20
97.10193614976032
 10
115.20803638120378
 20
92.56675239127233
 10
118.90526074347179
 20
90.10193614976032
 10
128.51081201893578
 20
90.10193614976032
 10
132.20803638120378
 20
92.56675239127233
 10
132.20803638120378
 20
97.10193614976032
  0
LWPOLYLINE
  5
10D
330
17
100
AcDbEntity
  8
STITCH_LINE
  6
DASHED
100
AcDbPolyline
 90
6
 70
1
 10
116.20803638120378
 20
96.10193614976032
 10
131.20803638120378
 20
96.10193614976032
 10
131.20803638120378
 20
93.10193614976032
 10
128.20803638120378
 20
91.10193614976032
 10
119.20803638120378
 20
91.10193614976032
 10
116.20803638120378
 20
93.10193614976032
  0
LINE
  5
10E
330
17
100
AcDbEntity
  8
NOTCH
100
AcDbLine
 10
116.20803638120378
 20
96.10193614976032
 30
0.0
 11
116.20803638120378
 21
97.10193614976032
 31
0.0
  0
LINE
  5
10F
330
17
100
AcDbEntity
  8
GRAINLINE
100
AcDbLine
 10
123.70803638120378
 20
95.70193614976031
 30
0.0
 11
123.70803638120378
 21
91.50193614976033
 31
0.0
  0
LINE
  5
110
330
17
100
AcDbEntity
  8
GRAINLINE
100
AcDbLine
 10
123.30803638120378
 20
95.30193614976031
 30
0.0
 11
123.70803638120378
 21
95.70193614976031
 31
0.0
  0
LINE
  5
111
330
17
100
AcDbEntity
  8
GRAINLINE
100
AcDbLine
 10
124.10803638120379
 20
95.30193614976031
 30
0.0
 11
123.70803638120378
 21
95.70193614976031
 31
0.0
  0
LINE
  5
112
330
17
100
AcDbEntity
  8
GRAINLINE
100
AcDbLine
 10
123.30803638120378
 20
91.90193614976033
 30
0.0
 11
123.70803638120378
 21
91.50193614976033
 31
0.0
  0
LINE
  5
113
330
17
100
AcDbEntity
  8
GRAINLINE
100
AcDbLine
 10
124.10803638120379
 20
91.90193614976033
 30
0.0
 11
123.70803638120378
 21
91.50193614976033
 31
0.0
  0
TEXT
  5
114
330
17
100
AcDbEntity
  8
LABEL
100
AcDbText
 10
123.70803638120378
 20
93.60193614976032
 30
0.0
 40
0.9
  1
COAT POCKET FLAP-2
 72
1
 11
123.70803638120378
 21
93.60193614976032
 31
0.0
100
AcDbText
 73
2
  0
TEXT
  5
115
330
17
100
AcDbEntity
  8
LABEL_ID
100
AcDbText
 10
123.70803638120378
 20
92.40193614976032
 30
0.0
 40
0.55
  1
custom_panel(COAT POCKET FLAP-2)
 72
1
 11
123.70803638120378
 21
92.40193614976032
 31
0.0
100
AcDbText
 73
2
  0
LWPOLYLINE
  5
116
330
17
100
AcDbEntity
  8
CUT_LINE
100
AcDbPolyline
 90
4
 70
1
 10
0.0
 20
208.80016612449623
 10
0.0
 20
201.80016612449623
 10
98.0
 20
201.80016612449623
 10
98.0
 20
208.80016612449623
  0
LWPOLYLINE
  5
117
330
17
100
AcDbEntity
  8
STITCH_LINE
  6
DASHED
100
AcDbPolyline
 90
4
 70
1
 10
1.0
 20
207.80016612449623
 10
97.0
 20
207.80016612449623
 10
97.0
 20
202.80016612449623
 10
1.0
 20
202.80016612449623
  0
LINE
  5
118
330
17
100
AcDbEntity
  8
NOTCH
100
AcDbLine
 10
1.0
 20
207.80016612449623
 30
0.0
 11
1.0
 21
208.80016612449623
 31
0.0
  0
LINE
  5
119
330
17
100
AcDbEntity
  8
GRAINLINE
100
AcDbLine
 10
49.0
 20
207.40016612449625
 30
0.0
 11
49.0
 21
203.20016612449626
 31
0.0
  0
LINE
  5
11A
330
17
100
AcDbEntity
  8
GRAINLINE
100
AcDbLine
 10
48.6
 20
207.00016612449625
 30
0.0
 11
49.0
 21
207.40016612449625
 31
0.0
  0
LINE
  5
11B
330
17
100
AcDbEntity
  8
GRAINLINE
100
AcDbLine
 10
49.4
 20
207.00016612449625
 30
0.0
 11
49.0
 21
207.40016612449625
 31
0.0
  0
LINE
  5
11C
330
17
100
AcDbEntity
  8
GRAINLINE
100
AcDbLine
 10
48.6
 20
203.60016612449624
 30
0.0
 11
49.0
 21
203.20016612449626
 31
0.0
  0
LINE
  5
11D
330
17
100
AcDbEntity
  8
GRAINLINE
100
AcDbLine
 10
49.4
 20
203.60016612449624
 30
0.0
 11
49.0
 21
203.20016612449626
 31
0.0
  0
TEXT
  5
11E
330
17
100
AcDbEntity
  8
LABEL
100
AcDbText
 10
49.0
 20
205.30016612449623
 30
0.0
 40
0.9
  1
COAT BELT
 72
1
 11
49.0
 21
205.30016612449623
 31
0.0
100
AcDbText
 73
2
  0
TEXT
  5
11F
330
17
100
AcDbEntity
  8
LABEL_ID
100
AcDbText
 10
49.0
 20
204.10016612449624
 30
0.0
 40
0.55
  1
custom_panel(COAT BELT)
 72
1
 11
49.0
 21
204.10016612449624
 31
0.0
100
AcDbText
 73
2
  0
LWPOLYLINE
  5
120
330
17
100
AcDbEntity
  8
CUT_LINE
100
AcDbPolyline
 90
4
 70
1
 10
71.7147911950324
 20
76.90016612449625
 10
71.7147911950324
 20
71.90016612449625
 10
82.7147911950324
 20
71.90016612449625
 10
82.7147911950324
 20
76.90016612449625
  0
LWPOLYLINE
  5
121
330
17
100
AcDbEntity
  8
STITCH_LINE
  6
DASHED
100
AcDbPolyline
 90
4
 70
1
 10
72.7147911950324
 20
75.90016612449625
 10
81.7147911950324
 20
75.90016612449625
 10
81.7147911950324
 20
72.90016612449625
 10
72.7147911950324
 20
72.90016612449625
  0
LINE
  5
122
330
17
100
AcDbEntity
  8
NOTCH
100
AcDbLine
 10
72.7147911950324
 20
75.90016612449625
 30
0.0
 11
72.7147911950324
 21
76.90016612449625
 31
0.0
  0
LINE
  5
123
330
17
100
AcDbEntity
  8
GRAINLINE
100
AcDbLine
 10
77.2147911950324
 20
75.66016612449624
 30
0.0
 11
77.2147911950324
 21
73.14016612449626
 31
0.0
  0
LINE
  5
124
330
17
100
AcDbEntity
  8
GRAINLINE
100
AcDbLine
 10
76.8147911950324
 20
75.26016612449627
 30
0.0
 11
77.2147911950324
 21
75.66016612449624
 31
0.0
  0
LINE
  5
125
330
17
100
AcDbEntity
  8
GRAINLINE
100
AcDbLine
 10
77.61479119503241
 20
75.26016612449627
 30
0.0
 11
77.2147911950324
 21
75.66016612449624
 31
0.0
  0
LINE
  5
126
330
17
100
AcDbEntity
  8
GRAINLINE
100
AcDbLine
 10
76.8147911950324
 20
73.54016612449624
 30
0.0
 11
77.2147911950324
 21
73.14016612449626
 31
0.0
  0
LINE
  5
127
330
17
100
AcDbEntity
  8
GRAINLINE
100
AcDbLine
 10
77.61479119503241
 20
73.54016612449624
 30
0.0
 11
77.2147911950324
 21
73.14016612449626
 31
0.0
  0
TEXT
  5
128
330
17
100
AcDbEntity
  8
LABEL
100
AcDbText
 10
77.2147911950324
 20
74.40016612449625
 30
0.0
 40
0.9
  1
COAT BELT LOOP-1
 72
1
 11
77.2147911950324
 21
74.40016612449625
 31
0.0
100
AcDbText
 73
2
  0
TEXT
  5
129
330
17
100
AcDbEntity
  8
LABEL_ID
100
AcDbText
 10
77.2147911950324
 20
73.20016612449625
 30
0.0
 40
0.55
  1
custom_panel(COAT BELT LOOP-1)
 72
1
 11
77.2147911950324
 21
73.20016612449625
 31
0.0
100
AcDbText
 73
2
  0
LWPOLYLINE
  5
12A
330
17
100
AcDbEntity
  8
CUT_LINE
100
AcDbPolyline
 90
4
 70
1
 10
71.7147911950324
 20
71.60016612449624
 10
71.7147911950324
 20
66.60016612449624
 10
82.7147911950324
 20
66.60016612449624
 10
82.7147911950324
 20
71.60016612449624
  0
LWPOLYLINE
  5
12B
330
17
100
AcDbEntity
  8
STITCH_LINE
  6
DASHED
100
AcDbPolyline
 90
4
 70
1
 10
72.7147911950324
 20
70.60016612449624
 10
81.7147911950324
 20
70.60016612449624
 10
81.7147911950324
 20
67.60016612449624
 10
72.7147911950324
 20
67.60016612449624
  0
LINE
  5
12C
330
17
100
AcDbEntity
  8
NOTCH
100
AcDbLine
 10
72.7147911950324
 20
70.60016612449624
 30
0.0
 11
72.7147911950324
 21
71.60016612449624
 31
0.0
  0
LINE
  5
12D
330
17
100
AcDbEntity
  8
GRAINLINE
100
AcDbLine
 10
77.2147911950324
 20
70.36016612449623
 30
0.0
 11
77.2147911950324
 21
67.84016612449625
 31
0.0
  0
LINE
  5
12E
330
17
100
AcDbEntity
  8
GRAINLINE
100
AcDbLine
 10
76.8147911950324
 20
69.96016612449625
 30
0.0
 11
77.2147911950324
 21
70.36016612449623
 31
0.0
  0
LINE
  5
12F
330
17
100
AcDbEntity
  8
GRAINLINE
100
AcDbLine
 10
77.61479119503241
 20
69.96016612449625
 30
0.0
 11
77.2147911950324
 21
70.36016612449623
 31
0.0
  0
LINE
  5
130
330
17
100
AcDbEntity
  8
GRAINLINE
100
AcDbLine
 10
76.8147911950324
 20
68.24016612449623
 30
0.0
 11
77.2147911950324
 21
67.84016612449625
 31
0.0
  0
LINE
  5
131
330
17
100
AcDbEntity
  8
GRAINLINE
100
AcDbLine
 10
77.61479119503241
 20
68.24016612449623
 30
0.0
 11
77.2147911950324
 21
67.84016612449625
 31
0.0
  0
TEXT
  5
132
330
17
100
AcDbEntity
  8
LABEL
100
AcDbText
 10
77.2147911950324
 20
69.10016612449624
 30
0.0
 40
0.9
  1
COAT BELT LOOP-2
 72
1
 11
77.2147911950324
 21
69.10016612449624
 31
0.0
100
AcDbText
 73
2
  0
TEXT
  5
133
330
17
100
AcDbEntity
  8
LABEL_ID
100
AcDbText
 10
77.2147911950324
 20
67.90016612449624
 30
0.0
 40
0.55
  1
custom_panel(COAT BELT LOOP-2)
 72
1
 11
77.2147911950324
 21
67.90016612449624
 31
0.0
100
AcDbText
 73
2
  0
LWPOLYLINE
  5
134
330
17
100
AcDbEntity
  8
CUT_LINE
100
AcDbPolyline
 90
4
 70
1
 10
71.7147911950324
 20
66.30016612449623
 10
71.7147911950324
 20
61.30016612449623
 10
82.7147911950324
 20
61.30016612449623
 10
82.7147911950324
 20
66.30016612449623
  0
LWPOLYLINE
  5
135
330
17
100
AcDbEntity
  8
STITCH_LINE
  6
DASHED
100
AcDbPolyline
 90
4
 70
1
 10
72.7147911950324
 20
65.30016612449623
 10
81.7147911950324
 20
65.30016612449623
 10
81.7147911950324
 20
62.30016612449623
 10
72.7147911950324
 20
62.30016612449623
  0
LINE
  5
136
330
17
100
AcDbEntity
  8
NOTCH
100
AcDbLine
 10
72.7147911950324
 20
65.30016612449623
 30
0.0
 11
72.7147911950324
 21
66.30016612449623
 31
0.0
  0
LINE
  5
137
330
17
100
AcDbEntity
  8
GRAINLINE
100
AcDbLine
 10
77.2147911950324
 20
65.06016612449622
 30
0.0
 11
77.2147911950324
 21
62.54016612449624
 31
0.0
  0
LINE
  5
138
330
17
100
AcDbEntity
  8
GRAINLINE
100
AcDbLine
 10
76.8147911950324
 20
64.66016612449624
 30
0.0
 11
77.2147911950324
 21
65.06016612449622
 31
0.0
  0
LINE
  5
139
330
17
100
AcDbEntity
  8
GRAINLINE
100
AcDbLine
 10
77.61479119503241
 20
64.66016612449624
 30
0.0
 11
77.2147911950324
 21
65.06016612449622
 31
0.0
  0
LINE
  5
13A
330
17
100
AcDbEntity
  8
GRAINLINE
100
AcDbLine
 10
76.8147911950324
 20
62.940166124496216
 30
0.0
 11
77.2147911950324
 21
62.54016612449624
 31
0.0
  0
LINE
  5
13B
330
17
100
AcDbEntity
  8
GRAINLINE
100
AcDbLine
 10
77.61479119503241
 20
62.940166124496216
 30
0.0
 11
77.2147911950324
 21
62.54016612449624
 31
0.0
  0
TEXT
  5
13C
330
17
100
AcDbEntity
  8
LABEL
100
AcDbText
 10
77.2147911950324
 20
63.80016612449623
 30
0.0
 40
0.9
  1
COAT BELT LOOP-3
 72
1
 11
77.2147911950324
 21
63.80016612449623
 31
0.0
100
AcDbText
 73
2
  0
TEXT
  5
13D
330
17
100
AcDbEntity
  8
LABEL_ID
100
AcDbText
 10
77.2147911950324
 20
62.600166124496226
 30
0.0
 40
0.55
  1
custom_panel(COAT BELT LOOP-3)
 72
1
 11
77.2147911950324
 21
62.600166124496226
 31
0.0
100
AcDbText
 73
2
  0
LWPOLYLINE
  5
13E
330
17
100
AcDbEntity
  8
CUT_LINE
100
AcDbPolyline
 90
4
 70
1
 10
71.7147911950324
 20
61.00016612449622
 10
71.7147911950324
 20
56.00016612449622
 10
82.7147911950324
 20
56.00016612449622
 10
82.7147911950324
 20
61.00016612449622
  0
LWPOLYLINE
  5
13F
330
17
100
AcDbEntity
  8
STITCH_LINE
  6
DASHED
100
AcDbPolyline
 90
4
 70
1
 10
72.7147911950324
 20
60.00016612449622
 10
81.7147911950324
 20
60.00016612449622
 10
81.7147911950324
 20
57.00016612449622
 10
72.7147911950324
 20
57.00016612449622
  0
LINE
  5
140
330
17
100
AcDbEntity
  8
NOTCH
100
AcDbLine
 10
72.7147911950324
 20
60.00016612449622
 30
0.0
 11
72.7147911950324
 21
61.00016612449622
 31
0.0
  0
LINE
  5
141
330
17
100
AcDbEntity
  8
GRAINLINE
100
AcDbLine
 10
77.2147911950324
 20
59.76016612449621
 30
0.0
 11
77.2147911950324
 21
57.24016612449623
 31
0.0
  0
LINE
  5
142
330
17
100
AcDbEntity
  8
GRAINLINE
100
AcDbLine
 10
76.8147911950324
 20
59.36016612449623
 30
0.0
 11
77.2147911950324
 21
59.76016612449621
 31
0.0
  0
LINE
  5
143
330
17
100
AcDbEntity
  8
GRAINLINE
100
AcDbLine
 10
77.61479119503241
 20
59.36016612449623
 30
0.0
 11
77.2147911950324
 21
59.76016612449621
 31
0.0
  0
LINE
  5
144
330
17
100
AcDbEntity
  8
GRAINLINE
100
AcDbLine
 10
76.8147911950324
 20
57.640166124496204
 30
0.0
 11
77.2147911950324
 21
57.24016612449623
 31
0.0
  0
LINE
  5
145
330
17
100
AcDbEntity
  8
GRAINLINE
100
AcDbLine
 10
77.61479119503241
 20
57.640166124496204
 30
0.0
 11
77.2147911950324
 21
57.24016612449623
 31
0.0
  0
TEXT
  5
146
330
17
100
AcDbEntity
  8
LABEL
100
AcDbText
 10
77.2147911950324
 20
58.50016612449622
 30
0.0
 40
0.9
  1
COAT BELT LOOP-4
 72
1
 11
77.2147911950324
 21
58.50016612449622
 31
0.0
100
AcDbText
 73
2
  0
TEXT
  5
147
330
17
100
AcDbEntity
  8
LABEL_ID
100
AcDbText
 10
77.2147911950324
 20
57.300166124496215
 30
0.0
 40
0.55
  1
custom_panel(COAT BELT LOOP-4)
 72
1
 11
77.2147911950324
 21
57.300166124496215
 31
0.0
100
AcDbText
 73
2
  0
ENDSEC
  0
SECTION
  2
OBJECTS
  0
DICTIONARY
  5
A
330
0
100
AcDbDictionary
281
1
  3
ACAD_COLOR
350
B
  3
ACAD_GROUP
350
C
  3
ACAD_LAYOUT
350
D
  3
ACAD_MATERIAL
350
E
  3
ACAD_MLEADERSTYLE
350
F
  3
ACAD_MLINESTYLE
350
10
  3
ACAD_PLOTSETTINGS
350
11
  3
ACAD_PLOTSTYLENAME
350
12
  3
ACAD_SCALELIST
350
14
  3
ACAD_TABLESTYLE
350
15
  3
ACAD_VISUALSTYLE
350
16
  3
EZDXF_META
350
2D
  0
DICTIONARY
  5
B
330
A
100
AcDbDictionary
281
1
  0
DICTIONARY
  5
C
330
A
100
AcDbDictionary
281
1
  0
DICTIONARY
  5
D
330
A
100
AcDbDictionary
281
1
  3
Model
350
1A
  3
Layout1
350
1E
  0
DICTIONARY
  5
E
330
A
100
AcDbDictionary
281
1
  3
ByBlock
350
1F
  3
ByLayer
350
20
  3
Global
350
21
  0
DICTIONARY
  5
F
330
A
100
AcDbDictionary
281
1
  3
Standard
350
2C
  0
DICTIONARY
  5
10
330
A
100
AcDbDictionary
281
1
  3
Standard
350
22
  0
DICTIONARY
  5
11
330
A
100
AcDbDictionary
281
1
  0
ACDBDICTIONARYWDFLT
  5
12
330
A
100
AcDbDictionary
281
1
  3
Normal
350
13
100
AcDbDictionaryWithDefault
340
13
  0
ACDBPLACEHOLDER
  5
13
330
12
  0
DICTIONARY
  5
14
330
A
100
AcDbDictionary
281
1
  0
DICTIONARY
  5
15
330
A
100
AcDbDictionary
281
1
  0
DICTIONARY
  5
16
330
A
100
AcDbDictionary
281
1
  0
LAYOUT
  5
1A
330
D
100
AcDbPlotSettings
  1

  4
A3
  6

 40
7.5
 41
20.0
 42
7.5
 43
20.0
 44
420.0
 45
297.0
 46
0.0
 47
0.0
 48
0.0
 49
0.0
140
0.0
141
0.0
142
1.0
143
1.0
 70
1024
 72
1
 73
0
 74
5
  7

 75
16
 76
0
 77
2
 78
300
147
1.0
148
0.0
149
0.0
100
AcDbLayout
  1
Model
 70
1
 71
0
 10
0.0
 20
0.0
 11
420.0
 21
297.0
 12
0.0
 22
0.0
 32
0.0
 14
1e+20
 24
1e+20
 34
1e+20
 15
-1e+20
 25
-1e+20
 35
-1e+20
146
0.0
 13
0.0
 23
0.0
 33
0.0
 16
1.0
 26
0.0
 36
0.0
 17
0.0
 27
1.0
 37
0.0
 76
1
330
17
  0
LAYOUT
  5
1E
330
D
100
AcDbPlotSettings
  1

  4
A3
  6

 40
7.5
 41
20.0
 42
7.5
 43
20.0
 44
420.0
 45
297.0
 46
0.0
 47
0.0
 48
0.0
 49
0.0
140
0.0
141
0.0
142
1.0
143
1.0
 70
0
 72
1
 73
0
 74
5
  7

 75
16
 76
0
 77
2
 78
300
147
1.0
148
0.0
149
0.0
100
AcDbLayout
  1
Layout1
 70
1
 71
1
 10
0.0
 20
0.0
 11
420.0
 21
297.0
 12
0.0
 22
0.0
 32
0.0
 14
1e+20
 24
1e+20
 34
1e+20
 15
-1e+20
 25
-1e+20
 35
-1e+20
146
0.0
 13
0.0
 23
0.0
 33
0.0
 16
1.0
 26
0.0
 36
0.0
 17
0.0
 27
1.0
 37
0.0
 76
1
330
1B
  0
MATERIAL
  5
1F
102
{ACAD_REACTORS
330
E
102
}
330
E
100
AcDbMaterial
  1
ByBlock
  2

 70
0
 40
1.0
 71
1
 41
1.0
 91
-1023410177
 42
1.0
 72
1
  3

 73
1
 74
1
 75
1
 44
0.5
 73
0
 45
1.0
 46
1.0
 77
1
  4

 78
1
 79
1
170
1
 48
1.0
171
1
  6

172
1
173
1
174
1
140
1.0
141
1.0
175
1
  7

176
1
177
1
178
1
143
1.0
179
1
  8

270
1
271
1
272
1
145
1.0
146
1.0
273
1
  9

274
1
275
1
276
1
 42
1.0
 72
1
  3

 73
1
 74
1
 75
1
 94
63
  0
MATERIAL
  5
20
102
{ACAD_REACTORS
330
E
102
}
330
E
100
AcDbMaterial
  1
ByLayer
  2

 70
0
 40
1.0
 71
1
 41
1.0
 91
-1023410177
 42
1.0
 72
1
  3

 73
1
 74
1
 75
1
 44
0.5
 73
0
 45
1.0
 46
1.0
 77
1
  4

 78
1
 79
1
170
1
 48
1.0
171
1
  6

172
1
173
1
174
1
140
1.0
141
1.0
175
1
  7

176
1
177
1
178
1
143
1.0
179
1
  8

270
1
271
1
272
1
145
1.0
146
1.0
273
1
  9

274
1
275
1
276
1
 42
1.0
 72
1
  3

 73
1
 74
1
 75
1
 94
63
  0
MATERIAL
  5
21
102
{ACAD_REACTORS
330
E
102
}
330
E
100
AcDbMaterial
  1
Global
  2

 70
0
 40
1.0
 71
1
 41
1.0
 91
-1023410177
 42
1.0
 72
1
  3

 73
1
 74
1
 75
1
 44
0.5
 73
0
 45
1.0
 46
1.0
 77
1
  4

 78
1
 79
1
170
1
 48
1.0
171
1
  6

172
1
173
1
174
1
140
1.0
141
1.0
175
1
  7

176
1
177
1
178
1
143
1.0
179
1
  8

270
1
271
1
272
1
145
1.0
146
1.0
273
1
  9

274
1
275
1
276
1
 42
1.0
 72
1
  3

 73
1
 74
1
 75
1
 94
63
  0
MLINESTYLE
  5
22
102
{ACAD_REACTORS
330
10
102
}
330
10
100
AcDbMlineStyle
  2
Standard
 70
0
  3

 62
256
 51
90.0
 52
90.0
 71
2
 49
0.5
 62
256
  6
BYLAYER
 49
-0.5
 62
256
  6
BYLAYER
  0
MLEADERSTYLE
  5
2C
102
{ACAD_REACTORS
330
F
102
}
330
F
100
AcDbMLeaderStyle
179
2
170
2
171
1
172
0
 90
2
 40
0.0
 41
0.0
173
1
 91
-1056964608
 92
-2
290
1
 42
2.0
291
1
 43
8.0
  3
Standard
 44
4.0
300

342
29
174
1
175
1
176
0
178
1
 93
-1056964608
 45
4.0
292
0
297
0
 46
4.0
 94
-1056964608
 47
1.0
 49
1.0
140
1.0
294
1
141
0.0
177
0
142
1.0
295
0
296
0
143
3.75
271
0
272
9
273
9
  0
DICTIONARY
  5
2D
330
A
100
AcDbDictionary
280
1
281
1
  3
CREATED_BY_EZDXF
350
2E
  3
WRITTEN_BY_EZDXF
350
14A
  0
DICTIONARYVAR
  5
2E
330
2D
100
DictionaryVariables
280
0
  1
1.4.4 @ 2026-10-10T00:52:52.069503+00:00
  0
DICTIONARYVAR
  5
14A
330
2D
100
DictionaryVariables
280
0
  1
1.4.4 @ 2026-10-10T00:52:52.077470+00:00
  0
ENDSEC
  0
EOF
