  0
SECTION
  2
HEADER
  9
$ACADVER
  1
AC1024
  9
$ACADMAINTVER
 70
6
  9
$DWGCODEPAGE
  3
ANSI_1252
  9
$LASTSAVEDBY
  1
ezdxf
  9
$INSBASE
 10
0.0
 20
0.0
 30
0.0
  9
$EXTMIN
 10
1e+20
 20
1e+20
 30
1e+20
  9
$EXTMAX
 10
-1e+20
 20
-1e+20
 30
-1e+20
  9
$LIMMIN
 10
0.0
 20
0.0
  9
$LIMMAX
 10
420.0
 20
297.0
  9
$ORTHOMODE
 70
0
  9
$REGENMODE
 70
1
  9
$FILLMODE
 70
1
  9
$QTEXTMODE
 70
0
  9
$MIRRTEXT
 70
1
  9
$LTSCALE
 40
1.0
  9
$ATTMODE
 70
1
  9
$TEXTSIZE
 40
2.5
  9
$TRACEWID
 40
1.0
  9
$TEXTSTYLE
  7
Standard
  9
$CLAYER
  8
0
  9
$CELTYPE
  6
ByLayer
  9
$CECOLOR
 62
256
  9
$CELTSCALE
 40
1.0
  9
$DISPSILH
 70
0
  9
$DIMSCALE
 40
1.0
  9
$DIMASZ
 40
2.5
  9
$DIMEXO
 40
0.625
  9
$DIMDLI
 40
3.75
  9
$DIMRND
 40
0.0
  9
$DIMDLE
 40
0.0
  9
$DIMEXE
 40
1.25
  9
$DIMTP
 40
0.0
  9
$DIMTM
 40
0.0
  9
$DIMTXT
 40
2.5
  9
$DIMCEN
 40
2.5
  9
$DIMTSZ
 40
0.0
  9
$DIMTOL
 70
0
  9
$DIMLIM
 70
0
  9
$DIMTIH
 70
0
  9
$DIMTOH
 70
0
  9
$DIMSE1
 70
0
  9
$DIMSE2
 70
0
  9
$DIMTAD
 70
1
  9
$DIMZIN
 70
8
  9
$DIMBLK
  1

  9
$DIMASO
 70
1
  9
$DIMSHO
 70
1
  9
$DIMPOST
  1

  9
$DIMAPOST
  1

  9
$DIMALT
 70
0
  9
$DIMALTD
 70
3
  9
$DIMALTF
 40
0.03937007874
  9
$DIMLFAC
 40
1.0
  9
$DIMTOFL
 70
1
  9
$DIMTVP
 40
0.0
  9
$DIMTIX
 70
0
  9
$DIMSOXD
 70
0
  9
$DIMSAH
 70
0
  9
$DIMBLK1
  1

  9
$DIMBLK2
  1

  9
$DIMSTYLE
  2
ISO-25
  9
$DIMCLRD
 70
0
  9
$DIMCLRE
 70
0
  9
$DIMCLRT
 70
0
  9
$DIMTFAC
 40
1.0
  9
$DIMGAP
 40
0.625
  9
$DIMJUST
 70
0
  9
$DIMSD1
 70
0
  9
$DIMSD2
 70
0
  9
$DIMTOLJ
 70
0
  9
$DIMTZIN
 70
8
  9
$DIMALTZ
 70
0
  9
$DIMALTTZ
 70
0
  9
$DIMUPT
 70
0
  9
$DIMDEC
 70
2
  9
$DIMTDEC
 70
2
  9
$DIMALTU
 70
2
  9
$DIMALTTD
 70
3
  9
$DIMTXSTY
  7
Standard
  9
$DIMAUNIT
 70
0
  9
$DIMADEC
 70
0
  9
$DIMALTRND
 40
0.0
  9
$DIMAZIN
 70
0
  9
$DIMDSEP
 70
44
  9
$DIMATFIT
 70
3
  9
$DIMFRAC
 70
0
  9
$DIMLDRBLK
  1

  9
$DIMLUNIT
 70
2
  9
$DIMLWD
 70
-2
  9
$DIMLWE
 70
-2
  9
$DIMTMOVE
 70
0
  9
$DIMFXL
 40
1.0
  9
$DIMFXLON
 70
0
  9
$DIMJOGANG
 40
0.785398163397
  9
$DIMTFILL
 70
0
  9
$DIMTFILLCLR
 70
0
  9
$DIMARCSYM
 70
0
  9
$DIMLTYPE
  6

  9
$DIMLTEX1
  6

  9
$DIMLTEX2
  6

  9
$DIMTXTDIRECTION
 70
0
  9
$LUNITS
 70
2
  9
$LUPREC
 70
4
  9
$SKETCHINC
 40
1.0
  9
$FILLETRAD
 40
10.0
  9
$AUNITS
 70
0
  9
$AUPREC
 70
2
  9
$MENU
  1
.
  9
$ELEVATION
 40
0.0
  9
$PELEVATION
 40
0.0
  9
$THICKNESS
 40
0.0
  9
$LIMCHECK
 70
0
  9
$CHAMFERA
 40
0.0
  9
$CHAMFERB
 40
0.0
  9
$CHAMFERC
 40
0.0
  9
$CHAMFERD
 40
0.0
  9
$SKPOLY
 70
0
  9
$TDCREATE
 40
2461324.4011805556
  9
$TDUCREATE
 40
2458532.153996898
  9
$TDUPDATE
 40
2461324.4011805556
  9
$TDUUPDATE
 40
2458532.1544311
  9
$TDINDWG
 40
0.0
  9
$TDUSRTIMER
 40
0.0
  9
$USRTIMER
 70
1
  9
$ANGBASE
 50
0.0
  9
$ANGDIR
 70
0
  9
$PDMODE
 70
0
  9
$PDSIZE
 40
0.0
  9
$PLINEWID
 40
0.0
  9
$SPLFRAME
 70
0
  9
$SPLINETYPE
 70
6
  9
$SPLINESEGS
 70
8
  9
$HANDSEED
  5
AC
  9
$SURFTAB1
 70
6
  9
$SURFTAB2
 70
6
  9
$SURFTYPE
 70
6
  9
$SURFU
 70
6
  9
$SURFV
 70
6
  9
$UCSBASE
  2

  9
$UCSNAME
  2

  9
$UCSORG
 10
0.0
 20
0.0
 30
0.0
  9
$UCSXDIR
 10
1.0
 20
0.0
 30
0.0
  9
$UCSYDIR
 10
0.0
 20
1.0
 30
0.0
  9
$UCSORTHOREF
  2

  9
$UCSORTHOVIEW
 70
0
  9
$UCSORGTOP
 10
0.0
 20
0.0
 30
0.0
  9
$UCSORGBOTTOM
 10
0.0
 20
0.0
 30
0.0
  9
$UCSORGLEFT
 10
0.0
 20
0.0
 30
0.0
  9
$UCSORGRIGHT
 10
0.0
 20
0.0
 30
0.0
  9
$UCSORGFRONT
 10
0.0
 20
0.0
 30
0.0
  9
$UCSORGBACK
 10
0.0
 20
0.0
 30
0.0
  9
$PUCSBASE
  2

  9
$PUCSNAME
  2

  9
$PUCSORG
 10
0.0
 20
0.0
 30
0.0
  9
$PUCSXDIR
 10
1.0
 20
0.0
 30
0.0
  9
$PUCSYDIR
 10
0.0
 20
1.0
 30
0.0
  9
$PUCSORTHOREF
  2

  9
$PUCSORTHOVIEW
 70
0
  9
$PUCSORGTOP
 10
0.0
 20
0.0
 30
0.0
  9
$PUCSORGBOTTOM
 10
0.0
 20
0.0
 30
0.0
  9
$PUCSORGLEFT
 10
0.0
 20
0.0
 30
0.0
  9
$PUCSORGRIGHT
 10
0.0
 20
0.0
 30
0.0
  9
$PUCSORGFRONT
 10
0.0
 20
0.0
 30
0.0
  9
$PUCSORGBACK
 10
0.0
 20
0.0
 30
0.0
  9
$USERI1
 70
0
  9
$USERI2
 70
0
  9
$USERI3
 70
0
  9
$USERI4
 70
0
  9
$USERI5
 70
0
  9
$USERR1
 40
0.0
  9
$USERR2
 40
0.0
  9
$USERR3
 40
0.0
  9
$USERR4
 40
0.0
  9
$USERR5
 40
0.0
  9
$WORLDVIEW
 70
1
  9
$SHADEDGE
 70
3
  9
$SHADEDIF
 70
70
  9
$TILEMODE
 70
1
  9
$MAXACTVP
 70
64
  9
$PINSBASE
 10
0.0
 20
0.0
 30
0.0
  9
$PLIMCHECK
 70
0
  9
$PEXTMIN
 10
1e+20
 20
1e+20
 30
1e+20
  9
$PEXTMAX
 10
-1e+20
 20
-1e+20
 30
-1e+20
  9
$PLIMMIN
 10
0.0
 20
0.0
  9
$PLIMMAX
 10
420.0
 20
297.0
  9
$UNITMODE
 70
0
  9
$VISRETAIN
 70
1
  9
$PLINEGEN
 70
0
  9
$PSLTSCALE
 70
1
  9
$TREEDEPTH
 70
3020
  9
$CMLSTYLE
  2
Standard
  9
$CMLJUST
 70
0
  9
$CMLSCALE
 40
20.0
  9
$PROXYGRAPHICS
 70
1
  9
$MEASUREMENT
 70
1
  9
$CELWEIGHT
370
-1
  9
$ENDCAPS
280
0
  9
$JOINSTYLE
280
0
  9
$LWDISPLAY
290
0
  9
$INSUNITS
 70
5
  9
$HYPERLINKBASE
  1

  9
$STYLESHEET
  1

  9
$XEDIT
290
1
  9
$CEPSNTYPE
380
0
  9
$PSTYLEMODE
290
1
  9
$FINGERPRINTGUID
  2
{60023473-87F7-4EA1-B5A8-271939098A30}
  9
$VERSIONGUID
  2
{B60D9D74-AE3D-45CE-ABFF-C477B00050F1}
  9
$EXTNAMES
290
1
  9
$PSVPSCALE
 40
0.0
  9
$OLESTARTUP
290
0
  9
$SORTENTS
280
127
  9
$INDEXCTL
280
0
  9
$HIDETEXT
280
1
  9
$XCLIPFRAME
280
1
  9
$HALOGAP
280
0
  9
$OBSCOLOR
 70
257
  9
$OBSLTYPE
280
0
  9
$INTERSECTIONDISPLAY
280
0
  9
$INTERSECTIONCOLOR
 70
257
  9
$DIMASSOC
280
2
  9
$PROJECTNAME
  1

  9
$CAMERADISPLAY
290
0
  9
$LENSLENGTH
 40
50.0
  9
$CAMERAHEIGHT
 40
0.0
  9
$STEPSPERSEC
 40
24.0
  9
$STEPSIZE
 40
100.0
  9
$3DDWFPREC
 40
2.0
  9
$PSOLWIDTH
 40
0.005
  9
$PSOLHEIGHT
 40
0.08
  9
$LOFTANG1
 40
1.570796326795
  9
$LOFTANG2
 40
1.570796326795
  9
$LOFTMAG1
 40
0.0
  9
$LOFTMAG2
 40
0.0
  9
$LOFTPARAM
 70
7
  9
$LOFTNORMALS
280
1
  9
$LATITUDE
 40
37.795
  9
$LONGITUDE
 40
-122.394
  9
$NORTHDIRECTION
 40
0.0
  9
$TIMEZONE
 70
-8000
  9
$LIGHTGLYPHDISPLAY
280
1
  9
$TILEMODELIGHTSYNCH
280
1
  9
$CMATERIAL
347
20
  9
$SOLIDHIST
280
0
  9
$SHOWHIST
280
1
  9
$DWFFRAME
280
2
  9
$DGNFRAME
280
2
  9
$REALWORLDSCALE
290
1
  9
$INTERFERECOLOR
 62
256
  9
$CSHADOW
280
0
  9
$SHADOWPLANELOCATION
 40
0.0
  0
ENDSEC
  0
SECTION
  2
CLASSES
  0
CLASS
  1
ACDBDICTIONARYWDFLT
  2
AcDbDictionaryWithDefault
  3
ObjectDBX Classes
 90
0
 91
0
280
0
281
0
  0
CLASS
  1
SUN
  2
AcDbSun
  3
SCENEOE
 90
1153
 91
0
280
0
281
0
  0
CLASS
  1
VISUALSTYLE
  2
AcDbVisualStyle
  3
ObjectDBX Classes
 90
4095
 91
0
280
0
281
0
  0
CLASS
  1
MATERIAL
  2
AcDbMaterial
  3
ObjectDBX Classes
 90
1153
 91
0
280
0
281
0
  0
CLASS
  1
SCALE
  2
AcDbScale
  3
ObjectDBX Classes
 90
1153
 91
0
280
0
281
0
  0
CLASS
  1
TABLESTYLE
  2
AcDbTableStyle
  3
ObjectDBX Classes
 90
4095
 91
0
280
0
281
0
  0
CLASS
  1
MLEADERSTYLE
  2
AcDbMLeaderStyle
  3
ACDB_MLEADERSTYLE_CLASS
 90
4095
 91
0
280
0
281
0
  0
CLASS
  1
DICTIONARYVAR
  2
AcDbDictionaryVar
  3
ObjectDBX Classes
 90
0
 91
0
280
0
281
0
  0
CLASS
  1
CELLSTYLEMAP
  2
AcDbCellStyleMap
  3
ObjectDBX Classes
 90
1152
 91
0
280
0
281
0
  0
CLASS
  1
MENTALRAYRENDERSETTINGS
  2
AcDbMentalRayRenderSettings
  3
SCENEOE
 90
1024
 91
0
280
0
281
0
  0
CLASS
  1
ACDBDETAILVIEWSTYLE
  2
AcDbDetailViewStyle
  3
ObjectDBX Classes
 90
1025
 91
0
280
0
281
0
  0
CLASS
  1
ACDBSECTIONVIEWSTYLE
  2
AcDbSectionViewStyle
  3
ObjectDBX Classes
 90
1025
 91
0
280
0
281
0
  0
CLASS
  1
RASTERVARIABLES
  2
AcDbRasterVariables
  3
ISM
 90
0
 91
0
280
0
281
0
  0
CLASS
  1
ACDBPLACEHOLDER
  2
AcDbPlaceHolder
  3
ObjectDBX Classes
 90
0
 91
0
280
0
281
0
  0
CLASS
  1
LAYOUT
  2
AcDbLayout
  3
ObjectDBX Classes
 90
0
 91
0
280
0
281
0
  0
ENDSEC
  0
SECTION
  2
TABLES
  0
TABLE
  2
VPORT
  5
8
330
0
100
AcDbSymbolTable
 70
1
  0
VPORT
  5
23
330
8
100
AcDbSymbolTableRecord
100
AcDbViewportTableRecord
  2
*Active
 70
0
 10
0.0
 20
0.0
 11
1.0
 21
1.0
 12
0.0
 22
0.0
 13
0.0
 23
0.0
 14
0.5
 24
0.5
 15
0.5
 25
0.5
 16
0.0
 26
0.0
 36
1.0
 17
0.0
 27
0.0
 37
0.0
 40
1000.0
 41
1.34
 42
50.0
 43
0.0
 44
0.0
 50
0.0
 51
0.0
 71
0
 72
1000
 73
1
 74
3
 75
0
 76
0
 77
0
 78
0
281
0
 65
0
146
0.0
  0
ENDTAB
  0
TABLE
  2
LTYPE
  5
2
330
0
100
AcDbSymbolTable
 70
4
  0
LTYPE
  5
24
330
2
100
AcDbSymbolTableRecord
100
AcDbLinetypeTableRecord
  2
ByBlock
 70
0
  3

 72
65
 73
0
 40
0.0
  0
LTYPE
  5
25
330
2
100
AcDbSymbolTableRecord
100
AcDbLinetypeTableRecord
  2
ByLayer
 70
0
  3

 72
65
 73
0
 40
0.0
  0
LTYPE
  5
26
330
2
100
AcDbSymbolTableRecord
100
AcDbLinetypeTableRecord
  2
Continuous
 70
0
  3

 72
65
 73
0
 40
0.0
  0
LTYPE
  5
2F
330
2
100
AcDbSymbolTableRecord
100
AcDbLinetypeTableRecord
  2
DASHED
 70
0
  3
Dashed
 72
65
 73
2
 40
0.6
 49
0.5
 74
0
 49
-0.1
 74
0
  0
ENDTAB
  0
TABLE
  2
LAYER
  5
1
330
0
100
AcDbSymbolTable
 70
10
  0
LAYER
  5
27
330
1
100
AcDbSymbolTableRecord
100
AcDbLayerTableRecord
  2
0
 70
0
 62
7
  6
Continuous
370
-3
390
13
347
21
  0
LAYER
  5
28
330
1
100
AcDbSymbolTableRecord
100
AcDbLayerTableRecord
  2
Defpoints
 70
0
 62
7
  6
Continuous
290
0
370
-3
390
13
347
21
  0
LAYER
  5
30
330
1
100
AcDbSymbolTableRecord
100
AcDbLayerTableRecord
  2
CUT_LINE
 70
0
 62
7
  6
Continuous
370
-3
390
13
347
21
  0
LAYER
  5
31
330
1
100
AcDbSymbolTableRecord
100
AcDbLayerTableRecord
  2
STITCH_LINE
 70
0
 62
3
  6
Continuous
370
-3
390
13
347
21
  0
LAYER
  5
32
330
1
100
AcDbSymbolTableRecord
100
AcDbLayerTableRecord
  2
NOTCH
 70
0
 62
1
  6
Continuous
370
-3
390
13
347
21
  0
LAYER
  5
33
330
1
100
AcDbSymbolTableRecord
100
AcDbLayerTableRecord
  2
GRAINLINE
 70
0
 62
5
  6
Continuous
370
-3
390
13
347
21
  0
LAYER
  5
34
330
1
100
AcDbSymbolTableRecord
100
AcDbLayerTableRecord
  2
LABEL
 70
0
 62
8
  6
Continuous
370
-3
390
13
347
21
  0
LAYER
  5
35
330
1
100
AcDbSymbolTableRecord
100
AcDbLayerTableRecord
  2
LABEL_ID
 70
0
 62
8
  6
Continuous
370
-3
390
13
347
21
  0
LAYER
  5
36
330
1
100
AcDbSymbolTableRecord
100
AcDbLayerTableRecord
  2
WARNING
 70
0
 62
1
  6
Continuous
370
-3
390
13
347
21
  0
LAYER
  5
37
330
1
100
AcDbSymbolTableRecord
100
AcDbLayerTableRecord
  2
REFERENCE_LINE
 70
0
 62
6
  6
Continuous
370
-3
390
13
347
21
  0
ENDTAB
  0
TABLE
  2
STYLE
  5
5
330
0
100
AcDbSymbolTable
 70
1
  0
STYLE
  5
29
330
5
100
AcDbSymbolTableRecord
100
AcDbTextStyleTableRecord
  2
Standard
 70
0
 40
0.0
 41
1.0
 50
0.0
 71
0
 42
2.5
  3
txt
  4

  0
ENDTAB
  0
TABLE
  2
VIEW
  5
7
330
0
100
AcDbSymbolTable
 70
0
  0
ENDTAB
  0
TABLE
  2
UCS
  5
6
330
0
100
AcDbSymbolTable
 70
0
  0
ENDTAB
  0
TABLE
  2
APPID
  5
3
330
0
100
AcDbSymbolTable
 70
3
  0
APPID
  5
2A
330
3
100
AcDbSymbolTableRecord
100
AcDbRegAppTableRecord
  2
ACAD
 70
0
  0
APPID
  5
A9
330
3
100
AcDbSymbolTableRecord
100
AcDbRegAppTableRecord
  2
HATCHBACKGROUNDCOLOR
 70
0
  0
APPID
  5
AA
330
3
100
AcDbSymbolTableRecord
100
AcDbRegAppTableRecord
  2
EZDXF
 70
0
  0
ENDTAB
  0
TABLE
  2
DIMSTYLE
  5
4
330
0
100
AcDbSymbolTable
 70
1
100
AcDbDimStyleTable
  0
DIMSTYLE
105
2B
330
4
100
AcDbSymbolTableRecord
100
AcDbDimStyleTableRecord
  2
Standard
 70
0
 40
1.0
 41
2.5
 42
0.625
 43
3.75
 44
1.25
 45
0.0
 46
0.0
 47
0.0
 48
0.0
 49
2.5
140
2.5
141
2.5
142
0.0
143
0.03937007874
144
1.0
145
0.0
146
1.0
147
0.625
148
0.0
 69
0
 70
0
 71
0
 72
0
 73
0
 74
0
 75
0
 76
0
 77
1
 78
8
 79
3
170
0
171
3
172
1
173
0
174
0
175
0
176
0
177
0
178
0
179
2
271
2
272
2
273
2
274
3
275
0
276
0
277
2
278
44
279
0
280
0
281
0
282
0
283
0
284
8
285
0
286
0
288
0
289
3
290
0
371
-2
372
-2
  0
ENDTAB
  0
TABLE
  2
BLOCK_RECORD
  5
9
330
0
100
AcDbSymbolTable
 70
2
  0
BLOCK_RECORD
  5
17
330
9
100
AcDbSymbolTableRecord
100
AcDbBlockTableRecord
  2
*Model_Space
340
1A
 70
0
280
1
281
0
  0
BLOCK_RECORD
  5
1B
330
9
100
AcDbSymbolTableRecord
100
AcDbBlockTableRecord
  2
*Paper_Space
340
1E
 70
0
280
1
281
0
  0
ENDTAB
  0
ENDSEC
  0
SECTION
  2
BLOCKS
  0
BLOCK
  5
18
330
17
100
AcDbEntity
  8
0
100
AcDbBlockBegin
  2
*Model_Space
 70
0
 10
0.0
 20
0.0
 30
0.0
  3
*Model_Space
  1

  0
ENDBLK
  5
19
330
17
100
AcDbEntity
  8
0
100
AcDbBlockEnd
  0
BLOCK
  5
1C
330
1B
100
AcDbEntity
  8
0
100
AcDbBlockBegin
  2
*Paper_Space
 70
0
 10
0.0
 20
0.0
 30
0.0
  3
*Paper_Space
  1

  0
ENDBLK
  5
1D
330
1B
100
AcDbEntity
  8
0
100
AcDbBlockEnd
  0
ENDSEC
  0
SECTION
  2
ENTITIES
  0
LWPOLYLINE
  5
38
330
17
100
AcDbEntity
  8
CUT_LINE
100
AcDbPolyline
 90
113
 70
1
 10
5.267524375162494
 20
68.9164396232627
 10
6.164391520014986
 20
67.25402482216546
 10
6.477304610525346
 20
66.6045468352206
 10
6.748651808326272
 20
65.9651845637484
 10
6.979877048086103
 20
65.33574478936461
 10
7.172418181650305
 20
64.7159578832269
 10
7.327690013821252
 20
64.10547718115538
 10
7.44706638116601
 20
63.503883970694375
 10
7.531863122908484
 20
62.910698519530044
 10
7.5833239812194355
 20
62.32539674438789
 10
7.6026112825990495
 20
61.74743122401301
 10
7.590802678591529
 20
61.176254509268375
 10
7.548894364530991
 20
60.611342274849136
 10
7.477810244194793
 20
60.052213902795245
 10
7.3784156905173655
 20
59.498448571890066
 10
7.251534045264207
 20
58.9496957121728
 10
7.097963879626867
 20
58.4056795657894
 10
6.918495267009052
 20
57.86619837518121
 10
6.713923782382764
 20
57.331119261921685
 10
6.4850614947809335
 20
56.80037011688741
 10
6.232744735203795
 20
56.27392982430669
 10
5.957838821947938
 20
55.75181796363387
 10
5.661240179753589
 20
55.234084860956955
 10
5.343876407524318
 20
54.72080256981627
 10
5.00670486256616
 20
54.212057099787955
 10
4.650710274441353
 20
53.707942005168235
 10
4.276901811941228
 20
53.208553301531225
 10
3.8863099272437873
 20
52.71398558884108
 10
3.4833456233228453
 20
52.228381195719805
 10
2.6238118629707383
 20
51.259661435048386
 10
1.535381013103878
 20
50.1254422620607
 10
0.0
 20
44.782958092438946
 10
9.181902119571948
 20
46.634449978831086
 10
2.3343617731779163
 20
42.04463587117064
 10
2.1425130133172354
 20
30.853791317205292
 10
0.3388147149449501
 20
9.802476894230892
 10
50.01750458919238
 20
9.802476894230892
 10
48.213806294707375
 20
30.853791271836087
 10
48.02195753080534
 20
42.044635871273925
 10
41.174417184565385
 20
46.63444997883107
 10
50.35631930413733
 20
44.78295809243893
 10
48.82093829103345
 20
50.12544226206069
 10
47.7325074411666
 20
51.259661435048386
 10
46.87297368081453
 20
52.22838119571975
 10
46.47000937689349
 20
52.713985588841155
 10
46.07941749219614
 20
53.20855330153117
 10
45.70560902969595
 20
53.70794200516828
 10
45.34961444157125
 20
54.21205709978784
 10
45.01244289661297
 20
54.72080256981634
 10
44.695079124383675
 20
55.234084860957054
 10
44.3984804821894
 20
55.751817963633854
 10
44.12357456893356
 20
56.273929824306634
 10
43.87125780935643
 20
56.800370116887365
 10
43.642395521754544
 20
57.33111926192174
 10
43.43782403712828
 20
57.8661983751812
 10
43.25835542451047
 20
58.40567956578937
 10
43.1047852588731
 20
58.94969571217288
 10
42.977903613619965
 20
59.49844857189004
 10
42.87850905994254
 20
60.052213902795245
 10
42.807424939606335
 20
60.611342274849136
 10
42.76551662554581
 20
61.17625450926832
 10
42.75370802153827
 20
61.74743122401303
 10
42.7729953229179
 20
62.32539674438786
 10
42.824456181228854
 20
62.91069851953013
 10
42.909252922971305
 20
63.503883970694304
 10
43.02862929031607
 20
64.10547718115535
 10
43.183901122487015
 20
64.71595788322688
 10
43.37644225605123
 20
65.3357447893646
 10
43.607667495811064
 20
65.96518456374842
 10
43.87901469361202
 20
66.6045468352207
 10
44.19192778412232
 20
67.25402482216543
 10
45.08879492897484
 20
68.9164396232627
 10
31.32250196022411
 20
74.47838301516812
 10
30.85331753789997
 20
72.4233792055008
 10
30.614325980568637
 20
71.60271976734218
 10
30.34139986610151
 20
70.84473308213187
 10
30.037928746410948
 20
70.14915161312167
 10
29.707340045850415
 20
69.51558739088966
 10
29.353080117310746
 20
68.9435040212111
 10
28.97858365138221
 20
68.43218768344612
 10
28.587228388894324
 20
67.98072082490684
 10
28.1822729912774
 20
67.58796454590832
 10
27.76677831132652
 20
67.25255812072388
 10
27.343516663352105
 20
66.972945830728
 10
26.903318239893323
 20
66.74135823974555
 10
26.699329047812228
 20
66.65339140961514
 10
26.482942345013548
 20
66.57325529201333
 10
26.26606376404701
 20
66.50581914316743
 10
26.048828637233072
 20
66.45090721580002
 10
25.83134503005857
 20
66.40836696052175
 10
25.61369741284569
 20
66.37807391760629
 10
25.395951438924165
 20
66.3599359131697
 10
25.178159652068665
 20
66.35389628466307
 10
24.960367865213158
 20
66.3599359131697
 10
24.742621891291634
 20
66.37807391760629
 10
24.524974274078758
 20
66.40836696052175
 10
24.30749066690425
 20
66.45090721580002
 10
24.09025554009031
 20
66.50581914316743
 10
23.873376959123775
 20
66.57325529201333
 10
23.656990256325102
 20
66.65339140961514
 10
23.453001064244
 20
66.74135823974555
 10
23.012802640785225
 20
66.972945830728
 10
22.589540992810804
 20
67.25255812072388
 10
22.17404631285992
 20
67.58796454590832
 10
21.769090915242998
 20
67.98072082490684
 10
21.37773565275512
 20
68.43218768344612
 10
21.003239186826576
 20
68.9435040212111
 10
20.648979258286914
 20
69.51558739088966
 10
20.318390557726374
 20
70.14915161312167
 10
20.014919438035818
 20
70.84473308213187
 10
19.741993323568693
 20
71.60271976734218
 10
19.503001766237354
 20
72.4233792055008
 10
19.033817343913213
 20
74.47838301516812
  0
LWPOLYLINE
  5
39
330
17
100
AcDbEntity
  8
STITCH_LINE
  6
DASHED
100
AcDbPolyline
 90
116
 70
1
 10
6.678159652068663
 20
68.40783852754346
 10
7.055349502788275
 20
67.70868704868862
 10
7.388531430436918
 20
67.01713934992436
 10
7.678815889575111
 20
66.33315612595226
 10
7.927313334763374
 20
65.6566980714738
 10
8.135134220562225
 20
64.98772588119053
 10
8.303389001532182
 20
64.32620024980399
 10
8.433188132233765
 20
63.672081872015696
 10
8.52564206722749
 20
63.02533144252719
 10
8.58186126107388
 20
62.38590965604
 10
8.602956168333451
 20
61.75377720725564
 10
8.590037243566723
 20
61.12889479087566
 10
8.54421494133421
 20
60.51122310160159
 10
8.466599716196438
 20
59.90072283413494
 10
8.35830202271392
 20
59.29735468317726
 10
8.220432315447177
 20
58.70107934343007
 10
8.054101048956728
 20
58.11185750959491
 10
7.860418677803088
 20
57.5296498763733
 10
7.640495656546781
 20
56.95441713846678
 10
7.395442439748324
 20
56.38611999057687
 10
7.126369481968235
 20
55.8247191274051
 10
6.834387237767032
 20
55.27017524365303
 10
6.520606161705235
 20
54.72244903402215
 10
6.186136708343361
 20
54.181501193214004
 10
5.832089332241931
 20
53.647292415930124
 10
5.459574487961461
 20
53.11978339687204
 10
5.069702630062472
 20
52.598934830741285
 10
4.663584213105482
 20
52.084707412239396
 10
4.242329691651008
 20
51.577061836067884
 10
3.3588541534916887
 20
50.58135898952216
 10
2.428159652068663
 20
49.61151184871636
 10
1.4156940612967404
 20
46.08855478149894
 10
13.927520342217415
 20
48.61151184871636
 10
3.3252568024462033
 20
41.50495733332724
 10
3.1417802480384953
 20
30.802476894230892
 10
3.1417802441387623
 20
30.802476848716367
 10
1.428159652068663
 20
10.802476894230892
 10
48.928159652068665
 20
10.802476894230892
 10
47.214539059998565
 20
30.802476848716367
 10
47.21453905609883
 20
30.802476894230892
 10
47.031062501691125
 20
41.50495733332724
 10
36.42879896191991
 20
48.61151184871636
 10
48.94062524284059
 20
46.08855478149894
 10
47.928159652068665
 20
49.61151184871636
 10
46.99746515064564
 20
50.58135898952216
 10
46.11398961248632
 20
51.577061836067884
 10
45.69273509103185
 20
52.084707412239396
 10
45.28661667407486
 20
52.598934830741285
 10
44.896744816175875
 20
53.11978339687204
 10
44.5242299718954
 20
53.647292415930124
 10
44.17018259579397
 20
54.181501193214004
 10
43.83571314243209
 20
54.72244903402215
 10
43.5219320663703
 20
55.27017524365303
 10
43.2299498221691
 20
55.8247191274051
 10
42.960876864389014
 20
56.38611999057687
 10
42.71582364759055
 20
56.95441713846678
 10
42.49590062633424
 20
57.5296498763733
 10
42.3022182551806
 20
58.11185750959491
 10
42.13588698869015
 20
58.70107934343007
 10
41.99801728142341
 20
59.29735468317726
 10
41.889719587940895
 20
59.90072283413494
 10
41.81210436280312
 20
60.51122310160159
 10
41.76628206057061
 20
61.12889479087566
 10
41.75336313580387
 20
61.75377720725564
 10
41.774458043063454
 20
62.38590965604
 10
41.830677236909835
 20
63.02533144252719
 10
41.92313117190356
 20
63.672081872015696
 10
42.05293030260514
 20
64.32620024980399
 10
42.2211850835751
 20
64.98772588119053
 10
42.429005969373954
 20
65.6566980714738
 10
42.67750341456222
 20
66.33315612595226
 10
42.96778787370041
 20
67.01713934992436
 10
43.30096980134905
 20
67.70868704868862
 10
43.678159652068665
 20
68.40783852754346
 10
32.03615965206866
 20
73.11151184871635
 10
31.821671920135074
 20
72.17206653621635
 10
31.565738265349914
 20
71.29323059871635
 10
31.271121749236634
 20
70.47500403621635
 10
30.94058543331866
 20
69.71738684871636
 10
30.576892379119442
 20
69.02037903621635
 10
30.182805648162407
 20
68.38398059871635
 10
29.761088301971007
 20
67.80819153621636
 10
29.31450340206866
 20
67.29301184871635
 10
28.845814009978817
 20
66.83844153621635
 10
28.35778318722491
 20
66.44448059871635
 10
27.85317399533038
 20
66.11112903621635
 10
27.334749495818663
 20
65.83838684871635
 10
27.07121996243243
 20
65.72474427059136
 10
26.8052727502132
 20
65.62625403621635
 10
26.53725324185138
 20
65.54291614559135
 10
26.26750682003741
 20
65.47473059871635
 10
25.99637886746173
 20
65.42169739559135
 10
25.724214766814754
 20
65.38381653621636
 10
25.451359900786926
 20
65.36108802059135
 10
25.178159652068665
 20
65.35351184871635
 10
24.904959403350404
 20
65.36108802059135
 10
24.63210453732257
 20
65.38381653621636
 10
24.3599404366756
 20
65.42169739559135
 10
24.08881248409991
 20
65.47473059871635
 10
23.81906606228595
 20
65.54291614559135
 10
23.55104655392413
 20
65.62625403621635
 10
23.285099341704893
 20
65.72474427059136
 10
23.021569808318667
 20
65.83838684871635
 10
22.50314530880695
 20
66.11112903621635
 10
21.998536116912412
 20
66.44448059871635
 10
21.510505294158506
 20
66.83844153621635
 10
21.041815902068663
 20
67.29301184871635
 10
20.595231002166322
 20
67.80819153621636
 10
20.173513655974915
 20
68.38398059871635
 10
19.779426925017887
 20
69.02037903621635
 10
19.415733870818663
 20
69.71738684871636
 10
19.085197554900695
 20
70.47500403621635
 10
18.790581038787415
 20
71.29323059871635
 10
18.534647384002255
 20
72.17206653621635
 10
18.32015965206866
 20
73.11151184871635
 10
6.678159652068663
 20
68.40783852754346
  0
LWPOLYLINE
  5
3A
330
17
100
AcDbEntity
  8
STITCH_LINE
  6
DASHED
100
AcDbPolyline
 90
4
 70
1
 10
15.26178892025509
 20
42.80247689423089
 10
16.90285636651211
 20
30.802476894230892
 10
15.26178892025509
 20
18.802476894230892
 10
13.620721473998069
 20
30.802476894230892
  0
LWPOLYLINE
  5
3B
330
17
100
AcDbEntity
  8
STITCH_LINE
  6
DASHED
100
AcDbPolyline
 90
4
 70
1
 10
35.09453038388224
 20
42.80247689423089
 10
36.735597830139255
 20
30.802476894230892
 10
35.09453038388224
 20
18.802476894230892
 10
33.45346293762522
 20
30.802476894230892
  0
LWPOLYLINE
  5
3C
330
17
100
AcDbEntity
  8
REFERENCE_LINE
  6
DASHED
100
AcDbPolyline
 90
2
 70
0
 10
2.828159652068663
 20
49.61151184871636
 10
47.528159652068666
 20
49.61151184871636
  0
LWPOLYLINE
  5
3D
330
17
100
AcDbEntity
  8
REFERENCE_LINE
  6
DASHED
100
AcDbPolyline
 90
2
 70
0
 10
3.5417802480384957
 20
30.802476894230892
 10
46.81453905609883
 20
30.802476894230892
  0
LWPOLYLINE
  5
3E
330
17
100
AcDbEntity
  8
REFERENCE_LINE
  6
DASHED
100
AcDbPolyline
 90
2
 70
0
 10
1.8282453330984612
 20
10.803476894230897
 10
48.528073971038864
 20
10.803476894230897
  0
LWPOLYLINE
  5
3F
330
17
100
AcDbEntity
  8
REFERENCE_LINE
  6
DASHED
100
AcDbPolyline
 90
2
 70
0
 10
25.178159652068665
 20
72.71151184871636
 10
25.178159652068665
 20
11.202476894230898
  0
LWPOLYLINE
  5
40
330
17
100
AcDbEntity
  8
REFERENCE_LINE
  6
DASHED
100
AcDbPolyline
 90
2
 70
0
 10
15.190659652068664
 20
49.61151184871636
 10
17.190659652068664
 20
49.61151184871636
  0
LWPOLYLINE
  5
41
330
17
100
AcDbEntity
  8
REFERENCE_LINE
  6
DASHED
100
AcDbPolyline
 90
2
 70
0
 10
16.190659652068664
 20
50.61151184871636
 10
16.190659652068664
 20
48.61151184871636
  0
LWPOLYLINE
  5
42
330
17
100
AcDbEntity
  8
REFERENCE_LINE
  6
DASHED
100
AcDbPolyline
 90
2
 70
0
 10
33.16565965206866
 20
49.61151184871636
 10
35.16565965206866
 20
49.61151184871636
  0
LWPOLYLINE
  5
43
330
17
100
AcDbEntity
  8
REFERENCE_LINE
  6
DASHED
100
AcDbPolyline
 90
2
 70
0
 10
34.16565965206866
 20
50.61151184871636
 10
34.16565965206866
 20
48.61151184871636
  0
LINE
  5
44
330
17
100
AcDbEntity
  8
NOTCH
100
AcDbLine
 10
2.894099876850956
 20
27.911751003446852
 30
0.0
 11
1.8977504089648243
 21
27.997119251894503
 31
0.0
  0
LINE
  5
45
330
17
100
AcDbEntity
  8
NOTCH
100
AcDbLine
 10
47.46221942728637
 20
27.911751003446852
 30
0.0
 11
48.458568895172505
 21
27.99711925189453
 31
0.0
  0
LINE
  5
46
330
17
100
AcDbEntity
  8
NOTCH
100
AcDbLine
 10
7.7775736847798225
 20
57.31295972776408
 30
0.0
 11
6.843511608358709
 21
57.67007040723456
 31
0.0
  0
LINE
  5
47
330
17
100
AcDbEntity
  8
NOTCH
100
AcDbLine
 10
42.578745619357505
 20
57.31295972776408
 30
0.0
 11
43.51280769577862
 21
57.67007040723456
 31
0.0
  0
LINE
  5
48
330
17
100
AcDbEntity
  8
GRAINLINE
100
AcDbLine
 10
17.69298299097551
 20
67.89366489858922
 30
0.0
 11
17.69298299097551
 21
15.766928025044677
 31
0.0
  0
LINE
  5
49
330
17
100
AcDbEntity
  8
GRAINLINE
100
AcDbLine
 10
16.19298299097551
 20
66.39366489858922
 30
0.0
 11
17.69298299097551
 21
67.89366489858922
 31
0.0
  0
LINE
  5
4A
330
17
100
AcDbEntity
  8
GRAINLINE
100
AcDbLine
 10
19.19298299097551
 20
66.39366489858922
 30
0.0
 11
17.69298299097551
 21
67.89366489858922
 31
0.0
  0
LINE
  5
4B
330
17
100
AcDbEntity
  8
GRAINLINE
100
AcDbLine
 10
16.19298299097551
 20
17.266928025044677
 30
0.0
 11
17.69298299097551
 21
15.766928025044677
 31
0.0
  0
LINE
  5
4C
330
17
100
AcDbEntity
  8
GRAINLINE
100
AcDbLine
 10
19.19298299097551
 20
17.266928025044677
 30
0.0
 11
17.69298299097551
 21
15.766928025044677
 31
0.0
  0
TEXT
  5
4D
330
17
100
AcDbEntity
  8
LABEL
100
AcDbText
 10
25.178159652068665
 20
42.1404299546995
 30
0.0
 40
0.9
  1
前身頃（ラウンドネック） [ダーツ4本]
 72
1
 11
25.178159652068665
 21
42.1404299546995
 31
0.0
100
AcDbText
 73
2
  0
TEXT
  5
4E
330
17
100
AcDbEntity
  8
LABEL_ID
100
AcDbText
 10
25.178159652068665
 20
40.940429954699496
 30
0.0
 40
0.55
  1
front_bodice(round_neck) [ダーツ4本]
 72
1
 11
25.178159652068665
 21
40.940429954699496
 31
0.0
100
AcDbText
 73
2
  0
LWPOLYLINE
  5
4F
330
17
100
AcDbEntity
  8
CUT_LINE
100
AcDbPolyline
 90
87
 70
1
 10
54.885460128247225
 20
70.17232873633515
 10
55.33725809017875
 20
68.5473159604296
 10
55.493845183502934
 20
67.8726184761188
 10
55.61894403158671
 20
67.2043574404581
 10
55.71387510283629
 20
66.542310785901
 10
55.77992029482646
 20
65.88626231670821
 10
55.81832527094108
 20
65.23601000830236
 10
55.83030348495292
 20
64.59137312357035
 10
55.81704146591764
 20
63.952197736160414
 10
55.77970486014149
 20
63.31836043941051
 10
55.71944472175346
 20
62.68977021002625
 10
55.637403598223656
 20
62.066368559958235
 10
55.53472105305865
 20
61.44812822979108
 10
55.41253838304093
 20
60.83505074536831
 10
55.27200240206433
 20
60.22716317929631
 10
55.11426826343247
 20
59.624514440060395
 10
54.940501369357264
 20
59.02717136639882
 10
54.75187846799185
 20
58.43521484585554
 10
54.5512368691126
 20
57.853516309766434
 10
54.10837246314244
 20
56.69185390614166
 10
53.62748734633938
 20
55.55885306810528
 10
53.11634159303087
 20
54.4497627620557
 10
52.5849189827358
 20
53.36529007811282
 10
52.043577379654735
 20
52.306586566825914
 10
50.85110120549034
 20
50.038472217254736
 10
51.11339218528461
 20
35.322525194449526
 10
49.79061072227951
 20
14.299999999999983
 10
99.4204102049693
 20
14.299999999999983
 10
98.0976287419642
 20
35.322525194449526
 10
98.35991972175847
 20
50.038472217254736
 10
97.16744354759416
 20
52.30658656682574
 10
96.62610194451295
 20
53.36529007811292
 10
96.09467933421789
 20
54.44976276205584
 10
95.58353358090949
 20
55.558853068105165
 10
95.10264846410637
 20
56.69185390614169
 10
94.65978405813618
 20
57.85351630976649
 10
94.45914245925694
 20
58.4352148458556
 10
94.27051955789162
 20
59.02717136639862
 10
94.09675266381629
 20
59.62451444006055
 10
93.93901852518451
 20
60.2271631792962
 10
93.79848254420784
 20
60.83505074536846
 10
93.67629987419019
 20
61.44812822979098
 10
93.57361732902514
 20
62.06636855995832
 10
93.49157620549535
 20
62.68977021002624
 10
93.43131606710733
 20
63.31836043941037
 10
93.39397946133116
 20
63.95219773616057
 10
93.38071744229589
 20
64.59137312357035
 10
93.39269565630772
 20
65.2360100083022
 10
93.43110063242236
 20
65.88626231670827
 10
93.49714582441251
 20
66.54231078590094
 10
93.5920768956621
 20
67.20435744045815
 10
93.71717574374586
 20
67.87261847611873
 10
93.87376283707006
 20
68.5473159604296
 10
94.3255607990016
 20
70.17232873633515
 10
81.07288843485429
 20
74.47838301516812
 10
80.46737254563186
 20
73.6238253135386
 10
80.28673865156546
 20
73.42396505008426
 10
80.0666124778406
 20
73.22697922722496
 10
79.80722268873258
 20
73.0354079855081
 10
79.51007721804677
 20
72.85191538503511
 10
79.17755678277364
 20
72.67889294411793
 10
78.81256416217376
 20
72.51831982935775
 10
78.41827746294226
 20
72.37176044716382
 10
77.99799645594832
 20
72.2404187841931
 10
77.5550554429084
 20
72.12520654779331
 10
77.09277854705273
 20
72.02680626921243
 10
76.61446020158095
 20
71.94572311360878
 10
76.12335984140313
 20
71.88232475507601
 10
75.62270423788434
 20
71.83687072310501
 10
75.11569374953656
 20
71.80953305558268
 10
74.6055104636244
 20
71.80040987315824
 10
74.09532717771225
 20
71.80953305558268
 10
73.58831668936446
 20
71.83687072310501
 10
73.08766108584567
 20
71.88232475507601
 10
72.59656072566787
 20
71.94572311360878
 10
72.11824238019608
 20
72.02680626921243
 10
71.65596548434041
 20
72.12520654779331
 10
71.21302447130049
 20
72.2404187841931
 10
70.79274346430657
 20
72.37176044716382
 10
70.39845676507505
 20
72.51831982935775
 10
70.03346414447518
 20
72.67889294411793
 10
69.70094370920204
 20
72.85191538503511
 10
69.40379823851623
 20
73.0354079855081
 10
69.14440844940822
 20
73.22697922722496
 10
68.92428227568334
 20
73.42396505008426
 10
68.74364838161695
 20
73.6238253135386
 10
68.1381324923945
 20
74.47838301516812
  0
LWPOLYLINE
  5
50
330
17
100
AcDbEntity
  8
STITCH_LINE
  6
DASHED
100
AcDbPolyline
 90
88
 70
1
 10
56.105510463624405
 20
69.51728489645649
 10
56.306491538764675
 20
68.79440245267143
 10
56.47281495607754
 20
68.07775340541795
 10
56.60579297440936
 20
67.36740291369304
 10
56.70673785260648
 20
66.66341613649364
 10
56.77696184951526
 20
65.96585823281676
 10
56.81777722398204
 20
65.27479436165936
 10
56.830496234853186
 20
64.59028968201842
 10
56.81643114097503
 20
63.91240935289092
 10
56.77689420119393
 20
63.24121853327382
 10
56.713197674356245
 20
62.576782382164126
 10
56.62665381930832
 20
61.91916605855879
 10
56.51857489489651
 20
61.26843472145478
 10
56.39027315996716
 20
60.62465352984911
 10
56.24306087336662
 20
59.98788764273873
 10
56.07825029394125
 20
59.358202219120614
 10
55.89715368053739
 20
58.73566241799175
 10
55.70108329200141
 20
58.12033339834909
 10
55.491351387179634
 20
57.51228031918966
 10
55.036152064064154
 20
56.31826261830827
 10
54.54205378196176
 20
55.15413058732338
 10
54.019554611643265
 20
54.02040549821082
 10
53.47915262387947
 20
52.91760862294639
 10
52.93134588944119
 20
51.8462612335059
 10
51.855510463624405
 20
49.79999999999998
 10
52.11395249260991
 20
35.29999999999998
 10
50.855510463624405
 20
15.299999999999983
 10
98.3555104636244
 20
15.299999999999983
 10
97.0970684346389
 20
35.29999999999998
 10
97.3555104636244
 20
49.79999999999998
 10
96.27967503780762
 20
51.8462612335059
 10
95.73186830336934
 20
52.91760862294639
 10
95.19146631560554
 20
54.02040549821082
 10
94.66896714528704
 20
55.15413058732338
 10
94.17486886318466
 20
56.31826261830827
 10
93.71966954006918
 20
57.51228031918966
 10
93.50993763524741
 20
58.12033339834909
 10
93.31386724671142
 20
58.73566241799175
 10
93.13277063330756
 20
59.358202219120614
 10
92.9679600538822
 20
59.98788764273873
 10
92.82074776728166
 20
60.62465352984911
 10
92.69244603235231
 20
61.26843472145478
 10
92.5843671079405
 20
61.91916605855879
 10
92.49782325289257
 20
62.576782382164126
 10
92.43412672605488
 20
63.24121853327382
 10
92.39458978627378
 20
63.91240935289092
 10
92.38052469239562
 20
64.59028968201842
 10
92.39324370326676
 20
65.27479436165936
 10
92.43405907773355
 20
65.96585823281676
 10
92.50428307464233
 20
66.66341613649364
 10
92.60522795283944
 20
67.36740291369304
 10
92.73820597117127
 20
68.07775340541795
 10
92.90452938848414
 20
68.79440245267143
 10
93.1055104636244
 20
69.51728489645649
 10
81.4635104636244
 20
73.29999999999998
 10
81.24902273169081
 20
72.99729589843749
 10
80.99308907690565
 20
72.71412109374998
 10
80.69847256079237
 20
72.45047558593748
 10
80.3679362448744
 20
72.20635937499999
 10
80.00424319067518
 20
71.98177246093749
 10
79.61015645971816
 20
71.77671484374999
 10
79.18843911352675
 20
71.59118652343749
 10
78.7418542136244
 20
71.42518749999999
 10
78.27316482153455
 20
71.27871777343749
 10
77.78513399878065
 20
71.15177734374998
 10
77.28052480688612
 20
71.04436621093748
 10
76.7621003073744
 20
70.95648437499999
 10
76.23262356176895
 20
70.88813183593749
 10
75.69485763159315
 20
70.83930859374999
 10
75.1515655783705
 20
70.81001464843749
 10
74.6055104636244
 20
70.80024999999999
 10
74.05945534887832
 20
70.81001464843749
 10
73.51616329565564
 20
70.83930859374999
 10
72.97839736547988
 20
70.88813183593749
 10
72.4489206198744
 20
70.95648437499999
 10
71.93049612036269
 20
71.04436621093748
 10
71.42588692846815
 20
71.15177734374998
 10
70.93785610571425
 20
71.27871777343749
 10
70.4691667136244
 20
71.42518749999999
 10
70.02258181372207
 20
71.59118652343749
 10
69.60086446753066
 20
71.77671484374999
 10
69.20677773657363
 20
71.98177246093749
 10
68.84308468237441
 20
72.20635937499999
 10
68.51254836645643
 20
72.45047558593748
 10
68.21793185034315
 20
72.71412109374998
 10
67.961998195558
 20
72.99729589843749
 10
67.7475104636244
 20
73.29999999999998
 10
56.105510463624405
 20
69.51728489645649
  0
LWPOLYLINE
  5
51
330
17
100
AcDbEntity
  8
STITCH_LINE
  6
DASHED
100
AcDbPolyline
 90
4
 70
1
 10
62.98430937666788
 20
47.29999999999998
 10
64.83539633318962
 20
35.29999999999998
 10
62.98430937666788
 20
23.299999999999983
 10
61.13322242014614
 20
35.29999999999998
  0
LWPOLYLINE
  5
52
330
17
100
AcDbEntity
  8
STITCH_LINE
  6
DASHED
100
AcDbPolyline
 90
4
 70
1
 10
65.98430937666788
 20
47.29999999999998
 10
67.83539633318962
 20
35.29999999999998
 10
65.98430937666788
 20
23.299999999999983
 10
64.13322242014614
 20
35.29999999999998
  0
LWPOLYLINE
  5
53
330
17
100
AcDbEntity
  8
STITCH_LINE
  6
DASHED
100
AcDbPolyline
 90
4
 70
1
 10
83.22671155058093
 20
47.29999999999998
 10
85.07779850710267
 20
35.29999999999998
 10
83.22671155058093
 20
23.299999999999983
 10
81.37562459405919
 20
35.29999999999998
  0
LWPOLYLINE
  5
54
330
17
100
AcDbEntity
  8
STITCH_LINE
  6
DASHED
100
AcDbPolyline
 90
4
 70
1
 10
86.22671155058093
 20
47.29999999999998
 10
88.07779850710267
 20
35.29999999999998
 10
86.22671155058093
 20
23.299999999999983
 10
84.37562459405919
 20
35.29999999999998
  0
LWPOLYLINE
  5
55
330
17
100
AcDbEntity
  8
REFERENCE_LINE
  6
DASHED
100
AcDbPolyline
 90
2
 70
0
 10
52.255510463624404
 20
49.79999999999998
 10
96.9555104636244
 20
49.79999999999998
  0
LWPOLYLINE
  5
56
330
17
100
AcDbEntity
  8
REFERENCE_LINE
  6
DASHED
100
AcDbPolyline
 90
2
 70
0
 10
52.51395249260991
 20
35.29999999999998
 10
96.69706843463891
 20
35.29999999999998
  0
LWPOLYLINE
  5
57
330
17
100
AcDbEntity
  8
REFERENCE_LINE
  6
DASHED
100
AcDbPolyline
 90
2
 70
0
 10
51.25557338572585
 20
15.300999999999988
 10
97.95544754152296
 20
15.300999999999988
  0
LWPOLYLINE
  5
58
330
17
100
AcDbEntity
  8
REFERENCE_LINE
  6
DASHED
100
AcDbPolyline
 90
2
 70
0
 10
74.6055104636244
 20
72.89999999999999
 10
74.6055104636244
 20
15.699999999999989
  0
LINE
  5
59
330
17
100
AcDbEntity
  8
NOTCH
100
AcDbLine
 10
51.94008863591892
 20
32.53683963684597
 30
0.0
 11
50.94206237247438
 21
32.599637546643464
 31
0.0
  0
LINE
  5
5A
330
17
100
AcDbEntity
  8
NOTCH
100
AcDbLine
 10
97.2709322913299
 20
32.53683963684597
 30
0.0
 11
98.26895855477443
 21
32.599637546643464
 31
0.0
  0
LINE
  5
5B
330
17
100
AcDbEntity
  8
NOTCH
100
AcDbLine
 10
55.752600034464905
 20
58.28200873786335
 30
0.0
 11
54.79980134443903
 21
58.585611531468714
 31
0.0
  0
LINE
  5
5C
330
17
100
AcDbEntity
  8
NOTCH
100
AcDbLine
 10
93.4584208927839
 20
58.28200873786335
 30
0.0
 11
94.41121958280978
 21
58.585611531468714
 31
0.0
  0
LINE
  5
5D
330
17
100
AcDbEntity
  8
NOTCH
100
AcDbLine
 10
55.987618125419225
 20
59.04664403419886
 30
0.0
 11
55.02742039878346
 21
59.32596522165788
 31
0.0
  0
LINE
  5
5E
330
17
100
AcDbEntity
  8
NOTCH
100
AcDbLine
 10
93.2234028018296
 20
59.04664403419886
 30
0.0
 11
94.18360052846535
 21
59.325965221657896
 31
0.0
  0
LINE
  5
5F
330
17
100
AcDbEntity
  8
GRAINLINE
100
AcDbLine
 10
67.12426046362441
 20
68.473694295377
 30
0.0
 11
67.12426046362441
 21
19.923799503945816
 31
0.0
  0
LINE
  5
60
330
17
100
AcDbEntity
  8
GRAINLINE
100
AcDbLine
 10
65.62426046362441
 20
66.973694295377
 30
0.0
 11
67.12426046362441
 21
68.473694295377
 31
0.0
  0
LINE
  5
61
330
17
100
AcDbEntity
  8
GRAINLINE
100
AcDbLine
 10
68.62426046362441
 20
66.973694295377
 30
0.0
 11
67.12426046362441
 21
68.473694295377
 31
0.0
  0
LINE
  5
62
330
17
100
AcDbEntity
  8
GRAINLINE
100
AcDbLine
 10
65.62426046362441
 20
21.423799503945816
 30
0.0
 11
67.12426046362441
 21
19.923799503945816
 31
0.0
  0
LINE
  5
63
330
17
100
AcDbEntity
  8
GRAINLINE
100
AcDbLine
 10
68.62426046362441
 20
21.423799503945816
 30
0.0
 11
67.12426046362441
 21
19.923799503945816
 31
0.0
  0
TEXT
  5
64
330
17
100
AcDbEntity
  8
LABEL
100
AcDbText
 10
74.6055104636244
 20
44.38919150758406
 30
0.0
 40
0.9
  1
後身頃（ラウンドネック） [ダーツ4本]
 72
1
 11
74.6055104636244
 21
44.38919150758406
 31
0.0
100
AcDbText
 73
2
  0
TEXT
  5
65
330
17
100
AcDbEntity
  8
LABEL_ID
100
AcDbText
 10
74.6055104636244
 20
43.189191507584056
 30
0.0
 40
0.55
  1
back_bodice(round_neck) [ダーツ4本]
 72
1
 11
74.6055104636244
 21
43.189191507584056
 31
0.0
100
AcDbText
 73
2
  0
LWPOLYLINE
  5
66
330
17
100
AcDbEntity
  8
CUT_LINE
100
AcDbPolyline
 90
54
 70
1
 10
76.1635578418318
 20
172.77838301516812
 10
76.1635578418318
 20
153.79327713214167
 10
76.15427331880547
 20
153.4816620356157
 10
76.12942191787175
 20
153.22157689643694
 10
76.09111003835866
 20
152.99625655809302
 10
76.04177605200005
 20
152.80217782098393
 10
75.98339811450123
 20
152.63486636491547
 10
75.91706684137492
 20
152.48904385279087
 10
75.84267973537266
 20
152.3590801603195
 10
75.75894819331134
 20
152.23964425627113
 10
75.66377571927306
 20
152.1262997788836
 10
75.56541442704722
 20
152.0265084382038
 10
75.28387276163025
 20
151.79306767858685
 10
74.94935821392627
 20
151.56658406517488
 10
74.5498396771728
 20
151.32610239931043
 10
74.09484529514688
 20
151.060470623319
 10
73.59669484117377
 20
150.75498711802686
 10
73.0693710546193
 20
150.3926870211561
 10
72.53863117189485
 20
149.96443051957883
 10
72.26008058206588
 20
149.70566315326158
 10
71.99229608897411
 20
149.4298747293445
 10
71.72942180509459
 20
149.12814523870438
 10
71.47337153611618
 20
148.79905184223765
 10
71.22587419486416
 20
148.44128034362024
 10
70.98844337132857
 20
148.05356325677542
 10
70.76237258295522
 20
147.63461546111077
 10
70.45220702690098
 20
146.979002539241
 10
74.08257620578746
 20
74.77838301516812
 10
104.0611066230839
 20
74.77838301516812
 10
101.91312763048451
 20
153.8077987806175
 10
101.89612458952197
 20
154.34455054360183
 10
101.84389369618853
 20
154.903411879628
 10
101.75988474483269
 20
155.45452403706858
 10
101.6466796696767
 20
155.99813256628298
 10
101.50686265037075
 20
156.53473329337237
 10
101.34296235519233
 20
157.06503744204343
 10
101.15741558241189
 20
157.5899236055892
 10
100.95016263217589
 20
158.11645413875536
 10
100.49467974580332
 20
159.14054787374556
 10
99.98375363500253
 20
160.16806446464648
 10
99.43634372513536
 20
161.199678652193
 10
98.86705328682662
 20
162.24363512042825
 10
98.28996679352447
 20
163.30769970562093
 10
97.71880869681485
 20
164.39923188363088
 10
97.16701560009055
 20
165.52531837811094
 10
96.64512761425806
 20
166.6988714933238
 10
96.403737262162
 20
167.29553637037063
 10
96.17335717415577
 20
167.91010315879728
 10
95.95754900604123
 20
168.53862898467932
 10
95.75790348882578
 20
169.1820596168629
 10
95.57601329849243
 20
169.84136894884094
 10
95.41347908238077
 20
170.51756051685305
 10
95.27191595582124
 20
171.21166720891569
 10
95.01055726270297
 20
172.77838301516812
  0
LWPOLYLINE
  5
67
330
17
100
AcDbEntity
  8
STITCH_LINE
  6
DASHED
100
AcDbPolyline
 90
55
 70
1
 10
77.1635578418318
 20
171.77838301516812
 10
94.1635578418318
 20
171.77838301516812
 10
94.28849985843337
 20
171.02941756106657
 10
94.4371174121443
 20
170.30072188235562
 10
94.60759775882399
 20
169.59147200442592
 10
94.7981281543318
 20
168.9008439526681
 10
95.0068958545271
 20
168.2280137524728
 10
95.2320881152693
 20
167.57215742923063
 10
95.47189219241773
 20
166.93245100833218
 10
95.7244953418318
 20
166.3080705151681
 10
96.26084788089429
 20
165.10199141360562
 10
96.82664377933179
 20
163.94732832766812
 10
97.4073810840193
 20
162.8374894604806
 10
97.9885578418318
 20
161.76588301516813
 10
98.5556720996443
 20
160.7259171948556
 10
99.09422190433179
 20
159.71100020266812
 10
99.5897053027693
 20
158.71454024173062
 10
100.0276203418318
 20
157.7299455151681
 10
100.22045786624585
 20
157.24003767825405
 10
100.3934650683943
 20
156.75062422610563
 10
100.54482920413648
 20
156.26088118411343
 10
100.6727375293318
 20
155.7699845776681
 10
100.77537729983962
 20
155.2771104321603
 10
100.8509357715193
 20
154.78143477298062
 10
100.89760020023024
 20
154.2821336255197
 10
100.9135578418318
 20
153.77838301516812
 10
103.0335578418318
 20
75.77838301516812
 10
75.0335578418318
 20
75.77838301516812
 10
71.4635578418318
 20
146.77838301516812
 10
71.65499369388259
 20
147.18303084231655
 10
71.85551340823805
 20
147.55462813235562
 10
72.0641227222029
 20
147.89528059817593
 10
72.2798273730818
 20
148.20709395266812
 10
72.50163309817945
 20
148.4921739087228
 10
72.72854563480055
 20
148.75262617923062
 10
72.95957072024977
 20
148.99055647708218
 10
73.1937140918318
 20
149.20807051516812
 10
73.66737864261304
 20
149.59027266360562
 10
74.1415851855818
 20
149.91607832766812
 10
74.60837961917555
 20
150.20233321048062
 10
75.0598078418318
 20
150.46588301516812
 10
75.48791575198806
 20
150.72357344485562
 10
75.8847492480818
 20
150.99225020266812
 10
76.24235422855055
 20
151.28875899173062
 10
76.40396036868727
 20
151.45271468020718
 10
76.5527765918318
 20
151.62994551516812
 10
76.68780863528883
 20
151.82255720950405
 10
76.80806223636306
 20
152.03265547610562
 10
76.91254313235915
 20
152.26234602786343
 10
77.0002570605818
 20
152.51373457766812
 10
77.07020975833571
 20
152.7889268384103
 10
77.12140696292555
 20
153.09002852298062
 10
77.15285441165602
 20
153.41914534426968
 10
77.1635578418318
 20
153.77838301516812
 10
77.1635578418318
 20
171.77838301516812
  0
LINE
  5
68
330
17
100
AcDbEntity
  8
NOTCH
100
AcDbLine
 10
72.33292315187022
 20
129.48848469227528
 30
0.0
 11
71.33418488407607
 21
129.43826644416225
 31
0.0
  0
LINE
  5
69
330
17
100
AcDbEntity
  8
NOTCH
100
AcDbLine
 10
101.86902968378527
 20
118.62423033952143
 30
0.0
 11
102.86866052604043
 21
118.65139979318272
 31
0.0
  0
LINE
  5
6A
330
17
100
AcDbEntity
  8
GRAINLINE
100
AcDbLine
 10
87.2485578418318
 20
164.0983830151681
 30
0.0
 11
87.2485578418318
 21
83.45838301516812
 31
0.0
  0
LINE
  5
6B
330
17
100
AcDbEntity
  8
GRAINLINE
100
AcDbLine
 10
85.7485578418318
 20
162.5983830151681
 30
0.0
 11
87.2485578418318
 21
164.0983830151681
 31
0.0
  0
LINE
  5
6C
330
17
100
AcDbEntity
  8
GRAINLINE
100
AcDbLine
 10
88.7485578418318
 20
162.5983830151681
 30
0.0
 11
87.2485578418318
 21
164.0983830151681
 31
0.0
  0
LINE
  5
6D
330
17
100
AcDbEntity
  8
GRAINLINE
100
AcDbLine
 10
85.7485578418318
 20
84.95838301516812
 30
0.0
 11
87.2485578418318
 21
83.45838301516812
 31
0.0
  0
LINE
  5
6E
330
17
100
AcDbEntity
  8
GRAINLINE
100
AcDbLine
 10
88.7485578418318
 20
84.95838301516812
 30
0.0
 11
87.2485578418318
 21
83.45838301516812
 31
0.0
  0
TEXT
  5
6F
330
17
100
AcDbEntity
  8
LABEL
100
AcDbText
 10
87.25665682499243
 20
123.77838301516812
 30
0.0
 40
0.9
  1
パンツ・前（ワイド） 左
 72
1
 11
87.25665682499243
 21
123.77838301516812
 31
0.0
100
AcDbText
 73
2
  0
TEXT
  5
70
330
17
100
AcDbEntity
  8
LABEL_ID
100
AcDbText
 10
87.25665682499243
 20
122.57838301516811
 30
0.0
 40
0.55
  1
front_pants(wide) 左
 72
1
 11
87.25665682499243
 21
122.57838301516811
 31
0.0
100
AcDbText
 73
2
  0
LWPOLYLINE
  5
71
330
17
100
AcDbEntity
  8
CUT_LINE
100
AcDbPolyline
 90
54
 70
1
 10
107.96625558241001
 20
172.77838301516812
 10
107.96625558241001
 20
153.79327713214167
 10
107.95697105938368
 20
153.4816620356157
 10
107.93211965844996
 20
153.22157689643694
 10
107.89380777893687
 20
152.99625655809302
 10
107.84447379257826
 20
152.80217782098393
 10
107.78609585507945
 20
152.63486636491547
 10
107.71976458195313
 20
152.48904385279087
 10
107.64537747595087
 20
152.3590801603195
 10
107.56164593388955
 20
152.23964425627113
 10
107.46647345985127
 20
152.1262997788836
 10
107.36811216762543
 20
152.0265084382038
 10
107.08657050220845
 20
151.79306767858685
 10
106.75205595450448
 20
151.56658406517488
 10
106.35253741775101
 20
151.32610239931043
 10
105.89754303572509
 20
151.060470623319
 10
105.39939258175198
 20
150.75498711802686
 10
104.8720687951975
 20
150.3926870211561
 10
104.34132891247306
 20
149.96443051957883
 10
104.06277832264409
 20
149.70566315326158
 10
103.79499382955233
 20
149.4298747293445
 10
103.5321195456728
 20
149.12814523870438
 10
103.27606927669439
 20
148.79905184223765
 10
103.02857193544237
 20
148.44128034362024
 10
102.79114111190678
 20
148.05356325677542
 10
102.56507032353343
 20
147.63461546111077
 10
102.25490476747919
 20
146.979002539241
 10
105.88527394636567
 20
74.77838301516812
 10
135.8638043636621
 20
74.77838301516812
 10
133.71582537106272
 20
153.8077987806175
 10
133.69882233010017
 20
154.34455054360183
 10
133.64659143676676
 20
154.903411879628
 10
133.5625824854109
 20
155.45452403706858
 10
133.4493774102549
 20
155.99813256628298
 10
133.30956039094895
 20
156.53473329337237
 10
133.14566009577055
 20
157.06503744204343
 10
132.96011332299008
 20
157.5899236055892
 10
132.7528603727541
 20
158.11645413875536
 10
132.29737748638152
 20
159.14054787374556
 10
131.78645137558073
 20
160.16806446464648
 10
131.23904146571357
 20
161.199678652193
 10
130.66975102740483
 20
162.24363512042825
 10
130.09266453410268
 20
163.30769970562093
 10
129.52150643739304
 20
164.39923188363088
 10
128.96971334066876
 20
165.52531837811094
 10
128.44782535483625
 20
166.6988714933238
 10
128.2064350027402
 20
167.29553637037063
 10
127.97605491473398
 20
167.91010315879728
 10
127.76024674661944
 20
168.53862898467932
 10
127.56060122940397
 20
169.1820596168629
 10
127.37871103907064
 20
169.84136894884094
 10
127.21617682295899
 20
170.51756051685305
 10
127.07461369639947
 20
171.21166720891569
 10
126.81325500328118
 20
172.77838301516812
  0
LWPOLYLINE
  5
72
330
17
100
AcDbEntity
  8
STITCH_LINE
  6
DASHED
100
AcDbPolyline
 90
55
 70
1
 10
108.96625558241001
 20
171.77838301516812
 10
125.96625558241001
 20
171.77838301516812
 10
126.09119759901156
 20
171.02941756106657
 10
126.23981515272251
 20
170.30072188235562
 10
126.4102954994022
 20
169.59147200442592
 10
126.60082589491
 20
168.9008439526681
 10
126.80959359510533
 20
168.2280137524728
 10
127.0347858558475
 20
167.57215742923063
 10
127.27458993299595
 20
166.93245100833218
 10
127.52719308241001
 20
166.3080705151681
 10
128.0635456214725
 20
165.10199141360562
 10
128.62934151991
 20
163.94732832766812
 10
129.2100788245975
 20
162.8374894604806
 10
129.79125558241
 20
161.76588301516813
 10
130.3583698402225
 20
160.7259171948556
 10
130.89691964491
 20
159.71100020266812
 10
131.3924030433475
 20
158.71454024173062
 10
131.83031808241
 20
157.7299455151681
 10
132.02315560682408
 20
157.24003767825405
 10
132.1961628089725
 20
156.75062422610563
 10
132.3475269447147
 20
156.26088118411343
 10
132.47543526991
 20
155.7699845776681
 10
132.57807504041781
 20
155.2771104321603
 10
132.6536335120975
 20
154.78143477298062
 10
132.70029794080844
 20
154.2821336255197
 10
132.71625558241
 20
153.77838301516812
 10
134.83625558241002
 20
75.77838301516812
 10
106.83625558241002
 20
75.77838301516812
 10
103.26625558241001
 20
146.77838301516812
 10
103.4576914344608
 20
147.18303084231655
 10
103.65821114881626
 20
147.55462813235562
 10
103.8668204627811
 20
147.89528059817593
 10
104.08252511366001
 20
148.20709395266812
 10
104.30433083875766
 20
148.4921739087228
 10
104.53124337537876
 20
148.75262617923062
 10
104.76226846082798
 20
148.99055647708218
 10
104.99641183241002
 20
149.20807051516812
 10
105.47007638319126
 20
149.59027266360562
 10
105.94428292616001
 20
149.91607832766812
 10
106.41107735975376
 20
150.20233321048062
 10
106.86250558241001
 20
150.46588301516812
 10
107.29061349256627
 20
150.72357344485562
 10
107.68744698866001
 20
150.99225020266812
 10
108.04505196912876
 20
151.28875899173062
 10
108.20665810926548
 20
151.45271468020718
 10
108.35547433241001
 20
151.62994551516812
 10
108.49050637586704
 20
151.82255720950405
 10
108.61075997694127
 20
152.03265547610562
 10
108.71524087293736
 20
152.26234602786343
 10
108.80295480116001
 20
152.51373457766812
 10
108.87290749891392
 20
152.7889268384103
 10
108.92410470350376
 20
153.09002852298062
 10
108.95555215223423
 20
153.41914534426968
 10
108.96625558241001
 20
153.77838301516812
 10
108.96625558241001
 20
171.77838301516812
  0
LINE
  5
73
330
17
100
AcDbEntity
  8
NOTCH
100
AcDbLine
 10
104.13562089244843
 20
129.48848469227528
 30
0.0
 11
103.13688262465428
 21
129.43826644416225
 31
0.0
  0
LINE
  5
74
330
17
100
AcDbEntity
  8
NOTCH
100
AcDbLine
 10
133.6717274243635
 20
118.62423033952143
 30
0.0
 11
134.67135826661865
 21
118.65139979318272
 31
0.0
  0
LINE
  5
75
330
17
100
AcDbEntity
  8
GRAINLINE
100
AcDbLine
 10
119.05125558241001
 20
164.0983830151681
 30
0.0
 11
119.05125558241001
 21
83.45838301516812
 31
0.0
  0
LINE
  5
76
330
17
100
AcDbEntity
  8
GRAINLINE
100
AcDbLine
 10
117.55125558241001
 20
162.5983830151681
 30
0.0
 11
119.05125558241001
 21
164.0983830151681
 31
0.0
  0
LINE
  5
77
330
17
100
AcDbEntity
  8
GRAINLINE
100
AcDbLine
 10
120.55125558241001
 20
162.5983830151681
 30
0.0
 11
119.05125558241001
 21
164.0983830151681
 31
0.0
  0
LINE
  5
78
330
17
100
AcDbEntity
  8
GRAINLINE
100
AcDbLine
 10
117.55125558241001
 20
84.95838301516812
 30
0.0
 11
119.05125558241001
 21
83.45838301516812
 31
0.0
  0
LINE
  5
79
330
17
100
AcDbEntity
  8
GRAINLINE
100
AcDbLine
 10
120.55125558241001
 20
84.95838301516812
 30
0.0
 11
119.05125558241001
 21
83.45838301516812
 31
0.0
  0
TEXT
  5
7A
330
17
100
AcDbEntity
  8
LABEL
100
AcDbText
 10
119.05935456557064
 20
123.77838301516812
 30
0.0
 40
0.9
  1
パンツ・前（ワイド） 右
 72
1
 11
119.05935456557064
 21
123.77838301516812
 31
0.0
100
AcDbText
 73
2
  0
TEXT
  5
7B
330
17
100
AcDbEntity
  8
LABEL_ID
100
AcDbText
 10
119.05935456557064
 20
122.57838301516811
 30
0.0
 40
0.55
  1
front_pants(wide) 右
 72
1
 11
119.05935456557064
 21
122.57838301516811
 31
0.0
100
AcDbText
 73
2
  0
LWPOLYLINE
  5
7C
330
17
100
AcDbEntity
  8
CUT_LINE
100
AcDbPolyline
 90
71
 70
1
 10
9.37327397121956
 20
172.77838301516812
 10
8.883930333918554
 20
171.01598132145122
 10
8.631838205800117
 20
169.96564795351546
 10
8.418361924106675
 20
168.9090313291393
 10
8.243643704519048
 20
167.8438871831637
 10
8.107773415134428
 20
166.76799465728882
 10
8.010783928466255
 20
165.67913612336565
 10
7.9526516461666095
 20
164.57507691812788
 10
7.933301895693015
 20
163.45354724028724
 10
7.9526181540580225
 20
162.3122280057985
 10
8.010453589547835
 20
161.14874170590576
 10
8.106643300793433
 20
159.96064847559882
 10
8.241015835730039
 20
158.74544685663528
 10
8.413402976833954
 20
157.50057825694478
 10
8.623647247975297
 20
156.22343390249029
 10
8.871607020952657
 20
154.91136310858064
 10
9.128463949016934
 20
153.69731278452684
 10
9.119963633269615
 20
153.51852304286302
 10
9.086186156699448
 20
153.29699148851842
 10
9.035167844928047
 20
153.10895977720358
 10
8.969285186076027
 20
152.94654148538
 10
8.888379608072862
 20
152.80123629358278
 10
8.789905081305227
 20
152.66557710952787
 10
8.670066423342215
 20
152.53437726334488
 10
8.525280902422898
 20
152.40496497498808
 10
8.353192345246557
 20
152.27654348397374
 10
8.152965592140324
 20
152.14925792862633
 10
7.925066717142123
 20
152.02343712974334
 10
7.677469774871559
 20
151.90239315126618
 10
7.087419635231457
 20
151.65209049128842
 10
6.427762852828895
 20
151.40332215924397
 10
5.70429672824473
 20
151.13871715111637
 10
4.93310368157365
 20
150.84246206549827
 10
4.137906221457785
 20
150.50024173897222
 10
3.723109428160798
 20
150.2999714484049
 10
3.311768679738513
 20
150.08276123021585
 10
2.9003028773370105
 20
149.8433752438558
 10
2.490927392314513
 20
149.57935127685056
 10
2.0859859576801454
 20
149.28830582304957
 10
1.6879443566542824
 20
148.96798480334576
 10
1.2993627319500276
 20
148.61631110523402
 10
0.9228458803834684
 20
148.2314195654541
 10
0.5609761833858419
 20
147.81166980070228
 10
0.0
 20
147.06957547848987
 10
7.106936949211068
 20
74.77838301516812
 10
37.041128362084166
 20
74.77838301516812
 10
34.88301564477815
 20
153.80786280383947
 10
34.8660146319216
 20
154.34455054360188
 10
34.81378373858818
 20
154.90341187962798
 10
34.72977478723233
 20
155.45452403706852
 10
34.61656971207632
 20
155.99813256628303
 10
34.476752692770404
 20
156.53473329337226
 10
34.31285239759193
 20
157.06503744204352
 10
34.12730562481154
 20
157.58992360558912
 10
33.92005267457549
 20
158.11645413875542
 10
33.46456978820295
 20
159.14054787374556
 10
32.953643677402205
 20
160.1680644646464
 10
32.40623376753499
 20
161.199678652193
 10
31.836943329226255
 20
162.24363512042825
 10
31.259856835924104
 20
163.30769970562093
 10
30.688698739214477
 20
164.39923188363088
 10
30.13690564249018
 20
165.52531837811094
 10
29.615017656657685
 20
166.6988714933238
 10
29.373627304561623
 20
167.29553637037063
 10
29.143247216555398
 20
167.91010315879728
 10
28.92743904844087
 20
168.53862898467932
 10
28.7277935312254
 20
169.1820596168629
 10
28.54590334089207
 20
169.8413689488409
 10
28.383369124780398
 20
170.5175605168531
 10
28.241805998220894
 20
171.21166720891563
 10
27.9804473051026
 20
172.77838301516812
  0
LWPOLYLINE
  5
7D
330
17
100
AcDbEntity
  8
STITCH_LINE
  6
DASHED
100
AcDbPolyline
 90
72
 70
1
 10
10.13344788423143
 20
171.77838301516812
 10
27.13344788423143
 20
171.77838301516812
 10
27.258389900832995
 20
171.02941756106657
 10
27.40700745454393
 20
170.30072188235562
 10
27.57748780122362
 20
169.59147200442592
 10
27.768018196731433
 20
168.9008439526681
 10
27.976785896926742
 20
168.2280137524728
 10
28.201978157668933
 20
167.57215742923063
 10
28.441782234817367
 20
166.93245100833218
 10
28.69438538423143
 20
166.3080705151681
 10
29.23073792329393
 20
165.10199141360562
 10
29.79653382173143
 20
163.94732832766812
 10
30.377271126418933
 20
162.8374894604806
 10
30.958447884231433
 20
161.76588301516813
 10
31.52556214204393
 20
160.7259171948556
 10
32.06411194673143
 20
159.71100020266812
 10
32.55959534516893
 20
158.71454024173062
 10
32.997510384231425
 20
157.7299455151681
 10
33.190347908645485
 20
157.24003767825405
 10
33.363355110793925
 20
156.75062422610563
 10
33.51471924653611
 20
156.26088118411343
 10
33.64262757173143
 20
155.7699845776681
 10
33.745267342239245
 20
155.2771104321603
 10
33.82082581391893
 20
154.78143477298062
 10
33.86749024262987
 20
154.2821336255197
 10
33.88344788423143
 20
153.77838301516812
 10
36.013447884231425
 20
75.77838301516812
 10
8.01344788423143
 20
75.77838301516812
 10
1.0334478842314296
 20
146.77838301516812
 10
1.339335945754867
 20
147.18303084231655
 10
1.6596930014189297
 20
147.55462813235562
 10
1.9929333578642423
 20
147.89528059817593
 10
2.33747132173143
 20
148.20709395266812
 10
2.6917211996611172
 20
148.4921739087228
 10
3.05409729829393
 20
148.75262617923062
 10
3.4230139242704927
 20
148.99055647708218
 10
3.79688538423143
 20
149.20807051516812
 10
4.174125984817367
 20
149.40727400637905
 10
4.553150032668929
 20
149.59027266360562
 10
5.31020569673143
 20
149.91607832766812
 10
6.05536682954393
 20
150.20233321048062
 10
6.77594788423143
 20
150.46588301516812
 10
7.45926331391893
 20
150.72357344485562
 10
8.092627571731429
 20
150.99225020266812
 10
8.386613777786117
 20
151.1359727368478
 10
8.663355110793928
 20
151.28875899173062
 10
8.921265877395491
 20
151.45271468020718
 10
9.15876038423143
 20
151.62994551516812
 10
9.374252937942366
 20
151.82255720950405
 10
9.566157845168929
 20
152.03265547610562
 10
9.732889412551742
 20
152.26234602786343
 10
9.87286194673143
 20
152.51373457766812
 10
9.984489754348617
 20
152.7889268384103
 10
10.066187142043932
 20
153.09002852298062
 10
10.116368416457993
 20
153.41914534426968
 10
10.13344788423143
 20
153.77838301516812
 10
9.85219788423143
 20
155.10772871829312
 10
9.60844788423143
 20
156.39752364016812
 10
9.40219788423143
 20
157.65040449954313
 10
9.23344788423143
 20
158.8690080151681
 10
9.10219788423143
 20
160.05597090579312
 10
9.00844788423143
 20
161.21392989016812
 10
8.95219788423143
 20
162.34552168704312
 10
8.93344788423143
 20
163.45338301516813
 10
8.95219788423143
 20
164.5401505932931
 10
9.00844788423143
 20
165.60846114016812
 10
9.10219788423143
 20
166.66095137454312
 10
9.23344788423143
 20
167.70025801516812
 10
9.40219788423143
 20
168.72901778079313
 10
9.60844788423143
 20
169.7498673901681
 10
9.85219788423143
 20
170.76544356204312
 10
10.13344788423143
 20
171.77838301516812
  0
LINE
  5
7E
330
17
100
AcDbEntity
  8
NOTCH
100
AcDbLine
 10
4.52344788423143
 20
111.27838301516812
 30
0.0
 11
3.528245549848259
 21
111.18054481384425
 31
0.0
  0
LINE
  5
7F
330
17
100
AcDbEntity
  8
NOTCH
100
AcDbLine
 10
34.84342331834517
 20
118.62435303353811
 30
0.0
 11
35.843050671717386
 21
118.65165054972636
 31
0.0
  0
LINE
  5
80
330
17
100
AcDbEntity
  8
GRAINLINE
100
AcDbLine
 10
18.523447884231427
 20
164.0983830151681
 30
0.0
 11
18.523447884231427
 21
83.45838301516812
 31
0.0
  0
LINE
  5
81
330
17
100
AcDbEntity
  8
GRAINLINE
100
AcDbLine
 10
17.023447884231427
 20
162.5983830151681
 30
0.0
 11
18.523447884231427
 21
164.0983830151681
 31
0.0
  0
LINE
  5
82
330
17
100
AcDbEntity
  8
GRAINLINE
100
AcDbLine
 10
20.023447884231427
 20
162.5983830151681
 30
0.0
 11
18.523447884231427
 21
164.0983830151681
 31
0.0
  0
LINE
  5
83
330
17
100
AcDbEntity
  8
GRAINLINE
100
AcDbLine
 10
17.023447884231427
 20
84.95838301516812
 30
0.0
 11
18.523447884231427
 21
83.45838301516812
 31
0.0
  0
LINE
  5
84
330
17
100
AcDbEntity
  8
GRAINLINE
100
AcDbLine
 10
20.023447884231427
 20
84.95838301516812
 30
0.0
 11
18.523447884231427
 21
83.45838301516812
 31
0.0
  0
TEXT
  5
85
330
17
100
AcDbEntity
  8
LABEL
100
AcDbText
 10
18.520564181042083
 20
123.77838301516812
 30
0.0
 40
0.9
  1
パンツ・後（ワイド） 左
 72
1
 11
18.520564181042083
 21
123.77838301516812
 31
0.0
100
AcDbText
 73
2
  0
TEXT
  5
86
330
17
100
AcDbEntity
  8
LABEL_ID
100
AcDbText
 10
18.520564181042083
 20
122.57838301516811
 30
0.0
 40
0.55
  1
back_pants(wide) 左
 72
1
 11
18.520564181042083
 21
122.57838301516811
 31
0.0
100
AcDbText
 73
2
  0
LWPOLYLINE
  5
87
330
17
100
AcDbEntity
  8
CUT_LINE
100
AcDbPolyline
 90
71
 70
1
 10
44.59937748467005
 20
172.77838301516812
 10
44.110033847369046
 20
171.01598132145122
 10
43.857941719250604
 20
169.96564795351546
 10
43.644465437557166
 20
168.9090313291393
 10
43.46974721796954
 20
167.8438871831637
 10
43.333876928584914
 20
166.76799465728882
 10
43.23688744191674
 20
165.67913612336565
 10
43.1787551596171
 20
164.57507691812788
 10
43.1594054091435
 20
163.45354724028724
 10
43.17872166750851
 20
162.3122280057985
 10
43.236557102998326
 20
161.14874170590576
 10
43.33274681424392
 20
159.96064847559882
 10
43.46711934918053
 20
158.74544685663528
 10
43.63950649028445
 20
157.50057825694478
 10
43.84975076142579
 20
156.22343390249029
 10
44.09771053440315
 20
154.91136310858064
 10
44.35456746246742
 20
153.69731278452684
 10
44.3460671467201
 20
153.51852304286302
 10
44.31228967014994
 20
153.29699148851842
 10
44.261271358378536
 20
153.10895977720358
 10
44.19538869952652
 20
152.94654148538
 10
44.11448312152335
 20
152.80123629358278
 10
44.01600859475572
 20
152.66557710952787
 10
43.8961699367927
 20
152.53437726334488
 10
43.75138441587339
 20
152.40496497498808
 10
43.579295858697044
 20
152.27654348397374
 10
43.379069105590816
 20
152.14925792862633
 10
43.15117023059261
 20
152.02343712974334
 10
42.90357328832205
 20
151.90239315126618
 10
42.313523148681945
 20
151.65209049128842
 10
41.65386636627939
 20
151.40332215924397
 10
40.93040024169522
 20
151.13871715111637
 10
40.15920719502414
 20
150.84246206549827
 10
39.36400973490827
 20
150.50024173897222
 10
38.949212941611286
 20
150.2999714484049
 10
38.537872193189
 20
150.08276123021585
 10
38.1264063907875
 20
149.8433752438558
 10
37.717030905765
 20
149.57935127685056
 10
37.31208947113063
 20
149.28830582304957
 10
36.914047870104774
 20
148.96798480334576
 10
36.525466245400516
 20
148.61631110523402
 10
36.14894939383396
 20
148.2314195654541
 10
35.78707969683633
 20
147.81166980070228
 10
35.22610351345049
 20
147.06957547848987
 10
42.33304046266156
 20
74.77838301516812
 10
72.26723187553466
 20
74.77838301516812
 10
70.10911915822864
 20
153.80786280383947
 10
70.0921181453721
 20
154.34455054360188
 10
70.03988725203867
 20
154.90341187962798
 10
69.95587830068283
 20
155.45452403706852
 10
69.84267322552681
 20
155.99813256628303
 10
69.7028562062209
 20
156.53473329337226
 10
69.53895591104242
 20
157.06503744204352
 10
69.35340913826204
 20
157.58992360558912
 10
69.14615618802597
 20
158.11645413875542
 10
68.69067330165345
 20
159.14054787374556
 10
68.1797471908527
 20
160.1680644646464
 10
67.63233728098548
 20
161.199678652193
 10
67.06304684267674
 20
162.24363512042825
 10
66.4859603493746
 20
163.30769970562093
 10
65.91480225266497
 20
164.39923188363088
 10
65.36300915594067
 20
165.52531837811094
 10
64.84112117010818
 20
166.6988714933238
 10
64.59973081801212
 20
167.29553637037063
 10
64.36935073000589
 20
167.91010315879728
 10
64.15354256189136
 20
168.53862898467932
 10
63.95389704467589
 20
169.1820596168629
 10
63.772006854342564
 20
169.8413689488409
 10
63.60947263823088
 20
170.5175605168531
 10
63.46790951167138
 20
171.21166720891563
 10
63.20655081855309
 20
172.77838301516812
  0
LWPOLYLINE
  5
88
330
17
100
AcDbEntity
  8
STITCH_LINE
  6
DASHED
100
AcDbPolyline
 90
72
 70
1
 10
45.35955139768192
 20
171.77838301516812
 10
62.35955139768192
 20
171.77838301516812
 10
62.484493414283484
 20
171.02941756106657
 10
62.63311096799442
 20
170.30072188235562
 10
62.80359131467411
 20
169.59147200442592
 10
62.99412171018192
 20
168.9008439526681
 10
63.20288941037723
 20
168.2280137524728
 10
63.42808167111942
 20
167.57215742923063
 10
63.66788574826786
 20
166.93245100833218
 10
63.92048889768192
 20
166.3080705151681
 10
64.45684143674441
 20
165.10199141360562
 10
65.02263733518191
 20
163.94732832766812
 10
65.60337463986943
 20
162.8374894604806
 10
66.18455139768193
 20
161.76588301516813
 10
66.75166565549442
 20
160.7259171948556
 10
67.29021546018191
 20
159.71100020266812
 10
67.78569885861941
 20
158.71454024173062
 10
68.22361389768191
 20
157.7299455151681
 10
68.41645142209597
 20
157.24003767825405
 10
68.58945862424441
 20
156.75062422610563
 10
68.7408227599866
 20
156.26088118411343
 10
68.86873108518192
 20
155.7699845776681
 10
68.97137085568974
 20
155.2771104321603
 10
69.04692932736941
 20
154.78143477298062
 10
69.09359375608037
 20
154.2821336255197
 10
69.10955139768191
 20
153.77838301516812
 10
71.23955139768191
 20
75.77838301516812
 10
43.23955139768192
 20
75.77838301516812
 10
36.25955139768192
 20
146.77838301516812
 10
36.56543945920536
 20
147.18303084231655
 10
36.88579651486942
 20
147.55462813235562
 10
37.219036871314735
 20
147.89528059817593
 10
37.56357483518192
 20
148.20709395266812
 10
37.91782471311161
 20
148.4921739087228
 10
38.28020081174442
 20
148.75262617923062
 10
38.64911743772098
 20
148.99055647708218
 10
39.02298889768192
 20
149.20807051516812
 10
39.400229498267855
 20
149.40727400637905
 10
39.77925354611942
 20
149.59027266360562
 10
40.53630921018192
 20
149.91607832766812
 10
41.28147034299442
 20
150.20233321048062
 10
42.00205139768192
 20
150.46588301516812
 10
42.68536682736942
 20
150.72357344485562
 10
43.318731085181916
 20
150.99225020266812
 10
43.612717291236606
 20
151.1359727368478
 10
43.88945862424442
 20
151.28875899173062
 10
44.14736939084598
 20
151.45271468020718
 10
44.38486389768192
 20
151.62994551516812
 10
44.600356451392855
 20
151.82255720950405
 10
44.79226135861942
 20
152.03265547610562
 10
44.95899292600223
 20
152.26234602786343
 10
45.098965460181915
 20
152.51373457766812
 10
45.210593267799105
 20
152.7889268384103
 10
45.29229065549442
 20
153.09002852298062
 10
45.342471929908484
 20
153.41914534426968
 10
45.35955139768192
 20
153.77838301516812
 10
45.07830139768192
 20
155.10772871829312
 10
44.83455139768192
 20
156.39752364016812
 10
44.62830139768192
 20
157.65040449954313
 10
44.45955139768192
 20
158.8690080151681
 10
44.32830139768192
 20
160.05597090579312
 10
44.23455139768192
 20
161.21392989016812
 10
44.17830139768192
 20
162.34552168704312
 10
44.15955139768192
 20
163.45338301516813
 10
44.17830139768192
 20
164.5401505932931
 10
44.23455139768192
 20
165.60846114016812
 10
44.32830139768192
 20
166.66095137454312
 10
44.45955139768192
 20
167.70025801516812
 10
44.62830139768192
 20
168.72901778079313
 10
44.83455139768192
 20
169.7498673901681
 10
45.07830139768192
 20
170.76544356204312
 10
45.35955139768192
 20
171.77838301516812
  0
LINE
  5
89
330
17
100
AcDbEntity
  8
NOTCH
100
AcDbLine
 10
39.74955139768192
 20
111.27838301516812
 30
0.0
 11
38.75434906329875
 21
111.18054481384425
 31
0.0
  0
LINE
  5
8A
330
17
100
AcDbEntity
  8
NOTCH
100
AcDbLine
 10
70.06952683179566
 20
118.62435303353811
 30
0.0
 11
71.06915418516787
 21
118.65165054972636
 31
0.0
  0
LINE
  5
8B
330
17
100
AcDbEntity
  8
GRAINLINE
100
AcDbLine
 10
53.74955139768191
 20
164.0983830151681
 30
0.0
 11
53.74955139768191
 21
83.45838301516812
 31
0.0
  0
LINE
  5
8C
330
17
100
AcDbEntity
  8
GRAINLINE
100
AcDbLine
 10
52.24955139768191
 20
162.5983830151681
 30
0.0
 11
53.74955139768191
 21
164.0983830151681
 31
0.0
  0
LINE
  5
8D
330
17
100
AcDbEntity
  8
GRAINLINE
100
AcDbLine
 10
55.24955139768191
 20
162.5983830151681
 30
0.0
 11
53.74955139768191
 21
164.0983830151681
 31
0.0
  0
LINE
  5
8E
330
17
100
AcDbEntity
  8
GRAINLINE
100
AcDbLine
 10
52.24955139768191
 20
84.95838301516812
 30
0.0
 11
53.74955139768191
 21
83.45838301516812
 31
0.0
  0
LINE
  5
8F
330
17
100
AcDbEntity
  8
GRAINLINE
100
AcDbLine
 10
55.24955139768191
 20
84.95838301516812
 30
0.0
 11
53.74955139768191
 21
83.45838301516812
 31
0.0
  0
TEXT
  5
90
330
17
100
AcDbEntity
  8
LABEL
100
AcDbText
 10
53.74666769449257
 20
123.77838301516812
 30
0.0
 40
0.9
  1
パンツ・後（ワイド） 右
 72
1
 11
53.74666769449257
 21
123.77838301516812
 31
0.0
100
AcDbText
 73
2
  0
TEXT
  5
91
330
17
100
AcDbEntity
  8
LABEL_ID
100
AcDbText
 10
53.74666769449257
 20
122.57838301516811
 30
0.0
 40
0.55
  1
back_pants(wide) 右
 72
1
 11
53.74666769449257
 21
122.57838301516811
 31
0.0
100
AcDbText
 73
2
  0
LWPOLYLINE
  5
92
330
17
100
AcDbEntity
  8
CUT_LINE
100
AcDbPolyline
 90
30
 70
1
 10
97.3266199821442
 20
74.47838301516812
 10
96.8854227782599
 20
74.44806827884706
 10
96.43874904747315
 20
74.34738770690741
 10
96.02786773713623
 20
74.17813220775012
 10
95.6651175105863
 20
73.94699435696283
 10
95.36008816765654
 20
73.66827214226768
 10
95.11502945262245
 20
73.3594721505098
 10
94.92515668368245
 20
73.03588903641517
 10
94.78207058588772
 20
72.70817676087854
 10
94.67688858532853
 20
72.3829419004643
 10
94.59872233534918
 20
72.0514750729381
 10
94.51675131732155
 20
71.46544450735918
 10
94.48756968839285
 20
70.92582067228739
 10
94.48366504695247
 20
70.48278966567287
 10
94.48366504695247
 20
66.47838301516812
 10
134.0290564251673
 20
66.47838301516812
 10
134.0290564251673
 20
70.48278966567261
 10
134.02515178372693
 20
70.92582067228744
 10
133.99597015479824
 20
71.46544450735921
 10
133.91399913677063
 20
72.05147507293812
 10
133.83583288679128
 20
72.38294190046427
 10
133.73065088623207
 20
72.70817676087854
 10
133.58756478843733
 20
73.03588903641518
 10
133.39769201949736
 20
73.3594721505098
 10
133.15263330446322
 20
73.6682721422677
 10
132.84760396153348
 20
73.94699435696283
 10
132.48485373498357
 20
74.17813220775012
 10
132.07397242464666
 20
74.34738770690741
 10
131.62729869385993
 20
74.44806827884706
 10
131.1861014899756
 20
74.47838301516812
  0
LWPOLYLINE
  5
93
330
17
100
AcDbEntity
  8
STITCH_LINE
  6
DASHED
100
AcDbPolyline
 90
30
 70
1
 10
97.36093461586321
 20
73.47838301516812
 10
97.03048750668727
 20
73.45567793704312
 10
96.74128899643759
 20
73.39049239016812
 10
96.49058917851909
 20
73.28722090579312
 10
96.27563814633669
 20
73.15025801516812
 10
96.0936859932953
 20
72.98399824954312
 10
95.94198281279982
 20
72.79283614016812
 10
95.81777869825518
 20
72.58116621829312
 10
95.7183237430663
 20
72.35338301516812
 10
95.64086804063811
 20
72.11388106204312
 10
95.5826616843755
 20
71.86705489016812
 10
95.51299738396669
 20
71.36900801516812
 10
95.48733158907925
 20
70.89439864016812
 10
95.48366504695247
 20
70.47838301516812
 10
95.48366504695247
 20
67.47838301516812
 10
133.0290564251673
 20
67.47838301516812
 10
133.0290564251673
 20
70.47838301516812
 10
133.02538988304053
 20
70.89439864016812
 10
132.9997240881531
 20
71.36900801516812
 10
132.9300597877443
 20
71.86705489016812
 10
132.8718534314817
 20
72.11388106204312
 10
132.7943977290535
 20
72.35338301516812
 10
132.69494277386462
 20
72.58116621829312
 10
132.57073865931997
 20
72.79283614016812
 10
132.4190354788245
 20
72.98399824954312
 10
132.2370833257831
 20
73.15025801516812
 10
132.0221322936007
 20
73.28722090579312
 10
131.77143247568222
 20
73.39049239016812
 10
131.48223396543253
 20
73.45567793704312
 10
131.1517868562566
 20
73.47838301516812
  0
LINE
  5
94
330
17
100
AcDbEntity
  8
NOTCH
100
AcDbLine
 10
103.05259198212158
 20
67.47838301516812
 30
0.0
 11
103.05259198212158
 21
66.47838301516812
 31
0.0
  0
LINE
  5
95
330
17
100
AcDbEntity
  8
NOTCH
100
AcDbLine
 10
125.4601294899982
 20
67.47838301516812
 30
0.0
 11
125.4601294899982
 21
66.47838301516812
 31
0.0
  0
LINE
  5
96
330
17
100
AcDbEntity
  8
GRAINLINE
100
AcDbLine
 10
114.25636073605989
 20
72.99838301516812
 30
0.0
 11
114.25636073605989
 21
67.95838301516812
 31
0.0
  0
LINE
  5
97
330
17
100
AcDbEntity
  8
GRAINLINE
100
AcDbLine
 10
113.8563607360599
 20
72.59838301516812
 30
0.0
 11
114.25636073605989
 21
72.99838301516812
 31
0.0
  0
LINE
  5
98
330
17
100
AcDbEntity
  8
GRAINLINE
100
AcDbLine
 10
114.6563607360599
 20
72.59838301516812
 30
0.0
 11
114.25636073605989
 21
72.99838301516812
 31
0.0
  0
LINE
  5
99
330
17
100
AcDbEntity
  8
GRAINLINE
100
AcDbLine
 10
113.8563607360599
 20
68.35838301516812
 30
0.0
 11
114.25636073605989
 21
67.95838301516812
 31
0.0
  0
LINE
  5
9A
330
17
100
AcDbEntity
  8
GRAINLINE
100
AcDbLine
 10
114.6563607360599
 20
68.35838301516812
 30
0.0
 11
114.25636073605989
 21
67.95838301516812
 31
0.0
  0
TEXT
  5
9B
330
17
100
AcDbEntity
  8
LABEL
100
AcDbText
 10
114.25636073605989
 20
70.47838301516812
 30
0.0
 40
0.9
  1
衿
 72
1
 11
114.25636073605989
 21
70.47838301516812
 31
0.0
100
AcDbText
 73
2
  0
TEXT
  5
9C
330
17
100
AcDbEntity
  8
LABEL_ID
100
AcDbText
 10
114.25636073605989
 20
69.27838301516812
 30
0.0
 40
0.55
  1
collar
 72
1
 11
114.25636073605989
 21
69.27838301516812
 31
0.0
100
AcDbText
 73
2
  0
LWPOLYLINE
  5
9D
330
17
100
AcDbEntity
  8
CUT_LINE
100
AcDbPolyline
 90
4
 70
1
 10
50.173995951387965
 20
14.0
 10
50.173995951387965
 20
0.0
 10
123.17399595138797
 20
0.0
 10
123.17399595138797
 20
14.0
  0
LWPOLYLINE
  5
9E
330
17
100
AcDbEntity
  8
STITCH_LINE
  6
DASHED
100
AcDbPolyline
 90
4
 70
1
 10
51.173995951387965
 20
13.0
 10
122.17399595138797
 20
13.0
 10
122.17399595138797
 20
1.0
 10
51.173995951387965
 20
1.0
  0
LINE
  5
9F
330
17
100
AcDbEntity
  8
NOTCH
100
AcDbLine
 10
68.17399595138797
 20
13.0
 30
0.0
 11
68.17399595138797
 21
14.0
 31
0.0
  0
LINE
  5
A0
330
17
100
AcDbEntity
  8
NOTCH
100
AcDbLine
 10
85.17399595138797
 20
13.0
 30
0.0
 11
85.17399595138797
 21
14.0
 31
0.0
  0
LINE
  5
A1
330
17
100
AcDbEntity
  8
NOTCH
100
AcDbLine
 10
102.17399595138797
 20
13.0
 30
0.0
 11
102.17399595138797
 21
14.0
 31
0.0
  0
LINE
  5
A2
330
17
100
AcDbEntity
  8
GRAINLINE
100
AcDbLine
 10
86.67399595138797
 20
12.039999999999992
 30
0.0
 11
86.67399595138797
 21
1.960000000000008
 31
0.0
  0
LINE
  5
A3
330
17
100
AcDbEntity
  8
GRAINLINE
100
AcDbLine
 10
86.27399595138797
 20
11.639999999999986
 30
0.0
 11
86.67399595138797
 21
12.039999999999992
 31
0.0
  0
LINE
  5
A4
330
17
100
AcDbEntity
  8
GRAINLINE
100
AcDbLine
 10
87.07399595138796
 20
11.639999999999986
 30
0.0
 11
86.67399595138797
 21
12.039999999999992
 31
0.0
  0
LINE
  5
A5
330
17
100
AcDbEntity
  8
GRAINLINE
100
AcDbLine
 10
86.27399595138797
 20
2.3600000000000136
 30
0.0
 11
86.67399595138797
 21
1.960000000000008
 31
0.0
  0
LINE
  5
A6
330
17
100
AcDbEntity
  8
GRAINLINE
100
AcDbLine
 10
87.07399595138796
 20
2.3600000000000136
 30
0.0
 11
86.67399595138797
 21
1.960000000000008
 31
0.0
  0
TEXT
  5
A7
330
17
100
AcDbEntity
  8
LABEL
100
AcDbText
 10
86.67399595138797
 20
7.0
 30
0.0
 40
0.9
  1
ウエストバンド（ワイド）
 72
1
 11
86.67399595138797
 21
7.0
 31
0.0
100
AcDbText
 73
2
  0
TEXT
  5
A8
330
17
100
AcDbEntity
  8
LABEL_ID
100
AcDbText
 10
86.67399595138797
 20
5.8
 30
0.0
 40
0.55
  1
waistband(wide)
 72
1
 11
86.67399595138797
 21
5.8
 31
0.0
100
AcDbText
 73
2
  0
ENDSEC
  0
SECTION
  2
OBJECTS
  0
DICTIONARY
  5
A
330
0
100
AcDbDictionary
281
1
  3
ACAD_COLOR
350
B
  3
ACAD_GROUP
350
C
  3
ACAD_LAYOUT
350
D
  3
ACAD_MATERIAL
350
E
  3
ACAD_MLEADERSTYLE
350
F
  3
ACAD_MLINESTYLE
350
10
  3
ACAD_PLOTSETTINGS
350
11
  3
ACAD_PLOTSTYLENAME
350
12
  3
ACAD_SCALELIST
350
14
  3
ACAD_TABLESTYLE
350
15
  3
ACAD_VISUALSTYLE
350
16
  3
EZDXF_META
350
2D
  0
DICTIONARY
  5
B
330
A
100
AcDbDictionary
281
1
  0
DICTIONARY
  5
C
330
A
100
AcDbDictionary
281
1
  0
DICTIONARY
  5
D
330
A
100
AcDbDictionary
281
1
  3
Model
350
1A
  3
Layout1
350
1E
  0
DICTIONARY
  5
E
330
A
100
AcDbDictionary
281
1
  3
ByBlock
350
1F
  3
ByLayer
350
20
  3
Global
350
21
  0
DICTIONARY
  5
F
330
A
100
AcDbDictionary
281
1
  3
Standard
350
2C
  0
DICTIONARY
  5
10
330
A
100
AcDbDictionary
281
1
  3
Standard
350
22
  0
DICTIONARY
  5
11
330
A
100
AcDbDictionary
281
1
  0
ACDBDICTIONARYWDFLT
  5
12
330
A
100
AcDbDictionary
281
1
  3
Normal
350
13
100
AcDbDictionaryWithDefault
340
13
  0
ACDBPLACEHOLDER
  5
13
330
12
  0
DICTIONARY
  5
14
330
A
100
AcDbDictionary
281
1
  0
DICTIONARY
  5
15
330
A
100
AcDbDictionary
281
1
  0
DICTIONARY
  5
16
330
A
100
AcDbDictionary
281
1
  0
LAYOUT
  5
1A
330
D
100
AcDbPlotSettings
  1

  4
A3
  6

 40
7.5
 41
20.0
 42
7.5
 43
20.0
 44
420.0
 45
297.0
 46
0.0
 47
0.0
 48
0.0
 49
0.0
140
0.0
141
0.0
142
1.0
143
1.0
 70
1024
 72
1
 73
0
 74
5
  7

 75
16
 76
0
 77
2
 78
300
147
1.0
148
0.0
149
0.0
100
AcDbLayout
  1
Model
 70
1
 71
0
 10
0.0
 20
0.0
 11
420.0
 21
297.0
 12
0.0
 22
0.0
 32
0.0
 14
1e+20
 24
1e+20
 34
1e+20
 15
-1e+20
 25
-1e+20
 35
-1e+20
146
0.0
 13
0.0
 23
0.0
 33
0.0
 16
1.0
 26
0.0
 36
0.0
 17
0.0
 27
1.0
 37
0.0
 76
1
330
17
  0
LAYOUT
  5
1E
330
D
100
AcDbPlotSettings
  1

  4
A3
  6

 40
7.5
 41
20.0
 42
7.5
 43
20.0
 44
420.0
 45
297.0
 46
0.0
 47
0.0
 48
0.0
 49
0.0
140
0.0
141
0.0
142
1.0
143
1.0
 70
0
 72
1
 73
0
 74
5
  7

 75
16
 76
0
 77
2
 78
300
147
1.0
148
0.0
149
0.0
100
AcDbLayout
  1
Layout1
 70
1
 71
1
 10
0.0
 20
0.0
 11
420.0
 21
297.0
 12
0.0
 22
0.0
 32
0.0
 14
1e+20
 24
1e+20
 34
1e+20
 15
-1e+20
 25
-1e+20
 35
-1e+20
146
0.0
 13
0.0
 23
0.0
 33
0.0
 16
1.0
 26
0.0
 36
0.0
 17
0.0
 27
1.0
 37
0.0
 76
1
330
1B
  0
MATERIAL
  5
1F
102
{ACAD_REACTORS
330
E
102
}
330
E
100
AcDbMaterial
  1
ByBlock
  2

 70
0
 40
1.0
 71
1
 41
1.0
 91
-1023410177
 42
1.0
 72
1
  3

 73
1
 74
1
 75
1
 44
0.5
 73
0
 45
1.0
 46
1.0
 77
1
  4

 78
1
 79
1
170
1
 48
1.0
171
1
  6

172
1
173
1
174
1
140
1.0
141
1.0
175
1
  7

176
1
177
1
178
1
143
1.0
179
1
  8

270
1
271
1
272
1
145
1.0
146
1.0
273
1
  9

274
1
275
1
276
1
 42
1.0
 72
1
  3

 73
1
 74
1
 75
1
 94
63
  0
MATERIAL
  5
20
102
{ACAD_REACTORS
330
E
102
}
330
E
100
AcDbMaterial
  1
ByLayer
  2

 70
0
 40
1.0
 71
1
 41
1.0
 91
-1023410177
 42
1.0
 72
1
  3

 73
1
 74
1
 75
1
 44
0.5
 73
0
 45
1.0
 46
1.0
 77
1
  4

 78
1
 79
1
170
1
 48
1.0
171
1
  6

172
1
173
1
174
1
140
1.0
141
1.0
175
1
  7

176
1
177
1
178
1
143
1.0
179
1
  8

270
1
271
1
272
1
145
1.0
146
1.0
273
1
  9

274
1
275
1
276
1
 42
1.0
 72
1
  3

 73
1
 74
1
 75
1
 94
63
  0
MATERIAL
  5
21
102
{ACAD_REACTORS
330
E
102
}
330
E
100
AcDbMaterial
  1
Global
  2

 70
0
 40
1.0
 71
1
 41
1.0
 91
-1023410177
 42
1.0
 72
1
  3

 73
1
 74
1
 75
1
 44
0.5
 73
0
 45
1.0
 46
1.0
 77
1
  4

 78
1
 79
1
170
1
 48
1.0
171
1
  6

172
1
173
1
174
1
140
1.0
141
1.0
175
1
  7

176
1
177
1
178
1
143
1.0
179
1
  8

270
1
271
1
272
1
145
1.0
146
1.0
273
1
  9

274
1
275
1
276
1
 42
1.0
 72
1
  3

 73
1
 74
1
 75
1
 94
63
  0
MLINESTYLE
  5
22
102
{ACAD_REACTORS
330
10
102
}
330
10
100
AcDbMlineStyle
  2
Standard
 70
0
  3

 62
256
 51
90.0
 52
90.0
 71
2
 49
0.5
 62
256
  6
BYLAYER
 49
-0.5
 62
256
  6
BYLAYER
  0
MLEADERSTYLE
  5
2C
102
{ACAD_REACTORS
330
F
102
}
330
F
100
AcDbMLeaderStyle
179
2
170
2
171
1
172
0
 90
2
 40
0.0
 41
0.0
173
1
 91
-1056964608
 92
-2
290
1
 42
2.0
291
1
 43
8.0
  3
Standard
 44
4.0
300

342
29
174
1
175
1
176
0
178
1
 93
-1056964608
 45
4.0
292
0
297
0
 46
4.0
 94
-1056964608
 47
1.0
 49
1.0
140
1.0
294
1
141
0.0
177
0
142
1.0
295
0
296
0
143
3.75
271
0
272
9
273
9
  0
DICTIONARY
  5
2D
330
A
100
AcDbDictionary
280
1
281
1
  3
CREATED_BY_EZDXF
350
2E
  3
WRITTEN_BY_EZDXF
350
AB
  0
DICTIONARYVAR
  5
2E
330
2D
100
DictionaryVariables
280
0
  1
1.4.4 @ 2026-10-10T00:37:42.785713+00:00
  0
DICTIONARYVAR
  5
AB
330
2D
100
DictionaryVariables
280
0
  1
1.4.4 @ 2026-10-10T00:37:42.791001+00:00
  0
ENDSEC
  0
EOF
