<svg xmlns="http://www.w3.org/2000/svg" width="900" height="1500" viewBox="0 0 900 1500"><rect width="900" height="1500" fill="#ffffff"/>
  <ellipse cx="450" cy="198.0" rx="60.84" ry="78.0" fill="#f6d9c4" stroke="#2b2430" stroke-width="3"/>
  <path d="M382.92 194.1
           C375.9 92.7 524.1 92.7 517.08 194.1
           C504.6 147.3 395.4 147.3 382.92 194.1 Z"
        fill="#4a3b52"/>
  <path d="M382.92 190.2 L368.1 322.8 L407.1 291.6 Z" fill="#4a3b52"/>
  <path d="M517.08 190.2 L531.9 322.8 L492.9 291.6 Z" fill="#4a3b52"/>
  <rect x="430" y="260.4" width="40" height="77.60000000000002" fill="#f6d9c4" stroke="#2b2430" stroke-width="3"/>

  <!-- 長袖(まっすぐ) -->
  <path d="M332 330 L264 364 L244 730 L308 730 L326 420 Z"
        fill="#1f2a44" stroke="#2b2430" stroke-width="4"/>
  <path d="M568 330 L636 364 L656 730 L592 730 L574 420 Z"
        fill="#1f2a44" stroke="#2b2430" stroke-width="4"/>
  <rect x="244" y="730" width="64" height="70" rx="26" fill="#f6d9c4" stroke="#2b2430" stroke-width="3"/>
  <rect x="592" y="730" width="64" height="70" rx="26" fill="#f6d9c4" stroke="#2b2430" stroke-width="3"/>
  <!-- 身頃 -->
  <path d="M332 330 L568 330
           C574 470 550 550 530 610
           L370 610
           C350 550 326 470 332 330 Z"
        fill="#1f2a44" stroke="#2b2430" stroke-width="4"/>
  <!-- Vネック -->
  <path d="M388 332 L450 426 L512 332 Z" fill="#f2f2ee" stroke="#2b2430" stroke-width="3"/>
  <!-- タイトな膝丈スカート(ほぼ広がらない) -->
  <path d="M370 610 L530 610 L546 960 L354 960 Z"
        fill="#3b3f52" stroke="#2b2430" stroke-width="4"/>

  <rect x="390" y="950" width="34" height="380" rx="16" fill="#f6d9c4" stroke="#2b2430" stroke-width="3"/>
  <rect x="476" y="950" width="34" height="380" rx="16" fill="#f6d9c4" stroke="#2b2430" stroke-width="3"/>
</svg>