<svg xmlns="http://www.w3.org/2000/svg" viewBox="-3.12 -3.12 52.24 58.24" preserveAspectRatio="xMidYMin meet" aria-hidden="true"><path d="M 7.00 12.00 L 7.30 11.45 L 7.61 10.91 L 7.92 10.38 L 8.23 9.87 L 8.55 9.38 L 8.87 8.90 L 9.19 8.44 L 9.52 7.99 L 9.85 7.55 L 10.18 7.13 L 10.51 6.72 L 10.85 6.33 L 11.19 5.95 L 11.53 5.58 L 11.87 5.23 L 12.21 4.89 L 12.56 4.56 L 12.91 4.25 L 13.25 3.95 L 13.60 3.66 L 13.95 3.38 L 14.30 3.12 L 14.65 2.87 L 15.00 2.62 L 15.35 2.40 L 15.70 2.18 L 16.05 1.97 L 16.40 1.78 L 16.75 1.60 L 17.09 1.42 L 17.44 1.26 L 17.79 1.11 L 18.13 0.97 L 18.47 0.84 L 18.81 0.72 L 19.15 0.61 L 19.49 0.51 L 19.82 0.42 L 20.15 0.34 L 20.48 0.26 L 20.81 0.20 L 21.13 0.15 L 21.45 0.10 L 21.77 0.06 L 22.08 0.04 L 22.39 0.02 L 22.70 0.00 L 23.00 0.00 L 23.30 0.00 L 23.61 0.02 L 23.92 0.04 L 24.23 0.06 L 24.55 0.10 L 24.87 0.15 L 25.19 0.20 L 25.52 0.26 L 25.85 0.34 L 26.18 0.42 L 26.51 0.51 L 26.85 0.61 L 27.19 0.72 L 27.53 0.84 L 27.87 0.97 L 28.21 1.11 L 28.56 1.26 L 28.91 1.42 L 29.25 1.60 L 29.60 1.78 L 29.95 1.97 L 30.30 2.18 L 30.65 2.40 L 31.00 2.62 L 31.35 2.87 L 31.70 3.12 L 32.05 3.38 L 32.40 3.66 L 32.75 3.95 L 33.09 4.25 L 33.44 4.56 L 33.79 4.89 L 34.13 5.23 L 34.47 5.58 L 34.81 5.95 L 35.15 6.33 L 35.49 6.72 L 35.82 7.13 L 36.15 7.55 L 36.48 7.99 L 36.81 8.44 L 37.13 8.90 L 37.45 9.38 L 37.77 9.87 L 38.08 10.38 L 38.39 10.91 L 38.70 11.45 L 39.00 12.00 L 46.00 52.00 L 0.00 52.00 L 7.00 12.00 Z" fill="#f3efe6" stroke="#8a8171" stroke-width="0.9" stroke-linejoin="round"/></svg>
