  0
SECTION
  2
HEADER
  9
$ACADVER
  1
AC1024
  9
$ACADMAINTVER
 70
6
  9
$DWGCODEPAGE
  3
ANSI_1252
  9
$LASTSAVEDBY
  1
ezdxf
  9
$INSBASE
 10
0.0
 20
0.0
 30
0.0
  9
$EXTMIN
 10
1e+20
 20
1e+20
 30
1e+20
  9
$EXTMAX
 10
-1e+20
 20
-1e+20
 30
-1e+20
  9
$LIMMIN
 10
0.0
 20
0.0
  9
$LIMMAX
 10
420.0
 20
297.0
  9
$ORTHOMODE
 70
0
  9
$REGENMODE
 70
1
  9
$FILLMODE
 70
1
  9
$QTEXTMODE
 70
0
  9
$MIRRTEXT
 70
1
  9
$LTSCALE
 40
1.0
  9
$ATTMODE
 70
1
  9
$TEXTSIZE
 40
2.5
  9
$TRACEWID
 40
1.0
  9
$TEXTSTYLE
  7
Standard
  9
$CLAYER
  8
0
  9
$CELTYPE
  6
ByLayer
  9
$CECOLOR
 62
256
  9
$CELTSCALE
 40
1.0
  9
$DISPSILH
 70
0
  9
$DIMSCALE
 40
1.0
  9
$DIMASZ
 40
2.5
  9
$DIMEXO
 40
0.625
  9
$DIMDLI
 40
3.75
  9
$DIMRND
 40
0.0
  9
$DIMDLE
 40
0.0
  9
$DIMEXE
 40
1.25
  9
$DIMTP
 40
0.0
  9
$DIMTM
 40
0.0
  9
$DIMTXT
 40
2.5
  9
$DIMCEN
 40
2.5
  9
$DIMTSZ
 40
0.0
  9
$DIMTOL
 70
0
  9
$DIMLIM
 70
0
  9
$DIMTIH
 70
0
  9
$DIMTOH
 70
0
  9
$DIMSE1
 70
0
  9
$DIMSE2
 70
0
  9
$DIMTAD
 70
1
  9
$DIMZIN
 70
8
  9
$DIMBLK
  1

  9
$DIMASO
 70
1
  9
$DIMSHO
 70
1
  9
$DIMPOST
  1

  9
$DIMAPOST
  1

  9
$DIMALT
 70
0
  9
$DIMALTD
 70
3
  9
$DIMALTF
 40
0.03937007874
  9
$DIMLFAC
 40
1.0
  9
$DIMTOFL
 70
1
  9
$DIMTVP
 40
0.0
  9
$DIMTIX
 70
0
  9
$DIMSOXD
 70
0
  9
$DIMSAH
 70
0
  9
$DIMBLK1
  1

  9
$DIMBLK2
  1

  9
$DIMSTYLE
  2
ISO-25
  9
$DIMCLRD
 70
0
  9
$DIMCLRE
 70
0
  9
$DIMCLRT
 70
0
  9
$DIMTFAC
 40
1.0
  9
$DIMGAP
 40
0.625
  9
$DIMJUST
 70
0
  9
$DIMSD1
 70
0
  9
$DIMSD2
 70
0
  9
$DIMTOLJ
 70
0
  9
$DIMTZIN
 70
8
  9
$DIMALTZ
 70
0
  9
$DIMALTTZ
 70
0
  9
$DIMUPT
 70
0
  9
$DIMDEC
 70
2
  9
$DIMTDEC
 70
2
  9
$DIMALTU
 70
2
  9
$DIMALTTD
 70
3
  9
$DIMTXSTY
  7
Standard
  9
$DIMAUNIT
 70
0
  9
$DIMADEC
 70
0
  9
$DIMALTRND
 40
0.0
  9
$DIMAZIN
 70
0
  9
$DIMDSEP
 70
44
  9
$DIMATFIT
 70
3
  9
$DIMFRAC
 70
0
  9
$DIMLDRBLK
  1

  9
$DIMLUNIT
 70
2
  9
$DIMLWD
 70
-2
  9
$DIMLWE
 70
-2
  9
$DIMTMOVE
 70
0
  9
$DIMFXL
 40
1.0
  9
$DIMFXLON
 70
0
  9
$DIMJOGANG
 40
0.785398163397
  9
$DIMTFILL
 70
0
  9
$DIMTFILLCLR
 70
0
  9
$DIMARCSYM
 70
0
  9
$DIMLTYPE
  6

  9
$DIMLTEX1
  6

  9
$DIMLTEX2
  6

  9
$DIMTXTDIRECTION
 70
0
  9
$LUNITS
 70
2
  9
$LUPREC
 70
4
  9
$SKETCHINC
 40
1.0
  9
$FILLETRAD
 40
10.0
  9
$AUNITS
 70
0
  9
$AUPREC
 70
2
  9
$MENU
  1
.
  9
$ELEVATION
 40
0.0
  9
$PELEVATION
 40
0.0
  9
$THICKNESS
 40
0.0
  9
$LIMCHECK
 70
0
  9
$CHAMFERA
 40
0.0
  9
$CHAMFERB
 40
0.0
  9
$CHAMFERC
 40
0.0
  9
$CHAMFERD
 40
0.0
  9
$SKPOLY
 70
0
  9
$TDCREATE
 40
2461324.411712963
  9
$TDUCREATE
 40
2458532.153996898
  9
$TDUPDATE
 40
2461324.411712963
  9
$TDUUPDATE
 40
2458532.1544311
  9
$TDINDWG
 40
0.0
  9
$TDUSRTIMER
 40
0.0
  9
$USRTIMER
 70
1
  9
$ANGBASE
 50
0.0
  9
$ANGDIR
 70
0
  9
$PDMODE
 70
0
  9
$PDSIZE
 40
0.0
  9
$PLINEWID
 40
0.0
  9
$SPLFRAME
 70
0
  9
$SPLINETYPE
 70
6
  9
$SPLINESEGS
 70
8
  9
$HANDSEED
  5
CA
  9
$SURFTAB1
 70
6
  9
$SURFTAB2
 70
6
  9
$SURFTYPE
 70
6
  9
$SURFU
 70
6
  9
$SURFV
 70
6
  9
$UCSBASE
  2

  9
$UCSNAME
  2

  9
$UCSORG
 10
0.0
 20
0.0
 30
0.0
  9
$UCSXDIR
 10
1.0
 20
0.0
 30
0.0
  9
$UCSYDIR
 10
0.0
 20
1.0
 30
0.0
  9
$UCSORTHOREF
  2

  9
$UCSORTHOVIEW
 70
0
  9
$UCSORGTOP
 10
0.0
 20
0.0
 30
0.0
  9
$UCSORGBOTTOM
 10
0.0
 20
0.0
 30
0.0
  9
$UCSORGLEFT
 10
0.0
 20
0.0
 30
0.0
  9
$UCSORGRIGHT
 10
0.0
 20
0.0
 30
0.0
  9
$UCSORGFRONT
 10
0.0
 20
0.0
 30
0.0
  9
$UCSORGBACK
 10
0.0
 20
0.0
 30
0.0
  9
$PUCSBASE
  2

  9
$PUCSNAME
  2

  9
$PUCSORG
 10
0.0
 20
0.0
 30
0.0
  9
$PUCSXDIR
 10
1.0
 20
0.0
 30
0.0
  9
$PUCSYDIR
 10
0.0
 20
1.0
 30
0.0
  9
$PUCSORTHOREF
  2

  9
$PUCSORTHOVIEW
 70
0
  9
$PUCSORGTOP
 10
0.0
 20
0.0
 30
0.0
  9
$PUCSORGBOTTOM
 10
0.0
 20
0.0
 30
0.0
  9
$PUCSORGLEFT
 10
0.0
 20
0.0
 30
0.0
  9
$PUCSORGRIGHT
 10
0.0
 20
0.0
 30
0.0
  9
$PUCSORGFRONT
 10
0.0
 20
0.0
 30
0.0
  9
$PUCSORGBACK
 10
0.0
 20
0.0
 30
0.0
  9
$USERI1
 70
0
  9
$USERI2
 70
0
  9
$USERI3
 70
0
  9
$USERI4
 70
0
  9
$USERI5
 70
0
  9
$USERR1
 40
0.0
  9
$USERR2
 40
0.0
  9
$USERR3
 40
0.0
  9
$USERR4
 40
0.0
  9
$USERR5
 40
0.0
  9
$WORLDVIEW
 70
1
  9
$SHADEDGE
 70
3
  9
$SHADEDIF
 70
70
  9
$TILEMODE
 70
1
  9
$MAXACTVP
 70
64
  9
$PINSBASE
 10
0.0
 20
0.0
 30
0.0
  9
$PLIMCHECK
 70
0
  9
$PEXTMIN
 10
1e+20
 20
1e+20
 30
1e+20
  9
$PEXTMAX
 10
-1e+20
 20
-1e+20
 30
-1e+20
  9
$PLIMMIN
 10
0.0
 20
0.0
  9
$PLIMMAX
 10
420.0
 20
297.0
  9
$UNITMODE
 70
0
  9
$VISRETAIN
 70
1
  9
$PLINEGEN
 70
0
  9
$PSLTSCALE
 70
1
  9
$TREEDEPTH
 70
3020
  9
$CMLSTYLE
  2
Standard
  9
$CMLJUST
 70
0
  9
$CMLSCALE
 40
20.0
  9
$PROXYGRAPHICS
 70
1
  9
$MEASUREMENT
 70
1
  9
$CELWEIGHT
370
-1
  9
$ENDCAPS
280
0
  9
$JOINSTYLE
280
0
  9
$LWDISPLAY
290
0
  9
$INSUNITS
 70
5
  9
$HYPERLINKBASE
  1

  9
$STYLESHEET
  1

  9
$XEDIT
290
1
  9
$CEPSNTYPE
380
0
  9
$PSTYLEMODE
290
1
  9
$FINGERPRINTGUID
  2
{46F730EC-F1EF-4652-B1FD-AA7430BDFD1A}
  9
$VERSIONGUID
  2
{05278A32-C25D-4CEB-86BF-4F9908878A22}
  9
$EXTNAMES
290
1
  9
$PSVPSCALE
 40
0.0
  9
$OLESTARTUP
290
0
  9
$SORTENTS
280
127
  9
$INDEXCTL
280
0
  9
$HIDETEXT
280
1
  9
$XCLIPFRAME
280
1
  9
$HALOGAP
280
0
  9
$OBSCOLOR
 70
257
  9
$OBSLTYPE
280
0
  9
$INTERSECTIONDISPLAY
280
0
  9
$INTERSECTIONCOLOR
 70
257
  9
$DIMASSOC
280
2
  9
$PROJECTNAME
  1

  9
$CAMERADISPLAY
290
0
  9
$LENSLENGTH
 40
50.0
  9
$CAMERAHEIGHT
 40
0.0
  9
$STEPSPERSEC
 40
24.0
  9
$STEPSIZE
 40
100.0
  9
$3DDWFPREC
 40
2.0
  9
$PSOLWIDTH
 40
0.005
  9
$PSOLHEIGHT
 40
0.08
  9
$LOFTANG1
 40
1.570796326795
  9
$LOFTANG2
 40
1.570796326795
  9
$LOFTMAG1
 40
0.0
  9
$LOFTMAG2
 40
0.0
  9
$LOFTPARAM
 70
7
  9
$LOFTNORMALS
280
1
  9
$LATITUDE
 40
37.795
  9
$LONGITUDE
 40
-122.394
  9
$NORTHDIRECTION
 40
0.0
  9
$TIMEZONE
 70
-8000
  9
$LIGHTGLYPHDISPLAY
280
1
  9
$TILEMODELIGHTSYNCH
280
1
  9
$CMATERIAL
347
20
  9
$SOLIDHIST
280
0
  9
$SHOWHIST
280
1
  9
$DWFFRAME
280
2
  9
$DGNFRAME
280
2
  9
$REALWORLDSCALE
290
1
  9
$INTERFERECOLOR
 62
256
  9
$CSHADOW
280
0
  9
$SHADOWPLANELOCATION
 40
0.0
  0
ENDSEC
  0
SECTION
  2
CLASSES
  0
CLASS
  1
ACDBDICTIONARYWDFLT
  2
AcDbDictionaryWithDefault
  3
ObjectDBX Classes
 90
0
 91
0
280
0
281
0
  0
CLASS
  1
SUN
  2
AcDbSun
  3
SCENEOE
 90
1153
 91
0
280
0
281
0
  0
CLASS
  1
VISUALSTYLE
  2
AcDbVisualStyle
  3
ObjectDBX Classes
 90
4095
 91
0
280
0
281
0
  0
CLASS
  1
MATERIAL
  2
AcDbMaterial
  3
ObjectDBX Classes
 90
1153
 91
0
280
0
281
0
  0
CLASS
  1
SCALE
  2
AcDbScale
  3
ObjectDBX Classes
 90
1153
 91
0
280
0
281
0
  0
CLASS
  1
TABLESTYLE
  2
AcDbTableStyle
  3
ObjectDBX Classes
 90
4095
 91
0
280
0
281
0
  0
CLASS
  1
MLEADERSTYLE
  2
AcDbMLeaderStyle
  3
ACDB_MLEADERSTYLE_CLASS
 90
4095
 91
0
280
0
281
0
  0
CLASS
  1
DICTIONARYVAR
  2
AcDbDictionaryVar
  3
ObjectDBX Classes
 90
0
 91
0
280
0
281
0
  0
CLASS
  1
CELLSTYLEMAP
  2
AcDbCellStyleMap
  3
ObjectDBX Classes
 90
1152
 91
0
280
0
281
0
  0
CLASS
  1
MENTALRAYRENDERSETTINGS
  2
AcDbMentalRayRenderSettings
  3
SCENEOE
 90
1024
 91
0
280
0
281
0
  0
CLASS
  1
ACDBDETAILVIEWSTYLE
  2
AcDbDetailViewStyle
  3
ObjectDBX Classes
 90
1025
 91
0
280
0
281
0
  0
CLASS
  1
ACDBSECTIONVIEWSTYLE
  2
AcDbSectionViewStyle
  3
ObjectDBX Classes
 90
1025
 91
0
280
0
281
0
  0
CLASS
  1
RASTERVARIABLES
  2
AcDbRasterVariables
  3
ISM
 90
0
 91
0
280
0
281
0
  0
CLASS
  1
ACDBPLACEHOLDER
  2
AcDbPlaceHolder
  3
ObjectDBX Classes
 90
0
 91
0
280
0
281
0
  0
CLASS
  1
LAYOUT
  2
AcDbLayout
  3
ObjectDBX Classes
 90
0
 91
0
280
0
281
0
  0
ENDSEC
  0
SECTION
  2
TABLES
  0
TABLE
  2
VPORT
  5
8
330
0
100
AcDbSymbolTable
 70
1
  0
VPORT
  5
23
330
8
100
AcDbSymbolTableRecord
100
AcDbViewportTableRecord
  2
*Active
 70
0
 10
0.0
 20
0.0
 11
1.0
 21
1.0
 12
0.0
 22
0.0
 13
0.0
 23
0.0
 14
0.5
 24
0.5
 15
0.5
 25
0.5
 16
0.0
 26
0.0
 36
1.0
 17
0.0
 27
0.0
 37
0.0
 40
1000.0
 41
1.34
 42
50.0
 43
0.0
 44
0.0
 50
0.0
 51
0.0
 71
0
 72
1000
 73
1
 74
3
 75
0
 76
0
 77
0
 78
0
281
0
 65
0
146
0.0
  0
ENDTAB
  0
TABLE
  2
LTYPE
  5
2
330
0
100
AcDbSymbolTable
 70
4
  0
LTYPE
  5
24
330
2
100
AcDbSymbolTableRecord
100
AcDbLinetypeTableRecord
  2
ByBlock
 70
0
  3

 72
65
 73
0
 40
0.0
  0
LTYPE
  5
25
330
2
100
AcDbSymbolTableRecord
100
AcDbLinetypeTableRecord
  2
ByLayer
 70
0
  3

 72
65
 73
0
 40
0.0
  0
LTYPE
  5
26
330
2
100
AcDbSymbolTableRecord
100
AcDbLinetypeTableRecord
  2
Continuous
 70
0
  3

 72
65
 73
0
 40
0.0
  0
LTYPE
  5
2F
330
2
100
AcDbSymbolTableRecord
100
AcDbLinetypeTableRecord
  2
DASHED
 70
0
  3
Dashed
 72
65
 73
2
 40
0.6
 49
0.5
 74
0
 49
-0.1
 74
0
  0
ENDTAB
  0
TABLE
  2
LAYER
  5
1
330
0
100
AcDbSymbolTable
 70
10
  0
LAYER
  5
27
330
1
100
AcDbSymbolTableRecord
100
AcDbLayerTableRecord
  2
0
 70
0
 62
7
  6
Continuous
370
-3
390
13
347
21
  0
LAYER
  5
28
330
1
100
AcDbSymbolTableRecord
100
AcDbLayerTableRecord
  2
Defpoints
 70
0
 62
7
  6
Continuous
290
0
370
-3
390
13
347
21
  0
LAYER
  5
30
330
1
100
AcDbSymbolTableRecord
100
AcDbLayerTableRecord
  2
CUT_LINE
 70
0
 62
7
  6
Continuous
370
-3
390
13
347
21
  0
LAYER
  5
31
330
1
100
AcDbSymbolTableRecord
100
AcDbLayerTableRecord
  2
STITCH_LINE
 70
0
 62
3
  6
Continuous
370
-3
390
13
347
21
  0
LAYER
  5
32
330
1
100
AcDbSymbolTableRecord
100
AcDbLayerTableRecord
  2
NOTCH
 70
0
 62
1
  6
Continuous
370
-3
390
13
347
21
  0
LAYER
  5
33
330
1
100
AcDbSymbolTableRecord
100
AcDbLayerTableRecord
  2
GRAINLINE
 70
0
 62
5
  6
Continuous
370
-3
390
13
347
21
  0
LAYER
  5
34
330
1
100
AcDbSymbolTableRecord
100
AcDbLayerTableRecord
  2
LABEL
 70
0
 62
8
  6
Continuous
370
-3
390
13
347
21
  0
LAYER
  5
35
330
1
100
AcDbSymbolTableRecord
100
AcDbLayerTableRecord
  2
LABEL_ID
 70
0
 62
8
  6
Continuous
370
-3
390
13
347
21
  0
LAYER
  5
36
330
1
100
AcDbSymbolTableRecord
100
AcDbLayerTableRecord
  2
WARNING
 70
0
 62
1
  6
Continuous
370
-3
390
13
347
21
  0
LAYER
  5
37
330
1
100
AcDbSymbolTableRecord
100
AcDbLayerTableRecord
  2
REFERENCE_LINE
 70
0
 62
6
  6
Continuous
370
-3
390
13
347
21
  0
ENDTAB
  0
TABLE
  2
STYLE
  5
5
330
0
100
AcDbSymbolTable
 70
1
  0
STYLE
  5
29
330
5
100
AcDbSymbolTableRecord
100
AcDbTextStyleTableRecord
  2
Standard
 70
0
 40
0.0
 41
1.0
 50
0.0
 71
0
 42
2.5
  3
txt
  4

  0
ENDTAB
  0
TABLE
  2
VIEW
  5
7
330
0
100
AcDbSymbolTable
 70
0
  0
ENDTAB
  0
TABLE
  2
UCS
  5
6
330
0
100
AcDbSymbolTable
 70
0
  0
ENDTAB
  0
TABLE
  2
APPID
  5
3
330
0
100
AcDbSymbolTable
 70
3
  0
APPID
  5
2A
330
3
100
AcDbSymbolTableRecord
100
AcDbRegAppTableRecord
  2
ACAD
 70
0
  0
APPID
  5
C7
330
3
100
AcDbSymbolTableRecord
100
AcDbRegAppTableRecord
  2
HATCHBACKGROUNDCOLOR
 70
0
  0
APPID
  5
C8
330
3
100
AcDbSymbolTableRecord
100
AcDbRegAppTableRecord
  2
EZDXF
 70
0
  0
ENDTAB
  0
TABLE
  2
DIMSTYLE
  5
4
330
0
100
AcDbSymbolTable
 70
1
100
AcDbDimStyleTable
  0
DIMSTYLE
105
2B
330
4
100
AcDbSymbolTableRecord
100
AcDbDimStyleTableRecord
  2
Standard
 70
0
 40
1.0
 41
2.5
 42
0.625
 43
3.75
 44
1.25
 45
0.0
 46
0.0
 47
0.0
 48
0.0
 49
2.5
140
2.5
141
2.5
142
0.0
143
0.03937007874
144
1.0
145
0.0
146
1.0
147
0.625
148
0.0
 69
0
 70
0
 71
0
 72
0
 73
0
 74
0
 75
0
 76
0
 77
1
 78
8
 79
3
170
0
171
3
172
1
173
0
174
0
175
0
176
0
177
0
178
0
179
2
271
2
272
2
273
2
274
3
275
0
276
0
277
2
278
44
279
0
280
0
281
0
282
0
283
0
284
8
285
0
286
0
288
0
289
3
290
0
371
-2
372
-2
  0
ENDTAB
  0
TABLE
  2
BLOCK_RECORD
  5
9
330
0
100
AcDbSymbolTable
 70
2
  0
BLOCK_RECORD
  5
17
330
9
100
AcDbSymbolTableRecord
100
AcDbBlockTableRecord
  2
*Model_Space
340
1A
 70
0
280
1
281
0
  0
BLOCK_RECORD
  5
1B
330
9
100
AcDbSymbolTableRecord
100
AcDbBlockTableRecord
  2
*Paper_Space
340
1E
 70
0
280
1
281
0
  0
ENDTAB
  0
ENDSEC
  0
SECTION
  2
BLOCKS
  0
BLOCK
  5
18
330
17
100
AcDbEntity
  8
0
100
AcDbBlockBegin
  2
*Model_Space
 70
0
 10
0.0
 20
0.0
 30
0.0
  3
*Model_Space
  1

  0
ENDBLK
  5
19
330
17
100
AcDbEntity
  8
0
100
AcDbBlockEnd
  0
BLOCK
  5
1C
330
1B
100
AcDbEntity
  8
0
100
AcDbBlockBegin
  2
*Paper_Space
 70
0
 10
0.0
 20
0.0
 30
0.0
  3
*Paper_Space
  1

  0
ENDBLK
  5
1D
330
1B
100
AcDbEntity
  8
0
100
AcDbBlockEnd
  0
ENDSEC
  0
SECTION
  2
ENTITIES
  0
LWPOLYLINE
  5
38
330
17
100
AcDbEntity
  8
CUT_LINE
100
AcDbPolyline
 90
113
 70
1
 10
52.481743254386515
 20
62.91643962326272
 10
53.37861039923901
 20
61.254024822165476
 10
53.691523489749365
 20
60.60454683522062
 10
53.96287068755029
 20
59.96518456374841
 10
54.19409592731012
 20
59.335744789364625
 10
54.38663706087433
 20
58.71595788322692
 10
54.541908893045274
 20
58.10547718115539
 10
54.66128526039003
 20
57.50388397069439
 10
54.7460820021325
 20
56.91069851953006
 10
54.79754286044346
 20
56.32539674438789
 10
54.81683016182307
 20
55.74743122401303
 10
54.80502155781555
 20
55.176254509268375
 10
54.763113243755015
 20
54.61134227484915
 10
54.69202912341881
 20
54.052213902795245
 10
54.592634569741385
 20
53.49844857189008
 10
54.46575292448823
 20
52.9496957121728
 10
54.31218275885089
 20
52.40567956578943
 10
54.13271414623307
 20
51.86619837518123
 10
53.928142661606785
 20
51.331119261921685
 10
53.69928037400496
 20
50.80037011688742
 10
53.446963614427816
 20
50.27392982430672
 10
53.17205770117196
 20
49.75181796363387
 10
52.87545905897761
 20
49.234084860956955
 10
52.55809528674834
 20
48.7208025698163
 10
52.22092374179018
 20
48.212057099787984
 10
51.86492915366537
 20
47.70794200516826
 10
51.49112069116525
 20
47.208553301531225
 10
51.10052880646781
 20
46.7139855888411
 10
50.69756450254687
 20
46.228381195719805
 10
49.83803074219476
 20
45.2596614350484
 10
48.7495998923279
 20
44.125442262060716
 10
47.21421887922402
 20
38.782958092438946
 10
56.396120998795965
 20
40.6344499788311
 10
49.54858065240194
 20
36.04463587117067
 10
49.356731892541255
 20
24.85379131720532
 10
47.55303359416897
 20
3.8024768942308924
 10
97.23172346841639
 20
3.8024768942308924
 10
95.42802517393139
 20
24.853791271836087
 10
95.23617641002936
 20
36.044635871273954
 10
88.3886360637894
 20
40.6344499788311
 10
97.57053818336135
 20
38.782958092438946
 10
96.03515717025746
 20
44.125442262060716
 10
94.94672632039061
 20
45.2596614350484
 10
94.08719256003855
 20
46.22838119571975
 10
93.6842282561175
 20
46.713985588841155
 10
93.29363637142016
 20
47.20855330153117
 10
92.91982790891997
 20
47.70794200516829
 10
92.56383332079527
 20
48.21205709978787
 10
92.22666177583699
 20
48.72080256981636
 10
91.90929800360769
 20
49.23408486095707
 10
91.61269936141342
 20
49.75181796363387
 10
91.33779344815758
 20
50.27392982430666
 10
91.08547668858046
 20
50.800370116887365
 10
90.85661440097857
 20
51.33111926192174
 10
90.6520429163523
 20
51.86619837518123
 10
90.47257430373449
 20
52.40567956578937
 10
90.31900413809711
 20
52.94969571217288
 10
90.19212249284399
 20
53.49844857189005
 10
90.09272793916656
 20
54.05221390279526
 10
90.02164381883036
 20
54.61134227484915
 10
89.97973550476982
 20
55.17625450926832
 10
89.9679269007623
 20
55.74743122401304
 10
89.98721420214193
 20
56.325396744387874
 10
90.03867506045287
 20
56.91069851953014
 10
90.12347180219533
 20
57.50388397069432
 10
90.24284816954008
 20
58.105477181155365
 10
90.39812000171104
 20
58.71595788322689
 10
90.59066113527524
 20
59.33574478936461
 10
90.82188637503509
 20
59.96518456374844
 10
91.09323357283604
 20
60.60454683522072
 10
91.40614666334633
 20
61.25402482216545
 10
92.30301380819887
 20
62.91643962326272
 10
78.53672083944812
 20
68.47838301516813
 10
78.06753641712399
 20
66.42337920550081
 10
77.82854485979266
 20
65.6027197673422
 10
77.55561874532553
 20
64.84473308213188
 10
77.25214762563496
 20
64.14915161312169
 10
76.92155892507444
 20
63.515587390889664
 10
76.56729899653476
 20
62.94350402121111
 10
76.19280253060623
 20
62.43218768344613
 10
75.80144726811835
 20
61.980720824906854
 10
75.39649187050142
 20
61.587964545908335
 10
74.98099719055054
 20
61.252558120723876
 10
74.55773554257613
 20
60.97294583072801
 10
74.11753711911734
 20
60.741358239745566
 10
73.91354792703625
 20
60.65339140961515
 10
73.69716122423756
 20
60.57325529201334
 10
73.48028264327104
 20
60.50581914316744
 10
73.26304751645709
 20
60.45090721580003
 10
73.04556390928259
 20
60.40836696052176
 10
72.82791629206972
 20
60.3780739176063
 10
72.61017031814819
 20
60.35993591316972
 10
72.39237853129268
 20
60.35389628466308
 10
72.17458674443718
 20
60.35993591316972
 10
71.95684077051565
 20
60.3780739176063
 10
71.73919315330278
 20
60.40836696052176
 10
71.52170954612828
 20
60.45090721580003
 10
71.30447441931433
 20
60.50581914316744
 10
71.0875958383478
 20
60.57325529201334
 10
70.87120913554912
 20
60.65339140961515
 10
70.66721994346801
 20
60.741358239745566
 10
70.22702152000925
 20
60.97294583072801
 10
69.80375987203482
 20
61.252558120723876
 10
69.38826519208394
 20
61.587964545908335
 10
68.98330979446702
 20
61.980720824906854
 10
68.59195453197914
 20
62.43218768344613
 10
68.2174580660506
 20
62.94350402121111
 10
67.86319813751093
 20
63.515587390889664
 10
67.5326094369504
 20
64.14915161312169
 10
67.22913831725984
 20
64.84473308213188
 10
66.95621220279271
 20
65.6027197673422
 10
66.71722064546137
 20
66.42337920550081
 10
66.24803622313723
 20
68.47838301516813
  0
LWPOLYLINE
  5
39
330
17
100
AcDbEntity
  8
STITCH_LINE
  6
DASHED
100
AcDbPolyline
 90
116
 70
1
 10
53.892378531292685
 20
62.407838527543475
 10
54.269568382012295
 20
61.70868704868863
 10
54.60275030966094
 20
61.01713934992438
 10
54.89303476879913
 20
60.33315612595227
 10
55.1415322139874
 20
59.65669807147381
 10
55.34935309978624
 20
58.98772588119054
 10
55.5176078807562
 20
58.326200249804
 10
55.64740701145779
 20
57.67208187201571
 10
55.739860946451515
 20
57.025331442527204
 10
55.7960801402979
 20
56.38590965604001
 10
55.81717504755747
 20
55.75377720725565
 10
55.80425612279075
 20
55.12889479087568
 10
55.75843382055823
 20
54.5112231016016
 10
55.68081859542046
 20
53.90072283413495
 10
55.57252090193794
 20
53.297354683177275
 10
55.4346511946712
 20
52.70107934343008
 10
55.268319928180745
 20
52.11185750959493
 10
55.07463755702711
 20
51.52964987637333
 10
54.8547145357708
 20
50.954417138466795
 10
54.60966131897234
 20
50.3861199905769
 10
54.34058836119225
 20
49.82471912740513
 10
54.04860611699105
 20
49.27017524365303
 10
53.73482504092925
 20
48.72244903402216
 10
53.40035558756738
 20
48.18150119321402
 10
53.04630821146595
 20
47.64729241593014
 10
52.67379336718548
 20
47.119783396872066
 10
52.28392150928649
 20
46.598934830741314
 10
51.8778030923295
 20
46.084707412239425
 10
51.45654857087503
 20
45.57706183606791
 10
50.57307303271571
 20
44.58135898952219
 10
49.642378531292685
 20
43.61151184871636
 10
48.62991294052076
 20
40.08855478149894
 10
61.14173922144143
 20
42.61151184871636
 10
50.539475681670226
 20
35.50495733332724
 10
50.355999127262514
 20
24.80247689423092
 10
50.355999123362785
 20
24.802476848716367
 10
48.642378531292685
 20
4.802476894230921
 10
96.14237853129268
 20
4.802476894230921
 10
94.42875793922258
 20
24.802476848716367
 10
94.42875793532285
 20
24.80247689423092
 10
94.24528138091515
 20
35.50495733332724
 10
83.64301784114393
 20
42.61151184871636
 10
96.15484412206462
 20
40.08855478149894
 10
95.14237853129268
 20
43.61151184871636
 10
94.21168402986966
 20
44.58135898952219
 10
93.32820849171034
 20
45.57706183606791
 10
92.90695397025587
 20
46.084707412239425
 10
92.50083555329888
 20
46.598934830741314
 10
92.1109636953999
 20
47.119783396872066
 10
91.73844885111941
 20
47.64729241593014
 10
91.384401475018
 20
48.18150119321402
 10
91.0499320216561
 20
48.72244903402216
 10
90.73615094559432
 20
49.27017524365303
 10
90.44416870139312
 20
49.82471912740513
 10
90.17509574361304
 20
50.3861199905769
 10
89.93004252681456
 20
50.954417138466795
 10
89.71011950555825
 20
51.52964987637333
 10
89.51643713440461
 20
52.11185750959493
 10
89.35010586791418
 20
52.70107934343008
 10
89.21223616064742
 20
53.297354683177275
 10
89.10393846716491
 20
53.90072283413495
 10
89.02632324202713
 20
54.5112231016016
 10
88.98050093979464
 20
55.12889479087568
 10
88.96758201502789
 20
55.75377720725565
 10
88.98867692228748
 20
56.38590965604001
 10
89.04489611613386
 20
57.025331442527204
 10
89.13735005112758
 20
57.67208187201571
 10
89.26714918182915
 20
58.326200249804
 10
89.43540396279911
 20
58.98772588119054
 10
89.64322484859798
 20
59.65669807147381
 10
89.89172229378624
 20
60.33315612595227
 10
90.18200675292442
 20
61.01713934992438
 10
90.51518868057306
 20
61.70868704868863
 10
90.89237853129268
 20
62.407838527543475
 10
79.25037853129268
 20
67.11151184871636
 10
79.0358907993591
 20
66.17206653621636
 10
78.77995714457393
 20
65.29323059871636
 10
78.48534062846065
 20
64.47500403621636
 10
78.15480431254268
 20
63.71738684871637
 10
77.79111125834346
 20
63.02037903621637
 10
77.39702452738644
 20
62.38398059871636
 10
76.97530718119503
 20
61.80819153621637
 10
76.52872228129269
 20
61.29301184871636
 10
76.06003288920283
 20
60.838441536216365
 10
75.57200206644893
 20
60.44448059871637
 10
75.0673928745544
 20
60.11112903621637
 10
74.54896837504268
 20
59.83838684871637
 10
74.28543884165646
 20
59.72474427059137
 10
74.01949162943723
 20
59.626254036216366
 10
73.75147212107541
 20
59.54291614559136
 10
73.48172569926143
 20
59.47473059871636
 10
73.21059774668575
 20
59.421697395591366
 10
72.93843364603877
 20
59.38381653621637
 10
72.66557878001095
 20
59.36108802059137
 10
72.39237853129268
 20
59.353511848716366
 10
72.11917828257442
 20
59.36108802059137
 10
71.8463234165466
 20
59.38381653621637
 10
71.57415931589962
 20
59.421697395591366
 10
71.30303136332392
 20
59.47473059871636
 10
71.03328494150998
 20
59.54291614559136
 10
70.76526543314816
 20
59.626254036216366
 10
70.49931822092891
 20
59.72474427059137
 10
70.23578868754268
 20
59.83838684871637
 10
69.71736418803097
 20
60.11112903621637
 10
69.21275499613643
 20
60.44448059871637
 10
68.72472417338253
 20
60.838441536216365
 10
68.25603478129268
 20
61.29301184871636
 10
67.80944988139035
 20
61.80819153621637
 10
67.38773253519894
 20
62.38398059871636
 10
66.99364580424191
 20
63.02037903621637
 10
66.62995275004269
 20
63.71738684871637
 10
66.29941643412471
 20
64.47500403621636
 10
66.00479991801143
 20
65.29323059871636
 10
65.74886626322628
 20
66.17206653621636
 10
65.53437853129267
 20
67.11151184871636
 10
53.892378531292685
 20
62.407838527543475
  0
LWPOLYLINE
  5
3A
330
17
100
AcDbEntity
  8
STITCH_LINE
  6
DASHED
100
AcDbPolyline
 90
4
 70
1
 10
62.476007799479106
 20
36.80247689423092
 10
64.11707524573613
 20
24.80247689423092
 10
62.476007799479106
 20
12.80247689423092
 10
60.83494035322209
 20
24.80247689423092
  0
LWPOLYLINE
  5
3B
330
17
100
AcDbEntity
  8
STITCH_LINE
  6
DASHED
100
AcDbPolyline
 90
4
 70
1
 10
82.30874926310625
 20
36.80247689423092
 10
83.94981670936328
 20
24.80247689423092
 10
82.30874926310625
 20
12.80247689423092
 10
80.66768181684924
 20
24.80247689423092
  0
LWPOLYLINE
  5
3C
330
17
100
AcDbEntity
  8
REFERENCE_LINE
  6
DASHED
100
AcDbPolyline
 90
2
 70
0
 10
50.042378531292684
 20
43.61151184871636
 10
94.74237853129269
 20
43.61151184871636
  0
LWPOLYLINE
  5
3D
330
17
100
AcDbEntity
  8
REFERENCE_LINE
  6
DASHED
100
AcDbPolyline
 90
2
 70
0
 10
50.75599912726251
 20
24.80247689423092
 10
94.02875793532286
 20
24.80247689423092
  0
LWPOLYLINE
  5
3E
330
17
100
AcDbEntity
  8
REFERENCE_LINE
  6
DASHED
100
AcDbPolyline
 90
2
 70
0
 10
49.04246421232248
 20
4.803476894230926
 10
95.74229285026288
 20
4.803476894230926
  0
LWPOLYLINE
  5
3F
330
17
100
AcDbEntity
  8
REFERENCE_LINE
  6
DASHED
100
AcDbPolyline
 90
2
 70
0
 10
72.39237853129268
 20
66.71151184871637
 10
72.39237853129268
 20
5.2024768942309265
  0
LWPOLYLINE
  5
40
330
17
100
AcDbEntity
  8
REFERENCE_LINE
  6
DASHED
100
AcDbPolyline
 90
2
 70
0
 10
62.40487853129268
 20
43.61151184871636
 10
64.40487853129268
 20
43.61151184871636
  0
LWPOLYLINE
  5
41
330
17
100
AcDbEntity
  8
REFERENCE_LINE
  6
DASHED
100
AcDbPolyline
 90
2
 70
0
 10
63.40487853129268
 20
44.61151184871636
 10
63.40487853129268
 20
42.61151184871636
  0
LWPOLYLINE
  5
42
330
17
100
AcDbEntity
  8
REFERENCE_LINE
  6
DASHED
100
AcDbPolyline
 90
2
 70
0
 10
80.37987853129269
 20
43.61151184871636
 10
82.37987853129269
 20
43.61151184871636
  0
LWPOLYLINE
  5
43
330
17
100
AcDbEntity
  8
REFERENCE_LINE
  6
DASHED
100
AcDbPolyline
 90
2
 70
0
 10
81.37987853129269
 20
44.61151184871636
 10
81.37987853129269
 20
42.61151184871636
  0
LINE
  5
44
330
17
100
AcDbEntity
  8
NOTCH
100
AcDbLine
 10
50.10831875607498
 20
21.911751003446852
 30
0.0
 11
49.111969288188845
 21
21.99711925189453
 31
0.0
  0
LINE
  5
45
330
17
100
AcDbEntity
  8
NOTCH
100
AcDbLine
 10
94.67643830651039
 20
21.91175100344688
 30
0.0
 11
95.67278777439653
 21
21.99711925189453
 31
0.0
  0
LINE
  5
46
330
17
100
AcDbEntity
  8
NOTCH
100
AcDbLine
 10
54.991792564003845
 20
51.31295972776408
 30
0.0
 11
54.05773048758273
 21
51.67007040723459
 31
0.0
  0
LINE
  5
47
330
17
100
AcDbEntity
  8
NOTCH
100
AcDbLine
 10
89.79296449858153
 20
51.31295972776408
 30
0.0
 11
90.72702657500264
 21
51.67007040723459
 31
0.0
  0
LINE
  5
48
330
17
100
AcDbEntity
  8
GRAINLINE
100
AcDbLine
 10
64.90720187019953
 20
61.893664898589236
 30
0.0
 11
64.90720187019953
 21
9.766928025044677
 31
0.0
  0
LINE
  5
49
330
17
100
AcDbEntity
  8
GRAINLINE
100
AcDbLine
 10
63.40720187019953
 20
60.393664898589236
 30
0.0
 11
64.90720187019953
 21
61.893664898589236
 31
0.0
  0
LINE
  5
4A
330
17
100
AcDbEntity
  8
GRAINLINE
100
AcDbLine
 10
66.40720187019953
 20
60.393664898589236
 30
0.0
 11
64.90720187019953
 21
61.893664898589236
 31
0.0
  0
LINE
  5
4B
330
17
100
AcDbEntity
  8
GRAINLINE
100
AcDbLine
 10
63.40720187019953
 20
11.266928025044677
 30
0.0
 11
64.90720187019953
 21
9.766928025044677
 31
0.0
  0
LINE
  5
4C
330
17
100
AcDbEntity
  8
GRAINLINE
100
AcDbLine
 10
66.40720187019953
 20
11.266928025044677
 30
0.0
 11
64.90720187019953
 21
9.766928025044677
 31
0.0
  0
TEXT
  5
4D
330
17
100
AcDbEntity
  8
LABEL
100
AcDbText
 10
72.39237853129268
 20
36.14042995469953
 30
0.0
 40
0.9
  1
前身頃（ラウンドネック） [ダーツ4本]
 72
1
 11
72.39237853129268
 21
36.14042995469953
 31
0.0
100
AcDbText
 73
2
  0
TEXT
  5
4E
330
17
100
AcDbEntity
  8
LABEL_ID
100
AcDbText
 10
72.39237853129268
 20
34.940429954699525
 30
0.0
 40
0.55
  1
front_bodice(round_neck) [ダーツ4本]
 72
1
 11
72.39237853129268
 21
34.940429954699525
 31
0.0
100
AcDbText
 73
2
  0
LWPOLYLINE
  5
4F
330
17
100
AcDbEntity
  8
CUT_LINE
100
AcDbPolyline
 90
87
 70
1
 10
102.06608244458653
 20
64.47232873633516
 10
102.51788040651806
 20
62.84731596042961
 10
102.67446749984224
 20
62.172618476118814
 10
102.79956634792602
 20
61.50435744045811
 10
102.8944974191756
 20
60.842310785901006
 10
102.96054261116578
 20
60.18626231670822
 10
102.99894758728038
 20
59.53601000830237
 10
103.01092580129223
 20
58.89137312357036
 10
102.99766378225695
 20
58.252197736160426
 10
102.9603271764808
 20
57.61836043941052
 10
102.90006703809277
 20
56.989770210026265
 10
102.81802591456297
 20
56.36636855995825
 10
102.71534336939796
 20
55.74812822979109
 10
102.59316069938025
 20
55.13505074536832
 10
102.45262471840364
 20
54.52716317929632
 10
102.29489057977179
 20
53.924514440060406
 10
102.12112368569657
 20
53.32717136639883
 10
101.93250078433115
 20
52.73521484585555
 10
101.73185918545191
 20
52.153516309766445
 10
101.28899477948175
 20
50.99185390614167
 10
100.80810966267869
 20
49.858853068105304
 10
100.29696390937018
 20
48.749762762055695
 10
99.76554129907511
 20
47.66529007811283
 10
99.22419969599405
 20
46.60658656682591
 10
98.03172352182965
 20
44.33847221725475
 10
98.29401450162392
 20
29.622525194449537
 10
96.97123303861882
 20
8.599999999999994
 10
146.6010325213086
 20
8.599999999999994
 10
145.2782510583035
 20
29.622525194449537
 10
145.54054203809778
 20
44.33847221725475
 10
144.34806586393347
 20
46.60658656682574
 10
143.80672426085226
 20
47.665290078112946
 10
143.2753016505572
 20
48.74976276205584
 10
142.7641558972488
 20
49.85885306810519
 10
142.28327078044566
 20
50.9918539061417
 10
141.8404063744755
 20
52.1535163097665
 10
141.63976477559623
 20
52.73521484585561
 10
141.45114187423093
 20
53.32717136639863
 10
141.2773749801556
 20
53.92451444006056
 10
141.11964084152382
 20
54.52716317929621
 10
140.97910486054715
 20
55.135050745368474
 10
140.8569221905295
 20
55.74812822979099
 10
140.75423964536446
 20
56.36636855995833
 10
140.67219852183467
 20
56.98977021002625
 10
140.61193838344664
 20
57.61836043941038
 10
140.57460177767047
 20
58.25219773616058
 10
140.5613397586352
 20
58.89137312357036
 10
140.57331797264703
 20
59.53601000830221
 10
140.61172294876167
 20
60.18626231670828
 10
140.67776814075182
 20
60.84231078590095
 10
140.7726992120014
 20
61.504357440458165
 10
140.89779806008517
 20
62.17261847611874
 10
141.05438515340938
 20
62.84731596042961
 10
141.5061831153409
 20
64.47232873633516
 10
128.2535107511936
 20
68.77838301516813
 10
127.64799486197117
 20
67.92382531353861
 10
127.46736096790477
 20
67.72396505008427
 10
127.2472347941799
 20
67.52697922722497
 10
126.98784500507189
 20
67.33540798550811
 10
126.69069953438608
 20
67.15191538503512
 10
126.35817909911295
 20
66.97889294411794
 10
125.99318647851307
 20
66.81831982935776
 10
125.59889977928157
 20
66.67176044716383
 10
125.17861877228763
 20
66.54041878419311
 10
124.73567775924771
 20
66.42520654779332
 10
124.27340086339204
 20
66.32680626921244
 10
123.79508251792026
 20
66.24572311360879
 10
123.30398215774244
 20
66.18232475507602
 10
122.80332655422364
 20
66.13687072310502
 10
122.29631606587587
 20
66.10953305558269
 10
121.78613277996371
 20
66.10040987315826
 10
121.27594949405156
 20
66.10953305558269
 10
120.76893900570377
 20
66.13687072310502
 10
120.26828340218498
 20
66.18232475507602
 10
119.77718304200718
 20
66.24572311360879
 10
119.29886469653539
 20
66.32680626921244
 10
118.83658780067972
 20
66.42520654779332
 10
118.3936467876398
 20
66.54041878419311
 10
117.97336578064588
 20
66.67176044716383
 10
117.57907908141436
 20
66.81831982935776
 10
117.21408646081449
 20
66.97889294411794
 10
116.88156602554135
 20
67.15191538503512
 10
116.58442055485554
 20
67.33540798550811
 10
116.32503076574753
 20
67.52697922722497
 10
116.10490459202265
 20
67.72396505008427
 10
115.92427069795626
 20
67.92382531353861
 10
115.31875480873381
 20
68.77838301516813
  0
LWPOLYLINE
  5
50
330
17
100
AcDbEntity
  8
STITCH_LINE
  6
DASHED
100
AcDbPolyline
 90
88
 70
1
 10
103.28613277996371
 20
63.8172848964565
 10
103.48711385510398
 20
63.094402452671446
 10
103.65343727241685
 20
62.37775340541796
 10
103.78641529074866
 20
61.66740291369305
 10
103.88736016894579
 20
60.96341613649365
 10
103.95758416585457
 20
60.26585823281677
 10
103.99839954032136
 20
59.57479436165937
 10
104.0111185511925
 20
58.890289682018434
 10
103.99705345731434
 20
58.21240935289093
 10
103.95751651753324
 20
57.541218533273835
 10
103.89381999069556
 20
56.87678238216414
 10
103.80727613564763
 20
56.2191660585588
 10
103.69919721123581
 20
55.56843472145479
 10
103.57089547630646
 20
54.924653529849124
 10
103.42368318970593
 20
54.28788764273874
 10
103.25887261028056
 20
53.658202219120625
 10
103.07777599687671
 20
53.035662417991745
 10
102.88170560834072
 20
52.4203333983491
 10
102.67197370351894
 20
51.812280319189654
 10
102.21677438040346
 20
50.61826261830828
 10
101.72267609830108
 20
49.45413058732339
 10
101.20017692798258
 20
48.32040549821082
 10
100.65977494021878
 20
47.217608622946386
 10
100.1119682057805
 20
46.146261233505925
 10
99.03613277996371
 20
44.099999999999994
 10
99.29457480894922
 20
29.599999999999994
 10
98.03613277996371
 20
9.599999999999994
 10
145.5361327799637
 20
9.599999999999994
 10
144.2776907509782
 20
29.599999999999994
 10
144.5361327799637
 20
44.099999999999994
 10
143.46029735414692
 20
46.146261233505925
 10
142.91249061970865
 20
47.217608622946386
 10
142.37208863194485
 20
48.32040549821082
 10
141.84958946162635
 20
49.45413058732339
 10
141.35549117952397
 20
50.61826261830828
 10
140.9002918564085
 20
51.812280319189654
 10
140.69055995158672
 20
52.4203333983491
 10
140.49448956305073
 20
53.035662417991745
 10
140.31339294964687
 20
53.658202219120625
 10
140.1485823702215
 20
54.28788764273874
 10
140.00137008362097
 20
54.924653529849124
 10
139.87306834869162
 20
55.56843472145479
 10
139.7649894242798
 20
56.2191660585588
 10
139.67844556923188
 20
56.87678238216414
 10
139.61474904239418
 20
57.541218533273835
 10
139.57521210261308
 20
58.21240935289093
 10
139.56114700873493
 20
58.890289682018434
 10
139.57386601960607
 20
59.57479436165937
 10
139.61468139407287
 20
60.26585823281677
 10
139.68490539098164
 20
60.96341613649365
 10
139.78585026917875
 20
61.66740291369305
 10
139.91882828751056
 20
62.37775340541796
 10
140.08515170482343
 20
63.094402452671446
 10
140.2861327799637
 20
63.8172848964565
 10
128.6441327799637
 20
67.6
 10
128.42964504803012
 20
67.2972958984375
 10
128.17371139324496
 20
67.01412109374999
 10
127.87909487713168
 20
66.7504755859375
 10
127.54855856121371
 20
66.506359375
 10
127.18486550701449
 20
66.2817724609375
 10
126.79077877605746
 20
66.07671484375
 10
126.36906142986606
 20
65.8911865234375
 10
125.92247652996372
 20
65.7251875
 10
125.45378713787386
 20
65.5787177734375
 10
124.96575631511996
 20
65.45177734375
 10
124.46114712322543
 20
65.3443662109375
 10
123.9427226237137
 20
65.256484375
 10
123.41324587810826
 20
65.1881318359375
 10
122.87547994793246
 20
65.13930859375
 10
122.3321878947098
 20
65.1100146484375
 10
121.78613277996371
 20
65.10025
 10
121.24007766521763
 20
65.1100146484375
 10
120.69678561199495
 20
65.13930859375
 10
120.15901968181919
 20
65.1881318359375
 10
119.62954293621371
 20
65.256484375
 10
119.111118436702
 20
65.3443662109375
 10
118.60650924480746
 20
65.45177734375
 10
118.11847842205356
 20
65.5787177734375
 10
117.64978902996371
 20
65.7251875
 10
117.20320413006138
 20
65.8911865234375
 10
116.78148678386997
 20
66.07671484375
 10
116.38740005291294
 20
66.2817724609375
 10
116.02370699871372
 20
66.506359375
 10
115.69317068279574
 20
66.7504755859375
 10
115.39855416668246
 20
67.01412109374999
 10
115.1426205118973
 20
67.2972958984375
 10
114.9281327799637
 20
67.6
 10
103.28613277996371
 20
63.8172848964565
  0
LWPOLYLINE
  5
51
330
17
100
AcDbEntity
  8
STITCH_LINE
  6
DASHED
100
AcDbPolyline
 90
4
 70
1
 10
110.16493169300719
 20
41.599999999999994
 10
112.01601864952893
 20
29.599999999999994
 10
110.16493169300719
 20
17.599999999999994
 10
108.31384473648545
 20
29.599999999999994
  0
LWPOLYLINE
  5
52
330
17
100
AcDbEntity
  8
STITCH_LINE
  6
DASHED
100
AcDbPolyline
 90
4
 70
1
 10
113.16493169300719
 20
41.599999999999994
 10
115.01601864952893
 20
29.599999999999994
 10
113.16493169300719
 20
17.599999999999994
 10
111.31384473648545
 20
29.599999999999994
  0
LWPOLYLINE
  5
53
330
17
100
AcDbEntity
  8
STITCH_LINE
  6
DASHED
100
AcDbPolyline
 90
4
 70
1
 10
130.40733386692023
 20
41.599999999999994
 10
132.25842082344198
 20
29.599999999999994
 10
130.40733386692023
 20
17.599999999999994
 10
128.5562469103985
 20
29.599999999999994
  0
LWPOLYLINE
  5
54
330
17
100
AcDbEntity
  8
STITCH_LINE
  6
DASHED
100
AcDbPolyline
 90
4
 70
1
 10
133.40733386692023
 20
41.599999999999994
 10
135.25842082344198
 20
29.599999999999994
 10
133.40733386692023
 20
17.599999999999994
 10
131.5562469103985
 20
29.599999999999994
  0
LWPOLYLINE
  5
55
330
17
100
AcDbEntity
  8
REFERENCE_LINE
  6
DASHED
100
AcDbPolyline
 90
2
 70
0
 10
99.43613277996371
 20
44.099999999999994
 10
144.1361327799637
 20
44.099999999999994
  0
LWPOLYLINE
  5
56
330
17
100
AcDbEntity
  8
REFERENCE_LINE
  6
DASHED
100
AcDbPolyline
 90
2
 70
0
 10
99.69457480894921
 20
29.599999999999994
 10
143.87769075097822
 20
29.599999999999994
  0
LWPOLYLINE
  5
57
330
17
100
AcDbEntity
  8
REFERENCE_LINE
  6
DASHED
100
AcDbPolyline
 90
2
 70
0
 10
98.43619570206516
 20
9.600999999999999
 10
145.13606985786225
 20
9.600999999999999
  0
LWPOLYLINE
  5
58
330
17
100
AcDbEntity
  8
REFERENCE_LINE
  6
DASHED
100
AcDbPolyline
 90
2
 70
0
 10
121.78613277996371
 20
67.2
 10
121.78613277996371
 20
10.0
  0
LINE
  5
59
330
17
100
AcDbEntity
  8
NOTCH
100
AcDbLine
 10
99.12071095225822
 20
26.83683963684598
 30
0.0
 11
98.12268468881369
 21
26.899637546643476
 31
0.0
  0
LINE
  5
5A
330
17
100
AcDbEntity
  8
NOTCH
100
AcDbLine
 10
144.4515546076692
 20
26.83683963684598
 30
0.0
 11
145.44958087111374
 21
26.899637546643476
 31
0.0
  0
LINE
  5
5B
330
17
100
AcDbEntity
  8
NOTCH
100
AcDbLine
 10
102.93322235080421
 20
52.58200873786336
 30
0.0
 11
101.98042366077834
 21
52.885611531468726
 31
0.0
  0
LINE
  5
5C
330
17
100
AcDbEntity
  8
NOTCH
100
AcDbLine
 10
140.6390432091232
 20
52.58200873786336
 30
0.0
 11
141.59184189914907
 21
52.885611531468726
 31
0.0
  0
LINE
  5
5D
330
17
100
AcDbEntity
  8
NOTCH
100
AcDbLine
 10
103.16824044175853
 20
53.346644034198874
 30
0.0
 11
102.20804271512277
 21
53.62596522165789
 31
0.0
  0
LINE
  5
5E
330
17
100
AcDbEntity
  8
NOTCH
100
AcDbLine
 10
140.4040251181689
 20
53.346644034198874
 30
0.0
 11
141.36422284480466
 21
53.62596522165791
 31
0.0
  0
LINE
  5
5F
330
17
100
AcDbEntity
  8
GRAINLINE
100
AcDbLine
 10
114.30488277996372
 20
62.77369429537701
 30
0.0
 11
114.30488277996372
 21
14.223799503945827
 31
0.0
  0
LINE
  5
60
330
17
100
AcDbEntity
  8
GRAINLINE
100
AcDbLine
 10
112.80488277996372
 20
61.27369429537701
 30
0.0
 11
114.30488277996372
 21
62.77369429537701
 31
0.0
  0
LINE
  5
61
330
17
100
AcDbEntity
  8
GRAINLINE
100
AcDbLine
 10
115.80488277996372
 20
61.27369429537701
 30
0.0
 11
114.30488277996372
 21
62.77369429537701
 31
0.0
  0
LINE
  5
62
330
17
100
AcDbEntity
  8
GRAINLINE
100
AcDbLine
 10
112.80488277996372
 20
15.723799503945827
 30
0.0
 11
114.30488277996372
 21
14.223799503945827
 31
0.0
  0
LINE
  5
63
330
17
100
AcDbEntity
  8
GRAINLINE
100
AcDbLine
 10
115.80488277996372
 20
15.723799503945827
 30
0.0
 11
114.30488277996372
 21
14.223799503945827
 31
0.0
  0
TEXT
  5
64
330
17
100
AcDbEntity
  8
LABEL
100
AcDbText
 10
121.78613277996371
 20
38.68919150758407
 30
0.0
 40
0.9
  1
後身頃（ラウンドネック） [ダーツ4本]
 72
1
 11
121.78613277996371
 21
38.68919150758407
 31
0.0
100
AcDbText
 73
2
  0
TEXT
  5
65
330
17
100
AcDbEntity
  8
LABEL_ID
100
AcDbText
 10
121.78613277996371
 20
37.48919150758407
 30
0.0
 40
0.55
  1
back_bodice(round_neck) [ダーツ4本]
 72
1
 11
121.78613277996371
 21
37.48919150758407
 31
0.0
100
AcDbText
 73
2
  0
LWPOLYLINE
  5
66
330
17
100
AcDbEntity
  8
CUT_LINE
100
AcDbPolyline
 90
54
 70
1
 10
76.1635578418318
 20
181.07838301516813
 10
76.1635578418318
 20
162.09327713214168
 10
76.15427331880547
 20
161.7816620356157
 10
76.12942191787175
 20
161.52157689643695
 10
76.09111003835866
 20
161.29625655809303
 10
76.04177605200005
 20
161.10217782098394
 10
75.98339811450123
 20
160.93486636491548
 10
75.91706684137492
 20
160.78904385279088
 10
75.84267973537266
 20
160.65908016031952
 10
75.75894819331134
 20
160.53964425627115
 10
75.66377571927306
 20
160.42629977888362
 10
75.56541442704722
 20
160.3265084382038
 10
75.28387276163025
 20
160.09306767858686
 10
74.94935821392627
 20
159.8665840651749
 10
74.5498396771728
 20
159.62610239931044
 10
74.09484529514688
 20
159.360470623319
 10
73.59669484117377
 20
159.05498711802687
 10
73.0693710546193
 20
158.6926870211561
 10
72.53863117189485
 20
158.26443051957884
 10
72.26008058206588
 20
158.0056631532616
 10
71.99229608897411
 20
157.72987472934452
 10
71.72942180509459
 20
157.4281452387044
 10
71.47337153611618
 20
157.09905184223766
 10
71.22587419486416
 20
156.74128034362025
 10
70.98844337132857
 20
156.35356325677543
 10
70.76237258295522
 20
155.93461546111078
 10
70.45220702690098
 20
155.27900253924102
 10
74.08257620578746
 20
83.07838301516813
 10
104.0611066230839
 20
83.07838301516813
 10
101.91312763048451
 20
162.10779878061751
 10
101.89612458952197
 20
162.64455054360184
 10
101.84389369618853
 20
163.20341187962802
 10
101.75988474483269
 20
163.7545240370686
 10
101.6466796696767
 20
164.298132566283
 10
101.50686265037075
 20
164.83473329337238
 10
101.34296235519233
 20
165.36503744204344
 10
101.15741558241189
 20
165.88992360558922
 10
100.95016263217589
 20
166.41645413875537
 10
100.49467974580332
 20
167.44054787374557
 10
99.98375363500253
 20
168.4680644646465
 10
99.43634372513536
 20
169.499678652193
 10
98.86705328682662
 20
170.54363512042826
 10
98.28996679352447
 20
171.60769970562094
 10
97.71880869681485
 20
172.6992318836309
 10
97.16701560009055
 20
173.82531837811095
 10
96.64512761425806
 20
174.9988714933238
 10
96.403737262162
 20
175.59553637037064
 10
96.17335717415577
 20
176.2101031587973
 10
95.95754900604123
 20
176.83862898467933
 10
95.75790348882578
 20
177.4820596168629
 10
95.57601329849243
 20
178.14136894884095
 10
95.41347908238077
 20
178.81756051685306
 10
95.27191595582124
 20
179.5116672089157
 10
95.01055726270297
 20
181.07838301516813
  0
LWPOLYLINE
  5
67
330
17
100
AcDbEntity
  8
STITCH_LINE
  6
DASHED
100
AcDbPolyline
 90
55
 70
1
 10
77.1635578418318
 20
180.07838301516813
 10
94.1635578418318
 20
180.07838301516813
 10
94.28849985843337
 20
179.32941756106658
 10
94.4371174121443
 20
178.60072188235563
 10
94.60759775882399
 20
177.89147200442594
 10
94.7981281543318
 20
177.20084395266812
 10
95.0068958545271
 20
176.52801375247282
 10
95.2320881152693
 20
175.87215742923064
 10
95.47189219241773
 20
175.2324510083322
 10
95.7244953418318
 20
174.60807051516812
 10
96.26084788089429
 20
173.40199141360563
 10
96.82664377933179
 20
172.24732832766813
 10
97.4073810840193
 20
171.13748946048062
 10
97.9885578418318
 20
170.06588301516814
 10
98.5556720996443
 20
169.02591719485562
 10
99.09422190433179
 20
168.01100020266813
 10
99.5897053027693
 20
167.01454024173063
 10
100.0276203418318
 20
166.02994551516812
 10
100.22045786624585
 20
165.54003767825407
 10
100.3934650683943
 20
165.05062422610564
 10
100.54482920413648
 20
164.56088118411344
 10
100.6727375293318
 20
164.06998457766812
 10
100.77537729983962
 20
163.5771104321603
 10
100.8509357715193
 20
163.08143477298063
 10
100.89760020023024
 20
162.5821336255197
 10
100.9135578418318
 20
162.07838301516813
 10
103.0335578418318
 20
84.07838301516813
 10
75.0335578418318
 20
84.07838301516813
 10
71.4635578418318
 20
155.07838301516813
 10
71.65499369388259
 20
155.48303084231657
 10
71.85551340823805
 20
155.85462813235563
 10
72.0641227222029
 20
156.19528059817594
 10
72.2798273730818
 20
156.50709395266813
 10
72.50163309817945
 20
156.79217390872282
 10
72.72854563480055
 20
157.05262617923063
 10
72.95957072024977
 20
157.2905564770822
 10
73.1937140918318
 20
157.50807051516813
 10
73.66737864261304
 20
157.89027266360563
 10
74.1415851855818
 20
158.21607832766813
 10
74.60837961917555
 20
158.50233321048063
 10
75.0598078418318
 20
158.76588301516813
 10
75.48791575198806
 20
159.02357344485563
 10
75.8847492480818
 20
159.29225020266813
 10
76.24235422855055
 20
159.58875899173063
 10
76.40396036868727
 20
159.7527146802072
 10
76.5527765918318
 20
159.92994551516813
 10
76.68780863528883
 20
160.12255720950407
 10
76.80806223636306
 20
160.33265547610563
 10
76.91254313235915
 20
160.56234602786344
 10
77.0002570605818
 20
160.81373457766813
 10
77.07020975833571
 20
161.08892683841032
 10
77.12140696292555
 20
161.39002852298063
 10
77.15285441165602
 20
161.7191453442697
 10
77.1635578418318
 20
162.07838301516813
 10
77.1635578418318
 20
180.07838301516813
  0
LINE
  5
68
330
17
100
AcDbEntity
  8
NOTCH
100
AcDbLine
 10
72.33292315187022
 20
137.7884846922753
 30
0.0
 11
71.33418488407607
 21
137.73826644416226
 31
0.0
  0
LINE
  5
69
330
17
100
AcDbEntity
  8
NOTCH
100
AcDbLine
 10
101.86902968378527
 20
126.92423033952144
 30
0.0
 11
102.86866052604043
 21
126.95139979318273
 31
0.0
  0
LINE
  5
6A
330
17
100
AcDbEntity
  8
GRAINLINE
100
AcDbLine
 10
87.2485578418318
 20
172.39838301516812
 30
0.0
 11
87.2485578418318
 21
91.75838301516814
 31
0.0
  0
LINE
  5
6B
330
17
100
AcDbEntity
  8
GRAINLINE
100
AcDbLine
 10
85.7485578418318
 20
170.89838301516812
 30
0.0
 11
87.2485578418318
 21
172.39838301516812
 31
0.0
  0
LINE
  5
6C
330
17
100
AcDbEntity
  8
GRAINLINE
100
AcDbLine
 10
88.7485578418318
 20
170.89838301516812
 30
0.0
 11
87.2485578418318
 21
172.39838301516812
 31
0.0
  0
LINE
  5
6D
330
17
100
AcDbEntity
  8
GRAINLINE
100
AcDbLine
 10
85.7485578418318
 20
93.25838301516814
 30
0.0
 11
87.2485578418318
 21
91.75838301516814
 31
0.0
  0
LINE
  5
6E
330
17
100
AcDbEntity
  8
GRAINLINE
100
AcDbLine
 10
88.7485578418318
 20
93.25838301516814
 30
0.0
 11
87.2485578418318
 21
91.75838301516814
 31
0.0
  0
TEXT
  5
6F
330
17
100
AcDbEntity
  8
LABEL
100
AcDbText
 10
87.25665682499243
 20
132.07838301516813
 30
0.0
 40
0.9
  1
パンツ・前（ワイド） 左
 72
1
 11
87.25665682499243
 21
132.07838301516813
 31
0.0
100
AcDbText
 73
2
  0
TEXT
  5
70
330
17
100
AcDbEntity
  8
LABEL_ID
100
AcDbText
 10
87.25665682499243
 20
130.87838301516814
 30
0.0
 40
0.55
  1
front_pants(wide) 左
 72
1
 11
87.25665682499243
 21
130.87838301516814
 31
0.0
100
AcDbText
 73
2
  0
LWPOLYLINE
  5
71
330
17
100
AcDbEntity
  8
CUT_LINE
100
AcDbPolyline
 90
54
 70
1
 10
107.96625558241001
 20
181.07838301516813
 10
107.96625558241001
 20
162.09327713214168
 10
107.95697105938368
 20
161.7816620356157
 10
107.93211965844996
 20
161.52157689643695
 10
107.89380777893687
 20
161.29625655809303
 10
107.84447379257826
 20
161.10217782098394
 10
107.78609585507945
 20
160.93486636491548
 10
107.71976458195313
 20
160.78904385279088
 10
107.64537747595087
 20
160.65908016031952
 10
107.56164593388955
 20
160.53964425627115
 10
107.46647345985127
 20
160.42629977888362
 10
107.36811216762543
 20
160.3265084382038
 10
107.08657050220845
 20
160.09306767858686
 10
106.75205595450448
 20
159.8665840651749
 10
106.35253741775101
 20
159.62610239931044
 10
105.89754303572509
 20
159.360470623319
 10
105.39939258175198
 20
159.05498711802687
 10
104.8720687951975
 20
158.6926870211561
 10
104.34132891247306
 20
158.26443051957884
 10
104.06277832264409
 20
158.0056631532616
 10
103.79499382955233
 20
157.72987472934452
 10
103.5321195456728
 20
157.4281452387044
 10
103.27606927669439
 20
157.09905184223766
 10
103.02857193544237
 20
156.74128034362025
 10
102.79114111190678
 20
156.35356325677543
 10
102.56507032353343
 20
155.93461546111078
 10
102.25490476747919
 20
155.27900253924102
 10
105.88527394636567
 20
83.07838301516813
 10
135.8638043636621
 20
83.07838301516813
 10
133.71582537106272
 20
162.10779878061751
 10
133.69882233010017
 20
162.64455054360184
 10
133.64659143676676
 20
163.20341187962802
 10
133.5625824854109
 20
163.7545240370686
 10
133.4493774102549
 20
164.298132566283
 10
133.30956039094895
 20
164.83473329337238
 10
133.14566009577055
 20
165.36503744204344
 10
132.96011332299008
 20
165.88992360558922
 10
132.7528603727541
 20
166.41645413875537
 10
132.29737748638152
 20
167.44054787374557
 10
131.78645137558073
 20
168.4680644646465
 10
131.23904146571357
 20
169.499678652193
 10
130.66975102740483
 20
170.54363512042826
 10
130.09266453410268
 20
171.60769970562094
 10
129.52150643739304
 20
172.6992318836309
 10
128.96971334066876
 20
173.82531837811095
 10
128.44782535483625
 20
174.9988714933238
 10
128.2064350027402
 20
175.59553637037064
 10
127.97605491473398
 20
176.2101031587973
 10
127.76024674661944
 20
176.83862898467933
 10
127.56060122940397
 20
177.4820596168629
 10
127.37871103907064
 20
178.14136894884095
 10
127.21617682295899
 20
178.81756051685306
 10
127.07461369639947
 20
179.5116672089157
 10
126.81325500328118
 20
181.07838301516813
  0
LWPOLYLINE
  5
72
330
17
100
AcDbEntity
  8
STITCH_LINE
  6
DASHED
100
AcDbPolyline
 90
55
 70
1
 10
108.96625558241001
 20
180.07838301516813
 10
125.96625558241001
 20
180.07838301516813
 10
126.09119759901156
 20
179.32941756106658
 10
126.23981515272251
 20
178.60072188235563
 10
126.4102954994022
 20
177.89147200442594
 10
126.60082589491
 20
177.20084395266812
 10
126.80959359510533
 20
176.52801375247282
 10
127.0347858558475
 20
175.87215742923064
 10
127.27458993299595
 20
175.2324510083322
 10
127.52719308241001
 20
174.60807051516812
 10
128.0635456214725
 20
173.40199141360563
 10
128.62934151991
 20
172.24732832766813
 10
129.2100788245975
 20
171.13748946048062
 10
129.79125558241
 20
170.06588301516814
 10
130.3583698402225
 20
169.02591719485562
 10
130.89691964491
 20
168.01100020266813
 10
131.3924030433475
 20
167.01454024173063
 10
131.83031808241
 20
166.02994551516812
 10
132.02315560682408
 20
165.54003767825407
 10
132.1961628089725
 20
165.05062422610564
 10
132.3475269447147
 20
164.56088118411344
 10
132.47543526991
 20
164.06998457766812
 10
132.57807504041781
 20
163.5771104321603
 10
132.6536335120975
 20
163.08143477298063
 10
132.70029794080844
 20
162.5821336255197
 10
132.71625558241
 20
162.07838301516813
 10
134.83625558241002
 20
84.07838301516813
 10
106.83625558241002
 20
84.07838301516813
 10
103.26625558241001
 20
155.07838301516813
 10
103.4576914344608
 20
155.48303084231657
 10
103.65821114881626
 20
155.85462813235563
 10
103.8668204627811
 20
156.19528059817594
 10
104.08252511366001
 20
156.50709395266813
 10
104.30433083875766
 20
156.79217390872282
 10
104.53124337537876
 20
157.05262617923063
 10
104.76226846082798
 20
157.2905564770822
 10
104.99641183241002
 20
157.50807051516813
 10
105.47007638319126
 20
157.89027266360563
 10
105.94428292616001
 20
158.21607832766813
 10
106.41107735975376
 20
158.50233321048063
 10
106.86250558241001
 20
158.76588301516813
 10
107.29061349256627
 20
159.02357344485563
 10
107.68744698866001
 20
159.29225020266813
 10
108.04505196912876
 20
159.58875899173063
 10
108.20665810926548
 20
159.7527146802072
 10
108.35547433241001
 20
159.92994551516813
 10
108.49050637586704
 20
160.12255720950407
 10
108.61075997694127
 20
160.33265547610563
 10
108.71524087293736
 20
160.56234602786344
 10
108.80295480116001
 20
160.81373457766813
 10
108.87290749891392
 20
161.08892683841032
 10
108.92410470350376
 20
161.39002852298063
 10
108.95555215223423
 20
161.7191453442697
 10
108.96625558241001
 20
162.07838301516813
 10
108.96625558241001
 20
180.07838301516813
  0
LINE
  5
73
330
17
100
AcDbEntity
  8
NOTCH
100
AcDbLine
 10
104.13562089244843
 20
137.7884846922753
 30
0.0
 11
103.13688262465428
 21
137.73826644416226
 31
0.0
  0
LINE
  5
74
330
17
100
AcDbEntity
  8
NOTCH
100
AcDbLine
 10
133.6717274243635
 20
126.92423033952144
 30
0.0
 11
134.67135826661865
 21
126.95139979318273
 31
0.0
  0
LINE
  5
75
330
17
100
AcDbEntity
  8
GRAINLINE
100
AcDbLine
 10
119.05125558241001
 20
172.39838301516812
 30
0.0
 11
119.05125558241001
 21
91.75838301516814
 31
0.0
  0
LINE
  5
76
330
17
100
AcDbEntity
  8
GRAINLINE
100
AcDbLine
 10
117.55125558241001
 20
170.89838301516812
 30
0.0
 11
119.05125558241001
 21
172.39838301516812
 31
0.0
  0
LINE
  5
77
330
17
100
AcDbEntity
  8
GRAINLINE
100
AcDbLine
 10
120.55125558241001
 20
170.89838301516812
 30
0.0
 11
119.05125558241001
 21
172.39838301516812
 31
0.0
  0
LINE
  5
78
330
17
100
AcDbEntity
  8
GRAINLINE
100
AcDbLine
 10
117.55125558241001
 20
93.25838301516814
 30
0.0
 11
119.05125558241001
 21
91.75838301516814
 31
0.0
  0
LINE
  5
79
330
17
100
AcDbEntity
  8
GRAINLINE
100
AcDbLine
 10
120.55125558241001
 20
93.25838301516814
 30
0.0
 11
119.05125558241001
 21
91.75838301516814
 31
0.0
  0
TEXT
  5
7A
330
17
100
AcDbEntity
  8
LABEL
100
AcDbText
 10
119.05935456557064
 20
132.07838301516813
 30
0.0
 40
0.9
  1
パンツ・前（ワイド） 右
 72
1
 11
119.05935456557064
 21
132.07838301516813
 31
0.0
100
AcDbText
 73
2
  0
TEXT
  5
7B
330
17
100
AcDbEntity
  8
LABEL_ID
100
AcDbText
 10
119.05935456557064
 20
130.87838301516814
 30
0.0
 40
0.55
  1
front_pants(wide) 右
 72
1
 11
119.05935456557064
 21
130.87838301516814
 31
0.0
100
AcDbText
 73
2
  0
LWPOLYLINE
  5
7C
330
17
100
AcDbEntity
  8
CUT_LINE
100
AcDbPolyline
 90
71
 70
1
 10
9.37327397121956
 20
181.07838301516813
 10
8.883930333918554
 20
179.31598132145123
 10
8.631838205800117
 20
178.26564795351547
 10
8.418361924106675
 20
177.20903132913932
 10
8.243643704519048
 20
176.1438871831637
 10
8.107773415134428
 20
175.06799465728884
 10
8.010783928466255
 20
173.97913612336566
 10
7.9526516461666095
 20
172.8750769181279
 10
7.933301895693015
 20
171.75354724028725
 10
7.9526181540580225
 20
170.6122280057985
 10
8.010453589547835
 20
169.44874170590577
 10
8.106643300793433
 20
168.26064847559883
 10
8.241015835730039
 20
167.0454468566353
 10
8.413402976833954
 20
165.8005782569448
 10
8.623647247975297
 20
164.5234339024903
 10
8.871607020952657
 20
163.21136310858066
 10
9.128463949016934
 20
161.99731278452686
 10
9.119963633269615
 20
161.81852304286303
 10
9.086186156699448
 20
161.59699148851843
 10
9.035167844928047
 20
161.4089597772036
 10
8.969285186076027
 20
161.24654148538002
 10
8.888379608072862
 20
161.1012362935828
 10
8.789905081305227
 20
160.96557710952789
 10
8.670066423342215
 20
160.8343772633449
 10
8.525280902422898
 20
160.7049649749881
 10
8.353192345246557
 20
160.57654348397375
 10
8.152965592140324
 20
160.44925792862634
 10
7.925066717142123
 20
160.32343712974335
 10
7.677469774871559
 20
160.2023931512662
 10
7.087419635231457
 20
159.95209049128843
 10
6.427762852828895
 20
159.70332215924398
 10
5.70429672824473
 20
159.43871715111638
 10
4.93310368157365
 20
159.14246206549828
 10
4.137906221457785
 20
158.80024173897223
 10
3.723109428160798
 20
158.59997144840492
 10
3.311768679738513
 20
158.38276123021586
 10
2.9003028773370105
 20
158.14337524385581
 10
2.490927392314513
 20
157.87935127685057
 10
2.0859859576801454
 20
157.58830582304958
 10
1.6879443566542824
 20
157.26798480334577
 10
1.2993627319500276
 20
156.91631110523403
 10
0.9228458803834684
 20
156.53141956545412
 10
0.5609761833858419
 20
156.1116698007023
 10
0.0
 20
155.36957547848988
 10
7.106936949211068
 20
83.07838301516813
 10
37.041128362084166
 20
83.07838301516813
 10
34.88301564477815
 20
162.10786280383948
 10
34.8660146319216
 20
162.6445505436019
 10
34.81378373858818
 20
163.203411879628
 10
34.72977478723233
 20
163.75452403706853
 10
34.61656971207632
 20
164.29813256628304
 10
34.476752692770404
 20
164.83473329337227
 10
34.31285239759193
 20
165.36503744204353
 10
34.12730562481154
 20
165.88992360558913
 10
33.92005267457549
 20
166.41645413875543
 10
33.46456978820295
 20
167.44054787374557
 10
32.953643677402205
 20
168.4680644646464
 10
32.40623376753499
 20
169.499678652193
 10
31.836943329226255
 20
170.54363512042826
 10
31.259856835924104
 20
171.60769970562094
 10
30.688698739214477
 20
172.6992318836309
 10
30.13690564249018
 20
173.82531837811095
 10
29.615017656657685
 20
174.9988714933238
 10
29.373627304561623
 20
175.59553637037064
 10
29.143247216555398
 20
176.2101031587973
 10
28.92743904844087
 20
176.83862898467933
 10
28.7277935312254
 20
177.4820596168629
 10
28.54590334089207
 20
178.14136894884092
 10
28.383369124780398
 20
178.81756051685312
 10
28.241805998220894
 20
179.51166720891564
 10
27.9804473051026
 20
181.07838301516813
  0
LWPOLYLINE
  5
7D
330
17
100
AcDbEntity
  8
STITCH_LINE
  6
DASHED
100
AcDbPolyline
 90
72
 70
1
 10
10.13344788423143
 20
180.07838301516813
 10
27.13344788423143
 20
180.07838301516813
 10
27.258389900832995
 20
179.32941756106658
 10
27.40700745454393
 20
178.60072188235563
 10
27.57748780122362
 20
177.89147200442594
 10
27.768018196731433
 20
177.20084395266812
 10
27.976785896926742
 20
176.52801375247282
 10
28.201978157668933
 20
175.87215742923064
 10
28.441782234817367
 20
175.2324510083322
 10
28.69438538423143
 20
174.60807051516812
 10
29.23073792329393
 20
173.40199141360563
 10
29.79653382173143
 20
172.24732832766813
 10
30.377271126418933
 20
171.13748946048062
 10
30.958447884231433
 20
170.06588301516814
 10
31.52556214204393
 20
169.02591719485562
 10
32.06411194673143
 20
168.01100020266813
 10
32.55959534516893
 20
167.01454024173063
 10
32.997510384231425
 20
166.02994551516812
 10
33.190347908645485
 20
165.54003767825407
 10
33.363355110793925
 20
165.05062422610564
 10
33.51471924653611
 20
164.56088118411344
 10
33.64262757173143
 20
164.06998457766812
 10
33.745267342239245
 20
163.5771104321603
 10
33.82082581391893
 20
163.08143477298063
 10
33.86749024262987
 20
162.5821336255197
 10
33.88344788423143
 20
162.07838301516813
 10
36.013447884231425
 20
84.07838301516813
 10
8.01344788423143
 20
84.07838301516813
 10
1.0334478842314296
 20
155.07838301516813
 10
1.339335945754867
 20
155.48303084231657
 10
1.6596930014189297
 20
155.85462813235563
 10
1.9929333578642423
 20
156.19528059817594
 10
2.33747132173143
 20
156.50709395266813
 10
2.6917211996611172
 20
156.79217390872282
 10
3.05409729829393
 20
157.05262617923063
 10
3.4230139242704927
 20
157.2905564770822
 10
3.79688538423143
 20
157.50807051516813
 10
4.174125984817367
 20
157.70727400637907
 10
4.553150032668929
 20
157.89027266360563
 10
5.31020569673143
 20
158.21607832766813
 10
6.05536682954393
 20
158.50233321048063
 10
6.77594788423143
 20
158.76588301516813
 10
7.45926331391893
 20
159.02357344485563
 10
8.092627571731429
 20
159.29225020266813
 10
8.386613777786117
 20
159.43597273684782
 10
8.663355110793928
 20
159.58875899173063
 10
8.921265877395491
 20
159.7527146802072
 10
9.15876038423143
 20
159.92994551516813
 10
9.374252937942366
 20
160.12255720950407
 10
9.566157845168929
 20
160.33265547610563
 10
9.732889412551742
 20
160.56234602786344
 10
9.87286194673143
 20
160.81373457766813
 10
9.984489754348617
 20
161.08892683841032
 10
10.066187142043932
 20
161.39002852298063
 10
10.116368416457993
 20
161.7191453442697
 10
10.13344788423143
 20
162.07838301516813
 10
9.85219788423143
 20
163.40772871829313
 10
9.60844788423143
 20
164.69752364016813
 10
9.40219788423143
 20
165.95040449954314
 10
9.23344788423143
 20
167.16900801516812
 10
9.10219788423143
 20
168.35597090579313
 10
9.00844788423143
 20
169.51392989016813
 10
8.95219788423143
 20
170.64552168704313
 10
8.93344788423143
 20
171.75338301516814
 10
8.95219788423143
 20
172.84015059329312
 10
9.00844788423143
 20
173.90846114016813
 10
9.10219788423143
 20
174.96095137454313
 10
9.23344788423143
 20
176.00025801516813
 10
9.40219788423143
 20
177.02901778079314
 10
9.60844788423143
 20
178.04986739016812
 10
9.85219788423143
 20
179.06544356204313
 10
10.13344788423143
 20
180.07838301516813
  0
LINE
  5
7E
330
17
100
AcDbEntity
  8
NOTCH
100
AcDbLine
 10
4.52344788423143
 20
119.57838301516813
 30
0.0
 11
3.528245549848259
 21
119.48054481384426
 31
0.0
  0
LINE
  5
7F
330
17
100
AcDbEntity
  8
NOTCH
100
AcDbLine
 10
34.84342331834517
 20
126.92435303353813
 30
0.0
 11
35.843050671717386
 21
126.95165054972637
 31
0.0
  0
LINE
  5
80
330
17
100
AcDbEntity
  8
GRAINLINE
100
AcDbLine
 10
18.523447884231427
 20
172.39838301516812
 30
0.0
 11
18.523447884231427
 21
91.75838301516814
 31
0.0
  0
LINE
  5
81
330
17
100
AcDbEntity
  8
GRAINLINE
100
AcDbLine
 10
17.023447884231427
 20
170.89838301516812
 30
0.0
 11
18.523447884231427
 21
172.39838301516812
 31
0.0
  0
LINE
  5
82
330
17
100
AcDbEntity
  8
GRAINLINE
100
AcDbLine
 10
20.023447884231427
 20
170.89838301516812
 30
0.0
 11
18.523447884231427
 21
172.39838301516812
 31
0.0
  0
LINE
  5
83
330
17
100
AcDbEntity
  8
GRAINLINE
100
AcDbLine
 10
17.023447884231427
 20
93.25838301516814
 30
0.0
 11
18.523447884231427
 21
91.75838301516814
 31
0.0
  0
LINE
  5
84
330
17
100
AcDbEntity
  8
GRAINLINE
100
AcDbLine
 10
20.023447884231427
 20
93.25838301516814
 30
0.0
 11
18.523447884231427
 21
91.75838301516814
 31
0.0
  0
TEXT
  5
85
330
17
100
AcDbEntity
  8
LABEL
100
AcDbText
 10
18.520564181042083
 20
132.07838301516813
 30
0.0
 40
0.9
  1
パンツ・後（ワイド） 左
 72
1
 11
18.520564181042083
 21
132.07838301516813
 31
0.0
100
AcDbText
 73
2
  0
TEXT
  5
86
330
17
100
AcDbEntity
  8
LABEL_ID
100
AcDbText
 10
18.520564181042083
 20
130.87838301516814
 30
0.0
 40
0.55
  1
back_pants(wide) 左
 72
1
 11
18.520564181042083
 21
130.87838301516814
 31
0.0
100
AcDbText
 73
2
  0
LWPOLYLINE
  5
87
330
17
100
AcDbEntity
  8
CUT_LINE
100
AcDbPolyline
 90
71
 70
1
 10
44.59937748467005
 20
181.07838301516813
 10
44.110033847369046
 20
179.31598132145123
 10
43.857941719250604
 20
178.26564795351547
 10
43.644465437557166
 20
177.20903132913932
 10
43.46974721796954
 20
176.1438871831637
 10
43.333876928584914
 20
175.06799465728884
 10
43.23688744191674
 20
173.97913612336566
 10
43.1787551596171
 20
172.8750769181279
 10
43.1594054091435
 20
171.75354724028725
 10
43.17872166750851
 20
170.6122280057985
 10
43.236557102998326
 20
169.44874170590577
 10
43.33274681424392
 20
168.26064847559883
 10
43.46711934918053
 20
167.0454468566353
 10
43.63950649028445
 20
165.8005782569448
 10
43.84975076142579
 20
164.5234339024903
 10
44.09771053440315
 20
163.21136310858066
 10
44.35456746246742
 20
161.99731278452686
 10
44.3460671467201
 20
161.81852304286303
 10
44.31228967014994
 20
161.59699148851843
 10
44.261271358378536
 20
161.4089597772036
 10
44.19538869952652
 20
161.24654148538002
 10
44.11448312152335
 20
161.1012362935828
 10
44.01600859475572
 20
160.96557710952789
 10
43.8961699367927
 20
160.8343772633449
 10
43.75138441587339
 20
160.7049649749881
 10
43.579295858697044
 20
160.57654348397375
 10
43.379069105590816
 20
160.44925792862634
 10
43.15117023059261
 20
160.32343712974335
 10
42.90357328832205
 20
160.2023931512662
 10
42.313523148681945
 20
159.95209049128843
 10
41.65386636627939
 20
159.70332215924398
 10
40.93040024169522
 20
159.43871715111638
 10
40.15920719502414
 20
159.14246206549828
 10
39.36400973490827
 20
158.80024173897223
 10
38.949212941611286
 20
158.59997144840492
 10
38.537872193189
 20
158.38276123021586
 10
38.1264063907875
 20
158.14337524385581
 10
37.717030905765
 20
157.87935127685057
 10
37.31208947113063
 20
157.58830582304958
 10
36.914047870104774
 20
157.26798480334577
 10
36.525466245400516
 20
156.91631110523403
 10
36.14894939383396
 20
156.53141956545412
 10
35.78707969683633
 20
156.1116698007023
 10
35.22610351345049
 20
155.36957547848988
 10
42.33304046266156
 20
83.07838301516813
 10
72.26723187553466
 20
83.07838301516813
 10
70.10911915822864
 20
162.10786280383948
 10
70.0921181453721
 20
162.6445505436019
 10
70.03988725203867
 20
163.203411879628
 10
69.95587830068283
 20
163.75452403706853
 10
69.84267322552681
 20
164.29813256628304
 10
69.7028562062209
 20
164.83473329337227
 10
69.53895591104242
 20
165.36503744204353
 10
69.35340913826204
 20
165.88992360558913
 10
69.14615618802597
 20
166.41645413875543
 10
68.69067330165345
 20
167.44054787374557
 10
68.1797471908527
 20
168.4680644646464
 10
67.63233728098548
 20
169.499678652193
 10
67.06304684267674
 20
170.54363512042826
 10
66.4859603493746
 20
171.60769970562094
 10
65.91480225266497
 20
172.6992318836309
 10
65.36300915594067
 20
173.82531837811095
 10
64.84112117010818
 20
174.9988714933238
 10
64.59973081801212
 20
175.59553637037064
 10
64.36935073000589
 20
176.2101031587973
 10
64.15354256189136
 20
176.83862898467933
 10
63.95389704467589
 20
177.4820596168629
 10
63.772006854342564
 20
178.14136894884092
 10
63.60947263823088
 20
178.81756051685312
 10
63.46790951167138
 20
179.51166720891564
 10
63.20655081855309
 20
181.07838301516813
  0
LWPOLYLINE
  5
88
330
17
100
AcDbEntity
  8
STITCH_LINE
  6
DASHED
100
AcDbPolyline
 90
72
 70
1
 10
45.35955139768192
 20
180.07838301516813
 10
62.35955139768192
 20
180.07838301516813
 10
62.484493414283484
 20
179.32941756106658
 10
62.63311096799442
 20
178.60072188235563
 10
62.80359131467411
 20
177.89147200442594
 10
62.99412171018192
 20
177.20084395266812
 10
63.20288941037723
 20
176.52801375247282
 10
63.42808167111942
 20
175.87215742923064
 10
63.66788574826786
 20
175.2324510083322
 10
63.92048889768192
 20
174.60807051516812
 10
64.45684143674441
 20
173.40199141360563
 10
65.02263733518191
 20
172.24732832766813
 10
65.60337463986943
 20
171.13748946048062
 10
66.18455139768193
 20
170.06588301516814
 10
66.75166565549442
 20
169.02591719485562
 10
67.29021546018191
 20
168.01100020266813
 10
67.78569885861941
 20
167.01454024173063
 10
68.22361389768191
 20
166.02994551516812
 10
68.41645142209597
 20
165.54003767825407
 10
68.58945862424441
 20
165.05062422610564
 10
68.7408227599866
 20
164.56088118411344
 10
68.86873108518192
 20
164.06998457766812
 10
68.97137085568974
 20
163.5771104321603
 10
69.04692932736941
 20
163.08143477298063
 10
69.09359375608037
 20
162.5821336255197
 10
69.10955139768191
 20
162.07838301516813
 10
71.23955139768191
 20
84.07838301516813
 10
43.23955139768192
 20
84.07838301516813
 10
36.25955139768192
 20
155.07838301516813
 10
36.56543945920536
 20
155.48303084231657
 10
36.88579651486942
 20
155.85462813235563
 10
37.219036871314735
 20
156.19528059817594
 10
37.56357483518192
 20
156.50709395266813
 10
37.91782471311161
 20
156.79217390872282
 10
38.28020081174442
 20
157.05262617923063
 10
38.64911743772098
 20
157.2905564770822
 10
39.02298889768192
 20
157.50807051516813
 10
39.400229498267855
 20
157.70727400637907
 10
39.77925354611942
 20
157.89027266360563
 10
40.53630921018192
 20
158.21607832766813
 10
41.28147034299442
 20
158.50233321048063
 10
42.00205139768192
 20
158.76588301516813
 10
42.68536682736942
 20
159.02357344485563
 10
43.318731085181916
 20
159.29225020266813
 10
43.612717291236606
 20
159.43597273684782
 10
43.88945862424442
 20
159.58875899173063
 10
44.14736939084598
 20
159.7527146802072
 10
44.38486389768192
 20
159.92994551516813
 10
44.600356451392855
 20
160.12255720950407
 10
44.79226135861942
 20
160.33265547610563
 10
44.95899292600223
 20
160.56234602786344
 10
45.098965460181915
 20
160.81373457766813
 10
45.210593267799105
 20
161.08892683841032
 10
45.29229065549442
 20
161.39002852298063
 10
45.342471929908484
 20
161.7191453442697
 10
45.35955139768192
 20
162.07838301516813
 10
45.07830139768192
 20
163.40772871829313
 10
44.83455139768192
 20
164.69752364016813
 10
44.62830139768192
 20
165.95040449954314
 10
44.45955139768192
 20
167.16900801516812
 10
44.32830139768192
 20
168.35597090579313
 10
44.23455139768192
 20
169.51392989016813
 10
44.17830139768192
 20
170.64552168704313
 10
44.15955139768192
 20
171.75338301516814
 10
44.17830139768192
 20
172.84015059329312
 10
44.23455139768192
 20
173.90846114016813
 10
44.32830139768192
 20
174.96095137454313
 10
44.45955139768192
 20
176.00025801516813
 10
44.62830139768192
 20
177.02901778079314
 10
44.83455139768192
 20
178.04986739016812
 10
45.07830139768192
 20
179.06544356204313
 10
45.35955139768192
 20
180.07838301516813
  0
LINE
  5
89
330
17
100
AcDbEntity
  8
NOTCH
100
AcDbLine
 10
39.74955139768192
 20
119.57838301516813
 30
0.0
 11
38.75434906329875
 21
119.48054481384426
 31
0.0
  0
LINE
  5
8A
330
17
100
AcDbEntity
  8
NOTCH
100
AcDbLine
 10
70.06952683179566
 20
126.92435303353813
 30
0.0
 11
71.06915418516787
 21
126.95165054972637
 31
0.0
  0
LINE
  5
8B
330
17
100
AcDbEntity
  8
GRAINLINE
100
AcDbLine
 10
53.74955139768191
 20
172.39838301516812
 30
0.0
 11
53.74955139768191
 21
91.75838301516814
 31
0.0
  0
LINE
  5
8C
330
17
100
AcDbEntity
  8
GRAINLINE
100
AcDbLine
 10
52.24955139768191
 20
170.89838301516812
 30
0.0
 11
53.74955139768191
 21
172.39838301516812
 31
0.0
  0
LINE
  5
8D
330
17
100
AcDbEntity
  8
GRAINLINE
100
AcDbLine
 10
55.24955139768191
 20
170.89838301516812
 30
0.0
 11
53.74955139768191
 21
172.39838301516812
 31
0.0
  0
LINE
  5
8E
330
17
100
AcDbEntity
  8
GRAINLINE
100
AcDbLine
 10
52.24955139768191
 20
93.25838301516814
 30
0.0
 11
53.74955139768191
 21
91.75838301516814
 31
0.0
  0
LINE
  5
8F
330
17
100
AcDbEntity
  8
GRAINLINE
100
AcDbLine
 10
55.24955139768191
 20
93.25838301516814
 30
0.0
 11
53.74955139768191
 21
91.75838301516814
 31
0.0
  0
TEXT
  5
90
330
17
100
AcDbEntity
  8
LABEL
100
AcDbText
 10
53.74666769449257
 20
132.07838301516813
 30
0.0
 40
0.9
  1
パンツ・後（ワイド） 右
 72
1
 11
53.74666769449257
 21
132.07838301516813
 31
0.0
100
AcDbText
 73
2
  0
TEXT
  5
91
330
17
100
AcDbEntity
  8
LABEL_ID
100
AcDbText
 10
53.74666769449257
 20
130.87838301516814
 30
0.0
 40
0.55
  1
back_pants(wide) 右
 72
1
 11
53.74666769449257
 21
130.87838301516814
 31
0.0
100
AcDbText
 73
2
  0
LWPOLYLINE
  5
92
330
17
100
AcDbEntity
  8
CUT_LINE
100
AcDbPolyline
 90
30
 70
1
 10
100.22554442088641
 20
8.0
 10
99.78434721700211
 20
7.96968526367894
 10
99.33767348621537
 20
7.869004691739292
 10
98.92679217587845
 20
7.699749192582004
 10
98.56404194932851
 20
7.468611341794713
 10
98.25901260639876
 20
7.189889127099576
 10
98.01395389136466
 20
6.881089135341682
 10
97.82408112242466
 20
6.557506021247036
 10
97.68099502462994
 20
6.229793745710424
 10
97.57581302407074
 20
5.904558885296183
 10
97.4976467740914
 20
5.573092057769998
 10
97.41567575606376
 20
4.98706149219106
 10
97.38649412713507
 20
4.447437657119281
 10
97.38258948569468
 20
4.004406650504734
 10
97.38258948569468
 20
0.0
 10
136.92798086390954
 20
0.0
 10
136.92798086390954
 20
4.004406650504478
 10
136.92407622246915
 20
4.447437657119309
 10
136.89489459354047
 20
4.9870614921910885
 10
136.81292357551283
 20
5.573092057769998
 10
136.7347573255335
 20
5.904558885296154
 10
136.62957532497427
 20
6.229793745710424
 10
136.48648922717956
 20
6.557506021247065
 10
136.29661645823955
 20
6.881089135341682
 10
136.05155774320542
 20
7.189889127099576
 10
135.7465284002757
 20
7.468611341794713
 10
135.38377817372577
 20
7.699749192582004
 10
134.97289686338888
 20
7.869004691739292
 10
134.52622313260213
 20
7.96968526367894
 10
134.0850259287178
 20
8.0
  0
LWPOLYLINE
  5
93
330
17
100
AcDbEntity
  8
STITCH_LINE
  6
DASHED
100
AcDbPolyline
 90
30
 70
1
 10
100.25985905460543
 20
7.0
 10
99.92941194542948
 20
6.977294921875
 10
99.6402134351798
 20
6.912109375
 10
99.3895136172613
 20
6.808837890625
 10
99.1745625850789
 20
6.671875
 10
98.99261043203751
 20
6.505615234375
 10
98.84090725154203
 20
6.314453125
 10
98.7167031369974
 20
6.102783203125
 10
98.61724818180852
 20
5.875
 10
98.53979247938032
 20
5.635498046875
 10
98.48158612311771
 20
5.388671875
 10
98.4119218227089
 20
4.890625
 10
98.38625602782146
 20
4.416015625
 10
98.38258948569468
 20
4.0
 10
98.38258948569468
 20
1.0
 10
135.92798086390954
 20
1.0
 10
135.92798086390954
 20
4.0
 10
135.92431432178276
 20
4.416015625
 10
135.8986485268953
 20
4.890625
 10
135.8289842264865
 20
5.388671875
 10
135.7707778702239
 20
5.635498046875
 10
135.6933221677957
 20
5.875
 10
135.59386721260682
 20
6.102783203125
 10
135.4696630980622
 20
6.314453125
 10
135.31795991756672
 20
6.505615234375
 10
135.13600776452532
 20
6.671875
 10
134.92105673234292
 20
6.808837890625
 10
134.67035691442442
 20
6.912109375
 10
134.38115840417476
 20
6.977294921875
 10
134.0507112949988
 20
7.0
  0
LINE
  5
94
330
17
100
AcDbEntity
  8
NOTCH
100
AcDbLine
 10
105.95151642086381
 20
1.0
 30
0.0
 11
105.95151642086381
 21
0.0
 31
0.0
  0
LINE
  5
95
330
17
100
AcDbEntity
  8
NOTCH
100
AcDbLine
 10
128.35905392874042
 20
1.0
 30
0.0
 11
128.35905392874042
 21
0.0
 31
0.0
  0
LINE
  5
96
330
17
100
AcDbEntity
  8
GRAINLINE
100
AcDbLine
 10
117.15528517480212
 20
6.52000000000001
 30
0.0
 11
117.15528517480212
 21
1.4799999999999898
 31
0.0
  0
LINE
  5
97
330
17
100
AcDbEntity
  8
GRAINLINE
100
AcDbLine
 10
116.75528517480211
 20
6.1200000000000045
 30
0.0
 11
117.15528517480212
 21
6.52000000000001
 31
0.0
  0
LINE
  5
98
330
17
100
AcDbEntity
  8
GRAINLINE
100
AcDbLine
 10
117.55528517480211
 20
6.1200000000000045
 30
0.0
 11
117.15528517480212
 21
6.52000000000001
 31
0.0
  0
LINE
  5
99
330
17
100
AcDbEntity
  8
GRAINLINE
100
AcDbLine
 10
116.75528517480211
 20
1.8799999999999955
 30
0.0
 11
117.15528517480212
 21
1.4799999999999898
 31
0.0
  0
LINE
  5
9A
330
17
100
AcDbEntity
  8
GRAINLINE
100
AcDbLine
 10
117.55528517480211
 20
1.8799999999999955
 30
0.0
 11
117.15528517480212
 21
1.4799999999999898
 31
0.0
  0
TEXT
  5
9B
330
17
100
AcDbEntity
  8
LABEL
100
AcDbText
 10
117.15528517480212
 20
4.0
 30
0.0
 40
0.9
  1
衿
 72
1
 11
117.15528517480212
 21
4.0
 31
0.0
100
AcDbText
 73
2
  0
TEXT
  5
9C
330
17
100
AcDbEntity
  8
LABEL_ID
100
AcDbText
 10
117.15528517480212
 20
2.8
 30
0.0
 40
0.55
  1
collar
 72
1
 11
117.15528517480212
 21
2.8
 31
0.0
100
AcDbText
 73
2
  0
LWPOLYLINE
  5
9D
330
17
100
AcDbEntity
  8
CUT_LINE
100
AcDbPolyline
 90
4
 70
1
 10
21.791177944257235
 20
82.77838301516813
 10
21.791177944257235
 20
68.77838301516813
 10
94.79117794425724
 20
68.77838301516813
 10
94.79117794425724
 20
82.77838301516813
  0
LWPOLYLINE
  5
9E
330
17
100
AcDbEntity
  8
STITCH_LINE
  6
DASHED
100
AcDbPolyline
 90
4
 70
1
 10
22.791177944257235
 20
81.77838301516813
 10
93.79117794425724
 20
81.77838301516813
 10
93.79117794425724
 20
69.77838301516813
 10
22.791177944257235
 20
69.77838301516813
  0
LINE
  5
9F
330
17
100
AcDbEntity
  8
NOTCH
100
AcDbLine
 10
39.791177944257235
 20
81.77838301516813
 30
0.0
 11
39.791177944257235
 21
82.77838301516813
 31
0.0
  0
LINE
  5
A0
330
17
100
AcDbEntity
  8
NOTCH
100
AcDbLine
 10
56.791177944257235
 20
81.77838301516813
 30
0.0
 11
56.791177944257235
 21
82.77838301516813
 31
0.0
  0
LINE
  5
A1
330
17
100
AcDbEntity
  8
NOTCH
100
AcDbLine
 10
73.79117794425724
 20
81.77838301516813
 30
0.0
 11
73.79117794425724
 21
82.77838301516813
 31
0.0
  0
LINE
  5
A2
330
17
100
AcDbEntity
  8
GRAINLINE
100
AcDbLine
 10
58.291177944257235
 20
80.81838301516814
 30
0.0
 11
58.291177944257235
 21
70.73838301516813
 31
0.0
  0
LINE
  5
A3
330
17
100
AcDbEntity
  8
GRAINLINE
100
AcDbLine
 10
57.89117794425724
 20
80.41838301516813
 30
0.0
 11
58.291177944257235
 21
80.81838301516814
 31
0.0
  0
LINE
  5
A4
330
17
100
AcDbEntity
  8
GRAINLINE
100
AcDbLine
 10
58.691177944257234
 20
80.41838301516813
 30
0.0
 11
58.291177944257235
 21
80.81838301516814
 31
0.0
  0
LINE
  5
A5
330
17
100
AcDbEntity
  8
GRAINLINE
100
AcDbLine
 10
57.89117794425724
 20
71.13838301516813
 30
0.0
 11
58.291177944257235
 21
70.73838301516813
 31
0.0
  0
LINE
  5
A6
330
17
100
AcDbEntity
  8
GRAINLINE
100
AcDbLine
 10
58.691177944257234
 20
71.13838301516813
 30
0.0
 11
58.291177944257235
 21
70.73838301516813
 31
0.0
  0
TEXT
  5
A7
330
17
100
AcDbEntity
  8
LABEL
100
AcDbText
 10
58.29117794425724
 20
75.77838301516813
 30
0.0
 40
0.9
  1
ウエストバンド（ワイド）
 72
1
 11
58.29117794425724
 21
75.77838301516813
 31
0.0
100
AcDbText
 73
2
  0
TEXT
  5
A8
330
17
100
AcDbEntity
  8
LABEL_ID
100
AcDbText
 10
58.29117794425724
 20
74.57838301516813
 30
0.0
 40
0.55
  1
waistband(wide)
 72
1
 11
58.29117794425724
 21
74.57838301516813
 31
0.0
100
AcDbText
 73
2
  0
LWPOLYLINE
  5
A9
330
17
100
AcDbEntity
  8
CUT_LINE
100
AcDbPolyline
 90
7
 70
1
 10
0.0
 20
82.77838301516813
 10
0.0
 20
36.393140672167476
 10
19.325891846485586
 20
15.032944420788652
 10
39.2168883493043
 20
0.37642068186960387
 10
48.15638700308232
 20
12.668231330814365
 10
24.89997030946742
 20
62.21451037373308
 10
14.618033988749895
 20
82.77838301516813
  0
LWPOLYLINE
  5
AA
330
17
100
AcDbEntity
  8
STITCH_LINE
  6
DASHED
100
AcDbPolyline
 90
7
 70
1
 10
1.0
 20
81.77838301516813
 10
14.0
 20
81.77838301516813
 10
24.0
 20
61.77838301516813
 10
47.0
 20
12.778383015168117
 10
39.0
 20
1.7783830151681173
 10
20.0
 20
15.778383015168117
 10
1.0
 20
36.77838301516812
  0
LINE
  5
AB
330
17
100
AcDbEntity
  8
NOTCH
100
AcDbLine
 10
1.0
 20
81.77838301516813
 30
0.0
 11
1.0
 21
82.77838301516813
 31
0.0
  0
LINE
  5
AC
330
17
100
AcDbEntity
  8
GRAINLINE
100
AcDbLine
 10
13.65
 20
77.05985669937866
 30
0.0
 11
13.65
 21
27.515330383589173
 31
0.0
  0
LINE
  5
AD
330
17
100
AcDbEntity
  8
GRAINLINE
100
AcDbLine
 10
12.15
 20
75.55985669937866
 30
0.0
 11
13.65
 21
77.05985669937866
 31
0.0
  0
LINE
  5
AE
330
17
100
AcDbEntity
  8
GRAINLINE
100
AcDbLine
 10
15.15
 20
75.55985669937866
 30
0.0
 11
13.65
 21
77.05985669937866
 31
0.0
  0
LINE
  5
AF
330
17
100
AcDbEntity
  8
GRAINLINE
100
AcDbLine
 10
12.15
 20
29.015330383589173
 30
0.0
 11
13.65
 21
27.515330383589173
 31
0.0
  0
LINE
  5
B0
330
17
100
AcDbEntity
  8
GRAINLINE
100
AcDbLine
 10
15.15
 20
29.015330383589173
 30
0.0
 11
13.65
 21
27.515330383589173
 31
0.0
  0
TEXT
  5
B1
330
17
100
AcDbEntity
  8
LABEL
100
AcDbText
 10
24.07819350154116
 20
41.57740184851886
 30
0.0
 40
0.9
  1
SHOULDER CAPE
 72
1
 11
24.07819350154116
 21
41.57740184851886
 31
0.0
100
AcDbText
 73
2
  0
TEXT
  5
B2
330
17
100
AcDbEntity
  8
LABEL_ID
100
AcDbText
 10
24.07819350154116
 20
40.37740184851886
 30
0.0
 40
0.55
  1
custom_panel(SHOULDER CAPE)
 72
1
 11
24.07819350154116
 21
40.37740184851886
 31
0.0
100
AcDbText
 73
2
  0
LWPOLYLINE
  5
B3
330
17
100
AcDbEntity
  8
CUT_LINE
100
AcDbPolyline
 90
4
 70
1
 10
94.94382326363403
 20
82.77838301516813
 10
94.94382326363403
 20
76.77838301516813
 10
106.94382326363403
 20
76.77838301516813
 10
106.94382326363403
 20
82.77838301516813
  0
LWPOLYLINE
  5
B4
330
17
100
AcDbEntity
  8
STITCH_LINE
  6
DASHED
100
AcDbPolyline
 90
4
 70
1
 10
95.94382326363403
 20
81.77838301516813
 10
105.94382326363403
 20
81.77838301516813
 10
105.94382326363403
 20
77.77838301516813
 10
95.94382326363403
 20
77.77838301516813
  0
LINE
  5
B5
330
17
100
AcDbEntity
  8
NOTCH
100
AcDbLine
 10
95.94382326363403
 20
81.77838301516813
 30
0.0
 11
95.94382326363403
 21
82.77838301516813
 31
0.0
  0
LINE
  5
B6
330
17
100
AcDbEntity
  8
GRAINLINE
100
AcDbLine
 10
100.94382326363403
 20
81.45838301516814
 30
0.0
 11
100.94382326363403
 21
78.09838301516814
 31
0.0
  0
LINE
  5
B7
330
17
100
AcDbEntity
  8
GRAINLINE
100
AcDbLine
 10
100.54382326363402
 20
81.05838301516813
 30
0.0
 11
100.94382326363403
 21
81.45838301516814
 31
0.0
  0
LINE
  5
B8
330
17
100
AcDbEntity
  8
GRAINLINE
100
AcDbLine
 10
101.34382326363404
 20
81.05838301516813
 30
0.0
 11
100.94382326363403
 21
81.45838301516814
 31
0.0
  0
LINE
  5
B9
330
17
100
AcDbEntity
  8
GRAINLINE
100
AcDbLine
 10
100.54382326363402
 20
78.49838301516813
 30
0.0
 11
100.94382326363403
 21
78.09838301516814
 31
0.0
  0
LINE
  5
BA
330
17
100
AcDbEntity
  8
GRAINLINE
100
AcDbLine
 10
101.34382326363404
 20
78.49838301516813
 30
0.0
 11
100.94382326363403
 21
78.09838301516814
 31
0.0
  0
TEXT
  5
BB
330
17
100
AcDbEntity
  8
LABEL
100
AcDbText
 10
100.94382326363403
 20
79.77838301516813
 30
0.0
 40
0.9
  1
CAPE SHOULDER TAB-1
 72
1
 11
100.94382326363403
 21
79.77838301516813
 31
0.0
100
AcDbText
 73
2
  0
TEXT
  5
BC
330
17
100
AcDbEntity
  8
LABEL_ID
100
AcDbText
 10
100.94382326363403
 20
78.57838301516813
 30
0.0
 40
0.55
  1
custom_panel(CAPE SHOULDER TAB-1)
 72
1
 11
100.94382326363403
 21
78.57838301516813
 31
0.0
100
AcDbText
 73
2
  0
LWPOLYLINE
  5
BD
330
17
100
AcDbEntity
  8
CUT_LINE
100
AcDbPolyline
 90
4
 70
1
 10
107.10162655568985
 20
82.77838301516813
 10
107.10162655568985
 20
76.77838301516813
 10
119.10162655568985
 20
76.77838301516813
 10
119.10162655568985
 20
82.77838301516813
  0
LWPOLYLINE
  5
BE
330
17
100
AcDbEntity
  8
STITCH_LINE
  6
DASHED
100
AcDbPolyline
 90
4
 70
1
 10
108.10162655568985
 20
81.77838301516813
 10
118.10162655568985
 20
81.77838301516813
 10
118.10162655568985
 20
77.77838301516813
 10
108.10162655568985
 20
77.77838301516813
  0
LINE
  5
BF
330
17
100
AcDbEntity
  8
NOTCH
100
AcDbLine
 10
108.10162655568985
 20
81.77838301516813
 30
0.0
 11
108.10162655568985
 21
82.77838301516813
 31
0.0
  0
LINE
  5
C0
330
17
100
AcDbEntity
  8
GRAINLINE
100
AcDbLine
 10
113.10162655568985
 20
81.45838301516814
 30
0.0
 11
113.10162655568985
 21
78.09838301516814
 31
0.0
  0
LINE
  5
C1
330
17
100
AcDbEntity
  8
GRAINLINE
100
AcDbLine
 10
112.70162655568984
 20
81.05838301516813
 30
0.0
 11
113.10162655568985
 21
81.45838301516814
 31
0.0
  0
LINE
  5
C2
330
17
100
AcDbEntity
  8
GRAINLINE
100
AcDbLine
 10
113.50162655568985
 20
81.05838301516813
 30
0.0
 11
113.10162655568985
 21
81.45838301516814
 31
0.0
  0
LINE
  5
C3
330
17
100
AcDbEntity
  8
GRAINLINE
100
AcDbLine
 10
112.70162655568984
 20
78.49838301516813
 30
0.0
 11
113.10162655568985
 21
78.09838301516814
 31
0.0
  0
LINE
  5
C4
330
17
100
AcDbEntity
  8
GRAINLINE
100
AcDbLine
 10
113.50162655568985
 20
78.49838301516813
 30
0.0
 11
113.10162655568985
 21
78.09838301516814
 31
0.0
  0
TEXT
  5
C5
330
17
100
AcDbEntity
  8
LABEL
100
AcDbText
 10
113.10162655568985
 20
79.77838301516813
 30
0.0
 40
0.9
  1
CAPE SHOULDER TAB-2
 72
1
 11
113.10162655568985
 21
79.77838301516813
 31
0.0
100
AcDbText
 73
2
  0
TEXT
  5
C6
330
17
100
AcDbEntity
  8
LABEL_ID
100
AcDbText
 10
113.10162655568985
 20
78.57838301516813
 30
0.0
 40
0.55
  1
custom_panel(CAPE SHOULDER TAB-2)
 72
1
 11
113.10162655568985
 21
78.57838301516813
 31
0.0
100
AcDbText
 73
2
  0
ENDSEC
  0
SECTION
  2
OBJECTS
  0
DICTIONARY
  5
A
330
0
100
AcDbDictionary
281
1
  3
ACAD_COLOR
350
B
  3
ACAD_GROUP
350
C
  3
ACAD_LAYOUT
350
D
  3
ACAD_MATERIAL
350
E
  3
ACAD_MLEADERSTYLE
350
F
  3
ACAD_MLINESTYLE
350
10
  3
ACAD_PLOTSETTINGS
350
11
  3
ACAD_PLOTSTYLENAME
350
12
  3
ACAD_SCALELIST
350
14
  3
ACAD_TABLESTYLE
350
15
  3
ACAD_VISUALSTYLE
350
16
  3
EZDXF_META
350
2D
  0
DICTIONARY
  5
B
330
A
100
AcDbDictionary
281
1
  0
DICTIONARY
  5
C
330
A
100
AcDbDictionary
281
1
  0
DICTIONARY
  5
D
330
A
100
AcDbDictionary
281
1
  3
Model
350
1A
  3
Layout1
350
1E
  0
DICTIONARY
  5
E
330
A
100
AcDbDictionary
281
1
  3
ByBlock
350
1F
  3
ByLayer
350
20
  3
Global
350
21
  0
DICTIONARY
  5
F
330
A
100
AcDbDictionary
281
1
  3
Standard
350
2C
  0
DICTIONARY
  5
10
330
A
100
AcDbDictionary
281
1
  3
Standard
350
22
  0
DICTIONARY
  5
11
330
A
100
AcDbDictionary
281
1
  0
ACDBDICTIONARYWDFLT
  5
12
330
A
100
AcDbDictionary
281
1
  3
Normal
350
13
100
AcDbDictionaryWithDefault
340
13
  0
ACDBPLACEHOLDER
  5
13
330
12
  0
DICTIONARY
  5
14
330
A
100
AcDbDictionary
281
1
  0
DICTIONARY
  5
15
330
A
100
AcDbDictionary
281
1
  0
DICTIONARY
  5
16
330
A
100
AcDbDictionary
281
1
  0
LAYOUT
  5
1A
330
D
100
AcDbPlotSettings
  1

  4
A3
  6

 40
7.5
 41
20.0
 42
7.5
 43
20.0
 44
420.0
 45
297.0
 46
0.0
 47
0.0
 48
0.0
 49
0.0
140
0.0
141
0.0
142
1.0
143
1.0
 70
1024
 72
1
 73
0
 74
5
  7

 75
16
 76
0
 77
2
 78
300
147
1.0
148
0.0
149
0.0
100
AcDbLayout
  1
Model
 70
1
 71
0
 10
0.0
 20
0.0
 11
420.0
 21
297.0
 12
0.0
 22
0.0
 32
0.0
 14
1e+20
 24
1e+20
 34
1e+20
 15
-1e+20
 25
-1e+20
 35
-1e+20
146
0.0
 13
0.0
 23
0.0
 33
0.0
 16
1.0
 26
0.0
 36
0.0
 17
0.0
 27
1.0
 37
0.0
 76
1
330
17
  0
LAYOUT
  5
1E
330
D
100
AcDbPlotSettings
  1

  4
A3
  6

 40
7.5
 41
20.0
 42
7.5
 43
20.0
 44
420.0
 45
297.0
 46
0.0
 47
0.0
 48
0.0
 49
0.0
140
0.0
141
0.0
142
1.0
143
1.0
 70
0
 72
1
 73
0
 74
5
  7

 75
16
 76
0
 77
2
 78
300
147
1.0
148
0.0
149
0.0
100
AcDbLayout
  1
Layout1
 70
1
 71
1
 10
0.0
 20
0.0
 11
420.0
 21
297.0
 12
0.0
 22
0.0
 32
0.0
 14
1e+20
 24
1e+20
 34
1e+20
 15
-1e+20
 25
-1e+20
 35
-1e+20
146
0.0
 13
0.0
 23
0.0
 33
0.0
 16
1.0
 26
0.0
 36
0.0
 17
0.0
 27
1.0
 37
0.0
 76
1
330
1B
  0
MATERIAL
  5
1F
102
{ACAD_REACTORS
330
E
102
}
330
E
100
AcDbMaterial
  1
ByBlock
  2

 70
0
 40
1.0
 71
1
 41
1.0
 91
-1023410177
 42
1.0
 72
1
  3

 73
1
 74
1
 75
1
 44
0.5
 73
0
 45
1.0
 46
1.0
 77
1
  4

 78
1
 79
1
170
1
 48
1.0
171
1
  6

172
1
173
1
174
1
140
1.0
141
1.0
175
1
  7

176
1
177
1
178
1
143
1.0
179
1
  8

270
1
271
1
272
1
145
1.0
146
1.0
273
1
  9

274
1
275
1
276
1
 42
1.0
 72
1
  3

 73
1
 74
1
 75
1
 94
63
  0
MATERIAL
  5
20
102
{ACAD_REACTORS
330
E
102
}
330
E
100
AcDbMaterial
  1
ByLayer
  2

 70
0
 40
1.0
 71
1
 41
1.0
 91
-1023410177
 42
1.0
 72
1
  3

 73
1
 74
1
 75
1
 44
0.5
 73
0
 45
1.0
 46
1.0
 77
1
  4

 78
1
 79
1
170
1
 48
1.0
171
1
  6

172
1
173
1
174
1
140
1.0
141
1.0
175
1
  7

176
1
177
1
178
1
143
1.0
179
1
  8

270
1
271
1
272
1
145
1.0
146
1.0
273
1
  9

274
1
275
1
276
1
 42
1.0
 72
1
  3

 73
1
 74
1
 75
1
 94
63
  0
MATERIAL
  5
21
102
{ACAD_REACTORS
330
E
102
}
330
E
100
AcDbMaterial
  1
Global
  2

 70
0
 40
1.0
 71
1
 41
1.0
 91
-1023410177
 42
1.0
 72
1
  3

 73
1
 74
1
 75
1
 44
0.5
 73
0
 45
1.0
 46
1.0
 77
1
  4

 78
1
 79
1
170
1
 48
1.0
171
1
  6

172
1
173
1
174
1
140
1.0
141
1.0
175
1
  7

176
1
177
1
178
1
143
1.0
179
1
  8

270
1
271
1
272
1
145
1.0
146
1.0
273
1
  9

274
1
275
1
276
1
 42
1.0
 72
1
  3

 73
1
 74
1
 75
1
 94
63
  0
MLINESTYLE
  5
22
102
{ACAD_REACTORS
330
10
102
}
330
10
100
AcDbMlineStyle
  2
Standard
 70
0
  3

 62
256
 51
90.0
 52
90.0
 71
2
 49
0.5
 62
256
  6
BYLAYER
 49
-0.5
 62
256
  6
BYLAYER
  0
MLEADERSTYLE
  5
2C
102
{ACAD_REACTORS
330
F
102
}
330
F
100
AcDbMLeaderStyle
179
2
170
2
171
1
172
0
 90
2
 40
0.0
 41
0.0
173
1
 91
-1056964608
 92
-2
290
1
 42
2.0
291
1
 43
8.0
  3
Standard
 44
4.0
300

342
29
174
1
175
1
176
0
178
1
 93
-1056964608
 45
4.0
292
0
297
0
 46
4.0
 94
-1056964608
 47
1.0
 49
1.0
140
1.0
294
1
141
0.0
177
0
142
1.0
295
0
296
0
143
3.75
271
0
272
9
273
9
  0
DICTIONARY
  5
2D
330
A
100
AcDbDictionary
280
1
281
1
  3
CREATED_BY_EZDXF
350
2E
  3
WRITTEN_BY_EZDXF
350
C9
  0
DICTIONARYVAR
  5
2E
330
2D
100
DictionaryVariables
280
0
  1
1.4.4 @ 2026-10-10T00:52:52.681161+00:00
  0
DICTIONARYVAR
  5
C9
330
2D
100
DictionaryVariables
280
0
  1
1.4.4 @ 2026-10-10T00:52:52.686881+00:00
  0
ENDSEC
  0
EOF
