  0
SECTION
  2
HEADER
  9
$ACADVER
  1
AC1024
  9
$ACADMAINTVER
 70
6
  9
$DWGCODEPAGE
  3
ANSI_1252
  9
$LASTSAVEDBY
  1
ezdxf
  9
$INSBASE
 10
0.0
 20
0.0
 30
0.0
  9
$EXTMIN
 10
1e+20
 20
1e+20
 30
1e+20
  9
$EXTMAX
 10
-1e+20
 20
-1e+20
 30
-1e+20
  9
$LIMMIN
 10
0.0
 20
0.0
  9
$LIMMAX
 10
420.0
 20
297.0
  9
$ORTHOMODE
 70
0
  9
$REGENMODE
 70
1
  9
$FILLMODE
 70
1
  9
$QTEXTMODE
 70
0
  9
$MIRRTEXT
 70
1
  9
$LTSCALE
 40
1.0
  9
$ATTMODE
 70
1
  9
$TEXTSIZE
 40
2.5
  9
$TRACEWID
 40
1.0
  9
$TEXTSTYLE
  7
Standard
  9
$CLAYER
  8
0
  9
$CELTYPE
  6
ByLayer
  9
$CECOLOR
 62
256
  9
$CELTSCALE
 40
1.0
  9
$DISPSILH
 70
0
  9
$DIMSCALE
 40
1.0
  9
$DIMASZ
 40
2.5
  9
$DIMEXO
 40
0.625
  9
$DIMDLI
 40
3.75
  9
$DIMRND
 40
0.0
  9
$DIMDLE
 40
0.0
  9
$DIMEXE
 40
1.25
  9
$DIMTP
 40
0.0
  9
$DIMTM
 40
0.0
  9
$DIMTXT
 40
2.5
  9
$DIMCEN
 40
2.5
  9
$DIMTSZ
 40
0.0
  9
$DIMTOL
 70
0
  9
$DIMLIM
 70
0
  9
$DIMTIH
 70
0
  9
$DIMTOH
 70
0
  9
$DIMSE1
 70
0
  9
$DIMSE2
 70
0
  9
$DIMTAD
 70
1
  9
$DIMZIN
 70
8
  9
$DIMBLK
  1

  9
$DIMASO
 70
1
  9
$DIMSHO
 70
1
  9
$DIMPOST
  1

  9
$DIMAPOST
  1

  9
$DIMALT
 70
0
  9
$DIMALTD
 70
3
  9
$DIMALTF
 40
0.03937007874
  9
$DIMLFAC
 40
1.0
  9
$DIMTOFL
 70
1
  9
$DIMTVP
 40
0.0
  9
$DIMTIX
 70
0
  9
$DIMSOXD
 70
0
  9
$DIMSAH
 70
0
  9
$DIMBLK1
  1

  9
$DIMBLK2
  1

  9
$DIMSTYLE
  2
ISO-25
  9
$DIMCLRD
 70
0
  9
$DIMCLRE
 70
0
  9
$DIMCLRT
 70
0
  9
$DIMTFAC
 40
1.0
  9
$DIMGAP
 40
0.625
  9
$DIMJUST
 70
0
  9
$DIMSD1
 70
0
  9
$DIMSD2
 70
0
  9
$DIMTOLJ
 70
0
  9
$DIMTZIN
 70
8
  9
$DIMALTZ
 70
0
  9
$DIMALTTZ
 70
0
  9
$DIMUPT
 70
0
  9
$DIMDEC
 70
2
  9
$DIMTDEC
 70
2
  9
$DIMALTU
 70
2
  9
$DIMALTTD
 70
3
  9
$DIMTXSTY
  7
Standard
  9
$DIMAUNIT
 70
0
  9
$DIMADEC
 70
0
  9
$DIMALTRND
 40
0.0
  9
$DIMAZIN
 70
0
  9
$DIMDSEP
 70
44
  9
$DIMATFIT
 70
3
  9
$DIMFRAC
 70
0
  9
$DIMLDRBLK
  1

  9
$DIMLUNIT
 70
2
  9
$DIMLWD
 70
-2
  9
$DIMLWE
 70
-2
  9
$DIMTMOVE
 70
0
  9
$DIMFXL
 40
1.0
  9
$DIMFXLON
 70
0
  9
$DIMJOGANG
 40
0.785398163397
  9
$DIMTFILL
 70
0
  9
$DIMTFILLCLR
 70
0
  9
$DIMARCSYM
 70
0
  9
$DIMLTYPE
  6

  9
$DIMLTEX1
  6

  9
$DIMLTEX2
  6

  9
$DIMTXTDIRECTION
 70
0
  9
$LUNITS
 70
2
  9
$LUPREC
 70
4
  9
$SKETCHINC
 40
1.0
  9
$FILLETRAD
 40
10.0
  9
$AUNITS
 70
0
  9
$AUPREC
 70
2
  9
$MENU
  1
.
  9
$ELEVATION
 40
0.0
  9
$PELEVATION
 40
0.0
  9
$THICKNESS
 40
0.0
  9
$LIMCHECK
 70
0
  9
$CHAMFERA
 40
0.0
  9
$CHAMFERB
 40
0.0
  9
$CHAMFERC
 40
0.0
  9
$CHAMFERD
 40
0.0
  9
$SKPOLY
 70
0
  9
$TDCREATE
 40
2461324.4011921296
  9
$TDUCREATE
 40
2458532.153996898
  9
$TDUPDATE
 40
2461324.4011921296
  9
$TDUUPDATE
 40
2458532.1544311
  9
$TDINDWG
 40
0.0
  9
$TDUSRTIMER
 40
0.0
  9
$USRTIMER
 70
1
  9
$ANGBASE
 50
0.0
  9
$ANGDIR
 70
0
  9
$PDMODE
 70
0
  9
$PDSIZE
 40
0.0
  9
$PLINEWID
 40
0.0
  9
$SPLFRAME
 70
0
  9
$SPLINETYPE
 70
6
  9
$SPLINESEGS
 70
8
  9
$HANDSEED
  5
9F
  9
$SURFTAB1
 70
6
  9
$SURFTAB2
 70
6
  9
$SURFTYPE
 70
6
  9
$SURFU
 70
6
  9
$SURFV
 70
6
  9
$UCSBASE
  2

  9
$UCSNAME
  2

  9
$UCSORG
 10
0.0
 20
0.0
 30
0.0
  9
$UCSXDIR
 10
1.0
 20
0.0
 30
0.0
  9
$UCSYDIR
 10
0.0
 20
1.0
 30
0.0
  9
$UCSORTHOREF
  2

  9
$UCSORTHOVIEW
 70
0
  9
$UCSORGTOP
 10
0.0
 20
0.0
 30
0.0
  9
$UCSORGBOTTOM
 10
0.0
 20
0.0
 30
0.0
  9
$UCSORGLEFT
 10
0.0
 20
0.0
 30
0.0
  9
$UCSORGRIGHT
 10
0.0
 20
0.0
 30
0.0
  9
$UCSORGFRONT
 10
0.0
 20
0.0
 30
0.0
  9
$UCSORGBACK
 10
0.0
 20
0.0
 30
0.0
  9
$PUCSBASE
  2

  9
$PUCSNAME
  2

  9
$PUCSORG
 10
0.0
 20
0.0
 30
0.0
  9
$PUCSXDIR
 10
1.0
 20
0.0
 30
0.0
  9
$PUCSYDIR
 10
0.0
 20
1.0
 30
0.0
  9
$PUCSORTHOREF
  2

  9
$PUCSORTHOVIEW
 70
0
  9
$PUCSORGTOP
 10
0.0
 20
0.0
 30
0.0
  9
$PUCSORGBOTTOM
 10
0.0
 20
0.0
 30
0.0
  9
$PUCSORGLEFT
 10
0.0
 20
0.0
 30
0.0
  9
$PUCSORGRIGHT
 10
0.0
 20
0.0
 30
0.0
  9
$PUCSORGFRONT
 10
0.0
 20
0.0
 30
0.0
  9
$PUCSORGBACK
 10
0.0
 20
0.0
 30
0.0
  9
$USERI1
 70
0
  9
$USERI2
 70
0
  9
$USERI3
 70
0
  9
$USERI4
 70
0
  9
$USERI5
 70
0
  9
$USERR1
 40
0.0
  9
$USERR2
 40
0.0
  9
$USERR3
 40
0.0
  9
$USERR4
 40
0.0
  9
$USERR5
 40
0.0
  9
$WORLDVIEW
 70
1
  9
$SHADEDGE
 70
3
  9
$SHADEDIF
 70
70
  9
$TILEMODE
 70
1
  9
$MAXACTVP
 70
64
  9
$PINSBASE
 10
0.0
 20
0.0
 30
0.0
  9
$PLIMCHECK
 70
0
  9
$PEXTMIN
 10
1e+20
 20
1e+20
 30
1e+20
  9
$PEXTMAX
 10
-1e+20
 20
-1e+20
 30
-1e+20
  9
$PLIMMIN
 10
0.0
 20
0.0
  9
$PLIMMAX
 10
420.0
 20
297.0
  9
$UNITMODE
 70
0
  9
$VISRETAIN
 70
1
  9
$PLINEGEN
 70
0
  9
$PSLTSCALE
 70
1
  9
$TREEDEPTH
 70
3020
  9
$CMLSTYLE
  2
Standard
  9
$CMLJUST
 70
0
  9
$CMLSCALE
 40
20.0
  9
$PROXYGRAPHICS
 70
1
  9
$MEASUREMENT
 70
1
  9
$CELWEIGHT
370
-1
  9
$ENDCAPS
280
0
  9
$JOINSTYLE
280
0
  9
$LWDISPLAY
290
0
  9
$INSUNITS
 70
5
  9
$HYPERLINKBASE
  1

  9
$STYLESHEET
  1

  9
$XEDIT
290
1
  9
$CEPSNTYPE
380
0
  9
$PSTYLEMODE
290
1
  9
$FINGERPRINTGUID
  2
{A513A166-6CA2-460F-8CB1-FEB8B8FB9876}
  9
$VERSIONGUID
  2
{571D31E0-8B0B-4FBF-94BF-90A171CE083A}
  9
$EXTNAMES
290
1
  9
$PSVPSCALE
 40
0.0
  9
$OLESTARTUP
290
0
  9
$SORTENTS
280
127
  9
$INDEXCTL
280
0
  9
$HIDETEXT
280
1
  9
$XCLIPFRAME
280
1
  9
$HALOGAP
280
0
  9
$OBSCOLOR
 70
257
  9
$OBSLTYPE
280
0
  9
$INTERSECTIONDISPLAY
280
0
  9
$INTERSECTIONCOLOR
 70
257
  9
$DIMASSOC
280
2
  9
$PROJECTNAME
  1

  9
$CAMERADISPLAY
290
0
  9
$LENSLENGTH
 40
50.0
  9
$CAMERAHEIGHT
 40
0.0
  9
$STEPSPERSEC
 40
24.0
  9
$STEPSIZE
 40
100.0
  9
$3DDWFPREC
 40
2.0
  9
$PSOLWIDTH
 40
0.005
  9
$PSOLHEIGHT
 40
0.08
  9
$LOFTANG1
 40
1.570796326795
  9
$LOFTANG2
 40
1.570796326795
  9
$LOFTMAG1
 40
0.0
  9
$LOFTMAG2
 40
0.0
  9
$LOFTPARAM
 70
7
  9
$LOFTNORMALS
280
1
  9
$LATITUDE
 40
37.795
  9
$LONGITUDE
 40
-122.394
  9
$NORTHDIRECTION
 40
0.0
  9
$TIMEZONE
 70
-8000
  9
$LIGHTGLYPHDISPLAY
280
1
  9
$TILEMODELIGHTSYNCH
280
1
  9
$CMATERIAL
347
20
  9
$SOLIDHIST
280
0
  9
$SHOWHIST
280
1
  9
$DWFFRAME
280
2
  9
$DGNFRAME
280
2
  9
$REALWORLDSCALE
290
1
  9
$INTERFERECOLOR
 62
256
  9
$CSHADOW
280
0
  9
$SHADOWPLANELOCATION
 40
0.0
  0
ENDSEC
  0
SECTION
  2
CLASSES
  0
CLASS
  1
ACDBDICTIONARYWDFLT
  2
AcDbDictionaryWithDefault
  3
ObjectDBX Classes
 90
0
 91
0
280
0
281
0
  0
CLASS
  1
SUN
  2
AcDbSun
  3
SCENEOE
 90
1153
 91
0
280
0
281
0
  0
CLASS
  1
VISUALSTYLE
  2
AcDbVisualStyle
  3
ObjectDBX Classes
 90
4095
 91
0
280
0
281
0
  0
CLASS
  1
MATERIAL
  2
AcDbMaterial
  3
ObjectDBX Classes
 90
1153
 91
0
280
0
281
0
  0
CLASS
  1
SCALE
  2
AcDbScale
  3
ObjectDBX Classes
 90
1153
 91
0
280
0
281
0
  0
CLASS
  1
TABLESTYLE
  2
AcDbTableStyle
  3
ObjectDBX Classes
 90
4095
 91
0
280
0
281
0
  0
CLASS
  1
MLEADERSTYLE
  2
AcDbMLeaderStyle
  3
ACDB_MLEADERSTYLE_CLASS
 90
4095
 91
0
280
0
281
0
  0
CLASS
  1
DICTIONARYVAR
  2
AcDbDictionaryVar
  3
ObjectDBX Classes
 90
0
 91
0
280
0
281
0
  0
CLASS
  1
CELLSTYLEMAP
  2
AcDbCellStyleMap
  3
ObjectDBX Classes
 90
1152
 91
0
280
0
281
0
  0
CLASS
  1
MENTALRAYRENDERSETTINGS
  2
AcDbMentalRayRenderSettings
  3
SCENEOE
 90
1024
 91
0
280
0
281
0
  0
CLASS
  1
ACDBDETAILVIEWSTYLE
  2
AcDbDetailViewStyle
  3
ObjectDBX Classes
 90
1025
 91
0
280
0
281
0
  0
CLASS
  1
ACDBSECTIONVIEWSTYLE
  2
AcDbSectionViewStyle
  3
ObjectDBX Classes
 90
1025
 91
0
280
0
281
0
  0
CLASS
  1
RASTERVARIABLES
  2
AcDbRasterVariables
  3
ISM
 90
0
 91
0
280
0
281
0
  0
CLASS
  1
ACDBPLACEHOLDER
  2
AcDbPlaceHolder
  3
ObjectDBX Classes
 90
0
 91
0
280
0
281
0
  0
CLASS
  1
LAYOUT
  2
AcDbLayout
  3
ObjectDBX Classes
 90
0
 91
0
280
0
281
0
  0
ENDSEC
  0
SECTION
  2
TABLES
  0
TABLE
  2
VPORT
  5
8
330
0
100
AcDbSymbolTable
 70
1
  0
VPORT
  5
23
330
8
100
AcDbSymbolTableRecord
100
AcDbViewportTableRecord
  2
*Active
 70
0
 10
0.0
 20
0.0
 11
1.0
 21
1.0
 12
0.0
 22
0.0
 13
0.0
 23
0.0
 14
0.5
 24
0.5
 15
0.5
 25
0.5
 16
0.0
 26
0.0
 36
1.0
 17
0.0
 27
0.0
 37
0.0
 40
1000.0
 41
1.34
 42
50.0
 43
0.0
 44
0.0
 50
0.0
 51
0.0
 71
0
 72
1000
 73
1
 74
3
 75
0
 76
0
 77
0
 78
0
281
0
 65
0
146
0.0
  0
ENDTAB
  0
TABLE
  2
LTYPE
  5
2
330
0
100
AcDbSymbolTable
 70
4
  0
LTYPE
  5
24
330
2
100
AcDbSymbolTableRecord
100
AcDbLinetypeTableRecord
  2
ByBlock
 70
0
  3

 72
65
 73
0
 40
0.0
  0
LTYPE
  5
25
330
2
100
AcDbSymbolTableRecord
100
AcDbLinetypeTableRecord
  2
ByLayer
 70
0
  3

 72
65
 73
0
 40
0.0
  0
LTYPE
  5
26
330
2
100
AcDbSymbolTableRecord
100
AcDbLinetypeTableRecord
  2
Continuous
 70
0
  3

 72
65
 73
0
 40
0.0
  0
LTYPE
  5
2F
330
2
100
AcDbSymbolTableRecord
100
AcDbLinetypeTableRecord
  2
DASHED
 70
0
  3
Dashed
 72
65
 73
2
 40
0.6
 49
0.5
 74
0
 49
-0.1
 74
0
  0
ENDTAB
  0
TABLE
  2
LAYER
  5
1
330
0
100
AcDbSymbolTable
 70
10
  0
LAYER
  5
27
330
1
100
AcDbSymbolTableRecord
100
AcDbLayerTableRecord
  2
0
 70
0
 62
7
  6
Continuous
370
-3
390
13
347
21
  0
LAYER
  5
28
330
1
100
AcDbSymbolTableRecord
100
AcDbLayerTableRecord
  2
Defpoints
 70
0
 62
7
  6
Continuous
290
0
370
-3
390
13
347
21
  0
LAYER
  5
30
330
1
100
AcDbSymbolTableRecord
100
AcDbLayerTableRecord
  2
CUT_LINE
 70
0
 62
7
  6
Continuous
370
-3
390
13
347
21
  0
LAYER
  5
31
330
1
100
AcDbSymbolTableRecord
100
AcDbLayerTableRecord
  2
STITCH_LINE
 70
0
 62
3
  6
Continuous
370
-3
390
13
347
21
  0
LAYER
  5
32
330
1
100
AcDbSymbolTableRecord
100
AcDbLayerTableRecord
  2
NOTCH
 70
0
 62
1
  6
Continuous
370
-3
390
13
347
21
  0
LAYER
  5
33
330
1
100
AcDbSymbolTableRecord
100
AcDbLayerTableRecord
  2
GRAINLINE
 70
0
 62
5
  6
Continuous
370
-3
390
13
347
21
  0
LAYER
  5
34
330
1
100
AcDbSymbolTableRecord
100
AcDbLayerTableRecord
  2
LABEL
 70
0
 62
8
  6
Continuous
370
-3
390
13
347
21
  0
LAYER
  5
35
330
1
100
AcDbSymbolTableRecord
100
AcDbLayerTableRecord
  2
LABEL_ID
 70
0
 62
8
  6
Continuous
370
-3
390
13
347
21
  0
LAYER
  5
36
330
1
100
AcDbSymbolTableRecord
100
AcDbLayerTableRecord
  2
WARNING
 70
0
 62
1
  6
Continuous
370
-3
390
13
347
21
  0
LAYER
  5
37
330
1
100
AcDbSymbolTableRecord
100
AcDbLayerTableRecord
  2
REFERENCE_LINE
 70
0
 62
6
  6
Continuous
370
-3
390
13
347
21
  0
ENDTAB
  0
TABLE
  2
STYLE
  5
5
330
0
100
AcDbSymbolTable
 70
1
  0
STYLE
  5
29
330
5
100
AcDbSymbolTableRecord
100
AcDbTextStyleTableRecord
  2
Standard
 70
0
 40
0.0
 41
1.0
 50
0.0
 71
0
 42
2.5
  3
txt
  4

  0
ENDTAB
  0
TABLE
  2
VIEW
  5
7
330
0
100
AcDbSymbolTable
 70
0
  0
ENDTAB
  0
TABLE
  2
UCS
  5
6
330
0
100
AcDbSymbolTable
 70
0
  0
ENDTAB
  0
TABLE
  2
APPID
  5
3
330
0
100
AcDbSymbolTable
 70
3
  0
APPID
  5
2A
330
3
100
AcDbSymbolTableRecord
100
AcDbRegAppTableRecord
  2
ACAD
 70
0
  0
APPID
  5
9C
330
3
100
AcDbSymbolTableRecord
100
AcDbRegAppTableRecord
  2
HATCHBACKGROUNDCOLOR
 70
0
  0
APPID
  5
9D
330
3
100
AcDbSymbolTableRecord
100
AcDbRegAppTableRecord
  2
EZDXF
 70
0
  0
ENDTAB
  0
TABLE
  2
DIMSTYLE
  5
4
330
0
100
AcDbSymbolTable
 70
1
100
AcDbDimStyleTable
  0
DIMSTYLE
105
2B
330
4
100
AcDbSymbolTableRecord
100
AcDbDimStyleTableRecord
  2
Standard
 70
0
 40
1.0
 41
2.5
 42
0.625
 43
3.75
 44
1.25
 45
0.0
 46
0.0
 47
0.0
 48
0.0
 49
2.5
140
2.5
141
2.5
142
0.0
143
0.03937007874
144
1.0
145
0.0
146
1.0
147
0.625
148
0.0
 69
0
 70
0
 71
0
 72
0
 73
0
 74
0
 75
0
 76
0
 77
1
 78
8
 79
3
170
0
171
3
172
1
173
0
174
0
175
0
176
0
177
0
178
0
179
2
271
2
272
2
273
2
274
3
275
0
276
0
277
2
278
44
279
0
280
0
281
0
282
0
283
0
284
8
285
0
286
0
288
0
289
3
290
0
371
-2
372
-2
  0
ENDTAB
  0
TABLE
  2
BLOCK_RECORD
  5
9
330
0
100
AcDbSymbolTable
 70
2
  0
BLOCK_RECORD
  5
17
330
9
100
AcDbSymbolTableRecord
100
AcDbBlockTableRecord
  2
*Model_Space
340
1A
 70
0
280
1
281
0
  0
BLOCK_RECORD
  5
1B
330
9
100
AcDbSymbolTableRecord
100
AcDbBlockTableRecord
  2
*Paper_Space
340
1E
 70
0
280
1
281
0
  0
ENDTAB
  0
ENDSEC
  0
SECTION
  2
BLOCKS
  0
BLOCK
  5
18
330
17
100
AcDbEntity
  8
0
100
AcDbBlockBegin
  2
*Model_Space
 70
0
 10
0.0
 20
0.0
 30
0.0
  3
*Model_Space
  1

  0
ENDBLK
  5
19
330
17
100
AcDbEntity
  8
0
100
AcDbBlockEnd
  0
BLOCK
  5
1C
330
1B
100
AcDbEntity
  8
0
100
AcDbBlockBegin
  2
*Paper_Space
 70
0
 10
0.0
 20
0.0
 30
0.0
  3
*Paper_Space
  1

  0
ENDBLK
  5
1D
330
1B
100
AcDbEntity
  8
0
100
AcDbBlockEnd
  0
ENDSEC
  0
SECTION
  2
ENTITIES
  0
LWPOLYLINE
  5
38
330
17
100
AcDbEntity
  8
CUT_LINE
100
AcDbPolyline
 90
75
 70
1
 10
5.267524375162494
 20
59.11396272903181
 10
6.164391520014986
 20
57.45154792793454
 10
6.477304610525346
 20
56.802069940989696
 10
6.748651808326272
 20
56.16270766951749
 10
6.979877048086103
 20
55.53326789513369
 10
7.172418181650305
 20
54.913480988995985
 10
7.327690013821252
 20
54.30300028692446
 10
7.44706638116601
 20
53.701407076463454
 10
7.531863122908484
 20
53.10822162529914
 10
7.5833239812194355
 20
52.52291985015697
 10
7.6026112825990495
 20
51.94495432978209
 10
7.590802678591529
 20
51.373777615037454
 10
7.548894364530991
 20
50.808865380618215
 10
7.477810244194793
 20
50.249737008564324
 10
7.3784156905173655
 20
49.695971677659145
 10
7.251534045264207
 20
49.14721881794188
 10
7.097963879626867
 20
48.60320267155848
 10
6.918495267009052
 20
48.063721480950306
 10
6.713923782382764
 20
47.528642367690765
 10
6.4850614947809335
 20
46.9978932226565
 10
6.232744735203795
 20
46.47145293007577
 10
5.957838821947938
 20
45.94934106940295
 10
5.661240179753589
 20
45.431607966726034
 10
5.343876407524318
 20
44.91832567558538
 10
5.00670486256616
 20
44.409580205557035
 10
4.650710274441353
 20
43.905465110937314
 10
4.276901811941228
 20
43.406076407300304
 10
3.8863099272437873
 20
42.91150869461018
 10
3.4833456233228453
 20
42.425904301488885
 10
2.6238118629707383
 20
41.45718454081748
 10
1.535381013103878
 20
40.322965367829795
 10
0.0
 20
34.980481198208025
 10
9.181902119571948
 20
36.83197308460018
 10
2.3343617731779163
 20
32.24215897693972
 10
2.1425130133172354
 20
21.05131442297437
 10
0.3388147149449501
 20
0.0
 10
50.01750458919238
 20
0.0
 10
48.213806294707375
 20
21.051314377605166
 10
48.02195753080534
 20
32.242158977043005
 10
41.174417184565385
 20
36.83197308460018
 10
50.35631930413733
 20
34.980481198208025
 10
48.82093829103345
 20
40.322965367829795
 10
47.7325074411666
 20
41.45718454081748
 10
46.87297368081453
 20
42.42590430148883
 10
46.47000937689349
 20
42.911508694610234
 10
46.07941749219614
 20
43.40607640730025
 10
45.70560902969595
 20
43.90546511093737
 10
45.34961444157125
 20
44.40958020555695
 10
45.01244289661297
 20
44.918325675585436
 10
44.695079124383675
 20
45.43160796672615
 10
44.3984804821894
 20
45.94934106940295
 10
44.12357456893356
 20
46.47145293007571
 10
43.87125780935643
 20
46.997893222656444
 10
43.642395521754544
 20
47.52864236769082
 10
43.43782403712828
 20
48.06372148095028
 10
43.25835542451047
 20
48.60320267155845
 10
43.1047852588731
 20
49.14721881794196
 10
42.977903613619965
 20
49.69597167765912
 10
42.87850905994254
 20
50.249737008564324
 10
42.807424939606335
 20
50.808865380618215
 10
42.76551662554581
 20
51.3737776150374
 10
42.75370802153827
 20
51.94495432978212
 10
42.7729953229179
 20
52.52291985015694
 10
42.824456181228854
 20
53.10822162529922
 10
42.909252922971305
 20
53.7014070764634
 10
43.02862929031607
 20
54.30300028692443
 10
43.183901122487015
 20
54.91348098899596
 10
43.37644225605123
 20
55.53326789513369
 10
43.607667495811064
 20
56.162707669517516
 10
43.87901469361202
 20
56.80206994098978
 10
44.19192778412232
 20
57.45154792793451
 10
45.08879492897484
 20
59.11396272903178
 10
31.55361194019671
 20
64.58253162797604
 10
25.178159652068665
 20
51.79258228705075
 10
18.802707363940613
 20
64.58253162797604
  0
LWPOLYLINE
  5
39
330
17
100
AcDbEntity
  8
STITCH_LINE
  6
DASHED
100
AcDbPolyline
 90
78
 70
1
 10
6.678159652068663
 20
58.605361633312555
 10
7.055349502788275
 20
57.90621015445771
 10
7.388531430436918
 20
57.21466245569346
 10
7.678815889575111
 20
56.53067923172134
 10
7.927313334763374
 20
55.85422117724289
 10
8.135134220562225
 20
55.18524898695961
 10
8.303389001532182
 20
54.52372335557308
 10
8.433188132233765
 20
53.869604977784775
 10
8.52564206722749
 20
53.22285454829628
 10
8.58186126107388
 20
52.58343276180909
 10
8.602956168333451
 20
51.95130031302472
 10
8.590037243566723
 20
51.326417896644756
 10
8.54421494133421
 20
50.708746207370666
 10
8.466599716196438
 20
50.09824593990402
 10
8.35830202271392
 20
49.494877788946354
 10
8.220432315447177
 20
48.89860244919916
 10
8.054101048956728
 20
48.309380615364006
 10
7.860418677803088
 20
47.72717298214238
 10
7.640495656546781
 20
47.151940244235874
 10
7.395442439748324
 20
46.58364309634595
 10
7.126369481968235
 20
46.02224223317421
 10
6.834387237767032
 20
45.46769834942211
 10
6.520606161705235
 20
44.91997213979124
 10
6.186136708343361
 20
44.3790242989831
 10
5.832089332241931
 20
43.84481552169922
 10
5.459574487961461
 20
43.317306502641145
 10
5.069702630062472
 20
42.796457936510365
 10
4.663584213105482
 20
42.282230518008475
 10
4.242329691651008
 20
41.77458494183696
 10
3.3588541534916887
 20
40.77888209529124
 10
2.428159652068663
 20
39.80903495448544
 10
1.4156940612967404
 20
36.28607788726802
 10
13.927520342217415
 20
38.80903495448544
 10
3.3252568024462033
 20
31.70248043909632
 10
3.1417802480384953
 20
21.0
 10
3.1417802441387623
 20
20.999999954485446
 10
1.428159652068663
 20
1.0
 10
48.928159652068665
 20
1.0
 10
47.214539059998565
 20
20.999999954485446
 10
47.21453905609883
 20
21.0
 10
47.031062501691125
 20
31.70248043909632
 10
36.42879896191991
 20
38.80903495448544
 10
48.94062524284059
 20
36.28607788726802
 10
47.928159652068665
 20
39.80903495448544
 10
46.99746515064564
 20
40.77888209529124
 10
46.11398961248632
 20
41.77458494183696
 10
45.69273509103185
 20
42.282230518008475
 10
45.28661667407486
 20
42.796457936510365
 10
44.896744816175875
 20
43.317306502641145
 10
44.5242299718954
 20
43.84481552169922
 10
44.17018259579397
 20
44.3790242989831
 10
43.83571314243209
 20
44.91997213979124
 10
43.5219320663703
 20
45.46769834942211
 10
43.2299498221691
 20
46.02224223317421
 10
42.960876864389014
 20
46.58364309634595
 10
42.71582364759055
 20
47.151940244235874
 10
42.49590062633424
 20
47.72717298214238
 10
42.3022182551806
 20
48.309380615364006
 10
42.13588698869015
 20
48.89860244919916
 10
41.99801728142341
 20
49.494877788946354
 10
41.889719587940895
 20
50.09824593990402
 10
41.81210436280312
 20
50.708746207370666
 10
41.76628206057061
 20
51.326417896644756
 10
41.75336313580387
 20
51.95130031302472
 10
41.774458043063454
 20
52.58343276180909
 10
41.830677236909835
 20
53.22285454829628
 10
41.92313117190356
 20
53.869604977784775
 10
42.05293030260514
 20
54.52372335557308
 10
42.2211850835751
 20
55.18524898695961
 10
42.429005969373954
 20
55.85422117724289
 10
42.67750341456222
 20
56.53067923172134
 10
42.96778787370041
 20
57.21466245569346
 10
43.30096980134905
 20
57.90621015445771
 10
43.678159652068665
 20
58.605361633312555
 10
32.03615965206866
 20
63.30903495448544
 10
25.178159652068665
 20
49.55103495448543
 10
18.32015965206866
 20
63.30903495448544
 10
6.678159652068663
 20
58.605361633312555
  0
LWPOLYLINE
  5
3A
330
17
100
AcDbEntity
  8
STITCH_LINE
  6
DASHED
100
AcDbPolyline
 90
4
 70
1
 10
15.26178892025509
 20
33.0
 10
16.90285636651211
 20
21.0
 10
15.26178892025509
 20
9.0
 10
13.620721473998069
 20
21.0
  0
LWPOLYLINE
  5
3B
330
17
100
AcDbEntity
  8
STITCH_LINE
  6
DASHED
100
AcDbPolyline
 90
4
 70
1
 10
35.09453038388224
 20
33.0
 10
36.735597830139255
 20
21.0
 10
35.09453038388224
 20
9.0
 10
33.45346293762522
 20
21.0
  0
LWPOLYLINE
  5
3C
330
17
100
AcDbEntity
  8
REFERENCE_LINE
  6
DASHED
100
AcDbPolyline
 90
2
 70
0
 10
2.828159652068663
 20
39.80903495448544
 10
47.528159652068666
 20
39.80903495448544
  0
LWPOLYLINE
  5
3D
330
17
100
AcDbEntity
  8
REFERENCE_LINE
  6
DASHED
100
AcDbPolyline
 90
2
 70
0
 10
3.5417802480384957
 20
21.0
 10
46.81453905609883
 20
21.0
  0
LWPOLYLINE
  5
3E
330
17
100
AcDbEntity
  8
REFERENCE_LINE
  6
DASHED
100
AcDbPolyline
 90
2
 70
0
 10
1.8282453330984612
 20
1.0009999999999764
 10
48.528073971038864
 20
1.0009999999999764
  0
LWPOLYLINE
  5
3F
330
17
100
AcDbEntity
  8
REFERENCE_LINE
  6
DASHED
100
AcDbPolyline
 90
2
 70
0
 10
25.178159652068665
 20
62.909034954485435
 10
25.178159652068665
 20
1.3999999999999773
  0
LWPOLYLINE
  5
40
330
17
100
AcDbEntity
  8
REFERENCE_LINE
  6
DASHED
100
AcDbPolyline
 90
2
 70
0
 10
15.190659652068664
 20
39.80903495448544
 10
17.190659652068664
 20
39.80903495448544
  0
LWPOLYLINE
  5
41
330
17
100
AcDbEntity
  8
REFERENCE_LINE
  6
DASHED
100
AcDbPolyline
 90
2
 70
0
 10
16.190659652068664
 20
40.80903495448544
 10
16.190659652068664
 20
38.80903495448544
  0
LWPOLYLINE
  5
42
330
17
100
AcDbEntity
  8
REFERENCE_LINE
  6
DASHED
100
AcDbPolyline
 90
2
 70
0
 10
33.16565965206866
 20
39.80903495448544
 10
35.16565965206866
 20
39.80903495448544
  0
LWPOLYLINE
  5
43
330
17
100
AcDbEntity
  8
REFERENCE_LINE
  6
DASHED
100
AcDbPolyline
 90
2
 70
0
 10
34.16565965206866
 20
40.80903495448544
 10
34.16565965206866
 20
38.80903495448544
  0
LINE
  5
44
330
17
100
AcDbEntity
  8
NOTCH
100
AcDbLine
 10
2.894099876850956
 20
18.10927410921593
 30
0.0
 11
1.8977504089648243
 21
18.19464235766361
 31
0.0
  0
LINE
  5
45
330
17
100
AcDbEntity
  8
NOTCH
100
AcDbLine
 10
47.46221942728637
 20
18.10927410921596
 30
0.0
 11
48.458568895172505
 21
18.19464235766361
 31
0.0
  0
LINE
  5
46
330
17
100
AcDbEntity
  8
NOTCH
100
AcDbLine
 10
7.7775736847798225
 20
47.51048283353316
 30
0.0
 11
6.843511608358709
 21
47.86759351300367
 31
0.0
  0
LINE
  5
47
330
17
100
AcDbEntity
  8
NOTCH
100
AcDbLine
 10
42.578745619357505
 20
47.51048283353316
 30
0.0
 11
43.51280769577862
 21
47.86759351300367
 31
0.0
  0
LINE
  5
48
330
17
100
AcDbEntity
  8
GRAINLINE
100
AcDbLine
 10
17.69298299097551
 20
58.091188004358315
 30
0.0
 11
17.69298299097551
 21
5.964451130813757
 31
0.0
  0
LINE
  5
49
330
17
100
AcDbEntity
  8
GRAINLINE
100
AcDbLine
 10
16.19298299097551
 20
56.591188004358315
 30
0.0
 11
17.69298299097551
 21
58.091188004358315
 31
0.0
  0
LINE
  5
4A
330
17
100
AcDbEntity
  8
GRAINLINE
100
AcDbLine
 10
19.19298299097551
 20
56.591188004358315
 30
0.0
 11
17.69298299097551
 21
58.091188004358315
 31
0.0
  0
LINE
  5
4B
330
17
100
AcDbEntity
  8
GRAINLINE
100
AcDbLine
 10
16.19298299097551
 20
7.464451130813757
 30
0.0
 11
17.69298299097551
 21
5.964451130813757
 31
0.0
  0
LINE
  5
4C
330
17
100
AcDbEntity
  8
GRAINLINE
100
AcDbLine
 10
19.19298299097551
 20
7.464451130813757
 30
0.0
 11
17.69298299097551
 21
5.964451130813757
 31
0.0
  0
TEXT
  5
4D
330
17
100
AcDbEntity
  8
LABEL
100
AcDbText
 10
25.178159652068665
 20
32.29126581398802
 30
0.0
 40
0.9
  1
前身頃（Vネック） [ダーツ4本]
 72
1
 11
25.178159652068665
 21
32.29126581398802
 31
0.0
100
AcDbText
 73
2
  0
TEXT
  5
4E
330
17
100
AcDbEntity
  8
LABEL_ID
100
AcDbText
 10
25.178159652068665
 20
31.09126581398802
 30
0.0
 40
0.55
  1
front_bodice(v_neck) [ダーツ4本]
 72
1
 11
25.178159652068665
 21
31.09126581398802
 31
0.0
100
AcDbText
 73
2
  0
LWPOLYLINE
  5
4F
330
17
100
AcDbEntity
  8
CUT_LINE
100
AcDbPolyline
 90
57
 70
1
 10
54.885460128247225
 20
60.33696625857786
 10
55.33725809017875
 20
58.7119534826723
 10
55.493845183502934
 20
58.0372559983615
 10
55.61894403158671
 20
57.36899496270081
 10
55.71387510283629
 20
56.706948308143694
 10
55.77992029482646
 20
56.050899838950926
 10
55.81832527094108
 20
55.40064753054506
 10
55.83030348495292
 20
54.75601064581306
 10
55.81704146591764
 20
54.116835258403114
 10
55.77970486014149
 20
53.48299796165321
 10
55.71944472175346
 20
52.85440773226898
 10
55.637403598223656
 20
52.231006082200935
 10
55.53472105305865
 20
51.612765752033795
 10
55.41253838304093
 20
50.99968826761102
 10
55.27200240206433
 20
50.39180070153901
 10
55.11426826343247
 20
49.789151962303094
 10
54.940501369357264
 20
49.19180888864153
 10
54.75187846799185
 20
48.599852368098254
 10
54.5512368691126
 20
48.01815383200915
 10
54.10837246314244
 20
46.85649142838437
 10
53.62748734633938
 20
45.72349059034798
 10
53.11634159303087
 20
44.614400284298426
 10
52.5849189827358
 20
43.529927600355535
 10
52.043577379654735
 20
42.47122408906861
 10
50.85110120549034
 20
40.20310973949745
 10
51.11339218528461
 20
25.48716271669224
 10
49.79061072227951
 20
4.464637522242697
 10
99.4204102049693
 20
4.464637522242697
 10
98.0976287419642
 20
25.48716271669224
 10
98.35991972175847
 20
40.20310973949745
 10
97.16744354759416
 20
42.47122408906844
 10
96.62610194451295
 20
43.52992760035562
 10
96.09467933421789
 20
44.61440028429854
 10
95.58353358090949
 20
45.723490590347865
 10
95.10264846410637
 20
46.8564914283844
 10
94.65978405813618
 20
48.018153832009205
 10
94.45914245925694
 20
48.59985236809831
 10
94.27051955789162
 20
49.19180888864133
 10
94.09675266381629
 20
49.789151962303265
 10
93.93901852518451
 20
50.3918007015389
 10
93.79848254420784
 20
50.99968826761116
 10
93.67629987419019
 20
51.61276575203368
 10
93.57361732902514
 20
52.23100608220102
 10
93.49157620549535
 20
52.85440773226895
 10
93.43131606710733
 20
53.4829979616531
 10
93.39397946133116
 20
54.116835258403285
 10
93.38071744229589
 20
54.75601064581306
 10
93.39269565630772
 20
55.400647530544916
 10
93.43110063242236
 20
56.05089983895098
 10
93.49714582441251
 20
56.70694830814364
 10
93.5920768956621
 20
57.36899496270087
 10
93.71717574374586
 20
58.037255998361445
 10
93.87376283707006
 20
58.7119534826723
 10
94.3255607990016
 20
60.33696625857786
 10
81.25905415560345
 20
64.58253162797604
 10
74.6055104636244
 20
59.246502128721914
 10
67.95196677164536
 20
64.58253162797604
  0
LWPOLYLINE
  5
50
330
17
100
AcDbEntity
  8
STITCH_LINE
  6
DASHED
100
AcDbPolyline
 90
58
 70
1
 10
56.105510463624405
 20
59.6819224186992
 10
56.306491538764675
 20
58.95903997491416
 10
56.47281495607754
 20
58.242390927660665
 10
56.60579297440936
 20
57.532040435935755
 10
56.70673785260648
 20
56.828053658736366
 10
56.77696184951526
 20
56.130495755059485
 10
56.81777722398204
 20
55.439431883902074
 10
56.830496234853186
 20
54.75492720426112
 10
56.81643114097503
 20
54.07704687513362
 10
56.77689420119393
 20
53.40585605551655
 10
56.713197674356245
 20
52.741419904406825
 10
56.62665381930832
 20
52.08380358080149
 10
56.51857489489651
 20
51.433072243697495
 10
56.39027315996716
 20
50.78929105209181
 10
56.24306087336662
 20
50.15252516498143
 10
56.07825029394125
 20
49.52283974136333
 10
55.89715368053739
 20
48.90029994023445
 10
55.70108329200141
 20
48.2849709205918
 10
55.491351387179634
 20
47.676917841432356
 10
55.036152064064154
 20
46.48290014055098
 10
54.54205378196176
 20
45.31876810956609
 10
54.019554611643265
 20
44.18504302045352
 10
53.47915262387947
 20
43.08224614518912
 10
52.93134588944119
 20
42.01089875574863
 10
51.855510463624405
 20
39.9646375222427
 10
52.11395249260991
 20
25.464637522242697
 10
50.855510463624405
 20
5.464637522242697
 10
98.3555104636244
 20
5.464637522242697
 10
97.0970684346389
 20
25.464637522242697
 10
97.3555104636244
 20
39.9646375222427
 10
96.27967503780762
 20
42.01089875574863
 10
95.73186830336934
 20
43.08224614518912
 10
95.19146631560554
 20
44.18504302045352
 10
94.66896714528704
 20
45.31876810956609
 10
94.17486886318466
 20
46.48290014055098
 10
93.71966954006918
 20
47.676917841432356
 10
93.50993763524741
 20
48.2849709205918
 10
93.31386724671142
 20
48.90029994023445
 10
93.13277063330756
 20
49.52283974136333
 10
92.9679600538822
 20
50.15252516498143
 10
92.82074776728166
 20
50.78929105209181
 10
92.69244603235231
 20
51.433072243697495
 10
92.5843671079405
 20
52.08380358080149
 10
92.49782325289257
 20
52.741419904406825
 10
92.43412672605488
 20
53.40585605551655
 10
92.39458978627378
 20
54.07704687513362
 10
92.38052469239562
 20
54.75492720426112
 10
92.39324370326676
 20
55.439431883902074
 10
92.43405907773355
 20
56.130495755059485
 10
92.50428307464233
 20
56.828053658736366
 10
92.60522795283944
 20
57.532040435935755
 10
92.73820597117127
 20
58.242390927660665
 10
92.90452938848414
 20
58.95903997491416
 10
93.1055104636244
 20
59.6819224186992
 10
81.4635104636244
 20
63.4646375222427
 10
74.6055104636244
 20
57.9646375222427
 10
67.7475104636244
 20
63.4646375222427
 10
56.105510463624405
 20
59.6819224186992
  0
LWPOLYLINE
  5
51
330
17
100
AcDbEntity
  8
STITCH_LINE
  6
DASHED
100
AcDbPolyline
 90
4
 70
1
 10
62.98430937666788
 20
37.4646375222427
 10
64.83539633318962
 20
25.464637522242697
 10
62.98430937666788
 20
13.464637522242697
 10
61.13322242014614
 20
25.464637522242697
  0
LWPOLYLINE
  5
52
330
17
100
AcDbEntity
  8
STITCH_LINE
  6
DASHED
100
AcDbPolyline
 90
4
 70
1
 10
65.98430937666788
 20
37.4646375222427
 10
67.83539633318962
 20
25.464637522242697
 10
65.98430937666788
 20
13.464637522242697
 10
64.13322242014614
 20
25.464637522242697
  0
LWPOLYLINE
  5
53
330
17
100
AcDbEntity
  8
STITCH_LINE
  6
DASHED
100
AcDbPolyline
 90
4
 70
1
 10
83.22671155058093
 20
37.4646375222427
 10
85.07779850710267
 20
25.464637522242697
 10
83.22671155058093
 20
13.464637522242697
 10
81.37562459405919
 20
25.464637522242697
  0
LWPOLYLINE
  5
54
330
17
100
AcDbEntity
  8
STITCH_LINE
  6
DASHED
100
AcDbPolyline
 90
4
 70
1
 10
86.22671155058093
 20
37.4646375222427
 10
88.07779850710267
 20
25.464637522242697
 10
86.22671155058093
 20
13.464637522242697
 10
84.37562459405919
 20
25.464637522242697
  0
LWPOLYLINE
  5
55
330
17
100
AcDbEntity
  8
REFERENCE_LINE
  6
DASHED
100
AcDbPolyline
 90
2
 70
0
 10
52.255510463624404
 20
39.9646375222427
 10
96.9555104636244
 20
39.9646375222427
  0
LWPOLYLINE
  5
56
330
17
100
AcDbEntity
  8
REFERENCE_LINE
  6
DASHED
100
AcDbPolyline
 90
2
 70
0
 10
52.51395249260991
 20
25.464637522242697
 10
96.69706843463891
 20
25.464637522242697
  0
LWPOLYLINE
  5
57
330
17
100
AcDbEntity
  8
REFERENCE_LINE
  6
DASHED
100
AcDbPolyline
 90
2
 70
0
 10
51.25557338572585
 20
5.465637522242702
 10
97.95544754152296
 20
5.465637522242702
  0
LWPOLYLINE
  5
58
330
17
100
AcDbEntity
  8
REFERENCE_LINE
  6
DASHED
100
AcDbPolyline
 90
2
 70
0
 10
74.6055104636244
 20
63.06463752224269
 10
74.6055104636244
 20
5.8646375222427025
  0
LINE
  5
59
330
17
100
AcDbEntity
  8
NOTCH
100
AcDbLine
 10
51.94008863591892
 20
22.701477159088682
 30
0.0
 11
50.94206237247438
 21
22.764275068886178
 31
0.0
  0
LINE
  5
5A
330
17
100
AcDbEntity
  8
NOTCH
100
AcDbLine
 10
97.2709322913299
 20
22.701477159088682
 30
0.0
 11
98.26895855477443
 21
22.764275068886178
 31
0.0
  0
LINE
  5
5B
330
17
100
AcDbEntity
  8
NOTCH
100
AcDbLine
 10
55.752600034464905
 20
48.446646260106064
 30
0.0
 11
54.79980134443903
 21
48.75024905371143
 31
0.0
  0
LINE
  5
5C
330
17
100
AcDbEntity
  8
NOTCH
100
AcDbLine
 10
93.4584208927839
 20
48.446646260106064
 30
0.0
 11
94.41121958280978
 21
48.75024905371143
 31
0.0
  0
LINE
  5
5D
330
17
100
AcDbEntity
  8
NOTCH
100
AcDbLine
 10
55.987618125419225
 20
49.21128155644158
 30
0.0
 11
55.02742039878346
 21
49.49060274390058
 31
0.0
  0
LINE
  5
5E
330
17
100
AcDbEntity
  8
NOTCH
100
AcDbLine
 10
93.2234028018296
 20
49.21128155644158
 30
0.0
 11
94.18360052846535
 21
49.49060274390061
 31
0.0
  0
LINE
  5
5F
330
17
100
AcDbEntity
  8
GRAINLINE
100
AcDbLine
 10
67.12426046362441
 20
58.6383318176197
 30
0.0
 11
67.12426046362441
 21
10.08843702618853
 31
0.0
  0
LINE
  5
60
330
17
100
AcDbEntity
  8
GRAINLINE
100
AcDbLine
 10
65.62426046362441
 20
57.1383318176197
 30
0.0
 11
67.12426046362441
 21
58.6383318176197
 31
0.0
  0
LINE
  5
61
330
17
100
AcDbEntity
  8
GRAINLINE
100
AcDbLine
 10
68.62426046362441
 20
57.1383318176197
 30
0.0
 11
67.12426046362441
 21
58.6383318176197
 31
0.0
  0
LINE
  5
62
330
17
100
AcDbEntity
  8
GRAINLINE
100
AcDbLine
 10
65.62426046362441
 20
11.58843702618853
 30
0.0
 11
67.12426046362441
 21
10.08843702618853
 31
0.0
  0
LINE
  5
63
330
17
100
AcDbEntity
  8
GRAINLINE
100
AcDbLine
 10
68.62426046362441
 20
11.58843702618853
 30
0.0
 11
67.12426046362441
 21
10.08843702618853
 31
0.0
  0
TEXT
  5
64
330
17
100
AcDbEntity
  8
LABEL
100
AcDbText
 10
74.6055104636244
 20
34.52358457510937
 30
0.0
 40
0.9
  1
後身頃（Vネック） [ダーツ4本]
 72
1
 11
74.6055104636244
 21
34.52358457510937
 31
0.0
100
AcDbText
 73
2
  0
TEXT
  5
65
330
17
100
AcDbEntity
  8
LABEL_ID
100
AcDbText
 10
74.6055104636244
 20
33.323584575109365
 30
0.0
 40
0.55
  1
back_bodice(v_neck) [ダーツ4本]
 72
1
 11
74.6055104636244
 21
33.323584575109365
 31
0.0
100
AcDbText
 73
2
  0
LWPOLYLINE
  5
66
330
17
100
AcDbEntity
  8
CUT_LINE
100
AcDbPolyline
 90
67
 70
1
 10
62.387683349860154
 20
176.7011620714675
 10
66.80887496963213
 20
135.48236564512544
 10
94.34605839846905
 20
135.48236564512544
 10
98.76725001824104
 20
176.7011620714675
 10
98.10440096163863
 20
177.82487336773673
 10
97.59265523345294
 20
178.64032094583388
 10
97.07115026998477
 20
179.4217360871225
 10
96.54049597328967
 20
180.16961240566818
 10
96.00130628864605
 20
180.88444023687094
 10
95.45419960682558
 20
181.56670701648414
 10
94.89979911504292
 20
182.21689773735136
 10
94.33873308120204
 20
182.83549547856646
 10
93.77163505661974
 20
183.42298199841235
 10
93.19914398374594
 20
183.97983837905014
 10
92.62190419751772
 20
184.50654570773457
 10
92.04056531184048
 20
185.0035857765255
 10
91.4557819861896
 20
185.47144178024618
 10
90.86821357129375
 20
185.91059899099767
 10
90.2785236370992
 20
186.3215453869872
 10
89.68737939046053
 20
186.7047722138508
 10
89.0954509940033
 20
187.060774458027
 10
88.50341080109953
 20
187.39005121399396
 10
87.911932524672
 20
187.69310593015047
 10
87.32169035942525
 20
187.97044652158792
 10
86.7333580780094
 20
188.2225853416922
 10
86.14760812152846
 20
188.45003900815686
 10
85.56511070379192
 20
188.6533280822847
 10
84.98653294690807
 20
188.8329766031592
 10
84.41253806344415
 20
188.98951148014964
 10
83.84378459768276
 20
189.12346174811995
 10
83.28092573577275
 20
189.23535768952792
 10
82.72460869211207
 20
189.3257298262815
 10
82.17547417742384
 20
189.39510778176378
 10
81.63415595302905
 20
189.44401900988527
 10
81.10128047612588
 20
189.47298738345899
 10
80.57746668405059
 20
189.48253162797602
 10
80.05365289197532
 20
189.47298738345899
 10
79.52077741507213
 20
189.44401900988527
 10
78.97945919067735
 20
189.39510778176378
 10
78.43032467598911
 20
189.3257298262815
 10
77.87400763232843
 20
189.2353576895279
 10
77.31114877041844
 20
189.12346174811995
 10
76.74239530465704
 20
188.98951148014964
 10
76.16840042119313
 20
188.8329766031592
 10
75.58982266430928
 20
188.6533280822847
 10
75.00732524657273
 20
188.45003900815686
 10
74.42157529009177
 20
188.2225853416922
 10
73.83324300867594
 20
187.97044652158792
 10
73.24300084342921
 20
187.6931059301505
 10
72.65152256700165
 20
187.39005121399396
 10
72.05948237409791
 20
187.060774458027
 10
71.46755397764063
 20
186.7047722138508
 10
70.87640973100198
 20
186.32154538698717
 10
70.28671979680745
 20
185.91059899099767
 10
69.69915138191159
 20
185.4714417802462
 10
69.1143680562607
 20
185.00358577652548
 10
68.53302917058349
 20
184.50654570773457
 10
67.95578938435523
 20
183.9798383790501
 10
67.38329831148147
 20
183.42298199841238
 10
66.81620028689913
 20
182.83549547856646
 10
66.25513425305826
 20
182.21689773735133
 10
65.70073376127556
 20
181.5667070164841
 10
65.1536270794551
 20
180.8844402368709
 10
64.61443739481165
 20
180.16961240566837
 10
64.08378309811646
 20
179.42173608712255
 10
63.56227813464828
 20
178.64032094583393
 10
63.050532406462544
 20
177.8248733677367
  0
LWPOLYLINE
  5
67
330
17
100
AcDbEntity
  8
STITCH_LINE
  6
DASHED
100
AcDbPolyline
 90
67
 70
1
 10
63.41731043405059
 20
176.47842598040737
 10
63.90486248082641
 20
177.30496067488124
 10
64.40184088296417
 20
178.09687707411842
 10
64.90761721677306
 20
178.85472467486872
 10
65.42156305856231
 20
179.57905297388191
 10
65.9430499846411
 20
180.27041146790776
 10
66.47144957131866
 20
180.92934965369608
 10
67.00613339490417
 20
181.55641702799664
 10
67.54647303170684
 20
182.15216308755927
 10
68.09184005803588
 20
182.71713732913372
 10
68.6416060502005
 20
183.25188924946977
 10
69.19514258450988
 20
183.75696834531726
 10
69.75182123727325
 20
184.23292411342592
 10
70.31101358479981
 20
184.6803060505456
 10
70.87209120339874
 20
185.099663653426
 10
71.43442566937927
 20
185.49154641881702
 10
71.99738855905059
 20
185.85650384346837
 10
72.56035144872192
 20
186.19508542412984
 10
73.12268591470246
 20
186.50784065755127
 10
73.68376353330139
 20
186.7953190404824
 10
74.24295588082794
 20
187.05807006967305
 10
74.7996345335913
 20
187.296643241873
 10
75.35317106790069
 20
187.511588053832
 10
75.9029370600653
 20
187.7034540022999
 10
76.44830408639434
 20
187.87279058402646
 10
76.98864372319701
 20
188.0201472957615
 10
77.52332754678253
 20
188.14607363425475
 10
78.05172713346008
 20
188.25111909625602
 10
78.57321405953887
 20
188.33583317851512
 10
79.08715990132812
 20
188.40076537778182
 10
79.59293623513702
 20
188.4464651908059
 10
80.08991463727477
 20
188.47348211433717
 10
80.57746668405059
 20
188.48236564512544
 10
81.06501873082641
 20
188.47348211433717
 10
81.56199713296417
 20
188.4464651908059
 10
82.06777346677306
 20
188.40076537778182
 10
82.58171930856231
 20
188.33583317851512
 10
83.1032062346411
 20
188.25111909625602
 10
83.63160582131866
 20
188.14607363425475
 10
84.16628964490417
 20
188.0201472957615
 10
84.70662928170685
 20
187.87279058402646
 10
85.25199630803588
 20
187.7034540022999
 10
85.8017623002005
 20
187.511588053832
 10
86.35529883450988
 20
187.296643241873
 10
86.91197748727325
 20
187.05807006967305
 10
87.4711698347998
 20
186.7953190404824
 10
88.03224745339874
 20
186.50784065755127
 10
88.59458191937927
 20
186.19508542412984
 10
89.15754480905059
 20
185.85650384346837
 10
89.72050769872192
 20
185.49154641881702
 10
90.28284216470246
 20
185.099663653426
 10
90.84391978330139
 20
184.6803060505456
 10
91.40311213082794
 20
184.23292411342592
 10
91.9597907835913
 20
183.75696834531726
 10
92.51332731790069
 20
183.25188924946977
 10
93.0630933100653
 20
182.71713732913372
 10
93.60846033639434
 20
182.15216308755927
 10
94.14879997319701
 20
181.55641702799664
 10
94.68348379678253
 20
180.92934965369608
 10
95.21188338346008
 20
180.27041146790776
 10
95.73337030953888
 20
179.57905297388191
 10
96.24731615132812
 20
178.85472467486872
 10
96.75309248513702
 20
178.09687707411842
 10
97.25007088727477
 20
177.30496067488124
 10
97.73762293405059
 20
176.47842598040737
 10
93.44758387155059
 20
136.48236564512544
 10
67.70734949655059
 20
136.48236564512544
  0
LINE
  5
68
330
17
100
AcDbEntity
  8
NOTCH
100
AcDbLine
 10
69.28058037270382
 20
183.83001696664212
 30
0.0
 11
68.63073192909681
 21
184.59008077997726
 31
0.0
  0
LINE
  5
69
330
17
100
AcDbEntity
  8
NOTCH
100
AcDbLine
 10
91.87435299539736
 20
183.83001696664212
 30
0.0
 11
92.52420143900437
 21
184.59008077997726
 31
0.0
  0
LINE
  5
6A
330
17
100
AcDbEntity
  8
NOTCH
100
AcDbLine
 10
91.26256052137364
 20
184.34537245357416
 30
0.0
 11
91.88727945973262
 21
185.12622214977415
 31
0.0
  0
LINE
  5
6B
330
17
100
AcDbEntity
  8
GRAINLINE
100
AcDbLine
 10
80.57746668405059
 20
184.32236564512544
 30
0.0
 11
80.57746668405059
 21
140.64236564512544
 31
0.0
  0
LINE
  5
6C
330
17
100
AcDbEntity
  8
GRAINLINE
100
AcDbLine
 10
79.07746668405059
 20
182.82236564512544
 30
0.0
 11
80.57746668405059
 21
184.32236564512544
 31
0.0
  0
LINE
  5
6D
330
17
100
AcDbEntity
  8
GRAINLINE
100
AcDbLine
 10
82.07746668405059
 20
182.82236564512544
 30
0.0
 11
80.57746668405059
 21
184.32236564512544
 31
0.0
  0
LINE
  5
6E
330
17
100
AcDbEntity
  8
GRAINLINE
100
AcDbLine
 10
79.07746668405059
 20
142.14236564512544
 30
0.0
 11
80.57746668405059
 21
140.64236564512544
 31
0.0
  0
LINE
  5
6F
330
17
100
AcDbEntity
  8
GRAINLINE
100
AcDbLine
 10
82.07746668405059
 20
142.14236564512544
 30
0.0
 11
80.57746668405059
 21
140.64236564512544
 31
0.0
  0
TEXT
  5
70
330
17
100
AcDbEntity
  8
LABEL
100
AcDbText
 10
80.57746668405059
 20
162.4824486365507
 30
0.0
 40
0.9
  1
袖（ストレート） 左
 72
1
 11
80.57746668405059
 21
162.4824486365507
 31
0.0
100
AcDbText
 73
2
  0
TEXT
  5
71
330
17
100
AcDbEntity
  8
LABEL_ID
100
AcDbText
 10
80.57746668405059
 20
161.28244863655073
 30
0.0
 40
0.55
  1
sleeve(straight) 左
 72
1
 11
80.57746668405059
 21
161.28244863655073
 31
0.0
100
AcDbText
 73
2
  0
LWPOLYLINE
  5
72
330
17
100
AcDbEntity
  8
CUT_LINE
100
AcDbPolyline
 90
67
 70
1
 10
66.24109041109776
 20
122.10099608861694
 10
70.66228203086973
 20
80.88219966227487
 10
98.19946545970666
 20
80.88219966227487
 10
102.62065707947863
 20
122.10099608861694
 10
101.95780802287624
 20
123.22470738488616
 10
101.44606229469056
 20
124.0401549629833
 10
100.92455733122237
 20
124.82157010427194
 10
100.39390303452728
 20
125.5694464228176
 10
99.85471334988364
 20
126.28427425402036
 10
99.30760666806319
 20
126.96654103363358
 10
98.75320617628051
 20
127.61673175450079
 10
98.19214014243965
 20
128.2353294957159
 10
97.62504211785733
 20
128.82281601556178
 10
97.05255104498355
 20
129.37967239619957
 10
96.47531125875533
 20
129.906379724884
 10
95.89397237307809
 20
130.4034197936749
 10
95.30918904742722
 20
130.87127579739564
 10
94.72162063253134
 20
131.31043300814707
 10
94.13193069833679
 20
131.72137940413663
 10
93.54078645169814
 20
132.10460623100022
 10
92.9488580552409
 20
132.4606084751764
 10
92.35681786233714
 20
132.7898852311434
 10
91.7653395859096
 20
133.0929399472999
 10
91.17509742066285
 20
133.37028053873735
 10
90.586765139247
 20
133.62241935884163
 10
90.00101518276607
 20
133.8498730253063
 10
89.41851776502952
 20
134.05316209943413
 10
88.83994000814567
 20
134.2328106203086
 10
88.26594512468175
 20
134.38934549729908
 10
87.69719165892036
 20
134.52329576526938
 10
87.13433279701036
 20
134.63519170667735
 10
86.57801575334966
 20
134.72556384343093
 10
86.02888123866144
 20
134.79494179891321
 10
85.48756301426667
 20
134.8438530270347
 10
84.95468753736347
 20
134.87282140060842
 10
84.4308737452882
 20
134.88236564512545
 10
83.90705995321292
 20
134.87282140060842
 10
83.37418447630974
 20
134.8438530270347
 10
82.83286625191495
 20
134.79494179891321
 10
82.28373173722673
 20
134.72556384343093
 10
81.72741469356603
 20
134.63519170667735
 10
81.16455583165605
 20
134.52329576526938
 10
80.59580236589466
 20
134.38934549729908
 10
80.02180748243073
 20
134.2328106203086
 10
79.4432297255469
 20
134.05316209943413
 10
78.86073230781034
 20
133.8498730253063
 10
78.27498235132937
 20
133.62241935884163
 10
77.68665006991353
 20
133.37028053873735
 10
77.09640790466682
 20
133.09293994729993
 10
76.50492962823925
 20
132.7898852311434
 10
75.91288943533552
 20
132.46060847517643
 10
75.32096103887824
 20
132.10460623100022
 10
74.72981679223959
 20
131.7213794041366
 10
74.14012685804505
 20
131.31043300814707
 10
73.5525584431492
 20
130.87127579739564
 10
72.9677751174983
 20
130.4034197936749
 10
72.38643623182108
 20
129.906379724884
 10
71.80919644559283
 20
129.37967239619954
 10
71.23670537271907
 20
128.8228160155618
 10
70.66960734813674
 20
128.2353294957159
 10
70.10854131429586
 20
127.61673175450076
 10
69.55414082251316
 20
126.96654103363352
 10
69.00703414069271
 20
126.28427425402032
 10
68.46784445604925
 20
125.56944642281779
 10
67.93719015935406
 20
124.821570104272
 10
67.41568519588589
 20
124.04015496298337
 10
66.90393946770016
 20
123.22470738488614
  0
LWPOLYLINE
  5
73
330
17
100
AcDbEntity
  8
STITCH_LINE
  6
DASHED
100
AcDbPolyline
 90
67
 70
1
 10
67.2707174952882
 20
121.8782599975568
 10
67.75826954206401
 20
122.70479469203067
 10
68.25524794420177
 20
123.49671109126787
 10
68.76102427801067
 20
124.25455869201816
 10
69.27497011979992
 20
124.97888699103133
 10
69.79645704587871
 20
125.6702454850572
 10
70.32485663255626
 20
126.32918367084551
 10
70.85954045614177
 20
126.95625104514608
 10
71.39988009294444
 20
127.5519971047087
 10
71.94524711927349
 20
128.11697134628315
 10
72.4950131114381
 20
128.65172326661923
 10
73.04854964574749
 20
129.1568023624667
 10
73.60522829851085
 20
129.63275813057535
 10
74.1644206460374
 20
130.08014006769503
 10
74.72549826463634
 20
130.49949767057547
 10
75.28783273061687
 20
130.89138043596643
 10
75.8507956202882
 20
131.2563378606178
 10
76.41375850995952
 20
131.59491944127927
 10
76.97609297594005
 20
131.9076746747007
 10
77.53717059453899
 20
132.19515305763184
 10
78.09636294206554
 20
132.45790408682248
 10
78.6530415948289
 20
132.6964772590224
 10
79.2065781291383
 20
132.91142207098144
 10
79.7563441213029
 20
133.10328801944934
 10
80.30171114763195
 20
133.2726246011759
 10
80.84205078443462
 20
133.41998131291092
 10
81.37673460802013
 20
133.54590765140415
 10
81.90513419469768
 20
133.65095311340545
 10
82.42662112077647
 20
133.73566719566455
 10
82.94056696256573
 20
133.80059939493123
 10
83.44634329637462
 20
133.84629920795533
 10
83.94332169851238
 20
133.8733161314866
 10
84.4308737452882
 20
133.88219966227487
 10
84.91842579206401
 20
133.8733161314866
 10
85.41540419420177
 20
133.84629920795533
 10
85.92118052801067
 20
133.80059939493123
 10
86.43512636979992
 20
133.73566719566455
 10
86.95661329587873
 20
133.65095311340545
 10
87.48501288255626
 20
133.54590765140415
 10
88.01969670614177
 20
133.41998131291092
 10
88.56003634294444
 20
133.2726246011759
 10
89.10540336927349
 20
133.10328801944934
 10
89.6551693614381
 20
132.91142207098144
 10
90.20870589574749
 20
132.6964772590224
 10
90.76538454851085
 20
132.45790408682248
 10
91.3245768960374
 20
132.19515305763184
 10
91.88565451463634
 20
131.9076746747007
 10
92.44798898061687
 20
131.59491944127927
 10
93.0109518702882
 20
131.2563378606178
 10
93.57391475995952
 20
130.89138043596643
 10
94.13624922594005
 20
130.49949767057547
 10
94.69732684453899
 20
130.08014006769503
 10
95.25651919206554
 20
129.63275813057535
 10
95.8131978448289
 20
129.1568023624667
 10
96.3667343791383
 20
128.65172326661923
 10
96.9165003713029
 20
128.11697134628315
 10
97.46186739763195
 20
127.5519971047087
 10
98.00220703443462
 20
126.95625104514608
 10
98.53689085802013
 20
126.32918367084551
 10
99.06529044469768
 20
125.6702454850572
 10
99.58677737077647
 20
124.97888699103133
 10
100.10072321256573
 20
124.25455869201816
 10
100.60649954637462
 20
123.49671109126787
 10
101.10347794851238
 20
122.70479469203067
 10
101.5910299952882
 20
121.8782599975568
 10
97.3009909327882
 20
81.88219966227487
 10
71.5607565577882
 20
81.88219966227487
  0
LINE
  5
74
330
17
100
AcDbEntity
  8
NOTCH
100
AcDbLine
 10
73.13398743394143
 20
129.22985098379155
 30
0.0
 11
72.48413899033442
 21
129.9899147971267
 31
0.0
  0
LINE
  5
75
330
17
100
AcDbEntity
  8
NOTCH
100
AcDbLine
 10
95.72776005663496
 20
129.22985098379155
 30
0.0
 11
96.37760850024199
 21
129.9899147971267
 31
0.0
  0
LINE
  5
76
330
17
100
AcDbEntity
  8
NOTCH
100
AcDbLine
 10
95.11596758261125
 20
129.7452064707236
 30
0.0
 11
95.74068652097023
 21
130.52605616692358
 31
0.0
  0
LINE
  5
77
330
17
100
AcDbEntity
  8
GRAINLINE
100
AcDbLine
 10
84.4308737452882
 20
129.72219966227487
 30
0.0
 11
84.4308737452882
 21
86.04219966227487
 31
0.0
  0
LINE
  5
78
330
17
100
AcDbEntity
  8
GRAINLINE
100
AcDbLine
 10
82.9308737452882
 20
128.22219966227487
 30
0.0
 11
84.4308737452882
 21
129.72219966227487
 31
0.0
  0
LINE
  5
79
330
17
100
AcDbEntity
  8
GRAINLINE
100
AcDbLine
 10
85.9308737452882
 20
128.22219966227487
 30
0.0
 11
84.4308737452882
 21
129.72219966227487
 31
0.0
  0
LINE
  5
7A
330
17
100
AcDbEntity
  8
GRAINLINE
100
AcDbLine
 10
82.9308737452882
 20
87.54219966227487
 30
0.0
 11
84.4308737452882
 21
86.04219966227487
 31
0.0
  0
LINE
  5
7B
330
17
100
AcDbEntity
  8
GRAINLINE
100
AcDbLine
 10
85.9308737452882
 20
87.54219966227487
 30
0.0
 11
84.4308737452882
 21
86.04219966227487
 31
0.0
  0
TEXT
  5
7C
330
17
100
AcDbEntity
  8
LABEL
100
AcDbText
 10
84.4308737452882
 20
107.88228265370016
 30
0.0
 40
0.9
  1
袖（ストレート） 右
 72
1
 11
84.4308737452882
 21
107.88228265370016
 31
0.0
100
AcDbText
 73
2
  0
TEXT
  5
7D
330
17
100
AcDbEntity
  8
LABEL_ID
100
AcDbText
 10
84.4308737452882
 20
106.68228265370016
 30
0.0
 40
0.55
  1
sleeve(straight) 右
 72
1
 11
84.4308737452882
 21
106.68228265370016
 31
0.0
100
AcDbText
 73
2
  0
LWPOLYLINE
  5
7E
330
17
100
AcDbEntity
  8
CUT_LINE
100
AcDbPolyline
 90
5
 70
1
 10
12.452226400053261
 20
189.182531627976
 10
0.0
 20
158.05196562784286
 10
21.608603799906792
 20
127.18253162797602
 10
69.53874036650102
 20
127.18253162797602
 10
47.838740366501014
 20
189.182531627976
  0
LWPOLYLINE
  5
7F
330
17
100
AcDbEntity
  8
STITCH_LINE
  6
DASHED
100
AcDbPolyline
 90
5
 70
1
 10
13.129259361480162
 20
188.182531627976
 10
47.129259361480166
 20
188.182531627976
 10
68.12925936148017
 20
128.182531627976
 10
22.129259361480162
 20
128.182531627976
 10
1.1292593614801625
 20
158.182531627976
  0
LINE
  5
80
330
17
100
AcDbEntity
  8
NOTCH
100
AcDbLine
 10
13.129259361480162
 20
188.182531627976
 30
0.0
 11
13.129259361480162
 21
189.182531627976
 31
0.0
  0
LINE
  5
81
330
17
100
AcDbEntity
  8
GRAINLINE
100
AcDbLine
 10
34.629259361480166
 20
183.38253162797602
 30
0.0
 11
34.629259361480166
 21
132.98253162797602
 31
0.0
  0
LINE
  5
82
330
17
100
AcDbEntity
  8
GRAINLINE
100
AcDbLine
 10
33.129259361480166
 20
181.88253162797602
 30
0.0
 11
34.629259361480166
 21
183.38253162797602
 31
0.0
  0
LINE
  5
83
330
17
100
AcDbEntity
  8
GRAINLINE
100
AcDbLine
 10
36.129259361480166
 20
181.88253162797602
 30
0.0
 11
34.629259361480166
 21
183.38253162797602
 31
0.0
  0
LINE
  5
84
330
17
100
AcDbEntity
  8
GRAINLINE
100
AcDbLine
 10
33.129259361480166
 20
134.48253162797602
 30
0.0
 11
34.629259361480166
 21
132.98253162797602
 31
0.0
  0
LINE
  5
85
330
17
100
AcDbEntity
  8
GRAINLINE
100
AcDbLine
 10
36.129259361480166
 20
134.48253162797602
 30
0.0
 11
34.629259361480166
 21
132.98253162797602
 31
0.0
  0
TEXT
  5
86
330
17
100
AcDbEntity
  8
LABEL
100
AcDbText
 10
34.76937018325051
 20
158.182531627976
 30
0.0
 40
0.9
  1
スカート（ラップ） 前
 72
1
 11
34.76937018325051
 21
158.182531627976
 31
0.0
100
AcDbText
 73
2
  0
TEXT
  5
87
330
17
100
AcDbEntity
  8
LABEL_ID
100
AcDbText
 10
34.76937018325051
 20
156.98253162797602
 30
0.0
 40
0.55
  1
skirt(wrap) 前
 72
1
 11
34.76937018325051
 21
156.98253162797602
 31
0.0
100
AcDbText
 73
2
  0
LWPOLYLINE
  5
88
330
17
100
AcDbEntity
  8
CUT_LINE
100
AcDbPolyline
 90
5
 70
1
 10
12.452226400053261
 20
126.88253162797602
 10
0.0
 20
95.75196562784286
 10
21.608603799906792
 20
64.88253162797602
 10
69.53874036650102
 20
64.88253162797602
 10
47.838740366501014
 20
126.88253162797602
  0
LWPOLYLINE
  5
89
330
17
100
AcDbEntity
  8
STITCH_LINE
  6
DASHED
100
AcDbPolyline
 90
5
 70
1
 10
13.129259361480162
 20
125.88253162797602
 10
47.129259361480166
 20
125.88253162797602
 10
68.12925936148017
 20
65.88253162797602
 10
22.129259361480162
 20
65.88253162797602
 10
1.1292593614801625
 20
95.88253162797602
  0
LINE
  5
8A
330
17
100
AcDbEntity
  8
NOTCH
100
AcDbLine
 10
13.129259361480162
 20
125.88253162797602
 30
0.0
 11
13.129259361480162
 21
126.88253162797602
 31
0.0
  0
LINE
  5
8B
330
17
100
AcDbEntity
  8
GRAINLINE
100
AcDbLine
 10
34.629259361480166
 20
121.08253162797602
 30
0.0
 11
34.629259361480166
 21
70.682531627976
 31
0.0
  0
LINE
  5
8C
330
17
100
AcDbEntity
  8
GRAINLINE
100
AcDbLine
 10
33.129259361480166
 20
119.58253162797602
 30
0.0
 11
34.629259361480166
 21
121.08253162797602
 31
0.0
  0
LINE
  5
8D
330
17
100
AcDbEntity
  8
GRAINLINE
100
AcDbLine
 10
36.129259361480166
 20
119.58253162797602
 30
0.0
 11
34.629259361480166
 21
121.08253162797602
 31
0.0
  0
LINE
  5
8E
330
17
100
AcDbEntity
  8
GRAINLINE
100
AcDbLine
 10
33.129259361480166
 20
72.182531627976
 30
0.0
 11
34.629259361480166
 21
70.682531627976
 31
0.0
  0
LINE
  5
8F
330
17
100
AcDbEntity
  8
GRAINLINE
100
AcDbLine
 10
36.129259361480166
 20
72.182531627976
 30
0.0
 11
34.629259361480166
 21
70.682531627976
 31
0.0
  0
TEXT
  5
90
330
17
100
AcDbEntity
  8
LABEL
100
AcDbText
 10
34.76937018325051
 20
95.88253162797602
 30
0.0
 40
0.9
  1
スカート（ラップ） 後
 72
1
 11
34.76937018325051
 21
95.88253162797602
 31
0.0
100
AcDbText
 73
2
  0
TEXT
  5
91
330
17
100
AcDbEntity
  8
LABEL_ID
100
AcDbText
 10
34.76937018325051
 20
94.68253162797602
 30
0.0
 40
0.55
  1
skirt(wrap) 後
 72
1
 11
34.76937018325051
 21
94.68253162797602
 31
0.0
100
AcDbText
 73
2
  0
LWPOLYLINE
  5
92
330
17
100
AcDbEntity
  8
CUT_LINE
100
AcDbPolyline
 90
4
 70
1
 10
0.0
 20
203.48253162797602
 10
0.0
 20
189.48253162797602
 10
73.0
 20
189.48253162797602
 10
73.0
 20
203.48253162797602
  0
LWPOLYLINE
  5
93
330
17
100
AcDbEntity
  8
STITCH_LINE
  6
DASHED
100
AcDbPolyline
 90
4
 70
1
 10
1.0
 20
202.48253162797602
 10
72.0
 20
202.48253162797602
 10
72.0
 20
190.48253162797602
 10
1.0
 20
190.48253162797602
  0
LINE
  5
94
330
17
100
AcDbEntity
  8
NOTCH
100
AcDbLine
 10
35.0
 20
202.48253162797602
 30
0.0
 11
35.0
 21
203.48253162797602
 31
0.0
  0
LINE
  5
95
330
17
100
AcDbEntity
  8
GRAINLINE
100
AcDbLine
 10
36.5
 20
201.522531627976
 30
0.0
 11
36.5
 21
191.44253162797602
 31
0.0
  0
LINE
  5
96
330
17
100
AcDbEntity
  8
GRAINLINE
100
AcDbLine
 10
36.1
 20
201.122531627976
 30
0.0
 11
36.5
 21
201.522531627976
 31
0.0
  0
LINE
  5
97
330
17
100
AcDbEntity
  8
GRAINLINE
100
AcDbLine
 10
36.9
 20
201.122531627976
 30
0.0
 11
36.5
 21
201.522531627976
 31
0.0
  0
LINE
  5
98
330
17
100
AcDbEntity
  8
GRAINLINE
100
AcDbLine
 10
36.1
 20
191.84253162797603
 30
0.0
 11
36.5
 21
191.44253162797602
 31
0.0
  0
LINE
  5
99
330
17
100
AcDbEntity
  8
GRAINLINE
100
AcDbLine
 10
36.9
 20
191.84253162797603
 30
0.0
 11
36.5
 21
191.44253162797602
 31
0.0
  0
TEXT
  5
9A
330
17
100
AcDbEntity
  8
LABEL
100
AcDbText
 10
36.5
 20
196.48253162797602
 30
0.0
 40
0.9
  1
ウエストバンド（ワイド）
 72
1
 11
36.5
 21
196.48253162797602
 31
0.0
100
AcDbText
 73
2
  0
TEXT
  5
9B
330
17
100
AcDbEntity
  8
LABEL_ID
100
AcDbText
 10
36.5
 20
195.28253162797603
 30
0.0
 40
0.55
  1
waistband(wide)
 72
1
 11
36.5
 21
195.28253162797603
 31
0.0
100
AcDbText
 73
2
  0
ENDSEC
  0
SECTION
  2
OBJECTS
  0
DICTIONARY
  5
A
330
0
100
AcDbDictionary
281
1
  3
ACAD_COLOR
350
B
  3
ACAD_GROUP
350
C
  3
ACAD_LAYOUT
350
D
  3
ACAD_MATERIAL
350
E
  3
ACAD_MLEADERSTYLE
350
F
  3
ACAD_MLINESTYLE
350
10
  3
ACAD_PLOTSETTINGS
350
11
  3
ACAD_PLOTSTYLENAME
350
12
  3
ACAD_SCALELIST
350
14
  3
ACAD_TABLESTYLE
350
15
  3
ACAD_VISUALSTYLE
350
16
  3
EZDXF_META
350
2D
  0
DICTIONARY
  5
B
330
A
100
AcDbDictionary
281
1
  0
DICTIONARY
  5
C
330
A
100
AcDbDictionary
281
1
  0
DICTIONARY
  5
D
330
A
100
AcDbDictionary
281
1
  3
Model
350
1A
  3
Layout1
350
1E
  0
DICTIONARY
  5
E
330
A
100
AcDbDictionary
281
1
  3
ByBlock
350
1F
  3
ByLayer
350
20
  3
Global
350
21
  0
DICTIONARY
  5
F
330
A
100
AcDbDictionary
281
1
  3
Standard
350
2C
  0
DICTIONARY
  5
10
330
A
100
AcDbDictionary
281
1
  3
Standard
350
22
  0
DICTIONARY
  5
11
330
A
100
AcDbDictionary
281
1
  0
ACDBDICTIONARYWDFLT
  5
12
330
A
100
AcDbDictionary
281
1
  3
Normal
350
13
100
AcDbDictionaryWithDefault
340
13
  0
ACDBPLACEHOLDER
  5
13
330
12
  0
DICTIONARY
  5
14
330
A
100
AcDbDictionary
281
1
  0
DICTIONARY
  5
15
330
A
100
AcDbDictionary
281
1
  0
DICTIONARY
  5
16
330
A
100
AcDbDictionary
281
1
  0
LAYOUT
  5
1A
330
D
100
AcDbPlotSettings
  1

  4
A3
  6

 40
7.5
 41
20.0
 42
7.5
 43
20.0
 44
420.0
 45
297.0
 46
0.0
 47
0.0
 48
0.0
 49
0.0
140
0.0
141
0.0
142
1.0
143
1.0
 70
1024
 72
1
 73
0
 74
5
  7

 75
16
 76
0
 77
2
 78
300
147
1.0
148
0.0
149
0.0
100
AcDbLayout
  1
Model
 70
1
 71
0
 10
0.0
 20
0.0
 11
420.0
 21
297.0
 12
0.0
 22
0.0
 32
0.0
 14
1e+20
 24
1e+20
 34
1e+20
 15
-1e+20
 25
-1e+20
 35
-1e+20
146
0.0
 13
0.0
 23
0.0
 33
0.0
 16
1.0
 26
0.0
 36
0.0
 17
0.0
 27
1.0
 37
0.0
 76
1
330
17
  0
LAYOUT
  5
1E
330
D
100
AcDbPlotSettings
  1

  4
A3
  6

 40
7.5
 41
20.0
 42
7.5
 43
20.0
 44
420.0
 45
297.0
 46
0.0
 47
0.0
 48
0.0
 49
0.0
140
0.0
141
0.0
142
1.0
143
1.0
 70
0
 72
1
 73
0
 74
5
  7

 75
16
 76
0
 77
2
 78
300
147
1.0
148
0.0
149
0.0
100
AcDbLayout
  1
Layout1
 70
1
 71
1
 10
0.0
 20
0.0
 11
420.0
 21
297.0
 12
0.0
 22
0.0
 32
0.0
 14
1e+20
 24
1e+20
 34
1e+20
 15
-1e+20
 25
-1e+20
 35
-1e+20
146
0.0
 13
0.0
 23
0.0
 33
0.0
 16
1.0
 26
0.0
 36
0.0
 17
0.0
 27
1.0
 37
0.0
 76
1
330
1B
  0
MATERIAL
  5
1F
102
{ACAD_REACTORS
330
E
102
}
330
E
100
AcDbMaterial
  1
ByBlock
  2

 70
0
 40
1.0
 71
1
 41
1.0
 91
-1023410177
 42
1.0
 72
1
  3

 73
1
 74
1
 75
1
 44
0.5
 73
0
 45
1.0
 46
1.0
 77
1
  4

 78
1
 79
1
170
1
 48
1.0
171
1
  6

172
1
173
1
174
1
140
1.0
141
1.0
175
1
  7

176
1
177
1
178
1
143
1.0
179
1
  8

270
1
271
1
272
1
145
1.0
146
1.0
273
1
  9

274
1
275
1
276
1
 42
1.0
 72
1
  3

 73
1
 74
1
 75
1
 94
63
  0
MATERIAL
  5
20
102
{ACAD_REACTORS
330
E
102
}
330
E
100
AcDbMaterial
  1
ByLayer
  2

 70
0
 40
1.0
 71
1
 41
1.0
 91
-1023410177
 42
1.0
 72
1
  3

 73
1
 74
1
 75
1
 44
0.5
 73
0
 45
1.0
 46
1.0
 77
1
  4

 78
1
 79
1
170
1
 48
1.0
171
1
  6

172
1
173
1
174
1
140
1.0
141
1.0
175
1
  7

176
1
177
1
178
1
143
1.0
179
1
  8

270
1
271
1
272
1
145
1.0
146
1.0
273
1
  9

274
1
275
1
276
1
 42
1.0
 72
1
  3

 73
1
 74
1
 75
1
 94
63
  0
MATERIAL
  5
21
102
{ACAD_REACTORS
330
E
102
}
330
E
100
AcDbMaterial
  1
Global
  2

 70
0
 40
1.0
 71
1
 41
1.0
 91
-1023410177
 42
1.0
 72
1
  3

 73
1
 74
1
 75
1
 44
0.5
 73
0
 45
1.0
 46
1.0
 77
1
  4

 78
1
 79
1
170
1
 48
1.0
171
1
  6

172
1
173
1
174
1
140
1.0
141
1.0
175
1
  7

176
1
177
1
178
1
143
1.0
179
1
  8

270
1
271
1
272
1
145
1.0
146
1.0
273
1
  9

274
1
275
1
276
1
 42
1.0
 72
1
  3

 73
1
 74
1
 75
1
 94
63
  0
MLINESTYLE
  5
22
102
{ACAD_REACTORS
330
10
102
}
330
10
100
AcDbMlineStyle
  2
Standard
 70
0
  3

 62
256
 51
90.0
 52
90.0
 71
2
 49
0.5
 62
256
  6
BYLAYER
 49
-0.5
 62
256
  6
BYLAYER
  0
MLEADERSTYLE
  5
2C
102
{ACAD_REACTORS
330
F
102
}
330
F
100
AcDbMLeaderStyle
179
2
170
2
171
1
172
0
 90
2
 40
0.0
 41
0.0
173
1
 91
-1056964608
 92
-2
290
1
 42
2.0
291
1
 43
8.0
  3
Standard
 44
4.0
300

342
29
174
1
175
1
176
0
178
1
 93
-1056964608
 45
4.0
292
0
297
0
 46
4.0
 94
-1056964608
 47
1.0
 49
1.0
140
1.0
294
1
141
0.0
177
0
142
1.0
295
0
296
0
143
3.75
271
0
272
9
273
9
  0
DICTIONARY
  5
2D
330
A
100
AcDbDictionary
280
1
281
1
  3
CREATED_BY_EZDXF
350
2E
  3
WRITTEN_BY_EZDXF
350
9E
  0
DICTIONARYVAR
  5
2E
330
2D
100
DictionaryVariables
280
0
  1
1.4.4 @ 2026-10-10T00:37:43.223906+00:00
  0
DICTIONARYVAR
  5
9E
330
2D
100
DictionaryVariables
280
0
  1
1.4.4 @ 2026-10-10T00:37:43.227676+00:00
  0
ENDSEC
  0
EOF
