  0
SECTION
  2
HEADER
  9
$ACADVER
  1
AC1024
  9
$ACADMAINTVER
 70
6
  9
$DWGCODEPAGE
  3
ANSI_1252
  9
$LASTSAVEDBY
  1
ezdxf
  9
$INSBASE
 10
0.0
 20
0.0
 30
0.0
  9
$EXTMIN
 10
1e+20
 20
1e+20
 30
1e+20
  9
$EXTMAX
 10
-1e+20
 20
-1e+20
 30
-1e+20
  9
$LIMMIN
 10
0.0
 20
0.0
  9
$LIMMAX
 10
420.0
 20
297.0
  9
$ORTHOMODE
 70
0
  9
$REGENMODE
 70
1
  9
$FILLMODE
 70
1
  9
$QTEXTMODE
 70
0
  9
$MIRRTEXT
 70
1
  9
$LTSCALE
 40
1.0
  9
$ATTMODE
 70
1
  9
$TEXTSIZE
 40
2.5
  9
$TRACEWID
 40
1.0
  9
$TEXTSTYLE
  7
Standard
  9
$CLAYER
  8
0
  9
$CELTYPE
  6
ByLayer
  9
$CECOLOR
 62
256
  9
$CELTSCALE
 40
1.0
  9
$DISPSILH
 70
0
  9
$DIMSCALE
 40
1.0
  9
$DIMASZ
 40
2.5
  9
$DIMEXO
 40
0.625
  9
$DIMDLI
 40
3.75
  9
$DIMRND
 40
0.0
  9
$DIMDLE
 40
0.0
  9
$DIMEXE
 40
1.25
  9
$DIMTP
 40
0.0
  9
$DIMTM
 40
0.0
  9
$DIMTXT
 40
2.5
  9
$DIMCEN
 40
2.5
  9
$DIMTSZ
 40
0.0
  9
$DIMTOL
 70
0
  9
$DIMLIM
 70
0
  9
$DIMTIH
 70
0
  9
$DIMTOH
 70
0
  9
$DIMSE1
 70
0
  9
$DIMSE2
 70
0
  9
$DIMTAD
 70
1
  9
$DIMZIN
 70
8
  9
$DIMBLK
  1

  9
$DIMASO
 70
1
  9
$DIMSHO
 70
1
  9
$DIMPOST
  1

  9
$DIMAPOST
  1

  9
$DIMALT
 70
0
  9
$DIMALTD
 70
3
  9
$DIMALTF
 40
0.03937007874
  9
$DIMLFAC
 40
1.0
  9
$DIMTOFL
 70
1
  9
$DIMTVP
 40
0.0
  9
$DIMTIX
 70
0
  9
$DIMSOXD
 70
0
  9
$DIMSAH
 70
0
  9
$DIMBLK1
  1

  9
$DIMBLK2
  1

  9
$DIMSTYLE
  2
ISO-25
  9
$DIMCLRD
 70
0
  9
$DIMCLRE
 70
0
  9
$DIMCLRT
 70
0
  9
$DIMTFAC
 40
1.0
  9
$DIMGAP
 40
0.625
  9
$DIMJUST
 70
0
  9
$DIMSD1
 70
0
  9
$DIMSD2
 70
0
  9
$DIMTOLJ
 70
0
  9
$DIMTZIN
 70
8
  9
$DIMALTZ
 70
0
  9
$DIMALTTZ
 70
0
  9
$DIMUPT
 70
0
  9
$DIMDEC
 70
2
  9
$DIMTDEC
 70
2
  9
$DIMALTU
 70
2
  9
$DIMALTTD
 70
3
  9
$DIMTXSTY
  7
Standard
  9
$DIMAUNIT
 70
0
  9
$DIMADEC
 70
0
  9
$DIMALTRND
 40
0.0
  9
$DIMAZIN
 70
0
  9
$DIMDSEP
 70
44
  9
$DIMATFIT
 70
3
  9
$DIMFRAC
 70
0
  9
$DIMLDRBLK
  1

  9
$DIMLUNIT
 70
2
  9
$DIMLWD
 70
-2
  9
$DIMLWE
 70
-2
  9
$DIMTMOVE
 70
0
  9
$DIMFXL
 40
1.0
  9
$DIMFXLON
 70
0
  9
$DIMJOGANG
 40
0.785398163397
  9
$DIMTFILL
 70
0
  9
$DIMTFILLCLR
 70
0
  9
$DIMARCSYM
 70
0
  9
$DIMLTYPE
  6

  9
$DIMLTEX1
  6

  9
$DIMLTEX2
  6

  9
$DIMTXTDIRECTION
 70
0
  9
$LUNITS
 70
2
  9
$LUPREC
 70
4
  9
$SKETCHINC
 40
1.0
  9
$FILLETRAD
 40
10.0
  9
$AUNITS
 70
0
  9
$AUPREC
 70
2
  9
$MENU
  1
.
  9
$ELEVATION
 40
0.0
  9
$PELEVATION
 40
0.0
  9
$THICKNESS
 40
0.0
  9
$LIMCHECK
 70
0
  9
$CHAMFERA
 40
0.0
  9
$CHAMFERB
 40
0.0
  9
$CHAMFERC
 40
0.0
  9
$CHAMFERD
 40
0.0
  9
$SKPOLY
 70
0
  9
$TDCREATE
 40
2461324.411724537
  9
$TDUCREATE
 40
2458532.153996898
  9
$TDUPDATE
 40
2461324.411724537
  9
$TDUUPDATE
 40
2458532.1544311
  9
$TDINDWG
 40
0.0
  9
$TDUSRTIMER
 40
0.0
  9
$USRTIMER
 70
1
  9
$ANGBASE
 50
0.0
  9
$ANGDIR
 70
0
  9
$PDMODE
 70
0
  9
$PDSIZE
 40
0.0
  9
$PLINEWID
 40
0.0
  9
$SPLFRAME
 70
0
  9
$SPLINETYPE
 70
6
  9
$SPLINESEGS
 70
8
  9
$HANDSEED
  5
C7
  9
$SURFTAB1
 70
6
  9
$SURFTAB2
 70
6
  9
$SURFTYPE
 70
6
  9
$SURFU
 70
6
  9
$SURFV
 70
6
  9
$UCSBASE
  2

  9
$UCSNAME
  2

  9
$UCSORG
 10
0.0
 20
0.0
 30
0.0
  9
$UCSXDIR
 10
1.0
 20
0.0
 30
0.0
  9
$UCSYDIR
 10
0.0
 20
1.0
 30
0.0
  9
$UCSORTHOREF
  2

  9
$UCSORTHOVIEW
 70
0
  9
$UCSORGTOP
 10
0.0
 20
0.0
 30
0.0
  9
$UCSORGBOTTOM
 10
0.0
 20
0.0
 30
0.0
  9
$UCSORGLEFT
 10
0.0
 20
0.0
 30
0.0
  9
$UCSORGRIGHT
 10
0.0
 20
0.0
 30
0.0
  9
$UCSORGFRONT
 10
0.0
 20
0.0
 30
0.0
  9
$UCSORGBACK
 10
0.0
 20
0.0
 30
0.0
  9
$PUCSBASE
  2

  9
$PUCSNAME
  2

  9
$PUCSORG
 10
0.0
 20
0.0
 30
0.0
  9
$PUCSXDIR
 10
1.0
 20
0.0
 30
0.0
  9
$PUCSYDIR
 10
0.0
 20
1.0
 30
0.0
  9
$PUCSORTHOREF
  2

  9
$PUCSORTHOVIEW
 70
0
  9
$PUCSORGTOP
 10
0.0
 20
0.0
 30
0.0
  9
$PUCSORGBOTTOM
 10
0.0
 20
0.0
 30
0.0
  9
$PUCSORGLEFT
 10
0.0
 20
0.0
 30
0.0
  9
$PUCSORGRIGHT
 10
0.0
 20
0.0
 30
0.0
  9
$PUCSORGFRONT
 10
0.0
 20
0.0
 30
0.0
  9
$PUCSORGBACK
 10
0.0
 20
0.0
 30
0.0
  9
$USERI1
 70
0
  9
$USERI2
 70
0
  9
$USERI3
 70
0
  9
$USERI4
 70
0
  9
$USERI5
 70
0
  9
$USERR1
 40
0.0
  9
$USERR2
 40
0.0
  9
$USERR3
 40
0.0
  9
$USERR4
 40
0.0
  9
$USERR5
 40
0.0
  9
$WORLDVIEW
 70
1
  9
$SHADEDGE
 70
3
  9
$SHADEDIF
 70
70
  9
$TILEMODE
 70
1
  9
$MAXACTVP
 70
64
  9
$PINSBASE
 10
0.0
 20
0.0
 30
0.0
  9
$PLIMCHECK
 70
0
  9
$PEXTMIN
 10
1e+20
 20
1e+20
 30
1e+20
  9
$PEXTMAX
 10
-1e+20
 20
-1e+20
 30
-1e+20
  9
$PLIMMIN
 10
0.0
 20
0.0
  9
$PLIMMAX
 10
420.0
 20
297.0
  9
$UNITMODE
 70
0
  9
$VISRETAIN
 70
1
  9
$PLINEGEN
 70
0
  9
$PSLTSCALE
 70
1
  9
$TREEDEPTH
 70
3020
  9
$CMLSTYLE
  2
Standard
  9
$CMLJUST
 70
0
  9
$CMLSCALE
 40
20.0
  9
$PROXYGRAPHICS
 70
1
  9
$MEASUREMENT
 70
1
  9
$CELWEIGHT
370
-1
  9
$ENDCAPS
280
0
  9
$JOINSTYLE
280
0
  9
$LWDISPLAY
290
0
  9
$INSUNITS
 70
5
  9
$HYPERLINKBASE
  1

  9
$STYLESHEET
  1

  9
$XEDIT
290
1
  9
$CEPSNTYPE
380
0
  9
$PSTYLEMODE
290
1
  9
$FINGERPRINTGUID
  2
{71120F8C-46B2-4F70-B165-774A1A0E9E2E}
  9
$VERSIONGUID
  2
{9CF0ECAA-1328-4996-BD80-0461AB908E48}
  9
$EXTNAMES
290
1
  9
$PSVPSCALE
 40
0.0
  9
$OLESTARTUP
290
0
  9
$SORTENTS
280
127
  9
$INDEXCTL
280
0
  9
$HIDETEXT
280
1
  9
$XCLIPFRAME
280
1
  9
$HALOGAP
280
0
  9
$OBSCOLOR
 70
257
  9
$OBSLTYPE
280
0
  9
$INTERSECTIONDISPLAY
280
0
  9
$INTERSECTIONCOLOR
 70
257
  9
$DIMASSOC
280
2
  9
$PROJECTNAME
  1

  9
$CAMERADISPLAY
290
0
  9
$LENSLENGTH
 40
50.0
  9
$CAMERAHEIGHT
 40
0.0
  9
$STEPSPERSEC
 40
24.0
  9
$STEPSIZE
 40
100.0
  9
$3DDWFPREC
 40
2.0
  9
$PSOLWIDTH
 40
0.005
  9
$PSOLHEIGHT
 40
0.08
  9
$LOFTANG1
 40
1.570796326795
  9
$LOFTANG2
 40
1.570796326795
  9
$LOFTMAG1
 40
0.0
  9
$LOFTMAG2
 40
0.0
  9
$LOFTPARAM
 70
7
  9
$LOFTNORMALS
280
1
  9
$LATITUDE
 40
37.795
  9
$LONGITUDE
 40
-122.394
  9
$NORTHDIRECTION
 40
0.0
  9
$TIMEZONE
 70
-8000
  9
$LIGHTGLYPHDISPLAY
280
1
  9
$TILEMODELIGHTSYNCH
280
1
  9
$CMATERIAL
347
20
  9
$SOLIDHIST
280
0
  9
$SHOWHIST
280
1
  9
$DWFFRAME
280
2
  9
$DGNFRAME
280
2
  9
$REALWORLDSCALE
290
1
  9
$INTERFERECOLOR
 62
256
  9
$CSHADOW
280
0
  9
$SHADOWPLANELOCATION
 40
0.0
  0
ENDSEC
  0
SECTION
  2
CLASSES
  0
CLASS
  1
ACDBDICTIONARYWDFLT
  2
AcDbDictionaryWithDefault
  3
ObjectDBX Classes
 90
0
 91
0
280
0
281
0
  0
CLASS
  1
SUN
  2
AcDbSun
  3
SCENEOE
 90
1153
 91
0
280
0
281
0
  0
CLASS
  1
VISUALSTYLE
  2
AcDbVisualStyle
  3
ObjectDBX Classes
 90
4095
 91
0
280
0
281
0
  0
CLASS
  1
MATERIAL
  2
AcDbMaterial
  3
ObjectDBX Classes
 90
1153
 91
0
280
0
281
0
  0
CLASS
  1
SCALE
  2
AcDbScale
  3
ObjectDBX Classes
 90
1153
 91
0
280
0
281
0
  0
CLASS
  1
TABLESTYLE
  2
AcDbTableStyle
  3
ObjectDBX Classes
 90
4095
 91
0
280
0
281
0
  0
CLASS
  1
MLEADERSTYLE
  2
AcDbMLeaderStyle
  3
ACDB_MLEADERSTYLE_CLASS
 90
4095
 91
0
280
0
281
0
  0
CLASS
  1
DICTIONARYVAR
  2
AcDbDictionaryVar
  3
ObjectDBX Classes
 90
0
 91
0
280
0
281
0
  0
CLASS
  1
CELLSTYLEMAP
  2
AcDbCellStyleMap
  3
ObjectDBX Classes
 90
1152
 91
0
280
0
281
0
  0
CLASS
  1
MENTALRAYRENDERSETTINGS
  2
AcDbMentalRayRenderSettings
  3
SCENEOE
 90
1024
 91
0
280
0
281
0
  0
CLASS
  1
ACDBDETAILVIEWSTYLE
  2
AcDbDetailViewStyle
  3
ObjectDBX Classes
 90
1025
 91
0
280
0
281
0
  0
CLASS
  1
ACDBSECTIONVIEWSTYLE
  2
AcDbSectionViewStyle
  3
ObjectDBX Classes
 90
1025
 91
0
280
0
281
0
  0
CLASS
  1
RASTERVARIABLES
  2
AcDbRasterVariables
  3
ISM
 90
0
 91
0
280
0
281
0
  0
CLASS
  1
ACDBPLACEHOLDER
  2
AcDbPlaceHolder
  3
ObjectDBX Classes
 90
0
 91
0
280
0
281
0
  0
CLASS
  1
LAYOUT
  2
AcDbLayout
  3
ObjectDBX Classes
 90
0
 91
0
280
0
281
0
  0
ENDSEC
  0
SECTION
  2
TABLES
  0
TABLE
  2
VPORT
  5
8
330
0
100
AcDbSymbolTable
 70
1
  0
VPORT
  5
23
330
8
100
AcDbSymbolTableRecord
100
AcDbViewportTableRecord
  2
*Active
 70
0
 10
0.0
 20
0.0
 11
1.0
 21
1.0
 12
0.0
 22
0.0
 13
0.0
 23
0.0
 14
0.5
 24
0.5
 15
0.5
 25
0.5
 16
0.0
 26
0.0
 36
1.0
 17
0.0
 27
0.0
 37
0.0
 40
1000.0
 41
1.34
 42
50.0
 43
0.0
 44
0.0
 50
0.0
 51
0.0
 71
0
 72
1000
 73
1
 74
3
 75
0
 76
0
 77
0
 78
0
281
0
 65
0
146
0.0
  0
ENDTAB
  0
TABLE
  2
LTYPE
  5
2
330
0
100
AcDbSymbolTable
 70
4
  0
LTYPE
  5
24
330
2
100
AcDbSymbolTableRecord
100
AcDbLinetypeTableRecord
  2
ByBlock
 70
0
  3

 72
65
 73
0
 40
0.0
  0
LTYPE
  5
25
330
2
100
AcDbSymbolTableRecord
100
AcDbLinetypeTableRecord
  2
ByLayer
 70
0
  3

 72
65
 73
0
 40
0.0
  0
LTYPE
  5
26
330
2
100
AcDbSymbolTableRecord
100
AcDbLinetypeTableRecord
  2
Continuous
 70
0
  3

 72
65
 73
0
 40
0.0
  0
LTYPE
  5
2F
330
2
100
AcDbSymbolTableRecord
100
AcDbLinetypeTableRecord
  2
DASHED
 70
0
  3
Dashed
 72
65
 73
2
 40
0.6
 49
0.5
 74
0
 49
-0.1
 74
0
  0
ENDTAB
  0
TABLE
  2
LAYER
  5
1
330
0
100
AcDbSymbolTable
 70
10
  0
LAYER
  5
27
330
1
100
AcDbSymbolTableRecord
100
AcDbLayerTableRecord
  2
0
 70
0
 62
7
  6
Continuous
370
-3
390
13
347
21
  0
LAYER
  5
28
330
1
100
AcDbSymbolTableRecord
100
AcDbLayerTableRecord
  2
Defpoints
 70
0
 62
7
  6
Continuous
290
0
370
-3
390
13
347
21
  0
LAYER
  5
30
330
1
100
AcDbSymbolTableRecord
100
AcDbLayerTableRecord
  2
CUT_LINE
 70
0
 62
7
  6
Continuous
370
-3
390
13
347
21
  0
LAYER
  5
31
330
1
100
AcDbSymbolTableRecord
100
AcDbLayerTableRecord
  2
STITCH_LINE
 70
0
 62
3
  6
Continuous
370
-3
390
13
347
21
  0
LAYER
  5
32
330
1
100
AcDbSymbolTableRecord
100
AcDbLayerTableRecord
  2
NOTCH
 70
0
 62
1
  6
Continuous
370
-3
390
13
347
21
  0
LAYER
  5
33
330
1
100
AcDbSymbolTableRecord
100
AcDbLayerTableRecord
  2
GRAINLINE
 70
0
 62
5
  6
Continuous
370
-3
390
13
347
21
  0
LAYER
  5
34
330
1
100
AcDbSymbolTableRecord
100
AcDbLayerTableRecord
  2
LABEL
 70
0
 62
8
  6
Continuous
370
-3
390
13
347
21
  0
LAYER
  5
35
330
1
100
AcDbSymbolTableRecord
100
AcDbLayerTableRecord
  2
LABEL_ID
 70
0
 62
8
  6
Continuous
370
-3
390
13
347
21
  0
LAYER
  5
36
330
1
100
AcDbSymbolTableRecord
100
AcDbLayerTableRecord
  2
WARNING
 70
0
 62
1
  6
Continuous
370
-3
390
13
347
21
  0
LAYER
  5
37
330
1
100
AcDbSymbolTableRecord
100
AcDbLayerTableRecord
  2
REFERENCE_LINE
 70
0
 62
6
  6
Continuous
370
-3
390
13
347
21
  0
ENDTAB
  0
TABLE
  2
STYLE
  5
5
330
0
100
AcDbSymbolTable
 70
1
  0
STYLE
  5
29
330
5
100
AcDbSymbolTableRecord
100
AcDbTextStyleTableRecord
  2
Standard
 70
0
 40
0.0
 41
1.0
 50
0.0
 71
0
 42
2.5
  3
txt
  4

  0
ENDTAB
  0
TABLE
  2
VIEW
  5
7
330
0
100
AcDbSymbolTable
 70
0
  0
ENDTAB
  0
TABLE
  2
UCS
  5
6
330
0
100
AcDbSymbolTable
 70
0
  0
ENDTAB
  0
TABLE
  2
APPID
  5
3
330
0
100
AcDbSymbolTable
 70
3
  0
APPID
  5
2A
330
3
100
AcDbSymbolTableRecord
100
AcDbRegAppTableRecord
  2
ACAD
 70
0
  0
APPID
  5
C4
330
3
100
AcDbSymbolTableRecord
100
AcDbRegAppTableRecord
  2
HATCHBACKGROUNDCOLOR
 70
0
  0
APPID
  5
C5
330
3
100
AcDbSymbolTableRecord
100
AcDbRegAppTableRecord
  2
EZDXF
 70
0
  0
ENDTAB
  0
TABLE
  2
DIMSTYLE
  5
4
330
0
100
AcDbSymbolTable
 70
1
100
AcDbDimStyleTable
  0
DIMSTYLE
105
2B
330
4
100
AcDbSymbolTableRecord
100
AcDbDimStyleTableRecord
  2
Standard
 70
0
 40
1.0
 41
2.5
 42
0.625
 43
3.75
 44
1.25
 45
0.0
 46
0.0
 47
0.0
 48
0.0
 49
2.5
140
2.5
141
2.5
142
0.0
143
0.03937007874
144
1.0
145
0.0
146
1.0
147
0.625
148
0.0
 69
0
 70
0
 71
0
 72
0
 73
0
 74
0
 75
0
 76
0
 77
1
 78
8
 79
3
170
0
171
3
172
1
173
0
174
0
175
0
176
0
177
0
178
0
179
2
271
2
272
2
273
2
274
3
275
0
276
0
277
2
278
44
279
0
280
0
281
0
282
0
283
0
284
8
285
0
286
0
288
0
289
3
290
0
371
-2
372
-2
  0
ENDTAB
  0
TABLE
  2
BLOCK_RECORD
  5
9
330
0
100
AcDbSymbolTable
 70
2
  0
BLOCK_RECORD
  5
17
330
9
100
AcDbSymbolTableRecord
100
AcDbBlockTableRecord
  2
*Model_Space
340
1A
 70
0
280
1
281
0
  0
BLOCK_RECORD
  5
1B
330
9
100
AcDbSymbolTableRecord
100
AcDbBlockTableRecord
  2
*Paper_Space
340
1E
 70
0
280
1
281
0
  0
ENDTAB
  0
ENDSEC
  0
SECTION
  2
BLOCKS
  0
BLOCK
  5
18
330
17
100
AcDbEntity
  8
0
100
AcDbBlockBegin
  2
*Model_Space
 70
0
 10
0.0
 20
0.0
 30
0.0
  3
*Model_Space
  1

  0
ENDBLK
  5
19
330
17
100
AcDbEntity
  8
0
100
AcDbBlockEnd
  0
BLOCK
  5
1C
330
1B
100
AcDbEntity
  8
0
100
AcDbBlockBegin
  2
*Paper_Space
 70
0
 10
0.0
 20
0.0
 30
0.0
  3
*Paper_Space
  1

  0
ENDBLK
  5
1D
330
1B
100
AcDbEntity
  8
0
100
AcDbBlockEnd
  0
ENDSEC
  0
SECTION
  2
ENTITIES
  0
LWPOLYLINE
  5
38
330
17
100
AcDbEntity
  8
CUT_LINE
100
AcDbPolyline
 90
75
 70
1
 10
5.267524375162494
 20
105.31396272903183
 10
6.164391520014986
 20
103.65154792793459
 10
6.477304610525346
 20
103.00206994098973
 10
6.748651808326272
 20
102.36270766951752
 10
6.979877048086103
 20
101.73326789513372
 10
7.172418181650305
 20
101.11348098899603
 10
7.327690013821252
 20
100.50300028692449
 10
7.44706638116601
 20
99.90140707646349
 10
7.531863122908484
 20
99.30822162529917
 10
7.5833239812194355
 20
98.722919850157
 10
7.6026112825990495
 20
98.14495432978214
 10
7.590802678591529
 20
97.57377761503749
 10
7.548894364530991
 20
97.00886538061826
 10
7.477810244194793
 20
96.44973700856436
 10
7.3784156905173655
 20
95.89597167765919
 10
7.251534045264207
 20
95.34721881794191
 10
7.097963879626867
 20
94.80320267155852
 10
6.918495267009052
 20
94.26372148095032
 10
6.713923782382764
 20
93.7286423676908
 10
6.4850614947809335
 20
93.19789322265652
 10
6.232744735203795
 20
92.67145293007582
 10
5.957838821947938
 20
92.14934106940298
 10
5.661240179753589
 20
91.63160796672607
 10
5.343876407524318
 20
91.1183256755854
 10
5.00670486256616
 20
90.60958020555708
 10
4.650710274441353
 20
90.10546511093736
 10
4.276901811941228
 20
89.60607640730034
 10
3.8863099272437873
 20
89.11150869461021
 10
3.4833456233228453
 20
88.62590430148892
 10
2.6238118629707383
 20
87.65718454081751
 10
1.535381013103878
 20
86.52296536782981
 10
0.0
 20
81.18048119820806
 10
9.181902119571948
 20
83.0319730846002
 10
2.3343617731779163
 20
78.44215897693977
 10
2.1425130133172354
 20
67.25131442297442
 10
0.3388147149449501
 20
46.20000000000002
 10
50.01750458919238
 20
46.20000000000002
 10
48.213806294707375
 20
67.25131437760518
 10
48.02195753080534
 20
78.44215897704305
 10
41.174417184565385
 20
83.0319730846002
 10
50.35631930413733
 20
81.18048119820806
 10
48.82093829103345
 20
86.52296536782981
 10
47.7325074411666
 20
87.6571845408175
 10
46.87297368081453
 20
88.62590430148887
 10
46.47000937689349
 20
89.11150869461027
 10
46.07941749219614
 20
89.60607640730028
 10
45.70560902969595
 20
90.1054651109374
 10
45.34961444157125
 20
90.60958020555697
 10
45.01244289661297
 20
91.11832567558547
 10
44.695079124383675
 20
91.63160796672618
 10
44.3984804821894
 20
92.14934106940296
 10
44.12357456893356
 20
92.67145293007576
 10
43.87125780935643
 20
93.19789322265648
 10
43.642395521754544
 20
93.72864236769085
 10
43.43782403712828
 20
94.26372148095032
 10
43.25835542451047
 20
94.80320267155848
 10
43.1047852588731
 20
95.34721881794201
 10
42.977903613619965
 20
95.89597167765916
 10
42.87850905994254
 20
96.44973700856437
 10
42.807424939606335
 20
97.00886538061826
 10
42.76551662554581
 20
97.57377761503743
 10
42.75370802153827
 20
98.14495432978214
 10
42.7729953229179
 20
98.72291985015697
 10
42.824456181228854
 20
99.30822162529924
 10
42.909252922971305
 20
99.90140707646343
 10
43.02862929031607
 20
100.50300028692448
 10
43.183901122487015
 20
101.113480988996
 10
43.37644225605123
 20
101.73326789513372
 10
43.607667495811064
 20
102.36270766951753
 10
43.87901469361202
 20
103.00206994098983
 10
44.19192778412232
 20
103.65154792793454
 10
45.08879492897484
 20
105.31396272903183
 10
31.55361194019671
 20
110.78253162797607
 10
25.178159652068665
 20
97.99258228705077
 10
18.802707363940613
 20
110.78253162797607
  0
LWPOLYLINE
  5
39
330
17
100
AcDbEntity
  8
STITCH_LINE
  6
DASHED
100
AcDbPolyline
 90
78
 70
1
 10
6.678159652068663
 20
104.80536163331257
 10
7.055349502788275
 20
104.10621015445773
 10
7.388531430436918
 20
103.41466245569349
 10
7.678815889575111
 20
102.73067923172137
 10
7.927313334763374
 20
102.05422117724291
 10
8.135134220562225
 20
101.38524898695965
 10
8.303389001532182
 20
100.72372335557311
 10
8.433188132233765
 20
100.06960497778482
 10
8.52564206722749
 20
99.42285454829631
 10
8.58186126107388
 20
98.78343276180911
 10
8.602956168333451
 20
98.15130031302476
 10
8.590037243566723
 20
97.52641789664477
 10
8.54421494133421
 20
96.9087462073707
 10
8.466599716196438
 20
96.29824593990406
 10
8.35830202271392
 20
95.69487778894637
 10
8.220432315447177
 20
95.09860244919919
 10
8.054101048956728
 20
94.50938061536402
 10
7.860418677803088
 20
93.92717298214242
 10
7.640495656546781
 20
93.35194024423589
 10
7.395442439748324
 20
92.783643096346
 10
7.126369481968235
 20
92.22224223317423
 10
6.834387237767032
 20
91.66769834942214
 10
6.520606161705235
 20
91.11997213979126
 10
6.186136708343361
 20
90.57902429898311
 10
5.832089332241931
 20
90.04481552169923
 10
5.459574487961461
 20
89.51730650264116
 10
5.069702630062472
 20
88.99645793651041
 10
4.663584213105482
 20
88.48223051800852
 10
4.242329691651008
 20
87.97458494183701
 10
3.3588541534916887
 20
86.97888209529128
 10
2.428159652068663
 20
86.00903495448547
 10
1.4156940612967404
 20
82.48607788726807
 10
13.927520342217415
 20
85.00903495448547
 10
3.3252568024462033
 20
77.90248043909634
 10
3.1417802480384953
 20
67.20000000000002
 10
3.1417802441387623
 20
67.19999995448546
 10
1.428159652068663
 20
47.20000000000002
 10
48.928159652068665
 20
47.20000000000002
 10
47.214539059998565
 20
67.19999995448546
 10
47.21453905609883
 20
67.20000000000002
 10
47.031062501691125
 20
77.90248043909634
 10
36.42879896191991
 20
85.00903495448547
 10
48.94062524284059
 20
82.48607788726805
 10
47.928159652068665
 20
86.00903495448547
 10
46.99746515064564
 20
86.97888209529128
 10
46.11398961248632
 20
87.97458494183701
 10
45.69273509103185
 20
88.48223051800852
 10
45.28661667407486
 20
88.99645793651041
 10
44.896744816175875
 20
89.51730650264116
 10
44.5242299718954
 20
90.04481552169923
 10
44.17018259579397
 20
90.57902429898311
 10
43.83571314243209
 20
91.11997213979126
 10
43.5219320663703
 20
91.66769834942214
 10
43.2299498221691
 20
92.22224223317423
 10
42.960876864389014
 20
92.783643096346
 10
42.71582364759055
 20
93.35194024423589
 10
42.49590062633424
 20
93.92717298214242
 10
42.3022182551806
 20
94.50938061536402
 10
42.13588698869015
 20
95.09860244919919
 10
41.99801728142341
 20
95.69487778894637
 10
41.889719587940895
 20
96.29824593990406
 10
41.81210436280312
 20
96.9087462073707
 10
41.76628206057061
 20
97.52641789664477
 10
41.75336313580387
 20
98.15130031302476
 10
41.774458043063454
 20
98.78343276180911
 10
41.830677236909835
 20
99.42285454829631
 10
41.92313117190356
 20
100.06960497778482
 10
42.05293030260514
 20
100.72372335557311
 10
42.2211850835751
 20
101.38524898695965
 10
42.429005969373954
 20
102.05422117724291
 10
42.67750341456222
 20
102.73067923172137
 10
42.96778787370041
 20
103.41466245569349
 10
43.30096980134905
 20
104.10621015445773
 10
43.678159652068665
 20
104.80536163331257
 10
32.03615965206866
 20
109.50903495448547
 10
25.178159652068665
 20
95.75103495448548
 10
18.32015965206866
 20
109.50903495448547
 10
6.678159652068663
 20
104.80536163331257
  0
LWPOLYLINE
  5
3A
330
17
100
AcDbEntity
  8
STITCH_LINE
  6
DASHED
100
AcDbPolyline
 90
4
 70
1
 10
15.26178892025509
 20
79.20000000000002
 10
16.90285636651211
 20
67.20000000000002
 10
15.26178892025509
 20
55.20000000000002
 10
13.620721473998069
 20
67.20000000000002
  0
LWPOLYLINE
  5
3B
330
17
100
AcDbEntity
  8
STITCH_LINE
  6
DASHED
100
AcDbPolyline
 90
4
 70
1
 10
35.09453038388224
 20
79.20000000000002
 10
36.735597830139255
 20
67.20000000000002
 10
35.09453038388224
 20
55.20000000000002
 10
33.45346293762522
 20
67.20000000000002
  0
LWPOLYLINE
  5
3C
330
17
100
AcDbEntity
  8
REFERENCE_LINE
  6
DASHED
100
AcDbPolyline
 90
2
 70
0
 10
2.828159652068663
 20
86.00903495448547
 10
47.528159652068666
 20
86.00903495448547
  0
LWPOLYLINE
  5
3D
330
17
100
AcDbEntity
  8
REFERENCE_LINE
  6
DASHED
100
AcDbPolyline
 90
2
 70
0
 10
3.5417802480384957
 20
67.20000000000002
 10
46.81453905609883
 20
67.20000000000002
  0
LWPOLYLINE
  5
3E
330
17
100
AcDbEntity
  8
REFERENCE_LINE
  6
DASHED
100
AcDbPolyline
 90
2
 70
0
 10
1.8282453330984612
 20
47.20100000000002
 10
48.528073971038864
 20
47.20100000000002
  0
LWPOLYLINE
  5
3F
330
17
100
AcDbEntity
  8
REFERENCE_LINE
  6
DASHED
100
AcDbPolyline
 90
2
 70
0
 10
25.178159652068665
 20
109.10903495448548
 10
25.178159652068665
 20
47.60000000000002
  0
LWPOLYLINE
  5
40
330
17
100
AcDbEntity
  8
REFERENCE_LINE
  6
DASHED
100
AcDbPolyline
 90
2
 70
0
 10
15.190659652068664
 20
86.00903495448547
 10
17.190659652068664
 20
86.00903495448547
  0
LWPOLYLINE
  5
41
330
17
100
AcDbEntity
  8
REFERENCE_LINE
  6
DASHED
100
AcDbPolyline
 90
2
 70
0
 10
16.190659652068664
 20
87.00903495448547
 10
16.190659652068664
 20
85.00903495448547
  0
LWPOLYLINE
  5
42
330
17
100
AcDbEntity
  8
REFERENCE_LINE
  6
DASHED
100
AcDbPolyline
 90
2
 70
0
 10
33.16565965206866
 20
86.00903495448547
 10
35.16565965206866
 20
86.00903495448547
  0
LWPOLYLINE
  5
43
330
17
100
AcDbEntity
  8
REFERENCE_LINE
  6
DASHED
100
AcDbPolyline
 90
2
 70
0
 10
34.16565965206866
 20
87.00903495448547
 10
34.16565965206866
 20
85.00903495448547
  0
LINE
  5
44
330
17
100
AcDbEntity
  8
NOTCH
100
AcDbLine
 10
2.894099876850956
 20
64.30927410921598
 30
0.0
 11
1.8977504089648243
 21
64.39464235766363
 31
0.0
  0
LINE
  5
45
330
17
100
AcDbEntity
  8
NOTCH
100
AcDbLine
 10
47.46221942728637
 20
64.30927410921598
 30
0.0
 11
48.458568895172505
 21
64.39464235766364
 31
0.0
  0
LINE
  5
46
330
17
100
AcDbEntity
  8
NOTCH
100
AcDbLine
 10
7.7775736847798225
 20
93.71048283353319
 30
0.0
 11
6.843511608358709
 21
94.06759351300369
 31
0.0
  0
LINE
  5
47
330
17
100
AcDbEntity
  8
NOTCH
100
AcDbLine
 10
42.578745619357505
 20
93.71048283353319
 30
0.0
 11
43.51280769577862
 21
94.06759351300369
 31
0.0
  0
LINE
  5
48
330
17
100
AcDbEntity
  8
GRAINLINE
100
AcDbLine
 10
17.69298299097551
 20
104.29118800435835
 30
0.0
 11
17.69298299097551
 21
52.16445113081379
 31
0.0
  0
LINE
  5
49
330
17
100
AcDbEntity
  8
GRAINLINE
100
AcDbLine
 10
16.19298299097551
 20
102.79118800435835
 30
0.0
 11
17.69298299097551
 21
104.29118800435835
 31
0.0
  0
LINE
  5
4A
330
17
100
AcDbEntity
  8
GRAINLINE
100
AcDbLine
 10
19.19298299097551
 20
102.79118800435835
 30
0.0
 11
17.69298299097551
 21
104.29118800435835
 31
0.0
  0
LINE
  5
4B
330
17
100
AcDbEntity
  8
GRAINLINE
100
AcDbLine
 10
16.19298299097551
 20
53.66445113081379
 30
0.0
 11
17.69298299097551
 21
52.16445113081379
 31
0.0
  0
LINE
  5
4C
330
17
100
AcDbEntity
  8
GRAINLINE
100
AcDbLine
 10
19.19298299097551
 20
53.66445113081379
 30
0.0
 11
17.69298299097551
 21
52.16445113081379
 31
0.0
  0
TEXT
  5
4D
330
17
100
AcDbEntity
  8
LABEL
100
AcDbText
 10
25.178159652068665
 20
78.49126581398804
 30
0.0
 40
0.9
  1
前身頃（Vネック） [ダーツ4本]
 72
1
 11
25.178159652068665
 21
78.49126581398804
 31
0.0
100
AcDbText
 73
2
  0
TEXT
  5
4E
330
17
100
AcDbEntity
  8
LABEL_ID
100
AcDbText
 10
25.178159652068665
 20
77.29126581398803
 30
0.0
 40
0.55
  1
front_bodice(v_neck) [ダーツ4本]
 72
1
 11
25.178159652068665
 21
77.29126581398803
 31
0.0
100
AcDbText
 73
2
  0
LWPOLYLINE
  5
4F
330
17
100
AcDbEntity
  8
CUT_LINE
100
AcDbPolyline
 90
57
 70
1
 10
54.885460128247225
 20
106.53696625857789
 10
55.33725809017875
 20
104.91195348267235
 10
55.493845183502934
 20
104.23725599836155
 10
55.61894403158671
 20
103.56899496270083
 10
55.71387510283629
 20
102.90694830814374
 10
55.77992029482646
 20
102.25089983895096
 10
55.81832527094108
 20
101.6006475305451
 10
55.83030348495292
 20
100.9560106458131
 10
55.81704146591764
 20
100.31683525840316
 10
55.77970486014149
 20
99.68299796165326
 10
55.71944472175346
 20
99.054407732269
 10
55.637403598223656
 20
98.43100608220098
 10
55.53472105305865
 20
97.81276575203383
 10
55.41253838304093
 20
97.19968826761105
 10
55.27200240206433
 20
96.59180070153906
 10
55.11426826343247
 20
95.98915196230314
 10
54.940501369357264
 20
95.39180888864156
 10
54.75187846799185
 20
94.79985236809827
 10
54.5512368691126
 20
94.2181538320092
 10
54.10837246314244
 20
93.05649142838442
 10
53.62748734633938
 20
91.92349059034802
 10
53.11634159303087
 20
90.81440028429844
 10
52.5849189827358
 20
89.72992760035557
 10
52.043577379654735
 20
88.67122408906866
 10
50.85110120549034
 20
86.40310973949748
 10
51.11339218528461
 20
71.68716271669226
 10
49.79061072227951
 20
50.66463752224273
 10
99.4204102049693
 20
50.66463752224273
 10
98.0976287419642
 20
71.68716271669227
 10
98.35991972175847
 20
86.4031097394975
 10
97.16744354759416
 20
88.67122408906849
 10
96.62610194451295
 20
89.72992760035567
 10
96.09467933421789
 20
90.81440028429859
 10
95.58353358090949
 20
91.92349059034791
 10
95.10264846410637
 20
93.05649142838443
 10
94.65978405813618
 20
94.21815383200924
 10
94.45914245925694
 20
94.79985236809834
 10
94.27051955789162
 20
95.39180888864136
 10
94.09675266381629
 20
95.9891519623033
 10
93.93901852518451
 20
96.59180070153894
 10
93.79848254420784
 20
97.19968826761121
 10
93.67629987419019
 20
97.81276575203373
 10
93.57361732902514
 20
98.43100608220107
 10
93.49157620549535
 20
99.05440773226898
 10
93.43131606710733
 20
99.68299796165311
 10
93.39397946133116
 20
100.3168352584033
 10
93.38071744229589
 20
100.9560106458131
 10
93.39269565630772
 20
101.60064753054495
 10
93.43110063242236
 20
102.25089983895101
 10
93.49714582441251
 20
102.90694830814368
 10
93.5920768956621
 20
103.5689949627009
 10
93.71717574374586
 20
104.23725599836148
 10
93.87376283707006
 20
104.91195348267235
 10
94.3255607990016
 20
106.53696625857789
 10
81.25905415560345
 20
110.78253162797607
 10
74.6055104636244
 20
105.44650212872196
 10
67.95196677164536
 20
110.78253162797607
  0
LWPOLYLINE
  5
50
330
17
100
AcDbEntity
  8
STITCH_LINE
  6
DASHED
100
AcDbPolyline
 90
58
 70
1
 10
56.105510463624405
 20
105.88192241869923
 10
56.306491538764675
 20
105.15903997491418
 10
56.47281495607754
 20
104.4423909276607
 10
56.60579297440936
 20
103.73204043593577
 10
56.70673785260648
 20
103.02805365873638
 10
56.77696184951526
 20
102.3304957550595
 10
56.81777722398204
 20
101.6394318839021
 10
56.830496234853186
 20
100.95492720426117
 10
56.81643114097503
 20
100.27704687513366
 10
56.77689420119393
 20
99.60585605551657
 10
56.713197674356245
 20
98.94141990440687
 10
56.62665381930832
 20
98.28380358080153
 10
56.51857489489651
 20
97.63307224369753
 10
56.39027315996716
 20
96.98929105209186
 10
56.24306087336662
 20
96.35252516498147
 10
56.07825029394125
 20
95.72283974136336
 10
55.89715368053739
 20
95.10029994023449
 10
55.70108329200141
 20
94.48497092059185
 10
55.491351387179634
 20
93.8769178414324
 10
55.036152064064154
 20
92.682900140551
 10
54.54205378196176
 20
91.51876810956612
 10
54.019554611643265
 20
90.38504302045357
 10
53.47915262387947
 20
89.28224614518913
 10
52.93134588944119
 20
88.21089875574864
 10
51.855510463624405
 20
86.16463752224273
 10
52.11395249260991
 20
71.66463752224273
 10
50.855510463624405
 20
51.66463752224273
 10
98.3555104636244
 20
51.66463752224273
 10
97.0970684346389
 20
71.66463752224273
 10
97.3555104636244
 20
86.16463752224273
 10
96.27967503780762
 20
88.21089875574864
 10
95.73186830336934
 20
89.28224614518913
 10
95.19146631560554
 20
90.38504302045357
 10
94.66896714528704
 20
91.51876810956612
 10
94.17486886318466
 20
92.682900140551
 10
93.71966954006918
 20
93.8769178414324
 10
93.50993763524741
 20
94.48497092059185
 10
93.31386724671142
 20
95.10029994023449
 10
93.13277063330756
 20
95.72283974136336
 10
92.9679600538822
 20
96.35252516498147
 10
92.82074776728166
 20
96.98929105209186
 10
92.69244603235231
 20
97.63307224369753
 10
92.5843671079405
 20
98.28380358080153
 10
92.49782325289257
 20
98.94141990440687
 10
92.43412672605488
 20
99.60585605551657
 10
92.39458978627378
 20
100.27704687513366
 10
92.38052469239562
 20
100.95492720426117
 10
92.39324370326676
 20
101.6394318839021
 10
92.43405907773355
 20
102.3304957550595
 10
92.50428307464233
 20
103.02805365873638
 10
92.60522795283944
 20
103.73204043593577
 10
92.73820597117127
 20
104.4423909276607
 10
92.90452938848414
 20
105.15903997491418
 10
93.1055104636244
 20
105.88192241869923
 10
81.4635104636244
 20
109.66463752224273
 10
74.6055104636244
 20
104.16463752224273
 10
67.7475104636244
 20
109.66463752224273
 10
56.105510463624405
 20
105.88192241869923
  0
LWPOLYLINE
  5
51
330
17
100
AcDbEntity
  8
STITCH_LINE
  6
DASHED
100
AcDbPolyline
 90
4
 70
1
 10
62.98430937666788
 20
83.66463752224273
 10
64.83539633318962
 20
71.66463752224273
 10
62.98430937666788
 20
59.66463752224273
 10
61.13322242014614
 20
71.66463752224273
  0
LWPOLYLINE
  5
52
330
17
100
AcDbEntity
  8
STITCH_LINE
  6
DASHED
100
AcDbPolyline
 90
4
 70
1
 10
65.98430937666788
 20
83.66463752224273
 10
67.83539633318962
 20
71.66463752224273
 10
65.98430937666788
 20
59.66463752224273
 10
64.13322242014614
 20
71.66463752224273
  0
LWPOLYLINE
  5
53
330
17
100
AcDbEntity
  8
STITCH_LINE
  6
DASHED
100
AcDbPolyline
 90
4
 70
1
 10
83.22671155058093
 20
83.66463752224273
 10
85.07779850710267
 20
71.66463752224273
 10
83.22671155058093
 20
59.66463752224273
 10
81.37562459405919
 20
71.66463752224273
  0
LWPOLYLINE
  5
54
330
17
100
AcDbEntity
  8
STITCH_LINE
  6
DASHED
100
AcDbPolyline
 90
4
 70
1
 10
86.22671155058093
 20
83.66463752224273
 10
88.07779850710267
 20
71.66463752224273
 10
86.22671155058093
 20
59.66463752224273
 10
84.37562459405919
 20
71.66463752224273
  0
LWPOLYLINE
  5
55
330
17
100
AcDbEntity
  8
REFERENCE_LINE
  6
DASHED
100
AcDbPolyline
 90
2
 70
0
 10
52.255510463624404
 20
86.16463752224273
 10
96.9555104636244
 20
86.16463752224273
  0
LWPOLYLINE
  5
56
330
17
100
AcDbEntity
  8
REFERENCE_LINE
  6
DASHED
100
AcDbPolyline
 90
2
 70
0
 10
52.51395249260991
 20
71.66463752224273
 10
96.69706843463891
 20
71.66463752224273
  0
LWPOLYLINE
  5
57
330
17
100
AcDbEntity
  8
REFERENCE_LINE
  6
DASHED
100
AcDbPolyline
 90
2
 70
0
 10
51.25557338572585
 20
51.66563752224272
 10
97.95544754152296
 20
51.66563752224272
  0
LWPOLYLINE
  5
58
330
17
100
AcDbEntity
  8
REFERENCE_LINE
  6
DASHED
100
AcDbPolyline
 90
2
 70
0
 10
74.6055104636244
 20
109.26463752224274
 10
74.6055104636244
 20
52.06463752224272
  0
LINE
  5
59
330
17
100
AcDbEntity
  8
NOTCH
100
AcDbLine
 10
51.94008863591892
 20
68.90147715908873
 30
0.0
 11
50.94206237247438
 21
68.96427506888622
 31
0.0
  0
LINE
  5
5A
330
17
100
AcDbEntity
  8
NOTCH
100
AcDbLine
 10
97.2709322913299
 20
68.90147715908873
 30
0.0
 11
98.26895855477443
 21
68.96427506888622
 31
0.0
  0
LINE
  5
5B
330
17
100
AcDbEntity
  8
NOTCH
100
AcDbLine
 10
55.752600034464905
 20
94.6466462601061
 30
0.0
 11
54.79980134443903
 21
94.95024905371145
 31
0.0
  0
LINE
  5
5C
330
17
100
AcDbEntity
  8
NOTCH
100
AcDbLine
 10
93.4584208927839
 20
94.6466462601061
 30
0.0
 11
94.41121958280978
 21
94.95024905371145
 31
0.0
  0
LINE
  5
5D
330
17
100
AcDbEntity
  8
NOTCH
100
AcDbLine
 10
55.987618125419225
 20
95.41128155644161
 30
0.0
 11
55.02742039878346
 21
95.69060274390063
 31
0.0
  0
LINE
  5
5E
330
17
100
AcDbEntity
  8
NOTCH
100
AcDbLine
 10
93.2234028018296
 20
95.41128155644161
 30
0.0
 11
94.18360052846535
 21
95.69060274390063
 31
0.0
  0
LINE
  5
5F
330
17
100
AcDbEntity
  8
GRAINLINE
100
AcDbLine
 10
67.12426046362441
 20
104.83833181761975
 30
0.0
 11
67.12426046362441
 21
56.28843702618855
 31
0.0
  0
LINE
  5
60
330
17
100
AcDbEntity
  8
GRAINLINE
100
AcDbLine
 10
65.62426046362441
 20
103.33833181761975
 30
0.0
 11
67.12426046362441
 21
104.83833181761975
 31
0.0
  0
LINE
  5
61
330
17
100
AcDbEntity
  8
GRAINLINE
100
AcDbLine
 10
68.62426046362441
 20
103.33833181761975
 30
0.0
 11
67.12426046362441
 21
104.83833181761975
 31
0.0
  0
LINE
  5
62
330
17
100
AcDbEntity
  8
GRAINLINE
100
AcDbLine
 10
65.62426046362441
 20
57.78843702618855
 30
0.0
 11
67.12426046362441
 21
56.28843702618855
 31
0.0
  0
LINE
  5
63
330
17
100
AcDbEntity
  8
GRAINLINE
100
AcDbLine
 10
68.62426046362441
 20
57.78843702618855
 30
0.0
 11
67.12426046362441
 21
56.28843702618855
 31
0.0
  0
TEXT
  5
64
330
17
100
AcDbEntity
  8
LABEL
100
AcDbText
 10
74.6055104636244
 20
80.7235845751094
 30
0.0
 40
0.9
  1
後身頃（Vネック） [ダーツ4本]
 72
1
 11
74.6055104636244
 21
80.7235845751094
 31
0.0
100
AcDbText
 73
2
  0
TEXT
  5
65
330
17
100
AcDbEntity
  8
LABEL_ID
100
AcDbText
 10
74.6055104636244
 20
79.5235845751094
 30
0.0
 40
0.55
  1
back_bodice(v_neck) [ダーツ4本]
 72
1
 11
74.6055104636244
 21
79.5235845751094
 31
0.0
100
AcDbText
 73
2
  0
LWPOLYLINE
  5
66
330
17
100
AcDbEntity
  8
CUT_LINE
100
AcDbPolyline
 90
67
 70
1
 10
97.2709024693902
 20
98.00116207146756
 10
101.69209408916217
 20
56.782365645125495
 10
129.2292775179991
 20
56.782365645125495
 10
133.65046913777107
 20
98.00116207146756
 10
132.98762008116867
 20
99.12487336773678
 10
132.475874352983
 20
99.94032094583392
 10
131.9543693895148
 20
100.72173608712257
 10
131.42371509281972
 20
101.46961240566824
 10
130.88452540817607
 20
102.18444023687098
 10
130.33741872635562
 20
102.8667070164842
 10
129.78301823457295
 20
103.5168977373514
 10
129.2219522007321
 20
104.13549547856651
 10
128.65485417614977
 20
104.72298199841241
 10
128.08236310327598
 20
105.27983837905018
 10
127.50512331704776
 20
105.80654570773461
 10
126.92378443137052
 20
106.30358577652555
 10
126.33900110571966
 20
106.77144178024625
 10
125.75143269082378
 20
107.21059899099771
 10
125.16174275662922
 20
107.62154538698725
 10
124.57059850999057
 20
108.00477221385084
 10
123.97867011353334
 20
108.36077445802704
 10
123.38662992062957
 20
108.690051213994
 10
122.79515164420204
 20
108.99310593015053
 10
122.20490947895529
 20
109.27044652158796
 10
121.61657719753944
 20
109.52258534169226
 10
121.0308272410585
 20
109.7500390081569
 10
120.44832982332196
 20
109.95332808228477
 10
119.86975206643811
 20
110.13297660315925
 10
119.29575718297419
 20
110.28951148014968
 10
118.7270037172128
 20
110.42346174812002
 10
118.1641448553028
 20
110.53535768952796
 10
117.6078278116421
 20
110.62572982628156
 10
117.05869329695388
 20
110.69510778176385
 10
116.5173750725591
 20
110.74401900988533
 10
115.9844995956559
 20
110.77298738345903
 10
115.46068580358063
 20
110.78253162797607
 10
114.93687201150536
 20
110.77298738345903
 10
114.40399653460217
 20
110.74401900988533
 10
113.86267831020739
 20
110.69510778176385
 10
113.31354379551917
 20
110.62572982628156
 10
112.75722675185847
 20
110.53535768952796
 10
112.19436788994848
 20
110.42346174812002
 10
111.62561442418709
 20
110.28951148014968
 10
111.05161954072317
 20
110.13297660315925
 10
110.47304178383934
 20
109.95332808228477
 10
109.89054436610277
 20
109.7500390081569
 10
109.3047944096218
 20
109.52258534169226
 10
108.71646212820596
 20
109.27044652158796
 10
108.12621996295925
 20
108.99310593015055
 10
107.53474168653169
 20
108.690051213994
 10
106.94270149362795
 20
108.36077445802705
 10
106.35077309717067
 20
108.00477221385083
 10
105.75962885053202
 20
107.62154538698724
 10
105.16993891633749
 20
107.21059899099771
 10
104.58237050144163
 20
106.77144178024625
 10
103.99758717579074
 20
106.30358577652555
 10
103.41624829011351
 20
105.80654570773463
 10
102.83900850388527
 20
105.27983837905016
 10
102.26651743101151
 20
104.72298199841244
 10
101.69941940642917
 20
104.1354954785665
 10
101.1383533725883
 20
103.51689773735139
 10
100.5839528808056
 20
102.86670701648414
 10
100.03684619898515
 20
102.18444023687094
 10
99.49765651434168
 20
101.46961240566841
 10
98.9670022176465
 20
100.72173608712262
 10
98.44549725417832
 20
99.94032094583399
 10
97.93375152599259
 20
99.12487336773677
  0
LWPOLYLINE
  5
67
330
17
100
AcDbEntity
  8
STITCH_LINE
  6
DASHED
100
AcDbPolyline
 90
67
 70
1
 10
98.30052955358063
 20
97.77842598040742
 10
98.78808160035645
 20
98.6049606748813
 10
99.2850600024942
 20
99.39687707411849
 10
99.7908363363031
 20
100.15472467486879
 10
100.30478217809235
 20
100.87905297388195
 10
100.82626910417115
 20
101.57041146790782
 10
101.3546686908487
 20
102.22934965369613
 10
101.88935251443421
 20
102.85641702799671
 10
102.42969215123688
 20
103.45216308755931
 10
102.97505917756592
 20
104.01713732913376
 10
103.52482516973053
 20
104.55188924946984
 10
104.07836170403992
 20
105.0569683453173
 10
104.63504035680329
 20
105.53292411342598
 10
105.19423270432983
 20
105.98030605054564
 10
105.75531032292878
 20
106.39966365342607
 10
106.3176447889093
 20
106.79154641881706
 10
106.88060767858063
 20
107.15650384346841
 10
107.44357056825196
 20
107.4950854241299
 10
108.00590503423248
 20
107.80784065755132
 10
108.56698265283143
 20
108.09531904048247
 10
109.12617500035797
 20
108.3580700696731
 10
109.68285365312134
 20
108.59664324187304
 10
110.23639018743073
 20
108.81158805383207
 10
110.78615617959534
 20
109.00345400229996
 10
111.33152320592438
 20
109.17279058402653
 10
111.87186284272705
 20
109.32014729576153
 10
112.40654666631256
 20
109.44607363425479
 10
112.93494625299012
 20
109.55111909625606
 10
113.45643317906891
 20
109.63583317851516
 10
113.97037902085816
 20
109.70076537778186
 10
114.47615535466706
 20
109.74646519080596
 10
114.97313375680481
 20
109.77348211433724
 10
115.46068580358063
 20
109.7823656451255
 10
115.94823785035645
 20
109.77348211433724
 10
116.4452162524942
 20
109.74646519080596
 10
116.9509925863031
 20
109.70076537778186
 10
117.46493842809235
 20
109.63583317851516
 10
117.98642535417116
 20
109.55111909625606
 10
118.5148249408487
 20
109.44607363425479
 10
119.04950876443421
 20
109.32014729576153
 10
119.58984840123688
 20
109.17279058402653
 10
120.13521542756592
 20
109.00345400229996
 10
120.68498141973053
 20
108.81158805383207
 10
121.23851795403992
 20
108.59664324187304
 10
121.79519660680329
 20
108.3580700696731
 10
122.35438895432983
 20
108.09531904048247
 10
122.91546657292878
 20
107.80784065755132
 10
123.4778010389093
 20
107.4950854241299
 10
124.04076392858063
 20
107.15650384346841
 10
124.60372681825196
 20
106.79154641881706
 10
125.16606128423248
 20
106.39966365342607
 10
125.72713890283143
 20
105.98030605054564
 10
126.28633125035797
 20
105.53292411342598
 10
126.84300990312134
 20
105.0569683453173
 10
127.39654643743073
 20
104.55188924946984
 10
127.94631242959534
 20
104.01713732913376
 10
128.49167945592438
 20
103.45216308755931
 10
129.03201909272707
 20
102.85641702799671
 10
129.56670291631258
 20
102.22934965369613
 10
130.09510250299013
 20
101.57041146790782
 10
130.6165894290689
 20
100.87905297388195
 10
131.13053527085816
 20
100.15472467486879
 10
131.63631160466707
 20
99.39687707411849
 10
132.13329000680483
 20
98.6049606748813
 10
132.62084205358065
 20
97.77842598040742
 10
128.33080299108065
 20
57.782365645125495
 10
102.59056861608063
 20
57.782365645125495
  0
LINE
  5
68
330
17
100
AcDbEntity
  8
NOTCH
100
AcDbLine
 10
104.16379949223386
 20
105.13001696664219
 30
0.0
 11
103.51395104862685
 21
105.89008077997731
 31
0.0
  0
LINE
  5
69
330
17
100
AcDbEntity
  8
NOTCH
100
AcDbLine
 10
126.7575721149274
 20
105.13001696664219
 30
0.0
 11
127.40742055853443
 21
105.89008077997731
 31
0.0
  0
LINE
  5
6A
330
17
100
AcDbEntity
  8
NOTCH
100
AcDbLine
 10
126.14577964090368
 20
105.6453724535742
 30
0.0
 11
126.77049857926266
 21
106.42622214977419
 31
0.0
  0
LINE
  5
6B
330
17
100
AcDbEntity
  8
GRAINLINE
100
AcDbLine
 10
115.46068580358063
 20
105.6223656451255
 30
0.0
 11
115.46068580358063
 21
61.94236564512549
 31
0.0
  0
LINE
  5
6C
330
17
100
AcDbEntity
  8
GRAINLINE
100
AcDbLine
 10
113.96068580358063
 20
104.1223656451255
 30
0.0
 11
115.46068580358063
 21
105.6223656451255
 31
0.0
  0
LINE
  5
6D
330
17
100
AcDbEntity
  8
GRAINLINE
100
AcDbLine
 10
116.96068580358063
 20
104.1223656451255
 30
0.0
 11
115.46068580358063
 21
105.6223656451255
 31
0.0
  0
LINE
  5
6E
330
17
100
AcDbEntity
  8
GRAINLINE
100
AcDbLine
 10
113.96068580358063
 20
63.44236564512549
 30
0.0
 11
115.46068580358063
 21
61.94236564512549
 31
0.0
  0
LINE
  5
6F
330
17
100
AcDbEntity
  8
GRAINLINE
100
AcDbLine
 10
116.96068580358063
 20
63.44236564512549
 30
0.0
 11
115.46068580358063
 21
61.94236564512549
 31
0.0
  0
TEXT
  5
70
330
17
100
AcDbEntity
  8
LABEL
100
AcDbText
 10
115.46068580358063
 20
83.78244863655078
 30
0.0
 40
0.9
  1
袖（ストレート） 左
 72
1
 11
115.46068580358063
 21
83.78244863655078
 31
0.0
100
AcDbText
 73
2
  0
TEXT
  5
71
330
17
100
AcDbEntity
  8
LABEL_ID
100
AcDbText
 10
115.46068580358063
 20
82.58244863655078
 30
0.0
 40
0.55
  1
sleeve(straight) 左
 72
1
 11
115.46068580358063
 21
82.58244863655078
 31
0.0
100
AcDbText
 73
2
  0
LWPOLYLINE
  5
72
330
17
100
AcDbEntity
  8
CUT_LINE
100
AcDbPolyline
 90
67
 70
1
 10
94.39771499427818
 20
43.70099608861699
 10
98.81890661405015
 20
2.4821996622749225
 10
126.35609004288708
 20
2.4821996622749225
 10
130.77728166265905
 20
43.70099608861699
 10
130.11443260605665
 20
44.82470738488621
 10
129.60268687787098
 20
45.640154962983345
 10
129.0811819144028
 20
46.42157010427199
 10
128.5505276177077
 20
47.16944642281766
 10
128.01133793306406
 20
47.88427425402041
 10
127.4642312512436
 20
48.56654103363363
 10
126.90983075946093
 20
49.21673175450084
 10
126.34876472562007
 20
49.83532949571594
 10
125.78166670103775
 20
50.422816015561835
 10
125.20917562816396
 20
50.97967239619962
 10
124.63193584193574
 20
51.50637972488404
 10
124.0505969562585
 20
52.00341979367498
 10
123.46581363060764
 20
52.47127579739568
 10
122.87824521571176
 20
52.91043300814714
 10
122.2885552815172
 20
53.32137940413668
 10
121.69741103487856
 20
53.70460623100027
 10
121.10548263842132
 20
54.060608475176466
 10
120.51344244551755
 20
54.389885231143424
 10
119.92196416909002
 20
54.69293994729996
 10
119.33172200384327
 20
54.970280538737384
 10
118.74338972242742
 20
55.22241935884169
 10
118.15763976594648
 20
55.44987302530633
 10
117.57514234820994
 20
55.653162099434184
 10
116.99656459132609
 20
55.83281062030868
 10
116.42256970786217
 20
55.98934549729911
 10
115.85381624210078
 20
56.12329576526945
 10
115.29095738019078
 20
56.235191706677384
 10
114.73464033653008
 20
56.325563843430984
 10
114.18550582184186
 20
56.394941798913266
 10
113.64418759744709
 20
56.44385302703476
 10
113.11131212054389
 20
56.47282140060845
 10
112.58749832846861
 20
56.4823656451255
 10
112.06368453639334
 20
56.47282140060845
 10
111.53080905949015
 20
56.44385302703476
 10
110.98949083509537
 20
56.394941798913266
 10
110.44035632040715
 20
56.325563843430984
 10
109.88403927674645
 20
56.235191706677384
 10
109.32118041483646
 20
56.12329576526945
 10
108.75242694907507
 20
55.98934549729911
 10
108.17843206561115
 20
55.83281062030868
 10
107.59985430872732
 20
55.6531620994342
 10
107.01735689099075
 20
55.44987302530633
 10
106.43160693450979
 20
55.22241935884168
 10
105.84327465309394
 20
54.970280538737384
 10
105.25303248784724
 20
54.692939947299976
 10
104.66155421141967
 20
54.389885231143424
 10
104.06951401851593
 20
54.06060847517648
 10
103.47758562205865
 20
53.704606231000255
 10
102.88644137542
 20
53.321379404136664
 10
102.29675144122547
 20
52.91043300814714
 10
101.70918302632961
 20
52.47127579739568
 10
101.12439970067872
 20
52.00341979367498
 10
100.5430608150015
 20
51.506379724884056
 10
99.96582102877325
 20
50.97967239619959
 10
99.39332995589949
 20
50.422816015561864
 10
98.82623193131715
 20
49.83532949571594
 10
98.26516589747628
 20
49.21673175450081
 10
97.71076540569358
 20
48.56654103363357
 10
97.16365872387313
 20
47.88427425402037
 10
96.62446903922967
 20
47.16944642281784
 10
96.09381474253448
 20
46.42157010427205
 10
95.5723097790663
 20
45.64015496298342
 10
95.06056405088057
 20
44.82470738488618
  0
LWPOLYLINE
  5
73
330
17
100
AcDbEntity
  8
STITCH_LINE
  6
DASHED
100
AcDbPolyline
 90
67
 70
1
 10
95.42734207846861
 20
43.47825999755685
 10
95.91489412524443
 20
44.304794692030725
 10
96.41187252738219
 20
45.09671109126792
 10
96.91764886119108
 20
45.854558692018216
 10
97.43159470298033
 20
46.57888699103138
 10
97.95308162905913
 20
47.270245485057245
 10
98.48148121573668
 20
47.92918367084556
 10
99.01616503932219
 20
48.556251045146126
 10
99.55650467612486
 20
49.151997104708755
 10
100.1018717024539
 20
49.71697134628319
 10
100.65163769461851
 20
50.251723266619265
 10
101.2051742289279
 20
50.75680236246673
 10
101.76185288169127
 20
51.232758130575405
 10
102.32104522921782
 20
51.68014006769506
 10
102.88212284781676
 20
52.0994976705755
 10
103.44445731379729
 20
52.49138043596649
 10
104.00742020346861
 20
52.85633786061784
 10
104.57038309313994
 20
53.194919441279325
 10
105.13271755912047
 20
53.50767467470075
 10
105.69379517771941
 20
53.79515305763189
 10
106.25298752524596
 20
54.05790408682253
 10
106.80966617800932
 20
54.29647725902247
 10
107.36320271231871
 20
54.511422070981496
 10
107.91296870448332
 20
54.70328801944939
 10
108.45833573081237
 20
54.87262460117596
 10
108.99867536761504
 20
55.01998131291097
 10
109.53335919120055
 20
55.145907651404215
 10
110.0617587778781
 20
55.2509531134055
 10
110.58324570395689
 20
55.3356671956646
 10
111.09719154574614
 20
55.40059939493129
 10
111.60296787955504
 20
55.44629920795539
 10
112.0999462816928
 20
55.47331613148667
 10
112.58749832846861
 20
55.48219966227492
 10
113.07505037524443
 20
55.47331613148667
 10
113.57202877738219
 20
55.44629920795539
 10
114.07780511119108
 20
55.40059939493129
 10
114.59175095298033
 20
55.3356671956646
 10
115.11323787905914
 20
55.2509531134055
 10
115.64163746573668
 20
55.145907651404215
 10
116.17632128932219
 20
55.01998131291097
 10
116.71666092612486
 20
54.87262460117596
 10
117.2620279524539
 20
54.70328801944939
 10
117.81179394461851
 20
54.511422070981496
 10
118.3653304789279
 20
54.29647725902247
 10
118.92200913169127
 20
54.05790408682253
 10
119.48120147921782
 20
53.79515305763189
 10
120.04227909781676
 20
53.50767467470075
 10
120.60461356379729
 20
53.194919441279325
 10
121.16757645346861
 20
52.85633786061784
 10
121.73053934313994
 20
52.49138043596649
 10
122.29287380912047
 20
52.0994976705755
 10
122.85395142771941
 20
51.68014006769506
 10
123.41314377524596
 20
51.232758130575405
 10
123.96982242800932
 20
50.75680236246673
 10
124.52335896231871
 20
50.251723266619265
 10
125.07312495448332
 20
49.71697134628319
 10
125.61849198081237
 20
49.151997104708755
 10
126.15883161761504
 20
48.556251045146126
 10
126.69351544120055
 20
47.92918367084556
 10
127.2219150278781
 20
47.270245485057245
 10
127.74340195395689
 20
46.57888699103138
 10
128.25734779574614
 20
45.854558692018216
 10
128.76312412955502
 20
45.09671109126792
 10
129.26010253169278
 20
44.304794692030725
 10
129.7476545784686
 20
43.47825999755685
 10
125.45761551596861
 20
3.4821996622749225
 10
99.71738114096861
 20
3.4821996622749225
  0
LINE
  5
74
330
17
100
AcDbEntity
  8
NOTCH
100
AcDbLine
 10
101.29061201712184
 20
50.829850983791616
 30
0.0
 11
100.64076357351483
 21
51.58991479712674
 31
0.0
  0
LINE
  5
75
330
17
100
AcDbEntity
  8
NOTCH
100
AcDbLine
 10
123.88438463981538
 20
50.829850983791616
 30
0.0
 11
124.53423308342241
 21
51.58991479712674
 31
0.0
  0
LINE
  5
76
330
17
100
AcDbEntity
  8
NOTCH
100
AcDbLine
 10
123.27259216579166
 20
51.345206470723625
 30
0.0
 11
123.89731110415065
 21
52.12605616692362
 31
0.0
  0
LINE
  5
77
330
17
100
AcDbEntity
  8
GRAINLINE
100
AcDbLine
 10
112.58749832846861
 20
51.322199662274926
 30
0.0
 11
112.58749832846861
 21
7.642199662274919
 31
0.0
  0
LINE
  5
78
330
17
100
AcDbEntity
  8
GRAINLINE
100
AcDbLine
 10
111.08749832846861
 20
49.822199662274926
 30
0.0
 11
112.58749832846861
 21
51.322199662274926
 31
0.0
  0
LINE
  5
79
330
17
100
AcDbEntity
  8
GRAINLINE
100
AcDbLine
 10
114.08749832846861
 20
49.822199662274926
 30
0.0
 11
112.58749832846861
 21
51.322199662274926
 31
0.0
  0
LINE
  5
7A
330
17
100
AcDbEntity
  8
GRAINLINE
100
AcDbLine
 10
111.08749832846861
 20
9.142199662274919
 30
0.0
 11
112.58749832846861
 21
7.642199662274919
 31
0.0
  0
LINE
  5
7B
330
17
100
AcDbEntity
  8
GRAINLINE
100
AcDbLine
 10
114.08749832846861
 20
9.142199662274919
 30
0.0
 11
112.58749832846861
 21
7.642199662274919
 31
0.0
  0
TEXT
  5
7C
330
17
100
AcDbEntity
  8
LABEL
100
AcDbText
 10
112.58749832846861
 20
29.482282653700196
 30
0.0
 40
0.9
  1
袖（ストレート） 右
 72
1
 11
112.58749832846861
 21
29.482282653700196
 31
0.0
100
AcDbText
 73
2
  0
TEXT
  5
7D
330
17
100
AcDbEntity
  8
LABEL_ID
100
AcDbText
 10
112.58749832846861
 20
28.282282653700197
 30
0.0
 40
0.55
  1
sleeve(straight) 右
 72
1
 11
112.58749832846861
 21
28.282282653700197
 31
0.0
100
AcDbText
 73
2
  0
LWPOLYLINE
  5
7E
330
17
100
AcDbEntity
  8
CUT_LINE
100
AcDbPolyline
 90
5
 70
1
 10
12.452226400053261
 20
173.08253162797607
 10
0.0
 20
141.95196562784292
 10
21.608603799906792
 20
111.08253162797607
 10
69.53874036650102
 20
111.08253162797607
 10
47.838740366501014
 20
173.08253162797607
  0
LWPOLYLINE
  5
7F
330
17
100
AcDbEntity
  8
STITCH_LINE
  6
DASHED
100
AcDbPolyline
 90
5
 70
1
 10
13.129259361480162
 20
172.08253162797607
 10
47.129259361480166
 20
172.08253162797607
 10
68.12925936148017
 20
112.08253162797607
 10
22.129259361480162
 20
112.08253162797607
 10
1.1292593614801625
 20
142.08253162797607
  0
LINE
  5
80
330
17
100
AcDbEntity
  8
NOTCH
100
AcDbLine
 10
13.129259361480162
 20
172.08253162797607
 30
0.0
 11
13.129259361480162
 21
173.08253162797607
 31
0.0
  0
LINE
  5
81
330
17
100
AcDbEntity
  8
GRAINLINE
100
AcDbLine
 10
34.629259361480166
 20
167.28253162797606
 30
0.0
 11
34.629259361480166
 21
116.88253162797606
 31
0.0
  0
LINE
  5
82
330
17
100
AcDbEntity
  8
GRAINLINE
100
AcDbLine
 10
33.129259361480166
 20
165.78253162797606
 30
0.0
 11
34.629259361480166
 21
167.28253162797606
 31
0.0
  0
LINE
  5
83
330
17
100
AcDbEntity
  8
GRAINLINE
100
AcDbLine
 10
36.129259361480166
 20
165.78253162797606
 30
0.0
 11
34.629259361480166
 21
167.28253162797606
 31
0.0
  0
LINE
  5
84
330
17
100
AcDbEntity
  8
GRAINLINE
100
AcDbLine
 10
33.129259361480166
 20
118.38253162797606
 30
0.0
 11
34.629259361480166
 21
116.88253162797606
 31
0.0
  0
LINE
  5
85
330
17
100
AcDbEntity
  8
GRAINLINE
100
AcDbLine
 10
36.129259361480166
 20
118.38253162797606
 30
0.0
 11
34.629259361480166
 21
116.88253162797606
 31
0.0
  0
TEXT
  5
86
330
17
100
AcDbEntity
  8
LABEL
100
AcDbText
 10
34.76937018325051
 20
142.08253162797607
 30
0.0
 40
0.9
  1
スカート（ラップ） 前
 72
1
 11
34.76937018325051
 21
142.08253162797607
 31
0.0
100
AcDbText
 73
2
  0
TEXT
  5
87
330
17
100
AcDbEntity
  8
LABEL_ID
100
AcDbText
 10
34.76937018325051
 20
140.88253162797608
 30
0.0
 40
0.55
  1
skirt(wrap) 前
 72
1
 11
34.76937018325051
 21
140.88253162797608
 31
0.0
100
AcDbText
 73
2
  0
LWPOLYLINE
  5
88
330
17
100
AcDbEntity
  8
CUT_LINE
100
AcDbPolyline
 90
5
 70
1
 10
71.34723093607633
 20
173.08253162797607
 10
58.895004536023066
 20
141.95196562784292
 10
80.50360833592985
 20
111.08253162797607
 10
128.4337449025241
 20
111.08253162797607
 10
106.73374490252408
 20
173.08253162797607
  0
LWPOLYLINE
  5
89
330
17
100
AcDbEntity
  8
STITCH_LINE
  6
DASHED
100
AcDbPolyline
 90
5
 70
1
 10
72.02426389750323
 20
172.08253162797607
 10
106.02426389750323
 20
172.08253162797607
 10
127.02426389750323
 20
112.08253162797607
 10
81.02426389750323
 20
112.08253162797607
 10
60.02426389750323
 20
142.08253162797607
  0
LINE
  5
8A
330
17
100
AcDbEntity
  8
NOTCH
100
AcDbLine
 10
72.02426389750323
 20
172.08253162797607
 30
0.0
 11
72.02426389750323
 21
173.08253162797607
 31
0.0
  0
LINE
  5
8B
330
17
100
AcDbEntity
  8
GRAINLINE
100
AcDbLine
 10
93.52426389750323
 20
167.28253162797606
 30
0.0
 11
93.52426389750323
 21
116.88253162797606
 31
0.0
  0
LINE
  5
8C
330
17
100
AcDbEntity
  8
GRAINLINE
100
AcDbLine
 10
92.02426389750323
 20
165.78253162797606
 30
0.0
 11
93.52426389750323
 21
167.28253162797606
 31
0.0
  0
LINE
  5
8D
330
17
100
AcDbEntity
  8
GRAINLINE
100
AcDbLine
 10
95.02426389750323
 20
165.78253162797606
 30
0.0
 11
93.52426389750323
 21
167.28253162797606
 31
0.0
  0
LINE
  5
8E
330
17
100
AcDbEntity
  8
GRAINLINE
100
AcDbLine
 10
92.02426389750323
 20
118.38253162797606
 30
0.0
 11
93.52426389750323
 21
116.88253162797606
 31
0.0
  0
LINE
  5
8F
330
17
100
AcDbEntity
  8
GRAINLINE
100
AcDbLine
 10
95.02426389750323
 20
118.38253162797606
 30
0.0
 11
93.52426389750323
 21
116.88253162797606
 31
0.0
  0
TEXT
  5
90
330
17
100
AcDbEntity
  8
LABEL
100
AcDbText
 10
93.66437471927358
 20
142.08253162797607
 30
0.0
 40
0.9
  1
スカート（ラップ） 後
 72
1
 11
93.66437471927358
 21
142.08253162797607
 31
0.0
100
AcDbText
 73
2
  0
TEXT
  5
91
330
17
100
AcDbEntity
  8
LABEL_ID
100
AcDbText
 10
93.66437471927358
 20
140.88253162797608
 30
0.0
 40
0.55
  1
skirt(wrap) 後
 72
1
 11
93.66437471927358
 21
140.88253162797608
 31
0.0
100
AcDbText
 73
2
  0
LWPOLYLINE
  5
92
330
17
100
AcDbEntity
  8
CUT_LINE
100
AcDbPolyline
 90
4
 70
1
 10
0.0
 20
45.90000000000002
 10
0.0
 20
31.900000000000006
 10
73.0
 20
31.900000000000006
 10
73.0
 20
45.90000000000002
  0
LWPOLYLINE
  5
93
330
17
100
AcDbEntity
  8
STITCH_LINE
  6
DASHED
100
AcDbPolyline
 90
4
 70
1
 10
1.0
 20
44.900000000000006
 10
72.0
 20
44.900000000000006
 10
72.0
 20
32.900000000000006
 10
1.0
 20
32.900000000000006
  0
LINE
  5
94
330
17
100
AcDbEntity
  8
NOTCH
100
AcDbLine
 10
35.0
 20
44.900000000000006
 30
0.0
 11
35.0
 21
45.90000000000002
 31
0.0
  0
LINE
  5
95
330
17
100
AcDbEntity
  8
GRAINLINE
100
AcDbLine
 10
36.5
 20
43.940000000000026
 30
0.0
 11
36.5
 21
33.860000000000014
 31
0.0
  0
LINE
  5
96
330
17
100
AcDbEntity
  8
GRAINLINE
100
AcDbLine
 10
36.1
 20
43.54000000000002
 30
0.0
 11
36.5
 21
43.940000000000026
 31
0.0
  0
LINE
  5
97
330
17
100
AcDbEntity
  8
GRAINLINE
100
AcDbLine
 10
36.9
 20
43.54000000000002
 30
0.0
 11
36.5
 21
43.940000000000026
 31
0.0
  0
LINE
  5
98
330
17
100
AcDbEntity
  8
GRAINLINE
100
AcDbLine
 10
36.1
 20
34.26000000000002
 30
0.0
 11
36.5
 21
33.860000000000014
 31
0.0
  0
LINE
  5
99
330
17
100
AcDbEntity
  8
GRAINLINE
100
AcDbLine
 10
36.9
 20
34.26000000000002
 30
0.0
 11
36.5
 21
33.860000000000014
 31
0.0
  0
TEXT
  5
9A
330
17
100
AcDbEntity
  8
LABEL
100
AcDbText
 10
36.5
 20
38.900000000000006
 30
0.0
 40
0.9
  1
ウエストバンド（ワイド）
 72
1
 11
36.5
 21
38.900000000000006
 31
0.0
100
AcDbText
 73
2
  0
TEXT
  5
9B
330
17
100
AcDbEntity
  8
LABEL_ID
100
AcDbText
 10
36.5
 20
37.7
 30
0.0
 40
0.55
  1
waistband(wide)
 72
1
 11
36.5
 21
37.7
 31
0.0
100
AcDbText
 73
2
  0
LWPOLYLINE
  5
9C
330
17
100
AcDbEntity
  8
CUT_LINE
100
AcDbPolyline
 90
4
 70
1
 10
0.0
 20
14.300000000000011
 10
0.0
 20
7.300000000000011
 10
67.0
 20
7.300000000000011
 10
67.0
 20
14.300000000000011
  0
LWPOLYLINE
  5
9D
330
17
100
AcDbEntity
  8
STITCH_LINE
  6
DASHED
100
AcDbPolyline
 90
4
 70
1
 10
1.0
 20
13.300000000000011
 10
66.0
 20
13.300000000000011
 10
66.0
 20
8.300000000000011
 10
1.0
 20
8.300000000000011
  0
LINE
  5
9E
330
17
100
AcDbEntity
  8
NOTCH
100
AcDbLine
 10
1.0
 20
13.300000000000011
 30
0.0
 11
1.0
 21
14.300000000000011
 31
0.0
  0
LINE
  5
9F
330
17
100
AcDbEntity
  8
GRAINLINE
100
AcDbLine
 10
33.5
 20
12.900000000000006
 30
0.0
 11
33.5
 21
8.700000000000017
 31
0.0
  0
LINE
  5
A0
330
17
100
AcDbEntity
  8
GRAINLINE
100
AcDbLine
 10
33.1
 20
12.5
 30
0.0
 11
33.5
 21
12.900000000000006
 31
0.0
  0
LINE
  5
A1
330
17
100
AcDbEntity
  8
GRAINLINE
100
AcDbLine
 10
33.9
 20
12.5
 30
0.0
 11
33.5
 21
12.900000000000006
 31
0.0
  0
LINE
  5
A2
330
17
100
AcDbEntity
  8
GRAINLINE
100
AcDbLine
 10
33.1
 20
9.100000000000023
 30
0.0
 11
33.5
 21
8.700000000000017
 31
0.0
  0
LINE
  5
A3
330
17
100
AcDbEntity
  8
GRAINLINE
100
AcDbLine
 10
33.9
 20
9.100000000000023
 30
0.0
 11
33.5
 21
8.700000000000017
 31
0.0
  0
TEXT
  5
A4
330
17
100
AcDbEntity
  8
LABEL
100
AcDbText
 10
33.5
 20
10.800000000000011
 30
0.0
 40
0.9
  1
WRAP TIE-1
 72
1
 11
33.5
 21
10.800000000000011
 31
0.0
100
AcDbText
 73
2
  0
TEXT
  5
A5
330
17
100
AcDbEntity
  8
LABEL_ID
100
AcDbText
 10
33.5
 20
9.600000000000012
 30
0.0
 40
0.55
  1
custom_panel(WRAP TIE-1)
 72
1
 11
33.5
 21
9.600000000000012
 31
0.0
100
AcDbText
 73
2
  0
LWPOLYLINE
  5
A6
330
17
100
AcDbEntity
  8
CUT_LINE
100
AcDbPolyline
 90
4
 70
1
 10
0.0
 20
7.0
 10
0.0
 20
0.0
 10
67.0
 20
0.0
 10
67.0
 20
7.0
  0
LWPOLYLINE
  5
A7
330
17
100
AcDbEntity
  8
STITCH_LINE
  6
DASHED
100
AcDbPolyline
 90
4
 70
1
 10
1.0
 20
6.0
 10
66.0
 20
6.0
 10
66.0
 20
1.0
 10
1.0
 20
1.0
  0
LINE
  5
A8
330
17
100
AcDbEntity
  8
NOTCH
100
AcDbLine
 10
1.0
 20
6.0
 30
0.0
 11
1.0
 21
7.0
 31
0.0
  0
LINE
  5
A9
330
17
100
AcDbEntity
  8
GRAINLINE
100
AcDbLine
 10
33.5
 20
5.599999999999994
 30
0.0
 11
33.5
 21
1.4000000000000057
 31
0.0
  0
LINE
  5
AA
330
17
100
AcDbEntity
  8
GRAINLINE
100
AcDbLine
 10
33.1
 20
5.199999999999989
 30
0.0
 11
33.5
 21
5.599999999999994
 31
0.0
  0
LINE
  5
AB
330
17
100
AcDbEntity
  8
GRAINLINE
100
AcDbLine
 10
33.9
 20
5.199999999999989
 30
0.0
 11
33.5
 21
5.599999999999994
 31
0.0
  0
LINE
  5
AC
330
17
100
AcDbEntity
  8
GRAINLINE
100
AcDbLine
 10
33.1
 20
1.8000000000000114
 30
0.0
 11
33.5
 21
1.4000000000000057
 31
0.0
  0
LINE
  5
AD
330
17
100
AcDbEntity
  8
GRAINLINE
100
AcDbLine
 10
33.9
 20
1.8000000000000114
 30
0.0
 11
33.5
 21
1.4000000000000057
 31
0.0
  0
TEXT
  5
AE
330
17
100
AcDbEntity
  8
LABEL
100
AcDbText
 10
33.5
 20
3.5
 30
0.0
 40
0.9
  1
WRAP TIE-2
 72
1
 11
33.5
 21
3.5
 31
0.0
100
AcDbText
 73
2
  0
TEXT
  5
AF
330
17
100
AcDbEntity
  8
LABEL_ID
100
AcDbText
 10
33.5
 20
2.3
 30
0.0
 40
0.55
  1
custom_panel(WRAP TIE-2)
 72
1
 11
33.5
 21
2.3
 31
0.0
100
AcDbText
 73
2
  0
LWPOLYLINE
  5
B0
330
17
100
AcDbEntity
  8
CUT_LINE
100
AcDbPolyline
 90
6
 70
1
 10
0.0
 20
31.600000000000023
 10
0.0
 20
19.019677464528797
 10
7.734435562925362
 20
14.600000000000023
 10
36.26556443707464
 20
14.600000000000023
 10
44.28755268615108
 20
19.183993285186574
 10
38.64391327032678
 20
31.600000000000023
  0
LWPOLYLINE
  5
B1
330
17
100
AcDbEntity
  8
STITCH_LINE
  6
DASHED
100
AcDbPolyline
 90
6
 70
1
 10
1.0
 20
30.600000000000023
 10
38.0
 20
30.600000000000023
 10
43.0
 20
19.600000000000023
 10
36.0
 20
15.600000000000023
 10
8.0
 20
15.600000000000023
 10
1.0
 20
19.600000000000023
  0
LINE
  5
B2
330
17
100
AcDbEntity
  8
NOTCH
100
AcDbLine
 10
1.0
 20
30.600000000000023
 30
0.0
 11
1.0
 21
31.600000000000023
 31
0.0
  0
LINE
  5
B3
330
17
100
AcDbEntity
  8
GRAINLINE
100
AcDbLine
 10
22.0
 20
29.400000000000034
 30
0.0
 11
22.0
 21
16.80000000000001
 31
0.0
  0
LINE
  5
B4
330
17
100
AcDbEntity
  8
GRAINLINE
100
AcDbLine
 10
21.55
 20
28.950000000000017
 30
0.0
 11
22.0
 21
29.400000000000034
 31
0.0
  0
LINE
  5
B5
330
17
100
AcDbEntity
  8
GRAINLINE
100
AcDbLine
 10
22.45
 20
28.950000000000017
 30
0.0
 11
22.0
 21
29.400000000000034
 31
0.0
  0
LINE
  5
B6
330
17
100
AcDbEntity
  8
GRAINLINE
100
AcDbLine
 10
21.55
 20
17.25000000000003
 30
0.0
 11
22.0
 21
16.80000000000001
 31
0.0
  0
LINE
  5
B7
330
17
100
AcDbEntity
  8
GRAINLINE
100
AcDbLine
 10
22.45
 20
17.25000000000003
 30
0.0
 11
22.0
 21
16.80000000000001
 31
0.0
  0
TEXT
  5
B8
330
17
100
AcDbEntity
  8
LABEL
100
AcDbText
 10
22.14377634307554
 20
23.100000000000023
 30
0.0
 40
0.9
  1
WHITE SLEEVE FLOUNCE-1
 72
1
 11
22.14377634307554
 21
23.100000000000023
 31
0.0
100
AcDbText
 73
2
  0
TEXT
  5
B9
330
17
100
AcDbEntity
  8
LABEL_ID
100
AcDbText
 10
22.14377634307554
 20
21.900000000000023
 30
0.0
 40
0.55
  1
custom_panel(WHITE SLEEVE FLOUNCE-1)
 72
1
 11
22.14377634307554
 21
21.900000000000023
 31
0.0
100
AcDbText
 73
2
  0
LWPOLYLINE
  5
BA
330
17
100
AcDbEntity
  8
CUT_LINE
100
AcDbPolyline
 90
6
 70
1
 10
44.44603945741085
 20
31.600000000000023
 10
44.44603945741085
 20
19.019677464528797
 10
52.18047502033621
 20
14.600000000000023
 10
80.71160389448548
 20
14.600000000000023
 10
88.73359214356194
 20
19.183993285186574
 10
83.08995272773763
 20
31.600000000000023
  0
LWPOLYLINE
  5
BB
330
17
100
AcDbEntity
  8
STITCH_LINE
  6
DASHED
100
AcDbPolyline
 90
6
 70
1
 10
45.44603945741085
 20
30.600000000000023
 10
82.44603945741085
 20
30.600000000000023
 10
87.44603945741085
 20
19.600000000000023
 10
80.44603945741085
 20
15.600000000000023
 10
52.44603945741085
 20
15.600000000000023
 10
45.44603945741085
 20
19.600000000000023
  0
LINE
  5
BC
330
17
100
AcDbEntity
  8
NOTCH
100
AcDbLine
 10
45.44603945741085
 20
30.600000000000023
 30
0.0
 11
45.44603945741085
 21
31.600000000000023
 31
0.0
  0
LINE
  5
BD
330
17
100
AcDbEntity
  8
GRAINLINE
100
AcDbLine
 10
66.44603945741085
 20
29.400000000000034
 30
0.0
 11
66.44603945741085
 21
16.80000000000001
 31
0.0
  0
LINE
  5
BE
330
17
100
AcDbEntity
  8
GRAINLINE
100
AcDbLine
 10
65.99603945741084
 20
28.950000000000017
 30
0.0
 11
66.44603945741085
 21
29.400000000000034
 31
0.0
  0
LINE
  5
BF
330
17
100
AcDbEntity
  8
GRAINLINE
100
AcDbLine
 10
66.89603945741085
 20
28.950000000000017
 30
0.0
 11
66.44603945741085
 21
29.400000000000034
 31
0.0
  0
LINE
  5
C0
330
17
100
AcDbEntity
  8
GRAINLINE
100
AcDbLine
 10
65.99603945741084
 20
17.25000000000003
 30
0.0
 11
66.44603945741085
 21
16.80000000000001
 31
0.0
  0
LINE
  5
C1
330
17
100
AcDbEntity
  8
GRAINLINE
100
AcDbLine
 10
66.89603945741085
 20
17.25000000000003
 30
0.0
 11
66.44603945741085
 21
16.80000000000001
 31
0.0
  0
TEXT
  5
C2
330
17
100
AcDbEntity
  8
LABEL
100
AcDbText
 10
66.58981580048639
 20
23.100000000000023
 30
0.0
 40
0.9
  1
WHITE SLEEVE FLOUNCE-2
 72
1
 11
66.58981580048639
 21
23.100000000000023
 31
0.0
100
AcDbText
 73
2
  0
TEXT
  5
C3
330
17
100
AcDbEntity
  8
LABEL_ID
100
AcDbText
 10
66.58981580048639
 20
21.900000000000023
 30
0.0
 40
0.55
  1
custom_panel(WHITE SLEEVE FLOUNCE-2)
 72
1
 11
66.58981580048639
 21
21.900000000000023
 31
0.0
100
AcDbText
 73
2
  0
ENDSEC
  0
SECTION
  2
OBJECTS
  0
DICTIONARY
  5
A
330
0
100
AcDbDictionary
281
1
  3
ACAD_COLOR
350
B
  3
ACAD_GROUP
350
C
  3
ACAD_LAYOUT
350
D
  3
ACAD_MATERIAL
350
E
  3
ACAD_MLEADERSTYLE
350
F
  3
ACAD_MLINESTYLE
350
10
  3
ACAD_PLOTSETTINGS
350
11
  3
ACAD_PLOTSTYLENAME
350
12
  3
ACAD_SCALELIST
350
14
  3
ACAD_TABLESTYLE
350
15
  3
ACAD_VISUALSTYLE
350
16
  3
EZDXF_META
350
2D
  0
DICTIONARY
  5
B
330
A
100
AcDbDictionary
281
1
  0
DICTIONARY
  5
C
330
A
100
AcDbDictionary
281
1
  0
DICTIONARY
  5
D
330
A
100
AcDbDictionary
281
1
  3
Model
350
1A
  3
Layout1
350
1E
  0
DICTIONARY
  5
E
330
A
100
AcDbDictionary
281
1
  3
ByBlock
350
1F
  3
ByLayer
350
20
  3
Global
350
21
  0
DICTIONARY
  5
F
330
A
100
AcDbDictionary
281
1
  3
Standard
350
2C
  0
DICTIONARY
  5
10
330
A
100
AcDbDictionary
281
1
  3
Standard
350
22
  0
DICTIONARY
  5
11
330
A
100
AcDbDictionary
281
1
  0
ACDBDICTIONARYWDFLT
  5
12
330
A
100
AcDbDictionary
281
1
  3
Normal
350
13
100
AcDbDictionaryWithDefault
340
13
  0
ACDBPLACEHOLDER
  5
13
330
12
  0
DICTIONARY
  5
14
330
A
100
AcDbDictionary
281
1
  0
DICTIONARY
  5
15
330
A
100
AcDbDictionary
281
1
  0
DICTIONARY
  5
16
330
A
100
AcDbDictionary
281
1
  0
LAYOUT
  5
1A
330
D
100
AcDbPlotSettings
  1

  4
A3
  6

 40
7.5
 41
20.0
 42
7.5
 43
20.0
 44
420.0
 45
297.0
 46
0.0
 47
0.0
 48
0.0
 49
0.0
140
0.0
141
0.0
142
1.0
143
1.0
 70
1024
 72
1
 73
0
 74
5
  7

 75
16
 76
0
 77
2
 78
300
147
1.0
148
0.0
149
0.0
100
AcDbLayout
  1
Model
 70
1
 71
0
 10
0.0
 20
0.0
 11
420.0
 21
297.0
 12
0.0
 22
0.0
 32
0.0
 14
1e+20
 24
1e+20
 34
1e+20
 15
-1e+20
 25
-1e+20
 35
-1e+20
146
0.0
 13
0.0
 23
0.0
 33
0.0
 16
1.0
 26
0.0
 36
0.0
 17
0.0
 27
1.0
 37
0.0
 76
1
330
17
  0
LAYOUT
  5
1E
330
D
100
AcDbPlotSettings
  1

  4
A3
  6

 40
7.5
 41
20.0
 42
7.5
 43
20.0
 44
420.0
 45
297.0
 46
0.0
 47
0.0
 48
0.0
 49
0.0
140
0.0
141
0.0
142
1.0
143
1.0
 70
0
 72
1
 73
0
 74
5
  7

 75
16
 76
0
 77
2
 78
300
147
1.0
148
0.0
149
0.0
100
AcDbLayout
  1
Layout1
 70
1
 71
1
 10
0.0
 20
0.0
 11
420.0
 21
297.0
 12
0.0
 22
0.0
 32
0.0
 14
1e+20
 24
1e+20
 34
1e+20
 15
-1e+20
 25
-1e+20
 35
-1e+20
146
0.0
 13
0.0
 23
0.0
 33
0.0
 16
1.0
 26
0.0
 36
0.0
 17
0.0
 27
1.0
 37
0.0
 76
1
330
1B
  0
MATERIAL
  5
1F
102
{ACAD_REACTORS
330
E
102
}
330
E
100
AcDbMaterial
  1
ByBlock
  2

 70
0
 40
1.0
 71
1
 41
1.0
 91
-1023410177
 42
1.0
 72
1
  3

 73
1
 74
1
 75
1
 44
0.5
 73
0
 45
1.0
 46
1.0
 77
1
  4

 78
1
 79
1
170
1
 48
1.0
171
1
  6

172
1
173
1
174
1
140
1.0
141
1.0
175
1
  7

176
1
177
1
178
1
143
1.0
179
1
  8

270
1
271
1
272
1
145
1.0
146
1.0
273
1
  9

274
1
275
1
276
1
 42
1.0
 72
1
  3

 73
1
 74
1
 75
1
 94
63
  0
MATERIAL
  5
20
102
{ACAD_REACTORS
330
E
102
}
330
E
100
AcDbMaterial
  1
ByLayer
  2

 70
0
 40
1.0
 71
1
 41
1.0
 91
-1023410177
 42
1.0
 72
1
  3

 73
1
 74
1
 75
1
 44
0.5
 73
0
 45
1.0
 46
1.0
 77
1
  4

 78
1
 79
1
170
1
 48
1.0
171
1
  6

172
1
173
1
174
1
140
1.0
141
1.0
175
1
  7

176
1
177
1
178
1
143
1.0
179
1
  8

270
1
271
1
272
1
145
1.0
146
1.0
273
1
  9

274
1
275
1
276
1
 42
1.0
 72
1
  3

 73
1
 74
1
 75
1
 94
63
  0
MATERIAL
  5
21
102
{ACAD_REACTORS
330
E
102
}
330
E
100
AcDbMaterial
  1
Global
  2

 70
0
 40
1.0
 71
1
 41
1.0
 91
-1023410177
 42
1.0
 72
1
  3

 73
1
 74
1
 75
1
 44
0.5
 73
0
 45
1.0
 46
1.0
 77
1
  4

 78
1
 79
1
170
1
 48
1.0
171
1
  6

172
1
173
1
174
1
140
1.0
141
1.0
175
1
  7

176
1
177
1
178
1
143
1.0
179
1
  8

270
1
271
1
272
1
145
1.0
146
1.0
273
1
  9

274
1
275
1
276
1
 42
1.0
 72
1
  3

 73
1
 74
1
 75
1
 94
63
  0
MLINESTYLE
  5
22
102
{ACAD_REACTORS
330
10
102
}
330
10
100
AcDbMlineStyle
  2
Standard
 70
0
  3

 62
256
 51
90.0
 52
90.0
 71
2
 49
0.5
 62
256
  6
BYLAYER
 49
-0.5
 62
256
  6
BYLAYER
  0
MLEADERSTYLE
  5
2C
102
{ACAD_REACTORS
330
F
102
}
330
F
100
AcDbMLeaderStyle
179
2
170
2
171
1
172
0
 90
2
 40
0.0
 41
0.0
173
1
 91
-1056964608
 92
-2
290
1
 42
2.0
291
1
 43
8.0
  3
Standard
 44
4.0
300

342
29
174
1
175
1
176
0
178
1
 93
-1056964608
 45
4.0
292
0
297
0
 46
4.0
 94
-1056964608
 47
1.0
 49
1.0
140
1.0
294
1
141
0.0
177
0
142
1.0
295
0
296
0
143
3.75
271
0
272
9
273
9
  0
DICTIONARY
  5
2D
330
A
100
AcDbDictionary
280
1
281
1
  3
CREATED_BY_EZDXF
350
2E
  3
WRITTEN_BY_EZDXF
350
C6
  0
DICTIONARYVAR
  5
2E
330
2D
100
DictionaryVariables
280
0
  1
1.4.4 @ 2026-10-10T00:52:53.252880+00:00
  0
DICTIONARYVAR
  5
C6
330
2D
100
DictionaryVariables
280
0
  1
1.4.4 @ 2026-10-10T00:52:53.257509+00:00
  0
ENDSEC
  0
EOF
